<?xml version="1.0" encoding="UTF-8" standalone="no"?>
<svg
   width="168"
   height="30"
   viewBox="0 0 168 30"
   fill="none"
   version="1.1"
   id="svg5"
   xmlns="http://www.w3.org/2000/svg"
   xmlns:svg="http://www.w3.org/2000/svg">
  <defs
     id="defs5" />
  <path
     d="M0 15C0 6.71573 6.71573 0 15 0H153C161.284 0 168 6.71573 168 15V15C168 23.2843 161.284 30 153 30H15C6.71573 30 0 23.2843 0 15V15Z"
     fill="#BFC2FF"
     id="path1" />
  <path
     d="M20.4154 16.7693H17.5539L16.9692 18.5847C16.9539 18.6539 16.8923 18.7001 16.8231 18.6924H15.3769C15.2923 18.6924 15.2692 18.6462 15.2923 18.5539L17.7692 11.4539C17.7923 11.377 17.8154 11.3078 17.8462 11.2155C17.8769 11.0539 17.8923 10.8847 17.8923 10.7155C17.8846 10.677 17.9154 10.6386 17.9539 10.6309H17.9769H19.9462C20 10.6309 20.0385 10.6539 20.0462 10.6924L22.8539 18.5386C22.8769 18.6232 22.8539 18.6616 22.7769 18.6616H21.1692C21.1154 18.6693 21.0615 18.6309 21.0462 18.577L20.4154 16.7309V16.7693ZM18 15.2386H19.9539C19.9077 15.077 19.8462 14.8847 19.7769 14.6847C19.7077 14.477 19.6385 14.2539 19.5692 14.0232C19.4923 13.7847 19.4231 13.5539 19.3462 13.3155C19.2692 13.077 19.2 12.8539 19.1385 12.6309C19.0769 12.4155 19.0231 12.2155 18.9692 12.0309H18.9539C18.8846 12.3616 18.8 12.6924 18.6923 13.0232C18.5769 13.3924 18.4615 13.777 18.3385 14.1616C18.2385 14.5539 18.1154 14.9155 18 15.2386V15.2386Z"
     fill="#BFC2FF"
     id="path4" />
  <path
     d="M27.3846 16.0767H24.9461C24.9769 16.3152 25.0538 16.5536 25.1846 16.7613C25.3231 16.969 25.5154 17.1306 25.7461 17.2229C26.0538 17.3536 26.3923 17.4229 26.7308 17.4152C27 17.4075 27.2692 17.3844 27.5308 17.3306C27.7692 17.2998 28 17.2383 28.2154 17.1536C28.2538 17.1229 28.2769 17.1383 28.2769 17.2152V18.3921C28.2769 18.4229 28.2692 18.4536 28.2615 18.4844C28.2461 18.5075 28.2308 18.5229 28.2077 18.5383C27.9615 18.6459 27.7077 18.7229 27.4385 18.769C27.0769 18.8383 26.7154 18.869 26.3461 18.8613C25.7615 18.8613 25.2692 18.769 24.8692 18.5921C24.4923 18.4306 24.1615 18.1767 23.9 17.8613C23.6538 17.5613 23.4769 17.2229 23.3692 16.8536C23.2615 16.4921 23.2077 16.1152 23.2077 15.7306C23.2077 15.3152 23.2692 14.9075 23.4 14.5075C23.5231 14.1229 23.7154 13.769 23.9769 13.4536C24.2308 13.1459 24.5461 12.8998 24.9077 12.7229C25.2692 12.5459 25.7 12.4844 26.1923 12.4844C26.6 12.4767 27.0077 12.5536 27.3846 12.7229C27.7 12.8613 27.9769 13.069 28.1923 13.3383C28.3923 13.5998 28.5538 13.8921 28.6538 14.2152C28.7538 14.5229 28.8 14.8383 28.8 15.1536C28.8 15.3383 28.7923 15.4998 28.7846 15.6459C28.7692 15.7921 28.7615 15.8998 28.7538 15.969C28.7461 16.0229 28.7 16.069 28.6461 16.069C28.6 16.069 28.5154 16.0767 28.3923 16.0844C28.2692 16.0998 28.1231 16.1075 27.9461 16.1075C27.7692 16.1075 27.5846 16.0767 27.3846 16.0767V16.0767ZM24.9461 14.9536H26.5692C26.7692 14.9536 26.9154 14.9536 27.0077 14.9459C27.0692 14.9383 27.1308 14.9229 27.1846 14.8844V14.8075C27.1846 14.7075 27.1692 14.6152 27.1385 14.5229C27 14.0921 26.5923 13.7998 26.1385 13.8152C25.7154 13.7921 25.3154 14.0152 25.1154 14.3998C25.0231 14.5767 24.9692 14.7613 24.9461 14.9536Z"
     fill="#BFC2FF"
     id="path5" />
  <text
     xml:space="preserve"
     style="font-weight:900;font-size:18.6667px;font-family:Roboto;-inkscape-font-specification:'Roboto, Heavy';fill:#212674;fill-opacity:1;stroke-width:1.00157;stroke-linejoin:round"
     x="29.777246"
     y="19.830738"
     id="text5"><tspan
       id="tspan5"
       x="29.777246"
       y="19.830738">Open Source</tspan></text>
</svg>
