<?xml version="1.0" standalone="no"?>
<!DOCTYPE svg PUBLIC "-//W3C//DTD SVG 20010904//EN"
 "http://www.w3.org/TR/2001/REC-SVG-20010904/DTD/svg10.dtd">
<svg version="1.0" xmlns="http://www.w3.org/2000/svg"
 width="512.000000pt" height="512.000000pt" viewBox="0 0 512.000000 512.000000"
 preserveAspectRatio="xMidYMid meet">

<g transform="translate(0.000000,512.000000) scale(0.100000,-0.100000)"
fill="#000000" stroke="none">
<path d="M2434 5096 c-28 -13 -89 -57 -134 -97 -390 -348 -771 -507 -1335
-559 -83 -8 -154 -20 -197 -35 -174 -60 -305 -205 -353 -390 -22 -84 -32 -811
-16 -1085 36 -591 114 -973 277 -1357 183 -432 487 -808 879 -1089 303 -217
853 -474 1015 -474 90 0 330 91 595 225 279 141 471 272 682 464 349 317 611
755 747 1248 120 435 163 888 153 1608 -5 316 -9 413 -22 460 -48 185 -179
330 -353 390 -43 15 -114 27 -197 35 -562 51 -934 206 -1325 551 -122 107
-169 129 -280 129 -69 0 -95 -5 -136 -24z m356 -1500 c107 -38 174 -81 260
-166 191 -189 250 -468 152 -720 -34 -89 -101 -188 -171 -253 l-59 -54 -4
-284 c-5 -321 -10 -349 -89 -449 -82 -104 -197 -155 -334 -148 -168 9 -306
116 -355 274 -18 60 -20 93 -20 336 l0 269 -60 55 c-318 295 -283 805 72 1054
71 50 169 93 249 110 24 5 98 8 164 6 99 -3 133 -8 195 -30z"/>
<path d="M2459 3316 c-115 -44 -201 -125 -240 -224 -34 -86 -33 -208 3 -284
37 -80 73 -124 137 -168 31 -21 67 -50 81 -65 l25 -27 5 -340 5 -340 28 -24
c58 -50 146 -19 161 57 3 18 6 163 6 323 0 343 -3 332 107 416 84 63 103 87
141 167 22 49 26 71 26 143 -1 112 -27 180 -100 259 -75 81 -150 115 -264 118
-53 2 -98 -3 -121 -11z"/>
</g>
</svg>
