<?xml version="1.0" standalone="no"?>
<!DOCTYPE svg PUBLIC "-//W3C//DTD SVG 20010904//EN"
 "http://www.w3.org/TR/2001/REC-SVG-20010904/DTD/svg10.dtd">
<svg version="1.0" xmlns="http://www.w3.org/2000/svg"
 width="512.000000pt" height="512.000000pt" viewBox="0 0 512.000000 512.000000"
 preserveAspectRatio="xMidYMid meet">

<g transform="translate(0.000000,512.000000) scale(0.100000,-0.100000)"
fill="#000000" stroke="none">
<path d="M2405 4939 c-487 -70 -876 -463 -944 -953 -6 -43 -11 -152 -11 -242
l0 -165 43 29 c23 16 60 39 83 51 l41 23 6 152 c9 224 52 367 158 526 193 288
535 449 876 412 269 -30 521 -178 672 -396 49 -72 111 -189 111 -212 0 -6 11
-23 25 -38 33 -36 86 -36 122 0 35 35 28 77 -30 197 -105 216 -290 403 -505
511 -182 92 -443 134 -647 105z"/>
<path d="M2295 3735 c-590 -95 -1084 -456 -1341 -980 -250 -512 -247 -1091 11
-1605 327 -652 1051 -1048 1773 -969 687 75 1249 507 1498 1151 131 338 149
765 47 1118 -187 650 -714 1135 -1379 1271 -141 29 -470 36 -609 14z m499
-771 c311 -53 651 -231 983 -516 129 -110 358 -351 382 -402 25 -51 26 -108 3
-158 -39 -87 -305 -354 -507 -511 -803 -625 -1547 -578 -2365 148 -136 121
-306 305 -331 360 -24 53 -24 109 2 161 24 51 253 292 382 402 380 326 739
497 1122 536 65 6 234 -4 329 -20z"/>
<path d="M2460 2809 c-221 -21 -488 -115 -578 -202 -225 -217 -317 -599 -221
-915 48 -156 169 -347 259 -407 66 -44 245 -112 373 -143 153 -35 372 -37 522
-3 183 42 376 123 431 183 246 264 319 658 184 990 -64 156 -180 307 -271 354
-85 43 -200 85 -299 109 -87 21 -130 27 -275 39 -22 2 -78 0 -125 -5z m245
-444 c15 -14 25 -35 25 -52 0 -15 -41 -188 -90 -383 -97 -386 -98 -390 -167
-390 -39 0 -83 37 -83 70 0 16 121 513 171 702 20 76 94 104 144 53z m-510
-97 c43 -51 31 -76 -90 -198 l-104 -105 103 -105 c64 -64 107 -117 112 -134
14 -58 -44 -116 -102 -102 -32 9 -286 252 -310 299 -27 51 -12 75 145 230 135
134 151 147 183 147 28 0 42 -7 63 -32z m976 -115 c157 -155 172 -179 145
-230 -23 -44 -277 -290 -308 -298 -57 -14 -118 46 -103 103 4 15 53 74 111
132 l103 105 -104 105 c-121 122 -133 147 -90 198 21 25 35 32 63 32 32 0 48
-13 183 -147z"/>
<path d="M1434 2302 c-101 -89 -324 -320 -324 -337 0 -20 194 -226 300 -320
108 -96 128 -110 115 -79 -24 57 -54 181 -65 268 -20 158 0 342 55 495 8 24
14 46 12 47 -2 2 -43 -32 -93 -74z"/>
<path d="M3594 2365 c43 -112 76 -287 76 -403 0 -95 -25 -249 -55 -338 -14
-42 -24 -78 -23 -80 2 -1 58 48 126 109 131 120 292 292 292 314 0 15 -315
334 -380 384 -34 26 -42 30 -36 14z"/>
</g>
</svg>
