<?xml version="1.0" encoding="UTF-8" standalone="no"?>
<svg
   width="143"
   height="30"
   viewBox="0 0 143 30"
   fill="none"
   version="1.1"
   id="svg3"
   xml:space="preserve"
   xmlns="http://www.w3.org/2000/svg"
   xmlns:svg="http://www.w3.org/2000/svg"><defs
     id="defs3" /><g
     id="g3"
     transform="translate(33.898634)"><g
       id="g4"
       transform="translate(3.988203)"><path
         d="m -25.831279,15 c 0,-8.28427 5.583396,-15 12.470863,-15 h 93.947159 c 6.88724,0 12.470862,6.71573 12.470862,15 v 0 c 0,8.2843 -5.583622,15 -12.470862,15 h -93.947159 c -6.887467,0 -12.470863,-6.7157 -12.470863,-15 z"
         fill="#1B1B1B"
         id="path1"
         style="fill:#5019c5;fill-opacity:1;stroke-width:0.911806" /><text
         xml:space="preserve"
         style="font-weight:bold;font-size:16px;font-family:Roboto;-inkscape-font-specification:'Roboto, Bold';text-align:start;writing-mode:lr-tb;direction:ltr;text-anchor:start;fill:#ffffff;fill-opacity:1;stroke-width:0.07"
         x="11.789475"
         y="20.28425"
         id="text3"><tspan
           id="tspan3"
           x="11.789475"
           y="20.28425">FireWorks</tspan></text><path
         style="fill:#ffffff;fill-opacity:1;stroke-width:0.607607"
         d="m -17.896298,20.376095 c 0.05836,-0.183885 0.203104,-0.566466 0.321647,-0.85018 l 0.215534,-0.515844 h 3.435419 3.435418 l -2.383177,-2.386903 -2.383177,-2.386904 0.209633,-0.635193 c 0.432176,-1.309509 0.305134,-1.37409 3.333433,1.694523 1.525046,1.545348 2.867574,2.989186 2.983396,3.208527 0.27899,0.528347 0.01334,1.450217 -0.544308,1.888861 -0.384396,0.302366 -0.601381,0.317449 -4.566752,0.317449 h -4.16318 z m 14.307604,-0.06143 c -0.582296,-0.489968 -0.75568,-1.246251 -0.427674,-1.865483 0.129314,-0.244128 1.488622,-1.691959 3.020685,-3.217404 l 2.78557,-2.773536 0.316425,0.738191 c 0.174034,0.406005 0.316426,0.806395 0.316426,0.889757 0,0.08336 -1.054406,1.225337 -2.343124,2.537724 l -2.343124,2.386157 h 3.417938 3.417937 l 0.316389,0.715252 c 0.174014,0.393388 0.31639,0.775969 0.31639,0.85018 0,0.07421 -1.872788,0.134928 -4.16175,0.134928 h -4.16175 z m -3.870067,-3.430043 c -0.384074,-0.35717 -1.897362,-3.690554 -3.371994,-7.4276343 -0.06116,-0.154986 0.143742,-0.190436 0.89345,-0.154578 l 0.972807,0.04653 1.233315,2.9756293 c 0.678323,1.636596 1.282765,2.97563 1.343205,2.97563 0.06044,0 0.64846,-1.304254 1.306713,-2.898341 0.658253,-1.594087 1.249378,-2.9542843 1.31361,-3.0226593 0.06423,-0.06838 0.50712,-0.103156 0.984196,-0.07729 l 0.867409,0.04703 -1.535545,3.6325853 c -1.028713,2.433586 -1.667575,3.747385 -1.935548,3.980387 -0.582267,0.50628 -1.480114,0.472783 -2.071618,-0.07729 z"
         id="path4" /></g></g></svg>
