<?xml version="1.0" encoding="UTF-8" standalone="no"?>
<svg
   width="143"
   height="30"
   viewBox="0 0 143 30"
   fill="none"
   version="1.1"
   id="svg3"
   xml:space="preserve"
   xmlns="http://www.w3.org/2000/svg"
   xmlns:svg="http://www.w3.org/2000/svg"><defs
     id="defs3" /><g
     id="g3"
     transform="translate(33.898634)"><path
       d="M 0,15 C 0,6.71573 3.5317568,0 7.8883986,0 H 67.314332 c 4.356499,0 7.888401,6.71573 7.888401,15 v 0 c 0,8.2843 -3.531902,15 -7.888401,15 H 7.8883986 C 3.5317568,30 0,23.2843 0,15 Z"
       fill="#1B1B1B"
       id="path1"
       style="fill:#f55036;fill-opacity:1;stroke-width:0.725185" /><text
       xml:space="preserve"
       style="font-weight:bold;font-size:16px;font-family:Roboto;-inkscape-font-specification:'Roboto, Bold';text-align:start;writing-mode:lr-tb;direction:ltr;text-anchor:start;fill:#ffffff;fill-opacity:1;stroke-width:0.07"
       x="31.620754"
       y="20.28425"
       id="text3"><tspan
         id="tspan3"
         x="31.620754"
         y="20.28425">Groq</tspan></text><path
       style="fill:#ffffff;fill-opacity:1;stroke-width:0.346735"
       d="m 13.64049,21.607919 c -1.66497,-1.16619 -0.538159,-2.083753 2.11274,-1.720407 2.851411,0.390829 3.354191,-0.352384 3.354191,-4.958192 0,-2.8409 -0.166676,-3.689332 -0.845452,-4.303615 -1.781637,-1.6123598 -4.702308,-0.394991 -4.702308,1.959975 0,1.841464 0.860882,2.801542 2.788471,3.109776 1.380237,0.220709 1.834663,0.507758 1.834663,1.158913 0,0.705105 -0.351342,0.865539 -1.895485,0.865539 -1.539232,0 -2.190914,-0.295429 -3.46735,-1.571865 -2.121302,-2.121303 -2.217604,-4.788219 -0.244164,-6.7616599 2.375052,-2.3750526 5.140438,-2.3750526 7.51549,0 1.269155,1.2691549 1.327701,1.5147829 1.327701,5.5703139 0,4.208515 -0.01264,4.255248 -1.571865,5.814479 -1.247103,1.247102 -1.942238,1.571865 -3.364482,1.571865 -0.985939,0 -2.264907,-0.330805 -2.84215,-0.735122 z"
       id="path3" /></g></svg>
