<?xml version="1.0" encoding="UTF-8" standalone="no"?>
<svg
   width="143"
   height="30"
   viewBox="0 0 143 30"
   fill="none"
   version="1.1"
   id="svg3"
   xml:space="preserve"
   xmlns="http://www.w3.org/2000/svg"
   xmlns:svg="http://www.w3.org/2000/svg"><defs
     id="defs3" /><g
     id="g3"
     transform="translate(33.898634)"><g
       id="g4"
       transform="translate(-3.831279)"><path
         d="M -22,15 C -22,6.71573 -16.042007,0 -8.692451,0 H 91.557741 c 7.349314,0 13.307549,6.71573 13.307549,15 v 0 c 0,8.2843 -5.958235,15 -13.307549,15 H -8.692451 C -16.042007,30 -22,23.2843 -22,15 Z"
         fill="#1B1B1B"
         id="path1"
         style="fill:#8190a2;fill-opacity:1;stroke-width:0.941897" /><text
         xml:space="preserve"
         style="font-weight:bold;font-size:16px;font-family:Roboto;-inkscape-font-specification:'Roboto, Bold';text-align:start;writing-mode:lr-tb;direction:ltr;text-anchor:start;fill:#ffffff;fill-opacity:1;stroke-width:0.07"
         x="11.620754"
         y="20.28425"
         id="text3"><tspan
           id="tspan3"
           x="11.620754"
           y="20.28425">OpenRouter</tspan></text><path
         style="fill:#ffffff;fill-opacity:1;stroke-width:0.0434337"
         d="m -1.136209,21.43056 -0.01637,-0.634246 -1.013452,-0.02807 c -1.591975,-0.0441 -2.634734,-0.280337 -3.787165,-0.857993 -0.675594,-0.338641 -0.7287,-0.372454 -2.119209,-1.349328 -1.980312,-1.391227 -2.595302,-1.686912 -4.141275,-1.9911 l -0.521204,-0.102554 v -1.468408 -1.468408 l 0.20269,-0.02198 c 0.309843,-0.03359 1.061957,-0.229138 1.741343,-0.452745 0.673473,-0.221663 1.418529,-0.640008 2.485308,-1.395486 1.715223,-1.214702 2.286059,-1.558861 3.149947,-1.8991232 0.911246,-0.358916 2.092362,-0.552677 3.368956,-0.552677 h 0.778839 V 8.5714157 c 0,-0.3503656 0.01954,-0.6365986 0.04344,-0.6360749 0.02389,4.53e-4 0.147675,0.063648 0.275079,0.1402736 0.127406,0.076622 0.361948,0.2143343 0.521204,0.3060213 0.159257,0.091682 0.823793,0.4762014 1.476744,0.8544821 0.652952,0.37828 1.510224,0.8721032 1.905048,1.0973812 0.394822,0.22528 0.720574,0.433396 0.723894,0.46248 0.0054,0.04709 -1.203284,0.778723 -2.397296,1.451148 -0.397223,0.223702 -1.667506,0.955061 -2.229594,1.283678 -0.127404,0.07448 -0.251191,0.135744 -0.275079,0.136128 -0.02388,4.52e-4 -0.04344,-0.323875 -0.04344,-0.720574 V 12.22509 l -0.214145,-0.04017 c -0.330175,-0.06194 -1.916674,0.02201 -2.29656,0.121521 -0.788324,0.206508 -1.226121,0.443967 -2.527598,1.370964 -0.62374,0.444267 -1.870423,1.264283 -1.922109,1.264283 -0.140639,0 0.03189,0.149182 0.686243,0.593363 0.387294,0.2629 1.070958,0.733295 1.519254,1.04532 0.448297,0.312027 0.998067,0.657753 1.221712,0.768282 0.751554,0.371426 1.871506,0.549073 2.914077,0.462227 l 0.503304,-0.04192 v -0.718696 c 0,-0.449814 0.02209,-0.718696 0.05906,-0.718696 0.05205,0 0.780189,0.412242 2.807564,1.589514 0.318512,0.184957 0.938951,0.544291 1.378749,0.798518 0.4398,0.254231 0.791612,0.469022 0.781807,0.477317 -0.0098,0.0083 -0.369643,0.217813 -0.799636,0.465593 -0.429993,0.247782 -1.27695,0.73655 -1.882124,1.08615 -0.605176,0.349601 -1.212237,0.699028 -1.349025,0.776505 -0.136787,0.07748 -0.397388,0.230524 -0.579115,0.340106 -0.181726,0.109582 -0.349101,0.199307 -0.371947,0.199389 -0.02284,8.7e-5 -0.0489,-0.285262 -0.05792,-0.634096 z"
         id="path3" /></g></g></svg>
