<?xml version="1.0" encoding="UTF-8" standalone="no"?>
<svg
   width="143"
   height="30"
   viewBox="0 0 143 30"
   fill="none"
   version="1.1"
   id="svg3"
   xml:space="preserve"
   xmlns="http://www.w3.org/2000/svg"
   xmlns:svg="http://www.w3.org/2000/svg"><defs
     id="defs3"><linearGradient
       id="swatch7"><stop
         style="stop-color:#ffffff;stop-opacity:1;"
         offset="0"
         id="stop7" /></linearGradient></defs><g
     id="g5"><g
       id="g7"
       transform="translate(3.4359901)"><g
         id="g10"><path
           d="M 26.011555,15 C 26.011555,6.7157301 29.961386,1.2e-7 34.833748,1.2e-7 h 66.460522 c 4.87221,0 8.82219,6.71572998 8.82219,14.99999988 v 0 c 0,8.2843 -3.94998,15 -8.82219,15 H 34.833748 c -4.872362,0 -8.822193,-6.7157 -8.822193,-15 z"
           fill="#1b1b1b"
           id="path1"
           style="fill:#013525;fill-opacity:1;stroke-width:0.766907" /><text
           xml:space="preserve"
           style="font-style:normal;font-variant:normal;font-weight:bold;font-stretch:normal;font-size:18.6667px;font-family:Roboto;-inkscape-font-specification:'Roboto, Bold';font-variant-ligatures:normal;font-variant-caps:normal;font-variant-numeric:normal;font-variant-east-asian:normal;text-align:start;writing-mode:lr-tb;direction:ltr;text-anchor:start;fill:#ffffff;fill-opacity:1"
           x="55.75647"
           y="21.104025"
           id="text3"><tspan
             id="tspan3"
             x="55.75647"
             y="21.104025"
             style="font-style:normal;font-variant:normal;font-weight:bold;font-stretch:normal;font-size:18.6667px;font-family:Roboto;-inkscape-font-specification:'Roboto, Bold';font-variant-ligatures:normal;font-variant-caps:normal;font-variant-numeric:normal;font-variant-east-asian:normal;fill:#ffffff;fill-opacity:1">01.AI</tspan></text><g
           style="fill:none"
           id="g9"
           transform="matrix(0.03346882,0,0,0.03346882,32.189649,4.044141)"><circle
             cx="300"
             cy="300"
             r="300"
             fill="#003425"
             id="circle1" /><rect
             x="409.733"
             y="340.03101"
             width="42.3862"
             height="151.64799"
             rx="21.1931"
             fill="#ffffff"
             id="rect1" /><path
             fill-rule="evenodd"
             clip-rule="evenodd"
             d="m 422.005,133.354 c -8.916,-7.583 -22.291,-6.503 -29.874,2.413 L 273.699,275.021 c -3.056,3.593 -4.705,7.911 -5.001,12.281 -0.166,1.069 -0.252,2.164 -0.252,3.279 v 178.022 c 0,11.705 9.488,21.193 21.193,21.193 11.705,0 21.193,-9.488 21.193,-21.193 V 296.784 L 424.419,163.228 c 7.583,-8.916 6.502,-22.291 -2.414,-29.874 z"
             fill="#ffffff"
             id="path1-4" /><rect
             x="113.972"
             y="134.25"
             width="42.3862"
             height="174.745"
             rx="21.1931"
             transform="rotate(-39.3441,113.972,134.25)"
             fill="#ffffff"
             id="rect2" /><circle
             cx="460.12601"
             cy="279.27802"
             r="25.9027"
             fill="#00ff25"
             id="circle2" /></g></g></g></g></svg>
