<?xml version="1.0" encoding="UTF-8" standalone="no"?>
<svg
   width="168"
   height="30"
   viewBox="0 0 168 30"
   fill="none"
   version="1.1"
   id="svg5"
   xml:space="preserve"
   xmlns="http://www.w3.org/2000/svg"
   xmlns:svg="http://www.w3.org/2000/svg"><defs
     id="defs5" /><g
     id="g8"><g
       id="g10"
       transform="translate(19.473946)"><g
         id="g12"
         transform="translate(26.203477)"><path
           d="m -2.8736475,15 c 0,-8.28427 3.29360369,-15 7.3564699,-15 H 72.162334 c 4.062736,0 7.356468,6.71573 7.356468,15 v 0 c 0,8.2843 -3.293726,15 -7.356468,15 H 4.4828224 C 0.41995619,30 -2.8736475,23.2843 -2.8736475,15 Z"
           fill="#BFC2FF"
           id="path1"
           style="fill:#fb0f01;fill-opacity:1;stroke-width:0.700309" /><text
           xml:space="preserve"
           style="font-style:normal;font-variant:normal;font-weight:900;font-stretch:normal;font-size:14.6667px;font-family:Roboto;-inkscape-font-specification:'Roboto, Heavy';font-variant-ligatures:normal;font-variant-caps:normal;font-variant-numeric:normal;font-variant-east-asian:normal;fill:#fefeff;fill-opacity:1;stroke-width:1.00157;stroke-linejoin:round"
           x="28.645163"
           y="20.503416"
           id="text5"><tspan
             id="tspan5"
             x="28.645163"
             y="20.503416"
             style="font-style:normal;font-variant:normal;font-weight:900;font-stretch:normal;font-size:14.6667px;font-family:Roboto;-inkscape-font-specification:'Roboto, Heavy';font-variant-ligatures:normal;font-variant-caps:normal;font-variant-numeric:normal;font-variant-east-asian:normal;fill:#fefeff;fill-opacity:1">Adobe</tspan></text><path
           style="fill:#ffffff;fill-opacity:1;stroke-width:0.0867508"
           d="M 5.6867722,22.506862 C 5.5826666,22.312346 5.9569204,21.332579 7.9511292,16.578891 11.884211,7.2034403 11.728928,7.5517742 12.049403,7.385657 c 0.210872,-0.1093062 0.812952,-0.1414298 2.223696,-0.1186466 1.760846,0.02844 1.954329,0.052012 2.155152,0.2625774 0.121349,0.1272348 1.58996,3.5020372 3.263576,7.4995612 2.395649,5.722122 3.017165,7.30914 2.921749,7.460568 -0.104129,0.165264 -0.405296,0.196775 -2.139241,0.223836 -1.970495,0.03075 -2.023707,0.02529 -2.25856,-0.231335 -0.132285,-0.144557 -1.087886,-2.28167 -2.123548,-4.74914 -1.040128,-2.478093 -1.927232,-4.442112 -1.98177,-4.387572 -0.121212,0.12121 -2.408058,5.525049 -2.408058,5.690257 0,0.07441 0.532069,0.118431 1.431684,0.118431 1.027771,0 1.466611,0.04209 1.555492,0.149182 0.06809,0.08205 0.389804,0.770396 0.714898,1.529657 0.487936,1.139555 0.570161,1.426409 0.471173,1.643668 l -0.119917,0.263192 h -4.972121 c -4.8657982,0 -4.9747897,-0.005 -5.0968358,-0.233031 z"
           id="path12" /></g></g></g></svg>
