<?xml version="1.0" encoding="UTF-8" standalone="no"?>
<svg
   width="143"
   height="30"
   viewBox="0 0 143 30"
   fill="none"
   version="1.1"
   id="svg3"
   xml:space="preserve"
   xmlns="http://www.w3.org/2000/svg"
   xmlns:svg="http://www.w3.org/2000/svg"><defs
     id="defs3"><linearGradient
       id="swatch7"><stop
         style="stop-color:#ffffff;stop-opacity:1;"
         offset="0"
         id="stop7" /></linearGradient></defs><g
     id="g5"><g
       id="g7"
       transform="translate(3.4359901)"><g
         id="g10"><g
           id="g18"
           transform="translate(-7.6359176)"><path
             d="M 26.011555,15 C 26.011555,6.7157301 30.6786,1.2e-7 36.43569,1.2e-7 h 78.52848 C 120.72108,1.2e-7 125.3883,6.7157301 125.3883,15 v 0 c 0,8.2843 -4.66722,15 -10.42413,15 H 36.43569 C 30.6786,30 26.011555,23.2843 26.011555,15 Z"
             fill="#1b1b1b"
             id="path1"
             style="fill:#6b63f8;fill-opacity:1;stroke-width:0.833632" /><text
             xml:space="preserve"
             style="font-style:normal;font-variant:normal;font-weight:bold;font-stretch:normal;font-size:18.6667px;font-family:Roboto;-inkscape-font-specification:'Roboto, Bold';font-variant-ligatures:normal;font-variant-caps:normal;font-variant-numeric:normal;font-variant-east-asian:normal;text-align:start;writing-mode:lr-tb;direction:ltr;text-anchor:start;fill:#ffffff;fill-opacity:1"
             x="53.75647"
             y="21.104025"
             id="text3"><tspan
               id="tspan3"
               x="53.75647"
               y="21.104025"
               style="font-style:normal;font-variant:normal;font-weight:bold;font-stretch:normal;font-size:18.6667px;font-family:Roboto;-inkscape-font-specification:'Roboto, Bold';font-variant-ligatures:normal;font-variant-caps:normal;font-variant-numeric:normal;font-variant-east-asian:normal;fill:#ffffff;fill-opacity:1">Alibaba</tspan></text><path
             style="fill:#ffffff;fill-opacity:1;stroke:#ffffff;stroke-width:0.0190262;stroke-dasharray:none;stroke-opacity:1"
             d="m 42.886745,21.747403 c -0.08895,-0.144188 -0.161723,-0.290497 -0.161723,-0.32513 0,-0.09028 -0.55959,-1.00935 -0.690409,-1.133925 l -0.10989,-0.104643 h -1.97812 c -1.739324,0 -1.978119,-0.0069 -1.978119,-0.0575 0,-0.03162 0.0825,-0.190014 0.183334,-0.351984 0.100834,-0.16197 0.281565,-0.478568 0.40162,-0.703552 l 0.218286,-0.409062 h 0.753129 c 0.414222,0 0.909873,-0.01112 1.101446,-0.02472 l 0.348317,-0.02472 V 18.48726 c 0,-0.0943 -0.27807,-0.608057 -1.134825,-2.096691 -0.624154,-1.084486 -1.230933,-2.145495 -1.348397,-2.357799 -0.447486,-0.808779 -1.485463,-2.585482 -1.554383,-2.660632 -0.03963,-0.04321 -0.07204,-0.113418 -0.07204,-0.156024 0,-0.07048 0.03142,-0.0797 0.348316,-0.102194 0.191576,-0.01359 0.666753,-0.02478 1.055953,-0.02484 l 0.707635,-1.15e-4 0.626112,-1.1129145 c 0.52511,-0.9333848 1.359145,-2.3859749 1.386523,-2.4148248 0.01276,-0.013447 0.653517,1.0936173 0.780433,1.34839 0.06487,0.1302086 0.117934,0.25495 0.117934,0.2772037 0,0.022251 -0.214044,0.4118377 -0.475654,0.8657426 -0.344188,0.597183 -0.475653,0.859747 -0.475653,0.949984 v 0.124702 h 4.166727 c 3.726711,0 4.166729,0.0062 4.166729,0.05861 0,0.03223 -0.205483,0.403939 -0.456628,0.826011 -0.594852,0.9997 -0.591053,0.904985 -0.07087,1.767376 0.212163,0.351742 0.408621,0.693525 0.436574,0.759519 0.02795,0.06599 0.193718,0.357094 0.368366,0.64689 0.349186,0.579401 0.788029,1.356895 0.788029,1.396141 0,0.01374 -0.409689,0.02499 -0.910418,0.02499 h -0.910424 l -0.28514,-0.46614 c -0.156831,-0.256375 -0.395531,-0.671619 -0.530449,-0.922764 -0.204314,-0.380326 -0.261371,-0.458574 -0.341451,-0.468273 -0.0698,-0.0084 -0.116838,0.0176 -0.171678,0.09513 -0.104504,0.147731 -0.977991,1.658383 -1.287609,2.226855 -0.140036,0.257113 -0.685843,1.212352 -1.212903,2.122754 -0.52706,0.910401 -1.102429,1.916116 -1.278597,2.23492 -0.176168,0.318806 -0.328869,0.579793 -0.339332,0.579973 -0.01046,1.79e-4 -0.09179,-0.117647 -0.180748,-0.261836 z m 0.705636,-4.741066 c 0.239794,-0.418576 0.707813,-1.22819 1.040043,-1.799143 0.332228,-0.570951 0.604052,-1.064886 0.604052,-1.097633 0,-0.03275 0.09418,-0.196259 0.209287,-0.363361 0.115109,-0.167103 0.209288,-0.345266 0.209288,-0.39592 v -0.09209 h -2.606584 -2.606584 v 0.112833 c 0,0.07207 0.07561,0.230023 0.209288,0.437252 0.115109,0.178434 0.209288,0.349376 0.209288,0.379873 0,0.0305 0.147664,0.30035 0.328143,0.599672 0.340162,0.564157 1.111154,1.90568 1.362494,2.370732 0.07917,0.146503 0.197792,0.348251 0.263587,0.448332 0.10274,0.156282 0.135298,0.18045 0.230667,0.171235 0.101514,-0.0098 0.14843,-0.07601 0.547031,-0.771775 z"
             id="path18" /></g></g></g></g></svg>
