<?xml version="1.0" encoding="UTF-8" standalone="no"?>
<svg
   width="143"
   height="30"
   viewBox="0 0 143 30"
   fill="none"
   version="1.1"
   id="svg3"
   xml:space="preserve"
   xmlns="http://www.w3.org/2000/svg"
   xmlns:svg="http://www.w3.org/2000/svg"><defs
     id="defs3" /><g
     id="g4"
     transform="translate(24.665498)"><path
       d="M 0,15 C 0,6.71573 4.3989912,0 9.82542,0 h 74.018164 c 5.426253,0 9.82542,6.71573 9.82542,15 v 0 c 0,8.2843 -4.399167,15 -9.82542,15 H 9.82542 C 4.3989912,30 0,23.2843 0,15 Z"
       fill="#1B1B1B"
       id="path1"
       style="fill:#f0519c;fill-opacity:1;stroke-width:0.809338" /><text
       xml:space="preserve"
       style="font-weight:bold;font-size:16px;font-family:Roboto;-inkscape-font-specification:'Roboto, Bold';text-align:start;writing-mode:lr-tb;direction:ltr;text-anchor:start;fill:#ffffff;fill-opacity:1;stroke-width:0.07"
       x="31.161095"
       y="20.921875"
       id="text3"><tspan
         id="tspan3"
         x="31.161095"
         y="20.921875">AllenAI</tspan></text><path
       style="fill:#ffffff;fill-opacity:1;stroke-width:1.08868"
       d="m 13.396328,22.733644 c -0.04198,-0.109384 -0.04694,-0.983683 -0.01104,-1.942882 0.0755,-2.016973 0.24461,-2.550101 1.034611,-3.261641 0.74773,-0.67347 1.186872,-0.777826 3.275674,-0.778414 l 1.834021,-5.18e-4 0.03433,1.497783 0.03433,1.497785 h -1.456009 c -1.051704,0 -1.492945,0.04451 -1.589026,0.160277 -0.07361,0.0887 -0.148554,0.784869 -0.167808,1.558917 l -0.03478,1.398642 -1.43899,0.03447 c -1.236489,0.02962 -1.449731,0.0066 -1.515308,-0.164415 z m -3.342507,-4.43637 c 0,-1.051704 -0.0445,-1.492945 -0.160277,-1.589028 -0.0887,-0.07361 -0.78487,-0.148553 -1.558918,-0.167806 l -1.39864,-0.03478 v -1.467215 -1.467218 l 1.83402,0.0089 c 2.120772,0.01019 2.563209,0.118611 3.31509,0.811671 0.814771,0.75103 0.964293,1.287347 0.964293,3.458818 v 1.83402 l -1.497784,0.03433 -1.497784,0.03433 z m 8.965478,-1.980449 C 18.304625,16.175512 17.868438,15.925352 17.364906,15.368003 16.7014,14.633579 16.596269,14.187487 16.595681,12.104002 l -5.18e-4,-1.834021 1.497784,-0.03433 1.497784,-0.03433 v 1.456008 c 0,1.051703 0.04451,1.492946 0.160277,1.589028 0.08871,0.07361 0.784869,0.148553 1.558918,0.167806 l 1.39864,0.03478 0.03476,1.396271 c 0.02577,1.034806 -0.0058,1.422067 -0.122268,1.495912 -0.200512,0.127226 -2.928503,0.108814 -3.601765,-0.02431 z m -8.873776,-3.121152 c -0.05043,-0.05123 -0.0917,-0.744226 -0.0917,-1.539987 v -1.446839 h 1.452245 c 1.0486,0 1.489218,-0.04455 1.585265,-0.160278 0.07361,-0.088701 0.148554,-0.7848683 0.167806,-1.5589166 l 0.03478,-1.3986402 h 1.467217 1.467217 l -0.0081,1.8951545 c -0.0089,2.1032603 -0.08907,2.4268823 -0.801958,3.2388223 -0.701587,0.799073 -1.24069,0.96285 -3.3471,1.016831 -1.008711,0.02584 -1.875287,0.0051 -1.925722,-0.04614 z"
       id="path4" /></g></svg>
