<?xml version="1.0" encoding="UTF-8" standalone="no"?>
<svg
   width="168"
   height="30"
   viewBox="0 0 168 30"
   fill="none"
   version="1.1"
   id="svg5"
   xml:space="preserve"
   xmlns="http://www.w3.org/2000/svg"
   xmlns:svg="http://www.w3.org/2000/svg"><defs
     id="defs5" /><g
     id="g3"
     transform="translate(-2.7626515)"><path
       d="m 32.822893,15 c 0,-8.28427 4.31244,-15 9.632101,-15 h 88.615316 c 5.31949,0 9.6321,6.71573 9.6321,15 v 0 c 0,8.2843 -4.3126,15 -9.6321,15 H 42.454994 c -5.319661,0 -9.6321,-6.7157 -9.632101,-15 z"
       fill="#BFC2FF"
       id="path1"
       style="fill:#f1eae0;fill-opacity:1;stroke-width:0.801338" /><text
       xml:space="preserve"
       style="font-style:normal;font-variant:normal;font-weight:900;font-stretch:normal;font-size:14.6667px;font-family:Roboto;-inkscape-font-specification:'Roboto, Heavy';font-variant-ligatures:normal;font-variant-caps:normal;font-variant-numeric:normal;font-variant-east-asian:normal;fill:#000000;fill-opacity:1;stroke-width:1.00157;stroke-linejoin:round"
       x="68.341705"
       y="20.503416"
       id="text5"><tspan
         id="tspan5"
         x="68.341705"
         y="20.503416"
         style="font-style:normal;font-variant:normal;font-weight:900;font-stretch:normal;font-size:14.6667px;font-family:Roboto;-inkscape-font-specification:'Roboto, Heavy';font-variant-ligatures:normal;font-variant-caps:normal;font-variant-numeric:normal;font-variant-east-asian:normal;fill:#000000;fill-opacity:1">All Hands</tspan></text><path
       style="fill:#000000;stroke-width:0.525886"
       d="m 44.021488,22.128134 c -1.955184,-0.850462 -2.344634,-1.881486 -2.370207,-6.274831 -0.02163,-3.716377 0.01537,-3.92334 0.759834,-4.250003 0.430416,-0.188862 0.934947,-0.780483 1.121182,-1.314714 0.247884,-0.7110815 0.572783,-0.9713288 1.212629,-0.9713288 0.480713,0 0.971528,-0.1577657 1.090699,-0.3505906 0.384485,-0.6221092 1.634359,-0.384786 1.825634,0.3466469 0.100282,0.3834809 0.307923,0.6196179 0.461425,0.5247479 0.153501,-0.094868 0.542341,-0.07147 0.864087,0.05199 0.511251,0.1961846 0.553756,0.6051206 0.337191,3.2440976 -0.244595,2.980545 -0.238923,3.011678 0.438374,2.406083 0.849692,-0.759739 1.811776,-0.791421 2.089073,-0.0688 0.190671,0.496882 -0.05372,1.256654 -1.48897,4.628868 -0.938306,2.20462 -3.817618,3.125418 -6.340951,2.027823 z m 4.895471,-0.895248 c 0.504688,-0.396988 1.159045,-1.508752 1.496031,-2.541781 0.329436,-1.009885 0.760732,-2.040049 0.958435,-2.289251 0.246691,-0.310952 0.241721,-0.570837 -0.01584,-0.828399 -0.525851,-0.525852 -1.035117,-0.118477 -1.850894,1.480577 -0.386813,0.758216 -0.96119,1.378574 -1.276394,1.378574 -0.516878,0 -0.52036,-0.06018 -0.0355,-0.613532 0.755959,-0.862743 1.100817,-7.450046 0.390024,-7.450046 -0.563782,0 -0.973642,0.96858 -1.2981,3.067666 -0.142663,0.922962 -0.09531,1.490009 0.124422,1.490009 0.195103,0 0.354734,0.137693 0.354734,0.305985 0,0.168292 -0.749388,0.393246 -1.665305,0.4999 -0.915917,0.106653 -1.980835,0.292643 -2.366485,0.413311 -0.642608,0.20107 -0.692957,0.07877 -0.602744,-1.464023 0.11403,-1.95012 -0.389117,-3.075655 -0.987624,-2.209305 -0.199816,0.289236 -0.280435,1.078065 -0.179153,1.752951 0.101281,0.674887 0.185885,2.225238 0.188006,3.445225 0.0035,1.981617 0.113142,2.327441 1.028661,3.242961 0.881596,0.881595 1.291421,1.024802 2.932738,1.024802 1.381078,0 2.155648,-0.194851 2.804992,-0.705624 z M 44.95915,12.405845 c 0,-2.079671 -0.112326,-2.7597826 -0.438238,-2.6534526 -0.601737,0.196319 -1.113805,3.0394526 -0.824843,4.5797486 0.171248,0.912829 0.379573,1.209168 0.750089,1.066987 0.390933,-0.150015 0.512992,-0.862223 0.512992,-2.993283 z m 1.953702,-0.241963 c 0.384794,-2.9491692 0.126079,-3.8967766 -0.740378,-2.7118252 -0.501981,0.6864992 -1.028922,4.9221142 -0.68215,5.4832042 0.560457,0.906838 1.072861,-0.09143 1.422528,-2.771379 z m 10.362332,10.10622 c -0.649932,-0.143179 -1.463432,-0.552451 -1.80778,-0.909492 -0.834847,-0.865624 -2.557861,-5.282675 -2.311308,-5.925181 0.260568,-0.679029 1.238967,-0.644574 2.030216,0.0715 0.609346,0.55145 0.640382,0.521026 0.625871,-0.613533 -0.0084,-0.656566 -0.152403,-1.903702 -0.320011,-2.771412 -0.334204,-1.730174 -0.01579,-2.4541329 1.079388,-2.4541329 0.362039,0 0.658253,-0.2197697 0.658253,-0.4883764 0,-0.7099241 0.885342,-0.9376847 1.603544,-0.4125228 0.340963,0.2493154 0.908803,0.3777592 1.261867,0.28543 0.478414,-0.1251068 0.776923,0.1551797 1.17181,1.1002741 0.350834,0.839665 0.75982,1.268147 1.210452,1.268147 0.882404,0 1.117653,1.319645 0.949265,5.324985 -0.13156,3.129346 -0.632835,4.481646 -1.902206,5.131622 -0.963644,0.493428 -2.95624,0.677569 -4.249361,0.392695 z m 4.064659,-1.023208 c 0.621502,-0.378947 1.219807,-1.048861 1.32956,-1.488698 0.321294,-1.2876 0.02892,-7.63136 -0.35603,-7.725646 -0.473876,-0.11606 -0.828701,3.549677 -0.360027,3.719486 0.198017,0.07175 0.263584,0.235339 0.145707,0.363545 -0.117877,0.128206 -0.640886,0.07092 -1.162243,-0.127298 -0.521358,-0.19822 -1.545552,-0.360399 -2.275996,-0.360399 h -1.328073 l 0.154608,-1.665305 c 0.175397,-1.88923 -0.34499,-3.593551 -1.097237,-3.593551 -0.723936,0 -0.359581,6.562993 0.413601,7.450046 0.332685,0.381682 0.383416,0.613532 0.134245,0.613532 -0.220292,0 -0.790531,-0.6178 -1.267198,-1.37289 -1.015375,-1.608458 -1.525676,-1.993243 -2.006183,-1.512737 -0.231376,0.231376 -0.225129,0.569324 0.01855,1.003695 0.20206,0.360176 0.710593,1.489773 1.130073,2.510214 0.471801,1.147717 1.111523,2.044942 1.677298,2.352448 1.315469,0.714975 3.528305,0.639024 4.849341,-0.166442 z m -0.08491,-7.332478 c 0.257562,-1.524518 -0.363966,-4.3567518 -0.91572,-4.1728318 -0.196497,0.065496 -0.345433,0.2334682 -0.330971,0.3732658 0.01446,0.139798 0.02629,1.358538 0.02629,2.708311 0,1.879831 0.115852,2.454132 0.495069,2.454132 0.301974,0 0.584874,-0.531568 0.725328,-1.362877 z m -1.92158,-1.074759 c 0,-2.304932 -0.537729,-3.8729904 -1.328151,-3.8729904 -0.408886,0 -0.465481,0.3056621 -0.275874,1.4900094 0.131203,0.819505 0.330577,2.160513 0.443054,2.980018 0.126932,0.924788 0.385921,1.490009 0.682741,1.490009 0.350361,0 0.47823,-0.558049 0.47823,-2.087046 z M 50.549148,9.4063864 C 50.282982,8.875304 50.007559,8.3224571 49.937096,8.1778383 c -0.07046,-0.1446178 0.02366,-0.2629427 0.209159,-0.2629427 0.37757,0 1.311111,2.0328158 1.052366,2.2915604 -0.09104,0.09104 -0.383307,-0.2689866 -0.649473,-0.8000696 z m 2.824171,0.7750116 c 0,-0.103197 0.254793,-0.5764934 0.566207,-1.0517705 0.810901,-1.2375926 1.348514,-1.0708869 0.60509,0.1876297 C 53.99485,10.247936 53.373319,10.70648 53.373319,10.181398 Z M 52.421821,8.4407811 c 0.0026,-0.9641231 0.07072,-1.316927 0.151303,-0.7840081 0.08059,0.5329197 0.07843,1.3217479 -0.0048,1.7529522 -0.08322,0.4312042 -0.14915,-0.00485 -0.146518,-0.9689441 z"
       id="path3" /></g></svg>
