<?xml version="1.0" encoding="UTF-8" standalone="no"?>
<svg
   width="168"
   height="30"
   viewBox="0 0 168 30"
   fill="none"
   version="1.1"
   id="svg5"
   xml:space="preserve"
   xmlns="http://www.w3.org/2000/svg"
   xmlns:svg="http://www.w3.org/2000/svg"><defs
     id="defs5"><rect
       x="102.96326"
       y="-18.767017"
       width="25.405689"
       height="19.086184"
       id="rect3" /></defs><g
     id="g6"
     transform="translate(-1.6249355)"><text
       xml:space="preserve"
       id="text3"
       style="font-weight:900;font-size:14.6667px;font-family:Roboto;-inkscape-font-specification:'Roboto, Heavy';white-space:pre;shape-inside:url(#rect3);fill:#95e212;fill-opacity:1;stroke-width:1.68945;stroke-linejoin:round"
       transform="translate(-26.522775)" /><g
       id="g2"
       transform="translate(16.67437)"><path
         d="m 17.149331,15 c 0,-8.28427 4.141464,-15 9.250221,-15 h 85.102018 c 5.1086,0 9.25023,6.71573 9.25023,15 v 0 c 0,8.2843 -4.14163,15 -9.25023,15 H 26.399552 c -5.108757,0 -9.250221,-6.7157 -9.250221,-15 z"
         fill="#BFC2FF"
         id="path1"
         style="fill:#1677ff;fill-opacity:1;stroke-width:0.78529" /><text
         xml:space="preserve"
         style="font-style:normal;font-variant:normal;font-weight:900;font-stretch:normal;font-size:14.6667px;font-family:Roboto;-inkscape-font-specification:'Roboto, Heavy';font-variant-ligatures:normal;font-variant-caps:normal;font-variant-numeric:normal;font-variant-east-asian:normal;fill:#fefeff;fill-opacity:1;stroke-width:1.00157;stroke-linejoin:round"
         x="45.091774"
         y="20.503593"
         id="text5"><tspan
           id="tspan5"
           x="45.091774"
           y="20.503593"
           style="font-style:normal;font-variant:normal;font-weight:900;font-stretch:normal;font-size:14.6667px;font-family:Roboto;-inkscape-font-specification:'Roboto, Heavy';font-variant-ligatures:normal;font-variant-caps:normal;font-variant-numeric:normal;font-variant-east-asian:normal;fill:#fefeff;fill-opacity:1">Ant Group</tspan></text><path
         style="fill:#ffffff;fill-opacity:1;stroke-width:0.337616"
         d="m 31.676539,23.968851 c -1.323957,-0.286707 -2.384756,-0.879556 -3.408686,-1.905013 -1.961167,-1.96409 -2.581026,-4.654979 -1.673457,-7.264691 0.337718,-0.97111 1.267461,-2.370556 1.92177,-2.892641 l 0.419473,-0.334705 -0.440326,-1.096643 c -0.528169,-1.3154209 -0.626404,-2.5652474 -0.24729,-3.1462279 0.319562,-0.4897209 0.990796,-0.4876716 1.379978,0.00425 0.259397,0.3278491 0.272921,0.441095 0.19147,1.6031878 -0.0482,0.687731 -0.04947,1.4242251 -0.0028,1.6366531 l 0.08483,0.386232 0.389301,-0.225579 c 0.214116,-0.124069 0.537568,-0.418176 0.718784,-0.653572 0.363084,-0.471637 0.509733,-0.4802017 1.553748,-0.09074 0.311348,0.116145 0.738479,0.193786 0.949181,0.172534 0.375361,-0.03786 0.388968,-0.06489 0.674018,-1.3393363 0.327408,-1.4638188 0.518899,-1.9008689 1.077678,-2.4596474 0.810254,-0.8102548 1.800071,-0.6095662 1.800071,0.3649693 0,0.4583198 -0.08426,0.594097 -0.814171,1.3119059 -0.612143,0.6019946 -0.869115,0.9670765 -1.035587,1.4712605 -0.221962,0.672242 -0.194829,0.932909 0.09711,0.932909 0.08602,0 0.580419,0.203206 1.098668,0.451569 1.153337,0.552723 2.458974,1.815827 3.05944,2.959773 1.452746,2.767623 0.894385,6.163612 -1.363639,8.293715 -1.79078,1.689332 -4.062759,2.332413 -6.429551,1.819874 z m 2.966075,-0.240107 c 3.034832,-0.643276 5.372084,-3.487229 5.372084,-6.536718 0,-2.867926 -1.879719,-5.52415 -4.552067,-6.432509 -0.82194,-0.279386 -0.860482,-0.409911 -0.447205,-1.514488 0.191796,-0.5126239 0.461524,-0.8814657 1.026234,-1.403332 0.596787,-0.5515109 0.766054,-0.7900735 0.766054,-1.0796716 0,-0.7935318 -0.539621,-0.8867792 -1.276938,-0.2206576 -0.571593,0.5163994 -0.908848,1.2967609 -1.159922,2.6838967 -0.08939,0.4938758 -0.211746,0.9605055 -0.271897,1.0369555 -0.150605,0.191412 -1.474209,0.08631 -2.06444,-0.163942 l -0.475839,-0.201743 -0.563397,0.579694 c -0.618162,0.636041 -1.057647,0.845909 -1.287916,0.615017 -0.09596,-0.09622 -0.147436,-0.731562 -0.147436,-1.819658 0,-1.5985138 -0.01318,-1.6825094 -0.300541,-1.9155167 -0.403654,-0.3273023 -0.734003,-0.1428316 -0.932869,0.5209262 -0.180649,0.6029512 0.04813,1.716834 0.609596,2.9679335 l 0.343311,0.764996 -0.646721,0.603581 c -2.822348,2.63408 -2.898323,6.931514 -0.170499,9.644061 0.983013,0.977508 1.810759,1.455426 3.110503,1.795922 1.128366,0.295601 1.936854,0.315419 3.069905,0.07525 z m -0.01648,-2.885772 c -0.96394,-0.293217 -2.035487,-1.161065 -2.675535,-2.166922 -1.197796,-1.882376 -1.006567,-4.668925 0.418183,-6.093676 0.826487,-0.826487 1.394277,-1.046114 2.707161,-1.047161 1.069988,-8.44e-4 1.213232,0.03093 1.956529,0.434005 1.010392,0.547923 1.737242,1.331837 2.251561,2.428322 0.34237,0.729901 0.409049,1.037416 0.450039,2.075511 0.05807,1.470712 -0.213039,2.344182 -1.007874,3.247161 -0.769297,0.873968 -1.616102,1.245171 -2.809557,1.231591 -0.532938,-0.0061 -1.113666,-0.05504 -1.290507,-0.108831 z m 2.630561,-0.388336 c 0.282213,-0.121497 0.704121,-0.382337 0.937568,-0.579642 0.440042,-0.371917 1.17573,-1.531007 1.177837,-1.855708 6.75e-4,-0.102045 -0.147599,0.113072 -0.329469,0.478037 -0.594524,1.193056 -1.627257,1.816663 -3.016171,1.821292 -1.546165,0.0051 -2.953081,-0.966491 -3.688535,-2.547376 -0.433378,-0.931557 -0.534347,-2.509671 -0.220943,-3.45324 0.600211,-1.807069 2.614401,-2.784362 4.42323,-2.146169 0.293939,0.103706 0.500296,0.133327 0.458577,0.06582 -0.04171,-0.0675 -0.400688,-0.217165 -0.797709,-0.332581 -2.432913,-0.707268 -4.608909,0.94375 -4.752452,3.605882 -0.18654,3.459589 2.984946,6.15908 5.808066,4.943681 z m 0.01036,-0.63315 c 1.279228,-0.580992 2.045005,-1.97345 1.947282,-3.540854 -0.07046,-1.130034 -0.413758,-1.916074 -1.210969,-2.772667 -1.156722,-1.242888 -2.605317,-1.594817 -3.962753,-0.962731 -2.687037,1.25121 -2.39384,5.689435 0.470406,7.120716 0.952991,0.476215 1.928722,0.53128 2.756034,0.155536 z m 2.191203,-2.48255 c -0.03559,-0.08819 -0.0647,-0.01604 -0.0647,0.16035 0,0.176384 0.02911,0.248541 0.0647,0.160349 0.03559,-0.08819 0.03559,-0.232506 0,-0.320699 z m 0.134047,-0.89646 c -0.03069,-0.159568 -0.05696,-0.05922 -0.05838,0.222993 -0.0014,0.282215 0.02367,0.412771 0.0558,0.290124 0.03211,-0.122646 0.03329,-0.353548 0.0027,-0.513117 z M 39.46093,15.551042 c -0.04095,-0.102333 -0.07135,-0.07194 -0.0775,0.0775 -0.0055,0.135228 0.02475,0.210993 0.06738,0.168367 0.04263,-0.04262 0.04718,-0.153267 0.01013,-0.245869 z m -1.312318,-2.423411 c -0.278894,-0.287799 -0.622533,-0.586106 -0.763639,-0.662902 -0.14111,-0.0768 0.06093,0.156475 0.448974,0.518382 0.848459,0.791305 1.016011,0.86826 0.314665,0.14452 z"
         id="path2" /></g></g></svg>
