<?xml version="1.0" encoding="UTF-8" standalone="no"?>
<svg
   width="143"
   height="30"
   viewBox="0 0 143 30"
   fill="none"
   version="1.1"
   id="svg3"
   xml:space="preserve"
   xmlns="http://www.w3.org/2000/svg"
   xmlns:svg="http://www.w3.org/2000/svg"><defs
     id="defs3"><style
       id="style1">
      .cls-1 {
        fill: #0d3c48;
        stroke-width: 0px;
      }
    </style></defs><g
     id="g44"
     transform="translate(5.7617202)"><path
       d="m 1.4653195,15 c 0,-8.28427 6.0369193,-15 13.4838415,-15 H 116.52742 c 7.44668,0 13.48382,6.71573 13.48382,15 v 0 c 0,8.2843 -6.03714,15 -13.48382,15 H 14.949159 C 7.5022388,30 1.4653195,23.2843 1.4653195,15 Z"
       fill="#1B1B1B"
       id="path1"
       style="mix-blend-mode:normal;fill:#2645d3;fill-opacity:1;stroke-width:0.948117" /><text
       xml:space="preserve"
       style="font-style:normal;font-variant:normal;font-weight:bold;font-stretch:normal;font-size:16px;font-family:Roboto;-inkscape-font-specification:'Roboto, Bold';font-variant-ligatures:normal;font-variant-caps:normal;font-variant-numeric:normal;font-variant-east-asian:normal;text-align:start;writing-mode:lr-tb;direction:ltr;text-anchor:start;mix-blend-mode:normal;fill:#ffffff;fill-opacity:1;stroke:#ffffff;stroke-width:0.07"
       x="33.207512"
       y="20.521687"
       id="text3"><tspan
         id="tspan3"
         x="33.207512"
         y="20.521687"
         style="fill:#ffffff;fill-opacity:1">AssemblyAI</tspan></text><path
       style="fill:#ffffff;fill-opacity:1;stroke-width:0.1105"
       d="m 9.962841,21.464275 c 0.03023,-0.07597 1.060515,-2.723835 2.289524,-5.884147 1.229009,-3.160313 2.298826,-5.870337 2.377372,-6.022275 0.181466,-0.351029 0.554933,-0.691041 1.047812,-0.953954 0.32055,-0.170988 0.632639,-0.206301 1.823257,-0.206301 1.328639,0 1.473103,0.02074 1.923879,0.276252 0.268057,0.151938 0.624578,0.450288 0.792271,0.663002 0.187759,0.238166 1.161316,2.594307 2.53406,6.132775 1.22604,3.160312 2.254713,5.808181 2.285939,5.884146 0.04398,0.106996 -0.328561,0.138127 -1.652972,0.138127 h -1.709747 l -1.746052,-4.502892 c -0.960329,-2.476591 -1.81805,-4.614775 -1.906048,-4.751519 -0.100091,-0.155537 -0.269013,-0.247993 -0.451163,-0.246934 -0.574568,0.0033 -0.358583,-0.448999 -2.835178,5.937707 l -1.424733,3.67414 h -1.701591 c -1.316918,0 -1.689166,-0.03123 -1.64663,-0.138127 z"
       id="path44" /></g></svg>
