<?xml version="1.0" encoding="UTF-8" standalone="no"?>
<svg
   width="143"
   height="30"
   viewBox="0 0 143 30"
   fill="none"
   version="1.1"
   id="svg3"
   xml:space="preserve"
   xmlns:xlink="http://www.w3.org/1999/xlink"
   xmlns="http://www.w3.org/2000/svg"
   xmlns:svg="http://www.w3.org/2000/svg"><defs
     id="defs3"><linearGradient
       id="linearGradient2"><stop
         style="stop-color:#3f77f6;stop-opacity:1;"
         offset="0"
         id="stop2" /><stop
         style="stop-color:#5bca87;stop-opacity:1;"
         offset="0.5"
         id="stop4" /><stop
         style="stop-color:#ec5d3e;stop-opacity:1;"
         offset="1"
         id="stop3" /></linearGradient><linearGradient
       xlink:href="#linearGradient2"
       id="linearGradient3"
       x1="21.519421"
       y1="15"
       x2="121.48058"
       y2="15"
       gradientUnits="userSpaceOnUse"
       gradientTransform="matrix(1.0399305,0,0,1,-0.85928243,0)" /></defs><g
     id="g4"
     transform="translate(-1.99575)"><path
       d="m 21.51942,15 c 0,-8.28427 4.881945,-15 10.904127,-15 h 82.144423 c 6.02199,0 10.90411,6.71573 10.90411,15 v 0 c 0,8.2843 -4.88212,15 -10.90411,15 H 32.423547 C 26.401365,30 21.51942,23.2843 21.51942,15 Z"
       fill="#1B1B1B"
       id="path1"
       style="fill:url(#linearGradient3);fill-opacity:1;stroke-width:0.85261" /><text
       xml:space="preserve"
       style="font-style:normal;font-variant:normal;font-weight:bold;font-stretch:normal;font-size:16px;font-family:Roboto;-inkscape-font-specification:'Roboto, Bold';font-variant-ligatures:normal;font-variant-caps:normal;font-variant-numeric:normal;font-variant-east-asian:normal;text-align:start;writing-mode:lr-tb;direction:ltr;text-anchor:start;fill:#ffffff;fill-opacity:1;stroke:#0a0a0a;stroke-width:0.07;stroke-opacity:1"
       x="55.261608"
       y="19.838688"
       id="text3"><tspan
         id="tspan3"
         x="55.261608"
         y="19.838688"
         style="stroke:#0a0a0a;stroke-opacity:1">Baidu AI</tspan></text><path
       style="fill:#ffffff;fill-opacity:1;stroke-width:0.846391"
       d="m 35.788069,22.293853 c -3.088499,-1.76505 -3.171741,-1.940736 -3.173968,-6.69885 -0.0022,-4.886263 -0.0022,-4.886263 2.113692,-3.49982 1.414096,0.926552 2.115978,2.164122 2.115978,3.73093 0,1.566807 0.701882,2.804378 2.115979,3.730929 2.175648,1.425541 2.946018,4.805001 1.05799,4.641192 -0.581895,-0.05049 -2.485246,-0.907456 -4.229671,-1.904381 z m 6.134051,0.02321 c 0,-1.238243 0.787974,-2.394669 2.115979,-3.105394 1.433936,-0.767419 2.115979,-1.850223 2.115979,-3.35931 0,-2.401828 1.365254,-4.258213 3.131648,-4.258213 0.754862,0 1.100308,1.317439 1.100308,4.196278 0,4.055191 -0.123445,4.268623 -3.671526,6.347937 -4.502258,2.638499 -4.792388,2.649317 -4.792388,0.178702 z M 34.447661,10.49695 c -0.699845,-0.8432627 -0.04387,-1.5706752 2.834257,-3.1429184 3.744855,-2.0457137 3.744855,-2.0457137 7.578094,-0.1833825 2.108282,1.0242826 3.83324,2.222491 3.83324,2.6626872 0,1.3598307 -3.224128,1.9067777 -5.153442,0.8742397 -1.350702,-0.7228734 -2.369904,-0.7351895 -3.880556,-0.0469 -2.684291,1.223045 -4.097516,1.178644 -5.211593,-0.163736 z"
       id="path4" /></g></svg>
