<?xml version="1.0" encoding="UTF-8" standalone="no"?>
<svg
   width="143"
   height="30"
   viewBox="0 0 143 30"
   fill="none"
   version="1.1"
   id="svg3"
   xml:space="preserve"
   xmlns="http://www.w3.org/2000/svg"
   xmlns:svg="http://www.w3.org/2000/svg"><defs
     id="defs3"><clipPath
       clipPathUnits="userSpaceOnUse"
       id="clipPath8"><rect
         style="fill:#20233f;fill-opacity:1;stroke-width:0.07"
         id="rect9"
         width="42.090874"
         height="41.109161"
         x="-75.100922"
         y="13.130389" /></clipPath></defs><g
     id="g4"
     transform="translate(24.665498)"><g
       id="g5"><g
         id="g9"><path
           d="m 4.4910822,15 c 0,-8.28427 4.6514349,-15 10.3892698,-15 h 78.265833 c 5.737648,0 10.389265,6.71573 10.389265,15 v 0 c 0,8.2843 -4.651617,15 -10.389265,15 H 14.880352 C 9.1425171,30 4.4910822,23.2843 4.4910822,15 Z"
           fill="#1B1B1B"
           id="path1"
           style="fill:#20233f;fill-opacity:1;stroke-width:0.832237" /><text
           xml:space="preserve"
           style="font-weight:bold;font-size:15.9999px;font-family:Roboto;-inkscape-font-specification:'Roboto, Bold';text-align:start;writing-mode:lr-tb;direction:ltr;text-anchor:start;fill:#ffffff;fill-opacity:1;stroke-width:0.0699996"
           x="36.133854"
           y="20.687464"
           id="text3"><tspan
             id="tspan3"
             x="36.133854"
             y="20.687464"
             style="stroke-width:0.0699996">BigCode</tspan></text><path
           style="fill:#ffffff;fill-opacity:1"
           d="M -78.466071,34.061582 V 9.7266303 l 1.764284,1.92e-4 1.764284,1.92e-4 -1.03661,0.5131117 c -0.570135,0.282212 -1.281932,0.857039 -1.581771,1.277393 l -0.545163,0.764281 -0.05902,21.414758 -0.05902,21.414757 0.54672,0.973398 c 0.359394,0.639877 0.918411,1.161004 1.631518,1.520934 l 1.084797,0.547537 h 20.824931 20.824932 l 1.071552,-0.547537 c 1.22223,-0.624528 1.914394,-1.459022 2.194613,-2.645891 0.147906,-0.626458 0.199957,-0.315626 0.218945,1.307469 l 0.02491,2.129308 h -24.334952 -24.334951 z m 16.713545,17.999079 c -0.701207,-0.55157 -1.027252,-1.519079 -1.274314,-3.781418 l -0.161448,-1.478382 -1.243162,0.322472 c -1.497976,0.38857 -3.183013,0.416786 -3.841588,0.06433 -1.394584,-0.746359 -0.805777,-3.570312 1.584814,-7.600869 0.38066,-0.641797 0.651428,-1.190758 0.601706,-1.219914 -0.04972,-0.02916 -0.692693,-0.257415 -1.428825,-0.507243 -2.607989,-0.885097 -5.597039,-3.248848 -5.597039,-4.426157 0,-0.8043 0.904914,-1.61572 2.933913,-2.630787 l 1.64167,-0.821293 -0.70528,-1.062614 c -0.893514,-1.346219 -1.526679,-3.226579 -1.338686,-3.975602 0.226886,-0.903986 1.484805,-1.187198 4.626636,-1.041655 1.825296,0.08456 3.090793,0.276687 3.91415,0.594258 l 1.216748,0.469303 -0.0835,-2.102365 c -0.09572,-2.410091 0.492885,-4.839347 1.546632,-6.383143 1.000589,-1.465914 1.727194,-1.305754 3.890504,0.857555 l 1.770116,1.770117 1.574443,-1.491637 c 1.792178,-1.69792 2.667263,-2.055762 3.402119,-1.391203 1.286237,1.163197 2.219154,4.395296 2.097248,7.265938 l -0.08329,1.961268 1.216748,-0.485184 c 1.72423,-0.687545 6.393698,-0.725962 7.726347,-0.06357 0.712451,0.354125 0.911389,0.594256 0.907216,1.095073 -0.0067,0.799285 -0.706409,2.363652 -1.709275,3.821267 -0.421184,0.61217 -0.727857,1.142208 -0.681495,1.177863 0.04636,0.03565 0.717552,0.421325 1.491534,0.857046 1.971299,1.109764 2.851377,1.904597 2.851377,2.57519 0,0.756028 -1.714713,2.205412 -4.134457,3.494705 l -1.885775,1.004783 0.933302,1.781107 c 1.048403,2.000766 1.741542,4.337648 1.533016,5.168484 -0.210789,0.83985 -1.30323,1.173684 -3.206936,0.979993 -0.89909,-0.09148 -1.8811,-0.227614 -2.182245,-0.302527 -0.471286,-0.117236 -0.548125,-0.03934 -0.551762,0.559388 -0.0081,1.331079 -0.725275,4.088419 -1.182272,4.545415 -0.616935,0.616935 -1.541158,0.398403 -3.402205,-0.80445 -1.92391,-1.243483 -3.379842,-2.576458 -4.172029,-3.819692 l -0.648458,-1.017669 -1.020092,1.551559 c -1.482194,2.254418 -3.860288,4.245931 -5.776061,4.837109 -0.333001,0.102759 -0.731099,-0.01731 -1.150044,-0.346848 z m 8.134083,-17.364567 c 1.336412,-2.528626 2.396183,-4.772267 2.355047,-4.98587 -0.04114,-0.213603 -0.239772,-0.420141 -0.441413,-0.458973 -0.462565,-0.08908 -5.460536,9.272507 -5.247208,9.82843 0.337382,0.879205 1.041409,-0.04658 3.333574,-4.383587 z m -5.44202,1.624672 c 0.05359,-0.162792 -0.527512,-0.695766 -1.291348,-1.184385 l -1.388791,-0.888399 1.188734,-0.735708 c 1.428319,-0.883988 1.641776,-1.17016 1.201408,-1.610672 -0.284138,-0.284231 -0.615694,-0.159754 -2.192946,0.823304 -1.24312,0.774802 -1.834218,1.288395 -1.785758,1.551606 0.03984,0.216394 0.784235,0.862168 1.654209,1.435053 1.536,1.011468 2.414656,1.216203 2.614492,0.609201 z m 12.543485,-0.613543 c 0.893988,-0.567162 1.679846,-1.173003 1.746351,-1.346313 0.128545,-0.334981 -3.040162,-2.531903 -3.725046,-2.582642 -0.211631,-0.01568 -0.422969,0.155769 -0.469638,0.380995 -0.05623,0.271344 0.343332,0.69786 1.184294,1.264196 l 1.269148,0.854695 -1.254456,0.779812 c -0.777512,0.483328 -1.254455,0.951025 -1.254455,1.230136 0,0.712395 0.733522,0.542218 2.503802,-0.580879 z m 16.47746,-22.638885 c 0,-0.892184 -1.17159,-2.371293 -2.275212,-2.87241 l -1.010006,-0.4586087 1.764284,-0.0053 1.764284,-0.0053 v 1.9467957 c 0,1.070738 -0.05475,1.946796 -0.121675,1.946796 -0.06692,0 -0.121675,-0.248348 -0.121675,-0.551884 z"
           id="path8"
           clip-path="url(#clipPath8)"
           transform="matrix(0.44179102,0,0,0.44179102,44.554727,0.11828272)" /></g></g></g></svg>
