<?xml version="1.0" encoding="UTF-8" standalone="no"?>
<svg
   width="106.18362"
   height="30"
   viewBox="0 0 106.18362 30"
   fill="none"
   version="1.1"
   id="svg5"
   xml:space="preserve"
   xmlns:xlink="http://www.w3.org/1999/xlink"
   xmlns="http://www.w3.org/2000/svg"
   xmlns:svg="http://www.w3.org/2000/svg"><defs
     id="defs5"><linearGradient
       id="linearGradient1"><stop
         style="stop-color:#274afe;stop-opacity:1;"
         offset="0"
         id="stop1" /><stop
         style="stop-color:#76cafc;stop-opacity:1;"
         offset="1"
         id="stop2" /></linearGradient><linearGradient
       xlink:href="#linearGradient1"
       id="linearGradient2"
       x1="-9.9999994e-08"
       y1="15"
       x2="106.18362"
       y2="15"
       gradientUnits="userSpaceOnUse" /></defs><g
     id="g3"><path
       d="M -9.9999999e-8,15 C -9.9999999e-8,6.71573 4.2446454,0 9.4806814,0 H 96.702932 c 5.235868,0 9.480688,6.71573 9.480688,15 v 0 c 0,8.2843 -4.24482,15 -9.480688,15 H 9.4806814 C 4.2446454,30 -9.9999999e-8,23.2843 -9.9999999e-8,15 Z"
       fill="#BFC2FF"
       id="path1"
       style="fill:url(#linearGradient2);fill-opacity:1;stroke-width:0.795013" /><text
       xml:space="preserve"
       style="font-style:normal;font-variant:normal;font-weight:900;font-stretch:normal;font-size:14.6667px;font-family:Roboto;-inkscape-font-specification:'Roboto, Heavy';font-variant-ligatures:normal;font-variant-caps:normal;font-variant-numeric:normal;font-variant-east-asian:normal;fill:#fefeff;fill-opacity:1;stroke-width:1.00157;stroke-linejoin:round"
       x="31.677971"
       y="20.503416"
       id="text5"><tspan
         id="tspan5"
         x="31.677971"
         y="20.503416"
         style="font-style:normal;font-variant:normal;font-weight:900;font-stretch:normal;font-size:14.6667px;font-family:Roboto;-inkscape-font-specification:'Roboto, Heavy';font-variant-ligatures:normal;font-variant-caps:normal;font-variant-numeric:normal;font-variant-east-asian:normal;fill:#fefeff;fill-opacity:1">BigModel</tspan></text><path
       style="fill:#ffffff;fill-opacity:1;stroke-width:0.374739"
       d="m 14.684713,21.911828 c -1.751907,-1.021331 -3.337055,-1.91143 -3.522551,-1.977999 -0.185496,-0.06657 -0.269813,-0.303904 -0.18737,-0.527412 0.08454,-0.229184 1.588751,0.473423 3.449805,1.61138 1.814952,1.109766 3.35274,2.017757 3.417309,2.017757 0.267226,0 0.546672,-2.796293 0.298289,-2.984846 -0.148609,-0.112807 -0.629932,-0.878591 -1.069608,-1.701734 -0.575333,-1.077112 -1.330718,-1.759222 -2.69488,-2.433469 -1.042509,-0.515267 -1.905362,-1.055432 -1.917451,-1.200367 -0.01209,-0.144936 0.724612,-0.593772 1.637114,-0.997416 2.049754,-0.906704 3.486534,-2.958578 3.830888,-5.470918 l 0.251564,-1.8353558 -1.278131,0.7625017 c -2.459619,1.4673521 -5.493548,3.1204641 -5.726934,3.1204641 -0.900091,0 0.208285,-0.954394 2.802891,-2.413497 3.901625,-2.1941183 4.846645,-2.2020286 8.747414,-0.073227 1.638652,0.894279 3.043925,1.819632 3.122828,2.056341 0.23747,0.71241 -0.335618,0.491915 -3.666389,-1.410636 L 18.994216,6.6339466 18.738672,7.8083849 c -0.140549,0.6459421 -0.09839,1.2306511 0.09368,1.2993531 0.192075,0.0687 0.349227,0.333456 0.349227,0.588342 0,0.254885 0.583443,1.145048 1.296538,1.978141 1.261457,1.473728 2.301145,2.069466 4.418239,2.531635 0.566792,0.123733 1.030533,0.374603 1.030533,0.557486 0,0.182884 -0.316219,0.249824 -0.702709,0.148755 -0.965623,-0.252517 -3.495298,1.102144 -4.674017,2.502971 -1.017619,1.209372 -1.870686,3.690914 -1.671898,4.863494 0.1,0.589889 0.592509,0.407828 3.582284,-1.324246 1.906487,-1.104489 3.464281,-1.804737 3.461763,-1.556107 -0.0058,0.571672 -6.41927,4.389611 -7.355463,4.378702 -0.383272,-0.0044 -2.130235,-0.843755 -3.882142,-1.865084 z m 5.410533,-5.153385 c 0.605567,-0.709409 1.529259,-1.452646 2.052649,-1.651639 l 0.95162,-0.361805 -1.21114,-0.586572 c -0.666127,-0.322614 -1.673443,-1.296116 -2.23848,-2.163334 l -1.027341,-1.576762 -1.626896,1.809501 c -0.89711,0.997801 -2.158546,1.963445 -2.812085,2.152681 -1.028633,0.297848 -1.065327,0.347644 -0.277787,0.376976 1.044848,0.03892 4.139225,3.055599 4.173619,4.068826 0.01978,0.582759 0.06773,0.576166 0.468424,-0.06441 0.245512,-0.392494 0.94185,-1.294051 1.547417,-2.003459 z"
       id="path2" /></g></svg>
