<?xml version="1.0" encoding="UTF-8" standalone="no"?>
<svg
   width="168"
   height="30"
   viewBox="0 0 168 30"
   fill="none"
   version="1.1"
   id="svg5"
   xml:space="preserve"
   xmlns="http://www.w3.org/2000/svg"
   xmlns:svg="http://www.w3.org/2000/svg"><defs
     id="defs5"><clipPath
       clipPathUnits="userSpaceOnUse"
       id="clipPath6"><rect
         style="fill:#ffffff;fill-opacity:1;stroke-width:1.68945;stroke-linejoin:round"
         id="rect7"
         width="115.05708"
         height="85.518608"
         x="-38.590572"
         y="35.493797" /></clipPath></defs><g
     id="g7"><path
       d="M 0,15 C 0,6.71573 6.71573,0 15,0 h 138 c 8.284,0 15,6.71573 15,15 v 0 c 0,8.2843 -6.716,15 -15,15 H 15 C 6.71573,30 0,23.2843 0,15 Z"
       fill="#BFC2FF"
       id="path1"
       style="fill:#000000;fill-opacity:1" /><text
       xml:space="preserve"
       style="font-style:normal;font-variant:normal;font-weight:900;font-stretch:normal;font-size:14.6667px;font-family:Roboto;-inkscape-font-specification:'Roboto, Heavy';font-variant-ligatures:normal;font-variant-caps:normal;font-variant-numeric:normal;font-variant-east-asian:normal;fill:#fefeff;fill-opacity:1;stroke-width:1.00157;stroke-linejoin:round"
       x="38.253674"
       y="20.925781"
       id="text5"><tspan
         id="tspan5"
         x="38.253674"
         y="20.925781"
         style="font-style:normal;font-variant:normal;font-weight:900;font-stretch:normal;font-size:14.6667px;font-family:Roboto;-inkscape-font-specification:'Roboto, Heavy';font-variant-ligatures:normal;font-variant-caps:normal;font-variant-numeric:normal;font-variant-east-asian:normal;fill:#fefeff;fill-opacity:1">Black Forest Labs</tspan></text><path
       style="fill:#ffffff;fill-opacity:1"
       d="m -25.16958,132.2353 c -0.002,-0.0284 -4.2e-4,-1.89535 0.003,-4.14871 0.004,-2.80007 -0.0154,-4.19433 -0.0625,-4.40444 -0.0829,-0.37012 -0.25673,-0.5711 -0.53972,-0.62419 -0.13686,-0.0257 -0.2038,-0.0704 -0.19169,-0.12809 0.0149,-0.0708 0.21248,-0.0941 0.98015,-0.11572 0.52885,-0.0149 1.07942,-0.0515 1.22349,-0.0813 0.14407,-0.0298 0.27667,-0.0395 0.29467,-0.0215 0.018,0.018 0.0342,0.92834 0.036,2.023 0.003,1.88021 0.009,1.9817 0.10683,1.83519 0.18008,-0.26962 0.48882,-0.53441 0.79929,-0.68548 0.24906,-0.1212 0.40085,-0.14663 0.88963,-0.14906 0.54016,-0.003 0.61705,0.0124 0.92155,0.18108 0.88265,0.48889 1.24797,1.33413 1.24767,2.88671 -1.9e-4,0.97756 -0.095,1.50197 -0.37013,2.04698 -0.63345,1.25486 -2.2025,1.7727 -3.45348,1.13977 -0.49898,-0.25247 -0.9247,-0.18893 -1.83507,0.27388 -0.0256,0.013 -0.048,3.9e-4 -0.0498,-0.028 z m 3.16401,-0.41451 c 0.26536,-0.1756 0.43971,-0.49114 0.60505,-1.09501 0.16045,-0.586 0.16083,-2.94925 5.6e-4,-3.53247 -0.17206,-0.62619 -0.52892,-0.99755 -0.95615,-0.99504 -0.24085,0.001 -0.62152,0.23266 -0.85016,0.51645 l -0.192,0.23831 -0.0176,2.37997 -0.0176,2.37998 0.20331,0.10514 c 0.48619,0.25141 0.84755,0.2522 1.22461,0.003 z m 15.4746605,0.3637 c -1.37928,-0.30008 -2.12989,-1.40425 -2.13303,-3.13776 -10e-4,-0.78224 0.0866,-1.23366 0.34656,-1.77818 0.51545,-1.0795 1.54331,-1.63256 2.87817,-1.54866 1.25894,0.0791 2.04285,0.7635 1.89267,1.65236 -0.087,0.51499 -0.47623,0.78316 -1.06574,0.73427 -0.30938,-0.0257 -0.37649,-0.0568 -0.56481,-0.26232 -0.206,-0.22478 -0.21278,-0.24778 -0.18796,-0.63755 0.0242,-0.37942 0.041,-0.41822 0.27397,-0.62933 0.13652,-0.12374 0.30213,-0.25573 0.36802,-0.29331 0.11194,-0.0638 0.10682,-0.075 -0.078,-0.17059 -0.25457,-0.13165 -0.77583,-0.13109 -1.05445,10e-4 -0.64289,0.30507 -1.0689,1.60855 -0.99006,3.02936 0.0404,0.72741 0.15892,1.13525 0.44437,1.52859 0.5686,0.78352 1.70972,0.75928 2.45126,-0.0521 0.31747,-0.34736 0.47558,-0.38242 0.40354,-0.0895 -0.11495,0.46742 -0.74554,1.23096 -1.21173,1.4672 -0.29526,0.14962 -0.87815,0.28204 -1.20429,0.27358 -0.10462,-0.003 -0.36046,-0.042 -0.56852,-0.0872 z m 19.8994765,-0.001 c -1.388704,-0.2516 -2.107504,-1.17446 -2.219011,-2.84896 -0.06827,-1.02525 0.115311,-1.91002 0.521818,-2.5149 0.460244,-0.68484 1.17027,-1.04257 2.182217,-1.09946 0.704194,-0.0396 1.192213,0.0417 1.713044,0.28547 0.693574,0.32456 1.175775,0.98306 1.3615,1.85926 0.108764,0.51313 0.11111,1.7154 0.0043,2.2127 -0.254326,1.18433 -0.986345,1.90468 -2.145751,2.11154 -0.570746,0.10183 -0.830601,0.10079 -1.418135,-0.006 z m 1.182771,-0.38499 c 0.42606,-0.40459 0.593674,-1.02961 0.645269,-2.40618 0.06187,-1.65065 -0.139277,-2.71811 -0.604503,-3.20805 -0.187018,-0.19696 -0.263868,-0.23488 -0.476009,-0.23488 -0.440055,0 -0.843495,0.48735 -1.010426,1.22056 -0.204081,0.89639 -0.182459,2.96813 0.03904,3.74061 0.28536,0.99519 0.891048,1.37753 1.40663,0.88794 z m 10.98971,0.38627 c -1.061103,-0.23085 -1.769,-0.97144 -2.016921,-2.11007 -0.113228,-0.52002 -0.09885,-1.70645 0.02648,-2.18515 0.37066,-1.41572 1.382836,-2.1883 2.866951,-2.1883 1.291889,0 2.095895,0.79341 2.184501,2.15571 l 0.03329,0.51179 h -1.691171 -1.691171 l 0.02601,0.75992 c 0.02838,0.82942 0.148584,1.21438 0.514156,1.64665 0.577559,0.68293 1.73471,0.61709 2.36292,-0.13445 0.131948,-0.15786 0.289826,-0.28701 0.350839,-0.28701 0.06101,0 0.110933,0.0116 0.110933,0.0259 0,0.10757 -0.275109,0.62025 -0.472726,0.88095 -0.425277,0.56102 -0.847532,0.8318 -1.479221,0.94857 -0.454294,0.084 -0.645434,0.0798 -1.124864,-0.0245 z m 1.587509,-4.35883 c -0.0012,-0.72795 -0.254654,-1.6014 -0.51838,-1.78612 -0.325432,-0.22794 -0.786079,-0.0142 -1.039356,0.48227 -0.148513,0.29111 -0.300238,0.96228 -0.301761,1.33487 l -0.0011,0.26365 h 0.930521 0.930522 z m 4.232377,4.38507 c -0.146086,-0.0288 -0.478386,-0.14883 -0.738445,-0.26676 -0.260059,-0.11793 -0.50786,-0.20097 -0.55067,-0.18454 -0.04281,0.0164 -0.111694,0.11161 -0.153076,0.21151 -0.0483,0.1166 -0.120403,0.18165 -0.201358,0.18165 -0.122314,0 -0.1249,-0.0239 -0.08578,-0.79094 0.02219,-0.43502 0.04045,-0.98143 0.04059,-1.21423 2.16e-4,-0.36224 0.01522,-0.42039 0.10402,-0.40323 0.07549,0.0146 0.133772,0.15955 0.213848,0.53183 0.115708,0.53793 0.344248,1.06261 0.57102,1.31093 0.344972,0.37776 1.087826,0.49841 1.472518,0.23917 0.43896,-0.29581 0.443829,-1.06523 0.0098,-1.54567 -0.121629,-0.13463 -0.502458,-0.47662 -0.846288,-0.75999 -1.219349,-1.00494 -1.52088,-1.43011 -1.523286,-2.14788 -0.0026,-0.77442 0.412318,-1.29717 1.230077,-1.54975 0.675691,-0.2087 1.632969,-0.12417 2.168509,0.19147 0.112837,0.0665 0.249338,0.12092 0.303335,0.12092 0.118734,0 0.262255,-0.17641 0.264967,-0.32568 0.0012,-0.0666 0.04999,-0.10857 0.126043,-0.10857 0.119204,0 0.124069,0.0414 0.124069,1.0546 v 1.05459 h -0.147158 c -0.123651,0 -0.15348,-0.0395 -0.186735,-0.2475 -0.07294,-0.45613 -0.29439,-0.9373 -0.556746,-1.20968 -0.685721,-0.71195 -1.844704,-0.4149 -1.756729,0.45025 0.04317,0.42451 0.285071,0.70652 1.176759,1.37185 0.959876,0.7162 1.533871,1.29667 1.643268,1.66181 0.113326,0.37825 0.09282,1.00081 -0.04256,1.29212 -0.374408,0.80569 -1.577626,1.29499 -2.65998,1.08172 z m 5.427986,0.002 c -0.509573,-0.12788 -0.782539,-0.34784 -0.998235,-0.80441 -0.125905,-0.2665 -0.133288,-0.39302 -0.1629,-2.79156 l -0.03102,-2.51241 -0.48077,-0.0181 c -0.371544,-0.014 -0.480769,-0.0387 -0.480769,-0.10856 0,-0.0717 0.102863,-0.0904 0.496278,-0.0904 h 0.496278 v -0.79754 -0.79754 l 0.444358,-0.0413 c 0.244397,-0.0227 0.635216,-0.10768 0.868487,-0.1888 l 0.424128,-0.1475 v 0.98634 0.98634 h 0.713399 c 0.592777,0 0.7134,0.0157 0.7134,0.093 0,0.0773 -0.120623,0.0931 -0.7134,0.0931 h -0.713399 v 2.57152 c 0,1.80238 0.02129,2.61825 0.07117,2.72774 0.04052,0.0889 0.158467,0.18502 0.273837,0.22309 0.2906,0.0959 0.595205,-0.0474 0.840618,-0.39561 0.118668,-0.16836 0.229146,-0.26494 0.280506,-0.24523 0.109253,0.0419 0.110414,0.0351 -0.06481,0.378 -0.182746,0.35756 -0.486198,0.65715 -0.796861,0.78673 -0.296249,0.12356 -0.876593,0.16936 -1.180298,0.0932 z m 15.48617,0.01 c -0.02916,-0.0213 -0.05301,-1.99402 -0.05301,-4.38386 0,-4.88941 0.02809,-4.60244 -0.465009,-4.75018 -0.166655,-0.0499 -0.24839,-0.11008 -0.24839,-0.1828 0,-0.0966 0.0521,-0.10485 0.480769,-0.0758 0.444178,0.0301 1.700376,-0.0665 1.909992,-0.14692 0.07832,-0.03 0.09112,0.24623 0.09428,2.03451 0.0029,1.62746 0.01943,2.04385 0.07754,1.95014 0.340947,-0.54978 0.913504,-0.89896 1.558997,-0.95077 1.04999,-0.0843 1.852417,0.50854 2.203911,1.62824 0.301848,0.96154 0.219417,2.56918 -0.174944,3.41191 -0.616388,1.31719 -2.262165,1.89455 -3.496373,1.22656 -0.2561,-0.1386 -0.343819,-0.15417 -0.70526,-0.12516 -0.288251,0.0231 -0.520893,0.0889 -0.771136,0.21795 -0.197094,0.10165 -0.382208,0.16741 -0.411365,0.14613 z m 2.906086,-0.25823 c 0.311349,-0.0865 0.622964,-0.46599 0.783067,-0.9537 0.207978,-0.63354 0.297624,-1.87021 0.207724,-2.86556 -0.110638,-1.22495 -0.33777,-1.74923 -0.820462,-1.89385 -0.189701,-0.0568 -0.301471,-0.0564 -0.496506,0.002 -0.319904,0.0958 -0.713426,0.48674 -0.798522,0.79318 -0.04056,0.14605 -0.06585,1.08005 -0.06606,2.43948 l -3.46e-4,2.20282 0.139579,0.0877 c 0.152949,0.0961 0.581571,0.24182 0.728908,0.24784 0.05118,0.002 0.196358,-0.0249 0.322621,-0.06 z m 5.64626,0.24666 c -0.146086,-0.0288 -0.479608,-0.14938 -0.741161,-0.26799 -0.519309,-0.23549 -0.665719,-0.22424 -0.736194,0.0566 -0.02396,0.0954 -0.08275,0.1533 -0.155819,0.1533 -0.110973,0 -0.117345,-0.0638 -0.117345,-1.175 0,-1.17636 0.03514,-1.36987 0.213202,-1.17415 0.04248,0.0467 0.108132,0.26065 0.145905,0.47548 0.08213,0.46712 0.329096,1.03072 0.559413,1.27665 0.495975,0.52961 1.458227,0.54097 1.727426,0.0204 0.145714,-0.28178 0.08832,-0.83623 -0.118999,-1.1495 -0.09045,-0.13668 -0.563419,-0.58055 -1.051038,-0.98637 -1.022666,-0.85112 -1.318227,-1.2226 -1.423612,-1.78928 -0.05753,-0.30936 -0.05184,-0.43081 0.03401,-0.72615 0.133902,-0.4606 0.385755,-0.73921 0.89474,-0.98978 0.394216,-0.19407 0.443177,-0.20281 1.126827,-0.20107 0.677694,0.002 0.73789,0.0125 1.162447,0.20902 0.246259,0.11396 0.491845,0.19028 0.545746,0.1696 0.0539,-0.0207 0.127325,-0.12173 0.163164,-0.22453 0.04387,-0.12585 0.106689,-0.18693 0.192265,-0.18693 0.120536,0 0.125031,0.0245 0.08698,0.47463 -0.02207,0.26104 -0.04012,0.7356 -0.04012,1.05459 0,0.5219 -0.01143,0.57997 -0.114198,0.57997 -0.08713,0 -0.131514,-0.0772 -0.187251,-0.32569 -0.105063,-0.46838 -0.33287,-0.92484 -0.589781,-1.18176 -0.462752,-0.46275 -1.222413,-0.46486 -1.585842,-0.004 -0.116461,0.14756 -0.135991,0.2341 -0.113822,0.50441 0.03616,0.44092 0.220787,0.65938 1.136609,1.34493 1.056355,0.79075 1.540163,1.28708 1.665277,1.70838 0.340722,1.14734 -0.270228,2.05631 -1.566825,2.33113 -0.45547,0.0965 -0.713942,0.10202 -1.112011,0.0236 z m 4.436859,-0.0227 c -0.12827,-0.0458 -0.276668,-0.11928 -0.329773,-0.16336 -0.27877,-0.23135 -0.364699,-0.84591 -0.165917,-1.18661 0.300697,-0.51539 1.385924,-0.57115 1.725148,-0.0886 0.389952,0.55466 0.139633,1.2852 -0.499962,1.45911 -0.315865,0.0859 -0.441227,0.0824 -0.729496,-0.0205 z m -79.449965,-0.13422 c -0.46928,-0.20351 -0.74332,-0.63457 -0.79244,-1.24648 -0.0267,-0.33247 -0.007,-0.43574 0.1356,-0.72813 0.25951,-0.53042 0.6432,-0.78714 1.7546,-1.174 1.29936,-0.45228 1.38333,-0.53906 1.38284,-1.42905 -4.1e-4,-0.73955 -0.0688,-1.02934 -0.30547,-1.29421 -0.15431,-0.17271 -0.21909,-0.19756 -0.57,-0.21875 -0.39813,-0.024 -0.8632,0.0814 -0.90353,0.20487 -0.0115,0.0351 0.0653,0.1147 0.1706,0.17691 0.28383,0.16765 0.42958,0.44815 0.42986,0.82721 1.9e-4,0.27086 -0.0299,0.35787 -0.18501,0.5345 -0.4504,0.51297 -1.27868,0.41321 -1.52824,-0.18407 -0.44162,-1.05694 0.84013,-1.91088 2.70603,-1.80283 1.21543,0.0704 1.73022,0.4791 1.85969,1.47647 0.032801,0.25237 0.060401,1.3396 0.061501,2.41605 0.001,1.43734 0.0217,1.97697 0.0763,2.03164 0.10129,0.10129 0.30483,0.0936 0.46342,-0.0175 0.10867,-0.0761 0.14299,-0.0777 0.19969,-0.009 0.18133,0.21849 -0.57732,0.53562 -1.281021,0.53548 -0.7119,-1.5e-4 -0.98435,-0.17977 -1.15919,-0.76423 -0.0284,-0.0949 -0.0813,-0.0642 -0.33106,0.19223 -0.39336,0.40385 -0.83547,0.57298 -1.48908,0.56967 -0.28543,-0.001 -0.56585,-0.0403 -0.69512,-0.0964 z m 2.00726,-0.73114 c 0.1126,-0.047 0.26524,-0.16247 0.3392,-0.2565 0.12754,-0.16214 0.13449,-0.23359 0.13449,-1.38389 v -1.21292 l -0.1706,0.158 c -0.0938,0.0869 -0.33809,0.27046 -0.5428,0.40792 -0.45885,0.3081 -0.61604,0.47423 -0.74834,0.79086 -0.13136,0.31438 -0.13134,0.94829 3e-5,1.20233 0.17875,0.34568 0.57935,0.46496 0.98802,0.2942 z m 58.506656,0.71426 c -0.491456,-0.22326 -0.77421,-0.7021 -0.77421,-1.3111 0,-0.87643 0.466163,-1.32271 1.901761,-1.82064 0.747456,-0.25925 1.061874,-0.41231 1.230301,-0.59889 0.110413,-0.12232 0.123955,-0.22377 0.123032,-0.92162 -0.0012,-0.88392 -0.07049,-1.10043 -0.420709,-1.31397 -0.22875,-0.13948 -0.753662,-0.15893 -1.093445,-0.0405 -0.28146,0.0981 -0.302981,0.19999 -0.06791,0.32155 0.280166,0.14488 0.434949,0.43573 0.435225,0.81783 2.86e-4,0.39569 -0.182337,0.64366 -0.588186,0.79865 -0.629692,0.24048 -1.21059,-0.17966 -1.21059,-0.87557 0,-0.51171 0.419633,-0.94337 1.179207,-1.21302 0.348067,-0.12357 0.524672,-0.14327 1.302183,-0.14528 0.841603,-0.002 0.921466,0.008 1.240695,0.15855 0.187655,0.0885 0.432624,0.25503 0.544375,0.37009 0.371646,0.38265 0.400074,0.58443 0.432121,3.06705 0.01783,1.38117 0.05296,2.26284 0.09207,2.31079 0.08664,0.10623 0.302379,0.0973 0.468966,-0.0194 0.125526,-0.0879 0.141816,-0.0879 0.17583,7.9e-4 0.0566,0.14751 -0.07473,0.26364 -0.462814,0.40923 -0.282351,0.10592 -0.456401,0.12762 -0.889408,0.1109 -0.655284,-0.0253 -0.825703,-0.1276 -1.026112,-0.61588 -0.07572,-0.18449 -0.13853,-0.30274 -0.139578,-0.26279 -0.0042,0.15976 -0.569775,0.63542 -0.90444,0.76063 -0.448764,0.16791 -1.193141,0.17395 -1.54837,0.0126 z m 2.055499,-0.72964 c 0.440343,-0.20896 0.45744,-0.26969 0.45744,-1.62501 v -1.21292 l -0.170596,0.158 c -0.09383,0.0869 -0.342399,0.2728 -0.552381,0.41312 -0.507357,0.33902 -0.745779,0.63845 -0.829499,1.04173 -0.194714,0.93793 0.36964,1.5693 1.095036,1.22508 z m -67.222465,0.64918 c 0,-0.0719 0.075,-0.11578 0.2479,-0.14499 0.15786,-0.0267 0.29304,-0.0993 0.3722,-0.19993 0.12145,-0.15439 0.12432,-0.24936 0.12432,-4.11072 v -3.95269 l -0.14167,-0.21078 c -0.0961,-0.14304 -0.21576,-0.22926 -0.3722,-0.26826 -0.16772,-0.0418 -0.23055,-0.0905 -0.23055,-0.1786 0,-0.11076 0.0306,-0.11772 0.3567,-0.0811 0.35222,0.0395 1.63499,-0.0386 1.95549,-0.11903 l 0.16519,-0.0415 0.0175,4.37517 c 0.0173,4.32363 0.019,4.37723 0.14687,4.55026 0.0843,0.11407 0.21941,0.19547 0.38772,0.23354 0.16756,0.0379 0.25836,0.0924 0.25836,0.15509 0,0.0851 -0.19684,0.0967 -1.64392,0.0967 -1.49116,0 -1.64392,-0.01 -1.64392,-0.10311 z m 15.9432505,0.0101 c 2e-4,-0.0564 0.11608,-0.12971 0.29413,-0.18611 0.19518,-0.0618 0.31996,-0.14511 0.37171,-0.24814 0.0606,-0.12057 0.0745,-1.03408 0.0626,-4.10529 -0.0151,-3.90133 -0.0169,-3.95236 -0.14534,-4.12531 -0.075,-0.10104 -0.2259,-0.19941 -0.3567,-0.23257 -0.16389,-0.0416 -0.22669,-0.091 -0.22669,-0.17861 0,-0.11076 0.0306,-0.11771 0.3567,-0.0811 0.35329,0.0396 1.63532995,-0.0387 1.95748995,-0.11953 l 0.1672,-0.042 v 2.98074 c 0,1.6394 0.0209,2.99266 0.0465,3.00724 0.0256,0.0146 0.14724,-0.005 0.27035,-0.0429 0.24327,-0.0754 1.31367005,-1.03048 1.57628005,-1.40646 0.22188,-0.31766 0.20832,-0.6223 -0.0369,-0.82864 -0.10499,-0.0883 -0.2655,-0.17716 -0.3567,-0.19738 -0.33486005,-0.0743 -0.38293005,-0.0974 -0.38293005,-0.1845 0,-0.0746 0.23031,-0.0889 1.43134005,-0.0889 1.28031,0 1.42923,0.0105 1.41129,0.0995 -0.011,0.0547 -0.14825,0.14804 -0.30494,0.20741 -0.50213,0.19027 -1.21738,0.7543 -1.72428,1.35975 l -0.24898,0.29737 1.04439,1.74039 c 1.17706,1.96145 1.26098,2.08608 1.46839,2.18058 0.0817,0.0372 0.14859,0.11716 0.14859,0.1776 -1e-5,0.10198 -0.10274,0.10989 -1.42681,0.10989 -1.23965,0 -1.42679,-0.0125 -1.42679,-0.095 0,-0.0522 0.0837,-0.12657 0.18611,-0.16521 0.11569,-0.0437 0.18518,-0.11336 0.18367,-0.18419 -0.003,-0.14465 -1.23702005,-2.35131 -1.42267005,-2.5442 -0.0763,-0.0793 -0.20813,-0.1442 -0.29288,-0.1442 h -0.15409 l 0.0213,1.25621 c 0.0242,1.42989 0.0443,1.49856 0.4705,1.61385 0.16542,0.0447 0.26365,0.10696 0.26364,0.167 0,0.0838 -0.20078,0.0957 -1.61290995,0.0957 -1.39247,0 -1.61285,-0.0127 -1.61257,-0.0931 z m 9.86355,0 c 1.8e-4,-0.0564 0.11603,-0.12971 0.29411,-0.18611 0.19576,-0.062 0.31955,-0.1448 0.37097,-0.24814 0.0578,-0.11619 0.0774,-0.81155 0.0781,-2.77309 l 9.1e-4,-2.61801 -0.38709,-0.0185 c -0.31052,-0.0148 -0.39119,-0.0399 -0.40778,-0.12703 -0.018,-0.0943 0.0319,-0.10856 0.38153,-0.10856 h 0.4022 l 0.0392,-0.5428 c 0.0971,-1.3428 0.43512,-1.99133 1.25005,-2.39826 0.90528,-0.45204 2.1325295,-0.31252 2.5960105,0.29513 0.375928,0.49287 0.27947,1.24522 -0.186891,1.45771 -0.246109,0.11213 -0.714221,0.0872 -0.939229,-0.05 -0.5444405,-0.33196 -0.4979605,-1.19241 0.08056,-1.49135 0.09904,-0.0512 0.193226,-0.10154 0.209297,-0.11193 0.08057,-0.0521 -0.18709,-0.13442 -0.439589,-0.13525 -0.200813,-6.7e-4 -0.3373475,0.0392 -0.4572675,0.13353 -0.30076,0.23658 -0.35538,0.47626 -0.38996,1.71105 l -0.0317,1.13213 h 0.6601625 c 0.618804,0 0.660161,0.008 0.660161,0.12407 0,0.11619 -0.04136,0.12407 -0.651365,0.12407 H 9.4491015 l 3.5e-4,2.43487 c 2e-4,1.42024 0.026,2.52726 0.0619,2.65659 0.0872,0.31402 0.28939,0.47579 0.7154955,0.57257 0.234277,0.0532 0.369861,0.11563 0.369861,0.17029 0,0.0717 -0.307016,0.0866 -1.8144965,0.0882 -1.5725,0.002 -1.81446,-0.0106 -1.81419,-0.0912 z m 10.8557385,-0.003 c -3e-6,-0.0612 0.101946,-0.12297 0.282603,-0.17128 0.459813,-0.12299 0.461809,-0.13497 0.461809,-2.77273 0,-2.43336 -0.01584,-2.57222 -0.317424,-2.78346 -0.07943,-0.0556 -0.208003,-0.10116 -0.285709,-0.10116 -0.09666,0 -0.141284,-0.0367 -0.141284,-0.11601 0,-0.10699 0.07845,-0.11902 1.008065,-0.1546 0.554435,-0.0212 1.112748,-0.0558 1.240695,-0.0769 l 0.23263,-0.0383 0.0033,0.51858 c 0.0032,0.50752 0.0055,0.51528 0.108561,0.36404 0.452113,-0.66344 0.842208,-0.89516 1.511826,-0.89802 0.547453,-0.002 0.729216,0.0915 0.968824,0.50007 0.191949,0.32733 0.170674,0.89529 -0.04487,1.198 -0.257284,0.36132 -0.790181,0.48189 -1.22271,0.27664 -0.259374,-0.12308 -0.39436,-0.36475 -0.39436,-0.70603 0,-0.28912 0.06941,-0.45144 0.297722,-0.69625 0.202979,-0.21765 0.14332,-0.27314 -0.188761,-0.17558 -0.327017,0.0961 -0.627337,0.37373 -0.843408,0.77977 l -0.165057,0.31018 -0.01889,1.92078 c -0.01593,1.62022 -0.0038,1.96031 0.07757,2.17337 0.112793,0.29534 0.319757,0.43596 0.732259,0.49754 0.213568,0.0319 0.294666,0.0719 0.294668,0.1455 3e-6,0.0917 -0.17457,0.10152 -1.799002,0.10152 -1.579836,0 -1.799006,-0.0117 -1.799011,-0.0957 z m 23.821332,-9.6e-4 c 3e-6,-0.0627 0.09081,-0.11718 0.258366,-0.15508 0.168364,-0.0381 0.303422,-0.11946 0.387717,-0.2336 0.127878,-0.17316 0.129355,-0.21956 0.129355,-4.06328 0,-3.68269 -0.0062,-3.90053 -0.116786,-4.12318 -0.09491,-0.19104 -0.167537,-0.24864 -0.387717,-0.30753 -0.17362,-0.0464 -0.270931,-0.10734 -0.270931,-0.16956 0,-0.0833 0.13045,-0.0986 0.915012,-0.10733 0.503257,-0.006 1.054137,-0.0375 1.224178,-0.0708 0.17004,-0.0333 0.330555,-0.0474 0.356699,-0.0312 0.02614,0.0162 0.04795,1.97485 0.04845,4.35264 7.02e-4,3.32133 0.0188,4.35921 0.07808,4.47835 0.05141,0.10333 0.175211,0.18614 0.370969,0.24814 0.17807,0.0564 0.293928,0.12971 0.294122,0.1861 2.76e-4,0.0804 -0.223553,0.0931 -1.643599,0.0931 -1.447077,0 -1.643918,-0.0116 -1.643915,-0.0967 z M -27.17319,115.51176 c 0.0865,-0.14105 1.51759,-2.3221 5.77738,-8.80486 2.31628,-3.52504 6.08192,-9.256552 8.3681,-12.736701 2.28617,-3.480149 4.8079205,-7.318549 5.6038705,-8.529777 0.79596,-1.211228 1.75845,-2.676799 2.13886,-3.256824 0.38041,-0.580025 2.22304,-3.385546 4.09473,-6.234492 1.87168995,-2.848945 5.35586,-8.152916 7.7426,-11.786601 2.38673,-3.633685 5.0182965,-7.639579 5.8479195,-8.901986 1.466174,-2.231023 2.190476,-3.334601 6.068291,-9.245918 1.019933,-1.55478 1.873921,-2.804353 1.89775,-2.77683 0.02383,0.02752 0.848698,1.278331 1.83304,2.779572 0.984342,1.50124 2.165791,3.301799 2.625443,4.00124 1.508738,2.29581 9.103305,13.857307 11.287656,17.183625 1.176293,1.791253 2.60227,3.961595 3.168837,4.822982 1.435802,2.182941 3.84303,5.846902 10.42452,15.866813 3.432984,5.226506 6.756228,10.285704 7.629022,11.614175 0.565779,0.861162 1.991778,3.031942 3.168887,4.823952 1.177109,1.79201 2.466153,3.75336 2.864541,4.35856 1.799102,2.73306 4.429127,6.7399 4.47415,6.81637 0.0416,0.0707 -0.647466,0.0842 -4.267234,0.0842 H 59.25833 l -1.23295,-1.87656 c -0.678123,-1.0321 -1.609589,-2.44882 -2.069925,-3.14826 -0.460336,-0.69944 -1.670729,-2.54187 -2.689763,-4.09429 -1.019034,-1.55242 -2.852486,-4.34398 -4.074338,-6.20348 -1.221852,-1.859487 -3.13781,-4.776671 -4.257685,-6.482626 -1.119874,-1.705955 -2.413233,-3.674008 -2.87413,-4.373449 C 41.598641,88.711203 40.470168,86.994391 39.55182,85.595508 37.327558,82.207375 34.868475,78.466018 28.644883,69.001214 26.928601,66.391102 24.369508,62.498702 22.95801,60.351436 21.546512,58.20417 20.365221,56.43939 20.332919,56.429703 c -0.0323,-0.0097 -0.793404,1.105107 -1.691336,2.477321 -0.897932,1.372213 -2.223924,3.395477 -2.94665,4.496141 -0.722726,1.100665 -1.611721,2.454573 -1.975546,3.008686 -0.363824,0.554112 -1.184828,1.803073 -1.824452,2.775467 -0.639624,0.972395 -1.628976,2.479839 -2.1985645,3.349876 -0.56958,0.870038 -1.81513,2.768301 -2.76788,4.218363 -0.95276,1.450062 -2.41542,3.67691 -3.25037,4.94855 -0.83494,1.27164 -2.10903,3.211777 -2.83131005,4.311415 -0.72228,1.099637 -1.66123,2.529738 -2.08654995,3.178001 -0.42532,0.648263 -2.38632,3.635236 -4.35777,6.637718 -1.97144,3.002481 -4.6289005,7.050249 -5.9054505,8.995039 l -2.321,3.53598 24.226888,0.031 24.226893,0.031 2.329007,3.54969 c 1.280954,1.95233 2.329007,3.56446 2.329007,3.5825 0,0.0181 -14.964427,0.0328 -33.2542845,0.0328 -26.5874205,0 -33.2447505,-0.0156 -33.2067405,-0.0775 z m 68.963993,-4.80793 c -1.745265,-2.68675 -4.296827,-6.61576 -5.670137,-8.73115 C 31.428094,94.744456 26.735921,87.520825 24.543408,84.149416 23.338326,82.296372 22.35235,80.767991 22.35235,80.753014 c 0,-0.01498 1.933158,-0.02659 4.295906,-0.0258 l 4.295906,0.0014 1.777159,2.743607 c 2.304705,3.558041 5.569893,8.587404 11.869981,18.283309 5.080438,7.81885 8.837144,13.60884 8.925403,13.7562 0.03698,0.0617 -0.830008,0.0775 -4.253124,0.0773 l -4.299567,-2.3e-4 z M 4.4863505,99.931619 c 0,-0.01371 0.73,-1.137317 1.62223,-2.496898 0.89223,-1.359581 2.38155,-3.630465 3.30959,-5.046408 0.9280505,-1.415943 2.0987685,-3.200549 2.6016005,-3.96579 l 0.91424,-1.391349 0.542448,0.833036 c 0.298346,0.45817 0.918969,1.405307 1.379162,2.104748 0.996131,1.514008 4.52376,6.88304 5.716429,8.700373 l 0.84477,1.287221 h -8.465238 c -4.6558815,0 -8.4652315,-0.01122 -8.4652315,-0.02493 z M 50.950366,80.002739 c 0,-0.04066 0.514319,-0.828058 4.754837,-7.279439 1.244678,-1.893611 2.588272,-3.938031 2.985766,-4.543155 0.397494,-0.605125 0.741487,-1.079691 0.764429,-1.054591 0.02294,0.0251 0.829104,1.246008 1.791469,2.71313 0.962366,1.467122 2.154419,3.281638 2.649007,4.032258 2.908541,4.414205 3.989976,6.072886 3.989976,6.119731 0,0.029 -3.810484,0.05273 -8.467742,0.05273 -4.657258,0 -8.467742,-0.0183 -8.467742,-0.04066 z"
       id="path6"
       clip-path="url(#clipPath6)"
       transform="matrix(0.19730242,0,0,0.19730242,15.983663,-1.2034347)" /></g></svg>
