<?xml version="1.0" encoding="UTF-8" standalone="no"?>
<svg
   width="168"
   height="30"
   viewBox="0 0 168 30"
   fill="none"
   version="1.1"
   id="svg5"
   xml:space="preserve"
   xmlns:xlink="http://www.w3.org/1999/xlink"
   xmlns="http://www.w3.org/2000/svg"
   xmlns:svg="http://www.w3.org/2000/svg"><defs
     id="defs5"><linearGradient
       id="linearGradient6"><stop
         style="stop-color:#3158b3;stop-opacity:1;"
         offset="0"
         id="stop6" /><stop
         style="stop-color:#79e9df;stop-opacity:1;"
         offset="1"
         id="stop7" /></linearGradient><linearGradient
       xlink:href="#linearGradient6"
       id="linearGradient7"
       x1="34.198765"
       y1="15"
       x2="144.11424"
       y2="15"
       gradientUnits="userSpaceOnUse" /></defs><g
     id="g7"
     transform="translate(-5.156503)"><path
       d="m 34.198766,15 c 0,-8.28427 4.393823,-15 9.813883,-15 h 90.287701 c 5.41989,0 9.81389,6.71573 9.81389,15 v 0 c 0,8.2843 -4.394,15 -9.81389,15 H 44.012649 c -5.42006,0 -9.813883,-6.7157 -9.813883,-15 z"
       fill="#BFC2FF"
       id="path1"
       style="fill:url(#linearGradient7);fill-opacity:1;stroke-width:0.808862" /><text
       xml:space="preserve"
       style="font-style:normal;font-variant:normal;font-weight:900;font-stretch:normal;font-size:14.6667px;font-family:Roboto;-inkscape-font-specification:'Roboto, Heavy';font-variant-ligatures:normal;font-variant-caps:normal;font-variant-numeric:normal;font-variant-east-asian:normal;fill:#fefeff;fill-opacity:1;stroke-width:1.00157;stroke-linejoin:round"
       x="66.141205"
       y="20.503593"
       id="text5"><tspan
         id="tspan5"
         x="66.141205"
         y="20.503593"
         style="font-style:normal;font-variant:normal;font-weight:900;font-stretch:normal;font-size:14.6667px;font-family:Roboto;-inkscape-font-specification:'Roboto, Heavy';font-variant-ligatures:normal;font-variant-caps:normal;font-variant-numeric:normal;font-variant-east-asian:normal;fill:#fefeff;fill-opacity:1">ByteDance</tspan></text><g
       id="g6"><path
         style="fill:#ffffff;fill-opacity:1;stroke-width:0.381348"
         d="m 56.157501,16.013768 0.06746,-7.3091643 0.63558,0.071359 c 0.349567,0.039246 1.066485,0.1871697 1.593145,0.3287198 l 0.957572,0.2573627 -0.06776,6.6461548 -0.06776,6.646156 -1.271158,0.329385 c -0.699139,0.181161 -1.415921,0.331591 -1.592851,0.334289 -0.253622,0.0038 -0.307412,-1.541608 -0.254229,-7.304261 z m 2.037754,6.403864 0.699136,-0.166749 V 15.965482 9.6800793 L 57.750348,9.4182854 56.606305,9.1564914 v 6.8461206 c 0,6.400979 0.02895,6.837526 0.444907,6.713946 0.244696,-0.0727 0.759515,-0.207212 1.144043,-0.298926 z M 46.945497,19.000991 v -3.882589 l 1.154294,0.158214 c 2.153013,0.295103 2.150719,0.29113 2.150719,3.724375 0,3.433246 0.0023,3.429273 -2.150719,3.724376 l -1.154294,0.158213 z m 2.603939,2.885582 c 0.251495,-0.155433 0.251495,-5.61573 0,-5.771163 -0.105935,-0.06547 -0.620755,-0.19936 -1.144042,-0.297529 l -0.951434,-0.17849 v 3.3616 3.361602 l 0.951434,-0.178491 c 0.523287,-0.09817 1.038107,-0.232058 1.144042,-0.297529 z m -7.065628,0.351072 c -0.06809,-0.177426 -0.0931,-3.123337 -0.05558,-6.546469 l 0.06822,-6.223877 0.635579,0.071359 c 0.349569,0.039246 1.066692,0.1872255 1.593608,0.3288434 l 0.958027,0.2574866 -0.06822,5.871917 -0.06822,5.871919 -1.144043,0.341848 c -1.431734,0.427811 -1.763765,0.432477 -1.919371,0.02697 z m 2.294574,-0.692 0.651862,-0.247837 -0.06863,-5.390342 -0.06863,-5.390342 -1.207601,-0.307897 -1.207601,-0.3078983 v 6.1027833 6.102782 l 0.624367,-0.156706 c 0.343403,-0.08619 0.917705,-0.268232 1.276228,-0.404543 z m 7.88733,-0.855871 -1.016927,-0.305994 -0.07108,-3.069222 c -0.05237,-2.261412 0.01454,-3.136174 0.254232,-3.323605 0.4252,-0.33249 2.52336,-0.844387 2.788731,-0.680378 0.113309,0.07003 0.206017,1.836638 0.206017,3.925798 0,4.297662 0.102172,4.134384 -2.16097,3.453401 z m 1.652506,-3.579381 v -3.415989 l -1.080485,0.312371 -1.080484,0.312371 -0.0718,2.839983 -0.0718,2.839982 0.834492,0.240707 c 1.528343,0.440846 1.470071,0.564892 1.470071,-3.129425 z"
         id="path2" /><path
         style="fill:#ffffff;fill-opacity:1;stroke:none;stroke-width:0.0591024;stroke-linejoin:bevel"
         d="m 42.929399,15.989946 c 0,-4.822903 0.01505,-6.0538642 0.07376,-6.0319821 0.04057,0.015121 0.568482,0.1540771 1.173139,0.3087911 l 1.099377,0.281299 0.04766,4.315014 c 0.02621,2.373258 0.0493,4.789925 0.05131,5.370372 l 0.0037,1.055358 -0.56059,0.2029 c -0.560545,0.202883 -1.335244,0.438717 -1.696523,0.516455 l -0.191781,0.04127 z"
         id="path3" /><path
         style="fill:#ffffff;fill-opacity:1;stroke:none;stroke-width:0.0591024;stroke-linejoin:bevel"
         d="m 47.47313,19.001054 c 0,-3.154888 0.0058,-3.340317 0.103266,-3.312115 0.0568,0.01643 0.342255,0.07213 0.634352,0.123776 0.768094,0.135806 1.307498,0.306751 1.354929,0.429397 0.181098,0.468278 0.181098,5.049605 0,5.517883 -0.04743,0.122646 -0.586835,0.293592 -1.354929,0.429398 -0.292097,0.05165 -0.577555,0.107345 -0.634352,0.123775 -0.09749,0.0282 -0.103266,-0.157227 -0.103266,-3.312114 z"
         id="path4" /><path
         style="fill:#ffffff;fill-opacity:1;stroke:none;stroke-width:0.0591024;stroke-linejoin:bevel"
         d="m 53.580611,20.405206 c -0.240491,-0.05683 -1.522258,-0.42859 -1.530898,-0.444014 -0.01726,-0.03082 0.136446,-5.604282 0.154964,-5.618967 0.01029,-0.0082 0.483416,-0.148112 1.051382,-0.310999 l 1.032666,-0.296158 0.01601,1.954384 c 0.02051,2.504367 -0.04971,4.245035 -0.181513,4.499393 -0.125567,0.24232 -0.23988,0.287901 -0.542609,0.216361 z"
         id="path5" /><path
         style="fill:#ffffff;fill-opacity:1;stroke:none;stroke-width:0.0591024;stroke-linejoin:bevel"
         d="M 56.798605,22.497366 C 56.675169,22.15217 56.615964,19.165193 56.632709,14.127543 l 0.0164,-4.932521 0.973657,0.2239452 c 0.535511,0.1231699 1.033524,0.2389147 1.106696,0.2572106 l 0.133039,0.033265 -0.01502,6.2588292 -0.01502,6.258828 -0.914647,0.230429 c -0.503056,0.126736 -0.945242,0.230696 -0.982636,0.231023 -0.03739,3.27e-4 -0.09885,-0.08571 -0.136567,-0.191186 z"
         id="path6" /></g></g></svg>
