<?xml version="1.0" encoding="UTF-8" standalone="no"?>
<svg
   width="143"
   height="30"
   viewBox="0 0 143 30"
   fill="none"
   version="1.1"
   id="svg3"
   xml:space="preserve"
   xmlns="http://www.w3.org/2000/svg"
   xmlns:svg="http://www.w3.org/2000/svg"><defs
     id="defs3"><clipPath
       id="clip0_435_138"><rect
         width="734"
         height="164"
         fill="#ffffff"
         id="rect15"
         x="0"
         y="0" /></clipPath><clipPath
       clipPathUnits="userSpaceOnUse"
       id="clipPath16"><rect
         style="fill:#ffffff;fill-opacity:1;stroke:none;stroke-width:0.07;stroke-opacity:1"
         id="rect17"
         width="226.30096"
         height="202.69904"
         x="-13.752649"
         y="-11.373789" /></clipPath></defs><g
     id="g17"><path
       d="m 23.224422,15 c 0,-8.28427 4.908943,-15 10.964429,-15 h 82.598709 c 6.05529,0 10.96442,6.71573 10.96442,15 v 0 c 0,8.2843 -4.90913,15 -10.96442,15 H 34.188851 C 28.133365,30 23.224422,23.2843 23.224422,15 Z"
       fill="#1B1B1B"
       id="path1"
       style="fill:#2e2e2e;fill-opacity:1;stroke-width:0.854963" /><text
       xml:space="preserve"
       style="font-style:normal;font-variant:normal;font-weight:bold;font-stretch:normal;font-size:16px;font-family:Roboto;-inkscape-font-specification:'Roboto, Bold';font-variant-ligatures:normal;font-variant-caps:normal;font-variant-numeric:normal;font-variant-east-asian:normal;text-align:start;writing-mode:lr-tb;direction:ltr;text-anchor:start;fill:#ffffff;fill-opacity:1;stroke:#ffffff;stroke-width:0.07"
       x="56.96661"
       y="20.721687"
       id="text3"><tspan
         id="tspan3"
         x="56.96661"
         y="20.721687">Cartesia</tspan></text><g
       style="fill:#ffffff;fill-opacity:1"
       id="g4"
       transform="matrix(0.10049493,0,0,0.10049493,29.101991,3.2388978)"
       clip-path="url(#clipPath16)"><g
         clip-path="url(#clip0_435_138)"
         id="g14"
         style="fill:#ffffff;fill-opacity:1"
         transform="translate(34.190678,42.738347)"><rect
           x="54.666698"
           width="27.3333"
           height="27.3333"
           fill="#000000"
           id="rect1"
           y="0"
           style="fill:#ffffff;fill-opacity:1" /><rect
           x="109.333"
           width="27.3333"
           height="27.3333"
           fill="#000000"
           id="rect2"
           y="0"
           style="fill:#ffffff;fill-opacity:1" /><rect
           x="27.3333"
           y="27.3333"
           width="27.3333"
           height="27.3333"
           fill="#000000"
           id="rect3"
           style="fill:#ffffff;fill-opacity:1" /><rect
           x="82"
           y="27.3333"
           width="27.3333"
           height="27.3333"
           fill="#000000"
           id="rect4"
           style="fill:#ffffff;fill-opacity:1" /><rect
           x="136.66701"
           y="27.3333"
           width="27.3333"
           height="27.3333"
           fill="#000000"
           id="rect5"
           style="fill:#ffffff;fill-opacity:1" /><rect
           y="54.666698"
           width="27.3333"
           height="27.3333"
           fill="#000000"
           id="rect6"
           x="0"
           style="fill:#ffffff;fill-opacity:1" /><rect
           x="54.666698"
           y="54.666698"
           width="27.3333"
           height="27.3333"
           fill="#000000"
           id="rect7"
           style="fill:#ffffff;fill-opacity:1" /><rect
           y="82"
           width="27.3333"
           height="27.3333"
           fill="#000000"
           id="rect8"
           x="0"
           style="fill:#ffffff;fill-opacity:1" /><rect
           x="54.666698"
           y="82"
           width="27.3333"
           height="27.3333"
           fill="#000000"
           id="rect9"
           style="fill:#ffffff;fill-opacity:1" /><rect
           x="27.3333"
           y="109.333"
           width="27.3333"
           height="27.3333"
           fill="#000000"
           id="rect10"
           style="fill:#ffffff;fill-opacity:1" /><rect
           x="82"
           y="109.333"
           width="27.3333"
           height="27.3333"
           fill="#000000"
           id="rect11"
           style="fill:#ffffff;fill-opacity:1" /><rect
           x="136.66701"
           y="109.333"
           width="27.3333"
           height="27.3333"
           fill="#000000"
           id="rect12"
           style="fill:#ffffff;fill-opacity:1" /><rect
           x="54.666698"
           y="136.66701"
           width="27.3333"
           height="27.3333"
           fill="#000000"
           id="rect13"
           style="fill:#ffffff;fill-opacity:1" /><rect
           x="109.333"
           y="136.66701"
           width="27.3333"
           height="27.3333"
           fill="#000000"
           id="rect14"
           style="fill:#ffffff;fill-opacity:1" /><path
           d="m 277.328,120.728 c 12.16,0 18.816,-7.552 23.552,-22.528 h 7.04 l -2.688,22.656 c -8.064,4.48 -17.024,7.424 -30.464,7.424 -26.752,0 -43.648,-18.56 -43.648,-44.288 0,-29.824 19.968,-48.128 45.184,-48.128 13.056,0 22.4,3.456 28.544,8.448 V 64.28 h -6.912 C 294.48,50.072 287.184,43.288 275.664,43.288 c -18.944,0 -26.752,17.152 -26.752,36.992 0,23.168 9.6,40.448 28.416,40.448 z m 67.008,-3.072 c 4.992,0 8.448,-1.408 12.8,-4.48 v -22.4 l -14.976,5.76 c -4.736,1.792 -7.424,5.248 -7.424,10.112 0,7.04 3.456,11.008 9.6,11.008 z m 28.288,-37.12 c 0,3.072 -0.384,25.728 -0.384,29.696 0,5.12 1.664,8.064 5.248,8.064 1.152,0 3.968,-0.256 5.888,-0.768 l 0.768,4.096 c -4.352,4.352 -9.216,6.656 -14.592,6.656 -6.784,0 -10.496,-4.736 -12.032,-11.648 -4.48,5.376 -11.392,11.52 -21.12,11.52 -11.392,0 -17.28,-7.68 -17.28,-17.536 0,-11.776 9.088,-15.872 17.664,-18.816 l 20.352,-7.296 V 77.72 c 0,-8.32 -2.56,-13.952 -11.008,-13.952 -6.272,0 -9.344,3.072 -9.344,8.96 0,2.432 0.256,4.608 0.896,7.296 l -11.264,1.664 c -2.432,-1.664 -3.584,-4.096 -3.584,-7.552 0,-11.136 10.88,-17.024 25.6,-17.024 15.744,0 24.192,7.04 24.192,23.424 z m 41.569,-23.68 v 20.992 c 7.296,-15.616 11.136,-20.736 19.328,-20.736 2.304,0 3.968,0.768 4.992,1.664 v 14.08 h -2.816 c -7.936,0 -13.952,1.024 -21.504,9.216 v 31.616 c 0,6.144 3.072,6.528 11.776,7.552 V 127 h -36.48 v -5.76 c 5.632,-0.768 9.216,-1.408 9.216,-7.296 V 72.216 l -8.576,-5.504 v -3.2 l 20.352,-6.656 z m 53.672,-13.568 v 15.104 h 18.816 v 7.68 h -18.816 v 43.136 c 0,6.784 2.944,9.216 9.472,9.216 3.584,0 7.808,-1.024 11.008,-2.688 l 1.664,3.968 c -4.864,5.248 -11.904,8.576 -20.736,8.576 -10.24,0 -16.768,-4.864 -16.768,-16.64 V 66.072 h -9.216 v -4.864 c 7.168,-3.712 14.08,-9.728 19.968,-17.92 z m 59.499,13.824 c 17.408,0 26.496,12.288 26.496,28.8 v 4.224 h -44.672 c 0,15.488 8.704,25.856 22.272,25.856 9.088,0 15.104,-4.224 19.712,-10.368 l 2.816,1.664 c -3.2,12.416 -12.928,20.992 -27.904,20.992 -18.816,0 -30.72,-14.208 -30.72,-33.408 0,-22.656 13.824,-37.76 32,-37.76 z m -2.048,7.04 c -9.216,0 -14.72,9.088 -15.744,19.456 h 29.824 c 0,-11.776 -4.736,-19.456 -14.08,-19.456 z m 64.514,64.128 c -9.216,0 -17.92,-2.048 -24.192,-6.656 l -0.768,-16.512 h 6.656 c 2.432,10.496 8.448,16.64 18.688,16.64 7.552,0 12.416,-3.456 12.416,-9.6 0,-7.296 -5.12,-9.856 -16.64,-13.056 -12.928,-3.712 -20.48,-9.088 -20.48,-21.248 0,-12.544 9.216,-20.736 23.68,-20.736 8.832,0 16.128,2.176 21.76,5.504 v 15.36 h -6.528 c -1.92,-9.344 -7.04,-14.208 -15.744,-14.208 -6.656,0 -10.496,3.968 -10.496,9.216 0,6.272 4.224,9.6 14.72,12.416 13.184,3.584 22.272,8.064 22.272,21.504 0,12.672 -9.472,21.376 -25.344,21.376 z m 59.738,-71.168 v 56.832 c 0,5.888 3.456,6.528 9.216,7.296 V 127 h -33.92 v -5.76 c 5.632,-0.768 9.216,-1.408 9.216,-7.296 V 71.96 l -8.576,-5.376 v -3.072 l 20.48,-6.4 z m -8.192,-7.68 c -5.76,0 -9.856,-4.352 -9.856,-9.6 0,-5.248 4.096,-9.6 9.856,-9.6 5.632,0 9.728,4.352 9.728,9.6 0,5.248 -4.096,9.6 -9.728,9.6 z m 51.835,68.224 c 4.992,0 8.448,-1.408 12.8,-4.48 v -22.4 l -14.976,5.76 c -4.736,1.792 -7.424,5.248 -7.424,10.112 0,7.04 3.456,11.008 9.6,11.008 z m 28.288,-37.12 c 0,3.072 -0.384,25.728 -0.384,29.696 0,5.12 1.664,8.064 5.248,8.064 1.152,0 3.968,-0.256 5.888,-0.768 l 0.768,4.096 c -4.352,4.352 -9.216,6.656 -14.592,6.656 -6.784,0 -10.496,-4.736 -12.032,-11.648 -4.48,5.376 -11.392,11.52 -21.12,11.52 -11.392,0 -17.28,-7.68 -17.28,-17.536 0,-11.776 9.088,-15.872 17.664,-18.816 l 20.352,-7.296 V 77.72 c 0,-8.32 -2.56,-13.952 -11.008,-13.952 -6.272,0 -9.344,3.072 -9.344,8.96 0,2.432 0.256,4.608 0.896,7.296 l -11.264,1.664 c -2.432,-1.664 -3.584,-4.096 -3.584,-7.552 0,-11.136 10.88,-17.024 25.6,-17.024 15.744,0 24.192,7.04 24.192,23.424 z"
           fill="#000000"
           id="path14"
           style="fill:#ffffff;fill-opacity:1" /></g></g></g></svg>
