<?xml version="1.0" encoding="UTF-8" standalone="no"?>
<svg
   width="143"
   height="30"
   viewBox="0 0 143 30"
   fill="none"
   version="1.1"
   id="svg3"
   xml:space="preserve"
   xmlns="http://www.w3.org/2000/svg"
   xmlns:svg="http://www.w3.org/2000/svg"><defs
     id="defs3" /><g
     id="g4"
     transform="translate(24.665498)"><g
       id="g5"><g
         id="g10"><path
           d="m -24.408042,15 c 0,-8.28427 6.691548,-15 14.94599,-15 H 103.13108 c 8.25417,0 14.94597,6.71573 14.94597,15 v 0 c 0,8.2843 -6.6918,15 -14.94597,15 H -9.462052 c -8.254442,0 -14.94599,-6.7157 -14.94599,-15 z"
           fill="#1B1B1B"
           id="path1"
           style="fill:#008480;fill-opacity:1;stroke-width:0.998198" /><text
           xml:space="preserve"
           style="font-style:normal;font-variant:normal;font-weight:bold;font-stretch:normal;font-size:9.33333px;font-family:Roboto;-inkscape-font-specification:'Roboto, Bold';font-variant-ligatures:normal;font-variant-caps:normal;font-variant-numeric:normal;font-variant-east-asian:normal;text-align:start;writing-mode:lr-tb;direction:ltr;text-anchor:start;fill:#ffffff;fill-opacity:1;stroke-width:0.0699996"
           x="9.2347298"
           y="18.687464"
           id="text3"><tspan
             id="tspan3"
             x="9.2347298"
             y="18.687464"
             style="font-style:normal;font-variant:normal;font-weight:bold;font-stretch:normal;font-size:9.33333px;font-family:Roboto;-inkscape-font-specification:'Roboto, Bold';font-variant-ligatures:normal;font-variant-caps:normal;font-variant-numeric:normal;font-variant-east-asian:normal;stroke-width:0.0699996">Cognitive Computations</tspan></text><path
           style="fill:#ffffff;fill-opacity:1;stroke-width:0.4899"
           d="m -0.72014481,23.759697 c -0.050088,-0.03791 -0.1011912,-0.0723 -0.1135622,-0.07642 -0.01237,-0.0041 -0.027895,-0.06018 -0.034504,-0.124562 -0.00661,-0.06438 -0.026499,-0.173023 -0.044204,-0.241416 -0.017705,-0.06839 -0.039319,-0.187347 -0.04803,-0.264339 -0.00871,-0.07699 -0.030256,-0.151954 -0.047883,-0.166581 -0.017626,-0.01463 -0.025808,-0.03669 -0.01818,-0.04903 0.021164,-0.03425 -0.063164,-0.08496 -0.1184171,-0.07122 -0.026905,0.0067 -0.069809,0.02641 -0.095339,0.04381 -0.025529,0.0174 -0.06136,0.03164 -0.079624,0.03164 -0.033034,0 -0.1444931,0.113406 -0.144548,0.147075 -1.61e-5,0.0097 -0.016245,0.01765 -0.036066,0.01765 -0.019821,0 -0.04295,0.01853 -0.051397,0.04119 -0.016162,0.04332 -0.096146,0.110273 -0.1361197,0.113928 -0.012943,0.0012 -0.053469,0.01048 -0.090058,0.02066 -0.04219,0.01173 -0.086578,0.0078 -0.1213428,-0.01084 -0.049336,-0.02641 -0.052261,-0.0367 -0.029257,-0.103017 0.032951,-0.09498 0.1334371,-0.265199 0.2830937,-0.479545 l 0.1191221,-0.170613 -0.051706,-0.158869 c -0.05826,-0.179006 -0.061057,-0.21592 -0.02594,-0.342371 0.049766,-0.179209 0.5747919,-0.816604 0.67264204,-0.816604 0.016696,0 0.054501,-0.0328 0.084009,-0.07289 0.074423,-0.10111 0.1659227,-0.144249 0.2660946,-0.125456 0.078913,0.0148 0.081707,0.01285 0.081707,-0.05728 0,-0.08433 0.028934,-0.102734 0.3176811,-0.20213 0.1035409,-0.03564 0.2094347,-0.07429 0.2353196,-0.08589 0.1196061,-0.05358 0.3319464,-0.115284 0.3978444,-0.11561 0.040034,-1.98e-4 0.088679,-0.01063 0.1080925,-0.02317 0.025647,-0.01658 0.00634,-0.0228 -0.070596,-0.02276 -0.2286975,1.03e-4 -0.5423291,0.04889 -0.8118525,0.126295 -0.6047679,0.17368 -0.83414884,0.298575 -1.04717164,0.570176 -0.1698445,0.216548 -0.349795,0.379289 -0.5465188,0.494251 -0.025088,0.01466 -0.07917,0.05837 -0.1201779,0.09714 -0.1721092,0.162685 -0.2994661,0.240951 -0.3920827,0.240951 -0.049701,0 -0.09402,-0.01096 -0.098487,-0.02437 -0.00446,-0.0134 -0.073187,-0.02664 -0.1527117,-0.02942 -0.079524,-0.0028 -0.1403279,0.0018 -0.1351198,0.01021 0.00521,0.0084 -0.019611,0.04572 -0.055154,0.08293 -0.045899,0.04806 -0.113864,0.08023 -0.2345661,0.111004 -0.231198,0.05894 -0.3595259,0.02525 -0.3595259,-0.09441 0,-0.03077 -0.00402,-0.05595 -0.00892,-0.05595 -0.00491,0 -0.068303,0.02718 -0.1408791,0.06041 -0.1238487,0.0567 -0.1796459,0.05962 -0.1796459,0.0094 0,-0.01185 0.02912,-0.03669 0.064713,-0.0552 0.1259808,-0.06552 0.1706067,-0.121254 0.1706067,-0.213068 0,-0.07573 0.019337,-0.10609 0.1487998,-0.233658 0.097987,-0.09655 0.2165153,-0.181543 0.3470962,-0.248893 0.109063,-0.05625 0.2014386,-0.104786 0.2052784,-0.107856 0.00382,-0.0031 -0.024475,-0.09951 -0.062927,-0.214309 -0.038452,-0.1148 -0.082227,-0.270456 -0.097283,-0.345902 -0.0451,-0.226011 -0.053256,-0.132608 -0.01161,0.132975 0.035547,0.226702 0.035645,0.253169 0.00117,0.319816 -0.020664,0.03997 -0.042861,0.07266 -0.049318,0.07266 -0.022648,0 -0.061026,-0.130491 -0.079547,-0.270483 -0.032563,-0.246152 -0.1228087,-0.632259 -0.1689371,-0.722805 -0.024461,-0.04802 -0.044478,-0.09771 -0.044478,-0.110417 0,-0.01271 -0.043321,-0.0952 -0.096267,-0.18331 -0.1296608,-0.21577 -0.1262482,-0.209937 -0.2245383,-0.383753 -0.047574,-0.08413 -0.1210323,-0.2112 -0.1632445,-0.282384 -0.087242,-0.147119 -0.2298464,-0.44879 -0.367088,-0.776555 -0.051483,-0.122954 -0.1182251,-0.271205 -0.1483148,-0.329447 -0.063483,-0.12288 -0.3418684,-0.766686 -0.3418684,-0.790621 0,-0.04064 -0.2187228,-0.266245 -0.2916905,-0.300871 -0.07699,-0.03654 -0.088072,-0.03608 -0.2007786,0.0084 -0.1200118,0.04731 -0.3126361,0.16198 -0.3272268,0.194809 -0.00431,0.0097 -0.022639,0.01765 -0.040725,0.01765 -0.018082,0 -0.090402,0.0368 -0.1607053,0.08177 -0.1680636,0.107509 -0.319235,0.160111 -0.3608593,0.125566 -0.043312,-0.03594 -0.066752,-0.0046 -0.02983,0.03987 0.025416,0.03062 0.021184,0.04642 -0.026062,0.09736 -0.06963,0.07507 -0.7885495,0.429234 -1.0447427,0.514683 -0.3671588,0.122457 -0.8596518,0.102112 -0.9941648,-0.04107 -0.08145,-0.0867 -0.142982,-0.252493 -0.181043,-0.487821 -0.02115,-0.130749 -0.05167,-0.237315 -0.07553,-0.263676 -0.02202,-0.02433 -0.09485,-0.06018 -0.161837,-0.07965 -0.06699,-0.01948 -0.143599,-0.05894 -0.170244,-0.0877 -0.06495,-0.07011 -0.106518,-0.236541 -0.08737,-0.349865 0.02193,-0.129788 -0.02507,-0.189537 -0.198974,-0.252945 -0.213819,-0.07796 -0.239319,-0.137972 -0.196042,-0.461355 0.04997,-0.373396 0.0011,-0.44736 -0.358912,-0.542984 -0.287242,-0.0763 -0.3814514,-0.122557 -0.4813674,-0.236355 -0.154821,-0.176331 -0.182087,-0.381002 -0.05827,-0.437416 0.03166,-0.01442 0.05756,-0.0352 0.05756,-0.04618 0,-0.01098 0.05681,-0.08176 0.1262534,-0.15729 0.231505,-0.25182 0.32978,-0.465102 0.424465,-0.921198 0.09367,-0.451215 0.111779,-0.533629 0.130185,-0.59251 0.03003,-0.09608 -0.106189,-0.49561 -0.178432,-0.523332 -0.01751,-0.0067 -0.03183,-0.02755 -0.03183,-0.04629 0,-0.01875 -0.0093,-0.0376 -0.02059,-0.04192 -0.01133,-0.0043 -0.05413,-0.07459 -0.0951,-0.156182 -0.0542,-0.107899 -0.07389,-0.178466 -0.07224,-0.258852 0.0064,-0.313388 0.0064,-0.383268 -1.51e-4,-0.545853 -0.004,-0.09707 -0.01658,-0.188676 -0.02813,-0.20357 -0.0524,-0.06761 -0.01407,-2.1624953 0.04057,-2.2171333 0.0064,-0.0064 0.04589,0.02091 0.08776,0.06069 0.08275,0.07862 0.312399,0.195132 0.384312,0.194991 0.03343,-6.5e-5 0.0254,-0.01191 -0.03169,-0.04671 -0.0583,-0.03555 -0.07648,-0.06304 -0.07648,-0.115648 0,-0.152019 0.0492,-0.177853 0.183163,-0.09618 0.09912,0.06043 0.115857,0.106853 0.06089,0.168901 -0.04392,0.04959 -0.04386,0.04966 0.02656,0.02973 0.03883,-0.01099 0.11904,-0.02139 0.178251,-0.02312 0.05921,-0.0017 0.120099,-0.01084 0.135308,-0.02024 0.04387,-0.02712 0.03214,-0.117851 -0.01941,-0.150044 -0.03915,-0.02445 -0.04706,-0.05488 -0.04706,-0.181043 0,-0.176657 0.02977,-0.256089 0.109596,-0.292462 0.08632,-0.03933 0.139907,-0.03191 0.210958,0.0292 0.05315,0.04572 0.06462,0.07535 0.06602,0.170606 l 0.0017,0.115274 0.135714,0.07648 c 0.07464,0.04206 0.146121,0.07648 0.15884,0.07648 0.01272,0 0.02313,-0.03191 0.02313,-0.07092 0,-0.039 0.0095,-0.0893 0.021,-0.111777 0.03522,-0.06854 0.07313,-0.317326 0.07313,-0.479972 0,-0.13176 0.0096,-0.167176 0.0669,-0.246251 l 0.0669,-0.09236 -0.05304,-0.0838 c -0.02917,-0.04609 -0.08584,-0.111406 -0.125934,-0.145142 l -0.0729,-0.06133 0.07668,-0.05722 c 0.140151,-0.104585 0.38718,-0.251397 0.423006,-0.251397 0.01943,0 0.09241,-0.03037 0.162181,-0.06749 0.06977,-0.03712 0.2221591,-0.106823 0.3386422,-0.154902 0.116483,-0.04808 0.2465622,-0.102425 0.289065,-0.12077 0.091795,-0.03962 0.099212,-0.04038 0.099212,-0.01016 0,0.01276 -0.046766,0.03497 -0.103922,0.04936 -0.057157,0.01439 -0.1266779,0.04737 -0.15449,0.07328 -0.028532,0.02658 -0.069746,0.0421 -0.094579,0.0356 -0.024784,-0.0065 -0.049495,0.0028 -0.056559,0.02119 -0.00691,0.01799 -0.03276,0.03269 -0.057468,0.03269 -0.024706,0 -0.058104,0.01588 -0.074216,0.0353 -0.016113,0.01941 -0.049935,0.0353 -0.075162,0.0353 -0.03612,0 -0.044312,0.01375 -0.038555,0.06471 0.00522,0.04622 -0.0023,0.06261 -0.026259,0.05736 -0.1504772,-0.03296 -0.1659362,-0.03281 -0.1659362,0.0015 0,0.05456 0.04814,0.08047 0.1764892,0.09501 0.064713,0.0074 0.1050179,0.0081 0.089567,0.0017 -0.043875,-0.01811 -0.00928,-0.07529 0.03806,-0.06291 0.031824,0.0083 0.045702,-0.0063 0.056343,-0.05954 0.0085,-0.0425 0.033225,-0.07664 0.062147,-0.08582 0.026416,-0.0084 0.04803,-0.02512 0.04803,-0.03719 0,-0.01207 0.010258,-0.02195 0.022795,-0.02195 0.012537,0 0.016696,0.01588 0.00925,0.0353 -0.00833,0.02171 4.45e-5,0.0353 0.021751,0.0353 0.038805,0 0.071721,-0.06238 0.050786,-0.09625 -0.00728,-0.01177 -0.00201,-0.02141 0.011689,-0.02141 0.013708,0 0.024921,0.01588 0.024921,0.0353 0,0.04923 0.064782,0.04435 0.077907,-0.0059 0.00662,-0.02534 0.011812,-0.01628 0.013492,0.02353 0.00201,0.04714 0.014981,0.06472 0.047834,0.06472 0.024809,0 0.05001,0.01323 0.056008,0.02942 0.00799,0.02154 0.022457,0.0184 0.054068,-0.01177 0.041671,-0.03976 0.041162,-0.04121 -0.014829,-0.04193 -0.056647,-7.35e-4 -0.056901,-0.0015 -0.010924,-0.03498 0.025887,-0.01883 0.071789,-0.05555 0.1020099,-0.08161 0.057416,-0.04952 0.111319,-0.06442 0.086246,-0.02386 -0.008,0.01294 0.00132,0.02353 0.020752,0.02353 0.019415,0 0.04195,-0.01076 0.050079,-0.02392 0.00813,-0.01316 0.023907,-0.01828 0.035062,-0.01138 0.011155,0.0069 0.026053,0.0032 0.033108,-0.0082 0.024123,-0.03902 0.1346314,0.0025 0.1838286,0.06899 0.03954,0.05349 0.057614,0.06191 0.092586,0.0432 0.023902,-0.01279 0.043454,-0.01731 0.043454,-0.01006 0,0.0073 0.034415,-0.0051 0.076479,-0.0276 0.042063,-0.02244 0.086186,-0.04125 0.09805,-0.04178 0.011865,-5.38e-4 0.026474,-0.0157 0.032466,-0.03368 0.00661,-0.01984 4.487e-4,-0.02623 -0.015687,-0.01626 -0.014624,0.009 -0.026587,0.0052 -0.026587,-0.0085 0,-0.01371 -0.02912,-0.02576 -0.064713,-0.02678 -0.035591,-0.001 -0.051741,-0.0071 -0.035885,-0.01353 0.015853,-0.0064 0.032,-0.0082 0.035876,-0.004 0.00387,0.0042 0.022673,-0.0059 0.041769,-0.02257 0.019096,-0.01662 0.055899,-0.04541 0.081783,-0.06396 0.046389,-0.03327 0.046305,-0.03376 -0.00588,-0.03449 -0.031045,-4.38e-4 -0.052947,-0.01535 -0.052947,-0.03604 0,-0.04404 0.075597,-0.04514 0.197072,-0.0029 0.052358,0.01823 0.07991,0.03871 0.064713,0.0481 -0.014555,0.009 -0.026464,0.02632 -0.026464,0.0385 0,0.02958 0.087459,0.02844 0.1058933,-0.0013 0.008,-0.01294 0.037746,-0.02357 0.066102,-0.02363 0.028355,-5.4e-5 0.1036526,-0.02652 0.1673235,-0.05883 0.06367,-0.03231 0.1404435,-0.05873 0.1706061,-0.05873 0.030163,0 0.054842,-0.01059 0.054842,-0.02353 0,-0.01294 0.017034,-0.02353 0.037849,-0.02353 0.02862,0 0.034249,0.01433 0.023085,0.05883 -0.00812,0.03236 -0.0052,0.05883 0.00647,0.05883 0.011679,0 0.026851,-0.02148 0.03372,-0.04774 0.00687,-0.02626 0.02134,-0.04618 0.032162,-0.04428 0.050557,0.0089 0.078506,-0.0053 0.078506,-0.03993 0,-0.02539 0.012688,-0.03295 0.038614,-0.02299 0.021237,0.0082 0.060947,3.68e-4 0.088245,-0.0173 0.027297,-0.01766 0.078572,-0.03924 0.1139444,-0.04795 0.05916,-0.01457 0.063698,-0.02382 0.056635,-0.1155 -0.00421,-0.05482 0.00201,-0.11223 0.013815,-0.127592 0.016127,-0.02096 -0.00535,-0.02498 -0.08605,-0.0161 -0.059148,0.0065 -0.1066458,0.0032 -0.1055499,-0.0074 0.00108,-0.01056 0.04125,-0.05285 0.089234,-0.09398 0.071709,-0.06148 0.1142975,-0.07741 0.2392103,-0.08948 0.096754,-0.0094 0.1763341,-0.03223 0.2190299,-0.062958 0.065581,-0.047205 0.068817,-0.047324 0.1465874,-0.00547 l 0.079526,0.042825 0.081424,-0.078918 0.081424,-0.078918 0.073831,0.073833 c 0.042126,0.042128 0.098316,0.073833 0.1308509,0.073833 0.031363,0 0.05702,0.01033 0.05702,0.02294 0,0.01262 0.050299,0.04458 0.1117771,0.07104 0.2699756,0.116154 0.4529899,0.234477 0.4529899,0.292867 0,0.01411 0.021198,0.06522 0.047109,0.113558 0.025911,0.04834 0.037786,0.0879 0.026396,0.0879 -0.011395,0 -0.031642,0.04305 -0.045002,0.09567 -0.020738,0.0817 -0.018577,0.09782 0.014785,0.110319 0.021487,0.0081 0.050347,0.02967 0.06413,0.04804 0.020644,0.02751 0.032407,0.02218 0.066784,-0.03029 0.034788,-0.0531 0.054095,-0.06162 0.1161337,-0.05126 0.1618179,0.02701 0.2179663,0.04738 0.2744293,0.09959 0.096105,0.08885 0.1759487,0.10886 0.2770029,0.06942 0.04826,-0.01883 0.1301003,-0.04442 0.1818705,-0.05684 0.05177,-0.01243 0.1176539,-0.02976 0.1464081,-0.03853 0.041225,-0.01256 0.058002,-0.0034 0.079339,0.04345 0.022854,0.05016 0.047643,0.0616 0.159507,0.07359 0.072847,0.0078 0.218689,0.0132 0.3240939,0.01199 0.1115414,-0.0013 0.1980632,0.0082 0.2069995,0.02264 0.00964,0.01559 0.066269,0.01952 0.1522001,0.01054 0.090589,-0.0095 0.14239144,-0.0053 0.15325154,0.01225 0.00902,0.0146 0.035316,0.02654 0.058433,0.02654 0.053869,0 0.1117722,0.06442 0.1324773,0.147375 0.00893,0.03576 0.029546,0.07282 0.04583,0.08236 0.016284,0.0095 0.034347,0.07559 0.040142,0.146774 0.0085,0.104439 0.025019,0.145229 0.085549,0.211282 0.041259,0.04502 0.080968,0.100614 0.088245,0.123542 0.00789,0.02485 0.03636,0.04168 0.070475,0.04168 0.036537,0 0.057244,0.01348 0.057244,0.03726 0,0.02049 0.013237,0.03281 0.029413,0.02737 0.032941,-0.01107 0.088245,0.101731 0.088245,0.179998 0,0.06225 0.1074601,0.110102 0.1838139,0.08186 0.067006,-0.02479 0.065116,-0.04178 -0.017299,-0.155554 -0.064372,-0.08886 -0.066444,-0.09835 -0.032172,-0.147283 0.021747,-0.03105 0.027493,-0.05844 0.014139,-0.06739 -0.050006,-0.03354 -0.051071,-0.102956 -0.00309,-0.201706 0.037434,-0.07705 0.0726229991,-0.112082 0.1386246,-0.138008 0.061426,-0.02412 0.095959,-0.02725 0.1130106,-0.01019 0.017053,0.01705 0.035331,0.01561 0.059819,-0.0047 0.019395,-0.01609 0.045556,-0.02291 0.058137,-0.01514 0.01258,0.0078 0.068638,-0.01656 0.1245733,-0.05409 0.080584,-0.05406 0.1234925,-0.06693 0.2066486,-0.06202 0.057721,0.0034 0.1083904,0.01654 0.1125977,0.02916 0.00874,0.02624 0.1236679,0.01019 0.1236679,-0.01727 0,-0.0099 0.018533,-0.02371 0.041181,-0.03065 0.022648,-0.007 0.076633,-0.02361 0.11996426,-0.03706 0.076922,-0.02388 0.078427,-0.02303 0.0637,0.03564 -0.00832,0.03317 -0.00318,0.07444 0.011488,0.09211 0.014614,0.01761 0.019954,0.04272 0.011865,0.05581 -0.00809,0.01308 -0.00771,0.07652 8.316e-4,0.140961 0.012649,0.09536 0.024818,0.118499 0.065385,0.124313 0.027983,0.004 0.053529,0.02778 0.05825,0.05421 0.012453,0.06971 0.046021,0.09666 0.079142,0.06354 0.01553,-0.01553 0.052272,-0.02824 0.081646,-0.02824 0.029375,0 0.091591,-0.02145 0.1382601,-0.04766 l 0.084852,-0.04766 -0.015128,0.04766 c -0.016647,0.05245 0.012488,0.06142 0.080758,0.02489 0.031486,-0.01685 0.051715,-0.01226 0.077766,0.01765 0.035562,0.04083 0.036297,0.105544 0.00352,0.311041 -0.018714,0.117326 -0.020096,0.18997 -0.00984,0.517703 0.00772,0.246918 -0.010523,0.379706 -0.065223,0.474589 -0.035268,0.06118 -0.033686,0.06519 0.061944,0.15707 0.053976,0.05186 0.1190178,0.143003 0.1445387,0.20254 0.046193,0.1077587 0.046193,0.1084607 -7.75e-5,0.1547277 -0.031006,0.03101 -0.078255,0.04648 -0.1419328,0.04648 -0.076971,0 -0.1085109,0.0143 -0.16288,0.07382 -0.058772,0.06435 -0.069523,0.099 -0.083768,0.2700106 -0.020674,0.248208 -0.00196,0.351471 0.072585,0.400309 0.031751,0.02081 0.05773,0.0525 0.05773,0.07042 0,0.01792 0.02155,0.03259 0.047892,0.03259 0.026342,0 0.074325,0.01731 0.1066321,0.03848 0.043856,0.02873 0.088856,0.03492 0.1775996,0.02441 0.09458,-0.0112 0.1412965,-0.0033 0.2286981,0.03852 0.060412,0.02892 0.1548437,0.06729 0.2098496,0.08525 0.055006,0.01796 0.1000107,0.04118 0.1000107,0.05159 0,0.03772 0.095553,0.07223 0.1272123,0.04596 0.016539,-0.01373 0.037791,-0.01724 0.047221,-0.0078 0.00943,0.0094 0.03493,0.01728 0.056665,0.01745 0.040667,3.08e-4 0.043292,0.01638 0.014687,0.08991 -0.013835,0.03557 -0.00596,0.04136 0.048025,0.0353 0.067722,-0.0076 0.074808,1.1e-5 0.1402854,0.150767 0.03152,0.07257 0.032852,0.09582 0.00784,0.136841 -0.026318,0.04317 -0.023211,0.05509 0.024549,0.09424 0.087074,0.07138 0.059762,0.137703 -0.078209,0.189925 -0.1485784,0.05623 -0.1486548,0.05623 -0.1807712,-0.01426 -0.014741,-0.03236 -0.045164,-0.05883 -0.0676,-0.05883 -0.034572,0 -0.042371,0.02961 -0.051132,0.194138 -0.00812,0.152575 -0.00284,0.200302 0.024681,0.222927 0.030011,0.02467 0.021908,0.0408 -0.056645,0.112749 -0.050415,0.04617 -0.1129425,0.08818 -0.1389503,0.09333 -0.026009,0.0051 -0.079055,0.01586 -0.1178827,0.0238 -0.038829,0.0079 -0.1288373,0.01747 -0.2000213,0.02119 -0.071184,0.0037 -0.1681606,0.02407 -0.2155026,0.04523 -0.07404,0.03311 -0.088407,0.05255 -0.1027438,0.139086 -0.00917,0.05533 -0.026842,0.119964 -0.03928,0.143629 -0.015795,0.03005 -0.010993,0.07208 0.015932,0.139359 0.036958,0.09237 0.036547,0.09903 -0.00995,0.161925 -0.038692,0.05234 -0.048867,0.102643 -0.050352,0.248917 -0.00103,0.100829 -0.00727,0.169874 -0.013889,0.153433 -0.015608,-0.03879 -0.1019153,0.06772 -0.1019153,0.125771 0,0.02276 0.00665,0.03475 0.014771,0.02662 0.020262,-0.02026 0.1046922,0.149695 0.087878,0.1769 -0.00741,0.012 -0.037463,-6.86e-4 -0.066764,-0.02823 -0.045081,-0.04235 -0.070947,-0.04775 -0.1681239,-0.03511 l -0.1148468,0.01494 -0.054666,-0.120818 c -0.039696,-0.08774 -0.076606,-0.131281 -0.1347941,-0.159029 -0.075209,-0.03586 -0.083049,-0.03557 -0.1277066,0.0048 -0.085144,0.07706 -0.044625,0.30038 0.07236,0.398815 0.08057,0.0678 0.1197321,0.174074 0.1001758,0.271856 -0.011141,0.0557 -0.028003,0.06818 -0.1097176,0.08125 -0.082255,0.01316 -0.11063016,0.0055 -0.19158326,-0.05135 -0.1120852,-0.07878 -0.2476111,-0.321893 -0.2038401,-0.365663 0.014398,-0.0144 0.026176,-0.03994 0.026176,-0.05677 0,-0.05233 -0.076839,-0.03368 -0.1518376,0.03685 -0.088922,0.08362 -0.2084422,0.127635 -0.2456237,0.09045 -0.019131,-0.01913 -0.033666,-0.01856 -0.054352,0.0021 -0.040285,0.04028 -0.1145799,0.03632 -0.098624,-0.0052 0.00712,-0.01857 -0.00675,-0.04398 -0.031128,-0.05703 -0.025519,-0.01366 -0.056829,-0.07367 -0.074596,-0.142996 -0.018826,-0.07346 -0.043542,-0.119459 -0.064188,-0.119459 -0.023849,0 -0.029394,0.01665 -0.01915,0.05746 0.010856,0.04324 -0.00504,0.08168 -0.064264,0.155378 -0.044679,0.0556 -0.079958,0.12738 -0.081628,0.166091 -0.00162,0.03749 -0.00426,0.08356 -0.00588,0.10237 -0.00162,0.0188 -0.041494,0.05249 -0.088619,0.07485 -0.047123,0.02236 -0.090623,0.05957 -0.096669,0.08269 -0.00604,0.02312 -0.02838,0.04793 -0.049632,0.05516 -0.021252,0.0072 -0.074292,0.06052 -0.1178671,0.118439 -0.052895,0.07031 -0.096909,0.105314 -0.1324273,0.105314 -0.099801,0 -0.1105514,0.04561 -0.067721,0.287336 0.034915,0.197064 0.031055,0.37817 -0.00725,0.339869 -0.00754,-0.0075 -0.035856,0.0018 -0.062921,0.02076 -0.073023,0.05115 -0.1256658,0.04256 -0.23927694,-0.03903 -0.091409,-0.06564 -0.1137749,-0.07178 -0.2093887,-0.05745 -0.070541,0.01057 -0.1192103,0.03342 -0.1427094,0.06697 -0.048147,0.06874 -0.045453,0.134547 0.00552,0.134656 0.022648,4.8e-5 0.075587,0.02107 0.1176388,0.04671 0.062821,0.0383 0.1012432,0.04403 0.2154169,0.03209 0.16077674,-0.01681 0.26112644,0.0021 0.26112644,0.04903 0,0.01809 0.00891,0.03642 0.019802,0.04073 0.01089,0.0043 0.026591,0.04266 0.03489,0.08522 0.011616,0.05957 0.00615,0.08081 -0.02376,0.09228 -0.021365,0.0082 -0.1043311,0.08072 -0.184369,0.161147 -0.17614554,0.177016 -0.19484694,0.240683 -0.12529874,0.426566 0.047295,0.126406 0.047692,0.134353 0.00812,0.163289 -0.034959,0.02557 -0.039133,0.05216 -0.026165,0.166711 0.00849,0.07496 0.031084,0.188275 0.050215,0.251809 0.048304,0.160433 0.045546,0.171376 -0.047579,0.188847 -0.045301,0.0085 -0.082362,0.02556 -0.082362,0.03791 0,0.03194 0.1028295,0.02789 0.1360927,-0.0054 0.033249,-0.03325 0.026837,-0.0415 0.10399504,0.133741 0.03419,0.07766 0.1204929,0.271593 0.1917772,0.430973 0.071285,0.159379 0.1136406,0.276529 0.094124,0.260331 -0.083972,-0.06969 0.078657,0.221402 0.3434346,0.614719 0.085282,0.126683 0.1190349,0.199733 0.1196042,0.258851 8.791e-4,0.09182 0.046643,0.136593 0.1937368,0.189566 0.083061,0.02991 0.090774,0.02867 0.124877,-0.02001 0.035777,-0.05108 0.1042753,-0.07161 0.1042753,-0.03125 0,0.01136 -0.015883,0.03384 -0.035297,0.04995 -0.049529,0.04111 -0.043954,0.09413 0.0099,0.09413 0.031074,0 0.050035,-0.02204 0.060689,-0.07055 0.013282,-0.06046 0.00431,-0.07981 -0.062728,-0.135309 -0.1517824,-0.125652 -0.2784877,-0.247489 -0.2784877,-0.267785 0,-0.01129 0.042778,-0.02054 0.095066,-0.02054 0.1021775,0 0.2314998,0.05666 0.3965834,0.173761 0.113719,0.08066 0.4025655,0.448508 0.4025655,0.512663 0,0.05019 0.087263,0.113662 0.1562689,0.113662 0.0284189,0 0.0710669,0.0079 0.094775,0.01765 0.029438,0.01206 0.00206,0.02138 -0.08632,0.02942 -0.12330291,0.01121 -0.12979021,0.0151 -0.13713031,0.08236 -0.011092,0.10165 -0.1086143,0.192313 -0.2442549,0.227076 -0.067812,0.01738 -0.1263722,0.04849 -0.1403148,0.07455 -0.021247,0.0397 -0.042827,0.04316 -0.1923391,0.03091 -0.092625,-0.0076 -0.2319452,-0.0048 -0.3096006,0.0061 -0.081846,0.01156 -0.110427,0.02123 -0.067998,0.02302 0.145899,0.0062 0.2915507,0.03349 0.2915507,0.05474 0,0.01195 -0.00838,0.01655 -0.018626,0.01021 -0.016945,-0.01047 -0.3981854,0.0381 -0.5108428,0.0651 -0.025887,0.0062 -0.1291318,0.02941 -0.2294369,0.05157 -0.1003046,0.02216 -0.1823727,0.05044 -0.1823727,0.06283 0,0.01239 0.01602,0.01639 0.035596,0.0089 0.091814,-0.03524 0.4746133,-0.06043 1.0115785,-0.0666 0.5167143,-0.0059 0.629818,-2.7e-4 0.92951191,0.04653 0.5211194,0.08138 0.8474991,0.144299 0.9699011,0.186978 0.1052394,0.03669 0.1134623,0.03646 0.1588408,-0.0046 0.026322,-0.02382 0.047853,-0.05755 0.047853,-0.07496 0,-0.01741 0.00893,-0.03165 0.019836,-0.03165 0.01091,0 0.038036,-0.103247 0.060278,-0.229437 0.022242,-0.126191 0.061166,-0.275132 0.086497,-0.330983 0.025333,-0.05585 0.040544,-0.110464 0.033808,-0.121366 -0.00673,-0.0109 -0.073119,-0.03785 -0.1475149,-0.0599 -0.074396,-0.02204 -0.1703901,-0.05055 -0.2133205,-0.06335 -0.1593988,-0.04752 -0.047226,-0.04506 0.1596398,0.0036 0.2190916,0.05143 0.2596289,0.04928 0.2596289,-0.0138 0,-0.05006 0.1575768,-0.2114 0.2396792,-0.245408 0.05649,-0.0234 0.083573,-0.02106 0.1611952,0.01395 0.051313,0.02313 0.093297,0.04922 0.093297,0.05795 0,0.0087 0.02912,0.01162 0.064713,0.0064 0.042617,-0.0063 0.095201,0.01121 0.154003,0.05114 0.049109,0.03334 0.099974,0.06062 0.1130337,0.06062 0.042861,0 0.1859519,0.128574 0.1859529,0.167089 5e-7,0.02071 0.052948,0.07058 0.1176603,0.110804 0.086377,0.05369 0.1176598,0.08766 0.1176598,0.127749 0,0.03003 0.020072,0.06907 0.044605,0.08676 0.042636,0.03073 0.044762,0.08218 0.048172,1.165216 0.00196,0.623187 -0.00338,1.151115 -0.011827,1.173175 -0.00847,0.02206 -0.029492,0.04011 -0.046726,0.04011 -0.019115,0 -0.037551,0.04142 -0.047261,0.106182 -0.00876,0.0584 -0.024294,0.111359 -0.034528,0.117684 -0.010234,0.0063 -0.012939,0.03318 -0.00601,0.05967 0.00772,0.02953 -0.00574,0.06822 -0.034803,0.09999 -0.026067,0.0285 -0.05501,0.07829 -0.064312,0.110647 -0.0093,0.03235 -0.053877,0.141797 -0.099054,0.243201 -0.048089,0.10794 -0.076865,0.204549 -0.069413,0.233042 0.016235,0.06208 -0.039971,0.171492 -0.1125193,0.219026 -0.030908,0.02025 -0.086279,0.09711 -0.1230531,0.170798 -0.079769,0.159846 -0.2500298,0.328447 -0.3759479,0.372284 -0.1244605,0.04333 -0.155721,0.04107 -0.139496,-0.01004 0.0074,-0.02332 -0.00108,-0.06226 -0.018792,-0.08652 -0.028796,-0.03938 -0.040211,-0.04081 -0.1065616,-0.01333 -0.040872,0.01693 -0.083118,0.04652 -0.093885,0.06576 -0.017063,0.03049 -0.027542,0.02976 -0.081632,-0.0057 -0.068568,-0.04493 -0.1536269,-0.03502 -0.2135309,0.02489 -0.037972,0.03797 -0.084188,0.02752 -0.084188,-0.01904 0,-0.01457 -0.035905,-0.09602 -0.07979,-0.180984 C 2.0992967,23.334364 2.0646607,23.235477 2.0295466,23.06678 l -0.014374,-0.06905 -0.059233,0.104347 c -0.07304,0.128673 -0.1208349,0.17306 -0.1952923,0.181369 -0.031667,0.0036 -0.074025,0.02081 -0.094128,0.0384 -0.051394,0.04495 -0.1424448,0.06997 -0.1424448,0.03913 0,-0.01381 -0.013766,-0.02511 -0.03059,-0.02511 -0.089841,0 -0.080773,-0.09522 0.054902,-0.576533 0.051028,-0.181022 0.060134,-0.379692 0.021252,-0.46365 -0.013771,-0.02972 -0.062053,-0.08053 -0.1072994,-0.112883 -0.045247,-0.03235 -0.097612,-0.07291 -0.1163679,-0.09014 -0.018758,-0.01722 -0.047246,-0.02655 -0.063307,-0.02074 -0.017205,0.0063 -0.00504,0.02198 0.029624,0.03833 0.072638,0.03427 0.1650115,0.171132 0.1638897,0.242818 -4.586e-4,0.0293 -0.01505,0.07893 -0.032422,0.110292 -0.030893,0.05577 -0.031927,0.05594 -0.047143,0.008 -0.00855,-0.02695 -0.03008,-0.06107 -0.047834,-0.0758 -0.052983,-0.04397 -0.2069391,0.194746 -0.2712404,0.420574 -0.049026,0.17218 -0.061331,0.192651 -0.14064501,0.233992 -0.060499,0.03153 -0.1625248,0.05046 -0.3356614,0.06226 l -0.2487176,0.01685 -0.00937,0.165744 c -0.00808,0.142952 -0.017088,0.170904 -0.065517,0.203264 -0.071065,0.04749 -0.3005209,0.09773 -0.4807282,0.105273 -0.1337427,0.0056 -0.1421734,0.0098 -0.2318853,0.116103 -0.1096686,0.129927 -0.1575352,0.136651 -0.2851625,0.04006 z m -0.2598042,-1.894334 c 0.076497,-0.07099 0.1481761,-0.129231 0.1592861,-0.129426 0.011111,-1.94e-4 0.01309,0.02797 0.00441,0.06259 -0.014594,0.05814 -0.012542,0.06038 0.026861,0.02942 0.023466,-0.01844 0.047956,-0.03906 0.054427,-0.04583 0.00647,-0.0067 0.040887,-0.03084 0.076479,-0.05349 0.067467,-0.04294 0.087763,-0.110691 0.033157,-0.110691 -0.1206972,0 -0.46096849,0.184533 -0.52181699,0.282988 -0.014526,0.02351 -9.8e-6,0.09352 0.01939,0.09352 0.0048,0 0.071316,-0.05808 0.14781359,-0.129073 z m 0.7279493,-0.06933 c 0.032045,-0.03458 0.058266,-0.07427 0.058266,-0.0882 0,-0.05517 -0.3119409,0.03873 -0.3576202,0.107649 -0.059271,0.08943 0.2149647,0.07161 0.2993549,-0.01945 z m -2.43612169,0.01303 c 0,-0.01136 -0.015883,-0.03383 -0.035298,-0.04995 -0.028625,-0.02376 -0.035297,-0.02282 -0.035297,0.005 0,0.01884 0.00706,0.04132 0.015687,0.04995 0.022349,0.02235 0.054908,0.0194 0.054908,-0.005 z m 3.47096309,-1.11067 0.1176598,-0.0452 -0.1342649,0.01329 c -0.1053296,0.01042 -0.1579556,0.0028 -0.2441937,-0.03534 -0.065411,-0.02893 -0.1587487,-0.04842 -0.2304803,-0.04811 l -0.1205517,5.39e-4 0.05883,0.04554 c 0.056225,0.04352 0.2890013,0.111606 0.3882771,0.113562 0.025887,4.9e-4 0.1000106,-0.01941 0.1647235,-0.04427 z M -2.5474526,20.440346 c -0.021747,-0.04063 -0.021419,-0.05606 0.00147,-0.0702 0.030991,-0.01916 0.089803,-0.158803 0.1090804,-0.259018 0.0083,-0.04317 -0.00605,-0.07709 -0.052129,-0.123175 -0.034974,-0.03498 -0.0729,-0.05783 -0.08428,-0.0508 -0.030633,0.01893 -0.025118,0.445189 0.00666,0.514938 0.015045,0.03302 0.03179,0.05561 0.037203,0.05019 0.00542,-0.0054 -0.00269,-0.03328 -0.018019,-0.06192 z m 1.1888868,-0.234342 c 0.008,-0.01294 0.00333,-0.02353 -0.010376,-0.02353 -0.013707,0 -0.024921,0.01059 -0.024921,0.02353 0,0.01294 0.00465,0.02353 0.010376,0.02353 0.00571,0 0.016921,-0.01059 0.024921,-0.02353 z m 0.54123469,-0.258849 c 0.008,-0.01294 -0.00132,-0.02353 -0.020752,-0.02353 -0.019415,0 -0.041843,0.01059 -0.049842,0.02353 -0.008,0.01294 0.00132,0.02353 0.020752,0.02353 0.019415,0 0.041842,-0.01059 0.049842,-0.02353 z m 0.176342,-0.803617 c 0.077124,-0.106466 0.086437,-0.137538 0.041328,-0.137892 -0.016176,-1.26e-4 -0.086816,-0.02694 -0.1569718,-0.05961 -0.1259239,-0.05862 -0.1658723,-0.05271 -0.1658723,0.02454 0,0.01294 0.010126,0.0077 0.022501,-0.01177 0.036027,-0.05652 0.1050488,0.0025 0.1128059,0.0965 0.00588,0.07132 0.047687,0.185883 0.067822,0.185883 0.00421,0 0.039476,-0.04394 0.078385,-0.09766 z M -4.6412731,16.946831 c -0.023706,-0.02856 -0.022908,-0.0353 0.00417,-0.0353 0.018411,0 0.046178,0.0127 0.061712,0.02824 0.020821,0.02082 0.028238,0.02108 0.028238,9.51e-4 0,-0.05612 -0.1777337,-0.212622 -0.2706178,-0.238283 -0.1594204,-0.04404 -0.2110588,-0.03361 -0.3032315,0.0613 -0.1293449,0.133167 -0.1221713,0.13967 0.1117967,0.101355 0.1116168,-0.01828 0.1515936,-0.01558 0.209027,0.01412 0.058864,0.03044 0.074676,0.03131 0.092405,0.0051 0.017288,-0.02556 0.020669,-0.02486 0.017622,0.0036 -0.00752,0.07044 0.00255,0.09413 0.039986,0.09413 0.03127,0 0.032877,-0.0064 0.00889,-0.0353 z m -1.9140587,-0.07648 c 0.035762,-0.04854 0.1077786,-0.135961 0.1600382,-0.194281 0.1713371,-0.191207 0.3299368,-0.38048 0.3519059,-0.419965 0.025504,-0.04583 0.1912873,-0.246974 0.3486981,-0.423056 0.061676,-0.06899 0.1121382,-0.138803 0.1121382,-0.155136 0,-0.01633 -0.036973,-0.0496 -0.082162,-0.07394 -0.077755,-0.04187 -0.084335,-0.04207 -0.1227024,-0.0037 -0.025225,0.02523 -0.029747,0.04054 -0.011968,0.04054 0.095672,0 -0.058506,0.242229 -0.3979056,0.625148 -0.2987626,0.337073 -0.500187,0.61192 -0.4824066,0.658255 0.021139,0.05509 0.054838,0.0405 0.1243621,-0.05386 z m -0.024368,-0.366154 c 0.2098821,-0.223183 0.5732811,-0.650181 0.514496,-0.604539 -0.074509,0.05785 -0.2265959,0.213948 -0.3644979,0.37411 -0.071184,0.08268 -0.180364,0.201243 -0.242622,0.263483 -0.1048038,0.104776 -0.1231217,0.113792 -0.2470855,0.121614 l -0.1338892,0.0085 0.1559176,0.0044 0.1559175,0.0044 z m 0.9268899,-0.0054 c 0.012488,-0.03284 0.049289,-0.09884 0.08178,-0.146654 0.062301,-0.09168 0.072185,-0.123075 0.038752,-0.123075 -0.03252,0 -0.1480082,0.124375 -0.1706547,0.183789 -0.011395,0.0299 -0.03133,0.04781 -0.044296,0.03979 -0.030252,-0.01869 -0.029967,0.0029 7.838e-4,0.06035 0.033264,0.06216 0.066525,0.05711 0.093638,-0.0142 z m -1.1544327,-0.159254 c 0.056521,-0.07352 0.056592,-0.07413 0.00323,-0.02811 -0.049038,0.04229 -0.087758,0.04697 -0.3813646,0.04622 -0.2510121,-6.37e-4 -0.3267844,0.0062 -0.3267844,0.02942 0,0.02325 0.074937,0.02995 0.3235643,0.02896 l 0.3235643,-0.0013 z m 1.0525105,0.0263 c -0.00751,-0.01877 -0.01309,-0.0132 -0.014217,0.01422 -0.00103,0.02481 0.00455,0.03871 0.01236,0.03089 0.00782,-0.0078 0.00866,-0.02812 0.00186,-0.04511 z m 4.1936687,-0.09995 c 0.019263,-0.0119 0.014354,-0.144557 -0.011611,-0.313982 -0.0065,-0.04242 -0.021492,-0.07116 -0.033308,-0.06385 -0.011816,0.0073 -0.044027,-0.0093 -0.071582,-0.03682 -0.035591,-0.03559 -0.045257,-0.0648 -0.033382,-0.100868 0.030374,-0.09224 0.025524,-0.192508 -0.00896,-0.185255 -0.017538,0.0036 -0.04657,-0.0055 -0.064511,-0.02036 -0.027091,-0.02248 -0.030815,-0.01165 -0.021987,0.06388 0.035067,0.300056 0.1108776,0.634093 0.1536047,0.67682 0.012987,0.01299 0.024569,0.05062 0.025739,0.08362 0.00196,0.05484 0.00402,0.05353 0.023902,-0.01532 0.011983,-0.04142 0.030922,-0.08097 0.042092,-0.08787 z m -6.3424512,0.07495 c 0.02188,-0.08164 0.01762,-0.111777 -0.01581,-0.111777 -0.01888,0 -0.03153,0.03161 -0.03297,0.08236 -0.0026,0.09243 0.02708,0.110347 0.04877,0.02942 z m 1.0817302,-0.168956 c 0.091472,-0.102974 0.134944,-0.29072 0.090397,-0.390404 -0.023031,-0.05153 -0.085682,-0.04316 -0.091714,0.01226 -0.00865,0.07947 -0.064622,0.262203 -0.090897,0.296748 -0.013678,0.01799 -0.026641,0.06143 -0.028801,0.09654 -0.00318,0.05148 0.00397,0.06091 0.036914,0.04869 0.022467,-0.0083 0.060312,-0.03706 0.084104,-0.06385 z m -0.5606597,-0.01373 c 0.028096,-0.03105 0.058824,-0.04234 0.089065,-0.03274 0.107221,0.03403 0.1882074,0.02398 0.2422521,-0.03007 0.029987,-0.02999 0.070227,-0.05452 0.089425,-0.05452 0.020399,0 0.033431,-0.01956 0.031359,-0.04706 -0.00196,-0.02588 -0.0059,-0.04706 -0.00877,-0.04706 -0.00289,0 -0.032388,0.01033 -0.065589,0.02295 -0.06547,0.02489 -0.085146,-0.01228 -0.03372,-0.06371 0.014653,-0.01465 0.026092,-0.08807 0.025416,-0.163137 -0.00112,-0.125715 -0.00786,-0.14257 -0.085126,-0.213385 -0.1117432,-0.102405 -0.1960545,-0.101764 -0.306428,0.0024 -0.046197,0.04357 -0.090634,0.112401 -0.098745,0.152957 -0.016848,0.08424 -0.027405,0.08956 -0.067886,0.0342 -0.02676,-0.0366 -0.03071,-0.03616 -0.05311,0.0059 -0.02484,0.04663 -0.03853,0.161716 -0.03248,0.273054 0.0046,0.08359 0.1111224,0.207709 0.1783554,0.207709 0.029198,0 0.072393,-0.02133 0.095984,-0.0474 z m -0.6861645,-0.175034 c 0.03425,-0.03174 0.06227,-0.07245 0.06227,-0.09048 0,-0.05147 -0.08579,-0.116486 -0.133622,-0.10128 -0.04072,0.01294 -0.172293,0.122613 -0.172293,0.143609 0,0.02583 0.107497,0.105858 0.142192,0.105858 0.02156,0 0.06721,-0.02597 0.101457,-0.05771 z m 2.1354882,-0.207028 0.052678,-0.07648 -0.074608,0.06911 c -0.080449,0.07453 -0.086302,0.08384 -0.052678,0.08384 0.012061,0 0.045634,-0.03441 0.074608,-0.07648 z m -1.8890022,-0.149396 c 0.127372,-0.136554 0.202784,-0.255813 0.182507,-0.288621 -0.0064,-0.01042 -0.05396,-0.0206 -0.105592,-0.02262 -0.07726,-0.003 -0.105569,0.0091 -0.15986,0.06849 -0.03629,0.03969 -0.0898,0.0964 -0.118924,0.126022 -0.06434,0.06545 -0.07674,0.156332 -0.01426,0.10447 0.03445,-0.02859 0.03682,-0.0262 0.02159,0.02178 -0.01599,0.05038 0.01671,0.122229 0.05563,0.122229 0.0088,0 0.07132,-0.05928 0.138907,-0.131748 z m 2.4808809,-0.02319 c 0.3145178,-0.149983 0.1825509,-0.634091 -0.1531457,-0.5618 -0.1962603,0.04226 -0.268308,0.140062 -0.2463967,0.33446 0.01673,0.148437 0.1218156,0.242276 0.2927437,0.261418 0.015741,0.0017 0.063799,-0.01357 0.1067987,-0.03408 z m 1.4059274,0.01514 c 0,-0.01218 -0.010469,-0.02862 -0.023271,-0.03653 -0.014388,-0.0089 -0.00982,-0.0349 0.011964,-0.06815 0.031853,-0.04861 0.031182,-0.05744 -0.00701,-0.092 -0.085742,-0.0776 -0.2118744,-0.11062 -0.4221567,-0.110531 -0.2195737,9.4e-5 -0.359618,0.05079 -0.359618,0.130193 0,0.05663 0.1516859,0.107359 0.3878421,0.129701 0.1177451,0.01114 0.2401368,0.03066 0.2719823,0.04336 0.075301,0.03006 0.1402618,0.03189 0.1402618,0.004 z m -0.564767,-0.166111 c 0,-0.01294 0.00996,-0.02353 0.022143,-0.02353 0.012179,0 0.028689,0.01059 0.036688,0.02353 0.008,0.01294 -0.00196,0.02353 -0.022144,0.02353 -0.020179,0 -0.036688,-0.01059 -0.036688,-0.02353 z m 2.4192966,-0.282062 c 0.029884,-1.76e-4 0.04875,-0.0094 0.041921,-0.02041 -0.015682,-0.02537 -0.3718561,-0.05616 -0.4229446,-0.03654 -0.075106,0.02882 -0.03569,0.05444 0.097251,0.06321 0.07442,0.0049 0.1564878,0.0056 0.1823726,0.0015 0.025886,-0.004 0.071515,-0.0076 0.1014,-0.0078 z m 0.3398246,-0.01576 c 0.035591,-0.0065 0.064713,-0.02157 0.064713,-0.03349 0,-0.03174 -0.1634635,-0.0231 -0.2588515,0.01367 l -0.082362,0.03175 0.1058934,-4.9e-5 c 0.058242,-2.7e-5 0.135015,-0.0054 0.1706067,-0.01187 z M -7.2202034,15.0144 c 0.022036,-0.05742 -0.038653,-0.160973 -0.09941,-0.16962 -0.062295,-0.0089 -0.1690259,0.05309 -0.1690259,0.09812 0,0.03315 0.1222228,0.09532 0.2035628,0.103559 0.028106,0.0029 0.056948,-0.01141 0.064873,-0.03206 z m 2.2671321,-0.06187 c 0.068195,-0.06366 0.072774,-0.237621 0.00846,-0.321278 -0.036292,-0.0472 -0.056409,-0.05391 -0.1221684,-0.04077 -0.105792,0.02116 -0.2098521,0.123679 -0.2098521,0.206748 0,0.03983 0.029081,0.0985 0.074429,0.150143 0.061155,0.06965 0.085286,0.08208 0.1353084,0.06967 0.033485,-0.0083 0.084706,-0.03734 0.1138273,-0.06452 z m -0.4929948,-0.02239 c 0.039427,-0.03943 0.03519,-0.113331 -0.00932,-0.162514 -0.030902,-0.03414 -0.047834,-0.03681 -0.095566,-0.01507 -0.047035,0.02143 -0.055154,0.0378 -0.042915,0.08658 0.027983,0.111489 0.08946,0.149342 0.147798,0.091 z m 1.9518152,-0.590631 c -0.00436,-0.106142 -0.00789,-0.01297 -0.00786,0.20706 2.75e-5,0.220023 0.00358,0.306866 0.00791,0.192983 0.00431,-0.113883 0.00431,-0.293903 -5e-5,-0.400043 z m -4.8838837,0.1857 c -0.0074,-0.06355 -3.35e-4,-0.082 0.03414,-0.08894 0.03719,-0.0074 0.03807,-0.0109 0.0061,-0.02352 -0.05621,-0.02219 -0.09788,0.01474 -0.09788,0.08676 0,0.04966 0.0274,0.09356 0.06587,0.105533 6.37e-4,1.99e-4 -0.003,-0.03572 -0.0082,-0.07983 z m 0.106567,0.06598 c -0.0078,-0.0078 -0.02811,-0.0087 -0.0451,-0.0019 -0.01877,0.0075 -0.0132,0.01309 0.01422,0.01422 0.02481,10e-4 0.03871,-0.0046 0.03089,-0.01236 z m 1.8080781,-0.125145 c 0.070242,-0.06168 0.074416,-0.07199 0.040476,-0.10001 -0.020816,-0.01719 -0.057268,-0.06301 -0.081008,-0.101842 -0.039555,-0.06469 -0.04317,-0.06617 -0.043249,-0.01765 -4.8e-5,0.02912 6.369e-4,0.05559 0.00157,0.05883 9.346e-4,0.0032 -0.00995,0.0364 -0.024132,0.07371 -0.023888,0.06283 -0.014898,0.155732 0.015074,0.155732 0.00713,0 0.048201,-0.03094 0.091276,-0.06876 z m 5.59778239,2.93e-4 c 0.018792,-0.03041 -0.011164,-0.09859 -0.036453,-0.08296 -0.028023,0.01731 -0.02712,0.10437 0.00108,0.10437 0.012179,0 0.028096,-0.0096 0.035376,-0.02141 z m -0.098085,-0.120278 c 0.020997,-0.156565 -0.00768,-0.218778 -0.11227139,-0.243512 -0.084577,-0.02 -0.095515,-0.01633 -0.1572853,0.0528 -0.091978,0.102941 -0.092768,0.224724 -0.00167,0.257994 0.035591,0.013 0.1083233,0.02447 0.1616254,0.0255 0.095753,0.0018 0.097064,7.35e-4 0.10960529,-0.09278 z m -6.12206079,-0.06293 c 0.051935,-0.03437 0.091384,-0.07944 0.091384,-0.104412 0,-0.02416 0.011214,-0.04394 0.024921,-0.04394 0.013708,0 0.018827,0.0099 0.011381,0.02191 -0.00745,0.01205 -0.00309,0.02836 0.00968,0.03626 0.012777,0.0079 0.030085,-0.01297 0.038467,-0.04637 0.00838,-0.0334 0.053697,-0.08936 0.1007009,-0.124372 0.047001,-0.03501 0.09194,-0.07256 0.099858,-0.08345 0.00792,-0.01088 0.021154,-0.01889 0.029414,-0.01778 0.044581,0.0059 0.062081,-5.39e-4 0.062081,-0.02311 0,-0.01499 -0.020395,-0.01864 -0.050623,-0.009 -0.041034,0.01302 -0.047721,0.0085 -0.035298,-0.02387 0.00843,-0.02196 0.015324,-0.05496 0.015324,-0.07331 0,-0.01836 0.01651,-0.03338 0.036688,-0.03338 0.020179,0 0.030144,-0.01059 0.022144,-0.02353 -0.008,-0.01294 -0.034896,-0.02353 -0.05977,-0.02353 -0.063006,0 -0.091682,-0.115227 -0.03638,-0.146178 0.030849,-0.01727 0.033808,-0.02972 0.013011,-0.05478 -0.028135,-0.0339 -0.011258,-0.165338 0.024029,-0.187147 0.010798,-0.0067 2.715e-4,-0.0518 -0.023392,-0.10028 -0.037414,-0.07665 -0.038403,-0.08982 -0.00761,-0.100948 0.027763,-0.01003 0.022256,-0.02268 -0.025484,-0.05853 -0.033495,-0.02516 -0.060898,-0.06915 -0.060898,-0.09778 0,-0.136231 -0.3152042,-0.233104 -0.4567343,-0.140369 -0.07504,0.04917 -0.078664,0.0864 -0.00802,0.08242 0.1477059,-0.0083 0.2762521,0.128653 0.2764128,0.29453 1.196e-4,0.123756 -0.1348072,0.259199 -0.2815964,0.282671 -0.1210137,0.01935 -0.1869312,-0.01598 -0.243328,-0.130441 -0.048716,-0.09886 -0.053374,-0.02723 -0.00566,0.08697 0.030393,0.07274 0.043817,0.08163 0.1235425,0.08187 0.1249407,3.61e-4 0.2659354,0.02584 0.2659354,0.04806 0,0.01024 -0.036297,0.03061 -0.08066,0.04525 l -0.08066,0.02662 0.04536,0.131846 c 0.055852,0.162339 0.055877,0.1918 2.141e-4,0.264219 -0.024255,0.03156 -0.038771,0.07127 -0.032255,0.08825 0.00764,0.0199 -0.0072,0.03086 -0.041769,0.03086 -0.029487,0 -0.073356,0.01787 -0.097488,0.03971 -0.042621,0.03857 -0.042254,0.0411 0.012894,0.08825 0.083419,0.07132 0.2135592,0.07006 0.3241713,-0.0032 z m 0.900063,0.01467 c 0.080812,-0.06357 0.081221,-0.160097 0.00108,-0.255338 -0.075697,-0.08996 -0.154246,-0.09368 -0.219754,-0.0104 -0.080395,0.102205 -0.053972,0.2478 0.052777,0.290811 0.077473,0.03121 0.098344,0.02806 0.1658948,-0.02508 z m 2.3452226,-0.344412 c 0.1439689,-0.07134 0.220214,-0.136657 0.4451512,-0.381333 0.09628,-0.104727 0.1267072,-0.220247 0.072334,-0.27462 -0.015129,-0.01513 -0.015172,-0.07173 -1.362e-4,-0.163547 0.012644,-0.07723 0.023054,-0.184545 0.023128,-0.238477 2.66e-4,-0.191365 -0.1435104,-0.415742 -0.257858,-0.402413 -0.037163,0.0043 -0.056209,-0.0072 -0.06096,-0.03686 -0.00944,-0.05899 -0.079848,-0.108148 -0.1561787,-0.10905 -0.034827,-4.12e-4 -0.070532,-0.01241 -0.079342,-0.02667 -0.021233,-0.03435 -0.4969086,-0.0064 -0.6592296,0.03871 -0.1741913,0.04843 -0.3263557,0.174326 -0.4007363,0.331553 -0.05424,0.114656 -0.059928,0.148736 -0.046002,0.275637 0.024054,0.219173 0.056761,0.311015 0.112241,0.315194 0.026082,0.002 0.064768,0.01849 0.085969,0.03673 0.021203,0.01823 0.094142,0.05266 0.1620903,0.07651 0.067949,0.02384 0.1235429,0.05185 0.1235429,0.06224 0,0.01038 0.014295,0.01888 0.031765,0.01888 0.01747,0 0.075714,0.03183 0.1294257,0.07074 0.082389,0.05969 0.097659,0.0836 0.097659,0.152959 0,0.05459 0.011018,0.08221 0.032779,0.08221 0.018028,0 0.038873,0.01588 0.046325,0.0353 0.00745,0.01941 0.029761,0.03529 0.049581,0.03529 0.019821,0 0.033386,0.01324 0.030153,0.02942 -0.00323,0.01617 0.01265,0.02794 0.035297,0.02614 0.022648,-0.0018 0.041181,0.01144 0.041181,0.02942 0,0.03974 -0.1313186,0.04422 -0.2272464,0.0078 -0.036071,-0.01372 -0.1294189,-0.02565 -0.2074365,-0.02651 -0.078018,-8.72e-4 -0.1683233,-0.01467 -0.2006797,-0.03067 -0.032358,-0.016 -0.072067,-0.02436 -0.088245,-0.01859 -0.016176,0.0058 -0.029413,-0.0063 -0.029413,-0.02676 0,-0.02049 -0.010587,-0.03726 -0.02353,-0.03726 -0.012943,0 -0.023529,0.01339 -0.023529,0.02974 0,0.01636 0.055595,0.05445 0.1235425,0.08466 0.067949,0.0302 0.1500162,0.07002 0.1823727,0.08849 0.041779,0.02384 0.1204002,0.0317 0.271237,0.02712 0.1843181,-0.0056 0.2325531,-0.01643 0.3647453,-0.08194 z m -0.094748,-0.512815 c 0,-0.01941 0.010587,-0.0353 0.023529,-0.0353 0.012943,0 0.02353,0.01588 0.02353,0.0353 0,0.01941 -0.010592,0.0353 -0.02353,0.0353 -0.012943,0 -0.023529,-0.01588 -0.023529,-0.0353 z m 3.05316459,0.500054 c -0.00897,-0.02662 -0.053226,-0.0333 -0.26013399,-0.03927 -0.036356,-10e-4 -0.061194,-0.0099 -0.055196,-0.01956 0.006,-0.0097 -0.1548648,-0.01752 -0.3574732,-0.01737 -0.2754635,2.09e-4 -0.3832185,0.0088 -0.4272096,0.03386 l -0.05883,0.03357 0.05883,0.01674 c 0.032358,0.0092 0.295326,0.01781 0.5843768,0.0191 0.41085079,0.0018 0.52338379,-0.004 0.51563599,-0.02707 z M -4.8613906,13.724079 c -0.034249,-0.03174 -0.062266,-0.06179 -0.062266,-0.06677 0,-0.005 -0.040304,-0.05143 -0.089569,-0.103216 -0.2217885,-0.233148 -0.2575547,-0.758653 -0.07215,-1.060092 0.1965625,-0.319581 0.5237614,-0.50702 0.8735604,-0.500428 0.063679,0.0012 0.111777,-0.0085 0.111777,-0.02259 0,-0.01358 -0.015883,-0.02469 -0.035298,-0.02469 -0.019415,0 -0.035297,-0.01004 -0.035297,-0.0223 0,-0.01227 0.055595,-0.02619 0.1235425,-0.03094 0.079296,-0.0055 0.051905,-0.0094 -0.076479,-0.01065 -0.1308562,-0.0013 -0.1796786,0.0045 -0.1411916,0.01683 0.063877,0.02046 0.056022,0.02425 -0.075016,0.03626 -0.047731,0.0044 -0.132761,0.02355 -0.1889569,0.04264 -0.056197,0.01908 -0.1442168,0.04246 -0.1956014,0.05196 -0.051384,0.0095 -0.115517,0.03954 -0.1425174,0.06675 -0.026999,0.02722 -0.089492,0.08628 -0.1388719,0.131238 -0.056087,0.05107 -0.1293444,0.163587 -0.1952056,0.299816 -0.1016538,0.210264 -0.105525,0.226295 -0.108214,0.448117 -0.0026,0.214943 0.00226,0.240291 0.073918,0.385961 0.042191,0.08575 0.1189923,0.194112 0.1706743,0.240804 0.051682,0.04669 0.087001,0.08489 0.078487,0.08489 -0.00851,0 0.00368,0.02118 0.027111,0.04706 0.023427,0.02588 0.06897,0.04706 0.1012114,0.04706 h 0.058619 z m 2.305212,-0.11881 c 0.1015403,0.0095 0.1247106,0.0067 0.086526,-0.01011 -0.028683,-0.01268 -0.1345756,-0.03048 -0.2353196,-0.03958 l -0.1831707,-0.01652 0.058611,0.06105 c 0.052027,0.0542 0.062884,0.05719 0.096645,0.02664 0.028252,-0.02557 0.073693,-0.0311 0.1767083,-0.02148 z m -4.6206992,-0.341187 c 0.035278,-0.07061 0.041147,-0.07453 0.041181,-0.02745 4.8e-5,0.07198 0.05613,0.05433 0.067113,-0.02112 0.011556,-0.07939 -0.064056,-0.208624 -0.1320437,-0.225688 -0.064986,-0.01631 -0.2440834,0.03075 -0.270003,0.07096 -0.04248,0.06589 -0.00539,0.233438 0.061993,0.280042 0.014241,0.0098 0.062955,0.01514 0.1082541,0.01177 0.06787,-0.0051 0.089601,-0.02063 0.1235064,-0.0885 z m 4.8299699,0 c -0.023427,-0.02588 -0.053181,-0.04706 -0.066124,-0.04706 -0.012943,0 -0.00436,0.02118 0.019062,0.04706 0.023427,0.02588 0.053181,0.04706 0.066124,0.04706 0.012943,0 0.00436,-0.02118 -0.019062,-0.04706 z m -0.6706605,-0.227475 c 0,-0.09923 -0.00569,-0.174721 -0.012645,-0.167767 -0.024867,0.02487 -0.035106,0.348179 -0.011027,0.348179 0.01382,0 0.023672,-0.0751 0.023672,-0.180412 z m -3.0709205,0.109815 c 0.00811,-0.01312 -0.00949,-0.02337 -0.03979,-0.02318 -0.043714,2.91e-4 -0.047437,0.0048 -0.019037,0.02318 0.043787,0.0283 0.041343,0.0283 0.058829,0 z m -2.7869887,-0.142019 c 0.02503,-0.0134 0.04552,-0.03495 0.04552,-0.04789 0,-0.01434 -0.02045,-0.01259 -0.05237,0.0045 -0.0288,0.01541 -0.110869,0.03558 -0.182373,0.04481 l -0.130007,0.01678 0.136856,0.0031 c 0.07527,0.0017 0.157339,-0.0078 0.182373,-0.02127 z m 9.67006859,-0.122715 c 9.3e-6,-0.0097 -0.015868,-0.01765 -0.035283,-0.01765 -0.019415,0 -0.035297,-0.01588 -0.035297,-0.0353 0,-0.01941 -0.00946,-0.0353 -0.021016,-0.0353 -0.02618,0 -0.053844,0.06819 -0.038036,0.09377 0.01455,0.02355 0.129607,0.01864 0.1296295,-0.0055 z m -0.239787,-0.03905 c 0.00749,-0.02278 -0.00117,-0.02854 -0.027601,-0.01838 -0.029742,0.01141 -0.038702,2.1e-4 -0.039354,-0.0492 l -8.316e-4,-0.06397 -0.052985,0.06472 c -0.029144,0.03559 -0.068471,0.06545 -0.087399,0.06636 -0.021996,0.0011 -0.017431,0.0091 0.01265,0.02243 0.067611,0.02984 0.1827558,0.01692 0.1955372,-0.02195 z m 0.3809953,-0.05617 c 0,-0.01855 -0.025367,-0.02896 -0.064713,-0.02656 -0.089538,0.0055 -0.093009,0.0077 -0.052947,0.03354 0.05065,0.03274 0.1176598,0.02876 0.1176598,-0.007 z m -9.78907489,-0.08127 c 0.02788,-0.03559 0.08979,-0.10707 0.137568,-0.15884 0.04778,-0.05177 0.154965,-0.178844 0.23819,-0.282384 0.08323,-0.10354 0.218467,-0.264109 0.300537,-0.35682 0.08207,-0.09271 0.140802,-0.173428 0.130514,-0.179371 -0.01029,-0.0059 -0.103421,-0.01764 -0.206962,-0.026 l -0.188255,-0.01519 -0.0353,0.0769 c -0.0241,0.0525 -0.05961,0.08406 -0.111929,0.09946 l -0.07663,0.02256 0.01439,0.142165 c 0.01384,0.136754 0.0118,0.144063 -0.05352,0.192002 -0.03735,0.02741 -0.114475,0.07359 -0.171396,0.102633 -0.137278,0.07003 -0.287873,0.05343 -0.368801,-0.04067 -0.07452,-0.08664 -0.0756,-0.150431 -0.0014,-0.0807 0.0299,0.02809 0.104038,0.068 0.16475,0.08868 0.108696,0.03704 0.112004,0.03666 0.216253,-0.02443 0.09679,-0.05673 0.117611,-0.08337 0.108071,-0.138286 -0.0019,-0.01067 0.0065,-0.01331 0.01851,-0.0059 0.03818,0.0236 -2.12e-4,-0.277132 -0.04141,-0.324368 -0.04369,-0.05009 -0.219048,-0.14213 -0.314638,-0.165146 -0.08055,-0.0194 -0.08671,-0.0936 -0.01177,-0.141733 0.02912,-0.01871 0.103247,-0.04133 0.164724,-0.05028 0.08809,-0.01282 0.111776,-0.02568 0.111776,-0.06066 0,-0.02442 -0.0079,-0.04557 -0.01765,-0.04702 -0.0097,-0.0015 -0.0526,-0.0067 -0.09532,-0.01158 -0.04272,-0.0049 -0.100961,-0.02146 -0.129425,-0.03677 -0.04989,-0.02681 -0.143274,-0.0283 -0.41439,-0.0066 -0.139962,0.01121 -0.170957,0.02591 -0.120424,0.05714 0.02601,0.01607 0.02767,0.03287 0.0076,0.07692 -0.02154,0.04727 -0.01815,0.06105 0.02096,0.08548 0.02607,0.01628 0.0409,0.04406 0.03364,0.06299 -0.0071,0.01863 -0.002,0.03387 0.01148,0.03387 0.01347,0 0.0086,0.01588 -0.01082,0.0353 -0.01941,0.01941 -0.04602,0.0353 -0.05912,0.0353 -0.01311,0 -0.03025,0.0104 -0.0381,0.0231 -0.0091,0.01479 0.08978,0.0202 0.275111,0.01504 0.272115,-0.0076 0.295357,-0.0046 0.389398,0.04973 0.05501,0.03179 0.100011,0.06737 0.100011,0.07908 0,0.02929 -0.03908,0.02668 -0.09158,-0.0061 -0.07064,-0.04412 -0.325072,0.100426 -0.331665,0.188418 -0.01853,0.247288 -0.01254,0.276105 0.09661,0.464557 0.09399,0.162285 0.219066,0.292173 0.28134,0.292173 0.01009,0 0.04116,-0.02912 0.06904,-0.06471 z m -0.306133,-0.547118 c -0.05632,-0.05632 -0.05962,-0.119243 -0.01116,-0.212956 0.04287,-0.0829 0.105368,-0.08933 0.201668,-0.02076 0.05233,0.03726 0.06835,0.06728 0.06835,0.128091 0,0.137224 -0.161396,0.203082 -0.258851,0.105626 z m 0.141192,-0.151553 c 0,-0.04767 -0.02707,-0.06 -0.07521,-0.03423 -0.03529,0.01888 -0.03949,0.03158 -0.01872,0.05661 0.03032,0.03654 0.09393,0.02139 0.09393,-0.02237 z m 0.457832,0.648606 c -0.01842,-0.01842 -0.08132,0.05027 -0.0808,0.08825 3.9e-4,0.02855 0.01196,0.02341 0.04545,-0.02018 0.02471,-0.03216 0.04062,-0.06279 0.03534,-0.06807 z m 9.31681629,0.08047 c -0.00878,-0.02288 0.00714,-0.0394 0.047804,-0.04961 0.067368,-0.01691 0.079964,-0.05145 0.026279,-0.07205 -0.019081,-0.0073 -0.053497,0.0056 -0.076479,0.02873 -0.040093,0.04034 -0.042083,0.03954 -0.049092,-0.0198 -0.00695,-0.05882 -0.00953,-0.05993 -0.052947,-0.02276 -0.025103,0.02149 -0.045639,0.05261 -0.045639,0.06914 0,0.01654 -0.023295,0.03007 -0.05177,0.03007 -0.093112,0 -0.012047,0.04366 0.098834,0.05323 0.058242,0.005 0.1082092,0.01098 0.1110384,0.01325 0.00284,0.0022 -7.839e-4,-0.01133 -0.00802,-0.0302 z m -8.46679529,-0.03925 c 0.01065,-0.01724 0.06181,-0.0218 0.14645,-0.01307 0.1383542,0.01428 0.2502582,-0.01708 0.3075917,-0.08622 0.044674,-0.05387 0.014295,-0.0487 -0.066989,0.0114 -0.058739,0.04343 -0.090424,0.04874 -0.2308267,0.03869 -0.140633,-0.01007 -0.166446,-0.0057 -0.190013,0.03202 -0.01505,0.0241 -0.01726,0.04367 -0.0049,0.04367 0.01229,0 0.02971,-0.01192 0.03872,-0.02649 z m 6.4948069,-0.179921 c 0.0026,-0.0612 0.00677,-0.111269 0.00927,-0.111269 0.0025,0 0.00923,-0.02834 0.014952,-0.06297 0.00713,-0.04314 -0.00343,-0.07279 -0.03349,-0.09413 -0.025827,-0.01833 -0.042028,-0.05537 -0.039359,-0.08998 0.0025,-0.03236 -0.00372,-0.07471 -0.013791,-0.09413 -0.010077,-0.01941 -0.024059,-0.05383 -0.031069,-0.07648 -0.00701,-0.02265 -0.023466,-0.04118 -0.036566,-0.04118 -0.040549,0 -0.056582,0.120768 -0.02692,0.202798 0.018758,0.05188 0.020644,0.09218 0.00563,0.120241 -0.012424,0.02321 -0.016921,0.07185 -0.00999,0.108084 0.010151,0.05309 0.00289,0.06842 -0.037482,0.07897 -0.027542,0.0072 -0.050047,0.0251 -0.05001,0.03977 9.26e-5,0.03638 0.1337834,0.122444 0.176896,0.113884 0.019155,-0.0038 0.034822,0.0059 0.034822,0.02157 0,0.01567 0.00729,0.0212 0.016196,0.01229 0.00891,-0.0089 0.018322,-0.06627 0.020919,-0.127465 z m -0.1547751,-0.442103 c 0,-0.02018 0.010592,-0.03015 0.02353,-0.02215 0.012943,0.008 0.02353,0.02451 0.02353,0.03669 0,0.01218 -0.010587,0.02215 -0.02353,0.02215 -0.012943,0 -0.02353,-0.01651 -0.02353,-0.03669 z m -6.9007458,0.319069 c 0.01618,0 0.02941,-0.0097 0.02941,-0.02161 0,-0.01189 0.0065,-0.041 0.01438,-0.06471 0.0079,-0.0237 -0.03928,0.01514 -0.104875,0.08632 -0.06559,0.07119 -0.119321,0.140015 -0.119395,0.152958 -7.5e-5,0.01294 0.03388,-0.01617 0.07546,-0.06472 0.04158,-0.04854 0.08883,-0.08825 0.10501,-0.08824 z m 2.1649401,0.126361 c 0.076982,-0.02063 0.071834,-0.13162 -0.00906,-0.195248 -0.083092,-0.06536 -0.1592719,-0.06194 -0.2059075,0.0092 -0.051911,0.07922 -0.047932,0.104112 0.020826,0.130254 0.032358,0.0123 0.058829,0.03322 0.058829,0.04648 0,0.02692 0.055323,0.03072 0.1353089,0.0093 z m 4.0275014,-0.224981 c 0.0022,-0.05899 -0.033382,-0.108817 -0.059225,-0.08297 -0.00626,0.0063 -0.00363,0.06821 0.00587,0.137665 0.014261,0.104418 0.020174,0.116101 0.034127,0.06746 0.00928,-0.03236 0.017935,-0.08733 0.019224,-0.122154 z m 1.39073069,0.06684 c 0,-0.02614 -0.044679,-0.178525 -0.057763,-0.197012 -0.00206,-0.0029 -0.042827,0.0055 -0.090634,0.01876 -0.1049019,0.02896 -0.1119104,0.07632 -0.017107,0.115593 0.038398,0.0159 0.082053,0.04366 0.097009,0.06168 0.034572,0.04166 0.068495,0.04214 0.068495,9.51e-4 z M -5.6193865,12.206085 c 0.05801,-0.01345 0.1085452,-0.01293 0.1353089,0.0013 0.024612,0.01317 0.04272,0.01378 0.04272,0.0014 0,-0.01178 0.030491,-0.02752 0.067759,-0.03497 0.037267,-0.0074 0.082272,-0.0279 0.1000107,-0.04544 0.017739,-0.01753 0.050782,-0.0389 0.073432,-0.04748 0.022648,-0.0086 0.041181,-0.02568 0.041181,-0.03799 0,-0.01232 0.030271,-0.02905 0.067273,-0.03717 0.051591,-0.01133 0.088618,-0.05107 0.1588408,-0.170455 0.1169538,-0.19884 0.1318968,-0.255076 0.098608,-0.371108 -0.014918,-0.05199 -0.024838,-0.10371 -0.022045,-0.11493 0.0028,-0.01121 -0.0081,-0.05887 -0.024196,-0.105893 -0.016098,-0.04702 -0.027102,-0.09344 -0.024451,-0.103143 0.00265,-0.0097 -0.010817,-0.01765 -0.029933,-0.01765 -0.019115,0 -0.052942,-0.02776 -0.075171,-0.06168 -0.0371,-0.05662 -0.041832,-0.05807 -0.057718,-0.01765 -0.013762,0.03502 -0.017642,0.03015 -0.01896,-0.02378 -9.346e-4,-0.0373 -0.024858,-0.10536 -0.053212,-0.151242 -0.028355,-0.04588 -0.038947,-0.07563 -0.02353,-0.0661 0.016524,0.01022 0.028027,0.004 0.028027,-0.01526 0,-0.04583 -0.088427,-0.120204 -0.2052975,-0.172661 -0.054672,-0.02454 -0.099677,-0.05673 -0.1000106,-0.07151 -9.346e-4,-0.04197 -0.061013,-0.05547 -0.2469112,-0.05547 -0.1596452,0 -0.1747424,0.0044 -0.2124388,0.06194 -0.028606,0.04366 -0.045859,0.05339 -0.058473,0.03299 -0.00984,-0.01592 -0.0378,-0.02512 -0.062137,-0.02044 -0.036684,0.007 -0.048471,0.04264 -0.068994,0.208221 -0.013614,0.109842 -0.0427,0.233532 -0.064633,0.274868 -0.029487,0.05557 -0.034101,0.09036 -0.017705,0.133486 0.029669,0.07804 -0.02252,0.1283 -0.064093,0.06173 -0.023065,-0.03693 -0.020801,-0.04914 0.012737,-0.06868 0.038075,-0.02218 0.037909,-0.02382 -0.00245,-0.02448 -0.037571,-6.37e-4 -0.041097,-0.01345 -0.026871,-0.09765 0.012777,-0.07563 0.00946,-0.09463 -0.015109,-0.08644 -0.030913,0.01031 -0.083528,0.132488 -0.1524363,0.353985 -0.019126,0.06148 -0.041009,0.111776 -0.048638,0.111776 -0.020101,0 0.011077,-0.181847 0.053356,-0.311248 0.019988,-0.06118 0.032569,-0.135301 0.027954,-0.164723 -0.00781,-0.04981 -0.011944,-0.04786 -0.060059,0.02842 -0.1966718,0.31179 -0.1476735,0.842545 0.099939,1.08254 0.062265,0.06035 0.1079823,0.08003 0.2274156,0.09788 0.1526753,0.02282 0.3753977,0.0584 0.3965692,0.06335 0.00647,0.0015 0.053432,-0.0069 0.104357,-0.01872 z M -6.2755234,12.03758 c -0.084276,-0.100156 -0.1386339,-0.233904 -0.1076545,-0.264883 0.031912,-0.03191 0.049152,-0.01176 0.1535042,0.179479 0.064698,0.118567 0.077707,0.15884 0.051309,0.15884 -0.019449,0 -0.063173,-0.03305 -0.097159,-0.07344 z m 0.6162698,0.01771 c -0.124729,-0.04654 -0.1586174,-0.08099 -0.1586174,-0.161269 0,-0.08195 0.066957,-0.235138 0.095159,-0.217708 0.01067,0.0066 0.059807,-0.0037 0.1091938,-0.02297 0.049388,-0.01923 0.1056807,-0.03364 0.1250945,-0.03202 0.078561,0.0065 0.1176598,-0.0063 0.1176598,-0.03839 0,-0.05082 -0.035116,-0.06358 -0.1750898,-0.06358 -0.094643,0 -0.1307587,-0.0096 -0.1414905,-0.03755 -0.00793,-0.02066 -0.00191,-0.04902 0.013354,-0.06303 0.020796,-0.01909 0.023878,-0.01449 0.012272,0.01832 -0.012385,0.03501 -0.00718,0.04042 0.02595,0.02696 0.1156957,-0.047 0.1669025,-0.05171 0.2378205,-0.02189 0.04123,0.01734 0.081232,0.04785 0.088889,0.0678 0.00766,0.01995 0.028674,0.03628 0.046702,0.03628 0.018028,0 0.032779,0.0191 0.032779,0.04245 0,0.02334 0.035929,0.07727 0.079843,0.119836 0.068544,0.06644 0.086862,0.07363 0.1294262,0.05086 0.027273,-0.0146 0.049741,-0.02881 0.049936,-0.03159 1.95e-4,-0.0028 0.015613,-0.04741 0.034264,-0.09918 l 0.033911,-0.09413 0.00103,0.07495 c 0.00211,0.153277 -0.08599,0.285 -0.2687875,0.401866 -0.1148375,0.07342 -0.353049,0.09484 -0.4893078,0.044 z m -0.1350856,-0.485508 c 0,-0.01294 0.010587,-0.02353 0.02353,-0.02353 0.012943,0 0.023529,0.01059 0.023529,0.02353 0,0.01294 -0.010592,0.02353 -0.023529,0.02353 -0.012943,0 -0.02353,-0.01059 -0.02353,-0.02353 z m -0.6335049,-0.03726 c 0.00112,-0.02741 0.00671,-0.03299 0.014217,-0.01422 0.0068,0.01698 0.00596,0.03728 -0.00186,0.04511 -0.00782,0.0078 -0.013379,-0.0061 -0.01236,-0.03089 z m 0.2805256,-0.198061 c 0,-0.01294 0.00996,-0.02353 0.022144,-0.02353 0.012179,0 0.028689,0.01059 0.036688,0.02353 0.008,0.01294 -0.00196,0.02353 -0.022144,0.02353 -0.020179,0 -0.036688,-0.01059 -0.036688,-0.02353 z m 0.1076428,-0.342622 c -0.02011,-0.08013 0.00645,-0.213424 0.049687,-0.249305 0.026714,-0.02218 0.044933,-0.02248 0.078809,-0.0013 0.030433,0.019 0.048809,0.01984 0.059403,0.0027 0.016735,-0.02708 0.104501,0.05304 0.104501,0.0954 0,0.04254 -0.1862345,0.212772 -0.2327681,0.212772 -0.028135,0 -0.050077,-0.02217 -0.059632,-0.06024 z m 2.0337652,0.977985 c 0,-0.01294 -0.015883,-0.02353 -0.035297,-0.02353 -0.019415,0 -0.035297,0.01059 -0.035297,0.02353 0,0.01294 0.015883,0.02353 0.035297,0.02353 0.019415,0 0.035297,-0.01059 0.035297,-0.02353 z M -7.5533526,11.85468 c 0.0097,-0.0013 0.017651,-0.01438 0.017651,-0.02888 0,-0.03383 -0.272477,-0.01649 -0.308602,0.01963 -0.01834,0.01834 0.01653,0.02359 0.123893,0.01864 0.08218,-0.0038 0.157353,-0.008 0.16706,-0.0094 z m 4.3137021,-0.079 c 0.033039,-0.109992 -0.0048,-0.243765 -0.085157,-0.300975 -0.097967,-0.06976 -0.4654932,-0.07798 -0.5384697,-0.01206 -0.03228,0.02916 -0.048187,0.06768 -0.043738,0.105894 0.00627,0.05387 0.032471,0.06857 0.2540823,0.142669 0.1358968,0.04544 0.2682643,0.09541 0.2941492,0.111061 0.073103,0.04419 0.094361,0.03588 0.1191319,-0.0466 z m -4.7687141,-0.195308 c 0.175703,-0.09563 0.24159,-0.293284 0.178649,-0.535928 -0.04934,-0.190199 -0.190375,-0.277901 -0.318856,-0.198275 -0.03857,0.0239 -0.05122,0.02338 -0.06748,-0.0028 -0.01608,-0.02584 -0.0356,-0.02685 -0.09929,-0.0051 -0.166477,0.05679 -0.232233,0.163276 -0.232233,0.376071 0,0.114204 0.01149,0.152412 0.07018,0.233439 0.07482,0.10329 0.211773,0.189812 0.303144,0.19152 0.0306,5.88e-4 0.105253,-0.02596 0.165886,-0.05896 z m -0.163121,-0.545359 c -0.02816,-0.01973 -0.04875,-0.02211 -0.05825,-0.0067 -0.01844,0.02984 -0.08252,0.03134 -0.08252,0.0019 0,-0.01201 0.01588,-0.03774 0.0353,-0.05715 0.01942,-0.01941 0.0353,-0.04664 0.0353,-0.06051 0,-0.03836 0.0702,-0.03008 0.08562,0.01009 0.0075,0.01941 0.02565,0.03538 0.04044,0.03548 0.0148,10e-5 0.03807,0.0243 0.05172,0.05379 0.02112,0.04562 0.01821,0.0536 -0.01961,0.0536 -0.02444,0 -0.06403,-0.01373 -0.08799,-0.03051 z m 4.1234383,0.205317 c 0.0359,-0.09707 0.065361,-0.184961 0.065471,-0.195313 1.092e-4,-0.01035 -0.060691,-0.01565 -0.1351106,-0.01177 l -0.1353084,0.007 -0.00701,0.160959 c -0.00764,0.175332 0.018362,0.234174 0.098318,0.222571 0.036576,-0.0053 0.064275,-0.05004 0.1136377,-0.183508 z m -5.6055323,0.14258 c 0,-0.01218 -0.01059,-0.02869 -0.02353,-0.03669 -0.01294,-0.008 -0.02353,0.002 -0.02353,0.02215 0,0.02018 0.01059,0.03669 0.02353,0.03669 0.01294,0 0.02353,-0.01 0.02353,-0.02215 z m 7.4239416,-0.03293 c 0.027611,-0.02761 0.024784,-0.04348 -0.018866,-0.10595 -0.028238,-0.04041 -0.067223,-0.0744 -0.086637,-0.07554 -0.023902,-0.0013 -0.020106,-0.0087 0.011767,-0.02257 0.046065,-0.02007 0.045977,-0.02084 -0.00426,-0.03597 -0.031285,-0.0094 -0.046379,-0.02833 -0.038663,-0.04843 0.00696,-0.01814 0.00358,-0.03317 -0.00751,-0.03341 -0.011092,-2.35e-4 -0.1498866,-0.0049 -0.3084329,-0.0104 -0.2564167,-0.0089 -0.3331149,0.0039 -0.267485,0.04443 0.01143,0.007 0.027757,0.06867 0.036282,0.136901 0.017019,0.136232 0.031246,0.168312 0.084129,0.189701 0.068456,0.02769 0.5653405,-0.0044 0.5996746,-0.03877 z m -1.5377362,-0.05759 c -0.016975,-0.0056 -0.042058,8.71e-4 -0.055729,0.01457 -0.017465,0.01746 -0.00827,0.02053 0.030868,0.01029 0.031819,-0.0083 0.042489,-0.01899 0.024863,-0.02486 z m 3.07947959,-0.205023 c 0.016118,-0.01942 0.034484,-0.08126 0.040814,-0.137411 0.010166,-0.09019 0.00397,-0.108031 -0.053129,-0.152946 -0.080195,-0.06308 -0.1665068,-0.0654 -0.1986545,-0.0053 -0.038031,0.07106 -0.029512,0.239232 0.014584,0.287961 0.047104,0.05205 0.156041,0.05634 0.1963853,0.0077 z m -6.78773499,-0.02569 c 0.1367448,-0.06489 0.1411721,-0.0901 0.030158,-0.171741 -0.107878,-0.07934 -0.273022,-0.101172 -0.321685,-0.04254 -0.05893,0.07101 0.05272,0.251744 0.15552,0.251744 0.03138,0 0.092583,-0.01685 0.1360072,-0.03747 z m 0.8576719,0.01393 c 0,-0.01294 -0.01651,-0.02353 -0.036688,-0.02353 -0.020179,0 -0.030144,0.01059 -0.022144,0.02353 0.008,0.01294 0.024509,0.02353 0.036688,0.02353 0.012179,0 0.022144,-0.01059 0.022144,-0.02353 z m 5.2183902,-0.05078 c 0.020635,-0.02063 0.036047,-0.01994 0.063536,0.0029 0.024632,0.02044 0.036297,0.02164 0.036297,0.0037 0,-0.01453 -0.012355,-0.02641 -0.027454,-0.02641 -0.015099,0 -0.020488,-0.007 -0.011968,-0.01548 0.00851,-0.0085 0.00382,-0.02956 -0.010474,-0.04676 -0.014281,-0.0172 -0.020213,-0.04626 -0.013188,-0.06456 0.00786,-0.02048 -0.00627,-0.03826 -0.036748,-0.04623 -0.059459,-0.01555 -0.088416,-8.71e-4 -0.088416,0.045 0,0.01865 -0.00889,0.03391 -0.019753,0.03391 -0.010866,0 -0.031496,0.02577 -0.04585,0.05727 -0.019645,0.04312 -0.019126,0.06011 0.00211,0.06874 0.052054,0.02116 0.1244483,0.01541 0.1519234,-0.01206 z m 0.2024693,-0.102185 c 0.00825,-0.0215 3.72e-5,-0.0353 -0.021017,-0.0353 -0.019008,0 -0.034558,0.01121 -0.034558,0.02493 0,0.01371 -0.012223,0.01737 -0.02717,0.0081 -0.016833,-0.0104 -0.020782,-0.0065 -0.010376,0.01037 0.023726,0.03838 0.077056,0.03373 0.093119,-0.0081 z m -5.7503065,-0.286288 c 0,-0.13203 0.00543,-0.152004 0.037918,-0.139535 0.029232,0.01121 0.033862,0.0051 0.020203,-0.0269 -0.00974,-0.02279 -0.022731,-0.0707 -0.028865,-0.106449 -0.00613,-0.03575 -0.020518,-0.07079 -0.031971,-0.07786 -0.011449,-0.007 -0.020821,-0.08209 -0.020821,-0.166686 0,-0.2675986 -0.114228,-0.3611066 -0.4411211,-0.3611066 -0.1605848,0 -0.1894128,0.0066 -0.2283928,0.0521 -0.02453,0.02865 -0.04631,0.08063 -0.04838,0.1155 -0.0031,0.05311 0.0079,0.06574 0.06832,0.07782 0.05709,0.01142 0.080255,0.0036 0.1113235,-0.03759 0.036385,-0.04823 0.046202,-0.04992 0.1353658,-0.02321 0.080521,0.02412 0.1074792,0.02294 0.1659796,-0.0073 0.1009048,-0.05218 0.1633469,-0.04622 0.1762396,0.01683 0.010425,0.05098 0.036082,0.5934896 0.036786,0.7779426 2.057e-4,0.05369 0.00978,0.0838 0.023878,0.07509 0.012943,-0.008 0.023535,-0.08388 0.023535,-0.168629 z m -2.2188899,-0.04316 c 0.05756,-0.07214 0.07886,-0.08238 0.17161,-0.08248 0.223581,-2.59e-4 0.562663,-0.03131 0.550839,-0.05044 -0.0068,-0.01102 -0.18942,-0.02003 -0.4058,-0.02003 -0.451331,0 -0.498018,0.01446 -0.498018,0.154292 0,0.07036 0.0076,0.08103 0.05783,0.08103 0.03788,0 0.08049,-0.0284 0.123543,-0.08236 z m 8.47475859,-0.02565 c 0.112482,-0.06738 0.1918865,-0.194658 0.1918865,-0.30759 0,-0.05616 -0.00944,-0.102104 -0.020982,-0.102104 -0.011542,0 -0.027709,-0.0268 -0.035929,-0.05956 -0.018469,-0.07359 -0.1419898,-0.1520226 -0.2395916,-0.1521396 -0.096722,-1.16e-4 -0.26251139,0.1215856 -0.30537329,0.2241686 -0.01842,0.04409 -0.033489,0.115194 -0.033489,0.158029 0,0.201544 0.26642619,0.345246 0.44347609,0.239197 z M -1.195021,10.493174 c -0.024867,-0.05695 -0.014232,-0.241822 0.020884,-0.363108 0.033514,-0.115759 0.1305255,-0.1943256 0.28931379,-0.2343086 0.073358,-0.01847 0.095932,-0.03432 0.085946,-0.06034 -0.016873,-0.04397 0.032285,-0.07678 0.1157496,-0.07725 0.09723,-5.39e-4 0.1782722,-0.04701 0.1944492,-0.1114567 0.017558,-0.06995 -0.021879,-0.124206 -0.09033,-0.124269 -0.033421,-3e-5 -0.075133,-0.03719 -0.1254698,-0.111776 -0.1060419,-0.157126 -0.1257902,-0.222499 -0.1439396,-0.476475 l -0.015976,-0.223553 -0.1262718,-0.0072 -0.12627229,-0.0072 0.011381,0.0778 c 0.00626,0.04279 0.027625,0.128084 0.047476,0.189537 0.019855,0.06145 0.026455,0.105775 0.014672,0.09849 -0.04756,-0.02939 -0.1151407,0.01696 -0.1160672,0.07963 -4.898e-4,0.03472 -0.032279,0.121369 -0.070591,0.192553 -0.03831,0.07119 -0.069659,0.149354 -0.069662,0.173712 -2.9e-6,0.02435 -0.023236,0.08187 -0.051625,0.127809 -0.048843,0.07903 -0.049157,0.08257 -0.00588,0.06575 0.025156,-0.0098 0.056326,-0.01964 0.069268,-0.02191 0.014384,-0.0025 0.026087,0.1115767 0.030099,0.2935897 l 0.00657,0.2977296 -0.1198521,0.01648 c -0.1340494,0.01844 -0.1398121,0.03072 -0.020786,0.04429 0.044238,0.0051 0.088378,0.01036 0.098085,0.0118 0.0097,0.0015 0.017651,0.01783 0.017651,0.03639 0,0.0589 0.04488,0.15449 0.072531,0.15449 0.016524,0 0.019807,-0.01563 0.00865,-0.04118 z m 0.065546,-0.7931943 -0.087899,-0.08136 0.041181,-0.07351 c 0.022648,-0.04043 0.041181,-0.0985 0.041181,-0.129044 0,-0.03055 0.010592,-0.06208 0.023529,-0.07008 0.012943,-0.008 0.023529,-0.04506 0.023529,-0.08236 0,-0.08909 0.041711,-0.113538 0.051346,-0.0301 0.00634,0.05486 0.021139,0.06704 0.096241,0.07914 0.1223815,0.01973 0.2053931,0.102542 0.2053931,0.204908 0,0.06275 -0.02061,0.10164 -0.091359,0.172388 -0.1162738,0.1162737 -0.185847,0.1185697 -0.3031462,0.01 z m 0.13751199,-0.661863 c 0.00112,-0.02741 0.00671,-0.03299 0.014217,-0.01422 0.0068,0.01699 0.00596,0.03728 -0.00186,0.0451 -0.00782,0.0078 -0.013379,-0.0061 -0.01236,-0.03088 z M -8.8476096,10.278281 c 0.06152,-0.002 0.08824,-0.01347 0.08824,-0.03807 0,-0.01941 0.0079,-0.03404 0.01765,-0.03251 0.04854,0.0077 0.07648,-0.0063 0.07648,-0.03809 0,-0.01941 0.01906,-0.0353 0.04236,-0.0353 0.04955,0 0.09883,-0.04342 0.09883,-0.08707 0,-0.01683 -0.01588,-0.0306 -0.0353,-0.0306 -0.01942,0 -0.0353,-0.01059 -0.0353,-0.02353 0,-0.01294 0.01651,-0.02353 0.03669,-0.02353 0.02018,0 0.03109,-0.009 0.02426,-0.02011 -0.0068,-0.01107 0.01217,-0.04322 0.04224,-0.07147 0.03883,-0.03648 0.05132,-0.06889 0.04311,-0.111872 -0.01066,-0.05577 -0.0076,-0.05837 0.03939,-0.03324 0.02803,0.015 0.04411,0.03834 0.03574,0.05188 -0.009,0.01464 0.0026,0.02118 0.02876,0.01615 0.0574,-0.01105 0.06,-0.1032227 0.0028,-0.09868 -0.04736,0.0038 -0.05547,-0.02864 -0.01177,-0.04701 0.0408,-0.01715 -0.03998,-0.06744 -0.157998,-0.09837 -0.06971,-0.01827 -0.09674,-0.03909 -0.106954,-0.08236 -0.01278,-0.05413 -0.02358,-0.05791 -0.165568,-0.05791 h -0.151896 l -0.0071,0.135309 c -0.0052,0.09927 -0.01615,0.135309 -0.04118,0.135309 -0.02675,0 -0.03412,-0.03782 -0.03412,-0.175101 0,-0.09631 -0.0097,-0.181096 -0.02156,-0.188424 -0.01186,-0.0074 -0.05157,-0.0019 -0.08824,0.01203 -0.03668,0.01395 -0.06669,0.02282 -0.06669,0.01972 0,-0.0031 -0.02382,0.0071 -0.05295,0.02271 -0.03473,0.01859 -0.05295,0.05008 -0.05295,0.09154 0,0.04526 -0.03768,0.101283 -0.132729,0.19733 -0.11463,0.1158397 -0.138672,0.1304157 -0.176319,0.1069057 -0.03442,-0.0215 -0.05724,-0.01897 -0.108474,0.01202 -0.0845,0.05111 -0.08817,0.08605 -0.01801,0.171405 0.0456,0.05547 0.06368,0.06407 0.08657,0.04118 0.0427,-0.0427 0.147791,-0.03515 0.192083,0.01379 0.02127,0.0235 0.04558,0.07909 0.05402,0.123542 0.0304,0.15994 0.03524,0.162775 0.262185,0.153551 0.11298,-0.0046 0.245129,-0.0096 0.293664,-0.01113 z m 0.135308,-0.3557566 c 0,-0.01294 0.01588,-0.02353 0.0353,-0.02353 0.01942,0 0.0353,0.01059 0.0353,0.02353 0,0.01294 -0.01588,0.02353 -0.0353,0.02353 -0.01941,0 -0.0353,-0.01059 -0.0353,-0.02353 z m 4.5348485,0.3294476 c 0.00677,-0.02588 0.020527,-0.04706 0.030575,-0.04706 0.010048,0 0.024367,-0.01588 0.031814,-0.0353 0.010391,-0.02707 -0.00493,-0.03529 -0.065776,-0.03529 -0.067813,0 -0.083069,0.01076 -0.1051551,0.07411 -0.033392,0.09579 -0.0354,0.09062 0.035199,0.09062 0.04124,0 0.065024,-0.01526 0.073341,-0.04706 z m 0.6657134,-0.02353 c 0,-0.01294 -0.00466,-0.02353 -0.010376,-0.02353 -0.00571,0 -0.016921,0.01059 -0.024921,0.02353 -0.008,0.01294 -0.00333,0.02353 0.010376,0.02353 0.013708,0 0.024921,-0.01059 0.024921,-0.02353 z m 0.3362214,-0.08354 c 0.02498,-0.04464 0.1021059,-0.04388 0.1193954,0.0012 0.017181,0.04476 0.062086,0.04615 0.062086,0.0019 0,-0.01836 -0.037555,-0.05659 -0.083457,-0.08496 -0.09023,-0.05577 -0.096101,-0.1007596 -0.014712,-0.1127366 0.028106,-0.0041 0.051103,-0.01737 0.051103,-0.02942 0,-0.01204 -0.077264,-0.02189 -0.1716972,-0.02189 h -0.1716973 l 0.00108,0.1548906 0.00108,0.15489 0.09385,-0.01487 c 0.051617,-0.0082 0.1024429,-0.03022 0.1129459,-0.04899 z m 1.3816109,0.0261 c 0,-0.04453 -0.040098,-0.06792 -0.086139,-0.05026 -0.029761,0.01142 -0.031246,0.02085 -0.00775,0.04915 0.037071,0.04467 0.093897,0.04534 0.093897,0.0011 z m -0.2725772,-0.08057 c 0.00692,-0.0112 0.048711,-0.02622 0.092869,-0.03339 0.078511,-0.01274 0.3900373,-0.1995876 0.3910063,-0.2345176 2.69e-4,-0.0097 -0.020688,-0.03883 -0.046575,-0.06471 -0.064806,-0.0648 -0.060567,-0.08333 0.04704,-0.2055827 0.10812,-0.122831 0.1486274,-0.241269 0.1510137,-0.441546 0.00269,-0.227378 -0.024955,-0.310741 -0.1461005,-0.440256 -0.1298063,-0.138773 -0.2313112,-0.194485 -0.4617009,-0.253409 -0.1557422,-0.03983 -0.1858362,-0.04075 -0.3451919,-0.01051 -0.2689666,0.05104 -0.3987872,0.113468 -0.4759435,0.228872 -0.036326,0.05433 -0.096864,0.141148 -0.134527,0.192918 -0.1196458,0.164461 -0.074371,0.414298 0.089922,0.496206 0.081329,0.04055 0.086133,0.05295 0.040187,0.103715 -0.06161,0.06807 -0.098811,0.05908 -0.1939686,-0.04692 -0.095456,-0.106331 -0.1234583,-0.114296 -0.1654461,-0.04706 -0.016167,0.02588 -0.053657,0.04706 -0.083316,0.04706 -0.059706,0 -0.1104009,0.03998 -0.1104009,0.08707 0,0.01915 0.030168,0.03059 0.080681,0.03059 0.078843,0 0.1316029,0.03361 0.1752872,0.111672 0.015633,0.02793 0.064345,0.04147 0.1744339,0.04848 0.1457071,0.0093 0.1558465,0.01392 0.2200342,0.1008817 0.037008,0.05014 0.083172,0.09667 0.102586,0.103418 0.019415,0.0067 0.09354,0.06471 0.1647236,0.128802 0.1252406,0.1127706 0.1341372,0.1165726 0.2751119,0.1175576 0.080127,5.39e-4 0.1513482,-0.0081 0.158269,-0.01934 z m 0.2255137,-0.2577456 c 0,-0.02844 0.044645,-0.0616 0.060964,-0.04528 0.00592,0.0059 -0.00537,0.02416 -0.025098,0.04054 -0.022364,0.01856 -0.035866,0.02035 -0.035866,0.0048 z m -0.4824051,-0.07486 c -0.008,-0.01294 -0.00333,-0.02353 0.010376,-0.02353 0.0386,0 0.029649,-0.04492 -0.023951,-0.120197 -0.035768,-0.05023 -0.044728,-0.08749 -0.033431,-0.138942 0.010087,-0.04593 0.00615,-0.07031 -0.011346,-0.07031 -0.014736,0 -0.020247,-0.01059 -0.012247,-0.02353 0.008,-0.01294 0.00333,-0.02353 -0.010376,-0.02353 -0.013708,0 -0.024921,-0.01189 -0.024921,-0.02642 0,-0.01842 0.047383,-0.02181 0.1562772,-0.01124 0.1385775,0.01346 0.1528938,0.0111 0.126405,-0.02082 -0.04706,-0.0567 -0.041451,-0.212503 0.00968,-0.269004 0.125479,-0.138653 0.4004599,0.02969 0.323697,0.198162 -0.014241,0.03125 -0.03323,0.112168 -0.042205,0.179813 -0.014619,0.110183 -0.030031,0.135925 -0.1480106,0.247175 -0.1090831,0.1028607 -0.1466089,0.1243307 -0.2185517,0.1250417 -0.04777,4.72e-4 -0.0934,-0.0097 -0.1013995,-0.02268 z m -0.082362,-0.04706 c -0.021208,-0.01371 -0.024113,-0.02295 -0.00727,-0.02317 0.015412,-1.98e-4 0.034572,0.01022 0.042567,0.02317 0.018058,0.02922 0.00991,0.02922 -0.035297,0 z m -5.4819576,0.2353197 c 0.01159,0 0.01497,0.01588 0.0075,0.03529 -0.01816,0.04732 0.03575,0.04513 0.08965,-0.0036 0.09163,-0.08292 0.03575,-0.148178 -0.127573,-0.148989 -0.05526,-2.75e-4 -0.06471,0.0093 -0.06471,0.06557 0,0.07702 0.05392,0.1488019 0.06644,0.08845 0.0042,-0.02017 0.01709,-0.03668 0.02868,-0.03668 z m 3.4909898,-0.154883 c 0.00786,-0.02047 0.014286,-0.06283 0.014286,-0.09413 0,-0.04501 -0.012296,-0.05691 -0.058829,-0.05691 -0.032358,0 -0.05883,-0.0095 -0.05883,-0.02121 0,-0.01741 -0.1249373,-0.107001 -0.1941386,-0.139221 -0.029261,-0.01362 -0.019886,0.086 0.016235,0.172435 0.054149,0.1295967 0.2481124,0.2254647 0.281282,0.1390267 z M -6.6885534,9.5107467 c 0.023374,-0.02816 0.023374,-0.04244 0,-0.07059 -0.038393,-0.04626 -0.085404,-0.04491 -0.1037823,0.003 -0.014398,0.03753 0.021639,0.102911 0.056718,0.102911 0.00977,0 0.030952,-0.01588 0.047065,-0.0353 z m -1.1700292,-0.132404 c 0.07245,-0.07743 0.0665,-0.114682 -0.01834,-0.114682 -0.03083,0 -0.06231,-0.01013 -0.06996,-0.02251 -0.0077,-0.01237 -0.02945,-0.01654 -0.04845,-0.0093 -0.02395,0.0092 -0.03454,0.04907 -0.03454,0.129984 0,0.109865 0.0031,0.115834 0.05295,0.101536 0.02912,-0.0084 0.08238,-0.04664 0.118346,-0.08509 z m 3.3712717,0.05167 c -0.00744,-0.01205 -0.0028,-0.02855 0.010376,-0.03669 0.013154,-0.0081 0.023917,-0.0036 0.023917,0.01014 0,0.01371 0.025759,0.02492 0.057244,0.02492 0.07635,0 0.1077462,-0.08912 0.047035,-0.133515 -0.038526,-0.02817 -0.038805,-0.03121 -0.00289,-0.03121 0.033225,0 0.039795,-0.02485 0.039795,-0.15044 0,-0.162109 -0.013085,-0.179007 -0.1386188,-0.179007 -0.073388,0 -0.1184666,0.03164 -0.1748261,0.122715 -0.06645,0.107379 -0.04754,0.242563 0.049499,0.353807 0.036802,0.04219 0.112866,0.05876 0.088462,0.01928 z m 4.31545439,-0.121067 c 0.00162,-0.05995 -0.1016562,-0.185136 -0.129653,-0.15714 -0.00761,0.0076 0.010209,0.07977 0.039593,0.160358 0.041926,0.114986 0.057191,0.136933 0.070916,0.101959 0.00962,-0.02451 0.018234,-0.07185 0.019144,-0.105177 z M -7.0258975,9.2949877 c -0.017347,-0.01734 -0.1568268,0.01576 -0.1568268,0.03722 0,0.04119 0.033843,0.045 0.099298,0.01114 0.038389,-0.01985 0.064278,-0.04162 0.057529,-0.04836 z m 3.4770882,0.04123 c 0.032563,-0.03598 0.035518,-0.05502 0.014584,-0.09413 -0.032152,-0.06007 -0.067268,-0.06092 -0.1363563,-0.0032 -0.052292,0.04362 -0.067772,0.09632 -0.037257,0.126833 0.031055,0.03106 0.11903,0.01478 0.1590304,-0.02942 z m -4.1815233,0.0074 c -0.0078,-0.0078 -0.02811,-0.0087 -0.0451,-0.0018 -0.01877,0.0075 -0.0132,0.01309 0.01422,0.01422 0.02481,10e-4 0.03871,-0.0046 0.03088,-0.01236 z m 1.4350114,-0.150477 c -0.00872,-0.03335 0.0076,-0.0612 0.056085,-0.09573 0.086823,-0.06182 0.08597,-0.08182 -0.00485,-0.113477 -0.050732,-0.01769 -0.069033,-0.03646 -0.059568,-0.06114 0.00752,-0.01958 0.00343,-0.0356 -0.00913,-0.0356 -0.012536,0 -0.022795,-0.02118 -0.022795,-0.04706 0,-0.03693 0.015687,-0.04706 0.072858,-0.04706 0.08749,0 0.321055,0.06517 0.3392862,0.09467 0.00714,0.01154 -0.018989,0.03751 -0.058054,0.05771 -0.070251,0.03632 -0.114039,0.127606 -0.084299,0.175727 0.023457,0.03795 0.2384603,0.02962 0.3369132,-0.01305 0.048118,-0.02086 0.074186,-0.04294 0.057927,-0.04907 -0.064729,-0.02441 0.00412,-0.05419 0.1252925,-0.05419 0.1108448,0 0.1384369,-0.0097 0.2033012,-0.07172 0.041279,-0.03944 0.077253,-0.08445 0.079944,-0.10001 0.00269,-0.01556 0.017573,-0.07594 0.033069,-0.134183 0.015495,-0.05824 0.03032,-0.132368 0.032946,-0.164724 0.00908,-0.11191 0.042803,-0.223725 0.080278,-0.266171 0.032172,-0.03644 0.03276,-0.04562 0.00406,-0.06337 -0.037522,-0.02319 -0.034979,-0.213518 0.00318,-0.237095 0.012159,-0.0075 0.015549,-0.03074 0.00754,-0.05162 -0.011307,-0.02947 -0.027273,-0.03313 -0.071393,-0.01635 -0.056256,0.02139 -0.081686,-0.0062 -0.033298,-0.03606 0.012943,-0.008 0.022305,-0.03775 0.020801,-0.0661 -0.00201,-0.03809 -0.00549,-0.04109 -0.013282,-0.01148 -0.018386,0.06985 -0.097308,0.07472 -0.18066,0.01114 -0.1436651,-0.109579 -0.3174831,-0.177524 -0.493464,-0.192893 -0.1217599,-0.01064 -0.1589496,-0.0078 -0.133486,0.01016 0.019415,0.01369 0.070054,0.02506 0.1125324,0.02526 0.087498,4.07e-4 0.226059,0.05217 0.2519963,0.09414 0.035327,0.05716 -0.028145,0.079 -0.13919,0.04792 -0.083301,-0.02332 -0.1306298,-0.02384 -0.2159376,-0.0024 -0.06009,0.01513 -0.1135569,0.02321 -0.1188159,0.01795 -0.00526,-0.0052 0.00108,-0.0375 0.014046,-0.07165 0.020605,-0.05421 0.017661,-0.0621 -0.023192,-0.0621 -0.025739,0 -0.070483,0.01223 -0.099429,0.02719 -0.028943,0.01495 -0.068064,0.03436 -0.086932,0.04312 -0.018866,0.0088 -0.04315,0.05006 -0.053958,0.09178 -0.015461,0.05966 -0.030487,0.07432 -0.070384,0.06866 -0.040103,-0.0057 -0.053893,0.008 -0.065829,0.06546 -0.020738,0.09977 -0.04123,0.127371 -0.094594,0.127371 -0.040088,0 -0.045673,0.01711 -0.045673,0.139803 0,0.07689 -0.010592,0.146348 -0.02353,0.154346 -0.028875,0.01784 -0.031457,0.21588 -0.00304,0.233442 0.035092,0.02168 0.052023,0.159467 0.023775,0.193503 -0.042689,0.05143 -0.087434,0.03713 -0.1277605,-0.04085 -0.060417,-0.116832 -0.068453,-0.05856 -0.00906,0.06567 0.029718,0.06215 0.1210289,0.179189 0.2029157,0.26008 0.1183697,0.116931 0.1638749,0.147075 0.2220246,0.147075 0.061541,0 0.071189,-0.0074 0.06084,-0.04704 z m -0.2755723,-0.519121 c 0,-0.01371 0.010592,-0.01838 0.02353,-0.01037 0.012943,0.008 0.02353,0.01921 0.02353,0.02492 0,0.0057 -0.010592,0.01037 -0.02353,0.01037 -0.012943,0 -0.02353,-0.01121 -0.02353,-0.02492 z m 3.1539732,0.424964 c 0.0022,0.01941 0.012478,0.0088 0.022839,-0.02353 0.030055,-0.09384 0.02647,-0.113557 -0.02353,-0.129426 -0.025887,-0.0082 -0.047065,-0.03425 -0.047065,-0.05784 0,-0.09373 0.1498429,-0.363042 0.2751235,-0.494469 0.042823,-0.04492 0.077856,-0.09637 0.077856,-0.114328 0,-0.0235 0.017328,-0.0283 0.061807,-0.01714 0.051163,0.01284 0.059221,0.0088 0.046795,-0.0236 -0.011229,-0.02927 -0.00534,-0.0354 0.023392,-0.02438 0.029448,0.0113 0.035567,0.0039 0.026244,-0.03176 -0.00955,-0.0365 0.00914,-0.0568 0.086955,-0.09448 0.054513,-0.02639 0.1203586,-0.04798 0.1463233,-0.04798 0.025965,0 0.098251,-0.01739 0.1606368,-0.03865 0.088954,-0.03031 0.1634823,-0.0356 0.3454056,-0.02451 0.1898157,0.01156 0.2319765,0.0081 0.2319765,-0.0188 0,-0.05972 0.04461,-0.06205 0.1404358,-0.0073 0.059358,0.0339 0.094588,0.07105 0.094703,0.09987 1.406e-4,0.03569 0.00646,0.03962 0.028419,0.01765 0.045717,-0.04572 0.09424,-0.03332 0.2189221,0.05595 0.064672,0.0463 0.1369178,0.09476 0.1605466,0.107676 0.037791,0.02066 0.039932,0.01783 0.017798,-0.02353 -0.01384,-0.02586 -0.051705,-0.0679 -0.084143,-0.09341 -0.070812,-0.0557 -0.073187,-0.0783 -0.013874,-0.131975 0.03369,-0.03049 0.056023,-0.03486 0.088245,-0.01727 0.053071,0.02896 0.189557,0.172766 0.2798266,0.294824 0.083524,0.112936 0.10723909,0.06857 0.02764,-0.05171 -0.204515,-0.309103 -0.62207,-0.601488 -1.00085,-0.700886 -0.183568,-0.04817 -0.5677753,-0.04133 -0.7874302,0.01403 -0.1838399,0.04633 -0.2294634,0.04256 -0.3259913,-0.0269 -0.038369,-0.02761 -0.069846,-0.02051 -0.1437426,0.03242 -0.032245,0.0231 -0.046639,0.02293 -0.070399,-8.71e-4 -0.023785,-0.02378 -0.023892,-0.03356 -5.389e-4,-0.048 0.041857,-0.02588 -0.1539834,-0.417258 -0.2563979,-0.512407 -0.1113646,-0.103464 -0.3175797,-0.174128 -0.4978232,-0.170592 l -0.1461921,0.0029 0.1789438,0.0302 c 0.2210326,0.0373 0.3444257,0.09845 0.4517854,0.223877 0.1008101,0.117773 0.1292861,0.209503 0.076922,0.247792 -0.020346,0.01488 -0.036992,0.05488 -0.036992,0.08891 0,0.08303 -0.1931235,0.334065 -0.2986367,0.388197 l -0.082731,0.04244 0.2083334,0.102162 c 0.1145828,0.05619 0.2146752,0.111678 0.2224279,0.123307 0.00775,0.01163 0.010175,0.04958 0.00538,0.08434 -0.00771,0.05589 -0.00619,0.05753 0.013125,0.01413 0.043924,-0.09868 0.4113455,-0.460442 0.5304848,-0.522317 0.1042904,-0.05416 0.1538434,-0.06315 0.3929185,-0.07126 0.3113209,-0.01056 0.3566857,0.0037 0.4088879,0.128658 0.070879,0.169636 0.025808,0.21983 -0.1974003,0.21983 -0.1097418,0 -0.2677668,0.04112 -0.4209429,0.109537 -0.042386,0.01894 -0.1068085,0.04704 -0.1431571,0.06245 -0.090533,0.0384 -0.2857102,0.204755 -0.2857102,0.243521 0,0.01738 -0.010386,0.03159 -0.023084,0.03159 -0.012693,0 -0.029727,0.02648 -0.037849,0.05883 -0.00812,0.03235 -0.025264,0.05883 -0.0381,0.05883 -0.037693,0 -0.1802504,0.153502 -0.2063797,0.222228 -0.027782,0.07307 -0.028081,0.303496 -4.899e-4,0.389602 0.010361,0.03236 0.019895,0.0456 0.021188,0.02942 0.00363,-0.04532 0.049192,-0.03482 0.051064,0.01177 0.00142,0.03521 0.0046,0.03437 0.021879,-0.0059 0.014305,-0.0333 0.021394,-0.03674 0.024226,-0.01177 z m -4.3144673,-0.166708 c 0.04242,-0.04242 0.0081,-0.115675 -0.05415,-0.115675 -0.03085,0 -0.05609,-0.01011 -0.05609,-0.02247 0,-0.02485 0.152871,-0.06085 0.217671,-0.05127 0.03565,0.0053 0.04118,-0.01463 0.04118,-0.148345 0,-0.117631 -0.008,-0.154436 -0.03337,-0.154436 -0.05858,0 -0.10803,0.02768 -0.09297,0.05204 0.01785,0.02888 -0.119316,0.0047 -0.199949,-0.03533 -0.05114,-0.02534 -0.0546,-0.03803 -0.04247,-0.155522 0.01289,-0.124858 0.01216,-0.126842 -0.03026,-0.08281 -0.0371,0.03851 -0.04466,0.09318 -0.05165,0.373262 l -0.0082,0.328147 0.05883,0.0166 c 0.0922,0.02603 0.223382,0.02382 0.251423,-0.0042 z m -0.133764,-0.04508 c 0,-0.01294 0.01059,-0.02353 0.02353,-0.02353 0.01294,0 0.02354,0.01059 0.02354,0.02353 0,0.01294 -0.01059,0.02353 -0.02354,0.02353 -0.01294,0 -0.02353,-0.01059 -0.02353,-0.02353 z m -0.724924,-0.01239 c 0.02179,-0.04782 0.01939,-0.07558 -0.01224,-0.141917 -0.0502,-0.105277 -0.0979,-0.122764 -0.175928,-0.0645 -0.04361,0.03255 -0.06346,0.07032 -0.06626,0.125996 -0.0048,0.09512 0.04164,0.138073 0.150354,0.13913 0.05988,5.88e-4 0.083,-0.01246 0.104072,-0.05871 z m -0.156849,-0.03358 c -0.02684,-0.04342 0.01205,-0.118752 0.0613,-0.118752 0.0374,0 0.04552,0.01322 0.03959,0.06451 -0.0076,0.06598 -0.07219,0.10069 -0.100898,0.05424 z m 5.5860457,-0.33054 c 0.02936,-0.05824 0.042401,-0.0953 0.028983,-0.08236 -0.02765,0.02667 -0.1445229,0.241232 -0.1445229,0.265333 0,0.0239 0.055788,-0.06444 0.1155414,-0.182971 z m -3.6806324,-0.05294 c 0,-0.194741 0.00767,-0.2338 0.072854,-0.370638 0.1179821,-0.247706 0.4031598,-0.491832 0.6351965,-0.543761 0.1969286,-0.04407 0.5384884,-0.01662 0.6920049,0.05561 0.1462445,0.06881 0.175759,0.06496 0.093224,-0.01215 -0.1240701,-0.115915 -0.4767516,-0.241591 -0.6156437,-0.219381 -0.1948489,0.03116 -0.6313768,0.300068 -0.754183,0.464594 -0.1260748,0.168904 -0.2150553,0.590418 -0.1599097,0.757511 0.015589,0.04723 0.030168,0.08588 0.032402,0.08589 0.00226,5e-6 0.00406,-0.09795 0.00406,-0.217671 z m -0.2235532,0.05433 c 0,-0.02512 0.010592,-0.05222 0.02353,-0.06022 0.012943,-0.008 0.02353,-0.05463 0.02353,-0.103635 0,-0.141417 -0.050527,-0.170312 -0.2834458,-0.162099 -0.2167931,0.0077 -0.2494873,0.03232 -0.1534559,0.115818 0.04216,0.03666 0.06039,0.07609 0.06039,0.130628 v 0.07812 h 0.1280368 c 0.07042,0 0.1345815,0.01059 0.1425806,0.02353 0.024309,0.03933 0.05883,0.02633 0.05883,-0.02215 z m 3.1717277,-0.397791 c 0.036066,-0.02288 0.012928,-0.09777 -0.030212,-0.09777 -0.028713,0 -0.058829,0.04917 -0.058829,0.09605 0,0.0266 0.048348,0.02754 0.089042,0.0017 z m 2.0719879,-0.07132 c 0.025504,-0.01617 0.02472,-0.02245 -0.00416,-0.03354 -0.019552,-0.0075 -0.048211,0.0016 -0.063684,0.02026 -0.022173,0.02671 -0.021291,0.03382 0.00416,0.03353 0.017764,-1.98e-4 0.046423,-0.0093 0.063684,-0.02026 z m -5.8699827,-0.33829 c 0.01814,-0.02875 0.01321,-0.05057 -0.01961,-0.08684 -0.05097,-0.05632 -0.07475,-0.05912 -0.161096,-0.01902 -0.08398,0.039 -0.08063,0.08604 0.0074,0.103639 0.0391,0.0078 0.07713,0.024 0.08452,0.03595 0.01797,0.02908 0.05903,0.01349 0.08881,-0.03372 z m 2.8967369,-0.202723 c 2.861e-4,-0.04379 0.022971,-0.06486 0.1062574,-0.0987 0.1319932,-0.05363 0.1980293,-0.05605 0.2450896,-0.009 0.033195,0.03319 0.035273,0.02931 0.021977,-0.04118 -0.00808,-0.04282 -0.023652,-0.09373 -0.034607,-0.113142 -0.016157,-0.02863 -0.022756,-0.0252 -0.034935,0.01815 -0.012639,0.04498 -0.020757,0.04871 -0.051267,0.02353 -0.026302,-0.0217 -0.038741,-0.02252 -0.045316,-0.003 -0.00499,0.0148 -0.032388,0.02142 -0.060886,0.01471 -0.051244,-0.01207 -0.051297,-0.01179 -0.00475,0.02528 0.046756,0.03725 0.046732,0.03749 -0.00397,0.03824 -0.028061,4.12e-4 -0.067113,0.0069 -0.086779,0.01447 -0.028149,0.0108 -0.033847,-0.0013 -0.026783,-0.0572 0.019351,-0.152915 0.2437821,-0.407221 0.3871734,-0.438715 0.041205,-0.0091 0.06994,-0.02144 0.06385,-0.02753 -0.028017,-0.02801 -0.2125324,0.04911 -0.3191802,0.133406 -0.066126,0.05227 -0.1329859,0.08756 -0.152042,0.08024 -0.018704,-0.0072 -0.041005,-0.0017 -0.049548,0.01209 -0.00854,0.01382 6.369e-4,0.02514 0.020395,0.02514 0.027542,0 0.031226,0.01236 0.01578,0.05295 -0.012395,0.03258 -0.037007,0.0508 -0.063955,0.04737 -0.1009321,-0.01286 -0.1496993,0.01594 -0.1496993,0.08839 0,0.05446 0.010523,0.07015 0.047065,0.07015 0.036311,0 0.047065,0.01569 0.047065,0.06867 0,0.104959 0.023702,0.146442 0.07911,0.138477 0.034318,-0.0049 0.049701,-0.02427 0.049951,-0.0628 z m 0.5063004,0.03466 c 0,-0.0051 -0.016436,-0.01556 -0.036522,-0.02326 -0.020944,-0.008 -0.030388,-0.0041 -0.022144,0.0093 0.01382,0.02236 0.058664,0.03308 0.058664,0.01402 z m 0.2326305,-0.227733 c -0.037761,-0.02334 -0.054952,-0.01096 -0.033338,0.02401 0.00866,0.01402 0.026739,0.01869 0.040167,0.01039 0.015809,-0.0098 0.013403,-0.0219 -0.00683,-0.0344 z m 0.096817,-0.09385 c 0,-0.01218 -0.026474,-0.02215 -0.058829,-0.02215 -0.066972,0 -0.07991,0.03883 -0.017651,0.05296 0.048672,0.01105 0.076479,-1.53e-4 0.076479,-0.03082 z m -1.2589595,-0.233932 c 0.008,-0.01294 0.00397,-0.02353 -0.00899,-0.02353 -0.012943,0 -0.030075,0.01059 -0.038075,0.02353 -0.008,0.01294 -0.00397,0.02353 0.00899,0.02353 0.012943,0 0.030075,-0.01059 0.038075,-0.02353 z m -9.5315107,9.2373593 c -0.116973,-0.116974 -0.04218,-0.282384 0.127677,-0.282384 0.111301,0 0.160276,0.03908 0.181412,0.14476 0.01208,0.06041 0.0034,0.0861 -0.04547,0.134994 -0.07908,0.07908 -0.186105,0.08014 -0.263621,0.0026 z m 0.424644,-1.365924 c 0,-0.06275 0.0098,-0.08236 0.04118,-0.08236 0.05421,0 0.05763,0.129844 0.004,0.15044 -0.02047,0.0078 -0.03901,0.01429 -0.04118,0.01429 -0.0021,0 -0.004,-0.03706 -0.004,-0.08236 z m 1.776663,-0.211787 c 0,-0.02157 0.01138,-0.03543 0.0253,-0.03079 0.01392,0.0047 0.0253,0.01849 0.0253,0.03079 0,0.0123 -0.01138,0.02615 -0.0253,0.03079 -0.01392,0.0047 -0.0253,-0.0092 -0.0253,-0.03079 z m 12.48826319,0.02024 c -0.025093,-0.02509 0.007,-0.05554 0.058538,-0.05554 0.040495,0 0.043695,0.0059 0.019263,0.0353 -0.031633,0.03811 -0.054089,0.04396 -0.0778,0.02024 z m -0.3099402,-0.06883 c -0.038531,-0.02009 -0.07808,-0.04914 -0.087884,-0.06457 -0.034817,-0.05476 -0.018008,-0.183626 0.032941,-0.252543 0.044199,-0.05978 0.066962,-0.06964 0.1608014,-0.06964 0.1226591,0 0.1524755,0.01628 0.1142368,0.06235 -0.014325,0.01726 -0.026043,0.08373 -0.026043,0.147718 0,0.08227 -0.013257,0.130565 -0.045267,0.164924 -0.054112,0.05808 -0.059192,0.05848 -0.1487885,0.01177 z m 0.3406766,-0.127898 c 0,-0.01294 0.01651,-0.02353 0.036688,-0.02353 0.020179,0 0.030144,0.01059 0.022144,0.02353 -0.008,0.01294 -0.02451,0.02353 -0.036688,0.02353 -0.012179,0 -0.022143,-0.01059 -0.022143,-0.02353 z M 2.8716681,14.329649 c -0.019091,-0.0291 -0.035709,-0.114704 -0.037517,-0.193239 -0.00299,-0.130557 0.00269,-0.147123 0.077029,-0.223811 0.1473135,-0.151989 0.3086356,-0.155128 0.4116822,-0.008 0.086353,0.123287 -0.00615,0.2988 -0.1753167,0.332633 -0.052504,0.0105 -0.079114,0.03339 -0.096372,0.08289 -0.018557,0.05323 -0.037291,0.06766 -0.084537,0.06508 -0.034058,-0.0018 -0.075741,-0.02623 -0.094971,-0.05555 z M -16.077803,13.913171 c 0,-0.02049 0.01677,-0.03726 0.03726,-0.03726 0.04155,0 0.03432,0.05066 -0.0093,0.0652 -0.01537,0.0051 -0.02794,-0.0074 -0.02794,-0.02794 z m 4.529901,-0.743217 c -0.02343,-0.02588 -0.03099,-0.04706 -0.0168,-0.04706 0.01418,0 0.03233,0.01059 0.04033,0.02353 0.02067,0.03344 0.04979,0.0292 0.09245,-0.01345 0.02904,-0.02904 0.03698,-0.03005 0.03698,-0.0047 0,0.03924 -0.04654,0.08875 -0.08342,0.08875 -0.01482,0 -0.04611,-0.02118 -0.06953,-0.04706 z m -1.87079,-0.36282 c 0,-0.05799 0.02744,-0.107819 0.05939,-0.107819 0.04149,0 0.05671,0.04951 0.03073,0.100012 -0.02538,0.04934 -0.09012,0.05495 -0.09012,0.0078 z m -0.172568,-0.05291 c -0.02998,-0.02998 -0.01611,-0.125504 0.01822,-0.125504 0.04653,0 0.06617,0.0383 0.04839,0.09434 -0.01523,0.04797 -0.03878,0.05899 -0.06661,0.03117 z m 0.530253,-1.495063 c -0.04163,-0.04163 -0.03442,-0.100061 0.01823,-0.147705 0.04351,-0.03937 0.05024,-0.03957 0.105894,-0.0031 0.06543,0.04287 0.07141,0.06564 0.03507,0.133532 -0.02723,0.05088 -0.115958,0.06051 -0.15919,0.01728 z m 2.289659,-0.654188 c -0.008,-0.01294 0.0026,-0.02353 0.02353,-0.02353 0.02094,0 0.03153,0.01059 0.02353,0.02353 -0.008,0.01294 -0.01859,0.02353 -0.02353,0.02353 -0.0049,0 -0.01553,-0.01059 -0.02353,-0.02353 z m -0.896765,-0.221715 c -0.01724,-0.04493 0.03112,-0.131265 0.07352,-0.131265 0.03758,0 0.07176,0.100611 0.04751,0.139855 -0.02245,0.03632 -0.106078,0.03039 -0.121036,-0.0086 z m 0.102559,-0.0744 c -0.02242,-0.02242 -0.06739,0.0139 -0.05067,0.04094 0.0099,0.01607 0.02309,0.01567 0.04,-0.0012 0.01385,-0.01385 0.01866,-0.03172 0.01068,-0.0397 z m 0.95893,-0.5981003 c 0.008,-0.01294 0.01921,-0.02353 0.02492,-0.02353 0.0057,0 0.01038,0.01059 0.01038,0.02353 0,0.01294 -0.01121,0.02353 -0.02492,0.02353 -0.01371,0 -0.01838,-0.01059 -0.01037,-0.02353 z m -0.433811,-0.951206 c -0.02143,-0.02583 -0.0208,-0.0446 0.0028,-0.08236 0.03914,-0.06267 0.104328,-0.06267 0.137867,-5e-6 0.03184,0.05949 0.01388,0.115821 -0.03693,0.115821 -0.02058,0 -0.03156,-0.0095 -0.02441,-0.02107 0.0071,-0.01159 -0.004,-0.02759 -0.02477,-0.03557 -0.02699,-0.01036 -0.03388,-0.0044 -0.02414,0.02107 0.01712,0.04463 0.0055,0.04543 -0.03041,0.0021 z m 2.4857464,-0.455573 c -0.07496,-0.08283 -0.03666,-0.193399 0.067,-0.193399 0.08173,0 0.141338,0.083 0.114577,0.159553 -0.02795,0.07995 -0.1237,0.0978 -0.181577,0.03385 z m 0.124771,-0.400708 c 0,-0.01263 0.01677,-0.02941 0.03726,-0.03727 0.02292,-0.0088 0.03367,-0.0036 0.02794,0.01365 -0.01172,0.03517 -0.06521,0.05455 -0.06521,0.02361 z m 8.98920569,-0.423347 c 0,-0.02475 0.05111,-0.07531 0.07613,-0.07531 0.010812,0 0.00832,0.02118 -0.00554,0.04706 -0.024872,0.04648 -0.070596,0.06476 -0.070596,0.02824 z M -6.7958325,7.0861907 c 0.058611,-0.04433 0.085909,-0.04403 0.068725,7.35e-4 -0.00745,0.01941 -0.036238,0.03496 -0.063974,0.03455 -0.049404,-7.34e-4 -0.0495,-0.0015 -0.00475,-0.0353 z m 5.1820625,-0.07758 c -0.060965,-0.06736 -0.05019,-0.183833 0.021345,-0.230704 0.056043,-0.03673 0.065987,-0.03679 0.1411917,-9.5e-4 0.068484,0.03266 0.080903,0.05072 0.080903,0.117675 0,0.138808 -0.1551983,0.211455 -0.2434386,0.113952 z m -4.4180678,-0.06112 c -0.00906,-0.0091 -0.168461,-0.03138 -0.2566724,-0.03594 -0.02864,-0.0015 -0.029321,-0.0056 -0.00363,-0.02191 0.017431,-0.01105 0.1256217,-0.01473 0.2404199,-0.0082 0.1699185,0.0097 0.2199304,0.0046 0.2690013,-0.02759 0.033367,-0.02187 0.073111,-0.03144 0.089027,-0.02146 0.015814,0.0099 0.046345,0.01515 0.067847,0.01162 0.021502,-0.0036 0.045953,0.0047 0.054336,0.01823 0.00894,0.01446 -0.00724,0.02471 -0.039094,0.02481 -0.029884,8e-5 -0.084667,0.01597 -0.1217387,0.03529 -0.060933,0.03178 -0.2749191,0.04973 -0.2995215,0.02513 z m 0.4728182,-0.189171 c 0,-0.006 0.023829,-0.02363 0.052947,-0.03915 0.04801,-0.02558 0.049936,-0.02456 0.02065,0.01094 -0.03007,0.03646 -0.073597,0.05314 -0.073597,0.02821 z"
           id="path10" /></g></g></g></svg>
