<?xml version="1.0" encoding="UTF-8" standalone="no"?>
<svg
   width="143"
   height="30"
   viewBox="0 0 143 30"
   fill="none"
   version="1.1"
   id="svg3"
   xml:space="preserve"
   xmlns="http://www.w3.org/2000/svg"
   xmlns:svg="http://www.w3.org/2000/svg"><defs
     id="defs3"><linearGradient
       id="swatch7"><stop
         style="stop-color:#ffffff;stop-opacity:1;"
         offset="0"
         id="stop7" /></linearGradient></defs><g
     id="g5"><g
       id="g7"
       transform="translate(3.4359901)"><g
         id="g10"><g
           id="g24"
           transform="translate(-9.2399236)"><g
             id="g35"><g
               id="g37"><path
                 d="m 27.650845,15 c 0,-8.3527728 4.663731,-15.12403533 10.416731,-15.12403533 h 78.472704 c 5.75283,0 10.41674,6.77126253 10.41674,15.12403533 v 0 c 0,8.352803 -4.66391,15.124035 -10.41674,15.124035 H 38.067576 c -5.753,0 -10.416731,-6.771232 -10.416731,-15.124035 z"
                 fill="#1b1b1b"
                 id="path1"
                 style="fill:#39594d;fill-opacity:1;stroke-width:0.836774" /><text
                 xml:space="preserve"
                 style="font-style:normal;font-variant:normal;font-weight:bold;font-stretch:normal;font-size:18.6667px;font-family:Roboto;-inkscape-font-specification:'Roboto, Bold';font-variant-ligatures:normal;font-variant-caps:normal;font-variant-numeric:normal;font-variant-east-asian:normal;text-align:start;writing-mode:lr-tb;direction:ltr;text-anchor:start;fill:#ffffff;fill-opacity:1"
                 x="58.371578"
                 y="21.300026"
                 id="text3"><tspan
                   id="tspan3"
                   x="58.371578"
                   y="21.300026"
                   style="font-style:normal;font-variant:normal;font-weight:bold;font-stretch:normal;font-size:18.6667px;font-family:Roboto;-inkscape-font-specification:'Roboto, Bold';font-variant-ligatures:normal;font-variant-caps:normal;font-variant-numeric:normal;font-variant-east-asian:normal;fill:#ffffff;fill-opacity:1">Cohere</tspan></text><path
                 fill-rule="evenodd"
                 clip-rule="evenodd"
                 d="m 42.311514,16.621 c 0.45757,0 1.36777,-0.0251 2.62589,-0.5431 1.46611,-0.60362 4.38298,-1.69938 6.48718,-2.8249 1.4716,-0.78722 2.1167,-1.82837 2.1167,-3.23046 0,-1.9459302 -1.5775,-3.5234402 -3.5234,-3.5234402 h -8.15315 c -2.79509,0 -5.06095,2.26586 -5.06095,5.0609502 0,2.79509 2.12151,5.06095 5.50773,5.06095 z"
                 fill="#39594d"
                 id="path2"
                 style="stroke:#ffffff;stroke-width:0.4;stroke-dasharray:none;stroke-opacity:1" /><path
                 fill-rule="evenodd"
                 clip-rule="evenodd"
                 d="m 43.690504,20.1061 c 0,-1.3701 0.82483,-2.6054 2.09027,-3.1306 l 2.56761,-1.0656 c 2.5971,-1.07786 5.4557,0.8307 5.4557,3.6427 0,2.1785 -1.7664,3.9444 -3.945,3.9438 l -2.7799,-7e-4 c -1.87168,-5e-4 -3.38868,-1.5179 -3.38868,-3.3896 z"
                 fill="#d18ee2"
                 id="path3"
                 style="stroke:none;stroke-width:1;stroke-dasharray:none;stroke-opacity:1" /><path
                 d="m 39.721274,17.2882 h -5e-5 c -1.61126,0 -2.91744,1.3061 -2.91744,2.9174 v 0.3779 c 0,1.6112 1.30618,2.9174 2.91744,2.9174 h 5e-5 c 1.61126,0 2.91744,-1.3062 2.91744,-2.9174 v -0.3779 c 0,-1.6113 -1.30618,-2.9174 -2.91744,-2.9174 z"
                 fill="#ff7759"
                 id="path4"
                 style="stroke:none;stroke-width:1;stroke-dasharray:none;stroke-opacity:1" /></g></g></g></g></g></g></svg>
