<?xml version="1.0" encoding="UTF-8" standalone="no"?>
<svg
   width="143"
   height="30"
   viewBox="0 0 143 30"
   fill="none"
   version="1.1"
   id="svg3"
   xml:space="preserve"
   xmlns="http://www.w3.org/2000/svg"
   xmlns:svg="http://www.w3.org/2000/svg"><defs
     id="defs3"><clipPath
       clipPathUnits="userSpaceOnUse"
       id="clipPath22"><rect
         style="fill:#04363d;fill-opacity:1;stroke:none;stroke-width:0.07;stroke-opacity:1"
         id="rect23"
         width="31.350243"
         height="31.074028"
         x="27.207039"
         y="-51.375729" /></clipPath></defs><g
     id="g23"
     transform="translate(11.376958)"><path
       d="m 16.641985,15 c 0,-8.28427 4.084015,-15 9.121902,-15 h 68.718327 c 5.037721,0 9.121886,6.71573 9.121886,15 v 0 c 0,8.2843 -4.084165,15 -9.121886,15 H 25.763886 C 20.726,30 16.641985,23.2843 16.641985,15 Z"
       fill="#1B1B1B"
       id="path1"
       style="fill:#04363d;fill-opacity:1;stroke-width:0.779826" /><text
       xml:space="preserve"
       style="font-style:normal;font-variant:normal;font-weight:bold;font-stretch:normal;font-size:16px;font-family:Roboto;-inkscape-font-specification:'Roboto, Bold';font-variant-ligatures:normal;font-variant-caps:normal;font-variant-numeric:normal;font-variant-east-asian:normal;text-align:start;writing-mode:lr-tb;direction:ltr;text-anchor:start;fill:#ffffff;fill-opacity:1;stroke:#ffffff;stroke-width:0.07"
       x="52.384182"
       y="20.521687"
       id="text3"><tspan
         id="tspan3"
         x="52.384182"
         y="20.521687">Coqui</tspan></text><path
       style="fill:#ffffff;fill-opacity:1"
       d="m 36.800486,-24.17396 c -5.063284,-3.095696 -5.85415,-4.762573 -6.087754,-12.830911 -0.180849,-6.246248 0.104906,-7.844562 1.684986,-9.424642 2.454729,-2.454729 5.386883,-2.418653 7.902768,0.09723 1.1,1.1 2.45,2 3,2 0.55,0 1.9,-0.9 3,-2 2.515885,-2.515885 5.448039,-2.551961 7.902768,-0.09723 2.711616,2.711616 2.387746,16.013749 -0.466684,19.167858 -4.565538,5.044863 -11.628768,6.332593 -16.936084,3.087695 z m 14.350373,-1.89593 c 3.481801,-2.59954 4.244348,-4.918635 1.056288,-3.212438 -2.950713,1.579174 -14.785239,1.620582 -17.697621,0.06192 -2.647057,-1.416662 -2.918996,-0.06435 -0.438477,2.180487 4.485788,4.059583 12.343927,4.505877 17.07981,0.970029 z m 1.149627,-4.626451 c 1.684603,-0.783603 2.5,-1.973891 2.5,-3.649415 0,-2.143297 -0.39678,-2.444098 -2.874487,-2.179161 -3.033916,0.324412 -7.625513,-2.976304 -7.625513,-5.481678 0,-2.20092 -1.383777,-1.432209 -3.53335,1.962834 -1.650422,2.60668 -2.686205,3.21148 -5.5,3.21148 -2.753171,0 -3.528035,0.429634 -3.764907,2.087505 -0.376724,2.636696 1.403413,4.120071 6.376568,5.313547 4.372015,1.049212 10.625682,0.500623 14.421689,-1.265112 z m -13,-1.63594 c 0,-0.55 0.45,-1 1,-1 0.55,0 1,0.45 1,1 0,0.55 -0.45,1 -1,1 -0.55,0 -1,-0.45 -1,-1 z m 6,0 c 0,-0.55 0.45,-1 1,-1 0.55,0 1,0.45 1,1 0,0.55 -0.45,1 -1,1 -0.55,0 -1,-0.45 -1,-1 z m -10.055975,-6.844242 c -1.474241,-1.193769 -2.050373,-2.436236 -1.633465,-3.522681 1.097813,-2.860855 3.826143,-3.182479 5.845198,-0.689052 1.014333,1.252649 1.844242,1.700623 1.844242,0.9955 0,-1.8317 -3.036553,-4.939525 -4.826247,-4.939525 -2.026734,0 -5.173753,2.935643 -5.173753,4.826247 0,1.997956 2.925366,5.173753 4.765772,5.173753 0.977345,0 0.707277,-0.606114 -0.821747,-1.844242 z m 18.227234,0.189254 c 1.005808,-0.910243 1.828741,-2.337309 1.828741,-3.171259 0,-2.026734 -2.935643,-5.173753 -4.826247,-5.173753 -1.997956,0 -5.173753,2.925366 -5.173753,4.765772 0,0.977345 0.606114,0.707277 1.844242,-0.821747 2.019055,-2.493427 4.747385,-2.171803 5.845198,0.689052 0.416908,1.086445 -0.159224,2.328912 -1.633465,3.522681 -1.252649,1.014333 -1.700623,1.844242 -0.9955,1.844242 0.705124,0 2.104977,-0.744744 3.110784,-1.654988 z m 46.710325,13.978312 c -0.0651,-0.452828 -0.0651,-1.160824 0,-1.573324 0.0651,-0.4125 -1.477043,-0.75 -3.427043,-0.75 -7.21,0 -11.113375,-8.153527 -6.14009,-12.825686 4.42536,-4.157411 11.672463,-2.292676 12.924923,3.325686 0.40116,1.799528 0.55568,1.734088 1.54156,-0.652861 1.41801,-3.433204 2.70414,-4.172523 4.17516,-2.400051 0.85861,1.034562 0.8902,1.971606 0.11529,3.419544 -0.82112,1.53427 -0.70528,2.356611 0.50203,3.563922 3.29523,3.295226 7.57623,0.388041 5.65094,-3.837499 -1.01578,-2.229387 -0.0817,-4.593055 1.81513,-4.593055 0.95511,0 2.96052,4.804352 2.96052,7.092508 0,2.967049 -4.43018,6.907492 -7.76599,6.907492 -2.87135,0 -7.10428,-3.031842 -7.3842,-5.288955 -0.0826,-0.666075 -0.42011,0.80993 -0.75,3.280011 -0.42529,3.184357 -1.10898,4.587731 -2.34981,4.823324 -0.9625,0.182748 -1.80329,-0.03823 -1.86842,-0.491056 z m -1.381583,-9.823324 c 0,-2.50552 -0.43913,-3.05079 -2.66416,-3.308139 -1.98569,-0.229667 -2.83439,0.228216 -3.33262,1.797988 -0.85256,2.686172 1.18884,5.197096 3.90927,4.808408 1.58651,-0.226675 2.08751,-1.018256 2.08751,-3.298257 z m -37.045456,5.045455 c -5.939719,-5.93972 0.12272,-15.557673 7.934345,-12.587699 4.308786,1.638198 3.106078,4.542244 -1.881166,4.542244 -3.014569,0 -4.04647,0.429773 -4.317161,1.798039 -0.570505,2.883745 1.746448,4.874706 4.873578,4.187873 3.168751,-0.695974 4.686505,0.904689 2.899504,3.057893 -1.892395,2.280197 -6.739438,1.771311 -9.5091,-0.99835 z m 12.719769,0.140094 c -3.788713,-4.032901 -2.708833,-10.13688 2.155176,-12.182042 5.740883,-2.413861 10.67051,0.985512 10.67051,7.358171 0,6.153874 -8.553828,9.371055 -12.825686,4.823871 z m 7.785817,-3.13751 c 2.082357,-2.509086 0.845014,-5.048039 -2.460131,-5.048039 -2.066258,0 -3.078188,0.548224 -3.318881,1.798039 -0.39704,2.061666 1.466613,4.701961 3.318881,4.701961 0.690311,0 1.79737,-0.653382 2.460131,-1.451961 z m 39.039873,-0.974715 c 0,-5.957716 0.19177,-6.573324 2.04772,-6.573324 1.87665,0 2.02284,0.521271 1.75,6.239957 -0.23883,5.005612 -0.64389,6.305901 -2.04772,6.573324 -1.52299,0.290123 -1.75,-0.519318 -1.75,-6.239957 z m 0.44615,-8.660456 c -1.03052,-1.667419 1.28721,-3.57951 2.66672,-2.2 1.15392,1.153924 0.43172,3.287132 -1.11287,3.287132 -0.48508,0 -1.18432,-0.48921 -1.55385,-1.087132 z"
       id="path22"
       clip-path="url(#clipPath22)"
       transform="matrix(0.67945286,0,0,0.67945286,6.1723019,38.998141)" /></g></svg>
