<?xml version="1.0" encoding="UTF-8" standalone="no"?>
<svg
   width="143"
   height="30"
   viewBox="0 0 143 30"
   fill="none"
   version="1.1"
   id="svg3"
   xml:space="preserve"
   xmlns="http://www.w3.org/2000/svg"
   xmlns:svg="http://www.w3.org/2000/svg"><defs
     id="defs3"><linearGradient
       id="swatch7"><stop
         style="stop-color:#ffffff;stop-opacity:1;"
         offset="0"
         id="stop7" /></linearGradient></defs><g
     id="g5"><g
       id="g7"
       transform="translate(3.4359901)"><g
         id="g10"><g
           id="g24"
           transform="translate(-9.2399236)"><path
             style="fill:#ffffff;fill-opacity:1;stroke:#ffffff;stroke-width:0.0176777;stroke-dasharray:none;stroke-opacity:1"
             d=""
             id="path38" /><path
             d="m 12.456397,15 c 0,-8.352773 6.090889,-15.1240353 13.604377,-15.1240353 H 128.54708 c 7.51327,0 13.60439,6.7712623 13.60439,15.1240353 v 0 c 0,8.352803 -6.09112,15.124035 -13.60439,15.124035 H 26.060774 C 18.547286,30.124035 12.456397,23.352803 12.456397,15 Z"
             fill="#1b1b1b"
             id="path1"
             style="fill:#ff3621;fill-opacity:1;stroke-width:0.956273" /><text
             xml:space="preserve"
             style="font-style:normal;font-variant:normal;font-weight:bold;font-stretch:normal;font-size:18.6667px;font-family:Roboto;-inkscape-font-specification:'Roboto, Bold';font-variant-ligatures:normal;font-variant-caps:normal;font-variant-numeric:normal;font-variant-east-asian:normal;text-align:start;writing-mode:lr-tb;direction:ltr;text-anchor:start;fill:#ffffff;fill-opacity:1"
             x="45.177128"
             y="21.300026"
             id="text3"><tspan
               id="tspan3"
               x="45.177128"
               y="21.300026"
               style="font-style:normal;font-variant:normal;font-weight:bold;font-stretch:normal;font-size:18.6667px;font-family:Roboto;-inkscape-font-specification:'Roboto, Bold';font-variant-ligatures:normal;font-variant-caps:normal;font-variant-numeric:normal;font-variant-east-asian:normal;fill:#ffffff;fill-opacity:1">databricks</tspan></text><path
             style="fill:#ffffff;fill-opacity:1;stroke:#ffffff;stroke-width:0.318;stroke-dasharray:none;stroke-opacity:1"
             d="m 30.502738,24.244457 c -0.13794,-0.02936 -8.513566,-4.651126 -8.619157,-4.756148 -0.0504,-0.05012 0.0837,-0.389364 0.148091,-0.374615 0.02577,0.0059 0.185162,0.09597 0.3542,0.200138 0.169038,0.104173 2.038432,1.153629 4.154209,2.332124 3.686627,2.053463 3.856606,2.142718 4.080636,2.142718 0.223008,0 0.361652,-0.07152 3.011933,-1.553889 3.612219,-2.020396 5.210606,-2.926464 5.274573,-2.989967 0.03358,-0.03333 0.0627,-0.401631 0.08311,-1.050995 l 0.03142,-0.99968 -0.208314,-0.07956 -0.208315,-0.07955 -1.346157,0.73718 c -0.740387,0.405448 -2.505671,1.385142 -3.922854,2.177097 -1.788847,0.999651 -2.618341,1.439919 -2.712898,1.439919 -0.09518,0 -1.435813,-0.719374 -4.450566,-2.38813 l -4.314363,-2.388131 -0.0013,-1.641132 c -0.0012,-1.570376 0.0024,-1.641131 0.08291,-1.641131 0.04632,0 1.976635,1.059117 4.289579,2.353596 3.642946,2.038835 4.230261,2.353672 4.391599,2.354175 0.162368,5.05e-4 0.707992,-0.292108 4.255626,-2.282256 l 4.069379,-2.282837 0.03862,-1.027689 0.03862,-1.027688 -0.119347,-0.118875 -0.119347,-0.118875 -0.869996,0.448017 c -0.478499,0.246408 -1.226519,0.656168 -1.662268,0.910576 -0.435749,0.254409 -1.240468,0.707505 -1.788268,1.006881 -0.547798,0.299377 -1.625863,0.892972 -2.3957,1.319099 -0.769836,0.426128 -1.426256,0.774779 -1.458711,0.774779 -0.0433,0 -8.553052,-4.700162 -8.657897,-4.781986 -0.0094,-0.0074 -0.03135,-0.0914 -0.04879,-0.186824 l -0.03176,-0.173504 4.273999,-2.374876 c 2.94493,-1.6363698 4.323904,-2.3793482 4.434481,-2.3892583 0.139063,-0.012467 0.588271,0.2232039 3.365496,1.7656308 2.968502,1.6486605 3.303122,1.8514045 3.303122,2.0013415 0,0.0074 -0.07895,0.03699 -0.175452,0.06591 l -0.175452,0.05256 -3.078918,-1.7168558 -3.078919,-1.7168559 -0.191951,0.043127 c -0.106755,0.023981 -1.877352,0.9717981 -3.989247,2.1354667 l -3.797297,2.09234 0.0011,0.226396 0.0011,0.226395 3.917941,2.190298 c 3.534675,1.976037 3.928561,2.185457 4.026536,2.140817 0.05973,-0.02722 0.990424,-0.547089 2.06821,-1.155278 4.478314,-2.527086 6.291075,-3.515381 6.448021,-3.515381 h 0.152032 v 1.578812 1.578813 l -4.273153,2.356366 c -2.350234,1.296001 -4.341663,2.375017 -4.425397,2.397812 -0.145226,0.03953 -0.332475,-0.0586 -4.061478,-2.128356 l -3.909234,-2.1698 -0.210574,0.03837 -0.210573,0.03837 -0.03652,0.935799 c -0.03586,0.918773 -0.03471,0.938533 0.06306,1.086206 0.08111,0.122524 0.835921,0.56377 4.071419,2.380085 3.84468,2.158289 3.979483,2.229675 4.210454,2.229675 0.230816,0 0.376415,-0.07689 4.457593,-2.354175 2.32044,-1.294797 4.242952,-2.354176 4.272248,-2.354176 0.04009,0 0.05033,0.410191 0.04139,1.657788 l -0.01187,1.657789 -4.27826,2.376271 c -2.353044,1.306948 -4.308821,2.382388 -4.346171,2.389865 -0.03735,0.0075 -0.139213,-0.0015 -0.226363,-0.02013 z"
             id="path39" /></g></g></g></g></svg>
