<?xml version="1.0" encoding="UTF-8" standalone="no"?>
<svg
   width="143"
   height="30"
   viewBox="0 0 143 30"
   fill="none"
   version="1.1"
   id="svg3"
   xml:space="preserve"
   xmlns="http://www.w3.org/2000/svg"
   xmlns:svg="http://www.w3.org/2000/svg"><defs
     id="defs3"><style
       id="style1">
      .cls-1 {
        fill: #0d3c48;
        stroke-width: 0px;
      }
    </style><clipPath
       clipPathUnits="userSpaceOnUse"
       id="clipPath45"><rect
         style="fill:#131315;fill-opacity:1;stroke:none;stroke-width:0.07;stroke-opacity:1"
         id="rect46"
         width="21.191406"
         height="25.78125"
         x="-2.4354365"
         y="0.6562205" /></clipPath></defs><g
     id="g46"><path
       d="m 7.2270397,15 c 0,-8.28427 5.4819843,-15 12.2443573,-15 h 92.240823 c 6.76215,0 12.24433,6.71573 12.24433,15 v 0 c 0,8.2843 -5.48218,15 -12.24433,15 H 19.471396 C 12.709024,30 7.2270397,23.2843 7.2270397,15 Z"
       fill="#1B1B1B"
       id="path1"
       style="mix-blend-mode:normal;fill:#131315;fill-opacity:1;stroke-width:0.90349" /><text
       xml:space="preserve"
       style="font-style:normal;font-variant:normal;font-weight:bold;font-stretch:normal;font-size:16px;font-family:Roboto;-inkscape-font-specification:'Roboto, Bold';font-variant-ligatures:normal;font-variant-caps:normal;font-variant-numeric:normal;font-variant-east-asian:normal;text-align:start;writing-mode:lr-tb;direction:ltr;text-anchor:start;mix-blend-mode:normal;fill:#ffffff;fill-opacity:1;stroke:#ffffff;stroke-width:0.07"
       x="40.969231"
       y="20.521687"
       id="text3"><tspan
         id="tspan3"
         x="40.969231"
         y="20.521687"
         style="fill:#ffffff;fill-opacity:1">Deepgram</tspan></text><g
       style="fill:none"
       id="g44"
       transform="matrix(0.73069668,0,0,0.73069668,18.939344,6.4152337)"
       clip-path="url(#clipPath45)"><path
         fill-rule="evenodd"
         clip-rule="evenodd"
         d="m 14.8062,5.4196 c 1.8338,1.86131 2.82,4.32159 2.7813,6.9268 V 12.3432 C 17.507,17.589 13.0948,21.8558 7.75438,21.8558 H 0.251389 c -0.141809,0 -0.2127138,-0.1706 -0.112803,-0.2737 L 3.79017,17.9142 C 3.8514,17.853 3.93198,17.8176 4.019,17.8176 h 3.80628 c 3.06182,0 5.62722,-2.4474 5.71752,-5.4519 C 13.5879,10.8329 13.0239,9.38375 11.9539,8.28242 10.8838,7.18109 9.44964,6.57567 7.91875,6.57567 H 4.04478 v 6.25373 c 0,0.0548 -0.0419,0.0966 -0.09669,0.0966 H 0.096688 C 0.0418981,12.926 0,12.8842 0,12.8294 V 2.63084 C 0,2.5761 0.0418981,2.53424 0.096688,2.53424 H 7.91875 c 2.60735,0 5.05355,1.02404 6.88745,2.88536 z m 10.9966,2.29643 c -4.7184,0 -6.8713,3.61317 -6.8713,7.14257 l -0.0032,0.0032 c 0,3.5036 2.4301,7.1973 7.1485,7.1973 3.3776,0 6.0011,-1.8806 6.6005,-4.8175 0.0129,-0.0612 -0.0354,-0.1192 -0.0967,-0.1192 h -3.5613 c -0.0419,0 -0.0774,0.029 -0.0902,0.0709 -0.3256,1.1399 -1.3376,1.7228 -2.8523,1.7228 -1.9306,0 -3.1714,-1.214 -3.4486,-3.172 h 9.9009 c 0.0515,0 0.0934,-0.0354 0.0967,-0.0869 0.0257,-0.2963 0.0483,-0.6795 0.0483,-1.1561 0,-3.1719 -2.1529,-6.78507 -6.8713,-6.78507 z m 0,2.81127 c 1.85,0 2.9264,1.2398 3.036,2.7856 H 22.683 c 0.332,-1.9322 1.3827,-2.7856 3.1198,-2.7856 z m 8.5534,4.3313 c 0,-3.5294 2.1529,-7.14257 6.8713,-7.14257 4.7184,0 6.8713,3.61317 6.8713,6.78507 0,0.4766 -0.0226,0.8598 -0.0483,1.1561 -0.0033,0.0515 -0.0452,0.0869 -0.0967,0.0869 h -9.9009 c 0.2772,1.958 1.518,3.172 3.4486,3.172 1.5147,0 2.5267,-0.5829 2.8523,-1.7228 0.0128,-0.0419 0.0483,-0.0709 0.0902,-0.0709 h 3.5613 c 0.0613,0 0.1096,0.058 0.0967,0.1192 -0.5994,2.9369 -3.2229,4.8175 -6.6005,4.8175 -4.7184,0 -7.1485,-3.6937 -7.1485,-7.1973 z m 9.9073,-1.5457 c -0.1096,-1.5458 -1.186,-2.7856 -3.036,-2.7856 -1.7372,0 -2.7878,0.8534 -3.1198,2.7856 z m 9.7113,-5.37467 h -3.642 V 7.93178 c -0.0547,0 -0.0966,0.04187 -0.0966,0.09662 v 19.3312 c 0,0.0548 0.0419,0.0967 0.0966,0.0967 h 3.642 c 0.0547,0 0.0966,-0.0419 0.0966,-0.0967 v -6.7689 c 0.7445,0.9371 2.0982,1.4619 3.671,1.4619 4.0029,0 6.7069,-2.8402 6.7069,-7.1683 0,-4.328 -2.4849,-7.16827 -6.404,-7.16827 -1.7951,0 -3.1456,0.66337 -3.9739,1.73894 V 8.03483 c 0,-0.05474 -0.0419,-0.0966 -0.0966,-0.0966 z m 6.665,6.94937 c 0,2.3153 -1.3504,3.8611 -3.3938,3.8611 -2.0401,0 -3.3937,-1.52 -3.3937,-3.8611 0,-2.3412 1.3536,-3.8869 3.3937,-3.8869 2.0402,0 3.3938,1.5715 3.3938,3.8869 z m 9.417,9.6606 c 0.0612,-0.0612 0.1418,-0.0934 0.2288,-0.0934 h 3.9127 c 1.186,0 2.0143,-0.9371 2.0143,-2.2059 v -1.8194 c -0.7187,1.0208 -2.1819,1.6262 -3.8095,1.6262 -4.1125,0 -6.5683,-2.8403 -6.5683,-7.1683 0,-4.328 2.4558,-7.16831 6.5135,-7.16831 1.7114,0 3.0618,0.63439 3.8643,1.60047 V 8.03789 c 0,-0.05474 0.0419,-0.09661 0.0967,-0.09661 h 3.6419 c 0.0548,0 0.0967,0.04187 0.0967,0.09661 V 22.6676 c 0,2.8692 -2.0691,4.7981 -5.2147,4.7981 h -7.2935 c -0.145,0 -0.2159,-0.1738 -0.1128,-0.2737 l 2.6299,-2.6374 z m 2.9554,-5.8029 c 2.0982,0 3.4228,-1.5168 3.4228,-3.8611 0,-2.3444 -1.3246,-3.8869 -3.4228,-3.8869 -2.0981,0 -3.3937,1.5457 -3.3937,3.8869 0,2.3411 1.3536,3.8611 3.3937,3.8611 z M 86.71,21.7365 V 15.077 h 0.0032 c 0,-2.3733 0.8541,-3.9448 2.7589,-3.9448 h 2.1948 c 0.0548,0 0.0967,-0.0419 0.0967,-0.0966 V 8.03108 c 0,-0.05475 -0.0419,-0.09662 -0.0967,-0.09662 h -1.4503 c -1.7114,0 -2.7621,0.57643 -3.5066,2.31534 V 8.03108 c 0,-0.05475 -0.0419,-0.09662 -0.0967,-0.09662 h -3.6419 c -0.0548,0 -0.0967,0.04187 -0.0967,0.09662 V 21.7365 c 0,0.0548 0.0419,0.0966 0.0967,0.0966 h 3.6419 c 0.0548,0 0.0967,-0.0418 0.0967,-0.0966 z m 6.2814,-3.8448 c 0,-2.7308 2.0433,-4.386 5.1051,-4.386 h 2.3175 c 0.69,0 1.047,-0.4411 1.047,-1.0208 0,-1.1593 -0.883,-1.9579 -2.4556,-1.9579 -1.5728,0 -2.5203,0.995 -2.5913,2.1157 0,0.0515 -0.0419,0.0902 -0.0934,0.0902 h -3.2262 c -0.058,0 -0.1031,-0.0483 -0.0999,-0.1063 0.1902,-2.73723 2.443,-4.91413 6.2042,-4.91413 3.5322,0 6.0982,2.04165 6.0982,5.18463 v 8.8364 c 0,0.0548 -0.042,0.0966 -0.097,0.0966 h -3.642 c -0.055,0 -0.097,-0.0418 -0.097,-0.0966 v -1.8323 c -0.47,1.2945 -2.0141,2.1511 -3.9188,2.1511 -2.6783,0 -4.554,-1.7937 -4.554,-4.1638 z m 5.5467,1.3783 c 1.8499,0 2.9259,-1.3783 2.9259,-3.143 v -0.1932 h -2.7873 c -1.1861,0 -1.9886,0.7181 -1.9886,1.7937 0,0.9113 0.7735,1.5457 1.85,1.5457 z M 111.375,7.93823 h -3.642 l 0.006,-0.00322 c -0.054,0 -0.096,0.04187 -0.096,0.09661 V 21.7371 c 0,0.0547 0.042,0.0966 0.096,0.0966 h 3.642 c 0.055,0 0.097,-0.0419 0.097,-0.0966 v -7.7899 c 0,-1.7936 1.018,-2.9787 2.62,-2.9787 1.489,0 2.456,1.1851 2.456,2.9787 v 7.7899 c 0,0.0547 0.042,0.0966 0.097,0.0966 h 3.642 c 0.054,0 0.096,-0.0419 0.096,-0.0966 v -7.7899 c 0,-1.7936 1.019,-2.9787 2.621,-2.9787 1.489,0 2.455,1.1851 2.455,2.9787 v 7.7899 c 0,0.0547 0.042,0.0966 0.097,0.0966 h 3.642 c 0.055,0 0.097,-0.0419 0.097,-0.0966 v -9.0039 c 0,-2.78231 -1.96,-5.01717 -4.967,-5.01717 -2.233,0 -3.974,1.18506 -4.663,2.53757 -0.664,-1.65522 -2.073,-2.53757 -4.251,-2.53757 -1.879,0 -3.204,0.91133 -3.948,2.18012 V 8.03483 c 0,-0.05474 -0.042,-0.0966 -0.097,-0.0966 z"
         fill="#ffffff"
         id="path1-8" /></g></g></svg>
