<?xml version="1.0" encoding="UTF-8" standalone="no"?>
<svg
   width="143"
   height="30"
   viewBox="0 0 143 30"
   fill="none"
   version="1.1"
   id="svg3"
   xml:space="preserve"
   xmlns="http://www.w3.org/2000/svg"
   xmlns:svg="http://www.w3.org/2000/svg"><defs
     id="defs3"><linearGradient
       id="swatch7"><stop
         style="stop-color:#ffffff;stop-opacity:1;"
         offset="0"
         id="stop7" /></linearGradient></defs><g
     id="g5"><g
       id="g7"
       transform="translate(3.4359901)"><g
         id="g10"><g
           id="g24"
           transform="translate(-9.2399236)"><g
             id="g26"><path
               d="m 14.123691,15 c 0,-8.3527728 6.020732,-15.12403533 13.447678,-15.12403533 H 128.87721 c 7.42672,0 13.44768,6.77126253 13.44768,15.12403533 v 0 c 0,8.352803 -6.02096,15.124035 -13.44768,15.124035 H 27.571369 C 20.144423,30.124035 14.123691,23.352803 14.123691,15 Z"
               fill="#1b1b1b"
               id="path1"
               style="fill:#4f6bfe;fill-opacity:1;stroke-width:0.95075" /><text
               xml:space="preserve"
               style="font-style:normal;font-variant:normal;font-weight:bold;font-stretch:normal;font-size:18.6667px;font-family:Roboto;-inkscape-font-specification:'Roboto, Bold';font-variant-ligatures:normal;font-variant-caps:normal;font-variant-numeric:normal;font-variant-east-asian:normal;text-align:start;writing-mode:lr-tb;direction:ltr;text-anchor:start;fill:#ffffff;fill-opacity:1"
               x="51.124355"
               y="21.104025"
               id="text3"><tspan
                 id="tspan3"
                 x="51.124355"
                 y="21.104025"
                 style="font-style:normal;font-variant:normal;font-weight:bold;font-stretch:normal;font-size:18.6667px;font-family:Roboto;-inkscape-font-specification:'Roboto, Bold';font-variant-ligatures:normal;font-variant-caps:normal;font-variant-numeric:normal;font-variant-east-asian:normal;fill:#ffffff;fill-opacity:1">Deepseek</tspan></text><path
               style="fill:#ffffff;fill-opacity:1;stroke:#ffffff;stroke-width:0.0487224;stroke-dasharray:none;stroke-opacity:1"
               d="m 29.493925,22.865128 c -1.564422,-0.267588 -2.806357,-0.83367 -4.09997,-1.868792 -1.786207,-1.429285 -2.882521,-3.3095 -3.255146,-5.58268 -0.09771,-0.596074 -0.08594,-2.064055 0.02097,-2.615568 0.227638,-1.174298 0.681932,-2.155009 1.42213,-3.0700318 0.974698,-1.2049092 2.23961,-1.9190214 3.818359,-2.1556737 0.601318,-0.090137 1.711988,-0.086851 2.393013,0.00708 l 0.537978,0.074201 0.459898,-0.1648597 c 0.252944,-0.090673 0.588774,-0.2109186 0.746291,-0.2672126 0.970992,-0.3470188 2.020647,-0.4412025 2.36952,-0.2126127 0.132737,0.086973 0.124923,0.134114 -0.03603,0.2173444 -0.202701,0.1048208 -0.512202,0.406261 -0.606098,0.5903122 -0.209975,0.4115838 -0.04227,0.9085677 0.421865,1.2502041 0.146496,0.107831 0.439351,0.3221696 0.650788,0.4763081 0.225841,0.1646382 0.858734,0.7487857 1.534159,1.4159977 0.652354,0.644421 1.299878,1.243138 1.496815,1.383993 0.447441,0.320022 0.890316,0.542482 1.079976,0.542482 0.136442,0 0.155039,-0.01593 0.215232,-0.18439 0.175233,-0.490407 0.294283,-0.909061 0.273734,-0.962613 -0.01253,-0.03264 -0.165663,-0.173324 -0.340306,-0.312632 -0.591113,-0.471515 -0.959027,-0.929112 -1.215911,-1.5123006 -0.428069,-0.9718184 -0.405913,-2.2364407 0.0552,-3.1508661 0.12737,-0.2525848 0.211804,-0.3186553 0.350827,-0.2745309 0.100454,0.031883 0.171889,0.1707331 0.289096,0.5619261 0.160038,0.5341468 0.369636,0.736676 1.148308,1.1095783 0.467366,0.2238194 0.783924,0.5196842 0.950396,0.8882684 0.06414,0.1420217 0.127968,0.3119113 0.141831,0.3775325 0.03312,0.1568042 0.117722,0.1505944 0.316281,-0.023216 0.254637,-0.2228983 0.487771,-0.3582541 0.829138,-0.4813923 0.265242,-0.095678 0.388351,-0.113715 0.778852,-0.1141104 0.737603,-7.468e-4 0.967559,-0.098466 1.55975,-0.662815 0.197108,-0.18784 0.382582,-0.3334289 0.412166,-0.3235309 0.04052,0.013556 0.05379,0.2429355 0.05379,0.9296688 v 0.9116723 l -0.205779,0.4079158 c -0.368974,0.731417 -0.831648,1.200514 -1.55135,1.572886 -0.43034,0.222657 -0.666972,0.302787 -1.167451,0.395334 -0.200646,0.0371 -0.392202,0.09019 -0.425681,0.117977 -0.04788,0.03974 -0.05482,0.129891 -0.03252,0.422617 0.06573,0.862695 -0.468546,2.975612 -1.061987,4.199845 -0.403871,0.833162 -0.900988,1.543821 -1.692706,2.419828 -0.412658,0.456592 -0.458964,0.526847 -0.396694,0.601879 0.02699,0.03252 0.229413,0.123329 0.449838,0.201807 0.220425,0.07848 0.635056,0.248683 0.921403,0.378234 0.286348,0.129551 0.551003,0.244922 0.588123,0.256382 0.08813,0.02721 0.170035,0.24777 0.138365,0.372601 -0.103282,0.407106 -0.537522,0.549747 -1.690946,0.555449 -0.763917,0.0038 -1.254965,-0.06208 -1.788978,-0.239919 l -0.342337,-0.114009 -0.296015,0.239509 c -0.954123,0.771991 -2.143762,1.252789 -3.548157,1.434003 -0.723435,0.09335 -2.068963,0.08373 -2.670036,-0.01908 z m 6.178945,-1.719133 c 0.109707,-0.0421 0.07991,-0.11749 -0.09247,-0.23398 -0.289488,-0.195629 -0.938413,-0.760825 -1.30007,-1.132328 -0.533423,-0.547944 -1.109034,-1.291353 -1.890506,-2.441614 -1.099766,-1.618763 -1.71508,-2.333218 -2.700662,-3.135798 -1.103562,-0.898655 -2.741693,-1.618439 -4.173359,-1.833749 -0.399001,-0.06001 -1.200069,-0.06042 -1.497215,-7.74e-4 -0.509896,0.102353 -0.582685,0.187862 -0.56672,0.66575 0.0574,1.718135 0.742435,3.658189 1.789802,5.068816 0.78733,1.060401 2.090283,2.116108 2.968579,2.405266 0.274928,0.09051 0.440096,0.116266 0.763046,0.11897 0.441004,0.0037 0.635321,-0.05791 0.790828,-0.250701 0.119844,-0.14858 0.09047,-0.312058 -0.122383,-0.68108 -0.43074,-0.746778 -0.396319,-1.241539 0.08016,-1.152152 0.410477,0.07701 1.287183,0.615578 2.556647,1.57058 0.968821,0.728832 1.227458,0.862526 1.922752,0.99391 0.311095,0.05879 1.348293,0.08619 1.471573,0.03888 z m 0.970749,-5.103061 c 0.329946,-0.121472 0.413352,-0.223809 0.380928,-0.467388 -0.06823,-0.512554 -1.111287,-1.910827 -1.713829,-2.297478 -0.643682,-0.41305 -1.369896,-0.398988 -1.621251,0.03139 -0.0782,0.133896 -0.07875,0.147976 -0.0099,0.253069 0.08786,0.134091 0.310864,0.234195 0.521719,0.234195 0.208483,0 0.407006,0.09086 0.564017,0.258142 l 0.130158,0.138671 -0.01336,0.492735 c -0.01644,0.60629 0.06038,0.830738 0.37509,1.095962 0.472626,0.398309 0.830073,0.465524 1.386414,0.260701 z m -2.304114,-1.342669 c 0.1287,-0.120907 0.13139,-0.322654 0.0061,-0.45604 -0.195642,-0.208251 -0.556454,-0.07012 -0.556454,0.213027 0,0.293439 0.33789,0.442631 0.550375,0.243013 z"
               id="path26" /></g></g></g></g></g></svg>
