<?xml version="1.0" encoding="UTF-8" standalone="no"?>
<svg
   width="168"
   height="30"
   viewBox="0 0 168 30"
   fill="none"
   version="1.1"
   id="svg5"
   xml:space="preserve"
   xmlns="http://www.w3.org/2000/svg"
   xmlns:svg="http://www.w3.org/2000/svg"><defs
     id="defs5" /><g
     id="g2"
     transform="translate(7.782946)"><path
       d="m 16.600298,15 c 0,-8.28427 4.76631,-15 10.645851,-15 h 97.941811 c 5.87935,0 10.64585,6.71573 10.64585,15 v 0 c 0,8.2843 -4.76649,15 -10.64585,15 H 27.246149 C 21.366608,30 16.600298,23.2843 16.600298,15 Z"
       fill="#BFC2FF"
       id="path1"
       style="fill:#4c7ee9;fill-opacity:1;stroke-width:0.842452" /><text
       xml:space="preserve"
       style="font-style:normal;font-variant:normal;font-weight:900;font-stretch:normal;font-size:14.6667px;font-family:Roboto;-inkscape-font-specification:'Roboto, Heavy';font-variant-ligatures:normal;font-variant-caps:normal;font-variant-numeric:normal;font-variant-east-asian:normal;fill:#fefeff;fill-opacity:1;stroke-width:1.00157;stroke-linejoin:round"
       x="48.11911"
       y="20.503416"
       id="text5"><tspan
         id="tspan5"
         x="48.11911"
         y="20.503416"
         style="font-style:normal;font-variant:normal;font-weight:900;font-stretch:normal;font-size:14.6667px;font-family:Roboto;-inkscape-font-specification:'Roboto, Heavy';font-variant-ligatures:normal;font-variant-caps:normal;font-variant-numeric:normal;font-variant-east-asian:normal;fill:#fefeff;fill-opacity:1">DeepCogito</tspan></text><path
       style="fill:#ffffff;fill-opacity:1;stroke-width:0.4785"
       d="m 29.60762,19.563607 c -1.187141,-1.488275 -2.236455,-2.909266 -2.33181,-3.157758 -0.25539,-0.665535 2.394961,-6.8463523 3.015615,-7.0326423 2.8588,-0.858072 6.828382,-1.7628566 7.072444,-1.6120188 0.168,0.1038316 1.309887,1.5956248 2.537513,3.3150951 l 2.232059,3.126311 -1.280821,3.14786 c -0.704452,1.731324 -1.409719,3.276762 -1.567265,3.434307 -0.260288,0.260286 -5.890709,1.436758 -7.038101,1.470605 -0.264659,0.0078 -1.452495,-1.203484 -2.639634,-2.691759 z m 8.205304,1.009121 c 0.164705,-0.0538 -0.597355,-0.642599 -1.693459,-1.30845 -1.096112,-0.665851 -2.047265,-1.156301 -2.113676,-1.089891 -0.117094,0.117094 -1.436838,3.116175 -1.436838,3.265173 0,0.07992 4.748538,-0.705016 5.243973,-0.866832 z m -4.810795,-2.753577 c -0.243708,-0.217871 -3.606762,-0.97259 -4.333897,-0.97259 -0.156921,0 0.477108,0.997457 1.408954,2.216572 l 1.694265,2.216573 0.752178,-1.607945 c 0.413698,-0.88437 0.629022,-1.718044 0.4785,-1.85261 z m 6.074945,-0.692368 c 0.120811,-1.600378 0.164248,-2.965187 0.09652,-3.03291 -0.166064,-0.166068 -4.372432,3.032139 -4.3687,3.321631 0.0029,0.217132 3.45142,2.534551 3.859034,2.593212 0.106414,0.01532 0.292331,-1.281555 0.413142,-2.881933 z m 1.475917,-0.780992 c 0.662487,-1.632265 0.679429,-1.81848 0.208268,-2.289636 -0.430654,-0.430657 -0.536637,-0.43987 -0.661174,-0.05748 -0.156923,0.481842 -0.454709,4.123886 -0.337179,4.123886 0.03791,0 0.393462,-0.799546 0.790085,-1.77677 z M 32.825933,14.85281 c -0.362655,-1.272012 -0.729174,-2.63602 -0.814486,-3.031129 -0.136773,-0.633445 -0.361782,-0.457176 -1.903116,1.490871 -0.961402,1.215088 -1.741413,2.327884 -1.733358,2.47288 0.0081,0.144996 1.134433,0.499229 2.503062,0.787184 1.368629,0.287955 2.515158,0.539167 2.547844,0.55825 0.03269,0.01908 -0.237291,-1.006043 -0.599946,-2.278056 z m 5.763017,-1.391126 c 0.371595,-0.281096 -0.17358,-0.568274 -2.636412,-1.388769 -1.707686,-0.568915 -3.177765,-0.96151 -3.266843,-0.872432 -0.130362,0.130362 0.657083,3.239918 1.333952,5.26767 0.09435,0.282673 0.784557,-0.08076 2.12036,-1.1165 1.089257,-0.844576 2.191287,-1.695062 2.448943,-1.889969 z m -8.447188,-1.303225 c 1.004529,-1.289356 1.09604,-1.5379 0.656748,-1.78374 -0.280726,-0.157102 -0.545531,-0.236595 -0.588456,-0.17665 -0.192136,0.268317 -1.423193,3.458491 -1.334598,3.458491 0.05453,0 0.624368,-0.674145 1.266306,-1.498101 z m 7.868606,-1.974421 -0.980364,-1.9420833 -2.060779,1.016217 c -1.133428,0.558919 -2.018823,1.0581713 -1.967545,1.1094493 0.166153,0.166154 5.784535,1.919696 5.88841,1.837821 0.05535,-0.04362 -0.340526,-0.953259 -0.879722,-2.021404 z M 32.568951,9.6349297 c 0,-0.06895 -0.215325,-0.12537 -0.4785,-0.12537 -0.263174,0 -0.4785,0.139044 -0.4785,0.308988 0,0.169944 0.215326,0.2263613 0.4785,0.125371 0.263175,-0.10099 0.4785,-0.240035 0.4785,-0.308989 z"
       id="path2" /></g></svg>
