<?xml version="1.0" encoding="UTF-8" standalone="no"?>
<svg
   width="143"
   height="30"
   viewBox="0 0 143 30"
   fill="none"
   version="1.1"
   id="svg3"
   xml:space="preserve"
   xmlns:xlink="http://www.w3.org/1999/xlink"
   xmlns="http://www.w3.org/2000/svg"
   xmlns:svg="http://www.w3.org/2000/svg"><defs
     id="defs3"><linearGradient
       id="linearGradient2"><stop
         style="stop-color:#a569ff;stop-opacity:1;"
         offset="0"
         id="stop2" /><stop
         style="stop-color:#37e1be;stop-opacity:1;"
         offset="0.5"
         id="stop4" /><stop
         style="stop-color:#1e37ff;stop-opacity:1;"
         offset="1"
         id="stop3" /></linearGradient><linearGradient
       xlink:href="#linearGradient2"
       id="linearGradient3"
       x1="21.519421"
       y1="15"
       x2="121.48058"
       y2="15"
       gradientUnits="userSpaceOnUse" /></defs><g
     id="g4"><path
       d="m 21.51942,15 c 0,-8.28427 4.694491,-15 10.485437,-15 h 78.990293 c 5.79076,0 10.48543,6.71573 10.48543,15 v 0 c 0,8.2843 -4.69467,15 -10.48543,15 H 32.004857 C 26.213911,30 21.51942,23.2843 21.51942,15 Z"
       fill="#1B1B1B"
       id="path1"
       style="fill:url(#linearGradient3);fill-opacity:1;stroke-width:0.83608" /><text
       xml:space="preserve"
       style="font-style:normal;font-variant:normal;font-weight:bold;font-stretch:normal;font-size:16px;font-family:Roboto;-inkscape-font-specification:'Roboto, Bold';font-variant-ligatures:normal;font-variant-caps:normal;font-variant-numeric:normal;font-variant-east-asian:normal;text-align:start;writing-mode:lr-tb;direction:ltr;text-anchor:start;fill:#ffffff;fill-opacity:1;stroke:#0a0a0a;stroke-width:0.07;stroke-opacity:1"
       x="55.261608"
       y="19.838688"
       id="text3"><tspan
         id="tspan3"
         x="55.261608"
         y="19.838688"
         style="stroke:#0a0a0a;stroke-opacity:1">Doubao</tspan></text><path
       style="fill:#ffffff;fill-opacity:1;stroke-width:0.533601"
       d="m 34.13138,23.798854 c -2.07142,-1.123128 -2.510024,-2.669708 -2.510024,-8.85065 V 9.5841506 l 2.071627,-2.0716291 c 1.744802,-1.7447998 2.423073,-2.0716291 4.299282,-2.0716291 2.057589,0 2.551213,0.3153274 6.465995,4.1304812 2.331086,2.2717644 4.238342,4.5648344 4.238342,5.0957124 0,2.904906 -4.193989,7.145441 -8.754632,8.851796 -3.55089,1.328559 -3.850069,1.342975 -5.81059,0.279972 z m 6.019943,-1.812222 c 1.497227,-0.801289 3.147608,-7.758168 2.339842,-9.863166 -0.649803,-1.69336 -5.209902,-0.302507 -6.62676,2.021195 -2.804705,4.599821 0.171643,10.044398 4.286918,7.841971 z"
       id="path2" /></g></svg>
