<?xml version="1.0" encoding="UTF-8" standalone="no"?>
<svg
   width="168"
   height="30"
   viewBox="0 0 168 30"
   fill="none"
   version="1.1"
   id="svg5"
   xml:space="preserve"
   xmlns="http://www.w3.org/2000/svg"
   xmlns:svg="http://www.w3.org/2000/svg"><defs
     id="defs5" /><g
     id="g3"><path
       d="m 43.672106,15 c 0,-8.28427 3.224181,-15 7.20141,-15 h 66.252964 c 3.9771,0 7.20141,6.71573 7.20141,15 v 0 c 0,8.2843 -3.22431,15 -7.20141,15 H 50.873516 c -3.977229,0 -7.20141,-6.7157 -7.20141,-15 z"
       fill="#BFC2FF"
       id="path1"
       style="fill:#ac77fd;fill-opacity:1;stroke-width:0.692888" /><text
       xml:space="preserve"
       style="font-style:normal;font-variant:normal;font-weight:900;font-stretch:normal;font-size:14.6667px;font-family:Roboto;-inkscape-font-specification:'Roboto, Heavy';font-variant-ligatures:normal;font-variant-caps:normal;font-variant-numeric:normal;font-variant-east-asian:normal;fill:#fefeff;fill-opacity:1;stroke-width:1.00157;stroke-linejoin:round"
       x="77.614548"
       y="20.503593"
       id="text5"><tspan
         id="tspan5"
         x="77.614548"
         y="20.503593"
         style="font-style:normal;font-variant:normal;font-weight:900;font-stretch:normal;font-size:14.6667px;font-family:Roboto;-inkscape-font-specification:'Roboto, Heavy';font-variant-ligatures:normal;font-variant-caps:normal;font-variant-numeric:normal;font-variant-east-asian:normal;fill:#fefeff;fill-opacity:1">fal.ai</tspan></text><path
       style="fill:#ffffff;fill-opacity:1"
       d="m 59.08504,23.771577 c -0.09317,-0.06035 -0.27911,-0.539556 -0.413202,-1.064892 -0.613297,-2.402732 -2.041158,-3.825389 -4.458651,-4.442401 -0.51332,-0.131013 -0.98269,-0.314435 -1.043045,-0.407605 -0.146588,-0.226287 -0.141455,-5.496588 0.0056,-5.727973 0.06342,-0.09981 0.48248,-0.2594 0.931237,-0.354647 2.339173,-0.496481 4.143893,-2.297809 4.640459,-4.631735 0.0944,-0.44369 0.247097,-0.85609 0.339328,-0.916445 0.09223,-0.06036 1.425587,-0.110765 2.963013,-0.112023 3.123567,-0.0026 2.973621,-0.05532 3.184873,1.120693 0.269354,1.499453 1.56036,3.268409 2.874673,3.938922 0.338509,0.172694 1.072376,0.433625 1.630817,0.579846 l 1.015346,0.265857 0.04048,2.939143 c 0.04531,3.290279 0.10595,3.104876 -1.086024,3.320491 -2.066038,0.373723 -3.962092,2.237498 -4.463703,4.387715 -0.115168,0.49368 -0.25414,0.969997 -0.308827,1.058482 -0.113691,0.183956 -5.573203,0.227403 -5.85235,0.04657 z m 4.045916,-3.548972 c 1.850465,-0.300074 3.535592,-1.958653 4.073422,-4.009248 0.766187,-2.92126 -1.305427,-6.01906 -4.357338,-6.515772 -2.326699,-0.37868 -4.702178,0.906482 -5.730274,3.100146 -0.342817,0.731474 -0.401516,1.053755 -0.401516,2.204482 0,1.221869 0.04586,1.440877 0.490922,2.344621 0.540464,1.097458 1.436635,1.993221 2.517704,2.516558 0.670329,0.3245 1.960889,0.580092 2.517843,0.498652 0.1643,-0.02403 0.564457,-0.08677 0.889237,-0.139439 z"
       id="path3" /></g></svg>
