<?xml version="1.0" encoding="UTF-8" standalone="no"?>
<svg
   width="168"
   height="30"
   viewBox="0 0 168 30"
   fill="none"
   version="1.1"
   id="svg5"
   xml:space="preserve"
   xmlns:xlink="http://www.w3.org/1999/xlink"
   xmlns="http://www.w3.org/2000/svg"
   xmlns:svg="http://www.w3.org/2000/svg"><defs
     id="defs5"><linearGradient
       id="linearGradient2"><stop
         style="stop-color:#454443;stop-opacity:1;"
         offset="0.30410448"
         id="stop2" /><stop
         style="stop-color:#000000;stop-opacity:1;"
         offset="1"
         id="stop3" /></linearGradient><linearGradient
       xlink:href="#linearGradient2"
       id="linearGradient3"
       x1="15.524396"
       y1="15"
       x2="133.33614"
       y2="15"
       gradientUnits="userSpaceOnUse"
       gradientTransform="translate(9.569737)" /></defs><g
     id="g4"><g
       id="g5"><path
         d="m 25.094133,15 c 0,-8.28427 4.709473,-15 10.518905,-15 h 96.773922 c 5.80925,0 10.51891,6.71573 10.51891,15 v 0 c 0,8.2843 -4.70966,15 -10.51891,15 H 35.613038 C 29.803606,30 25.094133,23.2843 25.094133,15 Z"
         fill="#BFC2FF"
         id="path1"
         style="fill:url(#linearGradient3);fill-opacity:1;stroke-width:0.837412" /><text
         xml:space="preserve"
         style="font-style:normal;font-variant:normal;font-weight:900;font-stretch:normal;font-size:14.6667px;font-family:Roboto;-inkscape-font-specification:'Roboto, Heavy';font-variant-ligatures:normal;font-variant-caps:normal;font-variant-numeric:normal;font-variant-east-asian:normal;fill:#fefeff;fill-opacity:1;stroke-width:1.00157;stroke-linejoin:round"
         x="65.036575"
         y="20.503593"
         id="text5"><tspan
           id="tspan5"
           x="65.036575"
           y="20.503593"
           style="font-style:normal;font-variant:normal;font-weight:900;font-stretch:normal;font-size:14.6667px;font-family:Roboto;-inkscape-font-specification:'Roboto, Heavy';font-variant-ligatures:normal;font-variant-caps:normal;font-variant-numeric:normal;font-variant-east-asian:normal;fill:#fefeff;fill-opacity:1">Fish Audio</tspan></text><path
         style="fill:#ffffff;fill-opacity:1;stroke-width:0.393571"
         d="m 40.929094,17.126897 v -2.951782 h 0.590357 0.590355 v 2.951782 2.95178 h -0.590355 -0.590357 z m 1.967853,-0.557559 v -3.181363 h 0.606913 0.60691 l -0.114947,3.018587 c -0.07534,1.978589 -0.284445,3.07467 -0.606911,3.181364 l -0.491965,0.162776 z m 1.967854,-0.787141 v -3.574935 h 0.605679 0.605679 l -0.113715,3.411983 c -0.07647,2.294761 -0.274805,3.465339 -0.605679,3.574935 l -0.491964,0.162951 z m 3.738924,3.115768 c -0.286995,-0.464364 0.08528,-1.180713 0.613582,-1.180713 0.203689,0 0.370343,0.354215 0.370343,0.787142 0,0.830075 -0.572599,1.059115 -0.983925,0.393571 z m 1.771067,-0.983927 c 0,-0.962062 0.178044,-1.377498 0.590356,-1.377498 0.412313,0 0.590357,0.415436 0.590357,1.377498 0,0.962062 -0.178044,1.377497 -0.590357,1.377497 -0.412312,0 -0.590356,-0.415434 -0.590356,-1.377497 z m 1.967854,-0.229582 c 0,-2.050603 0.930623,-1.914626 1.106077,0.161612 l 0.122151,1.445467 H 52.95676 52.342646 Z m -5.739376,0.680123 c -0.109772,-0.286063 -0.147344,-1.921317 -0.08349,-3.633895 l 0.116093,-3.113778 h 0.590356 0.590355 l 0.11302,3.396024 0.11302,3.396023 -0.619881,0.237872 c -0.342067,0.131263 -0.709332,0.0048 -0.81947,-0.282246 z m 7.707229,-1.073694 c 0,-2.050603 0.930623,-1.914626 1.106079,0.161612 l 0.12215,1.445468 H 54.924614 54.310499 Z M 39.115397,17.94487 c -0.4039,-1.052547 0.01953,-3.179398 0.632984,-3.179398 0.410138,0 0.626557,0.495399 0.708943,1.62282 l 0.118586,1.622818 -0.625447,0.240007 c -0.356091,0.136646 -0.715723,0.0048 -0.835066,-0.306247 z m 16.842842,-1.082842 c 0.178186,-1.804261 1.107256,-1.93977 1.107256,-0.161499 0,1.016617 -0.171757,1.410294 -0.615292,1.410294 H 55.83491 Z M 48.406938,14.175115 V 11.02655 h 0.590358 0.590354 v 3.148565 3.148567 h -0.590354 -0.590358 z m -11.334799,0.09839 0.118033,-2.263031 h 0.590356 0.590357 l 0.118032,2.263031 0.118035,2.263032 h -0.826424 -0.826423 z m 20.780497,1.47589 c 0,-0.4373 0.262381,-0.787141 0.590357,-0.787141 0.327975,0 0.590355,0.349841 0.590355,0.787141 0,0.437302 -0.26238,0.787142 -0.590355,0.787142 -0.327976,0 -0.590357,-0.34984 -0.590357,-0.787142 z m -7.477844,-2.361423 v -2.754996 h 0.590356 0.590357 v 2.754996 2.754994 h -0.590357 -0.590356 z m 1.967854,-0.196786 v -2.558208 h 0.590356 0.590356 v 2.558209 2.55821 H 52.933002 52.342646 Z M 54.310499,12.9944 v -2.427019 l 0.491964,0.163989 c 0.311577,0.103853 0.491964,0.933636 0.491964,2.26303 0,1.329395 -0.180387,2.159174 -0.491964,2.263032 l -0.491964,0.163988 z m 1.649753,0.131667 0.121316,-1.902734 h 0.590356 0.590357 v 1.765678 1.765678 l -0.711674,0.137056 -0.71167,0.137056 z m 1.892384,0.261905 c 0,-0.787142 0.196786,-1.180713 0.590357,-1.180713 0.393571,0 0.590355,0.39357 0.590355,1.180713 0,0.78714 -0.196784,1.180711 -0.590355,1.180711 -0.393571,0 -0.590357,-0.393571 -0.590357,-1.180711 z m -22.664986,0.24836 c -0.295398,-0.769794 0.107073,-1.429073 0.87241,-1.429073 0.386395,0 0.550477,0.299193 0.468737,0.854707 -0.152716,1.037853 -1.020652,1.40956 -1.341147,0.574366 z m -1.7364,-1.035503 c 0,-0.507267 0.199308,-0.7863 0.491964,-0.688748 0.27058,0.0902 0.491962,0.40013 0.491962,0.688748 0,0.28862 -0.221382,0.598556 -0.491962,0.68875 -0.292656,0.09755 -0.491964,-0.18148 -0.491964,-0.68875 z m 5.674959,-0.05148 c -0.33545,-0.54277 0.434986,-1.291373 0.981451,-0.95364 0.235325,0.14544 0.427864,0.412142 0.427864,0.59267 0,0.523549 -1.129966,0.812968 -1.409315,0.36097 z"
         id="path4" /></g></g></svg>
