<?xml version="1.0" encoding="UTF-8" standalone="no"?>
<svg
   width="106.18362"
   height="30"
   viewBox="0 0 106.18362 30"
   fill="none"
   version="1.1"
   id="svg5"
   xml:space="preserve"
   xmlns:xlink="http://www.w3.org/1999/xlink"
   xmlns="http://www.w3.org/2000/svg"
   xmlns:svg="http://www.w3.org/2000/svg"><defs
     id="defs5"><linearGradient
       id="linearGradient1"><stop
         style="stop-color:#1571fb;stop-opacity:1;"
         offset="0"
         id="stop1" /><stop
         style="stop-color:#3590fd;stop-opacity:1;"
         offset="1"
         id="stop2" /></linearGradient><linearGradient
       xlink:href="#linearGradient1"
       id="linearGradient2"
       x1="-9.9999994e-08"
       y1="15"
       x2="106.18362"
       y2="15"
       gradientUnits="userSpaceOnUse" /></defs><g
     id="g2"><path
       d="M -9.9999999e-8,15 C -9.9999999e-8,6.71573 4.2446454,0 9.4806814,0 H 96.702932 c 5.235868,0 9.480688,6.71573 9.480688,15 v 0 c 0,8.2843 -4.24482,15 -9.480688,15 H 9.4806814 C 4.2446454,30 -9.9999999e-8,23.2843 -9.9999999e-8,15 Z"
       fill="#BFC2FF"
       id="path1"
       style="fill:url(#linearGradient2);fill-opacity:1;stroke-width:0.795013" /><text
       xml:space="preserve"
       style="font-style:normal;font-variant:normal;font-weight:900;font-stretch:normal;font-size:14.6667px;font-family:Roboto;-inkscape-font-specification:'Roboto, Heavy';font-variant-ligatures:normal;font-variant-caps:normal;font-variant-numeric:normal;font-variant-east-asian:normal;fill:#fefeff;fill-opacity:1;stroke-width:1.00157;stroke-linejoin:round"
       x="33.677971"
       y="20.503416"
       id="text5"><tspan
         id="tspan5"
         x="33.677971"
         y="20.503416"
         style="font-style:normal;font-variant:normal;font-weight:900;font-stretch:normal;font-size:14.6667px;font-family:Roboto;-inkscape-font-specification:'Roboto, Heavy';font-variant-ligatures:normal;font-variant-caps:normal;font-variant-numeric:normal;font-variant-east-asian:normal;fill:#fefeff;fill-opacity:1">FlagOpen</tspan></text><path
       style="fill:#ffffff;fill-opacity:1;stroke-width:0.385678"
       d="M 12.460461,24.080298 C 10.281504,23.30408 8.9860893,21.617013 8.9787266,19.545907 8.9728599,17.88179 9.3303993,17.663636 11.078314,18.265006 l 1.409689,0.485005 0.551601,-1.874888 c 1.100879,-3.741878 4.195467,-7.0531532 8.62373,-9.2275738 2.754456,-1.3525279 5.556099,-2.3281659 5.836565,-2.0325132 0.191469,0.2018379 -1.06896,6.44209 -1.413944,7.000286 -0.0946,0.153069 -0.510081,0.278307 -0.923285,0.278307 -0.806475,0 -0.854346,0.09003 -1.22266,2.299389 l -0.190436,1.142356 -2.438012,0.02073 c -2.080413,0.01768 -2.656759,0.122329 -3.929357,0.713439 -1.799206,0.835715 -3.060539,1.702274 -2.886846,1.983315 0.2482,0.401595 5.855715,1.081445 9.277031,1.124741 2.90171,0.03672 3.457917,0.105914 3.397192,0.422628 -0.160412,0.836644 -4.91438,2.888292 -8.108827,3.499491 -2.396162,0.458461 -5.282665,0.449971 -6.600294,-0.01941 z m 8.417042,-1.013253 c 1.24359,-0.365383 3.002774,-1.039402 3.909299,-1.497821 l 1.648226,-0.833489 -3.176336,-0.05579 c -3.286468,-0.05772 -8.147866,-0.6579 -9.352738,-1.154664 C 13.527,19.36904 13.038221,19.26254 12.819779,19.288617 c -0.218443,0.02607 -0.898284,-0.129395 -1.510756,-0.345489 -1.6415793,-0.579182 -1.8202894,-0.52691 -1.8202894,0.532439 0,1.882581 1.3605914,3.587915 3.3425364,4.189459 1.4764,0.448103 5.504823,0.14872 8.046233,-0.597981 z m -2.389632,-8.843077 c 0.919198,-0.44792 2.537443,-1.032629 3.596099,-1.299357 1.805377,-0.454861 1.935003,-0.534696 2.088752,-1.286442 0.151214,-0.739356 0.110262,-0.801485 -0.528292,-0.801485 -0.963066,0 -3.242146,0.705576 -4.757084,1.472737 -1.638263,0.829612 -4.015124,3.210887 -4.850586,4.859594 l -0.654164,1.290929 1.717003,-1.710789 c 1.097972,-1.093997 2.319547,-2.004404 3.388272,-2.525187 z m 0.898919,1.727698 c 0.847942,-0.153558 2.072154,-0.208831 2.720471,-0.122829 l 1.178757,0.156368 0.256882,-1.417229 c 0.249675,-1.377465 0.240505,-1.417229 -0.326804,-1.417229 -0.933261,0 -4.227982,1.28 -5.628139,2.186532 -0.707074,0.457797 -1.63069,1.199936 -2.052479,1.649199 l -0.766889,0.816841 1.538243,-0.786228 c 0.846035,-0.432426 2.232014,-0.911867 3.079958,-1.065425 z m -1.449584,-3.548897 c 1.547419,-0.992976 3.789633,-1.775057 5.375699,-1.875034 l 1.217244,-0.07673 -0.05659,0.964194 c -0.0509,0.867316 0.0067,0.964192 0.573618,0.964192 0.443091,0 0.669336,-0.171769 0.761989,-0.578516 0.765048,-3.3585323 1.157297,-5.4272202 1.049507,-5.5350094 -0.07189,-0.07189 -0.85662,0.1322439 -1.74385,0.4536266 -3.922565,1.420876 -7.395675,3.6673898 -9.201309,5.9516868 -0.959395,1.213726 -2.05377,3.047217 -2.05377,3.440839 0,0.08441 0.63956,-0.537344 1.421246,-1.381656 0.781684,-0.844314 1.976982,-1.891731 2.656217,-2.327594 z"
       id="path2" /></g></svg>
