<?xml version="1.0" encoding="UTF-8" standalone="no"?>
<svg
   width="143"
   height="30"
   viewBox="0 0 143 30"
   fill="none"
   version="1.1"
   id="svg3"
   xml:space="preserve"
   xmlns:xlink="http://www.w3.org/1999/xlink"
   xmlns="http://www.w3.org/2000/svg"
   xmlns:svg="http://www.w3.org/2000/svg"><defs
     id="defs3"><linearGradient
       id="linearGradient11"><stop
         style="stop-color:#498ecd;stop-opacity:1;"
         offset="0.18166089"
         id="stop11" /><stop
         style="stop-color:#ceb231;stop-opacity:1;"
         offset="0.48269895"
         id="stop13" /><stop
         style="stop-color:#d64461;stop-opacity:1;"
         offset="0.79795849"
         id="stop12" /></linearGradient><clipPath
       clipPathUnits="userSpaceOnUse"
       id="clipPath10"><rect
         style="fill:#ffffff;fill-opacity:1;stroke:#ffffff;stroke-width:0.07;stroke-opacity:1"
         id="rect11"
         width="119.74515"
         height="118.70388"
         x="-141.34442"
         y="-123.91019"
         ry="0" /></clipPath><linearGradient
       xlink:href="#linearGradient11"
       id="linearGradient12"
       x1="105.87548"
       y1="15.000002"
       x2="-1.9073486e-06"
       y2="15.000002"
       gradientUnits="userSpaceOnUse" /></defs><g
     id="g5"
     transform="translate(8.958115)"><g
       id="g6"
       transform="translate(5.293085)"><g
         id="g7"><g
           id="g8"
           transform="translate(-6.275105)"><g
             id="g9"
             transform="translate(5.987255)"><g
               id="g13"
               transform="translate(4.59891)"><path
                 d="M 0,15 C 0,6.71573 4.9722458,0 11.105819,0 h 83.663832 c 6.133389,0 11.105829,6.71573 11.105829,15 v 0 c 0,8.2843 -4.97244,15 -11.105829,15 H 11.105819 C 4.9722458,30 0,23.2843 0,15 Z"
                 fill="#1b1b1b"
                 id="path1"
                 style="fill:url(#linearGradient12);fill-opacity:1;stroke-width:0.860458" /><text
                 xml:space="preserve"
                 style="font-style:normal;font-variant:normal;font-weight:bold;font-stretch:normal;font-size:18.6667px;font-family:Roboto;-inkscape-font-specification:'Roboto, Bold';font-variant-ligatures:normal;font-variant-caps:normal;font-variant-numeric:normal;font-variant-east-asian:normal;text-align:start;writing-mode:lr-tb;direction:ltr;text-anchor:start;fill:#ffffff;stroke-width:0.07"
                 x="37.037197"
                 y="21.241955"
                 id="text3"><tspan
                   id="tspan3"
                   x="37.037197"
                   y="21.241955">Genmo</tspan></text><path
                 style="fill:#ffffff;fill-opacity:1"
                 d="m -95.142956,-10.958504 c -1.925,-0.72833 -5.426954,-1.34964 -7.782124,-1.38069 -2.35516,-0.031 -5.87792,-0.72321 -7.82834,-1.53815 -1.95043,-0.81494 -6.79672,-1.88526 -10.76954,-2.37848 -7.67878,-0.95333 -14.96727,-3.99645 -15.99666,-6.679 -0.34284,-0.89341 -0.62334,-12.38758 -0.62334,-25.5426 0,-22.584875 0.11149,-24.029699 2,-25.918208 2.462,-2.462001 7.8258,-2.619428 14.28309,-0.419209 7.49343,2.553266 7.92584,2.164519 8.08167,-7.265465 0.12566,-7.604939 0.34328,-8.401797 3.07233,-11.250001 3.56865,-3.724453 7.01306,-3.945563 15.728182,-1.009651 3.356197,1.130621 6.717002,1.819744 7.468455,1.531385 0.99718,-0.382654 1.366277,-2.681242 1.366277,-8.508627 0,-9.38821 1.199401,-12.60369 5.224684,-14.00691 2.320027,-0.80877 4.149497,-0.6061 8.577506,0.95022 3.095671,1.08804 6.667831,1.97826 7.938134,1.97826 1.270303,0 4.870303,0.9 8,2 3.129697,1.1 6.934545,2 8.455217,2 1.520672,0 5.73653,1.22037 9.36858,2.71194 9.44694,3.87957 9.43588,3.84465 9.43588,29.786147 v 21.597409 l -2.64602,2.45225 c -3.07621,2.85093 -5.14473,3.00227 -13.015289,0.95225 -8.722059,-2.27181 -8.338692,-2.59716 -8.338692,7.07692 0,8.21275 -0.128469,8.7054 -3.025665,11.60259 -3.239289,3.23929 -5.852609,3.41257 -13.974335,0.92656 l -3.5,-1.07133 3.5,0.41815 c 1.925,0.22999 4.889083,0.71374 6.58685,1.075 2.440868,0.51939 3.696482,0.13302 6,-1.84629 2.750924,-2.36375 2.940994,-3.03197 3.41315,-11.99948 0.275,-5.22298 0.1625,-9.28658 -0.25,-9.03021 -0.4125,0.25637 -0.75,4.00276 -0.75,8.32532 0,9.35349 -0.412769,10.66774 -3.920047,12.48143 -2.070235,1.07056 -3.753422,1.15525 -7.419627,0.37332 -2.884668,-0.61524 -6.194719,-0.66892 -8.451134,-0.13706 l -3.709192,0.87429 -0.29595,7.93125 c -0.248245,6.65281 -0.69972,8.46062 -2.800891,11.21539 -2.082967,2.7309099 -3.128082,3.2640499 -6.20405,3.1648399 -2.03451,-0.0656 -5.274109,-0.7152199 -7.199109,-1.4435599 z m 10.940853,-5.78156 c 0.490244,-1.28944 0.635072,-6.08347 0.321842,-10.65341 l -0.56951,-8.30897 7.903408,0.6278 c 4.346874,0.34529 9.735322,0.91277 11.974329,1.26106 6.198621,0.96423 7.425536,-0.83278 7.444391,-10.90348 0.0084,-4.49821 0.397218,-8.7811 0.863991,-9.51752 0.619616,-0.97756 2.437339,-1.19507 6.734687,-0.8059 l 5.886009,0.53305 -5.759129,-1.05897 c -8.114892,-1.49213 -8.740871,-0.76931 -8.740871,10.09322 0,9.639 -0.75168,11.14869 -5.45,10.94591 -3.026926,-0.13064 -3.023521,-0.13632 0.45,-0.75 l 3.5,-0.61836 0.290118,-9.44587 c 0.159565,-5.19524 0.78619,-10.04361 1.392501,-10.77417 0.60631,-0.73056 0.817162,-1.61351 0.468558,-1.96211 -0.348604,-0.34861 -0.237633,-1.12523 0.246602,-1.72584 0.487578,-0.60475 0.542628,-4.85569 0.123374,-9.526942 -0.71115,-7.923488 -0.966724,-8.62708 -4.215019,-11.603921 -3.689716,-3.381372 -10.277838,-5.129934 -22.306134,-5.9203 -3.3,-0.216839 -7.35,-0.847097 -9,-1.400573 -2.455192,-0.82357 -1.974386,-0.904865 2.647574,-0.447653 7.153661,0.707652 7.852426,-0.368354 7.852426,-12.091697 0,-11.05853 0.654054,-11.51426 12.237367,-8.52662 4.544448,1.17213 10.737633,2.70344 13.762633,3.4029 15.482471,3.57997 19.098891,4.83305 21.028721,7.286445 1.80603,2.295989 1.97128,4.1134 1.97128,21.680082 0,13.797819 -0.35049,19.633879 -1.25,20.814129 -0.6875,0.90206 -3.05,1.81242 -5.25,2.02302 l -4.000001,0.38292 4.178571,0.1681 c 7.18817,0.28918 7.32143,-0.13412 7.32143,-23.257304 0,-19.655742 -0.0695,-20.356743 -2.25,-22.683342 -2.19717,-2.34442 -5.63564,-3.48593 -26.250001,-8.71449 -4.4,-1.11601 -10.156191,-2.57604 -12.791535,-3.24452 -3.580512,-0.90824 -5.412893,-0.93231 -7.25,-0.0953 -2.352167,1.07172 -2.459127,1.52102 -2.473777,10.39159 -0.0084,5.099291 -0.345923,9.787639 -0.75,10.418552 -0.461193,0.720089 -3.633953,1.102218 -8.522963,1.026512 -4.283552,-0.06633 -6.983552,-0.414768 -6,-0.774305 1.200798,-0.438952 0.174418,-0.903616 -3.124289,-1.414434 -6.64194,-1.02853 -7.58744,0.360569 -7.58744,11.147226 0,4.53742 -0.45,8.527969 -1,8.867888 -0.55,0.339918 -1,1.539621 -1,2.666005 0,1.54116 -0.43307,1.880777 -1.75,1.372357 -3.13263,-1.209399 -14.68774,-3.743801 -17.17201,-3.766364 -4.64693,-0.04221 -5.07799,2.015848 -5.07799,24.244819 0,20.35238 0.0321,20.66467 2.34455,22.83714 1.79481,1.68614 6.66013,3.10824 20.75,6.06508 22.606229,4.74405 26.607971,4.9936 27.846307,1.73653 z m -9.940853,0.7161 c -0.825,-0.28485 -2.4,-0.88697 -3.5,-1.33805 -1.1,-0.45108 -5.150004,-1.26577 -9.000004,-1.81042 -3.85,-0.54466 -8.8,-1.73706 -11,-2.64978 l -4,-1.6595 4.25,0.55486 c 4.62997,0.60446 5.44828,-0.48721 2.66806,-3.55933 -1.26602,-1.39893 -2.63518,-1.63932 -6.85574,-1.20372 -4.63702,0.47858 -5.45971,0.27886 -6.81364,-1.65416 -1.74789,-2.49546 -2.93565,-1.48256 -2.08335,1.77664 0.34993,1.33814 1.77454,2.52475 3.70176,3.08335 l 3.13291,0.90807 -3,0.0749 c -6.39403,0.15958 -7.1506,-2.63694 -6.9552,-25.70874 0.19023,-22.461312 -0.026,-22.043272 10.30195,-19.918256 7.24359,1.4904 13.78192,4.689606 11.2852,5.521846 -0.72997,0.24332 -2.60529,-0.50252 -4.16738,-1.65743 -3.80187,-2.810844 -13.04249,-3.947882 -14.80686,-1.821951 -1.69603,2.043591 -1.16163,11.292851 0.63133,10.927011 0.70898,-0.14465 2.04306,1.05078 2.96462,2.65651 1.22485,2.13418 2.6758,3.07947 5.39392,3.51411 2.69145,0.43039 3.91217,1.21567 4.42017,2.84349 0.386,1.2369 0.97866,2.47391 1.31703,2.74891 0.33837,0.275 1.09198,1.36467 1.67469,2.4215 0.58271,1.05682 1.93271,2.04174 3,2.18871 10.90215,1.50122 16.440534,4.72311 16.440534,9.5641 0,1.55413 0.3375,2.86319 0.75,2.90902 0.4125,0.0458 1.7625,0.19563 3,0.33288 1.553629,0.17231 2.25,-0.27983 2.25,-1.46089 0,-0.94074 0.65646,-2.25525 1.458799,-2.92113 1.964588,-1.63046 2.75506,1.57123 2.347321,9.50747 l -0.30612,5.95834 -3.5,0.19479 c -1.925,0.10713 -4.175,-0.0383 -5,-0.32312 z m 7,-2.37167 c 0,-0.55 -0.675,-1 -1.5,-1 -0.825,0 -1.5,0.45 -1.5,1 0,0.55 0.675,1 1.5,1 0.825,0 1.5,-0.45 1.5,-1 z m -41.000004,-19.44098 c 0,-2.44254 -0.45,-4.7191 -1,-5.05902 -0.61633,-0.38091 -1,1.32295 -1,4.44098 0,2.78246 0.45,5.05902 1,5.05902 0.55,0 1,-1.99844 1,-4.44098 z m 53.501426,1.37503 c -1.649218,-0.49172 -5.44016,-0.80087 -8.424315,-0.68699 -3.556859,0.13573 -5.566622,-0.2156 -5.834755,-1.02 -0.22496,-0.67488 -1.260642,-1.22706 -2.301515,-1.22706 -1.040874,0 -3.365874,-0.89832 -5.166667,-1.99626 -1.800793,-1.09794 -4.231574,-1.99794 -5.401724,-2 -2.90653,-0.005 -4.20412,-1.85123 -4.836,-6.88032 -0.75799,-6.03285 0.64035,-8.12342 5.43364,-8.12342 2.144843,0 5.05401,0.43886 6.464815,0.97525 3.248788,1.23519 3.278023,0.0431 0.07279,-2.96802 -1.783413,-1.67543 -4.028112,-2.46877 -7.891815,-2.78918 -5.88591,-0.4881 -8.10071,-2.76194 -6.54363,-6.718049 0.43295,-1.099999 0.81881,-5.847499 0.85747,-10.549999 0.0761,-9.262397 0.89225,-11.023218 5.02028,-10.831686 2.36576,0.109766 2.33324,0.164491 -0.45,0.757397 l -3,0.639081 -0.29015,8.826438 c -0.17638,5.365325 0.0806,8.597283 0.6554,8.242052 0.54497,-0.33681 0.70885,-4.037903 0.38682,-8.736162 l -0.55873,-8.151775 4.40333,0.680534 c 2.421835,0.374294 6.571968,1.389346 9.222518,2.255673 2.650551,0.866326 6.138051,1.38157 7.75,1.144986 2.813348,-0.412912 3.661077,0.159869 2.280255,1.54069 -0.853245,0.853245 -0.768075,14.196384 0.09958,15.600275 0.369133,0.59727 -0.818387,0.232179 -2.638932,-0.811312 -1.820546,-1.043492 -6.010083,-2.163696 -9.310083,-2.489343 -6.355408,-0.627157 -5.876088,-0.159946 3,2.924249 3.268887,1.135848 6.644558,3.419121 9.75,6.594811 3.977545,4.06753 4.75,4.51284 4.75,2.73833 0,-1.57959 0.318254,-1.85611 1.25,-1.08608 0.6875,0.56817 4.101782,1.77077 7.587293,2.67244 4.963984,1.28414 6.650334,1.3796 7.781854,0.44052 1.2381,-1.02753 1.290304,-0.79315 0.365261,1.63989 -0.593614,1.56133 -0.994317,6.36469 -0.89045,10.67415 0.103867,4.30945 -0.110002,8.13422 -0.475265,8.49948 -0.365263,0.36527 -2.791395,-0.0983 -5.391404,-1.03021 -5.300863,-1.8999 -7.227289,-2.10881 -7.227289,-0.78377 0,0.49537 1.6875,1.34886 3.75,1.89665 2.785524,0.73983 3.107016,1.00046 1.25,1.01339 -1.375,0.01 -3.84936,-0.38492 -5.498578,-0.87665 z m 0.007,-7.18405 c -2.310826,-12.90051 -2.280289,-12.83474 -2.398899,-5.16666 -0.06026,3.89583 0.190434,7.38333 0.557101,7.75 1.571972,1.57197 2.382486,0.43513 1.841798,-2.58334 z m -34.103476,-48.650111 c 2.25637,-2.487219 4.83236,-2.633071 10.595011,-0.599888 2.338299,0.825 5.207376,1.469628 6.375727,1.432507 2.382965,-0.07571 -5.918558,-2.654152 -11.481148,-3.566026 -3.08028,-0.50495 -3.99061,-0.175628 -6.25,2.261024 -2.46553,2.658968 -2.6329,3.42822 -2.47212,11.362277 l 0.17246,8.510219 0.57754,-8.650113 c 0.43631,-6.534748 1.0434,-9.163635 2.48253,-10.75 z m 69.398865,7.912939 c 1.96458,-1.637791 2.25911,-2.700569 2,-7.216731 -0.22409,-3.905926 -0.69759,-5.296096 -1.80385,-5.296096 -0.825,0 -1.6438,1.0125 -1.81956,2.25 -0.39321,2.768649 -0.63433,2.775058 -4.368464,0.116118 -2.230624,-1.588344 -2.660737,-2.341557 -1.682396,-2.946205 1.016571,-0.628275 0.905063,-0.969387 -0.492155,-1.50555 -2.084914,-0.800056 -11.927577,1.346096 -14.372494,3.133863 -1.535491,1.122778 -1.530935,1.396861 0.06367,3.83054 1.097828,1.675498 2.622765,2.621235 4.226564,2.621235 3.580018,0 8.695945,2.395701 10.415588,4.877441 1.813976,2.61788 4.7935,2.669377 7.833097,0.135385 z m 3.33698,-13.749678 c -0.91662,-1.712726 -4.10745,-2.727506 -21.140834,-6.723436 -3.025,-0.70965 -9.035667,-2.26152 -13.357038,-3.4486 -10.221898,-2.80796 -10.682853,-2.44504 -10.518206,8.28133 l 0.124756,8.127557 0.857244,-5.5 c 0.471484,-3.024997 0.62929,-6.522377 0.35068,-7.771957 -0.708194,-3.17629 1.430998,-3.68649 7.199464,-1.71711 2.663705,0.9094 8.2181,2.26668 12.3431,3.01618 8.937317,1.62388 21.002064,4.701344 22.750004,5.803056 0.69384,0.437323 1.33019,3.097473 1.43024,5.978848 l 0.18025,5.190984 0.37316,-4.715962 c 0.20523,-2.593778 -0.0615,-5.528179 -0.59282,-6.52089 z m -50.411667,7.132685 c -0.332292,-0.332292 -1.194792,-0.367818 -1.916667,-0.07895 -0.797732,0.319227 -0.560776,0.556183 0.604167,0.604167 1.054167,0.04342 1.644792,-0.192928 1.3125,-0.525219 z m 13.044648,-4.574391 c -0.542043,-1.626126 -3.530374,-3.398216 -4.34939,-2.579201 -0.369326,0.369326 -0.405033,1.36591 -0.07935,2.21463 0.685055,1.785225 5.021274,2.142179 4.428738,0.364571 z m 60.732589,56.198736 c -0.3456,-1.0889 -0.16461,-2.7764 0.4022,-3.75 0.84094,-1.44445 1.03617,-1.08014 1.06099,1.97982 0.0336,4.1449 -0.50332,4.79448 -1.46319,1.77018 z m -0.30665,-21.77018 c -2.51876,-6.64176 -2.39628,-22.231396 0.20259,-25.785558 0.85643,-1.171239 1.14467,2.076064 1.19801,13.496617 0.0386,8.271421 -0.0261,15.038941 -0.14374,15.038941 -0.11769,0 -0.68327,-1.2375 -1.25686,-2.75 z"
                 id="path9"
                 clip-path="url(#clipPath10)"
                 transform="matrix(0.17386355,0,0,0.17386355,33.798072,26.439098)" /></g></g></g></g></g></g></svg>
