<?xml version="1.0" encoding="UTF-8" standalone="no"?>
<svg
   width="143"
   height="30"
   viewBox="0 0 143 30"
   fill="none"
   version="1.1"
   id="svg3"
   xml:space="preserve"
   sodipodi:docname="Google.svg"
   inkscape:version="1.4 (86a8ad7, 2024-10-11)"
   xmlns:inkscape="http://www.inkscape.org/namespaces/inkscape"
   xmlns:sodipodi="http://sodipodi.sourceforge.net/DTD/sodipodi-0.dtd"
   xmlns="http://www.w3.org/2000/svg"
   xmlns:svg="http://www.w3.org/2000/svg"><sodipodi:namedview
     id="namedview1"
     pagecolor="#ffffff"
     bordercolor="#000000"
     borderopacity="0.25"
     inkscape:showpageshadow="2"
     inkscape:pageopacity="0.0"
     inkscape:pagecheckerboard="0"
     inkscape:deskcolor="#d1d1d1"
     inkscape:zoom="5.7622378"
     inkscape:cx="8.3300971"
     inkscape:cy="28.027306"
     inkscape:window-width="3440"
     inkscape:window-height="1417"
     inkscape:window-x="-8"
     inkscape:window-y="-8"
     inkscape:window-maximized="1"
     inkscape:current-layer="svg3" /><defs
     id="defs3" /><g
     id="g5"
     transform="translate(13.6826)"><g
       id="g6"><path
         d="M 3.1905598,15 C 3.1905598,6.7157301 8.3214563,1.2e-7 14.650735,1.2e-7 H 100.98406 C 107.31314,1.2e-7 112.44424,6.7157301 112.44424,15 v 0 c 0,8.2843 -5.1311,15 -11.46018,15 H 14.650735 C 8.3214563,30 3.1905598,23.2843 3.1905598,15 Z"
         fill="#1b1b1b"
         id="path1"
         style="fill:#6081ce;fill-opacity:1;stroke-width:0.874078" /><text
         xml:space="preserve"
         style="font-style:normal;font-variant:normal;font-weight:bold;font-stretch:normal;font-size:18.6667px;font-family:Roboto;-inkscape-font-specification:'Roboto, Bold';font-variant-ligatures:normal;font-variant-caps:normal;font-variant-numeric:normal;font-variant-east-asian:normal;text-align:start;writing-mode:lr-tb;direction:ltr;text-anchor:start;fill:#ffffff;fill-opacity:1"
         x="38.935474"
         y="21.104025"
         id="text3"><tspan
           id="tspan3"
           x="38.935474"
           y="21.104025"
           style="font-style:normal;font-variant:normal;font-weight:bold;font-stretch:normal;font-size:18.6667px;font-family:Roboto;-inkscape-font-specification:'Roboto, Bold';font-variant-ligatures:normal;font-variant-caps:normal;font-variant-numeric:normal;font-variant-east-asian:normal;fill:#ffffff;fill-opacity:1">Google</tspan></text><path
         style="fill:#ffffff;fill-opacity:1"
         id="path5"
         d="m 23.315645,46.140432 c -0.230861,-0.0084 -2.518653,-4.951498 -2.682006,-5.11485 -0.156167,-0.156166 -4.9343,-2.272706 -4.926257,-2.493412 0.0084,-0.230862 4.951499,-2.518654 5.11485,-2.682006 0.156167,-0.156168 2.272706,-4.934301 2.493413,-4.926258 0.230861,0.0084 2.518654,4.951499 2.682006,5.11485 0.156167,0.156167 4.9343,2.272706 4.926257,2.493413 -0.0084,0.230862 -4.951498,2.518654 -5.11485,2.682006 -0.156167,0.156167 -2.272706,4.934301 -2.493413,4.926257 z"
         transform="matrix(1.338708,0,0,1.338708,-8.74321,-36.857648)" /></g></g></svg>
