<?xml version="1.0" encoding="UTF-8" standalone="no"?>
<svg
   width="168"
   height="30"
   viewBox="0 0 168 30"
   fill="none"
   version="1.1"
   id="svg5"
   xml:space="preserve"
   xmlns="http://www.w3.org/2000/svg"
   xmlns:svg="http://www.w3.org/2000/svg"><defs
     id="defs5" /><g
     id="g3"><path
       d="m 32.198766,15 c 0,-8.28427 4.083583,-15 9.120941,-15 h 83.912643 c 5.03719,0 9.12094,6.71573 9.12094,15 v 0 c 0,8.2843 -4.08375,15 -9.12094,15 H 41.319707 c -5.037358,0 -9.120941,-6.7157 -9.120941,-15 z"
       fill="#BFC2FF"
       id="path1"
       style="fill:#0071bb;fill-opacity:1;stroke-width:0.779783" /><text
       xml:space="preserve"
       style="font-style:normal;font-variant:normal;font-weight:900;font-stretch:normal;font-size:14.6667px;font-family:Roboto;-inkscape-font-specification:'Roboto, Heavy';font-variant-ligatures:normal;font-variant-caps:normal;font-variant-numeric:normal;font-variant-east-asian:normal;fill:#fefeff;fill-opacity:1;stroke-width:1.00157;stroke-linejoin:round"
       x="72.141205"
       y="20.503593"
       id="text5"><tspan
         id="tspan5"
         x="72.141205"
         y="20.503593"
         style="font-style:normal;font-variant:normal;font-weight:900;font-stretch:normal;font-size:14.6667px;font-family:Roboto;-inkscape-font-specification:'Roboto, Heavy';font-variant-ligatures:normal;font-variant-caps:normal;font-variant-numeric:normal;font-variant-east-asian:normal;fill:#fefeff;fill-opacity:1">Gryphe</tspan></text><path
       style="fill:#ffffff;fill-opacity:1;stroke-width:0.167815"
       d="m 46.396957,24.721913 c -0.4708,-0.07667 -0.875514,-0.270473 -0.94545,-0.452727 -0.09795,-0.255249 0.231493,-0.687557 0.583267,-0.765402 1.228391,-0.271799 1.983419,-0.817838 2.669031,-1.930247 0.01241,-0.02017 0.395278,0.06796 0.850808,0.195782 0.45553,0.127824 1.089335,0.232405 1.408453,0.232405 0.988033,0 0.729328,0.297845 -0.66937,0.770629 -1.288737,0.435627 -1.580348,0.602869 -2.25227,1.291705 -0.593557,0.608503 -0.985282,0.765214 -1.644469,0.657855 z m 5.677739,-0.165178 c -0.656002,-0.239594 -0.209614,-0.931428 0.817998,-1.267771 1.124135,-0.367944 2.006887,-0.964527 2.006887,-1.356311 0,-0.254096 0.617303,-0.825937 0.891596,-0.825937 0.130651,0 0.449177,0.200679 0.707834,0.445955 0.258658,0.245275 0.56766,0.515685 0.686671,0.600914 0.205938,0.147475 0.195135,0.168364 -0.223753,0.432708 -0.242076,0.152764 -0.565555,0.317534 -0.718843,0.366148 -0.693953,0.220069 -1.407868,0.704507 -1.623197,1.101439 -0.159776,0.294533 -0.335711,0.443796 -0.615321,0.522049 -0.494162,0.138301 -1.526772,0.128029 -1.929872,-0.01923 z m 7.160104,-0.03947 c -0.580298,-0.32684 -0.248419,-0.993523 0.553143,-1.111154 1.47838,-0.21697 2.047989,-0.424492 2.047989,-0.746137 0,-0.207357 -1.20285,-0.434497 -2.30093,-0.434497 -1.362438,0 -2.167854,-0.218846 -2.571684,-0.698771 -0.420439,-0.499669 -0.383716,-1.371591 0.100278,-2.380997 0.483755,-1.008904 0.600279,-1.09965 1.332299,-1.037499 0.852484,0.07235 1.364418,0.362985 2.433148,1.381235 1.005527,0.958029 1.4708,1.282201 2.153624,1.50049 0.40235,0.128633 0.543825,0.36238 0.30766,0.50834 -0.198261,0.122536 -0.118981,0.391572 0.115388,0.391572 0.124997,0 0.255243,0.0729 0.289439,0.162016 0.147622,0.384698 -0.527463,1.01854 -2.382339,2.236818 -0.60861,0.399726 -1.583706,0.50699 -2.078015,0.228584 z m -6.796504,-2.92257 c 0,-0.100799 0.202709,-0.403187 0.450464,-0.671972 0.247755,-0.268778 0.673688,-0.954059 0.946518,-1.52284 0.592767,-1.235777 0.855418,-1.44588 2.127131,-1.701538 0.492257,-0.09896 0.983116,-0.206635 1.090797,-0.239287 0.333211,-0.101026 0.233951,0.349377 -0.331917,1.506109 -0.654709,1.338341 -1.579016,2.337538 -2.428989,2.625808 -0.747594,0.253546 -1.854004,0.255767 -1.854004,0.0039 z m -2.619872,-0.02574 c -0.17952,-0.03884 -0.344477,-0.125031 -0.366571,-0.191467 -0.02209,-0.06647 0.1377,-0.343335 0.355098,-0.615322 0.987756,-1.235801 1.712086,-2.193776 1.837629,-2.430387 0.321105,-0.605192 1.257384,-0.864192 1.907929,-0.527779 0.411624,0.212858 0.452456,0.351371 0.264545,0.897363 -0.323312,0.939416 -0.634736,1.455446 -1.247933,2.067818 -0.812492,0.811403 -1.616843,1.045269 -2.750697,0.799774 z m -2.392713,-0.352854 c -0.354786,-0.216303 -0.912356,-1.167757 -0.916408,-1.563787 -9.42e-4,-0.09229 -0.05255,-0.350821 -0.11468,-0.574501 -0.09983,-0.359422 -0.17171,-0.421478 -0.618437,-0.533961 -0.598742,-0.15077 -0.721748,-0.379613 -0.721748,-1.342767 0,-0.500462 0.04963,-0.691559 0.219586,-0.845359 0.291583,-0.263873 0.491423,-0.168238 0.857215,0.410241 0.167282,0.264556 0.404237,0.636573 0.526567,0.826721 0.122331,0.190148 0.390578,0.460943 0.596107,0.601771 0.282176,0.193349 0.373688,0.337347 0.373688,0.588014 0,0.467298 0.306613,1.467178 0.618034,2.015445 0.144916,0.255132 0.238377,0.504495 0.20769,0.554153 -0.102133,0.165248 -0.653135,0.09235 -1.027614,-0.13597 z m 1.13437,-0.585629 c -0.723395,-1.083594 -0.604655,-3.115911 0.288769,-4.942441 l 0.400961,-0.819729 -1.038083,-0.05383 c -0.570947,-0.02958 -1.070272,-0.08604 -1.109612,-0.125384 -0.144062,-0.144061 0.259034,-0.677842 0.745376,-0.987025 0.654942,-0.41637 1.122475,-0.537415 2.07358,-0.53685 1.413123,7.85e-4 2.328561,0.637483 2.477326,1.722851 0.08141,0.593955 0.220271,0.637711 0.652413,0.205568 0.334665,-0.334664 0.565136,-0.787272 1.005742,-1.97511 0.560253,-1.510402 0.900636,-1.829002 2.50305,-2.342835 2.115706,-0.678423 3.783713,-2.2924955 4.899613,-4.7411749 0.226968,-0.4980525 0.434595,-0.8136081 0.517213,-0.7860641 0.07591,0.025268 0.23098,0.4194774 0.344593,0.8759549 0.311801,1.2527426 0.330917,5.0714991 0.02936,5.8643901 -0.382427,1.005514 -1.152099,1.857558 -2.136658,2.365318 -0.307661,0.158664 -0.992264,0.723442 -1.521341,1.255058 -1.19321,1.198926 -2.082794,1.742312 -3.145955,1.921639 -0.828424,0.139729 -1.361294,0.09669 -2.133388,-0.172296 -0.998415,-0.347839 -1.374155,-0.139297 -2.280568,1.265754 -0.683498,1.059511 -1.874523,2.371023 -2.152113,2.36983 -0.09793,-3.3e-4 -0.287052,-0.16404 -0.420274,-0.363597 z m 13.426353,-0.634744 c -0.255651,-0.116077 -0.80944,-0.56222 -1.230643,-0.991412 -0.947863,-0.965862 -1.301099,-1.149253 -2.316597,-1.202709 -0.912147,-0.04802 -1.008216,-0.180731 -0.418492,-0.57815 0.274763,-0.185165 0.53838,-0.2555 0.950951,-0.253719 1.008087,0.0047 1.909793,0.572422 2.585687,1.629014 0.693515,1.084143 1.115838,1.146168 2.292561,0.336727 0.3269,-0.224864 0.649382,-0.38921 0.716626,-0.365197 0.217152,0.07753 0.0852,0.681334 -0.203696,0.932094 -0.296358,0.257242 -1.400389,0.710965 -1.719991,0.706869 -0.105373,-0.0016 -0.400755,-0.09743 -0.656406,-0.213517 z M 52.628197,14.53396 c -0.08493,-0.422671 -0.498597,-1.003332 -1.005254,-1.41107 -0.381338,-0.306893 -0.523285,-0.347149 -1.417222,-0.401955 -0.546391,-0.03351 -1.011826,-0.08608 -1.0343,-0.116846 -0.02248,-0.03076 -0.105906,-0.141157 -0.185404,-0.245315 -0.08316,-0.108959 -0.186004,-0.750343 -0.242178,-1.510338 -0.181445,-2.4548005 -1.110053,-4.3294424 -2.491316,-5.0293824 -0.47026,-0.238299 -0.532285,-0.3051658 -0.40164,-0.4330062 0.129857,-0.1270792 0.332986,-0.1183687 1.273273,0.054539 0.615321,0.1131737 1.194283,0.2316837 1.286581,0.2633632 0.0923,0.031703 0.612045,0.1946287 1.154994,0.362098 1.691911,0.521869 2.487016,1.4741229 2.701716,3.2357009 0.08881,0.7286845 0.407763,1.4101675 1.012938,2.1642705 0.397331,0.495117 0.454334,0.739631 0.39571,1.697425 -0.03341,0.545859 -0.236857,1.030233 -0.599128,1.426428 -0.298737,0.326706 -0.373761,0.317352 -0.44877,-0.05595 z"
       id="path3" /></g></svg>
