<?xml version="1.0" encoding="UTF-8" standalone="no"?>
<svg
   width="143"
   height="30"
   viewBox="0 0 143 30"
   fill="none"
   version="1.1"
   id="svg3"
   xml:space="preserve"
   xmlns:xlink="http://www.w3.org/1999/xlink"
   xmlns="http://www.w3.org/2000/svg"
   xmlns:svg="http://www.w3.org/2000/svg"><defs
     id="defs3"><linearGradient
       id="linearGradient4"><stop
         style="stop-color:#d155c5;stop-opacity:1;"
         offset="0"
         id="stop4" /><stop
         style="stop-color:#ffab3e;stop-opacity:1;"
         offset="1"
         id="stop5" /></linearGradient><linearGradient
       xlink:href="#linearGradient4"
       id="linearGradient5"
       x1="0"
       y1="15"
       x2="125.08377"
       y2="15"
       gradientUnits="userSpaceOnUse" /></defs><g
     id="g5"
     transform="translate(8.958115)"><path
       d="M 0,15 C 0,6.71573 5.8743274,0 13.120675,0 h 98.842415 c 7.24612,0 13.12068,6.71573 13.12068,15 v 0 c 0,8.2843 -5.87456,15 -13.12068,15 H 13.120675 C 5.8743274,30 0,23.2843 0,15 Z"
       fill="#1b1b1b"
       id="path1"
       style="fill:url(#linearGradient5);stroke-width:0.93526" /><text
       xml:space="preserve"
       style="font-style:normal;font-variant:normal;font-weight:bold;font-stretch:normal;font-size:18.6667px;font-family:Roboto;-inkscape-font-specification:'Roboto, Bold';font-variant-ligatures:normal;font-variant-caps:normal;font-variant-numeric:normal;font-variant-east-asian:normal;text-align:start;writing-mode:lr-tb;direction:ltr;text-anchor:start;fill:#ffffff;stroke-width:0.07"
       x="37.037197"
       y="22.027149"
       id="text3"><tspan
         id="tspan3"
         x="37.037197"
         y="22.027149">Hailou AI </tspan></text><path
       style="fill:#ffffff;fill-opacity:1;stroke-width:0.625965"
       d="m 16.587865,23.923906 c -2.987201,-0.515074 -5.42569,-2.31616 -6.765256,-4.996867 -1.72418,-3.45039 -1.002791,-7.677422 1.786207,-10.4664214 4.800976,-4.8009751 12.734589,-2.9713552 15.127518,3.4886504 0.387999,1.047454 0.422027,1.49413 0.432956,5.683311 0.0112,4.302201 -0.0095,4.575042 -0.384111,5.077473 -0.962397,1.290503 -1.078114,1.31989 -5.331017,1.353793 -2.131548,0.01699 -4.321382,-0.04598 -4.866297,-0.139939 z m 1.99228,-2.041782 c 3.267975,-1.030137 4.831254,-5.360792 2.794209,-7.740621 -1.812404,-2.117387 -4.989603,-2.017816 -6.155032,0.192894 -0.847441,1.607516 -0.277174,3.310504 1.276718,3.812663 0.878633,0.283941 1.45179,0.210437 2.042833,-0.261982 0.371694,-0.297094 0.36949,-0.299898 -0.06823,-0.08679 -0.619925,0.301818 -1.699786,0.06693 -2.257829,-0.49111 -0.335174,-0.335174 -0.458669,-0.671832 -0.458669,-1.250374 0,-2.085493 2.835101,-2.67815 4.043366,-0.845235 0.452509,0.686446 0.479945,1.817867 0.06527,2.69172 -0.992695,2.091951 -4.606399,1.899345 -5.792796,-0.308749 -0.387579,-0.721355 -0.447345,-1.051229 -0.37181,-2.052187 0.123058,-1.630698 0.765173,-2.695468 2.045873,-3.392513 3.632041,-1.976803 7.692116,0.591977 7.692116,4.866747 0,1.295452 0.328844,1.790097 1.128434,1.697383 0.368612,-0.04274 0.607168,-0.26479 0.888095,-0.826642 0.578636,-1.157275 0.537592,-4.557327 -0.07369,-6.104247 C 24.434692,9.3934086 21.857835,7.4204566 19.211051,7.0606365 16.44078,6.6840292 14.082806,7.5340714 12.171692,9.5983031 10.46153,11.445481 9.805244,13.591677 10.198257,16.051846 c 0.702603,4.398118 4.51427,7.049439 8.38189,5.830278 z"
       id="path4" /></g></svg>
