<?xml version="1.0" encoding="UTF-8" standalone="no"?>
<svg
   width="168"
   height="30"
   viewBox="0 0 168 30"
   fill="none"
   version="1.1"
   id="svg5"
   xml:space="preserve"
   xmlns="http://www.w3.org/2000/svg"
   xmlns:svg="http://www.w3.org/2000/svg"><defs
     id="defs5"><rect
       x="102.96326"
       y="-18.767017"
       width="25.405689"
       height="19.086184"
       id="rect3" /><clipPath
       clipPathUnits="userSpaceOnUse"
       id="clipPath4"><rect
         style="fill:#085da3;stroke-width:0.566929;stroke-linecap:round;stroke-linejoin:round;paint-order:stroke fill markers"
         id="rect5"
         width="279.53421"
         height="229.00427"
         x="-330.70657"
         y="-9.7172956" /></clipPath></defs><g
     id="g5"
     transform="translate(4.9801175)"><text
       xml:space="preserve"
       id="text3"
       style="font-weight:900;font-size:14.6667px;font-family:Roboto;-inkscape-font-specification:'Roboto, Heavy';white-space:pre;shape-inside:url(#rect3);fill:#95e212;fill-opacity:1;stroke-width:1.68945;stroke-linejoin:round"
       transform="translate(-28.14771)" /><path
       d="m 32.198765,15 c 0,-8.28427 3.743308,-15 8.360915,-15 h 76.9204 c 4.61746,0 8.36092,6.71573 8.36092,15 v 0 c 0,8.2843 -3.74346,15 -8.36092,15 H 40.559681 c -4.617607,0 -8.360916,-6.7157 -8.360916,-15 z"
       fill="#BFC2FF"
       id="path1"
       style="fill:#d00328;fill-opacity:1;stroke-width:0.746588" /><text
       xml:space="preserve"
       style="font-style:normal;font-variant:normal;font-weight:900;font-stretch:normal;font-size:14.6667px;font-family:Roboto;-inkscape-font-specification:'Roboto, Heavy';font-variant-ligatures:normal;font-variant-caps:normal;font-variant-numeric:normal;font-variant-east-asian:normal;fill:#fefeff;fill-opacity:1;stroke-width:1.00157;stroke-linejoin:round"
       x="68.141205"
       y="20.503593"
       id="text5"><tspan
         id="tspan5"
         x="68.141205"
         y="20.503593"
         style="font-style:normal;font-variant:normal;font-weight:900;font-stretch:normal;font-size:14.6667px;font-family:Roboto;-inkscape-font-specification:'Roboto, Heavy';font-variant-ligatures:normal;font-variant-caps:normal;font-variant-numeric:normal;font-variant-east-asian:normal;fill:#fefeff;fill-opacity:1">Huawei</tspan></text><path
       style="fill:#ffffff;fill-opacity:1"
       d="m -321.98664,244.65292 v -21.37865 h 4.97178 4.97178 v 8.45202 8.45203 h 10.44074 10.44073 v -8.45203 -8.45202 h 4.97178 4.97178 v 21.37865 21.37865 h -4.97178 -4.97178 v -8.9492 -8.94921 h -10.44073 -10.44074 v 8.94921 8.9492 h -4.97178 -4.97178 z m 55.44642,19.32792 c -6.62967,-3.50022 -7.17693,-5.23591 -7.56901,-24.00599 l -0.34885,-16.70058 h 5.56922 5.56922 v 15.19126 c 0,17.18425 0.61745,19.07729 6.58781,20.19733 1.95117,0.36604 5.27674,0.14746 7.39015,-0.48573 5.0644,-1.51733 5.89639,-4.57938 5.90361,-21.72765 l 0.006,-13.17521 h 5.03587 5.03587 l -0.31268,17.32386 c -0.30492,16.89353 -0.37443,17.39071 -2.79857,20.01526 -3.86016,4.1793 -7.93712,5.42295 -17.61788,5.37423 -6.71386,-0.0338 -9.59199,-0.49769 -12.45031,-2.00678 z m 36.39247,-3.16964 c 1.27697,-2.8712 5.63407,-12.47934 9.68243,-21.35142 l 7.36065,-16.13104 5.53036,-0.0272 5.53036,-0.0272 9.07858,19.63853 c 4.99321,10.80119 9.37619,20.42158 9.73995,21.37865 0.58363,1.53556 -0.0294,1.74012 -5.21472,1.74012 h -5.87609 l -1.78782,-4.97178 -1.78783,-4.97178 h -9.71112 -9.71113 l -2.06617,4.97178 -2.06618,4.97178 h -5.51153 -5.51152 z m 28.47817,-13.08252 c 0,-0.22247 -1.38644,-3.46656 -3.08097,-7.20908 l -3.08098,-6.80459 -2.2935,5.13379 c -4.3276,9.68698 -4.43265,9.28436 2.42231,9.28436 3.31823,0 6.03314,-0.18201 6.03314,-0.40448 z m 27.46822,17.50824 c -0.94954,-1.53639 -14.54159,-39.74813 -14.54159,-40.88122 0,-0.64231 2.12952,-1.08143 5.24442,-1.08143 h 5.24442 l 5.04985,15.16393 5.04985,15.16392 2.06096,-6.96049 c 1.13354,-3.82827 3.03831,-10.65204 4.23283,-15.16392 l 2.17185,-8.20344 h 6.19699 6.19699 l 1.22914,4.22601 c 0.67602,2.32431 2.84133,9.30788 4.81178,15.51904 l 3.58265,11.29303 4.619,-15.27045 4.61899,-15.27045 5.14478,-0.30056 c 4.42567,-0.25854 5.13477,-0.0501 5.07321,1.49154 -0.0394,0.98565 -3.05971,10.51756 -6.7119,21.18202 l -6.64035,19.38994 h -6.41553 -6.41553 l -4.17831,-13.63452 c -2.29807,-7.49899 -4.35997,-14.17953 -4.58201,-14.84564 -0.22204,-0.66612 -2.19116,5.46941 -4.37583,13.63452 l -3.97211,14.84564 -6.07378,0.29379 c -3.34058,0.16158 -6.31993,-0.10448 -6.62077,-0.59126 z m 68.48713,-1.07547 c -7.11014,-3.26498 -10.44434,-9.24976 -10.43519,-18.73083 0.008,-7.96312 1.63591,-13.05877 5.36397,-16.78683 4.20444,-4.20444 8.87411,-5.35731 21.726676,-5.36397 l 10.68932,-0.006 v 3.97742 3.97743 h -8.88447 c -11.89047,0 -16.844456,2.1086 -16.937156,7.20908 -0.0285,1.56964 1.23479,1.74012 12.895006,1.74012 h 12.92662 v 3.97742 3.97742 h -12.92662 -12.926626 v 2.37574 c 0,1.30665 0.85452,3.43208 1.89893,4.72318 1.7536,2.1678 2.742946,2.37322 12.926626,2.68403 l 11.02769,0.33657 v 3.88944 3.88945 l -11.68368,-0.0218 c -9.19726,-0.0172 -12.530116,-0.41052 -15.661096,-1.84828 z m 35.299626,-19.50853 v -21.37865 h 5.46896 5.46896 v 21.37865 21.37865 h -5.46896 -5.46896 z M -121.3146,201.3551 c -5.45638,-0.9196 -14.621,-5.7504 -29.7574,-15.68554 -13.01893,-8.54528 -15.60451,-10.64643 -14.48216,-11.76877 0.5033,-0.50331 48.52085,1.00173 71.024756,2.22617 l 11.18484,0.60856 -1.73845,3.0533 c -3.07582,5.40212 -12.88812,15.17207 -18.070886,17.99289 -5.69515,3.09969 -12.74304,4.48647 -18.1607,3.57339 z m -153.52427,-1.55474 c -2.23386,-0.79259 -6.66703,-3.55389 -9.85148,-6.13622 -5.78088,-4.68782 -14.35083,-15.54261 -13.1886,-16.70483 0.33776,-0.33776 16.41792,-1.22753 35.7337,-1.97727 44.91042,-1.74318 45.56033,-1.74463 45.56033,-0.10168 0,1.71269 -25.39525,18.4627 -34.89251,23.01414 -5.99042,2.87083 -8.39457,3.48976 -13.30569,3.42544 -3.29681,-0.0432 -7.82189,-0.72699 -10.05575,-1.51958 z m -11.0879,-32.74855 c -7.84627,-2.1131 -14.92006,-6.06504 -20.7855,-11.61233 -10.38007,-9.81704 -15.2787,-20.86109 -15.26883,-34.42386 0.005,-6.98775 1.38207,-15.07533 2.5667,-15.07533 1.67808,0 46.63085,25.03721 72.00445,40.10411 22.95771,13.63233 33.0397,20.3759 32.28608,21.59528 -0.99481,1.60964 -64.60426,1.0815 -70.8029,-0.58787 z m 119.05965,0.35703 c 0,-2.22128 28.99737,-20.11304 69.878076,-43.11569 26.81066,-15.08575 34.24362,-18.96999 34.94985,-18.26375 0.29924,0.29924 1.06192,3.87502 1.69485,7.94619 0.95495,6.14243 0.88515,8.70472 -0.41015,15.05643 -3.5779,17.54483 -14.11705,30.18385 -30.39735,36.45391 -6.55711,2.52534 -6.87132,2.54741 -41.161406,2.89074 -28.14862,0.28184 -34.55387,0.10243 -34.55387,-0.96783 z m -60.65571,-17.56526 c -41.97926,-22.48873 -65.5607,-39.94058 -72.17701,-53.415838 -3.9835,-8.11311 -4.5484,-19.32522 -1.4437,-28.654845 3.11277,-9.353875 16.05941,-28.464908 19.27232,-28.448608 2.87537,0.01459 35.40184,47.323893 49.81644,72.457341 8.0233,13.9895 23.42471,44.1375 23.42471,45.85346 0,1.99194 -2.738,0.86277 -18.89276,-7.79151 z m 54.27868,7.94282 c -0.6762,-1.09411 14.80292,-31.66601 24.23681,-47.86869 13.78538,-23.676368 46.14825,-70.599257 48.69254,-70.599257 1.365286,0 8.799766,8.568296 12.630636,14.556921 14.00925,21.899978 11.93121,40.296518 -6.4549,57.144046 -11.436376,10.47936 -42.460706,29.96802 -68.482176,43.01868 -10.0489,5.03987 -9.86482,4.97491 -10.62291,3.7483 z m -34.57153,-17.83639 c -19.06592,-29.23719 -33.39232,-56.142448 -39.65066,-74.464722 -2.96794,-8.689107 -3.33866,-10.960067 -3.37878,-20.697878 -0.0516,-12.508378 1.1876,-16.682992 7.40483,-24.946505 4.91715,-6.535549 11.52661,-10.7035778 21.15329,-13.3396098 10.77001,-2.949107 12.64513,-2.564852 15.37708,3.151123 5.01698,10.4968668 9.25528,29.4752288 11.17737,50.0503278 2.5189,26.963666 0.21125,91.995834 -3.26348,91.968664 -0.65011,-0.005 -4.61895,-5.27971 -8.81965,-11.7214 z m 22.74056,6.0131 c -1.94136,-18.72146 -2.86272,-43.84933 -2.32434,-63.390178 0.93841,-34.059662 4.74948,-56.664678 12.2798,-72.8365628 2.02362,-4.345869 2.86616,-5.220368 5.02957,-5.220368 3.7794,0 15.09098,2.954532 19.13266,4.997363 5.96322,3.0140528 12.43306,9.5162868 15.98216,16.0621678 3.37051,6.216505 3.40746,6.421205 3.37849,18.7147 -0.0269,11.391805 -0.29976,13.218054 -3.26895,21.875826 -6.14246,17.910614 -22.76593,48.892762 -40.41426,75.322452 -3.74318,5.60568 -7.34498,10.19214 -8.004,10.19214 -0.72707,0 -1.43137,-2.24821 -1.79113,-5.71754 z"
       id="path3"
       clip-path="url(#clipPath4)"
       transform="matrix(0.08218678,0,0,0.08218678,65.849001,6.8028444)" /></g></svg>
