<?xml version="1.0" encoding="UTF-8" standalone="no"?>
<svg
   width="143"
   height="30"
   viewBox="0 0 143 30"
   fill="none"
   version="1.1"
   id="svg3"
   xml:space="preserve"
   xmlns="http://www.w3.org/2000/svg"
   xmlns:svg="http://www.w3.org/2000/svg"><defs
     id="defs3" /><g
     id="g4"><path
       d="M 0,15 C 0,6.71573 6.71573,0 15,0 h 113 c 8.284,0 15,6.71573 15,15 v 0 c 0,8.2843 -6.716,15 -15,15 H 15 C 6.71573,30 0,23.2843 0,15 Z"
       fill="#1B1B1B"
       id="path1"
       style="fill:#0b0f19;fill-opacity:1" /><text
       xml:space="preserve"
       style="font-style:normal;font-variant:normal;font-weight:bold;font-stretch:normal;font-size:16px;font-family:Roboto;-inkscape-font-specification:'Roboto, Bold';font-variant-ligatures:normal;font-variant-caps:normal;font-variant-numeric:normal;font-variant-east-asian:normal;text-align:start;writing-mode:lr-tb;direction:ltr;text-anchor:start;fill:#ffffff;fill-opacity:1;stroke:#ffffff;stroke-width:0.07"
       x="33.742188"
       y="19.838688"
       id="text3"><tspan
         id="tspan3"
         x="33.742188"
         y="19.838688">Hugging Face</tspan></text><g
       style="fill:none"
       id="g3"
       transform="matrix(0.20102143,0,0,0.20102143,8.0962999,6.2274248)"><path
         fill="#ffd21e"
         d="m 47.21,76.5 a 34.75,34.75 0 1 0 0,-69.5 34.75,34.75 0 0 0 0,69.5 z"
         id="path1-0" /><path
         fill="#ff9d0b"
         d="m 81.96,41.75 a 34.75,34.75 0 1 0 -69.5,0 34.75,34.75 0 0 0 69.5,0 z m -73.5,0 a 38.75,38.75 0 1 1 77.5,0 38.75,38.75 0 0 1 -77.5,0 z"
         id="path2" /><path
         fill="#3a3b45"
         d="m 58.5,32.3 c 1.28,0.44 1.78,3.06 3.07,2.38 a 5,5 0 1 0 -6.76,-2.07 c 0.61,1.15 2.55,-0.72 3.7,-0.32 z m -23.55,0 c -1.28,0.44 -1.79,3.06 -3.07,2.38 a 5,5 0 1 1 6.76,-2.07 c -0.61,1.15 -2.56,-0.72 -3.7,-0.32 z"
         id="path3" /><path
         fill="#ff323d"
         d="m 46.96,56.29 c 9.83,0 13,-8.76 13,-13.26 0,-2.34 -1.57,-1.6 -4.09,-0.36 -2.33,1.15 -5.46,2.74 -8.9,2.74 -7.19,0 -13,-6.88 -13,-2.38 0,4.5 3.16,13.26 13,13.26 z"
         id="path4" /><path
         fill="#3a3b45"
         fill-rule="evenodd"
         d="m 39.43,54 a 8.7,8.7 0 0 1 5.3,-4.49 c 0.4,-0.12 0.81,0.57 1.24,1.28 0.4,0.68 0.82,1.37 1.24,1.37 0.45,0 0.9,-0.68 1.33,-1.35 0.45,-0.7 0.89,-1.38 1.32,-1.25 a 8.61,8.61 0 0 1 5,4.17 c 3.73,-2.94 5.1,-7.74 5.1,-10.7 0,-2.34 -1.57,-1.6 -4.09,-0.36 l -0.14,0.07 c -2.31,1.15 -5.39,2.67 -8.77,2.67 -3.38,0 -6.45,-1.52 -8.77,-2.67 -2.6,-1.29 -4.23,-2.1 -4.23,0.29 0,3.05 1.46,8.06 5.47,10.97 z"
         clip-rule="evenodd"
         id="path5" /><path
         fill="#ff9d0b"
         d="m 70.71,37 a 3.25,3.25 0 1 0 0,-6.5 3.25,3.25 0 0 0 0,6.5 z m -46.5,0 a 3.25,3.25 0 1 0 0,-6.5 3.25,3.25 0 0 0 0,6.5 z m -6.69,11 c -1.62,0 -3.06,0.66 -4.07,1.87 a 5.97,5.97 0 0 0 -1.33,3.76 7.1,7.1 0 0 0 -1.94,-0.3 c -1.55,0 -2.95,0.59 -3.94,1.66 a 5.8,5.8 0 0 0 -0.8,7 5.3,5.3 0 0 0 -1.79,2.82 c -0.24,0.9 -0.48,2.8 0.8,4.74 a 5.22,5.22 0 0 0 -0.37,5.02 c 1.02,2.32 3.57,4.14 8.52,6.1 3.07,1.22 5.89,2 5.91,2.01 a 44.33,44.33 0 0 0 10.93,1.6 c 5.86,0 10.05,-1.8 12.46,-5.34 3.88,-5.69 3.33,-10.9 -1.7,-15.92 -2.77,-2.78 -4.62,-6.87 -5,-7.77 -0.78,-2.66 -2.84,-5.62 -6.25,-5.62 a 5.7,5.7 0 0 0 -4.6,2.46 c -1,-1.26 -1.98,-2.25 -2.86,-2.82 A 7.4,7.4 0 0 0 17.52,48 Z m 0,4 c 0.51,0 1.14,0.22 1.82,0.65 2.14,1.36 6.25,8.43 7.76,11.18 0.5,0.92 1.37,1.31 2.14,1.31 1.55,0 2.75,-1.53 0.15,-3.48 -3.92,-2.93 -2.55,-7.72 -0.68,-8.01 0.08,-0.02 0.17,-0.02 0.24,-0.02 1.7,0 2.45,2.93 2.45,2.93 0,0 2.2,5.52 5.98,9.3 3.77,3.77 3.97,6.8 1.22,10.83 -1.88,2.75 -5.47,3.58 -9.16,3.58 -3.81,0 -7.73,-0.9 -9.92,-1.46 -0.11,-0.03 -13.45,-3.8 -11.76,-7 0.28,-0.54 0.75,-0.76 1.34,-0.76 2.38,0 6.7,3.54 8.57,3.54 0.41,0 0.7,-0.17 0.83,-0.6 0.79,-2.85 -12.06,-4.05 -10.98,-8.17 0.2,-0.73 0.71,-1.02 1.44,-1.02 3.14,0 10.2,5.53 11.68,5.53 0.11,0 0.2,-0.03 0.24,-0.1 0.74,-1.2 0.33,-2.04 -4.9,-5.2 -5.21,-3.16 -8.88,-5.06 -6.8,-7.33 0.24,-0.26 0.58,-0.38 1,-0.38 3.17,0 10.66,6.82 10.66,6.82 0,0 2.02,2.1 3.25,2.1 0.28,0 0.52,-0.1 0.68,-0.38 C 25.63,64.4 16.71,57.64 16.21,54.85 15.87,52.95 16.45,52 17.52,52 Z"
         id="path6" /><path
         fill="#ffd21e"
         d="m 38.6,76.69 c 2.75,-4.04 2.55,-7.07 -1.22,-10.84 -3.78,-3.77 -5.98,-9.3 -5.98,-9.3 0,0 -0.82,-3.2 -2.69,-2.9 -1.87,0.3 -3.24,5.08 0.68,8.01 3.91,2.93 -0.78,4.92 -2.29,2.17 -1.5,-2.75 -5.62,-9.82 -7.76,-11.18 -2.13,-1.35 -3.63,-0.6 -3.13,2.2 0.5,2.79 9.43,9.55 8.56,11 -0.87,1.47 -3.93,-1.71 -3.93,-1.71 0,0 -9.57,-8.71 -11.66,-6.44 -2.08,2.27 1.59,4.17 6.8,7.33 5.23,3.16 5.64,4 4.9,5.2 C 20.13,71.43 8.6,61.7 7.52,65.83 6.44,69.94 19.29,71.13 18.5,73.98 17.7,76.83 9.44,68.6 7.76,71.8 c -1.7,3.21 11.65,6.98 11.76,7.01 4.3,1.12 15.25,3.49 19.08,-2.12 z"
         id="path7" /><path
         fill="#ff9d0b"
         d="m 77.4,48 c 1.62,0 3.07,0.66 4.07,1.87 a 5.97,5.97 0 0 1 1.33,3.76 7.1,7.1 0 0 1 1.95,-0.3 c 1.55,0 2.95,0.59 3.94,1.66 a 5.8,5.8 0 0 1 0.8,7 5.3,5.3 0 0 1 1.78,2.82 c 0.24,0.9 0.48,2.8 -0.8,4.74 a 5.22,5.22 0 0 1 0.37,5.02 c -1.02,2.32 -3.57,4.14 -8.51,6.1 -3.08,1.22 -5.9,2 -5.92,2.01 a 44.33,44.33 0 0 1 -10.93,1.6 c -5.86,0 -10.05,-1.8 -12.46,-5.34 -3.88,-5.69 -3.33,-10.9 1.7,-15.92 2.78,-2.78 4.63,-6.87 5.01,-7.77 0.78,-2.66 2.83,-5.62 6.24,-5.62 a 5.7,5.7 0 0 1 4.6,2.46 c 1,-1.26 1.98,-2.25 2.87,-2.82 A 7.4,7.4 0 0 1 77.4,48 Z m 0,4 c -0.51,0 -1.13,0.22 -1.82,0.65 -2.13,1.36 -6.25,8.43 -7.76,11.18 a 2.43,2.43 0 0 1 -2.14,1.31 c -1.54,0 -2.75,-1.53 -0.14,-3.48 3.91,-2.93 2.54,-7.72 0.67,-8.01 a 1.54,1.54 0 0 0 -0.24,-0.02 c -1.7,0 -2.45,2.93 -2.45,2.93 0,0 -2.2,5.52 -5.97,9.3 -3.78,3.77 -3.98,6.8 -1.22,10.83 1.87,2.75 5.47,3.58 9.15,3.58 3.82,0 7.73,-0.9 9.93,-1.46 0.1,-0.03 13.45,-3.8 11.76,-7 -0.29,-0.54 -0.75,-0.76 -1.34,-0.76 -2.38,0 -6.71,3.54 -8.57,3.54 -0.42,0 -0.71,-0.17 -0.83,-0.6 -0.8,-2.85 12.05,-4.05 10.97,-8.17 -0.19,-0.73 -0.7,-1.02 -1.44,-1.02 -3.14,0 -10.2,5.53 -11.68,5.53 -0.1,0 -0.19,-0.03 -0.23,-0.1 -0.74,-1.2 -0.34,-2.04 4.88,-5.2 5.23,-3.16 8.9,-5.06 6.8,-7.33 -0.23,-0.26 -0.57,-0.38 -0.98,-0.38 -3.18,0 -10.67,6.82 -10.67,6.82 0,0 -2.02,2.1 -3.24,2.1 A 0.74,0.74 0 0 1 70.16,65.86 C 69.29,64.4 78.21,57.64 78.71,54.85 79.05,52.95 78.47,52 77.4,52 Z"
         id="path8" /><path
         fill="#ffd21e"
         d="m 56.33,76.69 c -2.75,-4.04 -2.56,-7.07 1.22,-10.84 3.77,-3.77 5.97,-9.3 5.97,-9.3 0,0 0.82,-3.2 2.7,-2.9 1.86,0.3 3.23,5.08 -0.68,8.01 -3.92,2.93 0.78,4.92 2.28,2.17 1.51,-2.75 5.63,-9.82 7.76,-11.18 2.13,-1.35 3.64,-0.6 3.13,2.2 -0.5,2.79 -9.42,9.55 -8.55,11 0.86,1.47 3.92,-1.71 3.92,-1.71 0,0 9.58,-8.71 11.66,-6.44 2.08,2.27 -1.58,4.17 -6.8,7.33 -5.23,3.16 -5.63,4 -4.9,5.2 0.75,1.2 12.28,-8.53 13.36,-4.4 1.08,4.11 -11.76,5.3 -10.97,8.15 0.8,2.85 9.05,-5.38 10.74,-2.18 1.69,3.21 -11.65,6.98 -11.76,7.01 -4.31,1.12 -15.26,3.49 -19.08,-2.12 z"
         id="path9" /></g></g></svg>
