<?xml version="1.0" encoding="UTF-8" standalone="no"?>
<svg
   width="143"
   height="30"
   viewBox="0 0 143 30"
   fill="none"
   version="1.1"
   id="svg3"
   xml:space="preserve"
   xmlns="http://www.w3.org/2000/svg"
   xmlns:svg="http://www.w3.org/2000/svg"><defs
     id="defs3"><linearGradient
       id="swatch7"><stop
         style="stop-color:#ffffff;stop-opacity:1;"
         offset="0"
         id="stop7" /></linearGradient></defs><g
     id="g5"><g
       id="g7"
       transform="translate(3.4359901)"><g
         id="g10"><path
           style="fill:#ffffff;fill-opacity:1;stroke:#ffffff;stroke-width:0.0176777;stroke-dasharray:none;stroke-opacity:1"
           d=""
           id="path38" /><g
           id="g44"
           transform="translate(24.562498)"><path
             d="m 3.2164734,15 c 0,-8.352773 3.7838244,-15.1240353 8.4514056,-15.1240353 h 63.667257 c 4.667446,0 8.451414,6.7712623 8.451414,15.1240353 v 0 c 0,8.352803 -3.783968,15.124035 -8.451414,15.124035 H 11.667879 C 7.0002978,30.124035 3.2164734,23.352803 3.2164734,15 Z"
             fill="#1b1b1b"
             id="path1"
             style="fill:#2978bc;fill-opacity:1;stroke-width:0.753715" /><text
             xml:space="preserve"
             style="font-style:normal;font-variant:normal;font-weight:bold;font-stretch:normal;font-size:18.6667px;font-family:Roboto;-inkscape-font-specification:'Roboto, Bold';font-variant-ligatures:normal;font-variant-caps:normal;font-variant-numeric:normal;font-variant-east-asian:normal;text-align:start;writing-mode:lr-tb;direction:ltr;text-anchor:start;fill:#ffffff;fill-opacity:1"
             x="40.571144"
             y="21.535858"
             id="text3"><tspan
               id="tspan3"
               x="40.571144"
               y="21.535858"
               style="font-style:normal;font-variant:normal;font-weight:bold;font-stretch:normal;font-size:18.6667px;font-family:Roboto;-inkscape-font-specification:'Roboto, Bold';font-variant-ligatures:normal;font-variant-caps:normal;font-variant-numeric:normal;font-variant-east-asian:normal;fill:#ffffff;fill-opacity:1">IBM</tspan></text><path
             style="fill:#ffffff;fill-opacity:1"
             d="m 15.497496,19.482874 v -0.329385 h -2.35637 -2.35637 v 0.329385 0.329385 h 2.35637 2.35637 z m 6.456923,0.188607 0.299957,-0.113039 0.244795,-0.157084 0.244796,-0.157085 v -0.04576 -0.04576 l -3.281182,0.01304 -3.281182,0.01304 -0.01515,0.319154 -0.01515,0.319153 2.75158,-0.01631 2.751579,-0.01631 z m 5.64406,-0.175938 -0.01509,-0.316717 h -1.672263 -1.672262 l -0.01509,0.316717 -0.01509,0.316716 h 1.702436 1.702436 z m 7.408746,-0.01335 v -0.330068 l -1.684931,0.01335 -1.684932,0.01335 -0.01509,0.316717 -0.01509,0.316716 h 1.700018 1.700018 z m -5.251559,-0.04635 0.08275,-0.249731 v -0.01631 -0.01631 h -0.194252 -0.194253 l -0.02724,0.02724 -0.02724,0.02724 0.102769,0.27898 0.102768,0.27898 0.03598,-0.04018 0.03598,-0.04018 z m -14.25817,-1.219832 v -0.329385 h -2.35637 -2.35637 v 0.329385 0.329385 h 2.35637 2.35637 z m 7.953344,0.114018 0.09308,-0.215368 0.03417,-0.114017 0.03417,-0.114018 h -3.728 -3.727999 v 0.329385 0.329385 h 3.600747 3.600748 z m 4.15789,-0.114018 v -0.329385 h -1.6976 -1.697599 v 0.295602 0.295602 l 0.03378,0.03378 0.03378,0.03378 h 1.663816 1.663817 z m 2.528195,0.114018 0.09221,-0.215368 0.03609,-0.114017 0.03609,-0.114018 h -0.66852 -0.668519 l 0.02987,0.14933 0.02987,0.14933 0.07523,0.180055 0.07523,0.180055 h 0.435121 0.435121 z m 4.8703,-0.114018 v -0.329385 h -1.6976 -1.6976 v 0.295602 0.295602 l 0.03378,0.03378 0.03378,0.03378 h 1.663817 1.663817 z M 14.179956,16.923808 V 16.61976 h -1.03883 -1.03883 v 0.270265 0.270264 l 0.03378,0.03378 0.03378,0.03378 h 1.005047 1.005047 z m 5.371509,0 V 16.61976 h -1.013492 -1.013492 v 0.304048 0.304048 h 1.013492 1.013492 z m 4.133471,0.04092 -0.03491,-0.26313 -0.02529,-0.04092 -0.02529,-0.04092 h -1.086514 -1.086514 v 0.304048 0.304048 h 1.146708 1.146707 z m 3.923794,-0.04092 V 16.61976 h -1.013492 -1.013493 v 0.304048 0.304048 h 1.013493 1.013492 z m 3.032502,0 0.102679,-0.304048 h -1.111519 -1.111519 v 0.03355 0.03355 l 0.08527,0.270496 0.08527,0.270496 h 0.923574 0.923574 z m 3.029385,0.01267 -0.0063,-0.29138 -1.026161,-0.01372 -1.026161,-0.01372 v 0.305097 0.305097 h 1.032431 1.03243 z m -19.500912,-1.292203 -0.01509,-0.316717 h -1.012588 -1.012588 l -0.01774,0.243963 -0.01774,0.243963 0.02792,0.07275 0.02792,0.07275 h 1.017501 1.017501 z m 9.131682,0.270687 v -0.04603 l -0.23082,-0.283355 -0.23082,-0.283356 h -2.657633 -2.657633 v 0.329385 0.329385 h 2.888453 2.888453 z m 4.307343,-0.283356 v -0.329385 h -1.013492 -1.013493 v 0.329385 0.329385 h 1.013493 1.013492 z m 3.482698,0.03004 0.107707,-0.299349 -0.03004,-0.03004 -0.03004,-0.03004 H 29.59559 28.052126 l 0.02987,0.14933 0.02987,0.14933 0.07523,0.180055 0.07523,0.180055 h 1.360696 1.360696 z m 2.589114,0.07614 0.01619,-0.197868 -0.0301,-0.119916 -0.0301,-0.119915 -0.99959,0.01374 -0.999591,0.01374 -0.01511,0.317774 -0.01511,0.317773 1.028607,-0.01373 1.028606,-0.01373 z m -19.510809,-1.386771 0.01511,-0.317774 -1.028607,0.01373 -1.028606,0.01373 -0.0061,0.27871 -0.0061,0.278711 0.0224,0.03906 0.0224,0.03907 0.997179,-0.01373 0.997178,-0.01373 z m 8.866131,0.122386 0.203457,-0.220724 0.05815,-0.108661 0.05815,-0.10866 h -2.915574 -2.915573 v 0.329385 0.329385 h 2.653963 2.653964 z m 4.565861,-0.05799 0.01833,-0.253373 0.08734,0.253373 0.08734,0.253373 0.829865,0.01398 0.829865,0.01397 0.06282,-0.02411 0.06282,-0.02411 -0.103535,-0.306585 -0.103536,-0.306584 h -1.895646 -1.895646 v 0.330456 0.330456 l 1.000824,-0.01374 1.000824,-0.01374 z m 3.91559,0.02534 0.08544,-0.228035 0.01731,0.228035 0.01731,0.228036 0.984496,0.0138 0.984496,0.01379 0.03207,-0.03913 0.03207,-0.03913 -0.02043,-0.291379 -0.02044,-0.291379 H 31.75678 29.883923 l -0.07523,0.180055 -0.07523,0.180055 -0.03011,0.150555 -0.03011,0.150554 0.879323,-0.01389 0.879323,-0.01389 z M 14.179956,13.072535 v -0.304048 h -1.03883 -1.03883 v 0.304048 0.304047 h 1.03883 1.03883 z m 5.371509,0 v -0.304048 h -1.013492 -1.013492 v 0.304048 0.304047 h 1.013492 1.013492 z m 4.073277,0.26313 0.02529,-0.04092 0.03491,-0.263131 0.03491,-0.26313 h -1.146707 -1.146708 v 0.304048 0.304047 h 1.086514 1.086514 z m 5.475065,-0.0731 -0.03599,-0.114018 -0.06119,-0.177362 -0.06119,-0.177361 -1.679847,-0.01335 -1.679848,-0.01335 v 0.304731 0.30473 h 1.777027 1.777026 z m 4.56454,-0.19003 v -0.304048 h -1.680279 -1.680279 l -0.102678,0.304048 -0.102679,0.304047 h 1.782958 1.782957 z M 15.497496,11.779826 v -0.329891 l -2.343701,0.01317 -2.343702,0.01318 -0.01509,0.316717 -0.01509,0.316716 h 2.358788 2.358788 z m 8.078679,0.215873 -0.03609,-0.114018 -0.09236,-0.215707 -0.09236,-0.215708 -3.586884,0.01301 -3.586885,0.01301 -0.01509,0.316717 -0.01509,0.316716 h 3.730417 3.730418 z m 5.092795,0.05068 -0.0039,-0.06334 -0.08913,-0.253373 -0.08913,-0.253373 h -2.12396 -2.12396 l -0.01509,0.316717 -0.01509,0.316716 h 2.232102 2.232101 z m 6.338255,-0.266042 v -0.32939 h -2.124262 -2.124261 l -0.08747,0.266042 -0.08747,0.266041 -0.02338,0.06334 -0.02338,0.06334 h 2.235105 2.235105 z M 15.497496,10.513471 v -0.329385 h -2.35637 -2.35637 v 0.329385 0.329385 h 2.35637 2.35637 z m 7.236329,0.273623 -0.01859,-0.05576 -0.277015,-0.171479 -0.277015,-0.171478 -0.400834,-0.102145 -0.400834,-0.102144 H 18.7579 16.156263 v 0.329385 0.329385 h 3.298073 3.298073 z m 5.465803,-0.09357 -0.02987,-0.149329 -0.07523,-0.180056 -0.07523,-0.180055 H 26.116414 24.21353 v 0.295602 0.295602 l 0.03378,0.03378 0.03378,0.03378 h 1.974198 1.974199 z m 6.797362,-0.193335 0.0151,-0.317328 -1.91104,0.01328 -1.911039,0.01328 -0.08912,0.253373 -0.08911,0.253373 -0.0039,0.06393 -0.0039,0.06393 1.988978,-0.01326 1.988979,-0.01326 z"
             id="path44" /></g></g></g></g></svg>
