<?xml version="1.0" encoding="UTF-8" standalone="no"?>
<svg
   width="106.18362"
   height="30"
   viewBox="0 0 106.18362 30"
   fill="none"
   version="1.1"
   id="svg5"
   xml:space="preserve"
   xmlns="http://www.w3.org/2000/svg"
   xmlns:svg="http://www.w3.org/2000/svg"><defs
     id="defs5" /><g
     id="g8"
     transform="translate(-9.8858576)"><path
       d="m 9.8858575,15 c 0,-8.28427 4.2446455,-15 9.4806815,-15 h 87.222251 c 5.23587,0 9.48069,6.71573 9.48069,15 v 0 c 0,8.2843 -4.24482,15 -9.48069,15 H 19.366539 C 14.130503,30 9.8858575,23.2843 9.8858575,15 Z"
       fill="#BFC2FF"
       id="path1"
       style="fill:#1e2023;fill-opacity:1;stroke-width:0.795013" /><text
       xml:space="preserve"
       style="font-style:normal;font-variant:normal;font-weight:900;font-stretch:normal;font-size:14.6667px;font-family:Roboto;-inkscape-font-specification:'Roboto, Heavy';font-variant-ligatures:normal;font-variant-caps:normal;font-variant-numeric:normal;font-variant-east-asian:normal;fill:#fefeff;fill-opacity:1;stroke-width:1.00157;stroke-linejoin:round"
       x="43.404667"
       y="20.503416"
       id="text5"><tspan
         id="tspan5"
         x="43.404667"
         y="20.503416"
         style="font-style:normal;font-variant:normal;font-weight:900;font-stretch:normal;font-size:14.6667px;font-family:Roboto;-inkscape-font-specification:'Roboto, Heavy';font-variant-ligatures:normal;font-variant-caps:normal;font-variant-numeric:normal;font-variant-east-asian:normal;fill:#fefeff;fill-opacity:1">Ideogram</tspan></text><path
       style="fill:#ffffff;fill-opacity:1;stroke-width:0.281716"
       d="m 27.668027,22.767765 c -0.157289,-0.15494 -0.903836,-0.281712 -1.658992,-0.281712 -1.749191,0 -1.869672,-0.950413 -0.176111,-1.389258 1.421023,-0.368224 1.981866,-1.602891 1.119731,-2.465029 -0.40019,-0.40019 -1.52736,-0.617639 -3.667825,-0.707573 -3.264557,-0.137171 -3.567483,-0.219274 -3.171705,-0.859658 0.14142,-0.228817 1.515163,-0.400609 3.203562,-0.400609 2.186417,0 3.109638,-0.153666 3.546231,-0.590266 1.588569,-1.588562 0.12034,-2.723245 -3.709692,-2.86693 -1.954109,-0.07334 -3.017309,-0.271218 -3.119717,-0.580731 -0.11606,-0.35077 0.64538,-0.469527 3.010511,-0.469527 2.590001,0 3.27894,-0.124947 3.787512,-0.686914 0.341907,-0.377803 0.621648,-0.872817 0.621648,-1.100028 0,-0.7202945 -1.146867,-1.5936435 -2.092746,-1.5936435 -0.826486,0 -1.374431,-1.030403 -0.630506,-1.185657 0.727346,-0.151797 2.33387,-0.368573 4.133058,-0.557697 1.91119,-0.200901 2.015704,-0.16199 3.323862,1.237487 3.093267,3.3092145 3.392874,3.8658205 2.738761,5.0880445 -0.296925,0.554807 -0.298999,1.021566 -0.0074,1.661592 0.292778,0.642577 0.288262,1.177677 -0.01626,1.924498 -0.231977,0.568943 -0.38294,1.512599 -0.335473,2.097014 0.109494,1.348141 -0.920878,2.505831 -2.230256,2.505831 -0.555738,0 -1.31637,0.338057 -1.690294,0.75124 -0.670872,0.741303 -2.421795,1.017375 -2.977932,0.469526 z m 2.4145,-2.393622 c 0,-0.7849 0.747767,-0.934094 1.40211,-0.279757 0.592987,0.59299 1.602856,0.121333 1.602856,-0.748603 0,-0.461188 -0.346648,-0.809312 -0.958879,-0.962977 -0.540432,-0.135635 -1.29425,-0.809077 -1.727395,-1.543203 -0.422685,-0.716401 -0.978234,-1.302545 -1.234554,-1.302545 -0.734339,0 -1.323913,1.620799 -0.878858,2.416071 0.208584,0.372721 0.292357,1.325466 0.186162,2.11721 -0.121248,0.90398 -0.03262,1.497555 0.238211,1.595478 0.62645,0.226486 1.370347,-0.474696 1.370347,-1.291674 z m 3.568397,-4.273651 c 0,-0.418788 -0.374008,-0.91533 -0.845147,-1.122031 -0.926199,-0.406345 -1.152989,-1.319501 -0.327706,-1.319501 0.758734,0 1.409436,-0.938329 1.139149,-1.642689 -0.378341,-0.985942 -1.629047,-0.731227 -2.071698,0.421914 l -0.396518,1.03296 -0.829065,-1.03296 c -0.959784,-1.195821 -1.56815,-1.304475 -2.068565,-0.369447 -0.454926,0.850036 0.242646,2.106409 1.267722,2.283248 1.007485,0.1738 1.698374,0.7818 2.10565,1.853022 0.429259,1.129033 2.026178,1.046669 2.026178,-0.104516 z M 31.58501,10.264988 c 0.480855,-0.3221735 0.433468,-0.4864825 -0.323328,-1.1211135 -0.751377,-0.630081 -3.05726,-1.072453 -3.05726,-0.58652 0,0.670805 0.574047,1.345391 1.144882,1.345391 0.378888,0 0.793352,0.1690325 0.921033,0.3756195 0.290351,0.469797 0.598186,0.466671 1.314673,-0.01336 z m -9.202714,9.779524 c -0.442941,-0.716689 0.240676,-1.126859 1.878106,-1.126859 1.706961,0 2.545023,0.592728 1.644512,1.163103 -0.711277,0.450518 -3.23785,0.424525 -3.522618,-0.03624 z m -3.568399,-5.084483 c 0,-0.486588 0.569249,-0.560186 3.631856,-0.469527 2.49165,0.07378 3.680725,0.254916 3.787512,0.577038 0.117645,0.354865 -0.769245,0.469518 -3.631857,0.469518 -3.155943,0 -3.787511,-0.09621 -3.787511,-0.577029 z m 3.542445,-4.348034 c -0.554848,-0.8977625 2.346011,-1.5071845 3.548572,-0.7454935 0.900511,0.5703745 0.06245,1.1631115 -1.644512,1.1631115 -0.905278,0 -1.762104,-0.187928 -1.90406,-0.417618 z"
       id="path8" /></g></svg>
