<?xml version="1.0" encoding="UTF-8" standalone="no"?>
<svg
   width="143"
   height="30"
   viewBox="0 0 143 30"
   fill="none"
   version="1.1"
   id="svg3"
   xml:space="preserve"
   xmlns="http://www.w3.org/2000/svg"
   xmlns:svg="http://www.w3.org/2000/svg"><defs
     id="defs3"><linearGradient
       id="swatch7"><stop
         style="stop-color:#ffffff;stop-opacity:1;"
         offset="0"
         id="stop7" /></linearGradient></defs><g
     id="g5"><g
       id="g7"
       transform="translate(3.4359901)"><g
         id="g10"><path
           style="fill:#ffffff;fill-opacity:1;stroke:#ffffff;stroke-width:0.0176777;stroke-dasharray:none;stroke-opacity:1"
           d=""
           id="path38" /><g
           id="g51"><path
             d="m 10.529378,15 c 0,-8.352773 5.499488,-15.1240353 12.283446,-15.1240353 h 92.535286 c 6.78378,0 12.28346,6.7712623 12.28346,15.1240353 v 0 c 0,8.352803 -5.49968,15.124035 -12.28346,15.124035 H 22.812824 C 16.028866,30.124035 10.529378,23.352803 10.529378,15 Z"
             fill="#1b1b1b"
             id="path1"
             style="fill:#1d3882;fill-opacity:1;stroke-width:0.908663" /><text
             xml:space="preserve"
             style="font-style:normal;font-variant:normal;font-weight:bold;font-stretch:normal;font-size:18.6667px;font-family:Roboto;-inkscape-font-specification:'Roboto, Bold';font-variant-ligatures:normal;font-variant-caps:normal;font-variant-numeric:normal;font-variant-east-asian:normal;text-align:start;writing-mode:lr-tb;direction:ltr;text-anchor:start;fill:#ffffff;fill-opacity:1"
             x="41.976906"
             y="21.544283"
             id="text3"><tspan
               id="tspan3"
               x="41.976906"
               y="21.544283"
               style="font-style:normal;font-variant:normal;font-weight:bold;font-stretch:normal;font-size:18.6667px;font-family:Roboto;-inkscape-font-specification:'Roboto, Bold';font-variant-ligatures:normal;font-variant-caps:normal;font-variant-numeric:normal;font-variant-east-asian:normal;fill:#ffffff;fill-opacity:1">InternLM</tspan></text><g
             id="g50"
             transform="translate(-8.52371,-3.0614797)"
             style="stroke:#ffffff;stroke-width:0.2;stroke-dasharray:none;stroke-opacity:1"><path
               style="fill:#ffffff;fill-opacity:1;stroke:#ffffff;stroke-width:0.2;stroke-dasharray:none;stroke-opacity:1"
               d="m 35.485885,25.338462 -0.5,-0.220095 -0.796875,-0.136516 c -0.762122,-0.130562 -0.824814,-0.136539 -1.4375,-0.137057 -0.609664,-5.16e-4 -0.674607,0.0055 -1.34375,0.123919 -0.386719,0.06845 -0.741797,0.13274 -0.789063,0.142857 l -0.08594,0.0184 V 24.239363 23.34876 l 0.22435,-0.05103 c 0.123393,-0.02807 0.612065,-0.08997 1.085938,-0.137579 0.905949,-0.09101 0.947738,-0.09086 1.963149,0.007 l 0.164063,0.01581 V 23.03373 22.884498 l -0.335938,-0.175533 c -0.254185,-0.132816 -0.415788,-0.246904 -0.664062,-0.46881 -0.501798,-0.448506 -0.789346,-0.802576 -0.949843,-1.169582 -0.152541,-0.348815 -0.122865,-0.33503 -0.555595,-0.258094 l -0.239813,0.04264 -0.29925,-0.197324 c -0.343874,-0.226731 -0.32627,-0.176634 -0.25311,-0.720295 l 0.04416,-0.328125 -0.138896,-0.257516 -0.138896,-0.257515 V 18.725792 18.35724 l 0.164062,-0.158866 c 0.09023,-0.08738 0.238094,-0.198225 0.328577,-0.246332 0.11486,-0.06107 0.160126,-0.102399 0.149976,-0.136942 -0.008,-0.02721 -0.04349,-0.204163 -0.07888,-0.393225 -0.03539,-0.189063 -0.07927,-0.417578 -0.0975,-0.507813 L 30.872079,16.75 30.741482,16.7514 c -0.125545,0.0013 -0.139058,0.01175 -0.349347,0.268836 -0.178146,0.217793 -0.808853,0.797084 -0.978632,0.898853 -0.02262,0.01356 -0.253472,0.08653 -0.512998,0.162157 l -0.471867,0.137502 h -0.616046 -0.616045 l 0.111091,-0.289063 c 0.109829,-0.28578 0.111294,-0.295889 0.129044,-0.890467 l 0.01795,-0.601406 0.1875,0.124743 0.1875,0.124744 0.550871,10e-5 c 0.419149,7.5e-5 0.577697,-0.01111 0.663059,-0.04678 0.232988,-0.09735 0.181546,-0.03822 -0.08488,0.09756 l -0.277196,0.141269 -0.495749,-0.05263 c -0.272661,-0.02895 -0.514629,-0.04539 -0.537705,-0.03653 -0.02832,0.01087 -0.05529,0.13569 -0.08296,0.38398 -0.02255,0.202333 -0.07214,0.506053 -0.110199,0.674932 l -0.0692,0.307053 h 0.523084 0.523084 l 0.485413,-0.183233 c 0.542497,-0.204781 0.490205,-0.171426 1.029124,-0.656439 l 0.394785,-0.355296 0.607765,-1.019704 c 0.33427,-0.560836 0.666639,-1.086256 0.738597,-1.167599 0.07196,-0.08134 0.122804,-0.160886 0.112991,-0.176762 -0.0098,-0.01588 -0.07878,-0.04963 -0.15327,-0.07501 l -0.135431,-0.04615 -0.346389,0.260753 c -0.190515,0.143415 -0.386138,0.314036 -0.434718,0.379159 -0.438627,0.587984 -1.163707,1.355082 -1.322959,1.399624 -0.05291,0.0148 0.07063,-0.128024 0.382812,-0.442563 0.442692,-0.44603 0.460938,-0.469465 0.460938,-0.592034 v -0.127621 l -0.42634,-0.102168 c -0.309926,-0.07427 -0.557224,-0.160403 -0.905679,-0.315442 -0.263637,-0.1173 -0.500951,-0.225367 -0.527365,-0.240149 -0.03766,-0.02108 0.01112,-0.07454 0.225992,-0.247711 l 0.274017,-0.220833 0.150136,-0.404101 c 0.148173,-0.398815 0.149709,-0.406738 0.117424,-0.605724 -0.01799,-0.110893 -0.03282,-0.222454 -0.03295,-0.247913 -1.3e-4,-0.02546 0.136873,0.0888 0.304451,0.253903 l 0.304688,0.300192 0.552387,0.222659 0.552388,0.22266 0.760112,0.001 0.760113,10e-4 0.992187,-0.319695 0.992188,-0.319695 v -0.08828 c 0,-0.04856 -0.05825,-0.203986 -0.129441,-0.345401 l -0.129442,-0.257119 0.05479,-0.430485 c 0.0756,-0.594034 0.07999,-0.60807 0.269891,-0.863605 0.136951,-0.184284 0.242803,-0.279114 0.564187,-0.505439 l 0.395606,-0.278596 0.854393,0.0012 0.854394,0.0012 0.4375,0.306054 c 0.422992,0.295906 0.443534,0.31549 0.619467,0.590573 l 0.181968,0.284518 -0.03566,0.619177 c -0.02692,0.46748 -0.0519,0.670681 -0.101951,0.829401 -0.03646,0.115624 -0.06011,0.215647 -0.05256,0.222274 0.0076,0.0066 0.248738,0.08291 0.535965,0.169508 0.415759,0.125356 0.549555,0.179665 0.65625,0.26638 0.07371,0.05991 0.274644,0.179684 0.446519,0.266171 0.227546,0.114502 0.418692,0.246257 0.703125,0.484658 l 0.390625,0.327408 0.183343,0.488075 0.183343,0.488075 -0.0143,0.819864 c -0.0079,0.450925 -0.02006,0.84045 -0.02709,0.865612 -0.0099,0.03524 0.0398,0.05319 0.216124,0.07813 l 0.228917,0.03238 0.154497,0.1875 c 0.08497,0.103125 0.168411,0.236719 0.185419,0.296875 0.07835,0.277137 0.07366,0.323195 -0.07992,0.78401 l -0.148624,0.445949 0.05183,0.299083 c 0.02851,0.164495 0.05161,0.322375 0.05133,0.350843 -2.75e-4,0.02847 -0.07433,0.144863 -0.164562,0.258657 l -0.164062,0.206897 -0.497237,-0.0087 -0.497238,-0.0087 -0.106537,0.5114 -0.106538,0.5114 -0.470232,0.45735 c -0.432141,0.420303 -0.501573,0.474603 -0.857162,0.670347 L 38.59526,22.87912 v 0.138565 0.138565 l 0.117187,-1.07e-4 c 0.06445,-5.9e-5 0.273701,-0.01477 0.464995,-0.03269 0.298208,-0.02793 0.480918,-0.02121 1.28125,0.04716 0.799022,0.06826 0.966069,0.09143 1.160005,0.160859 l 0.226563,0.08112 v 0.856204 c 0,0.798168 -0.0037,0.856205 -0.05529,0.856205 -0.03041,0 -0.385488,-0.06316 -0.789062,-0.140355 -0.724578,-0.138598 -0.742037,-0.140359 -1.393636,-0.140625 -0.636067,-2.6e-4 -0.689605,0.0047 -1.484375,0.13806 l -0.824509,0.138329 -0.514873,0.221046 c -0.395501,0.169797 -0.54765,0.220588 -0.65625,0.219074 -0.104099,-0.0015 -0.273215,-0.06001 -0.641377,-0.222067 z m 0.830266,-0.07593 c 0.09335,-0.02748 0.403465,-0.14613 0.689137,-0.263664 l 0.519404,-0.213699 0.698095,-0.100135 0.698095,-0.100136 1.235626,0.05174 c 0.679595,0.02846 1.267268,0.05154 1.305939,0.0513 0.07021,-4.4e-4 0.07031,-0.0012 0.07031,-0.545067 v -0.544625 l -0.289063,-0.06294 c -0.19846,-0.04321 -0.568201,-0.07857 -1.179684,-0.112818 l -0.890625,-0.04988 -0.853604,0.112364 -0.853605,0.112364 -0.61402,0.263834 c -0.337711,0.145105 -0.630935,0.26383 -0.651611,0.26383 -0.02068,0 -0.35141,-0.119394 -0.734968,-0.265319 l -0.697376,-0.265319 -0.783956,-0.112341 -0.783956,-0.112342 -0.997827,0.06427 c -0.579801,0.03735 -1.086196,0.08535 -1.208765,0.114587 l -0.210937,0.05032 v 0.544324 0.544324 l 0.101562,6.07e-4 c 0.05586,3.34e-4 0.636487,-0.02269 1.290284,-0.05116 l 1.188721,-0.05177 0.714175,0.102026 0.714176,0.102027 0.628353,0.25931 c 0.345595,0.142621 0.650411,0.260359 0.67737,0.26164 0.02696,0.0013 0.125395,-0.02016 0.21875,-0.04764 z m 0.337572,-1.579687 0.222787,-0.0984 V 23.448472 23.3125 h -0.737853 -0.737853 l 0.02189,0.117187 c 0.01204,0.06445 0.02415,0.119044 0.02692,0.121311 0.0028,0.0023 0.103463,0.05431 0.223776,0.115651 0.199442,0.101683 0.242528,0.111663 0.48815,0.113064 0.23608,0.0013 0.296956,-0.01063 0.492188,-0.09687 z m 0.175912,-0.57647 0.71875,-0.01946 0.59375,-0.20525 c 0.581898,-0.201153 0.600923,-0.210553 0.953125,-0.47091 0.197656,-0.146112 0.48709,-0.374876 0.643186,-0.508363 0.276311,-0.236291 0.287606,-0.251321 0.427466,-0.568843 0.142604,-0.323751 0.144374,-0.332058 0.24167,-1.134533 0.05391,-0.444617 0.145531,-1.153694 0.203608,-1.575727 l 0.105593,-0.767332 -0.07103,-0.310793 C 40.559385,17.167249 40.308692,16.650582 40.053405,16.32436 39.902692,16.131771 39.815935,16.061153 39.408322,15.799289 38.94928,15.504385 38.92946,15.495227 38.62457,15.43713 38.320254,15.37914 38.300887,15.37905 37.910647,15.43363 l -0.401122,0.05612 -0.468399,0.286364 -0.4684,0.286365 H 36.329918 36.08711 l -0.490045,-0.280218 -0.490044,-0.280217 -0.386343,-0.062 c -0.385705,-0.06189 -0.387016,-0.06189 -0.793958,4.78e-4 -0.450374,0.06903 -0.369458,0.03113 -1.152834,0.53999 l -0.368249,0.239205 -0.293694,0.446507 c -0.161531,0.245579 -0.307979,0.480903 -0.325439,0.522942 -0.01746,0.04204 -0.05439,0.253295 -0.08207,0.469457 l -0.05033,0.393021 0.09807,0.388229 c 0.06608,0.261579 0.132148,0.67877 0.202529,1.278853 0.09778,0.833689 0.113485,0.917595 0.245686,1.3125 l 0.14123,0.421875 0.448544,0.421875 c 0.655472,0.616498 0.903087,0.769147 1.706652,1.052105 l 0.64532,0.227236 0.484375,-0.01425 c 0.266406,-0.0078 0.807812,-0.02301 1.203125,-0.03371 z m -5.158188,-2.666909 0.151961,-0.154282 -0.04653,-0.751185 -0.04653,-0.751186 -0.200356,-0.331319 -0.200357,-0.331319 -0.234375,0.02116 c -0.128906,0.01164 -0.249012,0.0331 -0.266902,0.04769 -0.01789,0.01459 -0.08792,0.131344 -0.155629,0.259448 l -0.123102,0.232917 0.105944,0.338993 c 0.124048,0.396918 0.152216,0.574665 0.155802,0.983121 0.0026,0.298954 0.0032,0.301064 0.119824,0.445192 l 0.117188,0.144814 0.23555,1.21e-4 0.235549,1.2e-4 z m 9.526765,-0.08244 c 0.121847,-0.03093 0.238166,-0.08668 0.312961,-0.149988 l 0.119038,-0.100761 -0.04872,-0.302802 c -0.0268,-0.166541 -0.04873,-0.343988 -0.04873,-0.394327 0,-0.05034 0.07734,-0.263842 0.171875,-0.474449 0.09453,-0.210607 0.171875,-0.397739 0.171875,-0.415849 0,-0.01811 -0.03672,-0.126529 -0.08161,-0.240932 -0.06127,-0.156172 -0.116426,-0.237109 -0.221331,-0.324799 l -0.139723,-0.116793 -0.249518,0.03185 c -0.137236,0.01752 -0.256551,0.03888 -0.265145,0.04748 -0.0086,0.0086 -0.04839,0.134722 -0.08844,0.280285 -0.05546,0.201562 -0.08605,0.454777 -0.128317,1.062097 l -0.0555,0.797436 0.149837,0.175387 c 0.08241,0.09646 0.162818,0.175387 0.178682,0.175387 0.01586,0 0.116109,-0.02215 0.222766,-0.04922 z m -10.485565,-5.43347 c 0.179272,-0.191963 0.253864,-0.247328 0.426126,-0.316289 0.210791,-0.08438 0.240004,-0.116671 0.311587,-0.344363 0.03402,-0.10821 -0.175071,-0.192516 -0.641928,-0.258826 l -0.416297,-0.05913 -0.375,-0.222012 c -0.320171,-0.189551 -0.396395,-0.222079 -0.521332,-0.222474 -0.164196,-5.18e-4 -0.156222,-0.01208 -0.215178,0.312038 -0.03502,0.192518 -0.04898,0.2154 -0.267406,0.438191 -0.218138,0.2225 -0.230459,0.242657 -0.230459,0.37705 v 0.141983 l 0.335937,0.144968 c 0.383628,0.165548 0.682903,0.227023 1.153164,0.236876 l 0.223475,0.0047 z M 37.00439,13.1875 h 0.930242 l 0.129612,-0.234799 0.129612,-0.234798 -0.0531,-0.139032 c -0.04114,-0.107733 -0.07511,-0.145948 -0.15086,-0.169757 -0.05377,-0.0169 -0.371983,-0.111446 -0.707139,-0.210104 l -0.609375,-0.179378 -0.787412,0.04848 -0.787411,0.04848 -0.43908,0.152645 -0.439079,0.152645 -7.2e-5,0.212464 c -6.7e-5,0.199346 0.0081,0.224207 0.132741,0.402635 l 0.132813,0.19017 0.794132,-0.01982 c 0.436772,-0.0109 1.21274,-0.01982 1.724373,-0.01982 z m 1.17276,-0.992188 C 38.16835,12.165232 38.14447,12.021094 38.12417,11.875 38.08197,11.57135 38.07506,11.554682 37.879974,11.285766 37.746055,11.101175 37.71052,11.074473 37.37651,10.907443 l -0.359375,-0.179714 -0.673339,-0.03582 -0.673339,-0.03582 -0.379979,0.164141 c -0.347974,0.150315 -0.4051,0.187356 -0.678224,0.43977 l -0.298244,0.275636 v 0.328038 c 0,0.297243 0.0051,0.326643 0.05469,0.31318 0.330782,-0.08987 0.593914,-0.118193 1.469264,-0.158173 l 0.977075,-0.04463 0.5073,0.119473 c 0.587893,0.138455 0.62856,0.146523 0.767217,0.152215 0.085,0.0035 0.100774,-0.0056 0.0876,-0.05043 z"
               id="path45" /><path
               style="fill:#ffffff;fill-opacity:1;stroke:#ffffff;stroke-width:0.2;stroke-dasharray:none;stroke-opacity:1"
               d="m 34.758283,19.691781 c -0.297697,-0.485637 -0.35786,-0.561508 -0.912739,-1.151057 -0.573763,-0.609614 -0.680185,-0.759474 -0.539333,-0.759474 0.06323,0 0.721944,0.549161 1.080488,0.900783 0.144375,0.141587 0.365209,0.414801 0.539062,0.666923 0.283862,0.411655 0.294499,0.433253 0.294499,0.597968 0,0.143669 -0.01141,0.178364 -0.07164,0.217826 -0.07083,0.04641 -0.0752,0.04112 -0.39034,-0.472969 z"
               id="path46" /><path
               style="fill:#ffffff;fill-opacity:1;stroke:#ffffff;stroke-width:0.2;stroke-dasharray:none;stroke-opacity:1"
               d="m 40.5,20.005327 c 0,-0.210738 0.0028,-0.217827 0.221541,-0.563521 0.208853,-0.330046 0.2597,-0.384941 0.887769,-0.958452 0.564474,-0.51544 0.680982,-0.608354 0.762833,-0.608354 0.179653,0 0.114628,0.09987 -0.388075,0.596056 -0.36534,0.360601 -0.576941,0.603138 -0.859375,0.985018 C 40.78935,19.909493 40.75,19.976143 40.75,20.090724 V 20.21875 H 40.625 40.5 Z"
               id="path47"
               transform="translate(-3.4359901)" /><path
               style="fill:#ffffff;fill-opacity:1;stroke:#ffffff;stroke-width:0.2;stroke-dasharray:none;stroke-opacity:1"
               d="m 41.583961,21.568397 -0.179708,-0.181603 0.05443,-0.2268 c 0.0501,-0.208734 0.06573,-0.235028 0.196311,-0.330101 0.112955,-0.08224 0.184336,-0.107735 0.350142,-0.125049 l 0.208264,-0.02175 0.127674,0.169103 c 0.120917,0.160154 0.127674,0.180591 0.127674,0.386188 v 0.217085 l -0.149511,0.147263 C 42.17196,21.747802 42.166697,21.75 41.966698,21.75 h -0.20303 z"
               id="path48"
               transform="translate(-3.4359901)" /><path
               style="fill:#ffffff;fill-opacity:1;stroke:#ffffff;stroke-width:0.2;stroke-dasharray:none;stroke-opacity:1"
               d="m 36.865885,21.577433 c -0.132895,-0.270968 -0.11924,-0.431186 0.05841,-0.685311 L 37.067332,20.6875 h 0.225617 c 0.219982,0 0.228507,0.003 0.341334,0.118505 L 37.75,20.92451 v 0.32811 0.32811 l -0.172567,0.08464 C 37.437915,21.733791 37.361358,21.75 37.177693,21.75 H 36.95052 Z"
               id="path49"
               transform="translate(-3.4359901)" /></g></g></g></g></g></svg>
