<?xml version="1.0" encoding="UTF-8" standalone="no"?>
<svg
   width="143"
   height="30"
   viewBox="0 0 143 30"
   fill="none"
   version="1.1"
   id="svg3"
   xml:space="preserve"
   xmlns:xlink="http://www.w3.org/1999/xlink"
   xmlns="http://www.w3.org/2000/svg"
   xmlns:svg="http://www.w3.org/2000/svg"><defs
     id="defs3"><linearGradient
       id="linearGradient1"><stop
         style="stop-color:#d1701a;stop-opacity:1;"
         offset="0"
         id="stop1" /><stop
         style="stop-color:#cf062b;stop-opacity:1;"
         offset="0.5"
         id="stop3" /><stop
         style="stop-color:#c005b4;stop-opacity:1;"
         offset="1"
         id="stop2" /></linearGradient><linearGradient
       xlink:href="#linearGradient1"
       id="linearGradient2"
       x1="-21.843077"
       y1="15"
       x2="97.045807"
       y2="15"
       gradientUnits="userSpaceOnUse" /></defs><g
     id="g3"
     transform="translate(33.898634)"><g
       id="g4"><path
         d="m -21.843076,15 c 0,-8.28427 5.583396,-15 12.470863,-15 h 93.947159 c 6.88724,0 12.470862,6.71573 12.470862,15 v 0 c 0,8.2843 -5.583622,15 -12.470862,15 H -9.372213 c -6.887467,0 -12.470863,-6.7157 -12.470863,-15 z"
         fill="#1B1B1B"
         id="path1"
         style="fill:url(#linearGradient2);fill-opacity:1;stroke-width:0.911806" /><text
         xml:space="preserve"
         style="font-weight:bold;font-size:16px;font-family:Roboto;-inkscape-font-specification:'Roboto, Bold';text-align:start;writing-mode:lr-tb;direction:ltr;text-anchor:start;fill:#ffffff;fill-opacity:1;stroke-width:0.07"
         x="15.777678"
         y="20.28425"
         id="text3"><tspan
           id="tspan3"
           x="15.777678"
           y="20.28425">JetBrains</tspan></text><path
         style="fill:#ffffff;fill-opacity:1;stroke-width:0.493831"
         d="m -10.125239,23.559737 c -0.181071,-0.181072 -0.32922,-2.782644 -0.32922,-5.781271 v -5.45205 l 3.1850361,-3.1076868 3.1850366,-3.1076858 h 5.7039194 5.7039201 v 5.5688426 5.568843 L 3.9777009,20.568843 0.63194904,23.888957 H -4.5820345 c -2.8676913,0 -5.3621327,-0.148149 -5.5432045,-0.32922 z M 2.8789747,15.987663 v -5.432141 h -5.43214 -5.4321396 v 5.432141 5.432139 h 5.4321396 5.43214 z m -9.8766183,3.703731 c 0,-0.559675 0.6035713,-0.740746 2.4691546,-0.740746 1.8655834,0 2.4691546,0.181071 2.4691546,0.740746 0,0.559675 -0.6035712,0.740747 -2.4691546,0.740747 -1.8655833,0 -2.4691546,-0.181072 -2.4691546,-0.740747 z"
         id="path3" /></g></g></svg>
