<?xml version="1.0" encoding="UTF-8" standalone="no"?>
<svg
   width="143"
   height="30"
   viewBox="0 0 143 30"
   fill="none"
   version="1.1"
   id="svg3"
   xml:space="preserve"
   xmlns:xlink="http://www.w3.org/1999/xlink"
   xmlns="http://www.w3.org/2000/svg"
   xmlns:svg="http://www.w3.org/2000/svg"><defs
     id="defs3"><linearGradient
       id="linearGradient6"><stop
         style="stop-color:#47fec6;stop-opacity:1;"
         offset="0"
         id="stop6" /><stop
         style="stop-color:#06b8fc;stop-opacity:1;"
         offset="1"
         id="stop7" /></linearGradient><linearGradient
       xlink:href="#linearGradient6"
       id="linearGradient7"
       x1="0"
       y1="15"
       x2="114.4976"
       y2="15"
       gradientUnits="userSpaceOnUse" /></defs><g
     id="g5"
     transform="translate(8.958115)"><g
       id="g6"
       transform="translate(5.293085)"><g
         id="g7"><path
           d="M 0,15 C 0,6.71573 5.3771678,0 12.010238,0 h 90.477122 c 6.63286,0 12.01024,6.71573 12.01024,15 v 0 c 0,8.2843 -5.37738,15 -12.01024,15 H 12.010238 C 5.3771678,30 0,23.2843 0,15 Z"
           fill="#1b1b1b"
           id="path1"
           style="fill:url(#linearGradient7);fill-opacity:1;stroke-width:0.894808" /><text
           xml:space="preserve"
           style="font-style:normal;font-variant:normal;font-weight:bold;font-stretch:normal;font-size:18.6667px;font-family:Roboto;-inkscape-font-specification:'Roboto, Bold';font-variant-ligatures:normal;font-variant-caps:normal;font-variant-numeric:normal;font-variant-east-asian:normal;text-align:start;writing-mode:lr-tb;direction:ltr;text-anchor:start;fill:#ffffff;stroke-width:0.07"
           x="37.037197"
           y="21.241955"
           id="text3"><tspan
             id="tspan3"
             x="37.037197"
             y="21.241955">Kling AI</tspan></text><path
           style="fill:#ffffff;fill-opacity:1;stroke-width:0.190149"
           d="m 17.202778,23.830664 c -1.779044,-0.376125 -4.093561,-1.774918 -4.805506,-2.904245 -0.62103,-0.985109 -0.42922,-2.88958 0.481787,-4.783643 l 0.715513,-1.487613 -1.72769,-1.734903 -1.72769,-1.734904 0.762269,-1.007131 c 3.664124,-4.8411439 10.016462,-5.8266535 14.069372,-2.1827399 1.571165,1.4126118 1.648615,2.8722629 0.301573,5.6835309 l -0.628168,1.310986 1.680563,1.779119 1.680563,1.779119 -0.331558,0.571973 c -0.503956,0.869378 -2.244041,2.571488 -3.343522,3.270555 -2.097603,1.333686 -4.926624,1.905203 -7.127506,1.439896 z m 2.715125,-4.297897 c 3.719777,-1.821398 5.647381,-6.553524 3.594944,-8.825325 -0.817516,-0.9048921 -1.697478,-1.2142431 -3.093812,-1.0876271 -1.433365,0.129973 -2.686706,0.7525281 -4.043023,2.0082391 -1.333904,1.23496 -1.932475,2.193203 -2.33761,3.742248 -0.541369,2.069934 0.01859,3.611249 1.611193,4.434847 1.147559,0.593451 2.702726,0.494208 4.268308,-0.272382 z"
           id="path6" /></g></g></g></svg>
