<?xml version="1.0" encoding="UTF-8" standalone="no"?>
<svg
   width="168"
   height="30"
   viewBox="0 0 168 30"
   fill="none"
   version="1.1"
   id="svg5"
   xml:space="preserve"
   xmlns="http://www.w3.org/2000/svg"
   xmlns:svg="http://www.w3.org/2000/svg"><defs
     id="defs5"><rect
       x="102.96326"
       y="-18.767017"
       width="25.405689"
       height="19.086184"
       id="rect3" /></defs><g
     id="g4"
     transform="translate(-0.925583)"><path
       d="m 43.672106,15 c 0,-8.28427 3.298181,-15 7.366693,-15 h 67.773571 c 4.06838,0 7.36669,6.71573 7.36669,15 v 0 c 0,8.2843 -3.29831,15 -7.36669,15 H 51.038799 c -4.068512,0 -7.366693,-6.7157 -7.366693,-15 z"
       fill="#BFC2FF"
       id="path1"
       style="fill:#95e212;fill-opacity:1;stroke-width:0.700794" /><text
       xml:space="preserve"
       style="font-style:normal;font-variant:normal;font-weight:900;font-stretch:normal;font-size:14.6667px;font-family:Roboto;-inkscape-font-specification:'Roboto, Heavy';font-variant-ligatures:normal;font-variant-caps:normal;font-variant-numeric:normal;font-variant-east-asian:normal;fill:#fefeff;fill-opacity:1;stroke-width:1.00157;stroke-linejoin:round"
       x="75.614548"
       y="20.503593"
       id="text5"><tspan
         id="tspan5"
         x="75.614548"
         y="20.503593"
         style="font-style:normal;font-variant:normal;font-weight:900;font-stretch:normal;font-size:14.6667px;font-family:Roboto;-inkscape-font-specification:'Roboto, Heavy';font-variant-ligatures:normal;font-variant-caps:normal;font-variant-numeric:normal;font-variant-east-asian:normal;fill:#fefeff;fill-opacity:1">Kolors</tspan></text><path
       style="fill:#ffffff;fill-opacity:1;stroke-width:0.617338"
       d="M 53.577585,22.977255 C 50.971781,21.797616 50.45669,20.417805 50.45669,14.617086 V 9.4617969 L 51.95152,7.966967 53.44635,6.4721372 h 5.21596 c 4.579679,0 5.37344,0.1168828 6.506903,0.9581561 1.901894,1.4116064 2.540049,3.8075017 2.336235,8.7711407 -0.166712,4.060126 -0.23699,4.305184 -1.635674,5.703869 -1.430328,1.430329 -1.56142,1.464328 -6.151069,1.595265 -3.344457,0.09541 -5.105942,-0.05469 -6.14112,-0.523313 z M 64.55253,21.312691 c 2.466159,-1.939884 1.828523,-5.925356 -1.566668,-9.792266 -1.675826,-1.9086599 -5.402407,-3.8935398 -7.323536,-3.9007164 -0.657663,-0.00247 -1.730248,0.4159674 -2.383519,0.9298304 -3.492557,2.747246 -0.453961,9.8298 5.40824,12.60587 2.811289,1.331298 4.321477,1.371794 5.865483,0.157282 z"
       id="path4" /><text
       xml:space="preserve"
       id="text3"
       style="font-weight:900;font-size:14.6667px;font-family:Roboto;-inkscape-font-specification:'Roboto, Heavy';white-space:pre;shape-inside:url(#rect3);fill:#95e212;fill-opacity:1;stroke-width:1.68945;stroke-linejoin:round" /></g></svg>
