<?xml version="1.0" encoding="UTF-8" standalone="no"?>
<svg
   width="106.18362"
   height="30"
   viewBox="0 0 106.18362 30"
   fill="none"
   version="1.1"
   id="svg5"
   xml:space="preserve"
   xmlns="http://www.w3.org/2000/svg"
   xmlns:svg="http://www.w3.org/2000/svg"><defs
     id="defs5" /><g
     id="g7"><path
       d="m 15.627303,15 c 0,-8.28427 2.995255,-15 6.690091,-15 h 61.548825 c 3.694717,0 6.690095,6.71573 6.690095,15 v 0 c 0,8.2843 -2.995378,15 -6.690095,15 H 22.317394 c -3.694836,0 -6.690091,-6.7157 -6.690091,-15 z"
       fill="#BFC2FF"
       id="path1"
       style="fill:#000000;fill-opacity:1;stroke-width:0.667837" /><text
       xml:space="preserve"
       style="font-style:normal;font-variant:normal;font-weight:900;font-stretch:normal;font-size:14.6667px;font-family:Roboto;-inkscape-font-specification:'Roboto, Heavy';font-variant-ligatures:normal;font-variant-caps:normal;font-variant-numeric:normal;font-variant-east-asian:normal;fill:#fefeff;fill-opacity:1;stroke-width:1.00157;stroke-linejoin:round"
       x="38.137333"
       y="20.503416"
       id="text5"><tspan
         id="tspan5"
         x="38.137333"
         y="20.503416"
         style="font-style:normal;font-variant:normal;font-weight:900;font-stretch:normal;font-size:14.6667px;font-family:Roboto;-inkscape-font-specification:'Roboto, Heavy';font-variant-ligatures:normal;font-variant-caps:normal;font-variant-numeric:normal;font-variant-east-asian:normal;fill:#fefeff;fill-opacity:1">Kyutai</tspan></text><path
       style="fill:#39f2ae;fill-opacity:1;stroke-width:0.325944"
       d="m 25.262406,22.100141 c -0.337595,-0.406779 0.154576,-1.70654 2.869591,-7.578212 2.885843,-6.2411166 3.366963,-7.0872233 4.029989,-7.0872233 0.424048,0 0.795826,0.2228348 0.851161,0.5101633 0.115565,0.6000825 -6.010812,14.045564 -6.559848,14.396812 -0.542222,0.346891 -0.734986,0.307794 -1.190893,-0.24154 z"
       id="path7" /></g></svg>
