<?xml version="1.0" encoding="UTF-8" standalone="no"?>
<svg
   width="168"
   height="30"
   viewBox="0 0 168 30"
   fill="none"
   version="1.1"
   id="svg5"
   xml:space="preserve"
   xmlns="http://www.w3.org/2000/svg"
   xmlns:svg="http://www.w3.org/2000/svg"><defs
     id="defs5" /><g
     id="g8"><g
       id="g10"
       transform="translate(19.473946)"><g
         id="g2"
         transform="translate(13.336144)"><path
           d="m 10.062886,15 c 0,-8.28427 3.28807,-15 7.344112,-15 h 67.565823 c 4.055913,0 7.344113,6.71573 7.344113,15 v 0 c 0,8.2843 -3.2882,15 -7.344113,15 H 17.406998 c -4.056042,0 -7.344112,-6.7157 -7.344112,-15 z"
           fill="#BFC2FF"
           id="path1"
           style="fill:#ec297b;fill-opacity:1;stroke-width:0.69972" /><text
           xml:space="preserve"
           style="font-style:normal;font-variant:normal;font-weight:900;font-stretch:normal;font-size:14.6667px;font-family:Roboto;-inkscape-font-specification:'Roboto, Heavy';font-variant-ligatures:normal;font-variant-caps:normal;font-variant-numeric:normal;font-variant-east-asian:normal;fill:#fefeff;fill-opacity:1;stroke-width:1.00157;stroke-linejoin:round"
           x="43.404667"
           y="20.503416"
           id="text5"><tspan
             id="tspan5"
             x="43.404667"
             y="20.503416"
             style="font-style:normal;font-variant:normal;font-weight:900;font-stretch:normal;font-size:14.6667px;font-family:Roboto;-inkscape-font-specification:'Roboto, Heavy';font-variant-ligatures:normal;font-variant-caps:normal;font-variant-numeric:normal;font-variant-east-asian:normal;fill:#fefeff;fill-opacity:1">LG AI</tspan></text><path
           style="fill:#ffffff;fill-opacity:1;stroke:#ffffff;stroke-width:0.718709;stroke-linejoin:round;stroke-dasharray:none;stroke-opacity:1"
           d="m 27.738204,22.760001 c -1.954859,-0.188876 -3.920499,-1.225865 -5.171579,-2.728301 -0.884907,-1.062698 -1.48875,-2.344842 -1.72039,-3.652916 -0.115105,-0.649992 -0.139966,-1.836816 -0.05148,-2.457882 0.321088,-2.253898 1.692778,-4.2984975 3.710778,-5.5311688 1.155918,-0.70608 2.553652,-1.1292141 3.840303,-1.162572 l 0.526069,-0.013642 0.01573,0.3630339 c 0.0087,0.1996679 -0.0065,0.3853233 -0.03379,0.4125672 -0.02725,0.027249 -0.315924,0.070948 -0.641511,0.097124 -0.927013,0.074515 -2.053188,0.3725811 -2.654662,0.7026055 -0.173604,0.095256 -0.43251,0.2374811 -0.57535,0.3160589 -0.407613,0.2242316 -0.987748,0.6814236 -1.448379,1.1414343 -0.232371,0.23206 -0.422493,0.440998 -0.422493,0.464308 0,0.02331 -0.09262,0.154455 -0.205803,0.291434 -0.113189,0.136978 -0.332033,0.476897 -0.486315,0.755376 -1.089793,1.967092 -1.106271,4.439191 -0.04302,6.45348 0.435026,0.82414 0.8857,1.400191 1.546975,1.977346 0.91021,0.79442 1.893058,1.301942 3.054768,1.577417 0.459468,0.108947 0.655943,0.124774 1.551904,0.124948 0.897436,1.73e-4 1.09168,-0.01545 1.551903,-0.12472 1.804942,-0.428584 3.370467,-1.560703 4.373907,-3.163016 0.519868,-0.830132 0.965693,-2.199815 0.965693,-2.966842 v -0.241061 l -2.275247,-0.01371 -2.275249,-0.01371 -0.01586,-0.336602 c -0.0087,-0.18513 0.0063,-0.358759 0.03338,-0.385843 0.03637,-0.03637 3.941328,-0.06666 5.369583,-0.04165 0.06144,0.0011 0.06809,0.126846 0.0397,0.750943 -0.03855,0.847648 -0.110501,1.25989 -0.349773,2.004255 -0.89398,2.781089 -3.224668,4.821306 -6.076554,5.319246 -0.555861,0.09705 -1.57307,0.136184 -2.133223,0.08206 z m 1.870188,-0.184475 c 0.916833,-0.132788 1.519233,-0.328587 2.421255,-0.786985 2.008238,-1.020564 3.541426,-3.02183 3.992186,-5.210991 0.100498,-0.488068 0.203357,-1.633353 0.159192,-1.772504 -0.02855,-0.08994 -0.168312,-0.09504 -2.607107,-0.09504 h -2.576942 l 0.0159,0.276186 0.0159,0.276186 2.281993,0.01371 2.281991,0.01371 -0.03605,0.433443 c -0.0662,0.796045 -0.321343,1.672176 -0.721924,2.479034 -0.630922,1.27081 -1.837023,2.474193 -3.137992,3.130922 -0.44111,0.222668 -1.302029,0.5125 -1.845748,0.621378 -0.63235,0.126618 -2.075045,0.125277 -2.680248,-0.0024 -1.629193,-0.343953 -3.028678,-1.157589 -4.013552,-2.333413 -0.414506,-0.494869 -0.713464,-0.933271 -0.925852,-1.357696 -1.033848,-2.065983 -1.047762,-4.391726 -0.03826,-6.396316 0.194662,-0.386546 0.248095,-0.471817 0.623472,-0.994952 0.326954,-0.455652 1.22237,-1.3103777 1.748142,-1.6687018 C 25.634099,8.4723122 26.90288,8.0369143 28.22747,7.944189 L 28.740379,7.908287 V 7.6266188 7.3450456 l -0.328794,2.109e-4 c -0.65526,4.218e-4 -1.829513,0.2461776 -2.564585,0.536734 -2.361124,0.9332968 -4.159911,2.9395085 -4.763073,5.3123205 -0.445907,1.754178 -0.238347,3.569772 0.598271,5.233288 0.414156,0.8235 0.797335,1.343233 1.498146,2.032044 1.216204,1.195379 2.747793,1.932797 4.481594,2.157765 0.390483,0.05066 1.467466,0.02749 1.946454,-0.04187 z M 28.1333,18.958013 c -0.0138,-0.03617 -0.01898,-1.876752 -0.01145,-4.090186 l 0.01361,-4.024428 h 0.394553 0.394551 l 0.01351,3.668145 0.01351,3.668145 0.959718,0.01434 0.959718,0.01434 0.02631,0.357801 c 0.01447,0.19679 0.0039,0.380257 -0.02368,0.407704 -0.08048,0.08036 -2.709367,0.06515 -2.740288,-0.01585 z m 2.658747,-0.323165 c 0,-0.217689 -0.02067,-0.291638 -0.0888,-0.317782 -0.04883,-0.01874 -0.473757,-0.03097 -0.94427,-0.02719 -0.470514,0.0037 -0.879715,-0.0081 -0.909336,-0.02641 -0.03585,-0.02216 -0.05456,-1.240327 -0.05596,-3.645094 -0.0016,-2.809822 -0.01655,-3.620985 -0.06716,-3.653136 -0.07842,-0.04981 -0.313328,-0.0554 -0.430948,-0.01024 -0.07742,0.02971 -0.08402,0.341193 -0.07278,3.4326 0.0067,1.869959 0.02166,3.654412 0.03302,3.965451 l 0.02066,0.565524 h 1.257777 1.257776 z m -5.619361,-5.477769 c -0.303733,-0.131926 -0.481692,-0.289718 -0.642021,-0.569261 -0.500612,-0.872853 0.224419,-1.975807 1.221444,-1.858119 0.316567,0.03737 0.523148,0.14591 0.778519,0.409053 0.243635,0.25105 0.336716,0.496385 0.337021,0.888302 5.34e-4,0.685475 -0.559568,1.214067 -1.279904,1.2079 -0.132282,-0.0011 -0.319059,-0.03618 -0.415059,-0.07788 z m 0.722688,-0.07667 c 0.628763,-0.180326 1.013587,-0.919707 0.775003,-1.489048 -0.256686,-0.61254 -0.923223,-0.881007 -1.525678,-0.614513 -0.364095,0.161057 -0.66692,0.621028 -0.664324,1.009066 0.0023,0.350454 0.28695,0.810146 0.603483,0.97474 0.326817,0.169941 0.531311,0.200118 0.811516,0.119755 z"
           id="path2" /></g></g></g></svg>
