<?xml version="1.0" encoding="UTF-8" standalone="no"?>
<svg
   width="143"
   height="30"
   viewBox="0 0 143 30"
   fill="none"
   version="1.1"
   id="svg3"
   xml:space="preserve"
   xmlns="http://www.w3.org/2000/svg"
   xmlns:svg="http://www.w3.org/2000/svg"><defs
     id="defs3"><linearGradient
       id="swatch7"><stop
         style="stop-color:#ffffff;stop-opacity:1;"
         offset="0"
         id="stop7" /></linearGradient></defs><g
     id="g5"><g
       id="g7"
       transform="translate(3.4359901)"><g
         id="g10"><path
           style="fill:#ffffff;fill-opacity:1;stroke:#ffffff;stroke-width:0.0176777;stroke-dasharray:none;stroke-opacity:1"
           d=""
           id="path38" /><g
           id="g57"
           transform="translate(12.727923)"><path
             d="m 9.5129139,15 c 0,-8.352773 4.3040011,-15.1240353 9.6132531,-15.1240353 h 72.419831 c 5.309115,0 9.613262,6.7712623 9.613262,15.1240353 v 0 c 0,8.352803 -4.304147,15.124035 -9.613262,15.124035 H 19.126167 C 13.816915,30.124035 9.5129139,23.352803 9.5129139,15 Z"
             fill="#1b1b1b"
             id="path1"
             style="fill:#000000;fill-opacity:1;stroke-width:0.804154;stroke-dasharray:none" /><g
             id="g56"><text
               xml:space="preserve"
               style="font-style:normal;font-variant:normal;font-weight:bold;font-stretch:normal;font-size:18.6667px;font-family:Roboto;-inkscape-font-specification:'Roboto, Bold';font-variant-ligatures:normal;font-variant-caps:normal;font-variant-numeric:normal;font-variant-east-asian:normal;text-align:start;writing-mode:lr-tb;direction:ltr;text-anchor:start;fill:#ffffff;fill-opacity:1"
               x="40.960442"
               y="21.544283"
               id="text3"><tspan
                 id="tspan3"
                 x="40.960442"
                 y="21.544283"
                 style="font-style:normal;font-variant:normal;font-weight:bold;font-stretch:normal;font-size:18.6667px;font-family:Roboto;-inkscape-font-specification:'Roboto, Bold';font-variant-ligatures:normal;font-variant-caps:normal;font-variant-numeric:normal;font-variant-east-asian:normal;fill:#ffffff;fill-opacity:1">Liquid</tspan></text><g
               id="g55"
               transform="matrix(1.0758399,0,0,1.0758399,-6.760797,-1.7161785)"><path
                 style="fill:#ffffff;fill-opacity:1;stroke:#ffffff;stroke-width:0.00309359;stroke-dasharray:none;stroke-opacity:1"
                 d="m 33.488495,18.462116 c 0.01322,-0.05469 0.07062,-0.293853 0.127562,-0.531473 l 0.103527,-0.432037 -0.157185,-0.561165 -0.157184,-0.561165 -2.042876,-3.234107 C 30.238757,11.363411 29.275761,9.831558 29.222347,9.738051 l -0.09712,-0.170012 0.67054,-1.038563 c 0.368796,-0.5712102 0.69419,-1.0436974 0.723097,-1.0499722 0.04714,-0.010232 6.632727,9.9303982 6.600297,9.9628282 -0.0149,0.0149 -3.600218,1.119221 -3.633686,1.119221 -0.01156,0 -0.0102,-0.04475 0.003,-0.09944 z"
                 id="path53" /><path
                 style="fill:#ffffff;fill-opacity:1;stroke:#ffffff;stroke-width:0.00309359;stroke-dasharray:none;stroke-opacity:1"
                 d="m 28.947184,20.039829 c -0.887198,-1.34832 -1.611107,-2.476421 -1.608686,-2.506891 0.0035,-0.04436 4.462502,-6.858858 4.569117,-6.982818 0.04239,-0.04929 1.469583,2.263218 1.441669,2.335962 -0.01278,0.03329 -0.496679,0.811795 -1.07534,1.730003 -1.258499,1.996961 -1.338022,2.167922 -1.338022,2.876503 0,0.424458 0.01587,0.519083 0.157051,0.936299 0.156387,0.46216 0.158962,0.466132 0.609208,0.939595 l 0.452156,0.475473 0.626233,0.256639 0.626233,0.256639 -1.409462,1.068801 c -0.775203,0.58784 -1.415673,1.06801 -1.423265,1.067043 -0.0076,-9.66e-4 -0.739694,-1.104928 -1.626892,-2.453248 z"
                 id="path54"
                 transform="translate(-3.4359901)" /><path
                 style="fill:#ffffff;fill-opacity:1;stroke:#ffffff;stroke-width:0.00309359;stroke-dasharray:none;stroke-opacity:1"
                 d="m 32.178447,22.546028 c 0.05797,-0.04476 0.831286,-0.634089 1.718484,-1.30961 0.887198,-0.675522 1.636221,-1.246464 1.664494,-1.268761 0.02827,-0.0223 0.774051,-0.248818 1.657282,-0.503379 0.883231,-0.254562 1.831612,-0.533293 2.107514,-0.619402 0.275901,-0.08611 0.511459,-0.146742 0.523462,-0.134739 0.012,0.012 -0.559073,0.898301 -1.269058,1.969551 l -1.290881,1.947729 h -2.608347 c -2.542269,0 -2.605677,-0.0021 -2.50295,-0.08139 z"
                 id="path55"
                 transform="translate(-3.4359901)" /></g></g></g></g></g></g></svg>
