<?xml version="1.0" encoding="UTF-8" standalone="no"?>
<svg
   width="143"
   height="30"
   viewBox="0 0 143 30"
   fill="none"
   version="1.1"
   id="svg3"
   xml:space="preserve"
   xmlns="http://www.w3.org/2000/svg"
   xmlns:svg="http://www.w3.org/2000/svg"><defs
     id="defs3"><clipPath
       clipPathUnits="userSpaceOnUse"
       id="clipPath18"><rect
         style="fill:#000000;fill-opacity:1;stroke:none;stroke-width:0.641089;stroke-opacity:1"
         id="rect19"
         width="291.08121"
         height="301.19604"
         x="359.26968"
         y="-1077.1377" /></clipPath></defs><g
     id="g19"
     transform="translate(0.046689)"><path
       d="m 23.224422,15 c 0,-8.28427 4.529961,-15 10.117948,-15 h 76.22189 c 5.58781,0 10.11794,6.71573 10.11794,15 v 0 c 0,8.2843 -4.53013,15 -10.11794,15 H 33.34237 C 27.754383,30 23.224422,23.2843 23.224422,15 Z"
       fill="#1B1B1B"
       id="path1"
       style="fill:#1689d6;fill-opacity:1;stroke-width:0.821298" /><text
       xml:space="preserve"
       style="font-style:normal;font-variant:normal;font-weight:bold;font-stretch:normal;font-size:16px;font-family:Roboto;-inkscape-font-specification:'Roboto, Bold';font-variant-ligatures:normal;font-variant-caps:normal;font-variant-numeric:normal;font-variant-east-asian:normal;text-align:start;writing-mode:lr-tb;direction:ltr;text-anchor:start;fill:#ffffff;fill-opacity:1;stroke:#ffffff;stroke-width:0.07"
       x="64.966614"
       y="20.721687"
       id="text3"><tspan
         id="tspan3"
         x="64.966614"
         y="20.721687">LMNT</tspan></text><g
       id="g17"
       transform="matrix(0.09235236,0,0,0.09235236,-2.534221,101.28797)"
       clip-path="url(#clipPath18)"
       style="fill:#ffffff;fill-opacity:1"><g
         id="g18"
         transform="matrix(0.75565795,0,0,0.75565795,335.47227,-1097.7944)"
         style="fill:#ffffff;fill-opacity:1"><g
           id="g207"
           style="fill:#ffffff;fill-opacity:1"><g
             id="g203"
             style="fill:#ffffff;fill-opacity:1"><g
               id="g2"
               style="fill:#ffffff;fill-opacity:1"><path
                 d="m 498.11,286.38 h -48.85 c -2.02,0 -3.72,-0.69 -5.08,-2.05 -1.37,-1.37 -2.05,-3.06 -2.05,-5.08 v -19.79 c -0.12,-13.31 -0.18,-27.87 -0.18,-43.68 v -63.64 c 0,-2.02 0.68,-3.71 2.05,-5.08 1.37,-1.37 3.06,-2.05 5.08,-2.05 1.9,0 3.57,0.69 4.99,2.05 1.43,1.37 2.14,3.06 2.14,5.08 v 63.47 c 0,15.93 0.06,30.55 0.18,43.86 v 12.66 h 41.72 c 2.02,0 3.71,0.71 5.08,2.14 1.36,1.43 2.05,3.09 2.05,4.99 0,1.9 -0.69,3.57 -2.05,4.99 -1.37,1.43 -3.06,2.14 -5.08,2.14 z"
                 style="fill:#ffffff;fill-opacity:1;stroke-width:0px"
                 id="path1-9" /><path
                 d="m 853.05,145.18 h 3.21 c 2.26,0 4.93,-0.06 8.02,-0.18 h 57.58 c 0.47,0 0.92,-0.03 1.34,-0.09 0.42,-0.06 0.74,-0.09 0.98,-0.09 h 0.89 c 1.9,0 3.57,0.71 4.99,2.14 1.43,1.43 2.14,3.09 2.14,4.99 0,1.9 -0.71,3.57 -2.14,4.99 -1.43,1.43 -3.09,2.14 -4.99,2.14 h -0.89 c -0.24,0 -0.57,0.03 -0.98,0.09 -0.42,0.06 -0.86,0.09 -1.34,0.09 h -26.38 v 13.91 c 0.12,13.43 0.18,28.17 0.18,44.21 v 64.18 c 0,2.02 -0.69,3.71 -2.05,5.08 -1.37,1.36 -3.06,2.05 -5.08,2.05 -2.02,0 -3.72,-0.69 -5.08,-2.05 -1.37,-1.37 -2.05,-3.06 -2.05,-5.08 v -64.18 c 0,-16.04 -0.06,-30.78 -0.18,-44.21 v -13.91 h -16.76 c -3.21,0.12 -5.94,0.18 -8.2,0.18 h -3.03 c -2.02,0 -3.72,-0.71 -5.08,-2.14 -1.37,-1.43 -2.05,-3.09 -2.05,-4.99 0,-2.02 0.68,-3.71 2.05,-5.08 1.36,-1.36 3,-2.05 4.9,-2.05 z"
                 style="fill:#ffffff;fill-opacity:1;stroke-width:0px"
                 id="path2" /></g><g
               id="g202"
               style="fill:#ffffff;fill-opacity:1"><g
                 id="g54"
                 style="fill:#ffffff;fill-opacity:1"><circle
                   cx="383.12"
                   cy="224.97"
                   r="1.33"
                   style="fill:#ffffff;fill-opacity:1;stroke-width:0px"
                   id="circle2" /><circle
                   cx="381.69"
                   cy="236.5"
                   r="3.25"
                   style="fill:#ffffff;fill-opacity:1;stroke-width:0px"
                   id="circle3" /><circle
                   cx="380.41"
                   cy="247.62"
                   r="3.1900001"
                   style="fill:#ffffff;fill-opacity:1;stroke-width:0px"
                   id="circle4" /><circle
                   cx="373.10999"
                   cy="271.14001"
                   r="2.6500001"
                   style="fill:#ffffff;fill-opacity:1;stroke-width:0px"
                   id="circle5" /><circle
                   cx="377.25"
                   cy="261.35001"
                   r="2.1800001"
                   style="fill:#ffffff;fill-opacity:1;stroke-width:0px"
                   id="circle6" /><circle
                   cx="374.97"
                   cy="266.22"
                   r="1.53"
                   style="fill:#ffffff;fill-opacity:1;stroke-width:0px"
                   id="circle7" /><circle
                   cx="369.63"
                   cy="280.89001"
                   r="2.1300001"
                   style="fill:#ffffff;fill-opacity:1;stroke-width:0px"
                   id="circle8" /><circle
                   cx="367.47"
                   cy="285.92999"
                   r="2.5699999"
                   style="fill:#ffffff;fill-opacity:1;stroke-width:0px"
                   id="circle9" /><circle
                   cx="351.60001"
                   cy="310.89999"
                   r="3.5699999"
                   style="fill:#ffffff;fill-opacity:1;stroke-width:0px"
                   id="circle10" /><circle
                   cx="343.04999"
                   cy="320.32999"
                   r="2.3599999"
                   style="fill:#ffffff;fill-opacity:1;stroke-width:0px"
                   id="circle11" /><circle
                   cx="336.82001"
                   cy="326.56"
                   r="2.71"
                   style="fill:#ffffff;fill-opacity:1;stroke-width:0px"
                   id="circle12" /><circle
                   cx="320.85999"
                   cy="340.59"
                   r="1.74"
                   style="fill:#ffffff;fill-opacity:1;stroke-width:0px"
                   id="circle13" /><circle
                   cx="305.97"
                   cy="350.06"
                   r="3.51"
                   style="fill:#ffffff;fill-opacity:1;stroke-width:0px"
                   id="circle14" /><circle
                   cx="292.28"
                   cy="357.29999"
                   r="1.9299999"
                   style="fill:#ffffff;fill-opacity:1;stroke-width:0px"
                   id="circle15" /><circle
                   cx="272.81"
                   cy="364.26001"
                   r="2.0799999"
                   style="fill:#ffffff;fill-opacity:1;stroke-width:0px"
                   id="circle16" /><circle
                   cx="243.89"
                   cy="369.47"
                   r="2.03"
                   style="fill:#ffffff;fill-opacity:1;stroke-width:0px"
                   id="circle17" /><circle
                   cx="228.35001"
                   cy="370.95999"
                   r="1.74"
                   style="fill:#ffffff;fill-opacity:1;stroke-width:0px"
                   id="circle18" /><circle
                   cx="202.71001"
                   cy="368"
                   r="2"
                   style="fill:#ffffff;fill-opacity:1;stroke-width:0px"
                   id="circle19" /><circle
                   cx="189.67999"
                   cy="365.39001"
                   r="3.1300001"
                   style="fill:#ffffff;fill-opacity:1;stroke-width:0px"
                   id="circle20" /><circle
                   cx="178.19"
                   cy="361.28"
                   r="3.0799999"
                   style="fill:#ffffff;fill-opacity:1;stroke-width:0px"
                   id="circle21" /><circle
                   cx="169.66"
                   cy="358.23001"
                   r="2.8800001"
                   style="fill:#ffffff;fill-opacity:1;stroke-width:0px"
                   id="circle22" /><circle
                   cx="144.38"
                   cy="344.35001"
                   r="2.8499999"
                   style="fill:#ffffff;fill-opacity:1;stroke-width:0px"
                   id="circle23" /><circle
                   cx="134.88"
                   cy="338.29999"
                   r="2.1600001"
                   style="fill:#ffffff;fill-opacity:1;stroke-width:0px"
                   id="circle24" /><circle
                   cx="128.14"
                   cy="332.19"
                   r="3.1800001"
                   style="fill:#ffffff;fill-opacity:1;stroke-width:0px"
                   id="circle25" /><circle
                   cx="114.23"
                   cy="318.28"
                   r="2.5799999"
                   style="fill:#ffffff;fill-opacity:1;stroke-width:0px"
                   id="circle26" /><circle
                   cx="100.96"
                   cy="300.25"
                   r="3.74"
                   style="fill:#ffffff;fill-opacity:1;stroke-width:0px"
                   id="circle27" /><circle
                   cx="88.059998"
                   cy="276.29001"
                   r="3.46"
                   style="fill:#ffffff;fill-opacity:1;stroke-width:0px"
                   id="circle28" /><circle
                   cx="78.910004"
                   cy="247.55"
                   r="3.6300001"
                   style="fill:#ffffff;fill-opacity:1;stroke-width:0px"
                   id="circle29" /><circle
                   cx="75.580002"
                   cy="218.60001"
                   r="3.5699999"
                   style="fill:#ffffff;fill-opacity:1;stroke-width:0px"
                   id="circle30" /><circle
                   cx="77.739998"
                   cy="196.31"
                   r="3.3900001"
                   style="fill:#ffffff;fill-opacity:1;stroke-width:0px"
                   id="circle31" /><circle
                   cx="84.510002"
                   cy="167.28"
                   r="1.52"
                   style="fill:#ffffff;fill-opacity:1;stroke-width:0px"
                   id="circle32" /><circle
                   cx="96.5"
                   cy="140.39999"
                   r="1.35"
                   style="fill:#ffffff;fill-opacity:1;stroke-width:0px"
                   id="circle33" /><circle
                   cx="107.9"
                   cy="122.46"
                   r="1.5"
                   style="fill:#ffffff;fill-opacity:1;stroke-width:0px"
                   id="circle34" /><circle
                   cx="116.87"
                   cy="112.71"
                   r="1.65"
                   style="fill:#ffffff;fill-opacity:1;stroke-width:0px"
                   id="circle35" /><circle
                   cx="132.33"
                   cy="97.260002"
                   r="3.6300001"
                   style="fill:#ffffff;fill-opacity:1;stroke-width:0px"
                   id="circle36" /><circle
                   cx="145.24001"
                   cy="88.739998"
                   r="1.99"
                   style="fill:#ffffff;fill-opacity:1;stroke-width:0px"
                   id="circle37" /><circle
                   cx="171.92"
                   cy="74.589996"
                   r="3.79"
                   style="fill:#ffffff;fill-opacity:1;stroke-width:0px"
                   id="circle38" /><circle
                   cx="198.32001"
                   cy="66.139999"
                   r="2.8"
                   style="fill:#ffffff;fill-opacity:1;stroke-width:0px"
                   id="circle39" /><circle
                   cx="226.06"
                   cy="62.939999"
                   r="3.01"
                   style="fill:#ffffff;fill-opacity:1;stroke-width:0px"
                   id="circle40" /><circle
                   cx="245.08"
                   cy="64.300003"
                   r="2.71"
                   style="fill:#ffffff;fill-opacity:1;stroke-width:0px"
                   id="circle41" /><circle
                   cx="264.82999"
                   cy="66.580002"
                   r="2.27"
                   style="fill:#ffffff;fill-opacity:1;stroke-width:0px"
                   id="circle42" /><circle
                   cx="272.78"
                   cy="68.349998"
                   r="2.9100001"
                   style="fill:#ffffff;fill-opacity:1;stroke-width:0px"
                   id="circle43" /><circle
                   cx="294.56"
                   cy="77.150002"
                   r="1.78"
                   style="fill:#ffffff;fill-opacity:1;stroke-width:0px"
                   id="circle44" /><circle
                   cx="311.35999"
                   cy="87.010002"
                   r="3.73"
                   style="fill:#ffffff;fill-opacity:1;stroke-width:0px"
                   id="circle45" /><circle
                   cx="332.60999"
                   cy="102.86"
                   r="3.47"
                   style="fill:#ffffff;fill-opacity:1;stroke-width:0px"
                   id="circle46" /><circle
                   cx="339.81"
                   cy="109.27"
                   r="2.76"
                   style="fill:#ffffff;fill-opacity:1;stroke-width:0px"
                   id="circle47" /><circle
                   cx="353.32999"
                   cy="125.45"
                   r="3.8699999"
                   style="fill:#ffffff;fill-opacity:1;stroke-width:0px"
                   id="circle48" /><circle
                   cx="358.76001"
                   cy="132.37"
                   r="2.1099999"
                   style="fill:#ffffff;fill-opacity:1;stroke-width:0px"
                   id="circle49" /><circle
                   cx="364.03"
                   cy="142.3"
                   r="2.53"
                   style="fill:#ffffff;fill-opacity:1;stroke-width:0px"
                   id="circle50" /><circle
                   cx="367.98999"
                   cy="148.53"
                   r="3.73"
                   style="fill:#ffffff;fill-opacity:1;stroke-width:0px"
                   id="circle51" /><circle
                   cx="372.79999"
                   cy="161.62"
                   r="2.5999999"
                   style="fill:#ffffff;fill-opacity:1;stroke-width:0px"
                   id="circle52" /><circle
                   cx="380.76001"
                   cy="189.03"
                   r="3.23"
                   style="fill:#ffffff;fill-opacity:1;stroke-width:0px"
                   id="circle53" /><circle
                   cx="383.95999"
                   cy="217.81"
                   r="3.24"
                   style="fill:#ffffff;fill-opacity:1;stroke-width:0px"
                   id="circle54" /></g><g
                 id="g105"
                 style="fill:#ffffff;fill-opacity:1"><circle
                   cx="372.26999"
                   cy="218.25"
                   r="2.3900001"
                   style="fill:#ffffff;fill-opacity:1;stroke-width:0px"
                   id="circle55" /><circle
                   cx="369.82999"
                   cy="243.21001"
                   r="2.05"
                   style="fill:#ffffff;fill-opacity:1;stroke-width:0px"
                   id="circle56" /><circle
                   cx="368.13"
                   cy="250.16"
                   r="3.26"
                   style="fill:#ffffff;fill-opacity:1;stroke-width:0px"
                   id="circle57" /><circle
                   cx="365.76999"
                   cy="257.25"
                   r="2.78"
                   style="fill:#ffffff;fill-opacity:1;stroke-width:0px"
                   id="circle58" /><circle
                   cx="359.98001"
                   cy="272.98001"
                   r="2.9100001"
                   style="fill:#ffffff;fill-opacity:1;stroke-width:0px"
                   id="circle59" /><circle
                   cx="353.91"
                   cy="285.10999"
                   r="2.4000001"
                   style="fill:#ffffff;fill-opacity:1;stroke-width:0px"
                   id="circle60" /><circle
                   cx="349.39001"
                   cy="291.98001"
                   r="3.6099999"
                   style="fill:#ffffff;fill-opacity:1;stroke-width:0px"
                   id="circle61" /><circle
                   cx="330.25"
                   cy="315.81"
                   r="2.0999999"
                   style="fill:#ffffff;fill-opacity:1;stroke-width:0px"
                   id="circle62" /><circle
                   cx="325.10001"
                   cy="320.95999"
                   r="2.3800001"
                   style="fill:#ffffff;fill-opacity:1;stroke-width:0px"
                   id="circle63" /><circle
                   cx="321.07999"
                   cy="325.06"
                   r="2.05"
                   style="fill:#ffffff;fill-opacity:1;stroke-width:0px"
                   id="circle64" /><circle
                   cx="315.48001"
                   cy="329.28"
                   r="3.01"
                   style="fill:#ffffff;fill-opacity:1;stroke-width:0px"
                   id="circle65" /><circle
                   cx="293.85001"
                   cy="343.03"
                   r="1.87"
                   style="fill:#ffffff;fill-opacity:1;stroke-width:0px"
                   id="circle66" /><circle
                   cx="274.51001"
                   cy="350.31"
                   r="2.05"
                   style="fill:#ffffff;fill-opacity:1;stroke-width:0px"
                   id="circle67" /><circle
                   cx="245.58"
                   cy="356.57001"
                   r="1.38"
                   style="fill:#ffffff;fill-opacity:1;stroke-width:0px"
                   id="circle68" /><circle
                   cx="223.67"
                   cy="357.70999"
                   r="3.6199999"
                   style="fill:#ffffff;fill-opacity:1;stroke-width:0px"
                   id="circle69" /><circle
                   cx="202.73"
                   cy="355.29999"
                   r="2.02"
                   style="fill:#ffffff;fill-opacity:1;stroke-width:0px"
                   id="circle70" /><circle
                   cx="178.14"
                   cy="348.79001"
                   r="1.67"
                   style="fill:#ffffff;fill-opacity:1;stroke-width:0px"
                   id="circle71" /><circle
                   cx="171.73"
                   cy="345.63"
                   r="3.6500001"
                   style="fill:#ffffff;fill-opacity:1;stroke-width:0px"
                   id="circle72" /><circle
                   cx="156.73"
                   cy="337.47"
                   r="2.3"
                   style="fill:#ffffff;fill-opacity:1;stroke-width:0px"
                   id="circle73" /><circle
                   cx="140.78999"
                   cy="327.34"
                   r="3.1600001"
                   style="fill:#ffffff;fill-opacity:1;stroke-width:0px"
                   id="circle74" /><circle
                   cx="130.96001"
                   cy="317.69"
                   r="3.74"
                   style="fill:#ffffff;fill-opacity:1;stroke-width:0px"
                   id="circle75" /><circle
                   cx="112.32"
                   cy="295.72"
                   r="3.5999999"
                   style="fill:#ffffff;fill-opacity:1;stroke-width:0px"
                   id="circle76" /><circle
                   cx="104.55"
                   cy="283.5"
                   r="3.3"
                   style="fill:#ffffff;fill-opacity:1;stroke-width:0px"
                   id="circle77" /><circle
                   cx="100.05"
                   cy="276.89001"
                   r="1.75"
                   style="fill:#ffffff;fill-opacity:1;stroke-width:0px"
                   id="circle78" /><circle
                   cx="93.870003"
                   cy="257.64001"
                   r="3.54"
                   style="fill:#ffffff;fill-opacity:1;stroke-width:0px"
                   id="circle79" /><circle
                   cx="88.510002"
                   cy="230.88"
                   r="1.78"
                   style="fill:#ffffff;fill-opacity:1;stroke-width:0px"
                   id="circle80" /><circle
                   cx="87.660004"
                   cy="207.47"
                   r="2.71"
                   style="fill:#ffffff;fill-opacity:1;stroke-width:0px"
                   id="circle81" /><circle
                   cx="89.870003"
                   cy="188.22"
                   r="1.6"
                   style="fill:#ffffff;fill-opacity:1;stroke-width:0px"
                   id="circle82" /><circle
                   cx="96.110001"
                   cy="167.03999"
                   r="2.8299999"
                   style="fill:#ffffff;fill-opacity:1;stroke-width:0px"
                   id="circle83" /><circle
                   cx="107.87"
                   cy="142.22"
                   r="2.3099999"
                   style="fill:#ffffff;fill-opacity:1;stroke-width:0px"
                   id="circle84" /><circle
                   cx="124.65"
                   cy="119.57"
                   r="1.61"
                   style="fill:#ffffff;fill-opacity:1;stroke-width:0px"
                   id="circle85" /><circle
                   cx="137.46001"
                   cy="106.76"
                   r="2.1199999"
                   style="fill:#ffffff;fill-opacity:1;stroke-width:0px"
                   id="circle86" /><circle
                   cx="148.75"
                   cy="98.550003"
                   r="2.51"
                   style="fill:#ffffff;fill-opacity:1;stroke-width:0px"
                   id="circle87" /><circle
                   cx="158.75"
                   cy="92.190002"
                   r="1.73"
                   style="fill:#ffffff;fill-opacity:1;stroke-width:0px"
                   id="circle88" /><circle
                   cx="168.97"
                   cy="86.300003"
                   r="2.6800001"
                   style="fill:#ffffff;fill-opacity:1;stroke-width:0px"
                   id="circle89" /><circle
                   cx="189.95"
                   cy="78.800003"
                   r="1.67"
                   style="fill:#ffffff;fill-opacity:1;stroke-width:0px"
                   id="circle90" /><circle
                   cx="198.55"
                   cy="76.129997"
                   r="3.75"
                   style="fill:#ffffff;fill-opacity:1;stroke-width:0px"
                   id="circle91" /><circle
                   cx="207.11"
                   cy="75.139999"
                   r="3.0899999"
                   style="fill:#ffffff;fill-opacity:1;stroke-width:0px"
                   id="circle92" /><circle
                   cx="219.24001"
                   cy="73.75"
                   r="2.4400001"
                   style="fill:#ffffff;fill-opacity:1;stroke-width:0px"
                   id="circle93" /><circle
                   cx="239.92999"
                   cy="73.730003"
                   r="1.75"
                   style="fill:#ffffff;fill-opacity:1;stroke-width:0px"
                   id="circle94" /><circle
                   cx="268.79999"
                   cy="78.589996"
                   r="3.76"
                   style="fill:#ffffff;fill-opacity:1;stroke-width:0px"
                   id="circle95" /><circle
                   cx="270.39999"
                   cy="79.160004"
                   r="1.4400001"
                   style="fill:#ffffff;fill-opacity:1;stroke-width:0px"
                   id="circle96" /><circle
                   cx="280.85001"
                   cy="82.900002"
                   r="2.8199999"
                   style="fill:#ffffff;fill-opacity:1;stroke-width:0px"
                   id="circle97" /><circle
                   cx="308.01999"
                   cy="96.919998"
                   r="1.73"
                   style="fill:#ffffff;fill-opacity:1;stroke-width:0px"
                   id="circle98" /><circle
                   cx="323.92001"
                   cy="108.81"
                   r="3.3699999"
                   style="fill:#ffffff;fill-opacity:1;stroke-width:0px"
                   id="circle99" /><circle
                   cx="330.48999"
                   cy="114.68"
                   r="3.3299999"
                   style="fill:#ffffff;fill-opacity:1;stroke-width:0px"
                   id="circle100" /><circle
                   cx="344.14001"
                   cy="130.71001"
                   r="1.3200001"
                   style="fill:#ffffff;fill-opacity:1;stroke-width:0px"
                   id="circle101" /><circle
                   cx="359.25"
                   cy="155.92999"
                   r="2.0699999"
                   style="fill:#ffffff;fill-opacity:1;stroke-width:0px"
                   id="circle102" /><circle
                   cx="367.19"
                   cy="178.13"
                   r="3.1300001"
                   style="fill:#ffffff;fill-opacity:1;stroke-width:0px"
                   id="circle103" /><circle
                   cx="370.82001"
                   cy="200.11"
                   r="2.8"
                   style="fill:#ffffff;fill-opacity:1;stroke-width:0px"
                   id="circle104" /><circle
                   cx="372.48999"
                   cy="211.92999"
                   r="1.91"
                   style="fill:#ffffff;fill-opacity:1;stroke-width:0px"
                   id="circle105" /></g><g
                 id="g152"
                 style="fill:#ffffff;fill-opacity:1"><circle
                   cx="360.01001"
                   cy="226.72"
                   r="3.48"
                   style="fill:#ffffff;fill-opacity:1;stroke-width:0px"
                   id="circle106" /><circle
                   cx="358.06"
                   cy="243.64"
                   r="1.35"
                   style="fill:#ffffff;fill-opacity:1;stroke-width:0px"
                   id="circle107" /><circle
                   cx="354.13"
                   cy="256.44"
                   r="2.3399999"
                   style="fill:#ffffff;fill-opacity:1;stroke-width:0px"
                   id="circle108" /><circle
                   cx="341.39001"
                   cy="284.17999"
                   r="2.7"
                   style="fill:#ffffff;fill-opacity:1;stroke-width:0px"
                   id="circle109" /><circle
                   cx="327.64999"
                   cy="303.10999"
                   r="1.37"
                   style="fill:#ffffff;fill-opacity:1;stroke-width:0px"
                   id="circle110" /><circle
                   cx="317.25"
                   cy="313.5"
                   r="1.62"
                   style="fill:#ffffff;fill-opacity:1;stroke-width:0px"
                   id="circle111" /><circle
                   cx="295.69"
                   cy="329.14001"
                   r="1.85"
                   style="fill:#ffffff;fill-opacity:1;stroke-width:0px"
                   id="circle112" /><circle
                   cx="284.07001"
                   cy="335.57001"
                   r="1.5"
                   style="fill:#ffffff;fill-opacity:1;stroke-width:0px"
                   id="circle113" /><circle
                   cx="260.97"
                   cy="343.82001"
                   r="3.8099999"
                   style="fill:#ffffff;fill-opacity:1;stroke-width:0px"
                   id="circle114" /><circle
                   cx="240.89999"
                   cy="346.41"
                   r="1.36"
                   style="fill:#ffffff;fill-opacity:1;stroke-width:0px"
                   id="circle115" /><circle
                   cx="224.78999"
                   cy="347.14001"
                   r="3.3399999"
                   style="fill:#ffffff;fill-opacity:1;stroke-width:0px"
                   id="circle116" /><circle
                   cx="207.07001"
                   cy="345.10001"
                   r="2.3399999"
                   style="fill:#ffffff;fill-opacity:1;stroke-width:0px"
                   id="circle117" /><circle
                   cx="198.33"
                   cy="343.81"
                   r="3.6500001"
                   style="fill:#ffffff;fill-opacity:1;stroke-width:0px"
                   id="circle118" /><circle
                   cx="176.96001"
                   cy="336.17999"
                   r="3.25"
                   style="fill:#ffffff;fill-opacity:1;stroke-width:0px"
                   id="circle119" /><circle
                   cx="157.95"
                   cy="325.51999"
                   r="3.6900001"
                   style="fill:#ffffff;fill-opacity:1;stroke-width:0px"
                   id="circle120" /><circle
                   cx="137.98"
                   cy="309.41"
                   r="1.78"
                   style="fill:#ffffff;fill-opacity:1;stroke-width:0px"
                   id="circle121" /><circle
                   cx="130.53"
                   cy="301.95999"
                   r="2.9100001"
                   style="fill:#ffffff;fill-opacity:1;stroke-width:0px"
                   id="circle122" /><circle
                   cx="115.29"
                   cy="280.01001"
                   r="1.9299999"
                   style="fill:#ffffff;fill-opacity:1;stroke-width:0px"
                   id="circle123" /><circle
                   cx="103.84"
                   cy="252.64999"
                   r="3.8800001"
                   style="fill:#ffffff;fill-opacity:1;stroke-width:0px"
                   id="circle124" /><circle
                   cx="101.45"
                   cy="245.22"
                   r="1.58"
                   style="fill:#ffffff;fill-opacity:1;stroke-width:0px"
                   id="circle125" /><circle
                   cx="101.01"
                   cy="241.45"
                   r="1.62"
                   style="fill:#ffffff;fill-opacity:1;stroke-width:0px"
                   id="circle126" /><circle
                   cx="98.459999"
                   cy="212.97"
                   r="2.52"
                   style="fill:#ffffff;fill-opacity:1;stroke-width:0px"
                   id="circle127" /><circle
                   cx="99.379997"
                   cy="204.96001"
                   r="2.49"
                   style="fill:#ffffff;fill-opacity:1;stroke-width:0px"
                   id="circle128" /><circle
                   cx="103.12"
                   cy="181.64999"
                   r="3.3699999"
                   style="fill:#ffffff;fill-opacity:1;stroke-width:0px"
                   id="circle129" /><circle
                   cx="109.24"
                   cy="164.50999"
                   r="2.3599999"
                   style="fill:#ffffff;fill-opacity:1;stroke-width:0px"
                   id="circle130" /><circle
                   cx="111.76"
                   cy="157.83"
                   r="1.84"
                   style="fill:#ffffff;fill-opacity:1;stroke-width:0px"
                   id="circle131" /><circle
                   cx="122.89"
                   cy="140.31"
                   r="3.7"
                   style="fill:#ffffff;fill-opacity:1;stroke-width:0px"
                   id="circle132" /><circle
                   cx="138.74001"
                   cy="122.66"
                   r="3.28"
                   style="fill:#ffffff;fill-opacity:1;stroke-width:0px"
                   id="circle133" /><circle
                   cx="144.75999"
                   cy="116.09"
                   r="3.22"
                   style="fill:#ffffff;fill-opacity:1;stroke-width:0px"
                   id="circle134" /><circle
                   cx="157.24001"
                   cy="107.2"
                   r="2.6700001"
                   style="fill:#ffffff;fill-opacity:1;stroke-width:0px"
                   id="circle135" /><circle
                   cx="182.41"
                   cy="94.160004"
                   r="2.8699999"
                   style="fill:#ffffff;fill-opacity:1;stroke-width:0px"
                   id="circle136" /><circle
                   cx="191.24001"
                   cy="91"
                   r="2.6500001"
                   style="fill:#ffffff;fill-opacity:1;stroke-width:0px"
                   id="circle137" /><circle
                   cx="221.02"
                   cy="85.57"
                   r="2.3499999"
                   style="fill:#ffffff;fill-opacity:1;stroke-width:0px"
                   id="circle138" /><circle
                   cx="236.25"
                   cy="85.330002"
                   r="3.1800001"
                   style="fill:#ffffff;fill-opacity:1;stroke-width:0px"
                   id="circle139" /><circle
                   cx="253.00999"
                   cy="87.260002"
                   r="3.6400001"
                   style="fill:#ffffff;fill-opacity:1;stroke-width:0px"
                   id="circle140" /><circle
                   cx="265.20001"
                   cy="89.970001"
                   r="1.9299999"
                   style="fill:#ffffff;fill-opacity:1;stroke-width:0px"
                   id="circle141" /><circle
                   cx="277.32001"
                   cy="94.300003"
                   r="1.88"
                   style="fill:#ffffff;fill-opacity:1;stroke-width:0px"
                   id="circle142" /><circle
                   cx="295.45001"
                   cy="102.52"
                   r="2.54"
                   style="fill:#ffffff;fill-opacity:1;stroke-width:0px"
                   id="circle143" /><circle
                   cx="301.82001"
                   cy="107.04"
                   r="2.49"
                   style="fill:#ffffff;fill-opacity:1;stroke-width:0px"
                   id="circle144" /><circle
                   cx="317.32999"
                   cy="118.86"
                   r="2.9300001"
                   style="fill:#ffffff;fill-opacity:1;stroke-width:0px"
                   id="circle145" /><circle
                   cx="331.35999"
                   cy="132.88"
                   r="2.48"
                   style="fill:#ffffff;fill-opacity:1;stroke-width:0px"
                   id="circle146" /><circle
                   cx="340.38"
                   cy="146.50999"
                   r="2.7"
                   style="fill:#ffffff;fill-opacity:1;stroke-width:0px"
                   id="circle147" /><circle
                   cx="343.98999"
                   cy="152.2"
                   r="3.48"
                   style="fill:#ffffff;fill-opacity:1;stroke-width:0px"
                   id="circle148" /><circle
                   cx="351.67999"
                   cy="168.98"
                   r="2.0799999"
                   style="fill:#ffffff;fill-opacity:1;stroke-width:0px"
                   id="circle149" /><circle
                   cx="354.14001"
                   cy="175.85001"
                   r="1.5"
                   style="fill:#ffffff;fill-opacity:1;stroke-width:0px"
                   id="circle150" /><circle
                   cx="358.70999"
                   cy="194.22"
                   r="1.34"
                   style="fill:#ffffff;fill-opacity:1;stroke-width:0px"
                   id="circle151" /><circle
                   cx="361.23001"
                   cy="216.14"
                   r="1.52"
                   style="fill:#ffffff;fill-opacity:1;stroke-width:0px"
                   id="circle152" /></g><g
                 id="g201"
                 style="fill:#ffffff;fill-opacity:1"><circle
                   cx="348.85999"
                   cy="224.57001"
                   r="2.02"
                   style="fill:#ffffff;fill-opacity:1;stroke-width:0px"
                   id="circle153" /><circle
                   cx="346.84"
                   cy="242.09"
                   r="1.51"
                   style="fill:#ffffff;fill-opacity:1;stroke-width:0px"
                   id="circle154" /><circle
                   cx="342.35999"
                   cy="255.49001"
                   r="3.3599999"
                   style="fill:#ffffff;fill-opacity:1;stroke-width:0px"
                   id="circle155" /><circle
                   cx="328.60999"
                   cy="282.89001"
                   r="1.87"
                   style="fill:#ffffff;fill-opacity:1;stroke-width:0px"
                   id="circle156" /><circle
                   cx="324.66"
                   cy="289.10999"
                   r="1.54"
                   style="fill:#ffffff;fill-opacity:1;stroke-width:0px"
                   id="circle157" /><circle
                   cx="312.39001"
                   cy="302.06"
                   r="3.04"
                   style="fill:#ffffff;fill-opacity:1;stroke-width:0px"
                   id="circle158" /><circle
                   cx="299.12"
                   cy="313.23999"
                   r="3.8800001"
                   style="fill:#ffffff;fill-opacity:1;stroke-width:0px"
                   id="circle159" /><circle
                   cx="291.26999"
                   cy="318.23001"
                   r="3.3800001"
                   style="fill:#ffffff;fill-opacity:1;stroke-width:0px"
                   id="circle160" /><circle
                   cx="265.73999"
                   cy="329.79001"
                   r="3.1700001"
                   style="fill:#ffffff;fill-opacity:1;stroke-width:0px"
                   id="circle161" /><circle
                   cx="245.5"
                   cy="334.19"
                   r="3.3399999"
                   style="fill:#ffffff;fill-opacity:1;stroke-width:0px"
                   id="circle162" /><circle
                   cx="232.38"
                   cy="335.70001"
                   r="3.8800001"
                   style="fill:#ffffff;fill-opacity:1;stroke-width:0px"
                   id="circle163" /><circle
                   cx="212.60001"
                   cy="334.04001"
                   r="2.6099999"
                   style="fill:#ffffff;fill-opacity:1;stroke-width:0px"
                   id="circle164" /><circle
                   cx="202.14999"
                   cy="332.84"
                   r="1.4299999"
                   style="fill:#ffffff;fill-opacity:1;stroke-width:0px"
                   id="circle165" /><circle
                   cx="183.96001"
                   cy="326.35001"
                   r="1.61"
                   style="fill:#ffffff;fill-opacity:1;stroke-width:0px"
                   id="circle166" /><circle
                   cx="171.03"
                   cy="320.13"
                   r="3.3900001"
                   style="fill:#ffffff;fill-opacity:1;stroke-width:0px"
                   id="circle167" /><circle
                   cx="164.48"
                   cy="315.95999"
                   r="2.1600001"
                   style="fill:#ffffff;fill-opacity:1;stroke-width:0px"
                   id="circle168" /><circle
                   cx="147.99001"
                   cy="303.10999"
                   r="2.98"
                   style="fill:#ffffff;fill-opacity:1;stroke-width:0px"
                   id="circle169" /><circle
                   cx="141.13"
                   cy="296.25"
                   r="2.8399999"
                   style="fill:#ffffff;fill-opacity:1;stroke-width:0px"
                   id="circle170" /><circle
                   cx="132.8"
                   cy="286.17001"
                   r="1.77"
                   style="fill:#ffffff;fill-opacity:1;stroke-width:0px"
                   id="circle171" /><circle
                   cx="118.27"
                   cy="259.14001"
                   r="3.48"
                   style="fill:#ffffff;fill-opacity:1;stroke-width:0px"
                   id="circle172" /><circle
                   cx="113.22"
                   cy="239.87"
                   r="3.54"
                   style="fill:#ffffff;fill-opacity:1;stroke-width:0px"
                   id="circle173" /><circle
                   cx="111.18"
                   cy="230.73"
                   r="3.54"
                   style="fill:#ffffff;fill-opacity:1;stroke-width:0px"
                   id="circle174" /><circle
                   cx="110.22"
                   cy="206.62"
                   r="1.46"
                   style="fill:#ffffff;fill-opacity:1;stroke-width:0px"
                   id="circle175" /><circle
                   cx="110.31"
                   cy="212.63"
                   r="3.6199999"
                   style="fill:#ffffff;fill-opacity:1;stroke-width:0px"
                   id="circle176" /><circle
                   cx="112.24"
                   cy="192.08"
                   r="3.1099999"
                   style="fill:#ffffff;fill-opacity:1;stroke-width:0px"
                   id="circle177" /><circle
                   cx="113.76"
                   cy="185.09"
                   r="2.8399999"
                   style="fill:#ffffff;fill-opacity:1;stroke-width:0px"
                   id="circle178" /><circle
                   cx="117.76"
                   cy="172.8"
                   r="1.77"
                   style="fill:#ffffff;fill-opacity:1;stroke-width:0px"
                   id="circle179" /><circle
                   cx="116.68"
                   cy="176.92999"
                   r="2.02"
                   style="fill:#ffffff;fill-opacity:1;stroke-width:0px"
                   id="circle180" /><circle
                   cx="120.46"
                   cy="166.36"
                   r="3.1099999"
                   style="fill:#ffffff;fill-opacity:1;stroke-width:0px"
                   id="circle181" /><circle
                   cx="132.92"
                   cy="145.25999"
                   r="1.7"
                   style="fill:#ffffff;fill-opacity:1;stroke-width:0px"
                   id="circle182" /><circle
                   cx="139.22"
                   cy="137.28"
                   r="2.45"
                   style="fill:#ffffff;fill-opacity:1;stroke-width:0px"
                   id="circle183" /><circle
                   cx="154.5"
                   cy="122"
                   r="2.3800001"
                   style="fill:#ffffff;fill-opacity:1;stroke-width:0px"
                   id="circle184" /><circle
                   cx="161.67999"
                   cy="117.01"
                   r="3.25"
                   style="fill:#ffffff;fill-opacity:1;stroke-width:0px"
                   id="circle185" /><circle
                   cx="171.86"
                   cy="110.96"
                   r="1.85"
                   style="fill:#ffffff;fill-opacity:1;stroke-width:0px"
                   id="circle186" /><circle
                   cx="189.39999"
                   cy="103.32"
                   r="1.53"
                   style="fill:#ffffff;fill-opacity:1;stroke-width:0px"
                   id="circle187" /><circle
                   cx="196.96001"
                   cy="100.61"
                   r="1.83"
                   style="fill:#ffffff;fill-opacity:1;stroke-width:0px"
                   id="circle188" /><circle
                   cx="214.96001"
                   cy="96.800003"
                   r="3.4400001"
                   style="fill:#ffffff;fill-opacity:1;stroke-width:0px"
                   id="circle189" /><circle
                   cx="224.88"
                   cy="96.209999"
                   r="3.1600001"
                   style="fill:#ffffff;fill-opacity:1;stroke-width:0px"
                   id="circle190" /><circle
                   cx="244.81"
                   cy="97.349998"
                   r="3.0899999"
                   style="fill:#ffffff;fill-opacity:1;stroke-width:0px"
                   id="circle191" /><circle
                   cx="267.35999"
                   cy="102.4"
                   r="2.05"
                   style="fill:#ffffff;fill-opacity:1;stroke-width:0px"
                   id="circle192" /><circle
                   cx="281.38"
                   cy="107.41"
                   r="2.5899999"
                   style="fill:#ffffff;fill-opacity:1;stroke-width:0px"
                   id="circle193" /><circle
                   cx="296.98001"
                   cy="117.01"
                   r="3.7"
                   style="fill:#ffffff;fill-opacity:1;stroke-width:0px"
                   id="circle194" /><circle
                   cx="313.06"
                   cy="130.22"
                   r="3.8800001"
                   style="fill:#ffffff;fill-opacity:1;stroke-width:0px"
                   id="circle195" /><circle
                   cx="319.10999"
                   cy="136.27"
                   r="1.35"
                   style="fill:#ffffff;fill-opacity:1;stroke-width:0px"
                   id="circle196" /><circle
                   cx="335.20999"
                   cy="159.10001"
                   r="3.3399999"
                   style="fill:#ffffff;fill-opacity:1;stroke-width:0px"
                   id="circle197" /><circle
                   cx="345.35001"
                   cy="184.48"
                   r="3.3699999"
                   style="fill:#ffffff;fill-opacity:1;stroke-width:0px"
                   id="circle198" /><circle
                   cx="345.95001"
                   cy="186.17"
                   r="1.8"
                   style="fill:#ffffff;fill-opacity:1;stroke-width:0px"
                   id="circle199" /><circle
                   cx="348.47"
                   cy="203.67999"
                   r="1.45"
                   style="fill:#ffffff;fill-opacity:1;stroke-width:0px"
                   id="circle200" /><circle
                   cx="349.87"
                   cy="215.81"
                   r="3.3399999"
                   style="fill:#ffffff;fill-opacity:1;stroke-width:0px"
                   id="circle201" /></g></g></g><g
             id="g204"
             style="fill:#ffffff;fill-opacity:1"><path
               d="m 661.05,184.98 14.26,-31.71 v -1.14 c 0,-3.8 -1.87,-6.09 -5.62,-6.86 -3.74,-0.77 -6.39,0.57 -7.93,4.01 -0.12,0.12 -0.36,0.6 -0.71,1.43 -0.48,1.07 -1.07,2.44 -1.78,4.1 -1.9,3.92 -4.1,8.74 -6.6,14.44 -6.06,13.31 -12.72,27.99 -19.97,44.03 l -19.97,43.85 -2.67,5.71 -2.5,-5.71 c -6.06,-13.43 -12.78,-28.17 -20.15,-44.21 -7.25,-16.16 -13.91,-30.9 -19.97,-44.21 -2.5,-5.71 -4.7,-10.58 -6.6,-14.62 -0.71,-1.66 -1.31,-3.03 -1.78,-4.1 -0.36,-0.83 -0.6,-1.31 -0.71,-1.43 -1.07,-2.26 -2.7,-3.62 -4.9,-4.1 -2.2,-0.47 -4.19,-0.03 -5.97,1.34 -1.78,1.37 -2.67,3.3 -2.67,5.79 v 5.35 c 0,3.92 0.06,8.68 0.18,14.26 0,13.19 0.06,27.69 0.18,43.5 0.12,15.81 0.24,30.25 0.36,43.32 v 19.79 c 0.12,2.02 0.89,3.71 2.32,5.08 1.43,1.37 3.09,2.05 4.99,2.05 2.02,-0.12 3.71,-0.89 5.08,-2.32 1.37,-1.43 1.99,-3.09 1.87,-4.99 v -19.61 c -0.12,-13.19 -0.24,-27.69 -0.36,-43.5 -0.12,-10.93 -0.18,-20.74 -0.18,-29.42 l 15.33,33.69 19.97,44.21 c 2.5,5.7 4.69,10.52 6.6,14.44 0.71,1.67 1.31,3.03 1.78,4.1 0.36,0.83 0.59,1.31 0.71,1.43 1.19,2.85 3.33,4.28 6.42,4.28 1.48,0 2.97,-0.33 4.21,-1.18 1.5,-1.04 2.11,-2.54 2.85,-4.15 2.89,-6.3 5.75,-12.61 8.63,-18.91 l 19.97,-43.86 15.33,-34.23 c 0,0 0,0.03 0,0.04 z"
               style="fill:#ffffff;fill-opacity:1;stroke-width:0px"
               id="path203" /><path
               d="m 675.49,215.96 c -0.09,-11.82 -0.14,-22.91 -0.17,-33.29 l -14.1,31.78 c 0,0.5 0,1 0,1.51 v 43.68 c 0,5.71 0.06,10.52 0.18,14.44 v 5.53 c 0,1.9 0.71,3.57 2.14,4.99 1.43,1.43 3.09,2.14 4.99,2.14 1.9,0 3.57,-0.71 4.99,-2.14 1.43,-1.43 2.14,-3.09 2.14,-4.99 v -5.53 c -0.12,-3.92 -0.18,-8.74 -0.18,-14.44 v -43.68 z"
               style="fill:#ffffff;fill-opacity:1;stroke-width:0px"
               id="path204" /></g><g
             id="g206"
             style="fill:#ffffff;fill-opacity:1"><path
               d="m 729.15,215.07 c 0,-10.22 -0.03,-19.89 -0.07,-29.03 l -14.37,-15.8 v 0.98 c 0.12,13.31 0.18,27.93 0.18,43.86 0.12,15.93 0.18,30.55 0.18,43.86 0.12,5.71 0.18,10.52 0.18,14.44 v 5.53 c 0,1.9 0.68,3.57 2.05,4.99 1.36,1.43 3.06,2.14 5.08,2.14 2.02,0 3.71,-0.71 5.08,-2.14 1.36,-1.43 2.05,-3.09 2.05,-4.99 v -5.53 c 0,-3.92 -0.06,-8.74 -0.18,-14.44 0,-13.31 -0.06,-27.93 -0.18,-43.86 z"
               style="fill:#ffffff;fill-opacity:1;stroke-width:0px"
               id="path205" /><path
               d="m 812.05,224.87 v -30.13 c -0.12,-10.93 -0.18,-20.92 -0.18,-29.95 0,-3.92 -0.06,-7.25 -0.18,-9.98 v -3.74 c 0,-2.02 -0.71,-3.71 -2.14,-5.08 -1.43,-1.36 -3.09,-2.05 -4.99,-2.05 -1.9,0 -3.57,0.69 -4.99,2.05 -1.43,1.37 -2.14,3.06 -2.14,5.08 v 3.74 c 0.12,2.74 0.18,6.06 0.18,9.98 0,9.15 0.06,19.19 0.18,30.13 v 19.25 l -1.07,-1.07 -28.52,-27.28 c -10.46,-9.86 -19.97,-18.9 -28.52,-27.1 -3.69,-3.57 -6.84,-6.54 -9.45,-8.91 l -2.32,-2.32 c -1.43,-2.26 -3.45,-3.39 -6.06,-3.39 -3.57,0 -5.82,1.6 -6.77,4.81 -0.48,1.07 -0.6,2.32 -0.36,3.74 v 0.39 c 0,0 14.93,15.79 15.15,16.01 l 28.52,27.1 c 10.34,9.87 19.85,18.96 28.52,27.28 3.68,3.45 10.34,10.04 10.7,10.16 v 4.46 c 0,4.99 0.06,10.46 0.18,16.4 v 23.71 c 0,1.9 0.71,3.57 2.14,4.99 1.43,1.43 3.09,2.14 4.99,2.14 1.9,0 3.57,-0.71 4.99,-2.14 1.43,-1.43 2.53,-3.09 2.53,-4.99 v -23.89 c -0.12,-5.11 -0.22,-15.33 -0.22,-15.69 v -3.74 c 0,-2.73 -0.06,-6.06 -0.18,-9.98 z"
               style="fill:#ffffff;fill-opacity:1;stroke-width:0px"
               id="path206" /></g></g><rect
           x="631.97998"
           y="137.78"
           width="15"
           height="155.97"
           rx="7.5"
           ry="7.5"
           transform="rotate(24.45,639.58932,215.83389)"
           style="fill:#ffffff;fill-opacity:1;stroke-width:0px"
           id="rect207" /></g></g></g></svg>
