<?xml version="1.0" encoding="UTF-8" standalone="no"?>
<svg
   width="143"
   height="30"
   viewBox="0 0 143 30"
   fill="none"
   version="1.1"
   id="svg3"
   xml:space="preserve"
   xmlns="http://www.w3.org/2000/svg"
   xmlns:svg="http://www.w3.org/2000/svg"><defs
     id="defs3" /><g
     id="g5"
     transform="translate(8.958115)"><g
       id="g6"
       transform="translate(5.293085)"><g
         id="g7"><g
           id="g8"
           transform="translate(-6.275105)"><path
             d="M 0,15 C 0,6.71573 5.9665651,0 13.326693,0 H 113.72111 c 7.3599,0 13.3267,6.71573 13.3267,15 v 0 c 0,8.2843 -5.9668,15 -13.3267,15 H 13.326693 C 5.9665651,30 0,23.2843 0,15 Z"
             fill="#1b1b1b"
             id="path1"
             style="fill:#000000;fill-opacity:1;stroke-width:0.942574" /><text
             xml:space="preserve"
             style="font-style:normal;font-variant:normal;font-weight:bold;font-stretch:normal;font-size:18.6667px;font-family:Roboto;-inkscape-font-specification:'Roboto, Bold';font-variant-ligatures:normal;font-variant-caps:normal;font-variant-numeric:normal;font-variant-east-asian:normal;text-align:start;writing-mode:lr-tb;direction:ltr;text-anchor:start;fill:#ffffff;stroke-width:0.07"
             x="31.037197"
             y="21.241955"
             id="text3"><tspan
               id="tspan3"
               x="31.037197"
               y="21.241955">Luma labs</tspan></text><path
             style="fill:#ffffff;fill-opacity:1;stroke:#ffffff;stroke-width:0.819937;stroke-opacity:1"
             d="m 14.601021,20.996999 -3.366268,-1.943865 0.0039,-4.053027 0.0039,-4.05303 3.336919,-1.9157621 c 1.835304,-1.0536683 3.409919,-1.9316891 3.499141,-1.9511564 0.140958,-0.030755 0.162224,0.4790706 0.162224,3.8891855 v 3.924581 l 3.393635,1.957601 c 1.8665,1.076682 3.391624,2.011352 3.389165,2.077045 -0.0048,0.129709 -6.564356,3.931335 -6.870086,3.981631 -0.102517,0.01687 -1.701216,-0.844077 -3.552662,-1.913203 z m 3.39622,-3.965042 -0.02996,-1.851849 -3.119955,1.799057 c -1.715975,0.989483 -3.132479,1.835755 -3.147786,1.880605 -0.01531,0.04485 1.388674,0.899617 3.119956,1.89948 l 3.147785,1.817933 0.02996,-1.846689 c 0.01647,-1.015678 0.01647,-2.680019 0,-3.698537 z m 3.215015,3.84307 c 1.647219,-0.951957 3.08603,-1.781791 3.19736,-1.844076 0.170493,-0.09539 -0.279966,-0.391647 -2.856179,-1.878483 -1.682228,-0.970881 -3.140348,-1.796608 -3.240268,-1.834953 -0.167027,-0.06409 -0.181673,0.226858 -0.181673,3.609316 0,2.023464 0.01931,3.679027 0.04291,3.679027 0.0236,0 1.390633,-0.778873 3.037853,-1.730831 z m -4.096038,-5.370919 0.900483,-0.506562 0.0026,-3.799552 0.0026,-3.7995519 -1.997866,1.1581998 c -1.098827,0.637011 -2.57531,1.4847161 -3.281076,1.8837911 l -1.283208,0.725588 -0.0032,3.79856 -0.0032,3.798559 2.381019,-1.376235 c 1.30956,-0.756929 2.786236,-1.604188 3.281501,-1.882797 z"
             id="path7" /></g></g></g></g></svg>
