<?xml version="1.0" encoding="UTF-8" standalone="no"?>
<svg
   width="143"
   height="30"
   viewBox="0 0 143 30"
   fill="none"
   version="1.1"
   id="svg3"
   xml:space="preserve"
   xmlns:xlink="http://www.w3.org/1999/xlink"
   xmlns="http://www.w3.org/2000/svg"
   xmlns:svg="http://www.w3.org/2000/svg"><defs
     id="defs3"><linearGradient
       id="linearGradient6"><stop
         style="stop-color:#00d4e8;stop-opacity:1;"
         offset="0.34775087"
         id="stop6" /><stop
         style="stop-color:#8858f2;stop-opacity:1;"
         offset="0.62629759"
         id="stop7" /></linearGradient><linearGradient
       xlink:href="#linearGradient6"
       id="linearGradient7"
       x1="-9.7828875"
       y1="15"
       x2="74.903954"
       y2="15"
       gradientUnits="userSpaceOnUse" /></defs><g
     id="g4"
     transform="translate(24.665498)"><g
       id="g5"><g
         id="g7"
         transform="translate(14.27397)"><path
           d="m -9.7828878,15 c 0,-8.28427 3.9771602,-15 8.88323435,-15 H 66.02072 c 4.905916,0 8.883232,6.71573 8.883232,15 v 0 c 0,8.2843 -3.977316,15 -8.883232,15 H -0.89965345 C -5.8057276,30 -9.7828878,23.2843 -9.7828878,15 Z"
           fill="#1B1B1B"
           id="path1"
           style="fill:url(#linearGradient7);fill-opacity:1;stroke-width:0.769556" /><text
           xml:space="preserve"
           style="font-weight:bold;font-size:15.9999px;font-family:Roboto;-inkscape-font-specification:'Roboto, Bold';text-align:start;writing-mode:lr-tb;direction:ltr;text-anchor:start;fill:#ffffff;fill-opacity:1;stroke-width:0.0699996"
           x="19.859884"
           y="20.687464"
           id="text3"><tspan
             id="tspan3"
             x="19.859884"
             y="20.687464"
             style="stroke-width:0.0699996">M-A-P</tspan></text><path
           style="fill:#ffffff;fill-opacity:1;stroke-width:0.47461"
           d="m 2.365638,22.872167 c -0.088087,-0.0485 -0.2772728,-0.198619 -0.4204142,-0.33359 l -0.2602562,-0.2454 V 20.437334 18.58149 L 0.82411914,18.53171 C 0.35065246,18.50433 -0.51433234,18.4745 -1.0980693,18.46542 c -1.0247044,-0.01593 -1.0679025,-0.02356 -1.2514584,-0.220776 -0.2788789,-0.29964 -0.3839832,-0.542951 -0.359134,-0.831376 0.012136,-0.140838 -0.00654,-0.302353 -0.041505,-0.358922 -0.043451,-0.07031 0.4277394,-0.594541 1.4891013,-1.65673 l 1.55266666,-1.553878 -1.55100886,-1.551009 -1.5510089,-1.551009 0.652416,-0.634895 c 0.3588284,-0.3491926 0.6800753,-0.6348953 0.7138817,-0.6348953 0.033807,0 1.06577476,0.9828093 2.29326284,2.1840213 L 3.0809405,13.839973 1.6430583,15.279522 0.20517616,16.719071 H 1.85662 3.5080634 l 0.013602,1.539088 c 0.00748,0.846498 0.023199,1.548683 0.034927,1.560411 0.011728,0.01173 0.6094281,-0.545729 1.3282226,-1.238792 0.7187943,-0.693063 1.3381295,-1.2722 1.3763005,-1.28697 0.038173,-0.01477 0.888991,0.783134 1.8907114,1.773122 1.0017203,0.989987 2.0155641,1.988823 2.2529851,2.219636 l 0.431676,0.419659 -0.431676,0.428826 c -0.237421,0.235854 -0.5511697,0.523003 -0.6972187,0.638108 L 9.4420496,22.981442 7.8908381,21.443481 c -0.853166,-0.845878 -1.588325,-1.525193 -1.6336859,-1.509588 -0.1622805,0.05583 -2.7303675,2.565221 -2.7303675,2.667965 0,0.138052 -0.4838511,0.364017 -0.7728516,0.360932 C 2.628459,22.96149 2.4537276,22.92067 2.3656404,22.87217 Z m 8.584385,-3.130118 C 10.483458,19.246561 9.5056819,18.246576 8.7771888,17.51986 8.0486953,16.793143 7.4527655,16.162522 7.4529012,16.118479 c 1.353e-4,-0.04404 0.5722819,-0.674665 1.2714365,-1.401381 0.6991551,-0.726716 1.2650585,-1.328402 1.2575625,-1.33708 -0.0075,-0.0087 -0.7062171,-0.0219 -1.5527158,-0.02938 l -1.5390876,-0.0136 V 11.685593 10.03415 l -1.4463516,1.440586 -1.446351,1.440586 -2.1937428,-2.24221 C 0.59709326,9.4398977 -0.38265554,8.4062287 -0.37356774,8.3760717 c 0.00909,-0.03016 0.302226,-0.347935 0.6514189,-0.706173 L 0.91274684,7.0185576 2.4587048,8.5655597 4.0046628,10.11256 5.5480028,8.5834407 7.0913424,7.0543196 7.578501,7.1117596 c 0.5027226,0.05928 0.8626151,0.234216 0.9965045,0.484391 0.042254,0.07895 0.077043,0.6954641 0.077307,1.3700211 2.639e-4,0.6745567 0.023621,1.5237603 0.051908,1.8871183 l 0.051428,0.660651 h 1.8778965 1.877896 l 0.241098,0.258096 c 0.279109,0.298787 0.383712,0.536554 0.383712,0.872198 0,0.291642 -0.205933,0.711521 -0.348971,0.711521 -0.09691,0 -2.619616,2.574735 -2.681886,2.737203 -0.01534,0.04003 0.660322,0.766796 1.501479,1.615029 0.841158,0.848233 1.529378,1.577171 1.529378,1.619862 0,0.08171 -1.211112,1.315087 -1.291347,1.315087 -0.02562,0 -0.428316,-0.4054 -0.894882,-0.900888 z"
           id="path6" /></g></g></g></svg>
