<?xml version="1.0" encoding="UTF-8" standalone="no"?>
<svg
   width="143"
   height="30"
   viewBox="0 0 143 30"
   fill="none"
   version="1.1"
   id="svg3"
   xml:space="preserve"
   xmlns:xlink="http://www.w3.org/1999/xlink"
   xmlns="http://www.w3.org/2000/svg"
   xmlns:svg="http://www.w3.org/2000/svg"><defs
     id="defs3"><linearGradient
       id="linearGradient32"><stop
         style="stop-color:#d6538b;stop-opacity:1;"
         offset="0.37078652"
         id="stop31" /><stop
         style="stop-color:#5c60ab;stop-opacity:1;"
         offset="0.58828253"
         id="stop35" /></linearGradient><linearGradient
       xlink:href="#linearGradient32"
       id="linearGradient35"
       gradientUnits="userSpaceOnUse"
       x1="16.739647"
       y1="15"
       x2="126.26035"
       y2="15"
       gradientTransform="matrix(1.099867,0,0,1,-1.6717377,0)" /></defs><g
     id="g43"
     transform="translate(-5.4687485)"><path
       d="m 16.739647,15 c 0,-8.28427 5.657096,-15 12.635478,-15 h 95.187265 c 6.97815,0 12.63546,6.71573 12.63546,15 v 0 c 0,8.2843 -5.65731,15 -12.63546,15 H 29.375124 C 22.396743,30 16.739647,23.2843 16.739647,15 Z"
       fill="#1B1B1B"
       id="path1"
       style="mix-blend-mode:normal;fill:url(#linearGradient35);stroke-width:0.917806" /><text
       xml:space="preserve"
       style="font-style:normal;font-variant:normal;font-weight:bold;font-stretch:normal;font-size:16px;font-family:Roboto;-inkscape-font-specification:'Roboto, Bold';font-variant-ligatures:normal;font-variant-caps:normal;font-variant-numeric:normal;font-variant-east-asian:normal;text-align:start;writing-mode:lr-tb;direction:ltr;text-anchor:start;mix-blend-mode:normal;fill:#ffffff;fill-opacity:1;stroke:#ffffff;stroke-width:0.07"
       x="52.481842"
       y="20.521687"
       id="text3"><tspan
         id="tspan3"
         x="52.481842"
         y="20.521687"
         style="fill:#ffffff;fill-opacity:1">MetaVoice</tspan></text><path
       style="fill:#ffffff;fill-opacity:1;stroke-width:0.14984"
       d="m 36.607742,21.698989 c -0.204211,-0.26784 -0.937129,-1.389707 -1.628705,-2.493038 l -1.257408,-2.006057 0.511098,-1.889797 c 0.509332,-1.883271 0.622058,-2.174069 0.73257,-1.8898 0.03205,0.0824 0.512063,1.19498 1.066718,2.47237 0.976475,2.248852 1.022578,2.322528 1.453338,2.322528 0.481217,0 0.369636,0.199278 2.137234,-3.816981 0.267361,-0.607488 0.522136,-1.068498 0.566168,-1.024467 0.04403,0.04403 0.310664,0.915371 0.59252,1.936311 l 0.512462,1.856254 -0.768931,1.273644 c -1.015577,1.682189 -1.884782,2.993251 -2.260005,3.408873 -0.470931,0.521636 -1.195019,0.45616 -1.657059,-0.14984 z m -4.480801,-2.273502 c -0.117256,-0.117254 -0.470279,-1.094964 -0.784496,-2.172686 -0.314217,-1.077723 -0.614669,-1.959496 -0.66767,-1.959496 -0.053,0 -0.21833,0.470233 -0.367395,1.044964 -0.149066,0.57473 -0.36111,1.119724 -0.471208,1.211097 -0.338166,0.280654 -0.703888,0.09211 -0.888354,-0.457975 l -0.175864,-0.524441 -1.45411,-0.07491 c -1.497407,-0.07715 -1.926777,-0.271022 -1.565183,-0.706717 0.21354,-0.2573 3.501737,-0.272955 3.659666,-0.01742 0.06046,0.09781 0.262653,-0.344864 0.458745,-1.004314 0.388573,-1.306748 0.493017,-1.470321 0.889997,-1.39387 0.298405,0.05748 0.402887,0.305741 1.156331,2.747721 l 0.508548,1.648248 0.256702,-0.861583 c 0.141188,-0.473872 0.283902,-0.861584 0.317144,-0.861584 0.03325,0 0.170186,0.212225 0.30432,0.47161 0.229991,0.444754 0.224856,0.536481 -0.0902,1.610786 -0.445811,1.520195 -0.637734,1.749831 -1.08698,1.300584 z m 10.274419,0.115908 c -0.0998,-0.04049 -0.356267,-0.646771 -0.569936,-1.347285 l -0.388491,-1.27366 0.299408,-0.472879 c 0.212998,-0.336411 0.32,-0.409042 0.370764,-0.251672 0.03925,0.121666 0.168636,0.524637 0.287533,0.895492 l 0.216176,0.674284 0.481691,-1.573327 c 0.904233,-2.953446 0.824429,-2.772051 1.21954,-2.772051 0.31588,0 0.404318,0.132868 0.698151,1.048885 0.495489,1.544677 0.472191,1.499733 0.673223,1.298701 0.272907,-0.272908 3.324255,-0.235752 3.555847,0.0433 0.342075,0.412174 0.0088,0.531005 -1.489315,0.531005 h -1.477077 l -0.211523,0.636821 c -0.150654,0.453563 -0.304749,0.650548 -0.535479,0.684516 -0.364827,0.05371 -0.477369,-0.145296 -0.861647,-1.523618 -0.134413,-0.482111 -0.300784,-0.819253 -0.369718,-0.749203 -0.06893,0.07005 -0.375767,0.970214 -0.681858,2.000369 -0.658198,2.215184 -0.732776,2.346925 -1.217289,2.15032 z m -5.957251,-5.457388 c -1.201359,-2.785691 -1.32258,-2.986238 -1.805004,-2.986238 -0.385721,0 -0.427405,0.105373 -1.274425,3.221572 -0.179205,0.659299 -0.369856,1.245838 -0.42367,1.303422 C 32.85462,15.715193 29.333636,9.89505 29.086804,9.251821 28.997974,9.020363 29.274486,9 32.506243,9 h 3.516069 l 0.547189,0.824123 c 0.78176,1.177417 1.309241,1.093853 2.128144,-0.337141 L 38.976327,9 h 3.504977 c 3.276045,0 3.498485,0.01713 3.405586,0.262222 -0.169841,0.448076 -3.735119,6.474117 -3.794971,6.414265 -0.03111,-0.03112 -0.319974,-1.01898 -0.6419,-2.195248 -0.321927,-1.176267 -0.646111,-2.199458 -0.720409,-2.273756 -0.07429,-0.0743 -0.290559,-0.112521 -0.480581,-0.08495 -0.291157,0.04225 -0.519568,0.450773 -1.452293,2.597437 -0.608738,1.401009 -1.154084,2.596391 -1.211879,2.656403 -0.05779,0.06001 -0.571131,-0.971555 -1.140748,-2.292375 z"
       id="path43" /></g></svg>
