<?xml version="1.0" encoding="UTF-8" standalone="no"?>
<svg
   width="168"
   height="30"
   viewBox="0 0 168 30"
   fill="none"
   version="1.1"
   id="svg5"
   xml:space="preserve"
   sodipodi:docname="Midjourney.svg"
   inkscape:version="1.3.2 (091e20e, 2023-11-25, custom)"
   xmlns:inkscape="http://www.inkscape.org/namespaces/inkscape"
   xmlns:sodipodi="http://sodipodi.sourceforge.net/DTD/sodipodi-0.dtd"
   xmlns="http://www.w3.org/2000/svg"
   xmlns:svg="http://www.w3.org/2000/svg"><sodipodi:namedview
     id="namedview1"
     pagecolor="#ffffff"
     bordercolor="#000000"
     borderopacity="0.25"
     inkscape:showpageshadow="2"
     inkscape:pageopacity="0.0"
     inkscape:pagecheckerboard="0"
     inkscape:deskcolor="#d1d1d1"
     inkscape:zoom="16.791667"
     inkscape:cx="84"
     inkscape:cy="14.977667"
     inkscape:window-width="3840"
     inkscape:window-height="2126"
     inkscape:window-x="-11"
     inkscape:window-y="-11"
     inkscape:window-maximized="1"
     inkscape:current-layer="svg5" /><defs
     id="defs5" /><g
     id="g2"><g
       id="g1"><path
         d="m 24.119105,15 c 0,-8.28427 4.787427,-15 10.693017,-15 h 98.375748 c 5.9054,0 10.69302,6.71573 10.69302,15 v 0 c 0,8.2843 -4.78762,15 -10.69302,15 H 34.812122 C 28.906532,30 24.119105,23.2843 24.119105,15 Z"
         fill="#BFC2FF"
         id="path1"
         style="fill:#81bbeb;fill-opacity:1;stroke-width:0.844315" /><text
         xml:space="preserve"
         style="font-style:normal;font-variant:normal;font-weight:900;font-stretch:normal;font-size:14.6667px;font-family:Roboto;-inkscape-font-specification:'Roboto, Heavy';font-variant-ligatures:normal;font-variant-caps:normal;font-variant-numeric:normal;font-variant-east-asian:normal;fill:#fefeff;fill-opacity:1;stroke-width:1.00157;stroke-linejoin:round"
         x="58.37278"
         y="20.435026"
         id="text5"><tspan
           id="tspan5"
           x="58.37278"
           y="20.435026"
           style="font-style:normal;font-variant:normal;font-weight:900;font-stretch:normal;font-size:14.6667px;font-family:Roboto;-inkscape-font-specification:'Roboto, Heavy';font-variant-ligatures:normal;font-variant-caps:normal;font-variant-numeric:normal;font-variant-east-asian:normal;fill:#fefeff;fill-opacity:1">Midjourney</tspan></text><path
         style="fill:#ffffff;fill-opacity:1;stroke-width:0.833472"
         d="m 33.177198,22.248637 c 0,-0.09902 0.06964,-0.180038 0.154756,-0.180038 0.08512,0 0.458962,-0.223321 0.830768,-0.496258 l 0.676012,-0.496266 -0.253277,-0.521319 c -0.139303,-0.286731 -0.217172,-0.557435 -0.173041,-0.601559 0.08,-0.08001 13.621374,-0.995598 14.818205,-1.001933 0.42742,-0.0025 0.629173,0.04493 0.627146,0.1467 -0.0058,0.289631 -3.258052,2.490188 -3.680715,2.490447 -0.226352,1.41e-4 -0.324579,0.256409 -0.142486,0.371745 0.332123,0.210359 0.814749,0.10265 1.341435,-0.299375 0.293851,-0.224304 0.65647,-0.47322 0.805822,-0.55315 0.393412,-0.210544 1.018203,-0.06743 1.552354,0.35565 0.256016,0.202767 0.659288,0.44965 0.896158,0.548616 0.236872,0.09897 0.430676,0.233239 0.430676,0.298367 0,0.255184 -0.602654,0.09767 -1.157144,-0.302434 -1.136682,-0.820203 -1.310456,-0.828362 -2.256541,-0.105967 -0.381077,0.290973 -0.744554,0.458526 -1.075651,0.49584 -0.432144,0.04867 -0.574921,-7.58e-4 -1.050989,-0.364152 -1.086582,-0.829404 -1.296659,-0.857717 -2.057071,-0.277288 -1.089244,0.831438 -1.461563,0.871878 -2.321616,0.252167 -1.105825,-0.796807 -1.336271,-0.809251 -2.237904,-0.120803 -0.956479,0.730329 -1.674383,0.679346 -2.679128,-0.190257 -0.298008,-0.257918 -0.59524,-0.468953 -0.660517,-0.468953 -0.196429,0 -0.854103,0.371195 -1.414301,0.798241 -0.558764,0.425954 -0.972951,0.520445 -0.972951,0.221979 z m 5.354641,-0.5518 c 1.07455,-0.856159 1.584811,-0.891198 2.524879,-0.173404 0.920401,0.702775 1.253254,0.693548 2.191934,-0.06076 0.62946,-0.505851 1.180117,-0.57442 1.802757,-0.224471 l 0.493939,0.277605 0.676958,-0.332014 c 0.811514,-0.397999 2.478067,-1.454508 2.682025,-1.700265 0.181335,-0.218495 0.548864,-0.224279 -3.664561,0.05768 -1.914408,0.128113 -4.966058,0.321745 -6.781446,0.430305 -1.815388,0.108551 -3.367891,0.217903 -3.450007,0.243007 -0.115814,0.03542 -0.118223,0.113852 -0.01074,0.34975 0.10089,0.221428 0.231133,0.304108 0.47903,0.304108 0.216969,0 0.503853,0.14625 0.790906,0.403184 0.985335,0.881946 1.556549,0.989239 2.264329,0.425312 z m -2.954128,-2.816926 c 0,-0.103426 0.134093,-0.363852 0.297985,-0.578721 0.384288,-0.503834 1.070453,-2.012601 1.24738,-2.742797 0.511833,-2.112389 0.05955,-4.852304 -1.178209,-7.1375829 -0.447791,-0.826759 -0.454028,-0.9231342 -0.05324,-0.8225433 0.958815,0.2406474 3.302201,1.8759253 4.732254,3.3022932 1.693673,1.689311 2.986161,3.769402 3.643105,5.8631 0.283914,0.90485 0.403259,1.704174 0.254444,1.704174 -0.03201,0 -0.519514,-0.133689 -1.083342,-0.297074 -1.499403,-0.434514 -2.877703,-0.579421 -4.021516,-0.422812 -1.086009,0.148691 -2.44279,0.582322 -3.18739,1.018686 -0.603432,0.353634 -0.651471,0.361985 -0.651471,0.113277 z m 1.984376,-1.077362 c 1.859527,-0.624229 3.8395,-0.638481 5.772087,-0.04159 0.433704,0.133955 0.808136,0.22397 0.832073,0.200033 0.07291,-0.07293 -0.280879,-1.309309 -0.59753,-2.088163 -1.134323,-2.790085 -3.820752,-5.760836 -6.722944,-7.4344799 -0.373958,-0.215655 -0.565173,-0.277273 -0.518661,-0.167135 1.024195,2.4251989 1.406621,3.8404579 1.409319,5.2155299 0.0028,1.378976 -0.413447,3.154595 -0.942896,4.023098 -0.250033,0.410151 -0.312244,0.597891 -0.198134,0.597891 0.03161,0 0.466626,-0.137348 0.966686,-0.305209 z m 10.138209,0.516336 c -0.165036,-0.06809 -0.670991,-0.157002 -1.124348,-0.1975 l -0.824284,-0.07364 -0.504852,-1.440306 C 44.2988,13.902826 43.239995,12.191994 41.508361,10.566799 40.837882,9.9375321 40.415739,9.4572141 40.491835,9.4101841 c 0.162657,-0.100527 1.253308,0.392241 2.013556,0.9097499 0.831934,0.566304 2.227854,1.940798 3.09431,3.046815 1.263839,1.613267 2.814302,4.687355 2.508877,4.974328 -0.05952,0.05593 -0.243247,0.04592 -0.408282,-0.02217 z M 47.459297,17.265176 C 47.08066,16.304559 46.689111,15.586564 45.884241,14.376932 45.141962,13.261367 43.126765,11.097944 42.539195,10.785844 l -0.300065,-0.159384 0.332267,0.409937 c 1.37715,1.699072 2.373502,3.502529 3.099489,5.610268 0.308657,0.896116 0.42623,1.108826 0.589311,1.066177 0.112049,-0.02934 0.414395,-0.01267 0.67188,0.03701 0.798168,0.153893 0.784036,0.166886 0.52722,-0.484655 z"
         id="path7" /></g></g></svg>
