<?xml version="1.0" encoding="UTF-8" standalone="no"?>
<svg
   width="106.18362"
   height="30"
   viewBox="0 0 106.18362 30"
   fill="none"
   version="1.1"
   id="svg5"
   xml:space="preserve"
   xmlns:xlink="http://www.w3.org/1999/xlink"
   xmlns="http://www.w3.org/2000/svg"
   xmlns:svg="http://www.w3.org/2000/svg"><defs
     id="defs5"><linearGradient
       id="linearGradient1"><stop
         style="stop-color:#e72279;stop-opacity:1;"
         offset="0"
         id="stop1" /><stop
         style="stop-color:#ea795c;stop-opacity:1;"
         offset="1"
         id="stop2" /></linearGradient><linearGradient
       xlink:href="#linearGradient1"
       id="linearGradient2"
       x1="-9.9999994e-08"
       y1="15"
       x2="106.18362"
       y2="15"
       gradientUnits="userSpaceOnUse" /></defs><g
     id="g2"><path
       d="M -9.9999999e-8,15 C -9.9999999e-8,6.71573 4.2446454,0 9.4806814,0 H 96.702932 c 5.235868,0 9.480688,6.71573 9.480688,15 v 0 c 0,8.2843 -4.24482,15 -9.480688,15 H 9.4806814 C 4.2446454,30 -9.9999999e-8,23.2843 -9.9999999e-8,15 Z"
       fill="#BFC2FF"
       id="path1"
       style="fill:url(#linearGradient2);fill-opacity:1;stroke-width:0.795013" /><text
       xml:space="preserve"
       style="font-style:normal;font-variant:normal;font-weight:900;font-stretch:normal;font-size:14.6667px;font-family:Roboto;-inkscape-font-specification:'Roboto, Heavy';font-variant-ligatures:normal;font-variant-caps:normal;font-variant-numeric:normal;font-variant-east-asian:normal;fill:#fefeff;fill-opacity:1;stroke-width:1.00157;stroke-linejoin:round"
       x="33.51881"
       y="20.503416"
       id="text5"><tspan
         id="tspan5"
         x="33.51881"
         y="20.503416"
         style="font-style:normal;font-variant:normal;font-weight:900;font-stretch:normal;font-size:14.6667px;font-family:Roboto;-inkscape-font-specification:'Roboto, Heavy';font-variant-ligatures:normal;font-variant-caps:normal;font-variant-numeric:normal;font-variant-east-asian:normal;fill:#fefeff;fill-opacity:1">MiniMax</tspan></text><path
       style="fill:#ffffff;fill-opacity:1;stroke:#ffffff;stroke-width:0.616046;stroke-linejoin:bevel;stroke-dasharray:none;stroke-opacity:1"
       d="m 18.014394,22.257326 c -0.439663,-0.378182 -0.509912,-0.584986 -0.572007,-1.683903 -0.05721,-1.012522 -0.01224,-1.301365 0.234518,-1.506154 0.535074,-0.444072 0.897547,-0.01129 0.99969,1.193603 0.07779,0.917669 0.141797,1.068661 0.452976,1.068661 0.354069,0 0.364457,-0.150992 0.452974,-6.584005 0.0906,-6.5840054 0.0906,-6.5840054 0.598972,-7.0211114 0.882054,-0.7583954 2.266999,-0.406465 2.642803,0.671568 0.127652,0.366183 0.200834,2.3449984 0.200834,5.4305104 0,4.890288 0.06084,5.351606 0.642102,4.869196 0.212394,-0.176271 0.263848,-0.830117 0.263848,-3.352793 0,-1.723601 0.05065,-3.265807 0.112552,-3.427125 0.146844,-0.382671 1.010647,-0.823472 1.613693,-0.823472 0.284419,0 0.689016,0.213106 1.005542,0.529632 0.529632,0.529632 0.529632,0.529632 0.529632,3.538891 0,2.618873 -0.03845,3.024014 -0.296413,3.123002 -0.163027,0.06256 -0.428017,0.03085 -0.588867,-0.07047 -0.244351,-0.153911 -0.300688,-0.636727 -0.342512,-2.935388 -0.04195,-2.305609 -0.09627,-2.76891 -0.335369,-2.860662 -0.156921,-0.06022 -0.357369,0.0043 -0.44544,0.143405 -0.08807,0.13909 -0.161378,1.692897 -0.162904,3.452905 -0.0028,3.200015 -0.0028,3.200015 -0.560246,3.669096 -0.755095,0.635371 -1.499114,0.614652 -2.174315,-0.06055 -0.529632,-0.529632 -0.529632,-0.529632 -0.532407,-5.57159 -0.0015,-2.773078 -0.07483,-5.1557594 -0.162903,-5.2948494 -0.08807,-0.139089 -0.287711,-0.203932 -0.443646,-0.144094 -0.248641,0.09541 -0.289895,0.9141385 -0.335369,6.6556934 -0.05185,6.546898 -0.05185,6.546898 -0.560228,6.984015 -0.669251,0.575442 -1.572668,0.577859 -2.23751,0.006 z m 1.53011,-0.04735 c 0.890818,-0.238629 0.943991,-0.653089 0.943991,-7.358048 0,-6.5436544 0.01408,-6.6586684 0.815355,-6.6586684 0.789761,0 0.815355,0.174861 0.815355,5.5707674 0,5.135911 0,5.135911 0.444738,5.58065 0.543323,0.543321 0.987564,0.562364 1.614511,0.06921 0.47741,-0.375532 0.47741,-0.375532 0.47741,-3.589168 0,-3.574913 0.08644,-3.901302 1.00548,-3.796716 0.534634,0.06084 0.534634,0.06084 0.578708,2.597501 0.04686,2.697338 0.1274,3.352014 0.412353,3.352014 0.108568,0 0.177738,-1.096158 0.177738,-2.81668 0,-2.748963 -0.01069,-2.827373 -0.444739,-3.26142 -0.543321,-0.543321 -0.987563,-0.562364 -1.61451,-0.06921 -0.47741,0.37553 -0.47741,0.37553 -0.47741,3.589168 0,3.574912 -0.08644,3.901301 -1.00548,3.796714 -0.534634,-0.06084 -0.534634,-0.06084 -0.62523,-5.376612 -0.0906,-5.3157714 -0.0906,-5.3157714 -0.614366,-5.7660234 -0.604326,-0.519499 -1.268344,-0.464635 -1.7864,0.147602 -0.288878,0.341393 -0.317083,0.9418895 -0.317083,6.7506594 0,6.722367 -0.01077,6.810787 -0.829407,6.810787 -0.576158,0 -0.772704,-0.342181 -0.83575,-1.455012 -0.06712,-1.18468 -0.39498,-1.31985 -0.475463,-0.196023 -0.06898,0.963224 0.252451,1.811074 0.765214,2.018428 0.478086,0.193333 0.47764,0.193305 0.974985,0.06008 z m -5.488251,-1.180267 c -0.781939,-0.427687 -0.81524,-0.610489 -0.81813,-4.491046 -0.0015,-2.048783 -0.07483,-3.838861 -0.162903,-3.97795 -0.08807,-0.139089 -0.281184,-0.206437 -0.429141,-0.14966 -0.207683,0.07969 -0.285097,0.537784 -0.339571,2.009367 -0.06332,1.710578 -0.115195,1.95365 -0.505619,2.369237 -0.33129,0.352646 -0.611196,0.461729 -1.173532,0.45734 -1.1880842,-0.0093 -1.7350179,-0.653551 -1.7350179,-2.043824 0,-1.543722 1.1238809,-1.643068 1.2355179,-0.109216 0.06172,0.847922 0.328185,1.171645 0.706197,0.857923 0.160791,-0.133445 0.232565,-0.749649 0.232565,-1.996663 0,-1.751922 0.01519,-1.818841 0.529631,-2.333283 0.316526,-0.316526 0.721123,-0.529633 1.005543,-0.529633 0.603045,0 1.466848,0.440802 1.613693,0.823473 0.06191,0.161318 0.112551,1.910678 0.112551,3.887466 0,1.976789 0.04949,3.723132 0.10998,3.880765 0.06049,0.157632 0.264328,0.286604 0.452975,0.286604 0.328999,0 0.342995,-0.224396 0.342995,-5.499256 0,-3.557467 0.07091,-5.7026804 0.200834,-6.0753684 0.396807,-1.138282 1.843939,-1.4472432 2.712143,-0.57904 0.529631,0.529632 0.529631,0.529632 0.529631,5.4413854 0,4.380233 -0.03207,4.924061 -0.296412,5.025497 -0.163027,0.06256 -0.428017,0.03078 -0.588867,-0.07062 C 17.536691,18.052689 17.492605,17.426981 17.45049,13.375971 17.4084,9.3265651 17.3649,8.7088176 17.115122,8.6129696 c -0.15785,-0.06058 -0.359057,0.0037 -0.447128,0.142758 -0.08807,0.13909 -0.161378,2.7936264 -0.162903,5.8989694 -0.0028,5.646079 -0.0028,5.646079 -0.560246,6.115161 -0.587537,0.494379 -1.284489,0.590275 -1.888592,0.259854 z m 1.638945,-0.597893 c 0.444739,-0.444739 0.444739,-0.444739 0.444739,-6.12422 0,-4.175787 0.05757,-5.7370474 0.217428,-5.8969094 0.289645,-0.289645 0.957526,-0.276473 1.20673,0.0238 0.131429,0.158362 0.216852,1.8078094 0.248673,4.8017104 0.03028,2.848579 0.116488,4.577422 0.229663,4.605605 0.11632,0.02897 0.198486,-1.616764 0.229498,-4.59673 0.04388,-4.2163394 0.01896,-4.6765414 -0.271785,-5.0202944 -0.520837,-0.615784 -1.183897,-0.671845 -1.789411,-0.151293 -0.523772,0.450279 -0.523772,0.450279 -0.614366,6.3095934 -0.0906,5.859313 -0.0906,5.859313 -0.62523,5.920154 -0.938677,0.106822 -1.00548,-0.181542 -1.00548,-4.340284 0,-3.757208 0,-3.757208 -0.47741,-4.132738 -0.626946,-0.493157 -1.071188,-0.474114 -1.61451,0.06921 -0.412739,0.412739 -0.444739,0.574771 -0.444739,2.251933 0,1.401315 -0.06395,1.87114 -0.284727,2.091919 -0.619815,0.619816 -1.3066885,0.152139 -1.3827783,-0.941503 -0.066843,-0.960779 -0.3971369,-1.017523 -0.4701607,-0.08077 -0.073889,0.947888 0.4911476,1.669383 1.30738,1.669383 1.03661,0 1.273873,-0.474277 1.346246,-2.691087 0.03896,-1.193294 0.142638,-1.980037 0.271785,-2.062374 0.390857,-0.249187 1.010874,-0.139659 1.19897,0.211801 0.11179,0.208882 0.187564,1.850549 0.187564,4.063623 0,3.713154 0,3.713154 0.47741,4.088685 0.626948,0.493157 1.071189,0.474114 1.614511,-0.06921 z"
       id="path2" /></g></svg>
