<?xml version="1.0" encoding="UTF-8" standalone="no"?>
<svg
   width="143"
   height="30"
   viewBox="0 0 143 30"
   fill="none"
   version="1.1"
   id="svg3"
   xml:space="preserve"
   sodipodi:docname="Mistral.svg"
   inkscape:version="1.4 (86a8ad7, 2024-10-11)"
   xmlns:inkscape="http://www.inkscape.org/namespaces/inkscape"
   xmlns:sodipodi="http://sodipodi.sourceforge.net/DTD/sodipodi-0.dtd"
   xmlns="http://www.w3.org/2000/svg"
   xmlns:svg="http://www.w3.org/2000/svg"><sodipodi:namedview
     id="namedview1"
     pagecolor="#ffffff"
     bordercolor="#000000"
     borderopacity="0.25"
     inkscape:showpageshadow="2"
     inkscape:pageopacity="0.0"
     inkscape:pagecheckerboard="0"
     inkscape:deskcolor="#d1d1d1"
     inkscape:zoom="11.524476"
     inkscape:cx="53.277913"
     inkscape:cy="23.29824"
     inkscape:window-width="2538"
     inkscape:window-height="1401"
     inkscape:window-x="893"
     inkscape:window-y="0"
     inkscape:window-maximized="0"
     inkscape:current-layer="g10" /><defs
     id="defs3"><linearGradient
       id="swatch7"><stop
         style="stop-color:#ffffff;stop-opacity:1;"
         offset="0"
         id="stop7" /></linearGradient></defs><g
     id="g10"
     transform="translate(3.4359901)"><path
       d="m 9.1357134,15 c 0,-8.3527728 5.5349166,-15.12403533 12.3625796,-15.12403533 h 93.131437 c 6.82746,0 12.36258,6.77126253 12.36258,15.12403533 v 0 c 0,8.352803 -5.53512,15.124035 -12.36258,15.124035 H 21.498293 C 14.67063,30.124035 9.1357134,23.352803 9.1357134,15 Z"
       fill="#1b1b1b"
       id="path1"
       style="fill:#ff7000;fill-opacity:1;stroke-width:0.911585" /><text
       xml:space="preserve"
       style="font-style:normal;font-variant:normal;font-weight:bold;font-stretch:normal;font-size:18.6667px;font-family:Roboto;-inkscape-font-specification:'Roboto, Bold';font-variant-ligatures:normal;font-variant-caps:normal;font-variant-numeric:normal;font-variant-east-asian:normal;text-align:start;writing-mode:lr-tb;direction:ltr;text-anchor:start;fill:#ffffff;fill-opacity:1"
       x="40.880627"
       y="21.104025"
       id="text3"><tspan
         id="tspan3"
         x="40.880627"
         y="21.104025"
         style="font-style:normal;font-variant:normal;font-weight:bold;font-stretch:normal;font-size:18.6667px;font-family:Roboto;-inkscape-font-specification:'Roboto, Bold';font-variant-ligatures:normal;font-variant-caps:normal;font-variant-numeric:normal;font-variant-east-asian:normal;fill:#ffffff;fill-opacity:1">Mistral.ai</tspan></text><path
       style="fill:#ffffff;fill-opacity:1;stroke-width:0.276;stroke-dasharray:none;stroke:#ffffff;stroke-opacity:1"
       d="M 19.679586,14.999988 V 7.7925794 l 2.228558,0.033285 2.228558,0.033285 0.0345,1.3698069 0.0345,1.3698057 1.369806,0.0345 1.369807,0.0345 0.03453,1.373769 0.03453,1.373769 h 0.606564 0.606564 V 12.010997 10.6067 h 1.404298 1.404297 V 9.1996408 7.792589 l 2.228558,0.033285 2.228558,0.033285 0.0315,7.174126 0.0315,7.174126 h -2.260083 -2.260062 v -2.815284 -2.815285 l -0.580035,0.03722 -0.580037,0.03722 -0.02118,1.221129 -0.02118,1.221127 -0.0094,0.155396 -0.0094,0.155397 -2.228558,-0.03328 -2.228558,-0.03328 -0.03453,-1.373768 -0.03453,-1.37377 h -0.545508 -0.545508 v 2.808594 2.808594 h -2.259001 -2.259086 z m 1.465354,0.0027 V 8.0422678 h -0.610565 -0.610563 v 6.9604282 6.960429 h 0.610563 0.610565 z m 2.808594,4.151836 v -2.808595 h 1.52641 1.526409 v 1.404297 1.404298 h 1.278185 1.278186 l 0.03453,-1.373769 0.03453,-1.373769 h 1.52641 1.52641 l -0.03968,2.778065 -0.03968,2.778066 h 1.35239 1.352395 V 15.002696 8.0422678 H 34.031845 32.75366 l -0.03453,1.3737689 -0.03453,1.3737683 -1.434826,0.0344 -1.434825,0.0344 v 1.400422 1.400421 H 28.28853 26.76212 V 12.255164 10.850868 H 25.357824 23.953528 V 9.4465714 8.0422737 H 22.671345 21.38916 l -0.0028,3.0833483 -0.0028,3.083347 -0.07283,3.877081 -0.07283,3.877081 h 1.35783 1.357831 z m 8.547895,0.122112 v -2.686481 h -0.610564 -0.610564 v 2.686481 2.686481 h 0.610564 0.610564 z m -5.739301,-1.404297 v -1.282184 h -0.549507 -0.549508 v 1.282184 1.282185 h 0.549508 0.549507 z m 2.808594,-5.739301 v -1.282161 h -0.549508 -0.549508 v 1.282184 1.282185 h 0.549508 0.549508 z M 32.501429,9.3244527 V 8.0422678 h -0.610564 -0.610564 v 1.2821849 1.2821833 h 0.610564 0.610564 z"
       id="path24" /></g></svg>
