<?xml version="1.0" encoding="UTF-8" standalone="no"?>
<svg
   width="168"
   height="30"
   viewBox="0 0 168 30"
   fill="none"
   version="1.1"
   id="svg5"
   xml:space="preserve"
   xmlns:xlink="http://www.w3.org/1999/xlink"
   xmlns="http://www.w3.org/2000/svg"
   xmlns:svg="http://www.w3.org/2000/svg"><defs
     id="defs5"><linearGradient
       id="linearGradient4"><stop
         style="stop-color:#fec616;stop-opacity:1;"
         offset="0"
         id="stop4" /><stop
         style="stop-color:#ff81ea;stop-opacity:1;"
         offset="1"
         id="stop5" /></linearGradient><rect
       x="102.96326"
       y="-18.767017"
       width="25.405689"
       height="19.086184"
       id="rect3" /><clipPath
       clipPathUnits="userSpaceOnUse"
       id="clipPath2"><rect
         style="fill:#ffffff;fill-opacity:1;stroke:#4fde22;stroke-width:0.566929;stroke-linecap:round;stroke-linejoin:round;paint-order:stroke fill markers"
         id="rect4"
         width="20.936428"
         height="21.190716"
         x="25.852674"
         y="33.057518" /></clipPath><linearGradient
       xlink:href="#linearGradient4"
       id="linearGradient5"
       x1="25.144983"
       y1="15"
       x2="140.56642"
       y2="15"
       gradientUnits="userSpaceOnUse" /></defs><g
     id="g5"
     transform="translate(1.1442985)"><text
       xml:space="preserve"
       id="text3"
       style="font-weight:900;font-size:14.6667px;font-family:Roboto;-inkscape-font-specification:'Roboto, Heavy';white-space:pre;shape-inside:url(#rect3);fill:#95e212;fill-opacity:1;stroke-width:1.68945;stroke-linejoin:round"
       transform="translate(-28.14771)" /><path
       d="m 25.144983,15 c 0,-8.28427 4.613922,-15 10.305485,-15 h 94.810462 c 5.69139,0 10.30549,6.71573 10.30549,15 v 0 c 0,8.2843 -4.6141,15 -10.30549,15 H 35.450468 C 29.758905,30 25.144983,23.2843 25.144983,15 Z"
       fill="#BFC2FF"
       id="path1"
       style="fill:url(#linearGradient5);fill-opacity:1;stroke-width:0.828874" /><text
       xml:space="preserve"
       style="font-style:normal;font-variant:normal;font-weight:900;font-stretch:normal;font-size:14.6667px;font-family:Roboto;-inkscape-font-specification:'Roboto, Heavy';font-variant-ligatures:normal;font-variant-caps:normal;font-variant-numeric:normal;font-variant-east-asian:normal;fill:#fefeff;fill-opacity:1;stroke-width:1.00157;stroke-linejoin:round"
       x="61.087425"
       y="20.503593"
       id="text5"><tspan
         id="tspan5"
         x="61.087425"
         y="20.503593"
         style="font-style:normal;font-variant:normal;font-weight:900;font-stretch:normal;font-size:14.6667px;font-family:Roboto;-inkscape-font-specification:'Roboto, Heavy';font-variant-ligatures:normal;font-variant-caps:normal;font-variant-numeric:normal;font-variant-east-asian:normal;fill:#fefeff;fill-opacity:1">mlabonne</tspan></text><path
       style="fill:#ffffff;fill-opacity:1"
       d="M 20.309453,43.356206 V 27.022872 H 35.642787 50.976121 V 43.356206 59.68954 H 35.642787 20.309453 Z m 28.000001,0.333333 v -12 h -12 -12.000001 v 12 12.000001 h 12.000001 12 z m -20.666667,0 v -8.666667 h 8.666667 8.666667 v 8.666667 8.666667 h -8.666667 -8.666667 z m 6,2.230009 c 0,-3.727764 0.01493,-3.756476 1.333333,-2.563342 1.286672,1.164422 1.379995,1.164422 2.666667,0 1.318399,-1.193134 1.333333,-1.164422 1.333333,2.563342 0,3.57688 0.08537,3.769992 1.666667,3.769992 1.654321,0 1.666667,-0.04444 1.666667,-6.000001 v -6 h -1.78084 c -0.979462,0 -2.329462,0.496496 -3,1.103325 -1.134442,1.026656 -1.303879,1.026656 -2.438321,0 -0.670538,-0.606829 -2.020538,-1.103325 -3,-1.103325 h -1.78084 v 6 c 0,5.955556 0.01235,6.000001 1.666667,6.000001 1.581295,0 1.666667,-0.193112 1.666667,-3.769992 z"
       id="path2"
       clip-path="url(#clipPath2)"
       transform="matrix(0.87044535,0,0,0.87044535,12.503724,-22.997443)" /></g></svg>
