<?xml version="1.0" encoding="UTF-8" standalone="no"?>
<svg
   width="143"
   height="30"
   viewBox="0 0 143 30"
   fill="none"
   version="1.1"
   id="svg3"
   xml:space="preserve"
   xmlns:xlink="http://www.w3.org/1999/xlink"
   xmlns="http://www.w3.org/2000/svg"
   xmlns:svg="http://www.w3.org/2000/svg"><defs
     id="defs3"><linearGradient
       id="linearGradient11"><stop
         style="stop-color:#36cfd1;stop-opacity:1;"
         offset="0.30968857"
         id="stop11" /><stop
         style="stop-color:#624aff;stop-opacity:1;"
         offset="0.76124567"
         id="stop13" /></linearGradient><linearGradient
       xlink:href="#linearGradient11"
       id="linearGradient12"
       x1="105.87548"
       y1="15.000002"
       x2="-1.9073486e-06"
       y2="15.000002"
       gradientUnits="userSpaceOnUse"
       gradientTransform="matrix(1.2410803,0,0,1,-12,0)" /></defs><g
     id="g5"
     transform="translate(8.958115)"><g
       id="g6"
       transform="translate(5.293085)"><g
         id="g7"><g
           id="g8"
           transform="translate(-6.275105)"><g
             id="g9"
             transform="translate(5.987255)"><g
               id="g13"
               transform="translate(4.59891)"><g
                 id="g14"
                 transform="translate(-0.76225)"><path
                   d="M -12,15 C -12,6.71573 -5.8290436,0 1.783213,0 H 105.61675 c 7.61203,0 13.78323,6.71573 13.78323,15 v 0 c 0,8.2843 -6.1712,15 -13.78323,15 H 1.783213 C -5.8290436,30 -12,23.2843 -12,15 Z"
                   fill="#1b1b1b"
                   id="path1"
                   style="fill:url(#linearGradient12);fill-opacity:1;stroke-width:0.958583" /><text
                   xml:space="preserve"
                   style="font-style:normal;font-variant:normal;font-weight:bold;font-stretch:normal;font-size:16px;font-family:Roboto;-inkscape-font-specification:'Roboto, Bold';font-variant-ligatures:normal;font-variant-caps:normal;font-variant-numeric:normal;font-variant-east-asian:normal;text-align:start;writing-mode:lr-tb;direction:ltr;text-anchor:start;fill:#ffffff;stroke-width:0.07"
                   x="23.037197"
                   y="20.841999"
                   id="text3"><tspan
                     id="tspan3"
                     x="23.037197"
                     y="20.841999">ModelScope</tspan></text><path
                   style="fill:#ffffff;fill-opacity:1;stroke-width:0.337287"
                   d="m -0.972212,18.363997 v -2.227514 h -1.181947 -1.181946 v -2.318434 -2.318433 h 1.181946 1.181947 V 10.454047 9.4084785 h 2.182055 2.182055 v 0.9973925 0.997393 l -1.159217,0.02544 -1.159217,0.02544 -0.02545,1.159217 -0.02545,1.159217 H 0.02518 -0.972212 v 1.181946 1.181947 h 1.000108 1.000109 v 1.181955 1.181947 h 1.181946 1.181947 v 1.045568 1.045568 H 1.209843 -0.972212 Z m 11.475526,1.206299 0.02572,-1.024461 1.156521,-0.02543 1.156521,-0.02542 0.02542,-1.156521 0.02542,-1.15652 h 1.000109 1.000108 v 2.182055 2.182055 l -2.207778,0.02435 -2.207778,0.02435 z m -4.72751,-2.229137 0.02544,-1.159217 1.159217,-0.02545 1.159217,-0.02544 v 1.184663 1.184663 H 6.935016 5.750353 Z M 3.482817,14.999996 v -1.136488 h 1.136487 1.136487 v 1.136488 1.136487 H 4.619304 3.482817 Z m 4.727786,0 v -1.136488 h 1.136487 1.136487 v 1.136488 1.136487 H 9.34709 8.210603 Z m 6.728003,-0.04546 V 13.772589 H 13.893038 12.84747 V 12.590643 11.408697 H 11.665523 10.483577 V 10.406971 9.4052465 l 2.204785,0.02435 2.204785,0.02435 0.02571,1.0228395 0.02571,1.022838 h 1.133509 1.133509 v 2.318433 2.318434 h -1.136486 -1.136487 z"
                   id="path14" /></g></g></g></g></g></g></g></svg>
