<?xml version="1.0" encoding="UTF-8" standalone="no"?>
<svg
   width="143"
   height="30"
   viewBox="0 0 143 30"
   fill="none"
   version="1.1"
   id="svg3"
   xml:space="preserve"
   xmlns="http://www.w3.org/2000/svg"
   xmlns:svg="http://www.w3.org/2000/svg"><defs
     id="defs3" /><g
     id="g2"
     transform="translate(2.7767)"><path
       d="M 0,15 C 0,6.71573 6.454925,0 14.417476,0 H 123.02913 c 7.96229,0 14.41747,6.71573 14.41747,15 v 0 c 0,8.2843 -6.45518,15 -14.41747,15 H 14.417476 C 6.454925,30 0,23.2843 0,15 Z"
       fill="#1B1B1B"
       id="path1"
       style="fill:#0b0f19;fill-opacity:1;stroke-width:0.98039" /><text
       xml:space="preserve"
       style="font-style:normal;font-variant:normal;font-weight:bold;font-stretch:normal;font-size:16px;font-family:Roboto;-inkscape-font-specification:'Roboto, Bold';font-variant-ligatures:normal;font-variant-caps:normal;font-variant-numeric:normal;font-variant-east-asian:normal;text-align:start;writing-mode:lr-tb;direction:ltr;text-anchor:start;fill:#ffffff;fill-opacity:1;stroke:#ffffff;stroke-width:0.07"
       x="33.742188"
       y="19.838688"
       id="text3"><tspan
         id="tspan3"
         x="33.742188"
         y="19.838688">Moonshot AI</tspan></text><path
       style="fill:#ffffff;fill-opacity:1;stroke-width:0.492367"
       d="m 16.846207,23.485387 c -2.495933,-0.454239 -4.888133,-2.0686 -5.880722,-3.968568 -0.606427,-1.160793 -0.593195,-1.210892 0.275488,-1.043106 0.669494,0.129314 0.662688,0.109566 -0.0728,-0.211203 -1.090608,-0.47565 -1.3112931,-0.896632 -1.3172182,-2.512734 -0.00379,-1.032349 0.1368543,-1.408049 0.5694012,-1.521086 0.547074,-0.142965 0.547074,-0.151926 0,-0.18819 -0.315935,-0.02094 -0.5729846,-0.296569 -0.571221,-0.612505 0.00626,-1.121186 1.552101,-3.8775531 2.77855,-4.9543911 1.053168,-0.924693 1.427139,-1.066771 2.431787,-0.923883 0.652973,0.09287 0.928732,0.09479 0.612797,0.0043 -1.623311,-0.465129 0.381543,-1.2227214 3.095047,-1.1695555 1.904486,0.037314 4.490975,1.1192695 5.705035,2.3864755 0.504533,0.526618 0.847354,1.027468 0.761824,1.112997 -0.08553,0.08553 -0.873714,-0.06064 -1.751522,-0.324819 -1.773927,-0.533875 -2.540808,-0.615237 -1.886446,-0.200146 0.340133,0.215761 0.323615,0.354973 -0.08206,0.6916541 -0.603161,0.500579 -0.662924,0.997629 -0.119952,0.997629 0.213374,0 1.527782,0.307558 2.920906,0.683464 2.350779,0.634308 2.543061,0.752346 2.673521,1.641222 0.08108,0.552408 -0.009,0.957548 -0.212888,0.95726 -0.1944,-2.74e-4 -2.032593,-0.450624 -4.084873,-1.000775 -2.052279,-0.550152 -3.81249,-0.919203 -3.911581,-0.820112 -0.09909,0.09909 -0.0044,0.180163 0.210355,0.180163 0.271405,0 0.239278,0.230824 -0.105329,0.756761 l -0.495848,0.75676 4.263093,1.113503 c 4.317371,1.127679 4.723139,1.390722 3.972506,2.575199 -0.227974,0.359735 -1.090695,0.221359 -4.604573,-0.738551 -2.37822,-0.649674 -4.360095,-1.181226 -4.404164,-1.181226 -0.04407,0 -0.112098,0.419584 -0.151173,0.932409 -0.07873,1.033199 -0.302945,0.929423 5.101258,2.361058 1.48941,0.394563 2.708018,0.826021 2.708018,0.958797 0,0.132776 -0.296548,0.509783 -0.658993,0.837792 -0.63852,0.577852 -0.76022,0.569235 -3.91738,-0.277371 -1.792111,-0.480563 -3.34194,-0.873751 -3.444063,-0.873751 -0.102123,0 -0.185679,0.44313 -0.185679,0.984733 0,0.541604 0.161904,0.984734 0.359787,0.984734 0.893629,0 3.943801,1.076998 3.694026,1.304339 -0.446988,0.406841 -2.7873,0.57149 -4.274918,0.300757 z M 16.650169,19.71251 c -0.109073,-0.109072 -0.392185,-0.120734 -0.629136,-0.02592 -0.261851,0.104784 -0.184072,0.182563 0.198315,0.198314 0.346024,0.01426 0.539894,-0.06333 0.430821,-0.172401 z m -2.297712,-0.656489 c -0.109073,-0.109073 -0.392183,-0.120734 -0.629135,-0.02592 -0.261852,0.104784 -0.184072,0.182564 0.198314,0.198314 0.346025,0.01426 0.539894,-0.06333 0.430821,-0.1724 z m -1.312978,-0.328245 c -0.109073,-0.109072 -0.392184,-0.120734 -0.629135,-0.02592 -0.261852,0.104783 -0.184072,0.182563 0.198314,0.198314 0.346024,0.01426 0.539893,-0.06333 0.430821,-0.172401 z m 3.938934,-2.9542 c -0.109073,-0.109073 -0.392183,-0.120734 -0.629135,-0.02592 -0.261851,0.104784 -0.184072,0.182564 0.198314,0.198314 0.346025,0.01426 0.539894,-0.06333 0.430821,-0.172401 z m -1.312978,-0.328244 c -0.109073,-0.109073 -0.392184,-0.120735 -0.629135,-0.02592 -0.261852,0.104785 -0.184072,0.182563 0.198315,0.198315 0.346023,0.01425 0.539893,-0.06333 0.43082,-0.172401 z M 13.94899,14.987156 C 13.587921,14.832 13.070935,14.705054 12.800134,14.705054 c -0.310349,0 -0.249676,0.104288 0.164122,0.282102 0.361069,0.155157 0.878055,0.282104 1.148856,0.282104 0.310349,0 0.249676,-0.104289 -0.164122,-0.282104 z m -1.894245,-0.526558 c -0.109072,-0.109073 -0.392183,-0.120735 -0.629135,-0.02592 -0.261851,0.104784 -0.184071,0.182564 0.198315,0.198314 0.346024,0.01425 0.539893,-0.06333 0.43082,-0.1724 z m 6.236646,-2.297712 c -0.109072,-0.109073 -0.392183,-0.120734 -0.629135,-0.02592 -0.261851,0.104785 -0.184072,0.182564 0.198314,0.198314 0.346024,0.01426 0.539894,-0.06333 0.430821,-0.1724 z M 15.99368,11.506397 c -0.109073,-0.109073 -0.392184,-0.120734 -0.629136,-0.02592 -0.261851,0.104783 -0.184072,0.182563 0.198315,0.198313 0.346025,0.01426 0.539894,-0.06333 0.430821,-0.1724 z m -1.312979,-0.328244 c -0.109072,-0.109074 -0.392184,-0.120735 -0.629135,-0.02592 -0.261851,0.104784 -0.184072,0.182564 0.198314,0.198314 0.346025,0.01426 0.539895,-0.06333 0.430821,-0.1724 z m -1.312978,-0.328245 c -0.109072,-0.109073 -0.392183,-0.120734 -0.629136,-0.02591 -0.26185,0.104784 -0.184071,0.182564 0.198315,0.198314 0.346025,0.01426 0.539895,-0.06333 0.430821,-0.1724 z m 7.549624,-1.9694671 c -0.109072,-0.109073 -0.392183,-0.120734 -0.629135,-0.02592 -0.261851,0.104785 -0.184072,0.182565 0.198314,0.198315 0.346025,0.01426 0.539895,-0.06333 0.430821,-0.172399 z m -2.297711,-0.656489 c -0.109073,-0.109073 -0.392184,-0.120735 -0.629136,-0.02592 -0.261851,0.104784 -0.184071,0.182564 0.198315,0.198314 0.346025,0.01426 0.539894,-0.06333 0.430821,-0.172401 z m -1.312978,-0.328245 c -0.109073,-0.109072 -0.392184,-0.120734 -0.629135,-0.02592 -0.261852,0.104784 -0.184072,0.182564 0.198314,0.198314 0.346024,0.01426 0.539894,-0.06333 0.430821,-0.172399 z"
       id="path2" /></g></svg>
