<?xml version="1.0" encoding="UTF-8" standalone="no"?>
<svg
   width="168"
   height="30"
   viewBox="0 0 168 30"
   fill="none"
   version="1.1"
   id="svg5"
   xml:space="preserve"
   xmlns:xlink="http://www.w3.org/1999/xlink"
   xmlns="http://www.w3.org/2000/svg"
   xmlns:svg="http://www.w3.org/2000/svg"><defs
     id="defs5"><linearGradient
       id="linearGradient18"><stop
         style="stop-color:#a782fd;stop-opacity:1;"
         offset="0"
         id="stop18" /><stop
         style="stop-color:#c020df;stop-opacity:1;"
         offset="1"
         id="stop19" /></linearGradient><linearGradient
       id="swatch10"><stop
         style="stop-color:#000000;stop-opacity:1;"
         offset="0"
         id="stop10" /></linearGradient><linearGradient
       xlink:href="#linearGradient18"
       id="linearGradient19"
       x1="52.675369"
       y1="15"
       x2="141.30696"
       y2="15"
       gradientUnits="userSpaceOnUse"
       gradientTransform="matrix(1.0173957,0,0,1,-0.91632475,0)" /></defs><g
     id="g19"
     transform="translate(-13.762069)"><path
       d="m 52.675369,15 c 0,-8.28427 3.604642,-15 8.051196,-15 h 74.071005 c 4.44641,0 8.0512,6.71573 8.0512,15 v 0 c 0,8.2843 -3.60479,15 -8.0512,15 H 60.726565 c -4.446554,0 -8.051196,-6.7157 -8.051196,-15 z"
       fill="#BFC2FF"
       id="path1"
       style="fill:url(#linearGradient19);stroke-width:0.732629" /><text
       xml:space="preserve"
       style="font-style:normal;font-variant:normal;font-weight:900;font-stretch:normal;font-size:14.6667px;font-family:Roboto;-inkscape-font-specification:'Roboto, Heavy';font-variant-ligatures:normal;font-variant-caps:normal;font-variant-numeric:normal;font-variant-east-asian:normal;fill:#ffffff;fill-opacity:1;stroke-width:1.00157;stroke-linejoin:round"
       x="84.93647"
       y="20.503593"
       id="text5"><tspan
         id="tspan5"
         x="84.93647"
         y="20.503593"
         style="font-style:normal;font-variant:normal;font-weight:900;font-stretch:normal;font-size:14.6667px;font-family:Roboto;-inkscape-font-specification:'Roboto, Heavy';font-variant-ligatures:normal;font-variant-caps:normal;font-variant-numeric:normal;font-variant-east-asian:normal;fill:#ffffff;fill-opacity:1">Murf.AI</tspan></text><path
       style="fill:#ffffff;fill-opacity:1;stroke-width:0.614649"
       d="m 62.491757,22.222122 c -0.332833,-0.42257 -0.787759,-1.532534 -1.01095,-2.466584 l -0.405789,-1.698273 0.413995,-4.964162 0.413997,-4.9641604 0.865707,-0.332204 0.865714,-0.3322047 1.787559,1.7125937 1.787564,1.7125944 3.639955,-1.9400774 3.639962,-1.9400774 h 1.253016 1.253018 l 0.965876,0.9658767 0.965878,0.9658764 v 6.4291977 6.4292 l -0.958668,0.367873 -0.958661,0.367875 -1.787565,-1.712594 -1.787564,-1.712592 -3.639955,1.940076 -3.639955,1.940077 h -1.528988 -1.528988 z m 8.81183,-3.863723 0.674085,-0.877037 2.399159,1.815464 c 1.31954,0.998504 2.606601,1.823157 2.860144,1.832562 l 0.460986,0.0171 V 15.881566 10.616644 L 77.06169,9.4277537 76.425411,8.2388646 h -1.232155 c -0.677687,0 -2.258361,0.5255258 -3.512606,1.1678351 l -2.280446,1.1678373 -1.382959,1.880518 -1.38296,1.880519 v 1.202921 1.20292 l 1.690284,1.312412 1.690284,1.312413 -1.536622,-0.4144 C 67.63309,18.72392 66.59587,18.260833 66.173299,17.922757 L 65.404988,17.308074 V 15.544597 13.78112 l 1.168491,-0.729735 1.16849,-0.729735 -1.936801,-1.049333 c -1.065241,-0.577134 -2.144245,-0.926252 -2.397788,-0.77582 l -0.460987,0.273513 v 5.137018 5.137018 l 0.768311,0.272234 0.768311,0.272234 3.073243,-1.17654 3.073244,-1.17654 z m -0.98141,0.02217 c 0,-0.169029 0.138296,-0.307325 0.307325,-0.307325 0.169028,0 0.307324,0.138296 0.307324,0.307325 0,0.169028 -0.138296,0.307324 -0.307324,0.307324 -0.169029,0 -0.307325,-0.138296 -0.307325,-0.307324 z m 3.114321,-2.228027 0.698978,-1.306052 -1.219727,-1.613529 -1.219733,-1.613528 -1.271007,0.04552 -1.271008,0.04552 0.313041,-0.506506 0.31304,-0.506507 h 1.712405 1.712411 l 1.017231,1.124033 1.017238,1.124033 v 1.518957 1.518955 l -0.737578,0.737579 c -0.405669,0.405681 -0.968583,0.737591 -1.250921,0.737591 h -0.513349 z"
       id="path18" /></g></svg>
