<?xml version="1.0" encoding="UTF-8" standalone="no"?>
<svg
   width="168"
   height="30"
   viewBox="0 0 168 30"
   fill="none"
   version="1.1"
   id="svg5"
   xml:space="preserve"
   xmlns:xlink="http://www.w3.org/1999/xlink"
   xmlns="http://www.w3.org/2000/svg"
   xmlns:svg="http://www.w3.org/2000/svg"><defs
     id="defs5"><linearGradient
       id="linearGradient2"><stop
         style="stop-color:#62cbf2;stop-opacity:1;"
         offset="0"
         id="stop2" /><stop
         style="stop-color:#307fe2;stop-opacity:1;"
         offset="1"
         id="stop3" /></linearGradient><linearGradient
       xlink:href="#linearGradient2"
       id="linearGradient3"
       x1="24.383244"
       y1="15"
       x2="143.61676"
       y2="15"
       gradientUnits="userSpaceOnUse"
       gradientTransform="matrix(0.92978406,0,0,1,1.7120923,0)" /></defs><g
     id="g3"
     transform="translate(4.186043)"><path
       d="m 24.383244,15 c 0,-8.28427 4.431639,-15 9.898343,-15 h 91.064743 c 5.46652,0 9.89834,6.71573 9.89834,15 v 0 c 0,8.2843 -4.43181,15 -9.89834,15 H 34.281587 c -5.466704,0 -9.898343,-6.7157 -9.898343,-15 z"
       fill="#BFC2FF"
       id="path1"
       style="fill:url(#linearGradient3);stroke-width:0.812337" /><text
       xml:space="preserve"
       style="font-style:normal;font-variant:normal;font-weight:900;font-stretch:normal;font-size:14.6667px;font-family:Roboto;-inkscape-font-specification:'Roboto, Heavy';font-variant-ligatures:normal;font-variant-caps:normal;font-variant-numeric:normal;font-variant-east-asian:normal;fill:#fefeff;fill-opacity:1;stroke-width:1.00157;stroke-linejoin:round"
       x="55.902058"
       y="20.503416"
       id="text5"><tspan
         id="tspan5"
         x="55.902058"
         y="20.503416"
         style="font-style:normal;font-variant:normal;font-weight:900;font-stretch:normal;font-size:14.6667px;font-family:Roboto;-inkscape-font-specification:'Roboto, Heavy';font-variant-ligatures:normal;font-variant-caps:normal;font-variant-numeric:normal;font-variant-east-asian:normal;fill:#fefeff;fill-opacity:1">Nexusflow</tspan></text><path
       style="fill:#ffffff;fill-opacity:1;stroke-width:0.56244"
       d="M 35.186051,15 V 7.8757703 h 2.352289 2.352295 l 2.897142,2.9142307 c 2.412633,2.426867 2.897135,3.116641 2.897135,4.124555 0,0.665677 -0.115024,1.210323 -0.255617,1.210323 -0.140593,0 -1.63856,-1.349854 -3.328819,-2.999676 -1.887,-1.841852 -3.380344,-2.999676 -3.868935,-2.999676 -0.770199,0 -0.795733,0.156424 -0.795733,4.874473 v 4.874473 h 1.306439 c 0.923964,0 1.664944,0.326108 2.530977,1.113888 l 1.224536,1.113887 -3.655854,0.01099 -3.655855,0.01099 z m 7.021694,4.209999 c -2.412634,-2.426867 -2.897142,-3.116641 -2.897142,-4.124554 0,-0.665679 0.130509,-1.210324 0.290017,-1.210324 0.159507,0 1.631956,1.349854 3.272096,2.999677 1.983808,1.995511 3.267452,2.999675 3.834542,2.999675 0.844536,0 0.852456,-0.04701 0.852456,-5.061952 V 9.7505676 h -1.621957 c -1.24528,0 -1.826477,-0.2176995 -2.502601,-0.9373986 l -0.88064,-0.9373987 h 3.62748 3.627474 V 15 22.12423 H 47.457175 45.10488 Z"
       id="path3" /></g></svg>
