<?xml version="1.0" encoding="UTF-8" standalone="no"?>
<svg
   width="168"
   height="30"
   viewBox="0 0 168 30"
   fill="none"
   version="1.1"
   id="svg5"
   xml:space="preserve"
   xmlns="http://www.w3.org/2000/svg"
   xmlns:svg="http://www.w3.org/2000/svg"><defs
     id="defs5"><rect
       x="102.96326"
       y="-18.767017"
       width="25.405689"
       height="19.086184"
       id="rect3" /><clipPath
       clipPathUnits="userSpaceOnUse"
       id="clipPath6"><circle
         style="font-variation-settings:normal;opacity:0.427419;vector-effect:none;fill:#000000;fill-opacity:1;fill-rule:evenodd;stroke-width:1.10736;stroke-linecap:butt;stroke-linejoin:miter;stroke-miterlimit:4;stroke-dasharray:none;stroke-dashoffset:0;stroke-opacity:1;-inkscape-stroke:none;stop-color:#000000;stop-opacity:1"
         id="circle6"
         cx="90.934837"
         cy="-34.184986"
         r="26.75" /></clipPath></defs><g
     id="g6"
     transform="translate(-1.6249355)"><path
       d="m 17.149331,15 c 0,-8.28427 5.474566,-15 12.227787,-15 H 141.87275 c 6.75301,0 12.22779,6.71573 12.22779,15 v 0 c 0,8.2843 -5.47478,15 -12.22779,15 H 29.377118 C 22.623897,30 17.149331,23.2843 17.149331,15 Z"
       fill="#BFC2FF"
       id="path1"
       style="fill:#0071a9;fill-opacity:1;stroke-width:0.902876" /><text
       xml:space="preserve"
       style="font-style:normal;font-variant:normal;font-weight:900;font-stretch:normal;font-size:14.6667px;font-family:Roboto;-inkscape-font-specification:'Roboto, Heavy';font-variant-ligatures:normal;font-variant-caps:normal;font-variant-numeric:normal;font-variant-east-asian:normal;fill:#fefeff;fill-opacity:1;stroke-width:1.00157;stroke-linejoin:round"
       x="51.091774"
       y="20.503593"
       id="text5"><tspan
         id="tspan5"
         x="51.091774"
         y="20.503593"
         style="font-style:normal;font-variant:normal;font-weight:900;font-stretch:normal;font-size:14.6667px;font-family:Roboto;-inkscape-font-specification:'Roboto, Heavy';font-variant-ligatures:normal;font-variant-caps:normal;font-variant-numeric:normal;font-variant-east-asian:normal;fill:#fefeff;fill-opacity:1">NousResearch</tspan></text><text
       xml:space="preserve"
       id="text3"
       style="font-weight:900;font-size:14.6667px;font-family:Roboto;-inkscape-font-specification:'Roboto, Heavy';white-space:pre;shape-inside:url(#rect3);fill:#95e212;fill-opacity:1;stroke-width:1.68945;stroke-linejoin:round"
       transform="translate(-26.522775)" /><path
       style="fill:#ffffff;fill-opacity:1"
       d="m 64.122862,-19.072199 c 0.0049,-10.091616 0.0065,-10.243049 0.101019,-9.780248 0.466646,2.284984 1.131456,4.348515 1.994038,6.189369 0.412992,0.881376 0.618647,1.268241 0.65491,1.231978 0.01767,-0.01767 0.0752,-0.201724 0.127841,-0.408998 0.168476,-0.663415 0.460967,-1.183262 1.097862,-1.951243 0.151874,-0.183133 0.29278,-0.333247 0.313124,-0.333586 0.02034,-3.4e-4 -0.03508,0.158034 -0.123166,0.351941 -0.274013,0.603206 -0.362414,0.980973 -0.394176,1.684449 -0.02549,0.564595 -0.01372,0.716456 0.08702,1.122965 0.06408,0.258544 0.188552,0.622855 0.276615,0.80958 0.206226,0.437271 0.703403,0.942758 1.118573,1.13727 0.282051,0.132144 0.352773,0.142389 0.982921,0.142389 0.640718,0 0.692295,-0.0078 0.914773,-0.138614 0.548021,-0.322189 0.995556,-0.987463 1.294634,-1.924509 0.282303,-0.884485 0.689811,-3.269284 0.896972,-5.249212 0.02705,-0.258543 0.108224,-0.998917 0.180383,-1.645276 0.24166,-2.164645 0.312513,-2.87384 0.39658,-3.969553 0.02755,-0.359088 0.08394,-0.97019 0.12532,-1.358005 0.04138,-0.387815 0.09118,-0.951909 0.110675,-1.253543 l 0.03545,-0.548425 -0.329413,-0.231083 c -0.738737,-0.518223 -1.479944,-1.306821 -1.852953,-1.971426 -0.213403,-0.380229 -0.336911,-0.525914 -0.335703,-0.395982 6.94e-4,0.07473 0.250221,0.771966 0.384589,1.074639 0.332153,0.748195 0.903441,1.500161 1.366686,1.798919 0.09014,0.05814 0.08043,0.06207 -0.08025,0.03246 -0.643874,-0.118622 -1.704492,-0.611947 -2.380736,-1.107353 -0.449025,-0.328948 -1.146015,-1.058491 -1.422908,-1.489367 -0.454293,-0.706928 -0.718365,-1.368462 -0.925824,-2.319307 -0.114043,-0.52269 -0.127981,-0.710769 -0.127733,-1.723622 2.19e-4,-0.894511 0.02253,-1.268743 0.104655,-1.755237 0.301211,-1.784365 0.735341,-3.124023 1.526075,-4.709232 0.478499,-0.959262 0.714973,-1.376799 1.153665,-2.037007 1.591829,-2.395617 4.966297,-4.98505 8.888947,-6.821025 1.855471,-0.868444 3.408317,-1.420087 5.287786,-1.878469 3.367839,-0.82138 5.713671,-1.082556 7.691608,-0.856353 2.545673,0.29113 5.374501,1.175455 7.312339,2.285924 2.40019,1.375422 4.55475,3.460951 5.83781,5.650763 0.37051,0.632363 1.11032,2.099672 1.30763,2.593506 0.0879,0.219893 0.2053,0.50194 0.26099,0.626771 0.0557,0.124832 0.17577,0.42675 0.26686,0.67093 0.0911,0.244179 0.1872,0.490971 0.21358,0.548425 0.0671,0.146267 0.31482,0.81918 0.59594,1.61916 0.27428,0.780505 0.68149,2.349497 0.91501,3.52559 0.0884,0.445269 0.19453,0.974107 0.23582,1.175197 0.0413,0.201089 0.1375,0.706423 0.2138,1.122965 0.37897,2.068674 0.91684,4.480798 1.90427,8.539763 0.2588,1.063829 0.95277,3.599587 1.33651,4.883595 0.36379,1.217284 1.01414,4.360797 1.01414,4.901981 0,0.260486 0.0752,0.229098 0.26961,-0.112588 0.53956,-0.948133 1.17967,-2.447429 1.72145,-4.032044 l 0.35715,-1.044619 10e-4,8.78786 0.001,8.78786 -7.92605,-0.0041 c -4.35933,-0.0023 -7.89079,-0.01729 -7.8477,-0.03338 0.14977,-0.05593 1.17805,-0.524557 1.64527,-0.749816 0.91217,-0.439775 2.5441,-1.395391 3.31202,-1.939432 0.15618,-0.110653 0.12028,-0.162621 -0.33851,-0.490007 -0.36734,-0.262129 -0.80466,-0.439563 -1.54409,-0.626486 -0.47324,-0.119631 -0.59832,-0.129083 -1.59819,-0.120771 -2.62913,0.02186 -3.189293,0.291377 -5.535015,2.663148 -0.551356,0.557479 -1.052399,1.078234 -1.11343,1.157234 l -0.110964,0.143635 H 95.135746 94.3003 l 0.03624,-0.11752 c 0.0462,-0.149792 0.435498,-0.822638 0.475969,-0.822638 0.0308,0 -0.0079,0.292662 -0.06727,0.509252 -0.06158,0.224497 0.07826,0.117573 0.239077,-0.182808 0.276318,-0.516108 0.956229,-1.376496 1.496401,-1.893608 0.991148,-0.948836 2.447133,-1.78212 3.511902,-2.009919 0.0962,-0.02058 0.154961,-0.0566 0.130581,-0.08003 -0.123596,-0.118793 -1.998504,0.298801 -2.826085,0.629445 -0.671209,0.26817 -1.830883,0.928581 -2.405489,1.36988 -0.383191,0.294291 -0.971227,1.010447 -1.537197,1.872116 -0.402253,0.612417 -0.497161,0.725834 -0.607386,0.725834 h -0.130638 l 0.133253,-0.143635 c 0.07329,-0.079 0.258,-0.331667 0.410468,-0.561483 0.450848,-0.679566 0.812507,-1.088648 1.979405,-2.238959 0.608077,-0.599433 1.095035,-1.100437 1.082131,-1.113341 -0.09237,-0.09236 -0.888077,0.281268 -1.965246,0.922796 -0.273626,0.162963 -0.779549,0.445112 -1.124273,0.626998 -1.115001,0.588306 -1.193312,0.634069 -1.775853,1.037755 -0.579298,0.401438 -2.429883,1.488073 -2.427403,1.425333 7.36e-4,-0.0186 0.083,-0.161993 0.182809,-0.318661 0.19163,-0.300796 0.217043,-0.392118 0.124955,-0.449031 -0.07371,-0.04556 -0.53354,0.273143 -0.829227,0.574727 l -0.232857,0.237501 h -0.720358 c -0.396198,0 -0.720359,-0.01269 -0.720359,-0.0282 0,-0.01551 0.04683,-0.119996 0.104073,-0.232196 0.06511,-0.127632 0.08431,-0.216216 0.05128,-0.23663 -0.06783,-0.04192 -0.34689,0.130849 -0.543798,0.336671 L 86.191997,-8.82185 H 75.15492 64.117843 Z m 24.533544,8.870411 c 0.165136,-0.0695 0.558119,-0.24882 0.873295,-0.398478 0.315175,-0.149658 0.986228,-0.464586 1.491227,-0.69984 1.07698,-0.501711 1.419596,-0.689716 2.069383,-1.135543 0.264263,-0.181314 0.704149,-0.482437 0.977524,-0.669162 0.273376,-0.186726 0.497491,-0.363006 0.498033,-0.391733 5.43e-4,-0.02873 -0.244557,-0.179895 -0.544667,-0.33593 -0.881521,-0.458325 -2.310792,-1.566736 -2.763813,-2.14336 -0.221765,-0.282271 -0.573506,-0.936415 -0.702513,-1.306484 -0.03023,-0.08672 -0.08296,-0.157663 -0.117175,-0.157663 -0.09809,0 -0.672751,0.517727 -1.719073,1.548751 -0.891455,0.878421 -0.99622,0.964878 -1.353034,1.116592 -0.274945,0.116904 -0.531651,0.179822 -0.887926,0.217628 -0.275641,0.02925 -0.53126,0.06194 -0.568042,0.07266 -0.115444,0.03362 -0.03718,0.166869 1.420987,2.419446 0.409144,0.632043 0.659925,1.115391 0.788336,1.519413 0.09868,0.310497 0.170437,0.470079 0.211358,0.470079 0.01422,0 0.160963,-0.05687 0.3261,-0.126373 z m -10.464327,-0.317591 c 0.152234,-0.45554 0.393741,-1.453133 0.393741,-1.626423 0,-0.188243 -0.06926,-0.117948 -0.303306,0.307841 -0.119268,0.216977 -0.394129,0.577141 -0.644259,0.844202 -0.239936,0.256178 -0.412813,0.47456 -0.384171,0.485294 0.02864,0.01073 0.181349,0.09949 0.339347,0.197225 0.400505,0.247756 0.452316,0.229742 0.598648,-0.208139 z m -2.817694,-1.685265 c 0.386654,-0.311496 0.856742,-0.867389 1.097373,-1.297676 0.453905,-0.811658 0.829081,-2.037499 1.019326,-3.33051 0.09528,-0.647605 0.101757,-0.832895 0.02647,-0.757606 -0.01301,0.01301 -0.108339,0.304847 -0.21185,0.648534 -0.453322,1.505173 -0.997341,2.506389 -1.766498,3.251071 -0.401127,0.388364 -0.867093,0.654979 -1.387724,0.794024 l -0.229748,0.06136 0.125286,0.122242 c 0.145137,0.14161 0.947076,0.754378 0.989688,0.756229 0.01579,6.86e-4 0.167744,-0.110764 0.337679,-0.247667 z m 31.803715,-0.03291 0.29566,-0.229588 -0.14281,-0.112341 c -0.40948,-0.322092 -1.43799,-0.679243 -2.34238,-0.81339 -0.60424,-0.08963 -2.06681,-0.195746 -2.10949,-0.153059 -0.0532,0.05318 0.12258,0.126114 0.30752,0.127617 0.10055,8.17e-4 0.39961,0.04623 0.66459,0.100908 0.97436,0.201072 1.74428,0.510376 2.59985,1.044462 0.22982,0.143461 0.42089,0.26177 0.42462,0.262909 0.004,0.0011 0.13982,-0.101244 0.30244,-0.227518 z m -34.977956,-2.930729 c 0.179301,-0.06432 0.459186,-0.19632 0.621967,-0.293337 0.380876,-0.227 1.165742,-0.969592 1.453614,-1.375319 0.242396,-0.341635 0.661964,-1.148028 0.782854,-1.504614 0.08795,-0.259434 0.288921,-1.105126 0.288921,-1.215805 0,-0.161649 -0.102477,-0.06393 -0.233819,0.222956 -0.246262,0.537909 -0.812985,1.328822 -1.287593,1.796956 -0.872772,0.860864 -1.888531,1.392028 -2.931277,1.532831 -0.136454,0.01843 -0.248097,0.0507 -0.248097,0.07172 0,0.02102 0.190704,0.243434 0.423786,0.494247 0.481125,0.517724 0.456501,0.51183 1.129644,0.270362 z m 38.043636,-1.527407 c 0.66139,-0.679058 0.86315,-0.958733 1.25197,-1.735417 0.55741,-1.113434 0.75601,-1.974221 0.74745,-3.239583 -0.008,-1.183393 -0.17328,-1.967489 -0.75182,-3.566906 -0.34155,-0.944209 -0.86742,-2.230239 -0.94315,-2.306466 -0.0646,-0.06501 -0.0645,0.136204 1.9e-4,0.383061 0.10285,0.392604 0.26685,1.315333 0.37704,2.121414 0.35788,2.618043 -0.13341,6.183643 -1.15129,8.355752 -0.21394,0.456527 -0.25541,0.601859 -0.17176,0.601859 0.024,0 0.31261,-0.276172 0.64137,-0.613714 z m -20.827434,-1.438104 0.619372,-0.585883 -0.11012,-0.682149 c -0.121778,-0.75436 -0.151758,-2.210363 -0.05985,-2.906559 0.02765,-0.209445 0.08689,-0.674608 0.131636,-1.033696 0.117708,-0.944548 0.184646,-1.427015 0.271746,-1.958661 0.04236,-0.258543 0.09943,-0.634606 0.126835,-0.835695 0.0274,-0.201089 0.09525,-0.600656 0.150776,-0.887927 0.05552,-0.28727 0.15057,-0.804356 0.211209,-1.149081 0.06064,-0.344724 0.178268,-0.967578 0.261395,-1.38412 0.08313,-0.416542 0.186322,-0.957133 0.229321,-1.201313 0.043,-0.244179 0.112004,-0.631994 0.153343,-0.86181 0.08721,-0.484797 0.311594,-2.010564 0.407116,-2.768242 0.06941,-0.550595 0.08932,-3.962118 0.02462,-4.219892 -0.0191,-0.07611 -0.08057,-0.162909 -0.136589,-0.192891 -0.137547,-0.07361 -1.009565,-0.250247 -1.448151,-0.293334 -0.446145,-0.04383 -0.521246,-0.08309 -0.563544,-0.294563 -0.01872,-0.0936 -0.06484,-0.275953 -0.102491,-0.405224 -0.03765,-0.129272 -0.09933,-0.340808 -0.137074,-0.470079 l -0.06862,-0.235039 -0.03748,0.261154 c -0.02061,0.143635 -0.03954,0.420544 -0.04206,0.615353 -0.003,0.234028 -0.02673,0.361253 -0.06987,0.374992 -0.03591,0.01144 -0.953077,0.03051 -2.038152,0.04238 l -1.972865,0.02158 -0.265946,-0.358743 c -0.146271,-0.197308 -0.305838,-0.380091 -0.354594,-0.406184 -0.06083,-0.03255 -0.202392,-0.0067 -0.451083,0.08237 -0.199341,0.0714 -0.569542,0.198896 -0.822671,0.283332 -0.541935,0.180774 -1.089989,0.465839 -1.70597,0.887346 -0.431356,0.295169 -0.911733,0.539365 -1.001836,0.509275 -0.08969,-0.02995 0.265764,-0.651979 0.550982,-0.964195 0.162153,-0.177502 0.273973,-0.335616 0.24849,-0.351365 -0.02548,-0.01575 -0.481374,0.07987 -1.013091,0.212487 -0.626399,0.156232 -1.01523,0.228957 -1.104437,0.206567 -0.153366,-0.03849 -0.684167,-0.471046 -1.140789,-0.929638 -0.326878,-0.328288 -0.810156,-0.958869 -1.121527,-1.46337 -0.118248,-0.19159 -0.204716,-0.288099 -0.214183,-0.239054 -0.03956,0.204962 0.654377,1.784905 1.068642,2.433048 0.09744,0.152449 0.165533,0.295993 0.151321,0.318988 -0.01421,0.02299 -0.14342,0.05573 -0.28713,0.07275 -0.450475,0.05335 -1.778767,0.474848 -1.778767,0.564441 0,0.0243 0.08814,0.08916 0.195866,0.144139 0.107726,0.05498 0.237516,0.146021 0.288421,0.202312 0.09142,0.101087 0.08532,0.10228 -0.496194,0.09696 -0.565273,-0.0052 -0.602807,0.0015 -0.941308,0.167034 -0.42636,0.208512 -0.432579,0.242222 -0.151773,0.822733 0.270261,0.55871 0.287009,0.569881 0.661358,0.441086 0.645379,-0.222043 1.129603,-0.10194 1.766156,0.438065 0.190145,0.161306 0.358179,0.293283 0.373407,0.293283 0.109379,0 -0.05574,-0.558253 -0.211054,-0.71357 -0.06913,-0.06913 -0.120727,-0.142514 -0.114665,-0.163079 0.03524,-0.119553 -0.258153,-0.373306 -0.803333,-0.694797 -0.340512,-0.200799 -0.619112,-0.379019 -0.619112,-0.396044 0,-0.09026 0.42295,0.05987 0.759354,0.269538 0.458271,0.285627 0.767503,0.618364 0.971243,1.045065 0.293004,0.613649 0.170095,1.458546 -0.334006,2.296014 -0.287312,0.477315 -0.480644,0.688162 -1.010042,1.101545 -0.533735,0.416771 -0.595473,0.501784 -0.595473,0.819959 0,0.418165 0.278975,0.892762 0.908923,1.546274 0.727372,0.754581 0.780515,0.937184 0.4725,1.623533 l -0.140245,0.312506 0.275072,0.345689 c 0.226134,0.284186 0.294605,0.339567 0.384857,0.311286 0.06038,-0.01892 0.168545,-0.04481 0.240362,-0.05754 0.112058,-0.01986 0.106502,-0.01051 -0.03917,0.06592 -0.361716,0.189786 -0.0848,0.383937 0.545831,0.382699 0.676087,-0.0013 0.673659,-0.124167 -0.0068,-0.343385 -0.253999,-0.08183 -0.284229,-0.102781 -0.168052,-0.11647 0.193401,-0.02279 0.56271,0.109146 1.000073,0.357269 1.050462,0.595944 1.475853,0.768598 1.656068,0.67215 0.127869,-0.06843 0.250362,0.02393 0.250362,0.188788 0,0.09158 -0.04969,0.135701 -0.221982,0.197112 -0.122089,0.04352 -0.394068,0.141716 -0.604395,0.218221 -0.462497,0.16823 -0.621344,0.149479 -0.20291,-0.02395 0.414131,-0.171648 0.404086,-0.193327 -0.14591,-0.314904 -0.57608,-0.127344 -1.032167,-0.149365 -1.488582,-0.07187 -0.557675,0.09468 -0.707772,0.155042 -0.837051,0.336597 -0.153891,0.216121 -0.131458,0.398039 0.07448,0.603976 0.169822,0.169822 0.194368,0.177572 0.561483,0.177294 0.211143,-1.6e-4 0.474241,-0.02538 0.584661,-0.05604 0.11042,-0.03066 0.213944,-0.04257 0.230053,-0.02646 0.04055,0.04055 -0.388432,0.223422 -0.62726,0.267389 -0.248681,0.04578 -0.287824,0.109586 -0.147455,0.24036 0.133784,0.124638 0.09666,0.22691 -0.05324,0.146684 -0.193252,-0.103425 -0.817813,-0.728749 -0.871483,-0.872547 -0.05277,-0.141396 -0.220359,-0.837272 -0.220094,-0.913911 7.5e-5,-0.02179 0.04608,-0.01093 0.102222,0.02414 0.192953,0.120501 0.175231,-0.01018 -0.04211,-0.310508 -0.312527,-0.431863 -0.530056,-0.909259 -0.530056,-1.16328 0,-0.157069 0.05555,-0.306072 0.208924,-0.560363 0.234953,-0.389557 0.271874,-0.678368 0.123914,-0.969304 -0.04676,-0.09194 -0.325698,-0.414987 -0.619872,-0.717891 -0.570234,-0.587156 -0.639976,-0.689958 -0.787309,-1.16052 -0.05184,-0.16556 -0.111383,-0.283079 -0.132324,-0.261155 -0.05448,0.05705 -0.09369,0.57335 -0.130209,1.714897 -0.02823,0.8824 -0.01941,1.058691 0.07734,1.545282 0.294718,1.482193 0.806142,2.664968 2.424309,5.606718 0.700889,1.274184 0.885151,1.55113 1.259885,1.893616 0.772583,0.706098 1.937439,0.747929 5.383866,0.19334 0.628814,-0.101187 1.136884,-0.09803 1.347541,0.0084 0.743985,0.375762 1.775772,1.635445 2.722347,3.323645 0.07651,0.136453 0.167497,0.247316 0.202195,0.246363 0.0347,-9.53e-4 0.341805,-0.265381 0.68246,-0.587617 z m -11.382207,-8.049249 c -0.03191,-0.127128 0.09792,-0.449588 0.18101,-0.449588 0.02447,0 0.07084,0.03175 0.103049,0.07055 0.04443,0.05353 0.03022,0.122739 -0.05889,0.28684 -0.134949,0.248513 -0.181181,0.267443 -0.225166,0.09219 z m -0.02698,-4.59158 c -0.131535,-0.120612 -0.319567,-0.282448 -0.417848,-0.359636 l -0.178692,-0.140342 0.208924,0.05401 c 0.399883,0.103382 0.692431,0.367697 0.644981,0.582735 -0.01375,0.0623 -0.07681,0.02879 -0.257365,-0.13677 z m 6.272091,-3.51292 c -1.43e-4,-0.03042 -0.03267,-0.09962 -0.07227,-0.153791 -0.06977,-0.09541 -0.07652,-0.09553 -0.216465,-0.0038 -0.131723,0.08631 -0.148619,0.0872 -0.191736,0.01016 -0.06092,-0.108856 -0.192763,-0.108733 -0.234573,2.21e-4 -0.0277,0.07217 -0.04636,0.06638 -0.126118,-0.03917 -0.07493,-0.09916 -0.10668,-0.110858 -0.159108,-0.0586 -0.08705,0.08677 -0.149066,0.08262 -0.149066,-0.01 0,-0.124237 -0.09192,-0.142826 -0.264635,-0.05351 l -0.163241,0.08441 0.0337,-0.153454 c 0.03012,-0.137154 0.01456,-0.162538 -0.146515,-0.238973 -0.09912,-0.04704 -0.277945,-0.08552 -0.397389,-0.08552 -0.13148,0 -0.204434,-0.02061 -0.18489,-0.05223 0.06033,-0.09761 0.398811,-0.0527 0.852934,0.113171 0.432623,0.158018 0.488983,0.165596 1.26242,0.169751 0.702391,0.0038 0.856193,-0.01097 1.161644,-0.111319 0.548735,-0.180282 0.931123,-0.385795 1.193948,-0.641681 0.237959,-0.231678 0.452102,-0.657556 0.399523,-0.794553 -0.02708,-0.07056 -0.947596,-0.615683 -1.039668,-0.615683 -0.03322,0 -0.0399,0.07896 -0.01776,0.209978 0.0338,0.200084 0.02787,0.212631 -0.125986,0.266264 -0.191549,0.06677 -0.201147,0.127669 -0.04613,0.292674 0.115209,0.122635 0.115225,0.122955 0.01522,0.308647 -0.1132,0.2102 -0.563025,0.634346 -0.746888,0.704251 -0.18858,0.0717 -0.731023,0.0546 -0.887898,-0.02798 -0.16338,-0.08601 -0.598558,-0.526507 -0.682331,-0.690674 -0.04452,-0.08725 -0.04008,-0.126221 0.02008,-0.176146 0.115985,-0.09626 0.09362,-0.172208 -0.07977,-0.270872 -0.133556,-0.076 -0.156362,-0.120043 -0.156362,-0.301976 0,-0.11715 0.04818,-0.356026 0.10707,-0.530835 0.05889,-0.174809 0.09513,-0.329775 0.08054,-0.344369 -0.09493,-0.09493 -0.864138,0.62398 -1.026495,0.959366 -0.129309,0.267116 -0.212362,0.257549 -0.167438,-0.01929 l 0.03141,-0.193583 -0.143847,0.09425 c -0.176448,0.115613 -0.230174,0.07757 -0.116104,-0.08221 0.04678,-0.06553 0.123765,-0.172665 0.17107,-0.238073 0.106341,-0.147033 0.06736,-0.195861 -0.09387,-0.117587 -0.106519,0.05171 -0.103774,0.04372 0.02164,-0.06302 0.168925,-0.143766 0.185905,-0.21712 0.0395,-0.170654 -0.181851,0.05772 -0.06527,-0.110814 0.271066,-0.391847 0.324756,-0.27136 0.303919,-0.357903 -0.03139,-0.130358 -0.105829,0.07182 -0.222137,0.130577 -0.258461,0.130577 -0.03632,0 -0.111668,0.03451 -0.167431,0.07668 -0.107396,0.08123 -0.28443,0.106699 -0.283851,0.04084 0.0011,-0.121318 0.573111,-0.777188 0.817551,-0.937351 0.361332,-0.236754 1.764891,-0.354984 2.31954,-0.195389 0.456241,0.131279 1.008559,0.348427 1.093273,0.429829 0.0689,0.0662 0.06575,0.06894 -0.02612,0.02265 -0.22438,-0.11306 -1.058917,-0.367222 -1.323087,-0.402953 -0.307686,-0.04162 -0.86079,0.0092 -0.819932,0.07526 0.01429,0.02312 0.285448,0.08199 0.602579,0.130823 0.737097,0.113508 1.224036,0.293427 2.31398,0.854991 0.747121,0.384933 0.857889,0.45697 0.736784,0.47916 -0.131177,0.02403 -0.135394,0.03203 -0.05293,0.10037 0.09833,0.08148 0.539582,0.1056 0.788533,0.0431 l 0.156692,-0.03934 -0.156692,0.0854 c -0.08618,0.04697 -0.167765,0.09533 -0.181296,0.107469 -0.06142,0.05508 0.154818,0.119712 0.416335,0.124447 l 0.28727,0.0052 -0.235039,0.100299 c -0.602339,0.257038 -0.836852,0.437042 -0.574293,0.440807 0.129928,0.0019 0.142125,0.09674 0.01557,0.121107 -0.05179,0.01 -0.116492,0.03935 -0.143783,0.06529 -0.02729,0.02594 -0.127182,0.04716 -0.221981,0.04716 -0.0948,0 -0.172362,0.02306 -0.172362,0.05124 0,0.04942 0.08894,0.07932 0.365616,0.122895 0.07182,0.01131 -0.0046,0.02377 -0.16975,0.02768 -0.329906,0.0078 -0.396548,0.07725 -0.130578,0.136044 0.201116,0.04446 0.164927,0.06076 -0.235039,0.10587 -0.2096,0.02364 -0.300328,0.0564 -0.300328,0.108458 0,0.04102 0.04562,0.07459 0.101379,0.07459 0.05576,0 0.115906,0.0235 0.13366,0.05223 0.01916,0.031 -0.04156,0.05223 -0.149338,0.05223 -0.09989,0 -0.218797,0.01427 -0.264238,0.0317 -0.0842,0.03231 -0.117209,0.17722 -0.04037,0.17722 0.02324,0 0.08787,0.03348 0.143635,0.0744 0.09054,0.06644 0.06722,0.07132 -0.217892,0.04563 -0.338997,-0.03055 -0.450125,0.02685 -0.330661,0.170792 0.09704,0.116926 0.0311,0.140222 -0.211778,0.07482 -0.186371,-0.05018 -0.233782,-0.04603 -0.315135,0.02759 -0.05267,0.04766 -0.08308,0.119709 -0.06758,0.160101 0.03654,0.09522 -0.04066,0.09373 -0.168878,-0.0032 -0.135317,-0.102349 -0.280757,-0.09931 -0.39972,0.0083 -0.09182,0.0831 -0.107357,0.08261 -0.261053,-0.0082 l -0.163419,-0.09653 -0.121474,0.151811 c -0.06681,0.0835 -0.121592,0.126925 -0.121735,0.09651 z m -2.108628,-3.608771 c 0.437019,-0.296051 0.409123,-0.272395 0.368787,-0.312731 -0.04234,-0.04234 -0.580582,0.28173 -0.727311,0.437916 -0.17743,0.188866 -0.02809,0.136723 0.358524,-0.125185 z m 0.09366,-0.358828 c 0.05536,-0.04188 0.09026,-0.08653 0.07757,-0.09923 -0.0127,-0.0127 -0.08149,0.02179 -0.15288,0.07664 -0.07139,0.05485 -0.106293,0.0995 -0.07757,0.09923 0.02873,-2.75e-4 0.09752,-0.03477 0.15288,-0.07664 z m 0.42166,0.02724 c 0.01776,-0.02873 0.0074,-0.05223 -0.02303,-0.05223 -0.03042,0 -0.05531,0.0235 -0.05531,0.05223 0,0.02873 0.01037,0.05223 0.02303,0.05223 0.01267,0 0.03756,-0.0235 0.05531,-0.05223 z m -0.525122,2.502536 c -0.0193,-0.03123 -0.0089,-0.08294 0.02303,-0.114908 0.04268,-0.04268 0.05813,-0.02759 0.05813,0.05678 0,0.126112 -0.02713,0.145544 -0.08116,0.05813 z m -5.324745,-0.947841 c -0.201089,-0.0564 -0.53472,-0.106097 -0.741402,-0.110443 -0.457011,-0.0096 -0.423805,-0.0892 0.042,-0.100675 0.333718,-0.0082 1.091135,0.189692 1.091135,0.285109 0,0.02349 -0.0059,0.03952 -0.01306,0.03563 -0.0072,-0.0039 -0.177585,-0.05322 -0.378675,-0.109619 z m 18.707758,18.132049 c 0.242677,-0.115819 0.472938,-0.289485 0.763751,-0.576032 0.470725,-0.46382 0.448885,-0.357167 0.244815,-1.195491 -0.05944,-0.244179 -0.134478,-0.616604 -0.166751,-0.827609 -0.03559,-0.232673 -0.08696,-0.394499 -0.130547,-0.411225 -0.03953,-0.01517 -0.194272,0.04984 -0.343875,0.14446 -0.149602,0.09462 -0.636316,0.392496 -1.081585,0.661943 -0.445269,0.269447 -0.911525,0.588616 -1.036126,0.709265 -0.216856,0.209978 -0.225361,0.229783 -0.198851,0.463034 0.03785,0.332982 0.304434,0.841471 0.53227,1.01525 0.360118,0.274675 0.86353,0.280503 1.416899,0.0164 z m 6.807067,-2.790026 c 0,-0.04309 -0.0235,-0.07835 -0.0522,-0.07835 -0.0287,0 -0.0522,0.03526 -0.0522,0.07835 0,0.04309 0.0235,0.07835 0.0522,0.07835 0.0287,0 0.0522,-0.03526 0.0522,-0.07835 z m 0.14326,-0.368557 c 0.15924,-0.446956 0.41996,-1.538704 0.37421,-1.566981 -0.0265,-0.01636 -0.057,0.0011 -0.0677,0.03885 -0.0108,0.03773 -0.11318,0.409406 -0.22756,0.825948 -0.11438,0.416542 -0.22666,0.801688 -0.24951,0.85588 -0.03,0.07108 -0.0222,0.09209 0.0278,0.07541 0.0382,-0.01272 0.1024,-0.115818 0.14276,-0.229109 z m -7.933471,-0.458975 c 0.363376,-0.23969 0.842279,-0.534825 1.064228,-0.655857 0.221948,-0.121032 0.416585,-0.24116 0.432524,-0.266952 0.01594,-0.02579 -0.02032,-0.523913 -0.08057,-1.106937 -0.06025,-0.583025 -0.12798,-1.477641 -0.1505,-1.988037 -0.03654,-0.828036 -0.06512,-1.045846 -0.127816,-0.974085 -0.02705,0.03096 -0.469667,1.301196 -1.181481,3.39066 -0.726767,2.133356 -0.695929,2.037007 -0.651962,2.037007 0.01919,0 0.332204,-0.196109 0.69558,-0.435799 z m 8.416981,-1.340053 c 0,-0.02873 -0.0235,-0.05223 -0.0522,-0.05223 -0.0287,0 -0.0522,0.0235 -0.0522,0.05223 0,0.02873 0.0235,0.05223 0.0522,0.05223 0.0287,0 0.0522,-0.0235 0.0522,-0.05223 z m 1.53309,-0.794991 c 0.0183,-0.151659 0.0559,-0.452024 0.0835,-0.667476 0.10253,-0.800148 0.0374,-3.589989 -0.0868,-3.714165 -0.0227,-0.0227 -0.0413,0.809571 -0.0413,1.8495 0,1.039929 -0.0213,2.111833 -0.0473,2.382008 -0.0318,0.329951 -0.0299,0.4805 0.006,0.458552 0.0291,-0.01797 0.0679,-0.15676 0.0862,-0.308419 z m 3.35866,-0.70665 c -0.0616,-0.931132 -0.36196,-3.06391 -0.59036,-4.191535 -0.48023,-2.370862 -0.68216,-3.178627 -1.16988,-4.679786 -0.29642,-0.912372 -1.07957,-3.512424 -1.23153,-4.088722 -0.0408,-0.154538 -0.0863,-0.300701 -0.10118,-0.324808 -0.0246,-0.03983 -0.0655,-0.182021 -0.31408,-1.091722 -0.0787,-0.288102 -0.39429,-1.30247 -0.73933,-2.376509 -0.73427,-2.285616 -1.81733,-4.964261 -2.87718,-7.115913 -0.39506,-0.802021 -0.39669,-0.764384 0.0267,-0.61592 0.46276,0.162286 0.7955,0.295208 1.23513,0.493402 0.19659,0.08863 0.41199,0.161136 0.47868,0.161136 0.0787,0 0.22325,-0.104476 0.41159,-0.297367 0.15968,-0.163552 0.30129,-0.286406 0.31469,-0.27301 0.0134,0.0134 0.30436,0.587911 0.64658,1.276698 0.54212,1.091123 0.90383,1.86693 1.30836,2.806211 0.11712,0.271937 0.19712,0.331464 0.14038,0.104462 -0.0562,-0.224928 -1.02417,-2.618611 -1.40648,-3.478128 -0.18964,-0.426346 -0.3448,-0.788424 -0.3448,-0.804617 0,-0.124317 0.61281,0.658291 0.97119,1.240291 0.17107,0.277826 0.90663,1.831644 1.20411,2.543604 0.0396,0.09482 0.0864,0.172406 0.10398,0.172406 0.0769,0 -0.074,-0.434709 -0.63778,-1.837112 -0.57517,-1.430704 -0.60137,-1.512375 -0.58642,-1.828084 l 0.0157,-0.330472 0.17423,0.274212 c 0.16158,0.254294 0.32064,0.377736 0.2502,0.194168 -0.0969,-0.252377 -0.24952,-0.817393 -0.22696,-0.839952 0.0483,-0.04835 0.93831,1.457307 1.261,2.133403 0.29484,0.617739 0.39573,0.770092 0.39573,0.597569 0,-0.104522 -0.36886,-0.934631 -0.9187,-2.067499 -0.27065,-0.55763 -0.48303,-1.022938 -0.47195,-1.034017 0.0111,-0.01108 0.10722,0.09848 0.21365,0.243467 0.20387,0.277718 0.3268,0.348521 0.25365,0.14609 -0.0333,-0.09228 -0.0671,-2.039161 -0.0348,-2.006136 0.25035,0.255838 1.11684,1.665145 1.44707,2.353571 0.74766,1.558661 1.88673,4.812916 2.25478,6.441755 0.13102,0.579842 0.16002,0.652252 0.20955,0.523191 0.0358,-0.09316 -0.43752,-1.987883 -0.75344,-3.016385 -0.54748,-1.782395 -1.42239,-3.883103 -2.17937,-5.232821 -0.38364,-0.684057 -1.03776,-1.585521 -1.64754,-2.270532 -0.27727,-0.311482 -0.55141,-0.62509 -0.60921,-0.696908 -0.20421,-0.253731 -0.169,-0.05851 0.0661,0.36652 0.35115,0.634837 0.39514,0.80174 0.38914,1.476447 -0.003,0.322175 -0.0213,0.643486 -0.041,0.714024 -0.0339,0.121446 -0.0438,0.114518 -0.18609,-0.130578 -0.16051,-0.276381 -0.95575,-1.31463 -1.09622,-1.431213 -0.19611,-0.162757 -0.0992,0.01665 0.38009,0.704007 0.27981,0.401243 0.53002,0.764789 0.55601,0.807879 0.0962,0.159453 -0.38724,-0.296576 -1.15545,-1.089993 -0.43477,-0.44904 -0.80314,-0.804538 -0.81861,-0.789995 -0.0155,0.01454 0.21654,0.35535 0.51557,0.757349 0.56029,0.753235 0.78055,1.118 0.71394,1.182303 -0.021,0.02031 -0.14402,0.01621 -0.27329,-0.0091 -0.12927,-0.02531 -0.31036,-0.04704 -0.40242,-0.04829 -0.15056,-0.002 -0.17083,0.0161 -0.20168,0.180534 -0.0189,0.100544 -0.0611,0.182808 -0.0939,0.182808 -0.0328,0 -0.23545,-0.22289 -0.45041,-0.495311 -0.33336,-0.422467 -0.52301,-0.612537 -0.52301,-0.524169 0,0.01202 0.17289,0.287457 0.3842,0.612075 0.21131,0.324617 0.42411,0.667876 0.47289,0.762798 l 0.0887,0.172585 -0.33926,0.349399 -0.33926,0.3494 -0.32949,-0.09086 c -0.18122,-0.04997 -0.59216,-0.155591 -0.91319,-0.234713 -0.52636,-0.129728 -0.5925,-0.159253 -0.67329,-0.300553 -0.0493,-0.08618 -0.244789,-0.40259 -0.434475,-0.70313 -0.345869,-0.547998 -0.473082,-0.609971 -0.264104,-0.12866 0.109717,0.252696 0.25847,1.344981 0.192193,1.411258 -0.01701,0.01701 -0.316272,-0.0096 -0.665029,-0.05924 -0.440269,-0.0626 -0.65076,-0.07351 -0.688594,-0.03568 -0.03783,0.03783 -0.02855,0.131764 0.03038,0.307279 0.132168,0.393648 0.150432,0.411513 0.340312,0.332863 0.180125,-0.07461 0.490352,-0.01622 0.839869,0.15809 0.254172,0.126757 1.017788,0.920793 1.202088,1.249982 0.10365,0.185133 0.10666,-0.02329 0.005,-0.357457 -0.12589,-0.414458 -0.13016,-0.443958 -0.0579,-0.3993 0.2255,0.139366 0.9279,1.479987 1.42294,2.715853 0.5192,1.296182 1.45928,3.995352 1.75545,5.040288 0.0285,0.100545 0.12556,0.4296 0.21569,0.731234 0.0901,0.301634 0.40982,1.406318 0.7104,2.454855 0.523,1.824403 0.87192,2.965637 1.25357,4.100131 0.66812,1.985987 1.49882,5.861542 1.79687,8.38307 0.0636,0.538375 0.083,0.626771 0.13726,0.626771 0.0196,0 0.0204,-0.229163 0.002,-0.509252 z m -29.727571,-2.142269 c 0.02873,-0.0211 0.08449,-0.07951 0.123915,-0.129778 0.06293,-0.08024 0.05937,-0.0914 -0.02919,-0.0914 -0.138748,0 -0.301608,0.127714 -0.256314,0.201 0.04271,0.06911 0.0874,0.07469 0.16159,0.02018 z m -0.182809,-0.316939 c 0,-0.06801 -0.06209,-0.113238 -0.112599,-0.08202 -0.05402,0.03338 -0.0074,0.125548 0.06345,0.125548 0.02703,0 0.04915,-0.01959 0.04915,-0.04353 z m -0.626771,-0.420157 c 0,-0.02521 -0.03163,-0.07208 -0.07028,-0.104162 -0.03865,-0.03208 -0.112734,-0.152476 -0.164625,-0.26755 -0.05189,-0.115073 -0.114281,-0.209224 -0.138645,-0.209224 -0.09339,0 -0.03779,0.202233 0.112722,0.410011 0.146525,0.202272 0.260827,0.277177 0.260828,0.170925 z m -1.556856,-4.929164 c 0.09665,-0.09336 0.23382,-0.208313 0.304812,-0.255445 0.157828,-0.104782 0.09983,-0.188485 -0.07531,-0.108687 -0.107987,0.0492 -0.137835,0.0409 -0.204164,-0.0568 -0.05737,-0.08451 -0.09343,-0.0993 -0.137903,-0.05658 -0.06126,0.05885 -0.145,0.64727 -0.09211,0.64727 0.01592,0 0.108019,-0.07639 0.204672,-0.169751 z m 0.805522,-0.802877 c 0.09817,-0.04658 0.191433,-0.105645 0.207256,-0.131248 0.01582,-0.0256 -0.05428,-0.143571 -0.155779,-0.262153 -0.241738,-0.282417 -0.385589,-0.698063 -0.292937,-0.846422 0.05754,-0.09213 0.04874,-0.120583 -0.06849,-0.221422 -0.111141,-0.0956 -0.137261,-0.168736 -0.150324,-0.420904 -0.01377,-0.265849 -0.03019,-0.307251 -0.127302,-0.321101 -0.07205,-0.01028 -0.152839,0.03592 -0.22836,0.130577 -0.111045,0.139181 -0.115312,0.178157 -0.08566,0.782363 0.03211,0.654354 0.137926,1.068196 0.326354,1.276406 0.109506,0.121003 0.337915,0.126523 0.575243,0.0139 z m 21.475936,-2.74023 c 0.210766,-0.07632 0.414867,-0.09989 0.86181,-0.0995 0.513814,4.47e-4 0.619906,0.01646 0.865038,0.130577 0.210538,0.09801 0.365011,0.12987 0.626771,0.129267 0.19106,-4.4e-4 0.38061,-0.02184 0.42124,-0.04756 0.17987,-0.113855 -0.56953,-0.725218 -1.058657,-0.863666 -0.62375,-0.176551 -1.399549,-0.145081 -1.901944,0.07715 -0.319687,0.141413 -0.731495,0.415339 -0.7682,0.510991 -0.03987,0.103896 0.0081,0.147967 0.261184,0.240001 0.223002,0.08109 0.269868,0.07587 0.692758,-0.07727 z m -13.702664,-3.866839 c 0.05866,-0.05374 -0.01129,-0.197294 -0.442358,-0.907839 -0.772242,-1.272902 -1.469596,-2.890027 -1.959551,-4.544094 -0.225212,-0.760309 -0.301039,-0.709706 -0.156532,0.104462 0.19793,1.115158 0.495393,2.280793 0.846395,3.316666 0.195013,0.57552 0.799738,1.891174 0.941006,2.047274 0.0682,0.07536 0.138028,0.08575 0.402233,0.05985 0.175841,-0.01723 0.341804,-0.05158 0.368807,-0.07632 z m 25.288363,-1.807735 c -0.0531,-0.05309 -0.0969,0.02684 -0.0533,0.09733 0.0329,0.05324 0.0452,0.05329 0.0629,2.11e-4 0.0121,-0.03629 0.008,-0.08018 -0.01,-0.09754 z m -13.516719,-0.445051 c 0.766604,-0.801042 0.87805,-0.994652 0.930636,-1.616742 0.03885,-0.459618 -0.02485,-0.563901 -0.344467,-0.563901 -0.303491,0 -0.437182,-0.136515 -0.442038,-0.451374 -0.0056,-0.362723 0.110371,-0.51948 0.453346,-0.61281 0.420302,-0.114372 1.754338,-0.307191 1.889913,-0.273164 0.155061,0.03892 0.239492,0.247455 0.253303,0.625636 l 0.01101,0.301362 -0.235039,0.131016 c -0.393887,0.219563 -0.431265,0.325225 -0.280352,0.792503 0.110154,0.341069 0.259904,0.474604 0.802661,0.715744 0.406856,0.180761 0.925656,0.44272 1.422706,0.718375 0.25335,0.140499 0.30796,0.07992 0.1143,-0.126795 -0.25706,-0.274388 -0.942906,-0.690281 -1.656143,-1.004268 -0.232133,-0.102191 -0.318404,-0.172066 -0.373127,-0.302214 -0.100502,-0.239025 -0.03651,-0.359051 0.288767,-0.541647 0.403545,-0.226529 0.403546,-0.226372 -0.01305,-2.035487 -0.146007,-0.634053 -0.615579,-2.036464 -0.970617,-2.898819 -1.317058,-3.199013 -3.473823,-5.951789 -5.811784,-7.417842 -1.275556,-0.799856 -2.683366,-1.260735 -4.152361,-1.35937 -1.959081,-0.131542 -3.43043,0.159243 -6.254658,1.236117 -0.352676,0.134475 -0.333322,0.242261 0.02612,0.145444 0.68148,-0.18356 1.459654,-0.290927 2.31122,-0.318886 2.380945,-0.07817 4.343478,0.626506 6.450524,2.316167 0.601,0.481947 1.618668,1.502847 2.101148,2.107819 1.544557,1.936692 2.756686,4.957701 3.251417,8.103559 0.0391,0.248653 0.1982,0.445685 0.394729,0.48885 0.08652,0.019 0.227256,0.09341 0.312749,0.165346 0.123208,0.103672 0.155442,0.172781 0.155442,0.333264 0,0.177315 -0.04897,0.258632 -0.394156,0.654535 -0.370861,0.425348 -0.764203,1.066256 -0.65439,1.066256 0.02739,0 0.212885,-0.170403 0.412202,-0.378674 z m 13.485159,0.143635 c 0,-0.04309 -0.0235,-0.07835 -0.0522,-0.07835 -0.0287,0 -0.0522,0.03526 -0.0522,0.07835 0,0.04309 0.0235,0.07835 0.0522,0.07835 0.0287,0 0.0522,-0.03526 0.0522,-0.07835 z m -38.029738,-1.880315 c 0.179278,-0.67678 0.612278,-1.804795 0.962372,-2.507086 0.261106,-0.52378 0.357644,-0.584234 0.249945,-0.156522 -0.0317,0.125892 -0.05764,0.278074 -0.05764,0.338181 0,0.09079 0.01663,0.100389 0.09823,0.05671 0.08435,-0.04514 0.102803,-0.02972 0.130577,0.109153 0.01779,0.08895 0.03235,0.241051 0.03235,0.338005 0,0.191201 0.124416,0.249491 0.181162,0.08487 0.04641,-0.134623 0.333515,-0.455948 0.372533,-0.41693 0.03213,0.03213 -0.05806,0.794768 -0.117986,0.997651 -0.0185,0.06263 -0.006,0.08998 0.03482,0.07637 0.035,-0.01167 0.155156,-0.267116 0.267005,-0.567662 0.330077,-0.886938 0.519613,-1.346225 0.818248,-1.9828 0.383765,-0.818037 0.432191,-0.940157 0.372813,-0.940157 -0.02797,0 -0.114737,0.105767 -0.19282,0.235039 -0.130296,0.215714 -0.159178,0.235063 -0.351273,0.235331 -0.115118,1.6e-4 -0.298845,0.02515 -0.408284,0.05554 -0.109439,0.03039 -0.219731,0.04789 -0.245094,0.03888 -0.04916,-0.01745 0.384074,-0.802302 0.955444,-1.730868 0.191352,-0.310978 0.319102,-0.55616 0.283888,-0.544849 -0.07325,0.02353 -0.470365,0.53481 -0.933343,1.201668 -0.174512,0.251361 -0.346475,0.457021 -0.382139,0.457021 -0.09345,0 -0.393818,-0.109431 -0.393818,-0.143476 0,-0.01584 0.223287,-0.366813 0.496194,-0.779945 0.895819,-1.35611 0.512753,-1.03791 -0.61201,0.508377 l -0.135014,0.185613 -0.352529,-0.02245 c -0.322393,-0.02053 -0.360967,-0.01184 -0.45122,0.101658 -0.246662,0.310183 -1.120575,2.194932 -1.061819,2.290002 0.04219,0.06826 0.916118,0.118084 0.99037,0.05646 0.03697,-0.03069 -0.03122,0.23236 -0.151534,0.584547 -0.120318,0.352187 -0.291592,0.934139 -0.380608,1.293227 -0.216847,0.874751 -0.225523,0.919369 -0.186373,0.958519 0.04734,0.04734 0.04461,0.05403 0.167553,-0.410094 z m -1.483306,-0.487764 c 0.103525,-0.268271 0.316352,-0.757349 0.472949,-1.086842 0.156597,-0.329492 0.284723,-0.610807 0.284723,-0.625143 0,-0.06248 0.724532,-1.599288 0.932874,-1.978728 0.526623,-0.959106 1.34521,-2.109585 2.1276,-2.990223 0.133991,-0.150817 0.220726,-0.274213 0.192744,-0.274213 -0.08291,0 -0.594042,0.464121 -1.891024,1.717091 l -1.223238,1.181728 -0.292993,0.604125 c -0.423978,0.874204 -0.525171,1.236386 -0.291189,1.042198 0.09811,-0.08143 0.0984,-0.06743 0.0041,0.199954 -0.08546,0.242224 -0.04021,0.316156 0.09609,0.156974 0.05027,-0.05871 0.103623,-0.09453 0.118558,-0.0796 0.01493,0.01494 -0.08988,0.340348 -0.232911,0.723141 -0.330653,0.884891 -0.519621,1.478596 -0.563777,1.771294 -0.05157,0.341878 0.04453,0.210944 0.265537,-0.36176 z m 19.046031,-1.670217 c -0.03064,-0.220735 -0.07093,-0.624624 -0.08953,-0.89753 l -0.03382,-0.496195 0.345185,0.337993 c 0.424624,0.415776 0.439284,0.361191 0.129266,-0.481315 -0.259259,-0.704567 -0.697251,-1.620148 -1.077067,-2.251512 -0.443442,-0.737128 -1.517617,-2.093646 -1.59737,-2.017234 -0.01582,0.01516 0.05233,0.243487 0.151462,0.507394 0.09913,0.263907 0.21479,0.644115 0.257028,0.844907 0.104614,0.497317 0.160867,1.337929 0.09237,1.380265 -0.03262,0.02016 -0.06743,-0.07871 -0.08929,-0.253635 -0.03421,-0.273818 -0.124908,-0.373926 -0.211636,-0.233596 -0.05875,0.09506 -0.137802,-0.0067 -0.340575,-0.438284 -0.229515,-0.488529 -0.264834,-0.399708 -0.07608,0.191325 0.194225,0.608161 0.18467,0.658412 -0.186303,0.979791 -0.175034,0.151634 -0.334648,0.25305 -0.357502,0.227149 -0.02271,-0.02573 -0.09481,-0.19369 -0.160233,-0.373234 -0.06542,-0.179544 -0.140287,-0.326444 -0.166371,-0.326444 -0.02608,0 -0.04085,0.12214 -0.0328,0.271422 l 0.01462,0.271422 -0.522309,0.221333 c -0.287271,0.121733 -0.563442,0.246584 -0.613714,0.277446 -0.10517,0.06456 -0.118592,0.288574 -0.03617,0.603653 0.124807,0.477092 0.123658,0.475965 0.605181,0.593633 0.800352,0.19558 1.323456,0.532431 1.324164,0.852693 1.07e-4,0.04858 0.02679,0.104759 0.0593,0.124848 0.04301,0.02658 0.04925,-0.05542 0.02293,-0.301261 -0.0412,-0.384698 -0.03441,-0.395077 0.353401,-0.540163 0.305573,-0.114321 0.285288,-0.13733 0.507815,0.576024 0.217232,0.69638 0.224703,0.71125 0.245711,0.489048 0.0099,-0.104475 -0.03031,-0.486924 -0.0893,-0.849888 -0.05899,-0.362963 -0.107108,-0.677051 -0.106918,-0.697972 5.52e-4,-0.06109 0.187494,0.234166 0.52984,0.83683 0.175423,0.308816 0.339431,0.561483 0.364462,0.561483 0.02503,0 0.04551,-0.317303 0.04551,-0.705118 0,-0.387815 0.02128,-0.705118 0.04729,-0.705118 0.05295,0 0.314499,0.695923 0.500557,1.33189 0.06724,0.229816 0.140316,0.463667 0.162401,0.519668 0.07277,0.184524 0.08608,-0.01701 0.02851,-0.431718 z m -12.829422,0.316839 c 0.03001,-0.149136 0.541525,-1.698328 0.771737,-2.337335 0.199217,-0.552971 0.817744,-1.956671 1.181961,-2.682367 0.178143,-0.354948 0.313011,-0.656245 0.299707,-0.66955 -0.06517,-0.06516 -1.221572,1.53339 -1.847739,2.554214 -0.236075,0.384867 -0.529874,0.799412 -0.652887,0.92121 -0.225491,0.223264 -0.966979,0.717512 -1.010758,0.673733 -0.06326,-0.06326 0.670168,-1.622525 1.119254,-2.379525 0.181555,-0.306037 0.187705,-0.324145 0.110102,-0.324145 -0.06652,0 -0.697641,0.965892 -1.164996,1.782943 -0.423464,0.740317 -0.985208,1.918537 -0.945411,1.982931 0.01597,0.02584 0.191311,0.04699 0.389642,0.04699 h 0.360603 l 0.145567,-0.300328 c 0.08726,-0.18003 0.197869,-0.32495 0.276143,-0.361797 0.479138,-0.225553 0.702942,-0.323734 0.713617,-0.313059 0.0068,0.0068 -0.01309,0.112259 -0.04411,0.234454 -0.06255,0.246434 -0.03378,0.31936 0.08658,0.219468 0.07051,-0.05852 0.07961,3.07e-4 0.07961,0.514867 0,0.344948 0.02081,0.580936 0.05124,0.580936 0.02818,0 0.06424,-0.06464 0.08014,-0.143636 z m 2.838924,-1.074816 c 0.0243,-0.0653 0.208485,-0.151801 0.58268,-0.273644 0.300931,-0.09799 0.585778,-0.178415 0.632995,-0.178727 0.05505,-3.64e-4 0.151922,0.135264 0.270053,0.378106 l 0.184205,0.378675 0.0048,-0.417848 0.0048,-0.417848 0.185669,0.417848 c 0.102118,0.229816 0.198362,0.447228 0.213874,0.483136 0.01551,0.03591 0.05186,0.06529 0.08078,0.06529 0.03272,0 0.03925,-0.08886 0.01729,-0.235309 -0.0992,-0.661533 -0.131495,-1.270032 -0.132339,-2.493759 -5.47e-4,-0.792662 -0.02085,-1.344947 -0.04945,-1.344947 -0.02669,0 -0.08708,0.135148 -0.134198,0.300328 -0.214287,0.751185 -0.524585,1.655278 -0.598193,1.742911 -0.07251,0.08632 -1.037178,0.386785 -1.085779,0.338184 -0.03127,-0.03127 0.135476,-0.905029 0.292856,-1.534604 0.08105,-0.324242 0.129142,-0.600797 0.106865,-0.614566 -0.05944,-0.03674 -0.07304,-0.0018 -0.255371,0.655673 -0.09161,0.330361 -0.197806,0.706424 -0.235982,0.835696 -0.03818,0.129271 -0.0837,0.299675 -0.101156,0.378674 -0.02049,0.09269 -0.06559,0.143635 -0.127159,0.143635 -0.05248,0 -0.369116,-0.141023 -0.703643,-0.313385 -0.334527,-0.172363 -0.629757,-0.313386 -0.656067,-0.313386 -0.07838,0 -0.579894,1.311988 -0.579894,1.517023 0,0.05417 0.40742,0.531594 0.500161,0.5861 0.03743,0.022 0.280768,-0.0074 0.540745,-0.06529 0.259977,-0.05791 0.555198,-0.105288 0.656047,-0.105288 0.181452,0 0.183362,0.0024 0.183362,0.226334 0,0.287802 0.06514,0.357405 0.122437,0.130826 0.02425,-0.09589 0.06008,-0.217321 0.07963,-0.269838 z m 5.386651,0.172945 c 0,-0.347195 -0.74499,-3.247208 -0.784708,-3.054624 -0.0059,0.02873 -0.0059,0.19913 -8e-6,0.378674 0.01179,0.357501 0.0037,0.364784 -0.307313,0.275596 -0.162675,-0.04666 -1.093214,-0.171562 -1.688291,-0.226621 -0.337291,-0.03121 -0.377143,0.0282 -0.333551,0.497234 0.03619,0.389373 0.43648,1.675326 0.529377,1.700645 0.02821,0.0077 0.05852,-0.08045 0.06735,-0.195866 0.01629,-0.212814 0.07862,-0.274258 0.133404,-0.1315 0.02378,0.06196 0.14237,0.07977 0.567071,0.08517 0.295354,0.0038 0.713286,0.02138 0.928739,0.03917 l 0.391732,0.03235 0.208924,0.352516 c 0.216918,0.366004 0.287271,0.426556 0.287271,0.247253 z m 7.547374,-1.513811 c 0.01775,-0.02873 0.0074,-0.05223 -0.02303,-0.05223 -0.03042,0 -0.05531,0.0235 -0.05531,0.05223 0,0.02873 0.01037,0.05223 0.02303,0.05223 0.01267,0 0.03756,-0.0235 0.05531,-0.05223 z m -1.337319,-0.468371 c -0.06473,-0.288069 -0.02789,-0.450276 0.120249,-0.52956 0.09822,-0.05257 0.128432,-0.04217 0.223327,0.07684 0.137154,0.172008 0.184163,0.173808 0.184163,0.0071 0,-0.07182 0.02231,-0.130577 0.04957,-0.130577 0.06437,0 0.262063,0.268213 0.45232,0.613661 0.08305,0.150787 0.168622,0.274183 0.190167,0.274212 0.05719,7.8e-5 0.05562,-0.0058 -0.142394,-0.53441 -0.31772,-0.848139 -0.303803,-1.01807 0.04819,-0.588502 0.234547,0.286233 0.320772,0.302591 0.206497,0.03917 -0.212306,-0.489391 -0.33428,-0.82447 -0.33428,-0.918314 0,-0.125074 0.203114,-0.818366 0.239757,-0.818366 0.115928,0 1.101388,1.451869 1.426939,2.102297 0.234995,0.469503 0.318081,0.554773 0.318081,0.326443 0,-0.170256 0.04331,-0.165516 0.477183,0.05223 0.200342,0.100545 0.377656,0.182809 0.39403,0.182809 0.04963,0 -0.02639,-0.299091 -0.138673,-0.545559 -0.05817,-0.127696 -0.105768,-0.252367 -0.105768,-0.277045 0,-0.02468 -0.06999,-0.155241 -0.155543,-0.290136 -0.13014,-0.20521 -0.181744,-0.245266 -0.31598,-0.245266 -0.08824,0 -0.231965,0.03699 -0.319389,0.0822 -0.08743,0.04521 -0.165822,0.07459 -0.174216,0.06529 -0.0084,-0.0093 -0.138596,-0.2637 -0.289337,-0.565334 -0.397936,-0.796277 -0.758527,-1.312436 -1.349563,-1.931794 -0.539091,-0.564924 -0.717849,-0.666865 -0.415278,-0.236821 l 0.172718,0.245485 -0.156693,0.12693 c -0.08618,0.06981 -0.28243,0.214236 -0.436109,0.320943 l -0.279416,0.194014 -0.112316,-0.135412 c -0.06177,-0.07448 -0.247569,-0.303284 -0.412879,-0.50846 -0.28786,-0.357281 -0.451048,-0.476243 -0.38635,-0.281644 0.01671,0.05027 0.08997,0.264885 0.162785,0.476916 0.185081,0.538922 0.181019,0.559929 -0.115701,0.598264 -0.136454,0.01763 -0.299188,0.04668 -0.361632,0.06456 -0.09132,0.02614 -0.145807,-0.01191 -0.278494,-0.194529 -0.09073,-0.124867 -0.184774,-0.262091 -0.208992,-0.304942 -0.02422,-0.04285 -0.06022,-0.06172 -0.08002,-0.04193 -0.01979,0.01979 0.08439,0.252306 0.231518,0.516698 l 0.267505,0.480712 -0.300725,0.390859 c -0.165399,0.214972 -0.324152,0.42303 -0.352785,0.462351 -0.05436,0.07465 0.05438,0.318568 0.349394,0.78376 l 0.144329,0.227583 h 0.551466 0.551467 l 0.214644,0.342336 c 0.235781,0.376047 0.327188,0.385323 0.246223,0.02499 z m -16.354832,-2.916848 c 0.03134,-0.09401 -0.07662,-0.07425 -0.113055,0.02069 -0.01952,0.05087 -0.0079,0.07475 0.03032,0.06202 0.03413,-0.01138 0.07136,-0.0486 0.08273,-0.08271 z m -10.272511,2.040272 -0.005,-11.138253 11.529985,0.0041 c 6.341492,0.0023 11.506481,0.01283 11.477754,0.02347 -0.02873,0.01064 -0.357782,0.06957 -0.731233,0.13097 -3.552492,0.584022 -7.042904,1.932737 -10.132807,3.915372 -0.766166,0.49161 -0.737787,0.471766 -1.697506,1.186967 -1.025299,0.764071 -1.78396,1.427397 -2.850862,2.492616 -1.042254,1.040609 -1.70561,1.797391 -2.474721,2.823256 -2.565757,3.422289 -4.140167,6.948029 -5.014572,11.229658 -0.09441,0.46228 -0.09608,0.285308 -0.101019,-10.668175 z m 52.596428,7.311456 c -1.11746,-3.372788 -2.83518,-6.424185 -5.15225,-9.152598 -1.00994,-1.189232 -2.8087,-2.900003 -4.04527,-3.847394 -3.62105,-2.774251 -7.732718,-4.569476 -12.143696,-5.302143 l -0.731233,-0.121459 11.172949,-0.01318 c 6.14513,-0.0072 11.18091,-0.0052 11.19063,0.0045 0.01,0.0097 0.0117,4.352742 0.005,9.651165 l -0.0132,9.633495 z"
       id="path5"
       clip-path="url(#clipPath6)"
       transform="matrix(0.37358527,0,0,0.37358527,2.241591,28.030062)" /></g></svg>
