<?xml version="1.0" encoding="UTF-8" standalone="no"?>
<svg
   width="143"
   height="30"
   viewBox="0 0 143 30"
   fill="none"
   version="1.1"
   id="svg3"
   xml:space="preserve"
   xmlns="http://www.w3.org/2000/svg"
   xmlns:svg="http://www.w3.org/2000/svg"><defs
     id="defs3" /><g
     id="g4"
     transform="translate(24.665498)"><g
       id="g5"><g
         id="g10"><path
           d="m -24.408042,15 c 0,-8.28427 6.691548,-15 14.94599,-15 H 103.13108 c 8.25417,0 14.94597,6.71573 14.94597,15 v 0 c 0,8.2843 -6.6918,15 -14.94597,15 H -9.462052 c -8.254442,0 -14.94599,-6.7157 -14.94599,-15 z"
           fill="#1B1B1B"
           id="path1"
           style="fill:#0171a9;fill-opacity:1;stroke-width:0.998198" /><text
           xml:space="preserve"
           style="font-weight:bold;font-size:15.9999px;font-family:Roboto;-inkscape-font-specification:'Roboto, Bold';text-align:start;writing-mode:lr-tb;direction:ltr;text-anchor:start;fill:#ffffff;fill-opacity:1;stroke-width:0.0699996"
           x="7.2347298"
           y="20.687464"
           id="text3"><tspan
             id="tspan3"
             x="7.2347298"
             y="20.687464"
             style="stroke-width:0.0699996">NousResearch</tspan></text><path
           style="fill:#ffffff;fill-opacity:1;stroke-width:0.0993574"
           d="m -6.721606,23.881768 c -0.03086,-0.05001 -0.333403,-0.08597 -0.938551,-0.111558 -0.08197,-0.0034 -0.202971,-0.04876 -0.26888,-0.100672 -0.06593,-0.05191 -0.166517,-0.06553 -0.223553,-0.03027 -0.05706,0.03525 -0.103715,0.0093 -0.103715,-0.05769 0,-0.06698 -0.02946,-0.09237 -0.06533,-0.05642 -0.03596,0.03596 -0.114205,0.02526 -0.173877,-0.02378 -0.05964,-0.04903 -0.242636,-0.111175 -0.406577,-0.138088 -0.32478,-0.05332 -0.634914,-0.202635 -1.094332,-0.526887 -0.163166,-0.115163 -0.363737,-0.190002 -0.445711,-0.166311 -0.131826,0.0381 -0.131916,0.03121 -7.38e-4,-0.05971 0.115217,-0.07991 0.121683,-0.129304 0.02909,-0.221941 -0.0914,-0.09139 -0.151938,-0.09196 -0.259816,-0.0025 -0.189616,0.157368 -0.463908,0.03837 -0.463908,-0.201263 0,-0.106672 -0.04244,-0.167702 -0.09438,-0.135623 -0.0519,0.03209 -0.143565,-0.0336 -0.203694,-0.145955 -0.06017,-0.112354 -0.151878,-0.177982 -0.203886,-0.14584 -0.05197,0.03214 -0.144517,-0.06721 -0.205577,-0.220772 -0.06194,-0.155771 -0.131399,-0.224304 -0.157127,-0.155015 -0.0254,0.06831 -0.08974,0.124197 -0.143055,0.124197 -0.0533,0 -0.0757,-0.03438 -0.04975,-0.07639 0.02598,-0.04201 -0.03691,-0.254393 -0.1398,-0.471948 -0.102859,-0.217558 -0.188724,-0.350847 -0.190812,-0.2962 -0.0045,0.121835 -0.89247,-0.844584 -0.908925,-0.98941 -0.0066,-0.05694 -0.0066,-0.136744 -1.99e-4,-0.177346 0.0066,-0.04061 -0.0733,-0.126815 -0.177036,-0.191584 -0.103716,-0.06478 -0.165898,-0.176861 -0.138177,-0.249091 0.02768,-0.07223 0.0059,-0.131328 -0.04799,-0.131328 -0.08444,0 -0.203045,-0.269595 -0.203739,-0.463117 -1.04e-4,-0.03363 -0.05559,-0.09534 -0.123226,-0.137153 -0.06762,-0.04182 -0.139136,-0.223384 -0.158854,-0.403498 -0.01972,-0.180113 -0.08472,-0.357681 -0.144451,-0.394596 -0.05973,-0.03691 -0.119963,-0.211534 -0.133842,-0.388043 -0.01388,-0.176507 -0.06504,-0.349772 -0.113629,-0.385032 -0.122215,-0.08866 -0.157554,-0.312501 -0.04931,-0.312501 0.177479,0 0.211637,-0.324169 0.04688,-0.444661 -0.09293,-0.06795 -0.133805,-0.173338 -0.0929,-0.239514 0.04016,-0.065 0.09306,-0.435925 0.117542,-0.824285 0.02451,-0.38836 0.0694,-0.746322 0.09973,-0.795469 0.03041,-0.04915 0.0015,-0.154467 -0.06482,-0.234043 -0.09415,-0.113435 -0.09349,-0.144685 0.0029,-0.144685 0.07315,0 0.102549,-0.07866 0.07242,-0.193952 -0.02791,-0.106672 -0.0037,-0.209624 0.05374,-0.228781 0.05744,-0.01916 0.100422,-0.177788 0.09545,-0.352515 -0.0051,-0.174727 0.03131,-0.317685 0.08057,-0.317685 0.04924,0 0.06563,-0.06255 0.03624,-0.138987 -0.0293,-0.07645 -0.0037,-0.169628 0.05684,-0.207078 0.06106,-0.03772 0.08111,-0.159697 0.04496,-0.273474 -0.05123,-0.16148 -0.03086,-0.192216 0.09532,-0.143793 0.126947,0.04871 0.161158,-0.0052 0.16366,-0.258203 0.0015,-0.175886 0.0688,-0.406583 0.149035,-0.51266 0.08022,-0.106076 0.145876,-0.264965 0.145876,-0.353083 0,-0.220175 0.493356,-1.1928096 0.605036,-1.1928096 0.04975,0 0.09048,-0.089422 0.09048,-0.1987147 0,-0.1103985 0.06621,-0.1987157 0.149036,-0.1987157 0.08197,0 0.149034,-0.058409 0.149034,-0.1297942 0,-0.1827003 1.285396,-1.3171349 1.45226,-1.2816973 0.07561,0.016052 0.13746,-0.034981 0.13746,-0.1134257 0,-0.078439 0.111784,-0.1706749 0.248394,-0.2049629 0.136619,-0.034288 0.248395,-0.1092157 0.248395,-0.1665038 0,-0.05895 0.08627,-0.076778 0.198718,-0.041094 0.131953,0.041882 0.198711,0.017856 0.198711,-0.071519 0,-0.074025 0.09658,-0.1418633 0.214621,-0.1507543 0.118037,-0.00892 0.24099,-0.051945 0.273229,-0.095662 0.122666,-0.1663471 0.504171,-0.3222522 0.650837,-0.2659703 0.08413,0.032285 0.152963,0.016736 0.152963,-0.034544 0,-0.1146313 0.83984,-0.3456823 1.227421,-0.3376808 0.155938,0.00323 0.344728,-0.055343 0.419525,-0.1301483 0.09493,-0.09493 0.235668,-0.1135215 0.466042,-0.061561 0.181518,0.040942 0.428664,0.037952 0.549212,-0.00664 0.120546,-0.044588 0.219174,-0.045945 0.219174,-0.00304 0,0.081999 0.686553,0.056966 0.771657,-0.028137 0.02709,-0.027121 0.131348,0.00816 0.231615,0.078382 0.100274,0.070237 0.348411,0.1146142 0.551419,0.098626 0.203015,-0.015986 0.423799,0.016318 0.490639,0.071794 0.06681,0.055466 0.237587,0.071737 0.379432,0.03613 0.161437,-0.040525 0.257896,-0.023542 0.257896,0.045404 0,0.060574 0.06703,0.1101298 0.149034,0.1101298 0.08198,0 0.149036,0.044711 0.149036,0.099356 0,0.054641 0.08679,0.099358 0.192849,0.099358 0.10607,0 0.222373,0.047758 0.25845,0.1061305 0.0361,0.058371 0.118834,0.085701 0.183902,0.060735 0.06505,-0.024966 0.201265,0.015255 0.302662,0.089403 0.101389,0.074139 0.222475,0.1112395 0.269065,0.082445 0.04658,-0.028801 0.08472,-0.00503 0.08472,0.052856 0,0.057868 0.04267,0.105222 0.09484,0.105222 0.05219,0 0.216532,0.1216854 0.365256,0.2704101 0.17046,0.1704622 0.28524,0.2259192 0.310533,0.1500404 0.05264,-0.1578948 0.719737,0.3436394 0.719737,0.541104 0,0.078705 0.03905,0.1189543 0.08685,0.089432 0.04777,-0.029523 0.170149,0.05727 0.271974,0.192851 0.101825,0.1355885 0.234029,0.2465243 0.293796,0.2465243 0.05979,0 0.168451,0.1117094 0.241522,0.2482434 0.07308,0.136536 0.151471,0.229629 0.174224,0.2068786 0.06585,-0.065852 0.422006,0.2724681 0.422006,0.4008678 0,0.063982 0.05736,0.1383462 0.127515,0.1652592 0.07013,0.026922 0.215447,0.2323838 0.322912,0.4566005 0.107466,0.224217 0.228927,0.408179 0.269914,0.408806 0.04097,5.96e-4 0.07551,0.101739 0.07673,0.224696 0.0015,0.122954 0.08964,0.335331 0.196503,0.471949 0.106867,0.136615 0.195294,0.326637 0.196512,0.422269 0.0015,0.09563 0.03669,0.173875 0.0789,0.173875 0.06667,0 0.332753,1.119738 0.348279,1.465526 0.0029,0.06831 0.03669,0.124196 0.07467,0.124196 0.03802,0 0.05145,0.16002 0.0299,0.355596 -0.02155,0.195577 -0.0022,0.33286 0.04259,0.305066 0.06585,-0.04071 0.0066,1.078149 -0.07772,1.475528 -0.01166,0.05464 -0.01241,0.121713 -0.0015,0.149037 0.05927,0.151622 0.04222,0.669419 -0.02075,0.630493 -0.04097,-0.02535 -0.08028,0.0348 -0.08732,0.133663 -0.05766,0.809122 -0.184042,1.239005 -0.639446,2.175294 -0.21039,0.432554 -0.417295,0.831172 -0.459789,0.885818 -0.04244,0.05464 -0.189704,0.239945 -0.327142,0.411774 -0.137438,0.171828 -0.249893,0.354294 -0.249893,0.40548 0,0.05118 -0.111038,0.152489 -0.246748,0.22512 -0.13571,0.07263 -0.272853,0.214318 -0.304767,0.314862 -0.03189,0.100544 -0.102364,0.182807 -0.15655,0.182807 -0.05419,0 -0.06659,0.05162 -0.02761,0.11471 0.04127,0.06679 0.02754,0.08789 -0.03292,0.05053 -0.05714,-0.03529 -0.183998,0.05839 -0.281969,0.208204 -0.24274,0.371185 -0.404177,0.523227 -0.477602,0.449803 -0.03381,-0.03382 -0.06149,-0.0067 -0.06149,0.06028 0,0.06698 -0.04149,0.09614 -0.09219,0.06479 -0.05072,-0.03135 -0.121861,0.03646 -0.15811,0.150661 -0.03624,0.114203 -0.08985,0.183704 -0.119113,0.15444 -0.07778,-0.07778 -0.62415,0.223976 -0.62415,0.344718 0,0.05646 -0.04768,0.0732 -0.105974,0.03717 -0.05825,-0.03602 -0.162139,0.01133 -0.230795,0.105226 -0.06865,0.09389 -0.254766,0.18498 -0.413575,0.202412 -0.15881,0.01744 -0.304678,0.0795 -0.324153,0.137926 -0.01948,0.05843 -0.07271,0.08319 -0.118273,0.05501 -0.04555,-0.02817 -0.142738,0.0086 -0.21592,0.08185 -0.113702,0.113704 -0.63509,0.258279 -1.046044,0.290055 -0.06593,0.0051 -0.103257,0.03608 -0.08301,0.06886 0.02023,0.03277 -0.0711,0.110521 -0.203022,0.172776 -0.131909,0.06225 -0.262584,0.07639 -0.290379,0.03142 -0.02783,-0.04498 -0.296092,-0.06165 -0.596215,-0.03704 -0.400021,0.03279 -0.546516,0.01072 -0.548834,-0.08272 -0.0022,-0.09253 -0.03632,-0.08662 -0.124194,0.02158 -0.117275,0.144405 -0.942211,0.217775 -1.020605,0.09077 z m -3.889571,-3.146022 c -0.06039,-0.165596 -0.05397,-0.165596 0.135142,0 0.230454,0.201818 0.380015,0.230039 0.263284,0.04968 -0.04422,-0.06831 -0.08038,-0.235974 -0.08038,-0.37259 0,-0.203249 -0.05419,-0.253717 -0.29807,-0.277676 -0.286886,-0.02818 -0.29807,-0.01421 -0.29807,0.372589 0,0.313703 0.03743,0.401874 0.170755,0.401874 0.120546,0 0.152112,-0.05114 0.107346,-0.173876 z m -0.02967,-0.372591 c 0,-0.08197 0.04473,-0.149036 0.09935,-0.149036 0.05462,0 0.09936,0.06707 0.09936,0.149036 0,0.08197 -0.04473,0.149037 -0.09936,0.149037 -0.05462,0 -0.09935,-0.06707 -0.09935,-0.149037 z m 1.788437,0.460887 c 0,-0.04707 -0.111783,-0.06421 -0.248394,-0.03809 -0.144997,0.02773 -0.248394,0.0013 -0.248394,-0.06346 0,-0.06102 0.06703,-0.110941 0.149034,-0.110941 0.08197,0 0.149037,-0.04471 0.149037,-0.09936 0,-0.05464 -0.06703,-0.09936 -0.149037,-0.09936 -0.08197,0 -0.149034,-0.04471 -0.149034,-0.09936 0,-0.137068 0.232876,-0.124811 0.377556,0.01988 0.09274,0.09274 0.119232,0.08169 0.119232,-0.04968 0,-0.124837 -0.08552,-0.168908 -0.327754,-0.168908 -0.316904,0 -0.327593,0.01315 -0.322913,0.397115 0.0045,0.38073 0.01816,0.39713 0.327755,0.397431 0.177597,1.69e-4 0.322912,-0.0382 0.322912,-0.08526 z m 0.993572,0.04652 c 0,-0.02147 -0.06703,-0.06479 -0.149036,-0.09624 -0.08197,-0.03146 -0.149035,-0.01389 -0.149035,0.03905 0,0.05293 0.06703,0.09624 0.149035,0.09624 0.08197,0 0.149036,-0.01756 0.149036,-0.03905 z m 0.298077,-0.148079 c 0,-0.103566 -0.08874,-0.210331 -0.198718,-0.239091 -0.109296,-0.02858 -0.198712,-0.106077 -0.198712,-0.172213 0,-0.07133 0.08084,-0.09911 0.198712,-0.06827 0.109296,0.02858 0.198718,0.0084 0.198718,-0.04469 0,-0.05316 -0.122577,-0.08251 -0.272387,-0.06522 -0.371185,0.04284 -0.424582,0.350099 -0.07605,0.437577 0.16648,0.04178 0.241927,0.114997 0.208442,0.202266 -0.02887,0.07522 -0.0091,0.136778 0.04378,0.136778 0.05293,0 0.09624,-0.08421 0.09624,-0.187128 z m 1.391009,0.101547 c 0,-0.04706 -0.111785,-0.06421 -0.248396,-0.03809 -0.144997,0.02773 -0.248394,0.0013 -0.248394,-0.06346 0,-0.06102 0.06703,-0.110941 0.149036,-0.110941 0.20675,0 0.187496,-0.174944 -0.02481,-0.225732 -0.161504,-0.03863 -0.160788,-0.04725 0.01004,-0.12112 0.121136,-0.05239 0.213867,-0.03221 0.271707,0.05914 0.07029,0.111 0.0881,0.103976 0.08933,-0.0352 0.0015,-0.130242 -0.0795,-0.173876 -0.321384,-0.173876 -0.310495,0 -0.322919,0.01528 -0.322919,0.39743 0,0.382144 0.01241,0.397431 0.322919,0.397431 0.177597,0 0.322912,-0.03852 0.322912,-0.08558 z m 0.844535,-0.01377 c -0.03374,-0.05464 0.03329,-0.09936 0.149035,-0.09936 0.115748,0 0.182809,0.0447 0.149036,0.09936 -0.03374,0.05464 0.02503,0.09936 0.130711,0.09936 0.189159,0 0.189093,-0.0061 -0.0045,-0.397429 -0.108145,-0.218587 -0.26166,-0.39743 -0.341147,-0.39743 -0.07948,0 -0.11653,0.04527 -0.08233,0.100621 0.03418,0.05534 -0.0045,0.234187 -0.08588,0.397431 -0.130661,0.261908 -0.13075,0.296807 -7.38e-4,0.296807 0.08101,0 0.119653,-0.04471 0.08588,-0.09936 z m 0.04969,-0.292209 c 0,-0.05142 0.04473,-0.121127 0.09935,-0.154901 0.05462,-0.03378 0.09936,0.0084 0.09936,0.0935 0,0.0852 -0.04473,0.154899 -0.09936,0.154899 -0.05463,0 -0.09935,-0.04207 -0.09935,-0.09349 z m 1.42693,0.24253 c -0.03145,-0.08197 -0.01247,-0.149037 0.04215,-0.149037 0.05463,0 0.125094,0.06708 0.156551,0.149037 0.03145,0.08197 0.105944,0.149036 0.165527,0.149036 0.06326,0 0.07494,-0.05163 0.02798,-0.124197 -0.04422,-0.06831 -0.08038,-0.235974 -0.08038,-0.37259 0,-0.192306 -0.05721,-0.255061 -0.2534,-0.27792 -0.235395,-0.02743 -0.253038,-9.49e-4 -0.248395,0.372277 0.0029,0.246764 0.05175,0.401923 0.126083,0.402116 0.06689,1.79e-4 0.09547,-0.06644 0.06386,-0.148722 z m -0.03596,-0.397431 c 0,-0.09107 0.04806,-0.149574 0.106815,-0.129992 0.05876,0.01958 0.106808,0.07808 0.106808,0.129992 0,0.05192 -0.04806,0.110413 -0.106808,0.129994 -0.05876,0.01958 -0.106815,-0.03892 -0.106815,-0.129994 z m 1.788438,0.460888 c 0,-0.04706 -0.111777,-0.06421 -0.248395,-0.0381 -0.21437,0.04097 -0.248395,0.01145 -0.248395,-0.215612 0,-0.296744 0.270224,-0.460831 0.405942,-0.246496 0.07028,0.110999 0.0881,0.103973 0.08933,-0.0352 7.4e-4,-0.120025 -0.07607,-0.173875 -0.249,-0.173875 -0.320357,0 -0.541947,0.409272 -0.348064,0.642882 0.133216,0.16051 0.598586,0.212132 0.598586,0.06639 z m 0.930148,-0.06346 c -0.03713,-0.09675 0.0022,-0.149038 0.113105,-0.149038 0.110559,0 0.150239,0.05229 0.113114,0.149038 -0.03159,0.08228 -0.0029,0.148894 0.06386,0.14872 0.07414,-1.88e-4 0.122952,-0.154261 0.125921,-0.39743 0.0029,-0.256898 -0.03964,-0.397115 -0.121086,-0.397115 -0.0711,0 -0.10102,0.06487 -0.06873,0.149036 0.03596,0.09362 -7.38e-4,0.149037 -0.09936,0.149037 -0.09833,0 -0.135281,-0.05542 -0.09936,-0.149037 0.03352,-0.08735 0.0015,-0.149036 -0.07763,-0.149036 -0.09107,0 -0.134832,0.129013 -0.134832,0.39743 0,0.246247 0.04607,0.397431 0.121079,0.397431 0.06681,0 0.09545,-0.0668 0.06386,-0.149036 z M -6.15966,19.459769 c 0.0998,-0.09031 0.252588,-0.350459 0.339522,-0.578096 0.136759,-0.358103 0.153982,-0.935605 0.127766,-4.28505 -0.02909,-3.721194 -0.03861,-3.88912 -0.244504,-4.334618 -0.243639,-0.5271178 -0.4626,-0.6791612 -0.978081,-0.6791612 -0.514493,0 -0.736149,0.1530221 -0.962329,0.6643492 -0.188487,0.426101 -0.197826,0.651289 -0.185881,4.482415 0.01241,3.97534 0.0158,4.039606 0.234331,4.436227 0.349659,0.634583 1.139152,0.773607 1.669176,0.293934 z m -0.895135,-0.818182 c -0.174533,-0.326122 -0.149027,-7.971839 0.02739,-8.213119 0.131407,-0.179704 0.139837,-0.178691 0.251666,0.03026 0.1623,0.303267 0.109944,8.105488 -0.05552,8.270805 -0.08705,0.08698 -0.141379,0.0656 -0.22356,-0.08795 z m 3.555025,0.867479 c 0.445252,-0.414813 0.455477,-0.523128 0.488808,-5.176974 0.03079,-4.296607 0.03809,-4.4433303 0.224934,-4.502629 0.371229,-0.1178218 0.188656,-0.2466192 -0.349585,-0.2466192 h -0.542708 l -0.02857,4.6152472 c -0.02879,4.650231 -0.06097,5.054673 -0.372323,4.679545 -0.09911,-0.119427 -0.123122,-1.14641 -0.11044,-4.723698 l 0.01624,-4.5710942 h -0.6504 c -0.629378,0 -0.853513,0.1208595 -0.457331,0.2466031 0.186707,0.059254 0.194127,0.2059951 0.224999,4.4529501 0.03359,4.623716 0.04318,4.723639 0.50009,5.211371 0.268859,0.287012 0.757106,0.294082 1.056343,0.01529 z m 2.910107,-0.276852 c 0.364844,-0.404588 0.516116,-1.215719 0.455949,-2.444823 -0.05788,-1.182505 -0.220378,-1.658004 -1.066597,-3.121072 l -0.597734,-1.03344 v -1.216314 c 0,-0.961812 0.02967,-1.227697 0.141771,-1.270717 0.269929,-0.103583 0.348928,0.200691 0.376745,1.451112 l 0.02798,1.256058 0.474148,-0.295308 0.474139,-0.295307 -0.06068,-0.818151 c -0.03337,-0.449984 -0.10466,-0.962763 -0.158426,-1.139511 -0.261328,-0.8591915 -1.424516,-0.9833868 -1.996199,-0.213139 -0.169683,0.228616 -0.191779,0.416401 -0.181193,1.540043 0.01166,1.235324 0.02369,1.304261 0.347325,1.988832 0.184405,0.390033 0.500459,0.967366 0.702344,1.282961 0.445888,0.697042 0.586101,1.44947 0.530069,2.844545 -0.04244,1.057806 -0.127184,1.259066 -0.43494,1.033472 -0.177981,-0.130468 -0.192649,-0.264927 -0.184285,-1.68945 0.0051,-0.851237 -0.0066,-1.547702 -0.02666,-1.547702 -0.01963,0 -0.258485,0.116463 -0.53071,0.258807 l -0.494959,0.258807 v 0.878915 c 0,1.168636 0.149006,1.818741 0.511473,2.231572 0.473247,0.538993 1.234103,0.565912 1.690481,0.05981 z m -9.653776,0.22283 c 0,-0.03496 -0.06777,-0.113206 -0.150652,-0.173877 -0.129798,-0.09504 -0.146992,-0.515998 -0.124196,-3.041355 l 0.02643,-2.931051 0.378702,2.483941 c 0.208285,1.366169 0.425252,2.763386 0.482149,3.104926 l 0.103442,0.620986 h 0.436911 0.436911 l 5.97e-4,-4.64497 c 4.94e-4,-3.926256 0.02355,-4.689003 0.149036,-4.9295592 0.08164,-0.1565268 0.148422,-0.2978651 0.148422,-0.3140883 0,-0.016223 -0.268343,-0.044645 -0.596326,-0.063165 -0.413974,-0.023371 -0.596274,0.00247 -0.59614,0.084666 9.5e-5,0.065083 0.04488,0.1459661 0.09953,0.1797395 0.06245,0.038607 0.09644,1.027363 0.09151,2.663682 -0.0045,1.431251 -0.02459,2.557561 -0.04503,2.502915 -0.02045,-0.05464 -0.198822,-1.283446 -0.396374,-2.730665 -0.210522,-1.542257 -0.407772,-2.6622109 -0.476591,-2.7059737 -0.0646,-0.041066 -0.3745,-0.075344 -0.688716,-0.076189 -0.595565,-0.00161 -0.739086,0.1329781 -0.422271,0.3959097 0.12849,0.1066355 0.149035,0.747906 0.149035,4.650731 0,4.511274 -7.38e-4,4.527844 -0.21603,4.757001 l -0.216039,0.229959 h 0.712827 c 0.392049,0 0.712821,-0.02861 0.712821,-0.06356 z"
           id="path10" /></g></g></g></svg>
