<?xml version="1.0" encoding="UTF-8" standalone="no"?>
<svg
   width="143"
   height="30"
   viewBox="0 0 143 30"
   fill="none"
   version="1.1"
   id="svg3"
   xml:space="preserve"
   xmlns="http://www.w3.org/2000/svg"
   xmlns:svg="http://www.w3.org/2000/svg"><defs
     id="defs3" /><g
     id="g4"
     transform="translate(24.665498)"><g
       id="g5"><g
         id="g9"><path
           d="m 4.4910822,15 c 0,-8.28427 4.5246482,-15 10.1060838,-15 h 76.132499 c 5.581253,0 10.106075,6.71573 10.106075,15 v 0 c 0,8.2843 -4.524822,15 -10.106075,15 H 14.597166 C 9.0157304,30 4.4910822,23.2843 4.4910822,15 Z"
           fill="#1B1B1B"
           id="path1"
           style="fill:#ff8f20;fill-opacity:1;stroke-width:0.820816" /><text
           xml:space="preserve"
           style="font-weight:bold;font-size:15.9999px;font-family:Roboto;-inkscape-font-specification:'Roboto, Bold';text-align:start;writing-mode:lr-tb;direction:ltr;text-anchor:start;fill:#ffffff;fill-opacity:1;stroke-width:0.0699996"
           x="36.133854"
           y="20.687464"
           id="text3"><tspan
             id="tspan3"
             x="36.133854"
             y="20.687464"
             style="stroke-width:0.0699996">Numina</tspan></text><path
           style="fill:#ffffff;fill-opacity:1;stroke-width:0.76658"
           d="m 19.738545,23.588328 c -2.921524,-0.66861 -5.101837,-2.836471 -5.953637,-5.919636 -0.135299,-0.489725 -0.176497,-1.007974 -0.17167,-2.159544 0.0057,-1.345213 0.03529,-1.602061 0.264381,-2.289613 0.811724,-2.436208 2.651258,-4.2887813 5.10432,-5.1404991 0.77848,-0.2702928 1.44345,-0.3544343 1.442618,-0.182541 -0.0019,0.380656 -0.848846,1.3318702 -1.881741,2.1132531 -0.507535,0.383949 -1.127449,0.90568 -1.377588,1.159404 -0.601585,0.610205 -1.088754,1.610438 -1.158385,2.378344 -0.06333,0.698355 0.04601,0.762849 0.356532,0.210332 0.380406,-0.676841 1.165824,-1.311481 2.223482,-1.796636 2.122333,-0.97353 2.510589,-1.263302 3.052691,-2.2783463 0.293481,-0.5495194 0.346858,-0.7594873 0.383047,-1.5067862 0.03518,-0.7264062 0.0069,-0.9476673 -0.172812,-1.3540243 -0.118174,-0.2671516 -0.193955,-0.5066368 -0.168402,-0.5321893 0.02555,-0.025552 0.264746,0.059075 0.531539,0.1880619 0.689825,0.3335078 1.400282,1.0866278 1.778734,1.8855463 0.292303,0.6170554 0.322547,0.7708776 0.322547,1.6405169 0,0.829766 -0.03664,1.037777 -0.27072,1.537215 -0.352937,0.753014 -1.052322,1.491045 -1.776095,1.874236 -0.318729,0.168746 -1.079519,0.449266 -1.690643,0.623378 -1.454687,0.414445 -2.096572,0.743267 -2.775528,1.421836 -0.774053,0.773612 -1.124335,1.531333 -1.189301,2.572671 -0.06018,0.964607 0.108986,1.667371 0.579682,2.408169 l 0.309934,0.487784 3.507347,-0.03323 c 3.412319,-0.03233 3.521032,-0.03953 4.01241,-0.265921 0.839834,-0.386931 1.370956,-1.006026 1.700631,-1.98232 0.189197,-0.560287 0.222625,-1.719417 0.06179,-2.142457 l -0.106312,-0.279621 -0.381603,0.601336 c -0.494923,0.779905 -1.088031,1.304971 -1.91862,1.69851 l -0.669043,0.316998 -2.766997,0.0326 -2.766996,0.0326 0.05773,-0.355728 c 0.144979,-0.893402 0.906787,-1.826433 1.821576,-2.230997 0.289808,-0.128167 1.003392,-0.329445 1.585745,-0.447285 1.37743,-0.278724 2.132649,-0.653428 2.865466,-1.421711 1.310484,-1.373906 1.800234,-3.46055 1.229764,-5.2395784 -0.07098,-0.2213623 -0.06102,-0.2282522 0.161176,-0.1114525 0.782619,0.4113913 2.003265,1.8237139 2.568073,2.9713299 1.086044,2.206703 1.152134,4.544477 0.192905,6.823504 -0.938896,2.230719 -2.664762,3.815146 -4.948438,4.542899 -0.913045,0.290965 -3.007035,0.369877 -3.969581,0.149591 z"
           id="path9" /></g></g></g></svg>
