<?xml version="1.0" encoding="UTF-8" standalone="no"?>
<svg
   width="143"
   height="30"
   viewBox="0 0 143 30"
   fill="none"
   version="1.1"
   id="svg3"
   xml:space="preserve"
   xmlns="http://www.w3.org/2000/svg"
   xmlns:svg="http://www.w3.org/2000/svg"><defs
     id="defs3"><linearGradient
       id="swatch7"><stop
         style="stop-color:#ffffff;stop-opacity:1;"
         offset="0"
         id="stop7" /></linearGradient></defs><g
     id="g5"><g
       id="g7"
       transform="translate(3.4359901)"><g
         id="g10"><g
           id="g24"
           transform="translate(-9.2399236)"><g
             id="g35"
             transform="translate(13.527153)"><path
               d="m 14.123691,15 c 0,-8.3527728 4.663731,-15.12403533 10.416731,-15.12403533 h 78.472708 c 5.75283,0 10.41674,6.77126253 10.41674,15.12403533 v 0 c 0,8.352803 -4.66391,15.124035 -10.41674,15.124035 H 24.540422 c -5.753,0 -10.416731,-6.771232 -10.416731,-15.124035 z"
               fill="#1b1b1b"
               id="path1"
               style="fill:#78ba03;fill-opacity:1;stroke-width:0.836774" /><text
               xml:space="preserve"
               style="font-style:normal;font-variant:normal;font-weight:bold;font-stretch:normal;font-size:18.6667px;font-family:Roboto;-inkscape-font-specification:'Roboto, Bold';font-variant-ligatures:normal;font-variant-caps:normal;font-variant-numeric:normal;font-variant-east-asian:normal;text-align:start;writing-mode:lr-tb;direction:ltr;text-anchor:start;fill:#ffffff;fill-opacity:1"
               x="51.124355"
               y="21.104025"
               id="text3"><tspan
                 id="tspan3"
                 x="51.124355"
                 y="21.104025"
                 style="font-style:normal;font-variant:normal;font-weight:bold;font-stretch:normal;font-size:18.6667px;font-family:Roboto;-inkscape-font-specification:'Roboto, Bold';font-variant-ligatures:normal;font-variant-caps:normal;font-variant-numeric:normal;font-variant-east-asian:normal;fill:#ffffff;fill-opacity:1">Nvidia</tspan></text><path
               style="fill:#ffffff;fill-opacity:1;stroke:#ffffff;stroke-width:0.0496301;stroke-dasharray:none;stroke-opacity:1"
               d="m 28.084176,14.418074 c -0.786809,-1.312638 -1.241778,-1.696907 -2.230584,-1.883962 l -0.287262,-0.05434 -0.01239,-0.590646 c -0.0093,-0.44283 0.0018,-0.59963 0.04419,-0.626548 0.08219,-0.05215 0.95866,-0.04525 1.329744,0.01047 0.962859,0.144585 1.789274,0.484676 2.537269,1.044154 0.33927,0.253763 0.992117,0.853646 0.97565,0.896497 -0.01021,0.02657 -1.670264,1.422301 -1.98144,1.665948 -0.05676,0.04444 -0.114334,-0.02639 -0.375186,-0.46157 z"
               id="path29"
               transform="translate(5.8039335)" /><g
               id="g34"><path
                 style="fill:#ffffff;fill-opacity:1;stroke:#ffffff;stroke-width:0.0496301;stroke-dasharray:none;stroke-opacity:1"
                 d="M 24.950327,18.114346 C 23.303512,17.645101 21.967678,16.468943 21.091368,14.71666 20.927266,14.388518 20.754099,14.002895 20.706553,13.859719 l -0.08645,-0.260319 0.219209,-0.194864 c 0.77563,-0.689492 1.746048,-1.288429 2.646285,-1.633276 0.47163,-0.180663 1.267551,-0.397532 1.649836,-0.44954 l 0.276214,-0.03758 v 0.589307 0.589307 h -0.322171 c -0.768643,0 -1.634084,0.417342 -2.325328,1.121343 l -0.238916,0.243326 0.101051,0.278889 c 0.212098,0.585364 0.579386,1.228697 0.992396,1.738258 0.396636,0.489359 1.083003,1.022275 1.555427,1.207681 l 0.215444,0.08455 0.01241,0.535596 c 0.0143,0.617199 0.04793,0.584291 -0.451635,0.441944 z"
                 id="path30"
                 transform="translate(5.8039335)" /><path
                 style="fill:#ffffff;fill-opacity:1;stroke:#ffffff;stroke-width:0.0496301;stroke-dasharray:none;stroke-opacity:1"
                 d="m 25.765203,20.95308 c -0.239865,-0.02678 -0.243035,-0.02903 -0.240612,-0.17077 0.0013,-0.079 0.0063,-0.342505 0.01105,-0.585573 l 0.0086,-0.441941 h 1.04394 c 1.110741,0 1.588571,-0.04763 2.4474,-0.243943 0.989724,-0.226236 1.788252,-0.51677 2.765369,-1.006144 1.378539,-0.69042 2.536007,-1.47261 4.101779,-2.771888 l 0.64047,-0.531463 0.610366,0.347083 c 0.335701,0.190896 0.868901,0.492504 1.18489,0.670241 0.315988,0.177737 0.669263,0.391684 0.785054,0.475438 l 0.21053,0.15228 -0.100045,0.07814 c -2.270186,1.773062 -6.896797,3.439495 -10.907307,3.92864 -0.759272,0.09261 -2.14335,0.146588 -2.561475,0.0999 z"
                 id="path31"
                 transform="translate(5.8039335)" /><g
                 id="g33"><path
                   style="fill:#ffffff;fill-opacity:1;stroke:#ffffff;stroke-width:0.0496301;stroke-dasharray:none;stroke-opacity:1"
                   d="m 24.682446,20.816148 c -0.944671,-0.167806 -1.641571,-0.393945 -2.541165,-0.82459 -1.12602,-0.539038 -1.987905,-1.160633 -2.961309,-2.13571 -1.219438,-1.221533 -2.16832,-2.626295 -2.875768,-4.257398 -0.20518,-0.473066 -0.252866,-0.375806 0.489582,-0.998533 2.174225,-1.823627 4.741855,-3.2181221 6.916388,-3.7563324 0.583355,-0.1443838 1.294132,-0.2699149 1.528303,-0.2699149 h 0.220088 l -0.01241,0.5395755 -0.01241,0.5395754 -0.440486,0.055253 c -1.852875,0.2324195 -3.583885,1.0020994 -5.039592,2.2408144 -0.420742,0.358025 -1.299856,1.300647 -1.33183,1.428044 -0.03163,0.126031 0.109692,0.513232 0.44866,1.229242 0.510359,1.078047 1.179495,2.058256 1.94114,2.843555 1.1061,1.140454 2.55365,1.946138 3.953022,2.200192 l 0.446989,0.08115 v 0.586387 0.586386 l -0.143631,-0.0046 c -0.079,-0.0025 -0.342505,-0.03992 -0.585573,-0.0831 z"
                   id="path32"
                   transform="translate(5.8039335)" /><path
                   style="fill:#ffffff;fill-opacity:1;stroke:#ffffff;stroke-width:0.0350938;stroke-dasharray:none;stroke-opacity:1"
                   d="m 31.803933,18.311174 c -0.111719,-0.01603 -0.26289,-0.03722 -0.335938,-0.04708 l -0.132812,-0.01792 v -0.529335 c 0,-0.291134 0.01055,-0.528974 0.02344,-0.528533 0.01289,4.41e-4 0.142969,0.0282 0.289063,0.0617 0.349282,0.08007 1.34943,0.08862 1.677748,0.01433 1.55187,-0.35112 3.211433,-1.517483 4.781925,-3.360798 0.329155,-0.386336 0.509077,-0.620035 0.509077,-0.661237 0,-0.06364 -0.473352,-0.591518 -0.90625,-1.010646 C 36.426653,10.988952 35.124527,10.228498 33.616433,9.8408669 33.251931,9.7471775 33.175652,9.7388466 32.475808,9.716293 32.063308,9.7029995 31.637917,9.700056 31.530495,9.709752 L 31.335183,9.727381 V 9.3371554 c 0,-0.2146241 0.0088,-0.4943004 0.01951,-0.621503 l 0.01951,-0.2312774 0.785182,0.020287 c 1.048059,0.027079 1.850537,0.1483731 2.753931,0.4162562 2.127742,0.6309385 4.372391,2.1060518 5.95881,3.9159448 l 0.281574,0.321239 -0.151443,0.17809 c -0.08329,0.09795 -0.397536,0.42969 -0.698317,0.737201 -1.413109,1.444727 -2.88787,2.562023 -4.378683,3.31734 -0.943203,0.477872 -1.662289,0.726619 -2.480692,0.858123 -0.435625,0.07 -1.346121,0.104583 -1.640625,0.06232 z"
                   id="path33" /></g></g></g></g></g></g></g></svg>
