<?xml version="1.0" encoding="UTF-8" standalone="no"?>
<svg
   width="143"
   height="30"
   viewBox="0 0 143 30"
   fill="none"
   version="1.1"
   id="svg3"
   xml:space="preserve"
   xmlns="http://www.w3.org/2000/svg"
   xmlns:svg="http://www.w3.org/2000/svg"><defs
     id="defs3" /><g
     id="g4"
     transform="translate(9.8486075)"><path
       d="m 13.375815,15 c 0,-8.28427 4.534346,-15 10.127743,-15 h 76.295673 c 5.593219,0 10.127739,6.71573 10.127739,15 v 0 c 0,8.2843 -4.53452,15 -10.127739,15 H 23.503558 C 17.910161,30 13.375815,23.2843 13.375815,15 Z"
       fill="#1B1B1B"
       id="path1"
       style="fill:#000000;fill-opacity:1;stroke-width:0.821695" /><text
       xml:space="preserve"
       style="font-style:normal;font-variant:normal;font-weight:bold;font-stretch:normal;font-size:16px;font-family:Roboto;-inkscape-font-specification:'Roboto, Bold';font-variant-ligatures:normal;font-variant-caps:normal;font-variant-numeric:normal;font-variant-east-asian:normal;text-align:start;writing-mode:lr-tb;direction:ltr;text-anchor:start;fill:#ffffff;fill-opacity:1;stroke:#ffffff;stroke-width:0.07"
       x="47.118004"
       y="20.921875"
       id="text3"><tspan
         id="tspan3"
         x="47.118004"
         y="20.921875">Ollama</tspan></text><path
       style="fill:#ffffff;fill-opacity:1;stroke-width:0.840548"
       d="m 24.964859,22.478776 c -0.08965,-0.222968 -0.116817,-1.183031 -0.04441,-1.569478 0.03963,-0.211545 0.1457,-0.566934 0.235701,-0.789753 l 0.163633,-0.405125 -0.192797,-0.379401 c -0.502854,-0.98955 -0.517863,-2.322581 -0.03796,-3.370835 L 25.252855,15.606333 25.05103,15.2337 c -0.390469,-0.720922 -0.491869,-1.574908 -0.282799,-2.381733 0.155656,-0.600694 0.380943,-0.994163 0.85997,-1.501957 l 0.429957,-0.455776 -0.06441,-0.393313 c -0.145792,-0.8902752 -0.0016,-2.0864856 0.337015,-2.7960035 0.730708,-1.5310607 2.050239,-1.0056933 2.443663,0.9729371 0.0617,0.3102792 0.116317,0.5721562 0.121382,0.5819462 0.005,0.0098 0.201179,-0.07203 0.435808,-0.181829 0.913514,-0.4274846 1.737078,-0.3806065 2.95584,0.168248 0.03744,0.01686 0.115289,-0.221399 0.177855,-0.5443399 0.307633,-1.5878589 1.219017,-2.3177635 2.018048,-1.6162047 0.61625,0.5410747 0.976824,2.1433896 0.768544,3.4152458 l -0.06441,0.393313 0.428658,0.454399 c 0.478369,0.507096 0.547349,0.622295 0.77198,1.289214 0.291495,0.865433 0.19488,1.90352 -0.248541,2.670465 l -0.158068,0.273396 0.169466,0.370164 c 0.485698,1.060904 0.473014,2.388716 -0.03232,3.383147 l -0.192798,0.379401 0.163638,0.405125 c 0.230093,0.569651 0.313269,1.088707 0.273549,1.707062 -0.04958,0.77176 -0.05219,0.775411 -0.538199,0.752046 -0.368303,-0.0177 -0.405125,-0.03254 -0.379333,-0.152779 0.01571,-0.07325 0.0307,-0.481393 0.03329,-0.906998 0.0047,-0.768767 0.0031,-0.776954 -0.244967,-1.251731 -0.137332,-0.262846 -0.249695,-0.523474 -0.249695,-0.579172 0,-0.0557 0.09444,-0.238531 0.209864,-0.406295 0.597517,-0.868463 0.616875,-2.170807 0.04899,-3.296025 -0.105748,-0.209532 -0.192269,-0.426507 -0.192269,-0.482167 0,-0.05566 0.104597,-0.238231 0.232438,-0.405712 0.686359,-0.899179 0.534535,-2.395603 -0.330854,-3.260992 -0.421412,-0.421412 -0.806293,-0.58251 -1.498639,-0.627278 L 32.8887,11.172974 32.726766,10.87886 C 32.351314,10.196943 31.585589,9.7061106 30.782705,9.6327108 29.870371,9.5493008 28.883739,10.106981 28.454266,10.948817 l -0.131341,0.25745 -0.514682,5.3e-5 c -0.427823,4.3e-5 -0.582105,0.03206 -0.914193,0.189717 -1.372816,0.651736 -1.842881,2.601885 -0.907412,3.76456 0.114547,0.142368 0.208267,0.300529 0.208267,0.351471 0,0.05094 -0.08652,0.264055 -0.192269,0.473587 -0.567885,1.125218 -0.548527,2.427563 0.04899,3.296025 0.115425,0.167765 0.209863,0.350597 0.209863,0.406295 0,0.0557 -0.112363,0.316327 -0.249695,0.579173 -0.24806,0.474776 -0.249663,0.482964 -0.244966,1.25173 0.0026,0.425606 0.01758,0.833755 0.03329,0.906998 0.02579,0.120244 -0.01103,0.135074 -0.379332,0.15278 -0.341288,0.01641 -0.415742,9.7e-5 -0.45594,-0.09988 z m 2.62483,-12.115869 c 0.203354,-0.02332 0.391747,-0.07533 0.418653,-0.115563 0.08086,-0.120916 0.05724,-0.8609152 -0.04445,-1.3923822 -0.119226,-0.6231387 -0.387736,-1.1777143 -0.570216,-1.1777143 -0.30993,0 -0.597038,1.0021469 -0.598515,2.0891121 l -0.001,0.7241144 0.212887,-0.04257 c 0.117088,-0.02342 0.379267,-0.06166 0.58262,-0.08499 z m 6.860808,-0.6048714 c -0.0015,-1.0785907 -0.289753,-2.0807881 -0.598514,-2.0807881 -0.18248,0 -0.450991,0.5545756 -0.570217,1.1777143 -0.10167,0.531383 -0.125336,1.2721772 -0.04445,1.3912282 0.04067,0.05986 0.636051,0.177895 1.097636,0.217611 0.104426,0.009 0.116422,-0.06429 0.11554,-0.7057654 z M 29.67049,17.09913 c -0.446579,-0.125237 -0.562244,-0.188146 -0.889465,-0.48377 -0.737038,-0.66587 -0.759943,-1.596426 -0.05819,-2.364251 0.973007,-1.064624 2.826995,-1.064624 3.800001,0 0.718697,0.786368 0.67889,1.71369 -0.10311,2.402033 -0.16836,0.148198 -0.446774,0.320075 -0.618696,0.381951 -0.438458,0.157802 -1.664749,0.194661 -2.130536,0.06404 z m 2.053197,-0.611373 c 0.86919,-0.386345 1.023931,-1.29152 0.334908,-1.95908 -0.38875,-0.37664 -0.796114,-0.525833 -1.435763,-0.525833 -0.63965,0 -1.047015,0.149193 -1.435764,0.525833 -0.787501,0.762971 -0.46482,1.788139 0.651223,2.06896 0.429922,0.108178 1.540417,0.04346 1.885396,-0.10988 z M 30.43723,15.892482 c -0.0261,-0.0261 -0.04745,-0.155099 -0.04745,-0.286674 0,-0.167114 -0.04014,-0.264296 -0.13317,-0.322393 -0.160614,-0.100305 -0.175269,-0.336403 -0.02447,-0.394269 0.05979,-0.02294 0.163826,-0.0073 0.231204,0.0348 0.0918,0.05733 0.164199,0.05751 0.288842,7.19e-4 0.127895,-0.05828 0.189872,-0.05625 0.268185,0.0087 0.136907,0.113622 0.128723,0.171038 -0.04797,0.3365 -0.102836,0.0963 -0.149817,0.217175 -0.149817,0.385459 0,0.212904 -0.02223,0.247755 -0.168955,0.264865 -0.09293,0.01084 -0.190306,-0.0017 -0.216402,-0.02775 z m -3.143659,-1.234089 c -0.307999,-0.168463 -0.378958,-0.44218 -0.202896,-0.782648 0.112145,-0.216864 0.430259,-0.37091 0.633044,-0.306548 0.215458,0.06839 0.402167,0.305373 0.402167,0.51047 0,0.233878 -0.35956,0.656375 -0.556226,0.653589 -0.07861,-0.0011 -0.202845,-0.0348 -0.276089,-0.07486 z m 6.032859,-0.158477 c -0.2403,-0.273687 -0.267348,-0.539984 -0.07573,-0.745656 0.18277,-0.196181 0.378093,-0.243474 0.609568,-0.147594 0.298605,0.123687 0.467076,0.521165 0.350101,0.825999 -0.04916,0.128086 -0.36503,0.302616 -0.547701,0.302616 -0.07127,0 -0.222574,-0.105914 -0.336233,-0.235365 z"
       id="path4" /></g></svg>
