<?xml version="1.0" encoding="UTF-8" standalone="no"?>
<svg
   width="106.18362"
   height="30"
   viewBox="0 0 106.18362 30"
   fill="none"
   version="1.1"
   id="svg5"
   xml:space="preserve"
   xmlns:xlink="http://www.w3.org/1999/xlink"
   xmlns="http://www.w3.org/2000/svg"
   xmlns:svg="http://www.w3.org/2000/svg"><defs
     id="defs5"><linearGradient
       id="linearGradient1"><stop
         style="stop-color:#2c64f5;stop-opacity:1;"
         offset="0"
         id="stop1" /><stop
         style="stop-color:#4bd0ea;stop-opacity:1;"
         offset="1"
         id="stop2" /></linearGradient><linearGradient
       xlink:href="#linearGradient1"
       id="linearGradient2"
       x1="-9.9999994e-08"
       y1="15"
       x2="106.18362"
       y2="15"
       gradientUnits="userSpaceOnUse" /></defs><g
     id="g3"><path
       d="M -9.9999999e-8,15 C -9.9999999e-8,6.71573 4.2446454,0 9.4806814,0 H 96.702932 c 5.235868,0 9.480688,6.71573 9.480688,15 v 0 c 0,8.2843 -4.24482,15 -9.480688,15 H 9.4806814 C 4.2446454,30 -9.9999999e-8,23.2843 -9.9999999e-8,15 Z"
       fill="#BFC2FF"
       id="path1"
       style="fill:url(#linearGradient2);fill-opacity:1;stroke-width:0.795013" /><text
       xml:space="preserve"
       style="font-style:normal;font-variant:normal;font-weight:900;font-stretch:normal;font-size:14.6667px;font-family:Roboto;-inkscape-font-specification:'Roboto, Heavy';font-variant-ligatures:normal;font-variant-caps:normal;font-variant-numeric:normal;font-variant-east-asian:normal;fill:#fefeff;fill-opacity:1;stroke-width:1.00157;stroke-linejoin:round"
       x="31.677971"
       y="20.503416"
       id="text5"><tspan
         id="tspan5"
         x="31.677971"
         y="20.503416"
         style="font-style:normal;font-variant:normal;font-weight:900;font-stretch:normal;font-size:14.6667px;font-family:Roboto;-inkscape-font-specification:'Roboto, Heavy';font-variant-ligatures:normal;font-variant-caps:normal;font-variant-numeric:normal;font-variant-east-asian:normal;fill:#fefeff;fill-opacity:1">OpenBMB</tspan></text><path
       style="fill:#ffffff;fill-opacity:1;stroke-width:0.345848"
       d="m 8.791453,21.916964 v -1.383395 h 3.112633 3.112633 v 1.383395 1.383392 H 11.904086 8.791453 Z m 6.916963,0 v -1.383395 h 3.112633 3.112634 v 1.383395 1.383392 h -3.112634 -3.112633 z m -3.458482,-3.458483 v -1.383393 h 3.112634 3.112633 v 1.383393 1.383394 h -3.112633 -3.112634 z m 6.916963,0 v -1.383393 h 3.112633 3.112634 v 1.383393 1.383394 H 22.27953 19.166897 Z M 8.791453,15 v -1.383393 h 3.112633 3.112633 V 15 16.383392 H 11.904086 8.791453 Z m 6.916963,0 v -1.383393 h 3.112633 3.112634 V 15 16.383392 h -3.112634 -3.112633 z m -3.458482,-3.458481 v -1.383393 h 3.112634 3.112633 v 1.383393 1.383392 h -3.112633 -3.112634 z m 6.916963,0 v -1.383393 h 3.112633 3.112634 v 1.383393 1.383392 H 22.27953 19.166897 Z M 8.791453,8.0830362 v -1.383392 h 3.112633 3.112633 v 1.383392 1.383393 H 11.904086 8.791453 Z m 6.916963,0 v -1.383392 h 3.112633 3.112634 v 1.383392 1.383393 h -3.112634 -3.112633 z"
       id="path3" /></g></svg>
