<?xml version="1.0" encoding="UTF-8" standalone="no"?>
<svg
   width="168"
   height="30"
   viewBox="0 0 168 30"
   fill="none"
   version="1.1"
   id="svg5"
   xml:space="preserve"
   xmlns="http://www.w3.org/2000/svg"
   xmlns:svg="http://www.w3.org/2000/svg"><defs
     id="defs5" /><g
     id="g2"><g
       id="g3"><path
         d="m 16.600298,15 c 0,-8.28427 5.38855,-15 12.035663,-15 H 139.36404 c 6.6469,0 12.03566,6.71573 12.03566,15 v 0 c 0,8.2843 -5.38875,15 -12.03566,15 H 28.635961 C 21.988848,30 16.600298,23.2843 16.600298,15 Z"
         fill="#BFC2FF"
         id="path1"
         style="fill:#000000;fill-opacity:1;stroke-width:0.895756" /><text
         xml:space="preserve"
         style="font-style:normal;font-variant:normal;font-weight:900;font-stretch:normal;font-size:13.3333px;font-family:Roboto;-inkscape-font-specification:'Roboto, Heavy';font-variant-ligatures:normal;font-variant-caps:normal;font-variant-numeric:normal;font-variant-east-asian:normal;fill:#fefeff;fill-opacity:1;stroke-width:1.00157;stroke-linejoin:round"
         x="47.943703"
         y="19.490313"
         id="text5"><tspan
           id="tspan5"
           x="47.943703"
           y="19.490313"
           style="font-style:normal;font-variant:normal;font-weight:900;font-stretch:normal;font-size:13.3333px;font-family:Roboto;-inkscape-font-specification:'Roboto, Heavy';font-variant-ligatures:normal;font-variant-caps:normal;font-variant-numeric:normal;font-variant-east-asian:normal;fill:#fefeff;fill-opacity:1">Open Thoughts</tspan></text><path
         style="fill:#ffffff;fill-opacity:1;stroke-width:0.0417165"
         d="M 34.20442,22.22898 C 34.12412,22.18637 33.936393,22.091781 33.787257,22.018709 33.334959,21.797081 32.283433,21.266955 31.1174,20.67269 30.509381,20.362818 29.871118,20.040502 29.699039,19.956434 29.526958,19.872304 29.353608,19.786151 29.313816,19.764872 29.274006,19.743512 29.02998,19.621613 28.7715,19.493817 28.51302,19.36602 28.273378,19.245223 28.238961,19.22538 c -0.03441,-0.01979 -0.212753,-0.114061 -0.396305,-0.209414 -0.183553,-0.09535 -0.465141,-0.242075 -0.62575,-0.326082 L 26.92489,18.537139 26.91266,18.140833 c -0.01346,-0.436293 0.0083,-0.584041 0.08602,-0.584005 0.02826,1.2e-5 0.47373,0.212564 0.989968,0.472346 0.516242,0.259782 1.079416,0.542811 1.251495,0.628966 0.172084,0.08618 0.35042,0.177658 0.39631,0.203379 0.07725,0.04333 1.553532,0.790547 3.812894,1.929964 0.818824,0.41295 0.947873,0.466166 1.042909,0.430053 0.05965,-0.02269 0.530838,-0.253819 1.04708,-0.513662 1.562964,-0.786708 3.227991,-1.630616 3.316459,-1.680924 0.04589,-0.02607 0.374408,-0.190428 0.730042,-0.365189 1.674985,-0.823075 2.013733,-1.012429 2.231831,-1.247564 0.25274,-0.27248 0.396328,-0.635001 0.396315,-1.000552 -10e-6,-0.323343 -0.176167,-0.709195 -0.402993,-0.882713 -0.225698,-0.172649 -0.400035,-0.259408 -0.473062,-0.235401 -0.08883,0.02921 -0.28114,0.125117 -1.689516,0.842617 -0.688326,0.350669 -1.382905,0.703063 -1.54351,0.783099 -0.16061,0.08002 -0.404653,0.203428 -0.542316,0.274182 -0.137663,0.07073 -0.353546,0.181134 -0.47974,0.245262 -0.126193,0.06409 -0.257599,0.133337 -0.292015,0.153771 -0.03441,0.02052 -0.432817,0.222124 -0.885332,0.448194 -0.452519,0.226083 -0.938458,0.470669 -1.079868,0.543535 -0.141404,0.0729 -0.300513,0.143367 -0.353564,0.15668 -0.07177,0.01798 -0.54286,-0.201713 -1.84029,-0.858356 -0.959108,-0.485417 -1.969101,-0.99331 -2.24443,-1.128662 -0.27533,-0.135341 -0.547528,-0.271659 -0.604888,-0.302908 -0.05736,-0.03126 -0.479739,-0.247 -0.938622,-0.47942 -0.458878,-0.232419 -1.07837,-0.549412 -1.376643,-0.704427 l -0.54231,-0.281834 v -0.477753 c 0,-0.446674 0.0054,-0.478394 0.08343,-0.487555 0.04589,-0.0048 0.355632,0.129487 0.688321,0.299734 1.099015,0.562376 2.46805,1.254082 3.462469,1.749409 0.539186,0.268569 1.017884,0.510005 1.063771,0.536534 0.04589,0.02655 0.139752,0.07773 0.208586,0.113941 0.06882,0.03609 0.153308,0.08328 0.187724,0.105009 0.03441,0.02161 0.278455,0.144019 0.542312,0.27196 0.263856,0.127954 0.526671,0.262691 0.58403,0.299444 0.05736,0.03681 0.151222,0.08039 0.208582,0.09692 0.05737,0.01654 0.13245,0.05395 0.166867,0.08316 0.136715,0.115751 0.32254,0.115268 0.57319,-0.0012 0.410553,-0.191406 0.726552,-0.350524 1.11633,-0.562147 0.206496,-0.11213 0.42238,-0.22362 0.47974,-0.24782 0.05736,-0.02414 0.135856,-0.06204 0.17444,-0.08425 0.08201,-0.04707 0.462571,-0.238852 1.077055,-0.542738 0.240912,-0.119131 0.653904,-0.327072 0.91776,-0.462063 0.26386,-0.13499 0.58299,-0.294362 0.709184,-0.354157 0.126188,-0.05975 0.398391,-0.201278 0.604888,-0.314422 0.206495,-0.113096 0.441151,-0.23423 0.521454,-0.269076 0.08031,-0.03488 0.174169,-0.08183 0.208586,-0.104285 0.03441,-0.02257 0.09073,-0.05263 0.125148,-0.06699 0.09631,-0.03995 0.634793,-0.306191 0.742032,-0.366806 0.31165,-0.176174 0.467744,-0.454519 0.467744,-0.834096 0,-0.489896 -0.235001,-0.904885 -0.664573,-1.173587 -0.292414,-0.182908 -0.409497,-0.179215 -0.774647,0.02438 -0.160605,0.08956 -0.338946,0.183886 -0.396305,0.209632 -0.05736,0.02571 -0.151222,0.07145 -0.208582,0.101629 -0.202852,0.106698 -1.232932,0.618212 -1.397483,0.693927 -0.09178,0.04224 -0.317066,0.161399 -0.500619,0.264815 -0.183548,0.103439 -0.366885,0.199878 -0.407409,0.214338 -0.04052,0.01448 -0.350269,0.167061 -0.688321,0.339118 -0.338056,0.17207 -0.783596,0.396088 -0.990092,0.497838 -0.206496,0.10175 -0.403608,0.201206 -0.438025,0.221025 -0.247365,0.14245 -0.907624,0.460964 -0.954653,0.460542 -0.03176,-3.02e-4 -0.257026,-0.100543 -0.500597,-0.222739 -0.243565,-0.122221 -0.583645,-0.2926 -0.755724,-0.378647 -0.172079,-0.08606 -0.425506,-0.214315 -0.563174,-0.285069 -0.137663,-0.07073 -0.728995,-0.370584 -1.314066,-0.66631 -0.585076,-0.295739 -1.09193,-0.554048 -1.126346,-0.574036 -0.03441,-0.01991 -0.137663,-0.07157 -0.22944,-0.114665 -0.189381,-0.08896 -0.667217,-0.329003 -0.792616,-0.398188 -0.04589,-0.02535 -0.139749,-0.07194 -0.208583,-0.10356 -0.06883,-0.03162 -0.153308,-0.07375 -0.187724,-0.09354 -0.03441,-0.01979 -0.404193,-0.207929 -0.821733,-0.418055 -0.417535,-0.210126 -0.781988,-0.409558 -0.809887,-0.443173 -0.04021,-0.0484 -0.03848,-0.07327 0.0083,-0.119614 0.03246,-0.03211 0.659704,-0.362376 1.393917,-0.733854 1.971168,-0.9972934 2.3081,-1.1641844 2.350275,-1.1641844 0.02099,0 0.06005,-0.02631 0.08675,-0.05854 0.0267,-0.03211 0.09938,-0.07121 0.161543,-0.08666 0.06216,-0.01545 0.141171,-0.05214 0.175587,-0.08147 0.07294,-0.06204 0.23494,-0.146156 1.168062,-0.6062991 0.378574,-0.1866742 0.71648,-0.35604 0.750898,-0.3763538 0.03441,-0.020278 0.118889,-0.063609 0.187724,-0.096198 0.06882,-0.032589 0.312873,-0.1556664 0.542311,-0.2734331 0.229444,-0.1178029 0.447923,-0.2142902 0.485515,-0.2144834 0.0376,-1.931e-4 0.272247,0.1050088 0.521454,0.2337229 0.249212,0.1287383 0.584518,0.2988404 0.745123,0.3780073 0.160611,0.079179 0.320176,0.1603496 0.354592,0.1804219 0.08711,0.050815 1.2001,0.6184533 3.066163,1.5638227 2.441813,1.237039 2.645629,1.34585 2.864847,1.529386 0.273033,0.228593 0.552245,0.628025 0.684354,0.979007 0.09359,0.248642 0.107761,0.350633 0.10717,0.771151 -4.43e-4,0.419322 -0.0147,0.519093 -0.104695,0.740565 -0.0572,0.140772 -0.14291,0.310584 -0.190466,0.377367 -0.125422,0.176149 -0.107603,0.275859 0.08227,0.460119 0.218032,0.211599 0.350044,0.408509 0.478531,0.71377 0.09096,0.216125 0.103633,0.307531 0.103633,0.747699 0,0.432322 -0.0152,0.546129 -0.110054,0.825163 -0.06053,0.17802 -0.135621,0.353312 -0.166866,0.389534 -0.03126,0.03621 -0.05681,0.08485 -0.05681,0.108026 0,0.02317 -0.136099,0.18583 -0.302444,0.361387 -0.201637,0.212818 -0.392821,0.366976 -0.573601,0.462485 -0.278948,0.147399 -1.14007,0.577959 -1.251495,0.625744 -0.03441,0.01473 -0.306616,0.158008 -0.604888,0.318333 -0.298273,0.160338 -0.608019,0.321073 -0.688322,0.357199 -0.193176,0.0869 -0.796182,0.390427 -2.064969,1.039333 -1.61361,0.825284 -2.742954,1.38177 -2.857577,1.408107 -0.06292,0.01448 -0.162222,-0.0072 -0.250301,-0.05347 z m 0.453732,-8.491453 c 0.120884,-0.249582 0.563033,-0.697233 0.902054,-0.913286 0.137666,-0.08775 0.297231,-0.190959 0.354592,-0.229414 0.130971,-0.08775 0.930996,-0.440686 1.126346,-0.496848 0.0803,-0.02305 0.305571,-0.09934 0.500597,-0.169547 0.195022,-0.07013 0.49441,-0.148062 0.665303,-0.173119 0.298096,-0.04369 0.616783,-0.166928 0.677667,-0.262027 0.05419,-0.08461 -0.04915,-0.139396 -0.435438,-0.23067 C 37.023325,10.925707 36.035664,10.517127 35.386931,9.9958006 35.102683,9.7673516 34.752834,9.3583246 34.640842,9.1234786 34.564762,8.9639261 34.41085,8.850396 34.334563,8.8975413 c -0.02457,0.015208 -0.110126,0.1441154 -0.190133,0.2865173 -0.373062,0.664005 -1.305121,1.3431464 -2.221873,1.6189934 -0.07341,0.02209 -0.186041,0.06759 -0.250301,0.101147 -0.06426,0.03355 -0.14499,0.06095 -0.179408,0.06107 -0.03441,3.6e-5 -0.212752,0.04514 -0.396305,0.10018 -0.183553,0.05504 -0.483912,0.132589 -0.667464,0.172299 -0.77563,0.167785 -0.708732,0.335014 0.208581,0.521399 0.648799,0.131816 1.453948,0.406541 2.02325,0.690342 0.650345,0.324211 1.242049,0.833926 1.497912,1.290376 0.07718,0.137658 0.161128,0.26362 0.186568,0.279915 0.07832,0.05009 0.208861,-0.06759 0.312762,-0.282136 z"
         id="path2" /></g></g></svg>
