<?xml version="1.0" encoding="UTF-8" standalone="no"?>
<svg
   width="143"
   height="30"
   viewBox="0 0 143 30"
   fill="none"
   version="1.1"
   id="svg3"
   xml:space="preserve"
   xmlns="http://www.w3.org/2000/svg"
   xmlns:svg="http://www.w3.org/2000/svg"><defs
     id="defs3" /><g
     id="g4"><path
       d="m 12.025963,15 c 0,-8.28427 5.586176,-15 12.47707,-15 h 93.993937 c 6.89067,0 12.47707,6.71573 12.47707,15 v 0 c 0,8.2843 -5.5864,15 -12.47707,15 H 24.503033 c -6.890894,0 -12.47707,-6.7157 -12.47707,-15 z"
       fill="#1b1b1b"
       id="path1"
       style="stroke-width:0.912033" /><text
       xml:space="preserve"
       style="font-style:normal;font-variant:normal;font-weight:bold;font-stretch:normal;font-size:18.6667px;font-family:Roboto;-inkscape-font-specification:'Roboto, Bold';font-variant-ligatures:normal;font-variant-caps:normal;font-variant-numeric:normal;font-variant-east-asian:normal;text-align:start;writing-mode:lr-tb;direction:ltr;text-anchor:start;fill:#ffffff;fill-opacity:1"
       x="50.811142"
       y="20.83115"
       id="text3"><tspan
         id="tspan3"
         x="50.811142"
         y="20.83115"
         style="font-style:normal;font-variant:normal;font-weight:bold;font-stretch:normal;font-size:18.6667px;font-family:Roboto;-inkscape-font-specification:'Roboto, Bold';font-variant-ligatures:normal;font-variant-caps:normal;font-variant-numeric:normal;font-variant-east-asian:normal;fill:#ffffff;fill-opacity:1">OpenAI</tspan></text><path
       style="fill:#ffffff;fill-opacity:1;stroke-width:0.0433859"
       d="M 34.369506,26.160857 C 33.88112,26.053247 33.184712,25.80615 32.81523,25.609374 32.457907,25.419073 31.938923,25.035546 31.474454,24.618545 l -0.27212,-0.24431 -0.282009,0.04364 c -0.461961,0.07148 -1.489394,0.0573 -1.92069,-0.02652 -1.193998,-0.232039 -2.247272,-0.802198 -3.068154,-1.660855 -1.341327,-1.403053 -1.873148,-3.341074 -1.430833,-5.214136 0.04693,-0.198748 0.08533,-0.395222 0.08533,-0.436609 0,-0.04139 -0.132099,-0.249726 -0.293554,-0.462973 -1.49693,-1.977136 -1.495608,-4.755607 0.0032,-6.7680763 0.702084,-0.942685 1.636104,-1.601632 2.828408,-1.995429 0.262485,-0.08669 0.500063,-0.180214 0.52795,-0.207821 0.02789,-0.02761 0.136845,-0.247132 0.242127,-0.487832 0.105283,-0.2406996 0.302872,-0.6086136 0.439087,-0.8175856 0.265868,-0.407878 0.94021,-1.134892 1.328913,-1.432711 0.580225,-0.444562 1.337573,-0.797393 2.153445,-1.00324 0.423294,-0.106799 0.548889,-0.119059 1.230657,-0.120138 0.825685,-0.0013 1.090743,0.03541 1.735437,0.240387 0.788642,0.250747 1.454021,0.646463 2.158305,1.283593 l 0.35779,0.323674 0.495396,-0.05522 c 1.831448,-0.204129 3.510221,0.390977 4.767755,1.6901166 1.393015,1.439103 1.90679,3.3843603 1.413701,5.3525503 -0.04659,0.185964 -0.07045,0.361677 -0.05303,0.390474 0.01742,0.0288 0.123873,0.170125 0.236553,0.314062 0.647602,0.827252 1.056466,1.876633 1.166902,2.994952 0.160818,1.628493 -0.531301,3.420767 -1.766425,4.574237 -0.644619,0.602002 -1.25437,0.956456 -2.17061,1.261794 l -0.541639,0.180503 -0.107415,0.244321 c -0.371891,0.845892 -0.70806,1.376414 -1.210836,1.910868 -0.716146,0.761268 -1.6037,1.281779 -2.713556,1.591379 -0.361316,0.100792 -0.501275,0.115042 -1.273641,0.129684 -0.670653,0.01271 -0.936691,0.0013 -1.17142,-0.05047 z m 2.169296,-1.404613 c 0.732918,-0.200792 1.392254,-0.584873 1.933971,-1.126591 0.55233,-0.55233 0.912928,-1.179591 1.142024,-1.986555 l 0.113466,-0.399671 -0.01114,-3.001595 -0.01114,-3.001594 -0.932798,-0.534153 c -0.824522,-0.47215 -1.016843,-0.568693 -1.049852,-0.527014 -0.0047,0.006 -0.01937,1.475122 -0.03254,3.264791 l -0.02395,3.253944 -0.09758,0.156904 c -0.126429,0.203299 -0.08141,0.174933 -2.50636,1.579212 -2.355692,1.364172 -2.362484,1.368315 -2.363215,1.441481 -0.0014,0.137199 0.832662,0.621648 1.395532,0.810597 0.493616,0.165701 0.728648,0.194864 1.445709,0.179383 0.502183,-0.01084 0.730046,-0.03576 0.997876,-0.109139 z m -5.813713,-1.695508 c 0.379097,-0.05401 0.778047,-0.182934 1.17142,-0.378549 0.167036,-0.08306 1.321307,-0.736487 2.565048,-1.452055 l 2.261346,-1.301032 0.03126,-0.962504 c 0.0314,-0.966757 0.0091,-1.370883 -0.07558,-1.370883 -0.06618,0 -0.516827,0.250653 -2.222304,1.236077 -2.436312,1.407701 -3.063243,1.763381 -3.333268,1.891082 -0.236023,0.111621 -0.267031,0.116262 -0.434506,0.06502 -0.09919,-0.03035 -0.68796,-0.347526 -1.308379,-0.704842 -3.090707,-1.780019 -3.49764,-2.010093 -3.555254,-2.010093 -0.17007,0 -0.142951,1.310879 0.03994,1.930673 0.124235,0.421016 0.364403,0.935002 0.590334,1.263382 0.211339,0.30717 0.721434,0.827634 1.015809,1.036457 0.469076,0.332751 1.197753,0.653197 1.716914,0.755035 0.268805,0.05273 1.173573,0.05404 1.53722,0.0022 z m 10.908373,-2.452757 c 1.04208,-0.521667 1.842444,-1.485459 2.202864,-2.65267 0.109427,-0.354374 0.117783,-0.436415 0.118379,-1.162236 5.66e-4,-0.689253 -0.01117,-0.821699 -0.09998,-1.128034 -0.220158,-0.759449 -0.593754,-1.398367 -1.130134,-1.932741 -0.418473,-0.416908 -0.555466,-0.504677 -2.896409,-1.855675 -2.41341,-1.392819 -2.497938,-1.439626 -2.599377,-1.439411 -0.125195,2.67e-4 -1.948197,1.052839 -1.948197,1.124859 0,0.08265 0.3803,0.312852 3.128414,1.893696 1.39099,0.800162 2.399019,1.407211 2.497871,1.504251 l 0.165735,0.162697 v 2.773151 c 0,1.525233 0.01185,2.804033 0.02634,2.841777 0.03926,0.102318 0.101013,0.08734 0.534496,-0.129664 z m -9.93219,-1.236895 c 0.692101,-0.367262 1.518507,-0.875528 1.518507,-0.93393 0,-0.0746 -0.399964,-0.317391 -2.885163,-1.751364 -1.169251,-0.674664 -2.261442,-1.316998 -2.427092,-1.427408 -0.527293,-0.351456 -0.476097,-0.02332 -0.503952,-3.230034 -0.0133,-1.531433 -0.02795,-2.7893053 -0.03254,-2.7952713 -0.03016,-0.03916 -0.182039,0.01 -0.454142,0.146893 -1.094821,0.550925 -1.833559,1.4209073 -2.223867,2.6189593 -0.106181,0.325922 -0.122464,0.452301 -0.140108,1.087455 -0.01779,0.640254 -0.0094,0.760975 0.0769,1.106341 0.202396,0.810057 0.584041,1.50316 1.143327,2.076391 0.38357,0.393133 0.447488,0.43378 3.116439,1.98182 1.959304,1.136433 2.304382,1.330454 2.377836,1.336946 0.01193,0.0011 0.207168,-0.0965 0.433859,-0.216798 z m 3.818597,-2.190866 1.257556,-0.719197 -0.0018,-1.460946 -0.0018,-1.460946 -1.2417,-0.709741 -1.2417,-0.709741 -0.155745,0.07283 c -0.08566,0.04006 -0.658466,0.359442 -1.272904,0.709741 l -1.117159,0.636907 0.01082,1.469644 0.01082,1.469645 1.235247,0.710498 c 0.679385,0.390774 1.240977,0.710498 1.247981,0.710498 0.007,0 0.578634,-0.323639 1.27029,-0.719196 z m -4.686315,-4.620873 c 0.01749,-2.6373093 0.03311,-3.2941913 0.08057,-3.3862483 0.0788,-0.152869 0.590314,-0.479631 2.197195,-1.403598 1.843559,-1.0600576 2.71162,-1.5804726 2.71162,-1.6256556 0,-0.02096 -0.07321,-0.09525 -0.162698,-0.16509 -0.745621,-0.581944 -1.897869,-0.928922 -2.86055,-0.861401 -1.81304,0.127163 -3.284048,1.296628 -3.85356,3.0636156 -0.117804,0.365504 -0.119206,0.384008 -0.15777,2.0825253 -0.0214,0.942558 -0.03367,2.337303 -0.02727,3.099431 l 0.01164,1.385689 0.973535,0.556714 c 0.535444,0.306193 0.99425,0.549816 1.019569,0.541384 0.03166,-0.01054 0.05281,-1.037353 0.06773,-3.287366 z m 1.183995,-0.219113 c 0.100464,-0.05091 1.374401,-0.781913 2.830973,-1.624462 l 2.648311,-1.5319043 0.236852,0.03263 c 0.20237,0.02787 0.498989,0.184235 2.037369,1.0739783 3.061232,1.770506 2.904708,1.684585 2.962809,1.626393 0.03721,-0.03726 0.05106,-0.257449 0.04753,-0.755365 -0.0044,-0.626348 -0.01758,-0.745228 -0.120786,-1.093241 C 42.287545,8.8102847 41.52692,7.8866667 40.400155,7.3234187 39.723307,6.9850757 38.914122,6.8440281 38.093751,6.9213911 c -0.968129,0.0913 -1.065244,0.1363316 -4.212331,1.9533236 l -2.136757,1.2336723 v 1.093575 c 0,0.988811 0.01405,1.230831 0.07145,1.230831 0.01033,0 0.100978,-0.04165 0.201442,-0.09256 z"
       id="path4" /></g></svg>
