<?xml version="1.0" encoding="UTF-8" standalone="no"?>
<svg
   width="168"
   height="30"
   viewBox="0 0 168 30"
   fill="none"
   version="1.1"
   id="svg5"
   xml:space="preserve"
   xmlns="http://www.w3.org/2000/svg"
   xmlns:svg="http://www.w3.org/2000/svg"><defs
     id="defs5" /><g
     id="g4"><path
       d="m 32.198766,15 c 0,-8.28427 4.055111,-15 9.057348,-15 H 124.5837 c 5.00207,0 9.05735,6.71573 9.05735,15 v 0 c 0,8.2843 -4.05528,15 -9.05735,15 H 41.256114 c -5.002237,0 -9.057348,-6.7157 -9.057348,-15 z"
       fill="#BFC2FF"
       id="path1"
       style="fill:#000000;fill-opacity:1;stroke-width:0.77706" /><text
       xml:space="preserve"
       style="font-style:normal;font-variant:normal;font-weight:900;font-stretch:normal;font-size:14.6667px;font-family:Roboto;-inkscape-font-specification:'Roboto, Heavy';font-variant-ligatures:normal;font-variant-caps:normal;font-variant-numeric:normal;font-variant-east-asian:normal;fill:#fefeff;fill-opacity:1;stroke-width:1.00157;stroke-linejoin:round"
       x="70.141205"
       y="20.503593"
       id="text5"><tspan
         id="tspan5"
         x="70.141205"
         y="20.503593"
         style="font-style:normal;font-variant:normal;font-weight:900;font-stretch:normal;font-size:14.6667px;font-family:Roboto;-inkscape-font-specification:'Roboto, Heavy';font-variant-ligatures:normal;font-variant-caps:normal;font-variant-numeric:normal;font-variant-east-asian:normal;fill:#fefeff;fill-opacity:1">Oxygen</tspan></text><path
       style="fill:#ffffff;fill-opacity:1;stroke-width:0.400078"
       d="m 56.287384,24.144775 c -1.182125,-0.287987 -2.267109,-1.851105 -2.267109,-3.266182 0,-1.221671 1.433413,-2.673547 2.800707,-2.836781 0.610798,-0.07292 1.348283,0.02128 1.725505,0.220383 0.874674,0.461681 1.875281,1.981548 1.874041,2.846552 -0.0017,1.043492 -0.961999,2.411521 -1.996666,2.843833 -0.94218,0.393668 -1.210421,0.417799 -2.136478,0.192195 z m -9.683285,-5.033249 c -3.028975,-1.5094 -4.452997,-4.819761 -3.380702,-7.858968 0.567163,-1.6075107 1.535982,-2.7834237 3.004391,-3.6466055 1.056849,-0.6212524 1.556256,-0.738157 3.124908,-0.7315018 2.862951,0.012149 4.805623,1.2660366 5.979591,3.8595003 2.422465,5.351571 -3.46349,11.001085 -8.728188,8.377575 z m 9.683364,-9.7597157 c -1.881031,-2.2354772 1.283471,-4.9768278 3.354421,-2.9058754 0.832146,0.8321444 0.969622,1.5659172 0.469356,2.5051994 -0.47388,0.889741 -1.061528,1.2315877 -2.133154,1.2408977 -0.77559,0.0068 -1.123408,-0.166125 -1.690623,-0.8402217 z"
       id="path4" /></g></svg>
