<?xml version="1.0" encoding="UTF-8" standalone="no"?>
<svg
   width="143"
   height="30"
   viewBox="0 0 143 30"
   fill="none"
   version="1.1"
   id="svg3"
   xml:space="preserve"
   xmlns="http://www.w3.org/2000/svg"
   xmlns:svg="http://www.w3.org/2000/svg"><defs
     id="defs3" /><g
     id="g5"><g
       id="g7"
       transform="translate(3.4359901)"><path
         d="M 3.1905598,15 C 3.1905598,6.7157301 9.2838826,1.2e-7 16.800374,1.2e-7 H 119.32764 C 126.8439,1.2e-7 132.93746,6.7157301 132.93746,15 v 0 c 0,8.2843 -6.09356,15 -13.60982,15 H 16.800374 C 9.2838826,30 3.1905598,23.2843 3.1905598,15 Z"
         fill="#1b1b1b"
         id="path1"
         style="fill:#1cb9cd;fill-opacity:1;stroke-width:0.952534" /><text
         xml:space="preserve"
         style="font-style:normal;font-variant:normal;font-weight:bold;font-stretch:normal;font-size:18.6667px;font-family:Roboto;-inkscape-font-specification:'Roboto, Bold';font-variant-ligatures:normal;font-variant-caps:normal;font-variant-numeric:normal;font-variant-east-asian:normal;text-align:start;writing-mode:lr-tb;direction:ltr;text-anchor:start;fill:#ffffff;fill-opacity:1"
         x="36.935474"
         y="21.104025"
         id="text3"><tspan
           id="tspan3"
           x="36.935474"
           y="21.104025"
           style="font-style:normal;font-variant:normal;font-weight:bold;font-stretch:normal;font-size:18.6667px;font-family:Roboto;-inkscape-font-specification:'Roboto, Bold';font-variant-ligatures:normal;font-variant-caps:normal;font-variant-numeric:normal;font-variant-east-asian:normal;fill:#ffffff;fill-opacity:1">Perplexity</tspan></text><path
         style="fill:#ffffff;fill-opacity:1;stroke-width:0.090789"
         d="m 23.091459,22.247818 c 0,-2.367315 -0.0064,-2.456554 -0.173141,-2.428608 -0.09522,0.01596 -1.328668,1.050389 -2.740981,2.298738 -1.412311,1.24835 -2.600906,2.283345 -2.64132,2.29999 -0.04042,0.01665 -0.07348,-0.804507 -0.07348,-1.824781 0,-1.020274 -0.02642,-2.16762 -0.05872,-2.549659 l -0.05872,-0.694616 h -1.12154 -1.121542 V 15.21798 11.087078 h 1.134863 1.134863 l 0.01172,-1.520717 c 0.0065,-0.836394 0.03709,-2.1218703 0.06809,-2.856613 l 0.05637,-1.3358965 2.653851,2.4480624 c 1.459617,1.3464351 2.715911,2.4480621 2.791764,2.4480621 0.120131,0 0.137913,-0.333603 0.137913,-2.5874884 V 5.095 H 23.5 23.908551 v 2.5874876 c 0,2.4056264 0.01116,2.5871424 0.15888,2.5825594 0.08739,-0.0027 1.343679,-1.101291 2.791763,-2.4412896 l 2.632885,-2.4363595 0.05681,0.6028111 c 0.03125,0.3315451 0.06189,1.6139737 0.06809,2.84984 l 0.01128,2.247029 h 1.134863 1.134864 v 4.130902 4.130902 H 30.777482 29.65698 l -0.06294,2.469625 c -0.03462,1.358294 -0.07915,2.485837 -0.09897,2.50565 -0.01982,0.01982 -1.224981,-1.009806 -2.678146,-2.288046 -1.453167,-1.27824 -2.702029,-2.324073 -2.775247,-2.324073 -0.113746,0 -0.133126,0.363429 -0.133126,2.4967 v 2.496698 H 23.5 23.091449 Z m -2.269727,-1.79624 2.224333,-1.97345 0.02398,-2.884906 c 0.02354,-2.832516 0.02072,-2.884377 -0.156029,-2.855727 -0.099,0.01605 -1.161816,0.921092 -2.361801,2.011208 l -2.181788,1.982027 v 2.85249 c 0,2.224314 0.025,2.851315 0.113485,2.847149 0.06242,-0.0029 1.114437,-0.893392 2.33782,-1.978791 z m 7.880125,-0.565488 c 0.01477,-1.369045 0.0012,-2.652593 -0.03038,-2.85233 -0.05302,-0.336262 -0.21636,-0.506564 -2.205807,-2.299706 -1.181707,-1.065102 -2.220051,-1.976157 -2.307436,-2.024567 -0.1499,-0.08305 -0.158583,0.07775 -0.153602,2.84444 l 0.0052,2.932459 2.241751,1.96836 c 1.232963,1.082598 2.282605,1.957596 2.332539,1.944438 0.0569,-0.01499 0.100822,-0.953035 0.11766,-2.513094 z m -11.327255,-2.375686 0.0028,-1.021378 2.403056,-2.174401 c 1.321681,-1.195921 2.403056,-2.234069 2.403056,-2.306995 0,-0.114758 -0.410666,-0.124971 -3.053261,-0.07593 -1.679294,0.03117 -3.066109,0.06951 -3.081808,0.08521 -0.06163,0.06163 -0.153248,6.044241 -0.09605,6.272136 0.05925,0.236062 0.0796,0.242738 0.740112,0.242738 h 0.679187 z m 13.651187,0.877767 c 0.03031,-0.07898 0.05511,-1.543351 0.05511,-3.254149 v -3.110538 l -1.51252,-0.05965 c -0.831885,-0.03281 -2.220959,-0.05965 -3.086829,-0.05965 -1.294605,0 -1.574309,0.02276 -1.574309,0.128083 0,0.07045 1.059362,1.081609 2.354136,2.247029 l 2.354133,2.118947 0.0064,1.066771 0.0064,1.066772 h 0.671205 c 0.528299,0 0.682937,-0.03057 0.726312,-0.14361 z m -8.887615,-7.487758 c 0,-0.167715 -3.551556,-3.4448975 -3.733311,-3.4448975 -0.102119,0 -0.125223,0.3238382 -0.125223,1.7552555 0,0.96539 0.02804,1.783296 0.06232,1.817571 0.03428,0.03428 0.902444,0.0513 1.929268,0.03783 1.618366,-0.02123 1.86695,-0.0433 1.86695,-0.165757 z m 6.491787,-0.471556 c 2.03e-4,-0.362021 0.02693,-1.179123 0.05941,-1.815781 0.05014,-0.983033 0.03899,-1.1575605 -0.07398,-1.1575605 -0.178693,0 -3.798935,3.3372015 -3.798935,3.5019245 0,0.108209 0.315151,0.129638 1.906571,0.129638 h 1.90657 z"
         id="path7" /></g></g></svg>
