<?xml version="1.0" encoding="UTF-8" standalone="no"?>
<svg
   width="143"
   height="30"
   viewBox="0 0 143 30"
   fill="none"
   version="1.1"
   id="svg3"
   xml:space="preserve"
   xmlns="http://www.w3.org/2000/svg"
   xmlns:svg="http://www.w3.org/2000/svg"><defs
     id="defs3"><clipPath
       clipPathUnits="userSpaceOnUse"
       id="clipPath8"><rect
         style="fill:#ffffff;fill-opacity:1;stroke:#ffffff;stroke-width:0.07;stroke-opacity:1"
         id="rect9"
         width="24.122572"
         height="17.180824"
         x="-5.0258522"
         y="45.468445" /></clipPath></defs><g
     id="g5"
     transform="translate(8.958115)"><g
       id="g6"
       transform="translate(5.293085)"><g
         id="g7"><g
           id="g8"
           transform="translate(-6.275105)"><g
             id="g9"
             transform="translate(5.987255)"><path
               d="M 0,15 C 0,6.71573 5.4042042,0 12.070625,0 h 90.932035 c 6.66622,0 12.07064,6.71573 12.07064,15 v 0 c 0,8.2843 -5.40442,15 -12.07064,15 H 12.070625 C 5.4042042,30 0,23.2843 0,15 Z"
               fill="#1b1b1b"
               id="path1"
               style="fill:#000000;fill-opacity:1;stroke-width:0.897055" /><text
               xml:space="preserve"
               style="font-style:normal;font-variant:normal;font-weight:bold;font-stretch:normal;font-size:18.6667px;font-family:Roboto;-inkscape-font-specification:'Roboto, Bold';font-variant-ligatures:normal;font-variant-caps:normal;font-variant-numeric:normal;font-variant-east-asian:normal;text-align:start;writing-mode:lr-tb;direction:ltr;text-anchor:start;fill:#ffffff;stroke-width:0.07"
               x="35.037197"
               y="21.241955"
               id="text3"><tspan
                 id="tspan3"
                 x="35.037197"
                 y="21.241955">Pika Art</tspan></text><path
               style="fill:#ffffff;fill-opacity:1"
               d="m -9.2621938,62.838592 c 0.03791,-6.054243 0.0809,-6.156037 1.372502,-3.25 1.575745,3.545356 5.104955,6.987322 8.58886803,8.376547 2.07773797,0.828506 1.44489697,1.007376 -3.75051203,1.060067 l -6.25,0.06339 z m 21.9603448,5.126547 c 3.483913,-1.389225 7.013123,-4.831191 8.588869,-8.376547 1.291598,-2.906037 1.334586,-2.804243 1.372502,3.25 l 0.03914,6.25 -6.25,-0.06339 c -5.195409,-0.05269 -5.82825,-0.231561 -3.750513,-1.060067 z M -2.9405678,58.586356 c -1.682094,-4.383468 4.545839,-11.088861 7.612883,-8.19652 1.023199,0.964917 1.052216,0.772676 0.148756,-0.985502 -0.617324,-1.201343 -1.122407,-2.435199 -1.122407,-2.741903 0,-1.162347 8.6081098,2.809875 10.9753088,5.064569 l 2.475309,2.357665 -2.225309,1.558668 c -1.22392,0.857267 -2.225309,2.20815 -2.225309,3.001963 0,1.798718 -6.0556898,1.987606 -7.7999998,0.243296 -0.933334,-0.933333 -1.2,-0.933333 -1.2,0 0,1.766603 -5.94927,1.495776 -6.639232,-0.302236 z m -6.297382,-15.247764 -0.063386,-6.25 6.25,0.03914 c 6.054243,0.03792 6.156036,0.0809 3.25000003,1.372502 -3.54535703,1.575746 -6.98732203,5.104956 -8.37654703,8.588869 -0.828506,2.077737 -1.007376,1.444896 -1.060067,-3.750513 z m 30.9366138,3.826725 c 0,-1.782052 -5.432179,-7.355463 -8.450424,-8.670129 -2.963338,-1.290749 -2.872833,-1.329419 3.200424,-1.367454 l 6.25,-0.03914 v 5.5 c 0,3.025 -0.225,5.5 -0.5,5.5 -0.275,0 -0.5,-0.415473 -0.5,-0.923275 z"
               id="path8"
               clip-path="url(#clipPath8)"
               transform="matrix(0.92086331,0,0,0.92086331,12.444504,-34.780818)" /></g></g></g></g></g></svg>
