<?xml version="1.0" encoding="UTF-8" standalone="no"?>
<svg
   width="168"
   height="30"
   viewBox="0 0 168 30"
   fill="none"
   version="1.1"
   id="svg5"
   xml:space="preserve"
   xmlns="http://www.w3.org/2000/svg"
   xmlns:svg="http://www.w3.org/2000/svg"><defs
     id="defs5" /><g
     id="g5"><path
       d="m 40.911943,15 c 0,-8.28427 3.444853,-15 7.694296,-15 h 70.787521 c 4.24931,0 7.6943,6.71573 7.6943,15 v 0 c 0,8.2843 -3.44499,15 -7.6943,15 H 48.606239 c -4.249443,0 -7.694296,-6.7157 -7.694296,-15 z"
       fill="#BFC2FF"
       id="path1"
       style="fill:#b8fc86;fill-opacity:1;stroke-width:0.716207" /><text
       xml:space="preserve"
       style="font-style:normal;font-variant:normal;font-weight:900;font-stretch:normal;font-size:14.6667px;font-family:Roboto;-inkscape-font-specification:'Roboto, Heavy';font-variant-ligatures:normal;font-variant-caps:normal;font-variant-numeric:normal;font-variant-east-asian:normal;fill:#000000;fill-opacity:1;stroke-width:1.00157;stroke-linejoin:round"
       x="70.971313"
       y="20.503593"
       id="text5"><tspan
         id="tspan5"
         x="70.971313"
         y="20.503593"
         style="font-style:normal;font-variant:normal;font-weight:900;font-stretch:normal;font-size:14.6667px;font-family:Roboto;-inkscape-font-specification:'Roboto, Heavy';font-variant-ligatures:normal;font-variant-caps:normal;font-variant-numeric:normal;font-variant-east-asian:normal;fill:#000000;fill-opacity:1">PlayAI</tspan></text><path
       style="fill:#000000;fill-opacity:1;stroke-width:0.441566"
       d="m 53.117169,22.017006 -3.863704,-2.197622 v -4.800658 -4.800657 l 3.931651,-2.2163497 3.931651,-2.2163494 4.030447,2.2475688 4.030447,2.2475683 -0.124298,4.840714 -0.124299,4.840712 -3.974095,2.12635 -3.974096,2.126347 z m 3.549722,-3.29949 -0.127585,-3.80815 -3.018827,-1.711426 c -1.660355,-0.941285 -3.108701,-1.711428 -3.218545,-1.711428 -0.109847,0 -0.142308,1.733994 -0.07213,3.85332 l 0.127584,3.853319 2.868212,1.666257 c 1.577516,0.916443 3.025862,1.66626 3.218545,1.66626 0.192684,0 0.292923,-1.713669 0.222752,-3.808152 z m -4.322463,-2.091298 v -1.772402 l 1.324699,1.269142 c 0.728584,0.698027 1.324699,1.408117 1.324699,1.577977 0,0.16986 -0.596115,0.396326 -1.324699,0.50326 l -1.324699,0.194425 z m 9.315719,2.492163 c 1.206274,-0.712564 2.069145,-2.134553 1.587516,-2.616183 -0.119106,-0.119105 -0.484983,0.10147 -0.813059,0.490167 -1.555452,1.842861 -1.886443,2.105047 -2.047502,1.621873 -0.197457,-0.592371 -1.860748,0.154916 -1.860748,0.836002 0,0.678223 1.734869,0.494505 3.133793,-0.331859 z M 60.29262,15.902175 c 0,-0.485724 -0.198706,-0.883132 -0.441567,-0.883132 -0.242861,0 -0.441565,0.397408 -0.441565,0.883132 0,0.485722 0.198704,0.883132 0.441565,0.883132 0.242861,0 0.441567,-0.39741 0.441567,-0.883132 z m 2.207831,-1.35076 c 0,-0.47139 -0.177446,-0.857071 -0.394325,-0.857071 -0.518558,0 -1.003154,1.291269 -0.680512,1.813315 0.385089,0.623087 1.074837,0.0094 1.074837,-0.956244 z m -2.15346,-2.283694 c 1.427264,-0.784644 2.595025,-1.562361 2.595025,-1.728262 0,-0.1659 -1.295464,-1.0261027 -2.878809,-1.9115595 L 57.184399,7.017978 54.105056,8.6812007 c -1.693639,0.9147726 -2.931372,1.8111933 -2.750519,1.9920463 0.634302,0.634303 5.191072,3.005182 5.791099,3.013098 0.333481,0.0044 1.77409,-0.633982 3.201355,-1.418624 z M 55.876957,11.26573 c 0,-0.441568 0.441567,-0.66235 1.3247,-0.66235 0.883131,0 1.324697,0.220782 1.324697,0.66235 0,0.441566 -0.441566,0.662349 -1.324697,0.662349 -0.883133,0 -1.3247,-0.220783 -1.3247,-0.662349 z m 1.214307,-1.8498647 c -1.057838,-0.2764426 -0.977357,-1.0203161 0.110393,-1.0203161 0.490627,0 0.883131,0.2943775 0.883131,0.6623492 0,0.3642918 -0.04967,0.6392996 -0.110392,0.6111269 -0.06072,-0.028169 -0.458123,-0.1420943 -0.883132,-0.25316 z"
       id="path5" /></g></svg>
