<?xml version="1.0" encoding="UTF-8" standalone="no"?>
<svg
   width="168"
   height="30"
   viewBox="0 0 168 30"
   fill="none"
   version="1.1"
   id="svg5"
   xml:space="preserve"
   xmlns="http://www.w3.org/2000/svg"
   xmlns:svg="http://www.w3.org/2000/svg"><defs
     id="defs5"><clipPath
       clipPathUnits="userSpaceOnUse"
       id="clipPath9"><rect
         style="fill:#ffffff;fill-opacity:1;stroke-width:1.68945;stroke-linejoin:round"
         id="rect10"
         width="55.265511"
         height="56.218361"
         x="118.74938"
         y="44.784119" /></clipPath></defs><g
     id="g8"><g
       id="g10"
       transform="translate(19.473946)"><path
         d="m 9.8858575,15 c 0,-8.28427 4.3684375,-15 9.7571795,-15 h 89.766033 c 5.38857,0 9.75718,6.71573 9.75718,15 v 0 c 0,8.2843 -4.36861,15 -9.75718,15 H 19.643037 C 14.254295,30 9.8858575,23.2843 9.8858575,15 Z"
         fill="#BFC2FF"
         id="path1"
         style="fill:#1e2023;fill-opacity:1;stroke-width:0.806523" /><text
         xml:space="preserve"
         style="font-style:normal;font-variant:normal;font-weight:900;font-stretch:normal;font-size:14.6667px;font-family:Roboto;-inkscape-font-specification:'Roboto, Heavy';font-variant-ligatures:normal;font-variant-caps:normal;font-variant-numeric:normal;font-variant-east-asian:normal;fill:#fefeff;fill-opacity:1;stroke-width:1.00157;stroke-linejoin:round"
         x="43.404667"
         y="20.503416"
         id="text5"><tspan
           id="tspan5"
           x="43.404667"
           y="20.503416"
           style="font-style:normal;font-variant:normal;font-weight:900;font-stretch:normal;font-size:14.6667px;font-family:Roboto;-inkscape-font-specification:'Roboto, Heavy';font-variant-ligatures:normal;font-variant-caps:normal;font-variant-numeric:normal;font-variant-east-asian:normal;fill:#fefeff;fill-opacity:1">Recraft AI</tspan></text><path
         style="fill:#ffffff;fill-opacity:1"
         d="m 108.98233,106.93011 c 0.0289,-3.025 0.2123,-5.05 0.40745,-4.5 0.9763,2.75157 4.16203,6.3292 7.17451,8.05713 l 3.3654,1.93036 -5.5,0.006 -5.5,0.006 z m 64.61403,5.03992 c 2.75156,-0.97631 6.3292,-4.16204 8.05713,-7.17451 l 1.93035,-3.36541 0.006,5.5 0.006,5.5 -5.5,-0.0526 c -3.025,-0.029 -5.05,-0.2123 -4.5,-0.40745 z m -50,-15.663385 c 0,-0.43457 1.425,-5.834096 3.16667,-11.998946 l 3.16666,-11.208819 3.09645,-0.0011 3.09645,-0.0011 0.26196,-7.833333 c 0.2113,-6.318223 0.55225,-8.473549 1.76281,-11.143341 1.79186,-3.951845 2.30339,-4.333187 5.83024,-4.34645 6.14001,-0.02309 12.89547,4.0692 15.78376,9.561422 1.99246,3.788755 2.01025,10.376429 0.0381,14.095035 -2.48881,4.692713 -6.48521,7.723977 -12.21193,9.262739 l -3.6578,0.982846 9,0.04405 9,0.04405 3.5,6.221195 c 1.925,3.421658 3.5,6.429816 3.5,6.684796 0,0.254981 -4.24435,0.380364 -9.43189,0.27863 l -9.43189,-0.18488 -3.73478,-6.666667 -3.73477,-6.666666 -0.18999,6.833333 -0.18999,6.833333 h -9.31001 c -6.73205,0 -9.31001,-0.218788 -9.31001,-0.790127 z M 144.88673,77.421 c 1.29003,-3.582225 1.2775,-18.310682 -0.0187,-21.981786 -1.2126,-3.434335 -2.84182,-3.765278 -4.35141,-0.883897 -2.30097,4.391919 -1.92152,22.061777 0.53739,25.024579 1.26168,1.520225 2.8249,0.639695 3.83273,-2.158896 z m -35.95078,-34.157559 -0.006,-5.5 5.5,0.05263 c 3.025,0.02895 5.05,0.212301 4.5,0.407451 -2.75157,0.976307 -6.3292,4.162034 -8.05713,7.17451 l -1.93036,3.365408 z m 73.99374,4.369167 c 0,-1.781641 -3.80871,-6.114206 -6.96792,-7.926294 l -3.36541,-1.930361 5.5,-0.0063 5.5,-0.0063 v 5.333333 c 0,2.933333 -0.15,5.333333 -0.33334,5.333333 -0.18333,0 -0.33333,-0.358875 -0.33333,-0.797499 z"
         id="path9"
         clip-path="url(#clipPath9)"
         transform="matrix(0.3297414,0,0,0.3297414,-19.265764,-9.0359389)" /></g></g></svg>
