<?xml version="1.0" encoding="UTF-8" standalone="no"?>
<svg
   width="143"
   height="30"
   viewBox="0 0 143 30"
   fill="none"
   version="1.1"
   id="svg3"
   xml:space="preserve"
   xmlns="http://www.w3.org/2000/svg"
   xmlns:svg="http://www.w3.org/2000/svg"><defs
     id="defs3" /><g
     id="g18"
     transform="translate(-4.1999275)"><g
       id="g4"
       transform="translate(-4.1216625)"><path
         d="M 22.97454,15 C 22.97454,6.7157301 28.313973,1.2e-7 34.900496,1.2e-7 H 124.74269 C 131.32901,1.2e-7 136.66864,6.7157301 136.66864,15 v 0 c 0,8.2843 -5.33963,15 -11.92595,15 H 34.900496 C 28.313973,30 22.97454,23.2843 22.97454,15 Z"
         fill="#1b1b1b"
         id="path1"
         style="fill:#ff2442;fill-opacity:1;stroke:none;stroke-width:0.891664" /><text
         xml:space="preserve"
         style="font-style:normal;font-variant:normal;font-weight:bold;font-stretch:normal;font-size:18.6663px;font-family:Roboto;-inkscape-font-specification:'Roboto, Bold';font-variant-ligatures:normal;font-variant-caps:normal;font-variant-numeric:normal;font-variant-east-asian:normal;text-align:start;writing-mode:lr-tb;direction:ltr;text-anchor:start;fill:#ffffff;fill-opacity:1;stroke:none;stroke-width:0.05;stroke-dasharray:none;stroke-opacity:1"
         x="63.756454"
         y="21.503725"
         id="text3"><tspan
           id="tspan3"
           x="63.756454"
           y="21.503725"
           style="font-style:normal;font-variant:normal;font-weight:bold;font-stretch:normal;font-size:18.6663px;font-family:Roboto;-inkscape-font-specification:'Roboto, Bold';font-variant-ligatures:normal;font-variant-caps:normal;font-variant-numeric:normal;font-variant-east-asian:normal;fill:#ffffff;fill-opacity:1;stroke:none;stroke-width:0.05;stroke-dasharray:none;stroke-opacity:1">rednote</tspan></text><path
         style="fill:#ffffff;fill-opacity:1;stroke-width:0.376006"
         d="m 43.138301,19.086282 c -0.440548,-0.440548 0.468467,-1.657989 1.237954,-1.657989 0.647043,0 0.738783,-0.263329 0.738783,-2.120584 0,-1.543109 -0.170227,-2.245056 -0.625102,-2.57767 -1.133163,-0.828588 -0.339688,-1.693851 1.553317,-1.693851 1.566746,0 1.703828,0.07563 1.703828,0.940015 0,0.517009 -0.169203,0.940016 -0.376006,0.940016 -0.208893,0 -0.376006,1.002683 -0.376006,2.256037 0,2.030639 0.07774,2.256037 0.778163,2.256037 0.591916,0 0.749406,0.202488 0.658011,0.846013 -0.108712,0.765458 -0.354388,0.856431 -2.580127,0.955416 -1.352985,0.06017 -2.573752,-0.0044 -2.712815,-0.14344 z m 6.752479,-0.01563 c -0.145018,-0.145017 -0.263669,-0.912279 -0.263669,-1.705026 0,-1.190685 -0.130784,-1.441356 -0.752012,-1.441356 -0.551475,0 -0.752012,-0.250671 -0.752012,-0.940015 0,-0.689345 0.200537,-0.940016 0.752012,-0.940016 0.875484,0 1.016216,-0.946177 0.188003,-1.263992 -0.811905,-0.311557 -0.69388,-1.272087 0.216153,-1.759122 0.938711,-0.502383 3.526962,-0.136169 4.266852,0.603721 0.442712,0.442712 0.551667,0.43761 0.73276,-0.03432 0.26829,-0.699151 1.219419,-0.722343 1.482734,-0.03615 0.227864,0.593807 -0.411454,1.36184 -1.133608,1.36184 -0.786221,0 -0.564439,0.772294 0.451208,1.571202 1.323645,1.04118 1.333911,3.417457 0.01849,4.279356 -1.195272,0.783172 -2.243117,0.566 -2.394678,-0.496312 -0.09126,-0.639641 0.06699,-0.842172 0.658011,-0.842172 0.527493,0 0.778164,-0.242247 0.778164,-0.752013 0,-0.606379 -0.250671,-0.752012 -1.294402,-0.752012 -1.253569,0 -1.29805,0.05031 -1.410023,1.594782 -0.110399,1.522755 -0.839813,2.255769 -1.543979,1.551601 z m 2.368375,-5.590422 c 0,-0.310205 -0.169203,-0.564009 -0.376006,-0.564009 -0.206804,0 -0.376006,0.253804 -0.376006,0.564009 0,0.310205 0.169202,0.564009 0.376006,0.564009 0.206803,0 0.376006,-0.253804 0.376006,-0.564009 z M 34.21086,18.180305 c 0,-0.413606 0.169203,-0.752012 0.376006,-0.752012 0.222819,0 0.376007,-1.378689 0.376007,-3.384056 0,-3.358988 0.0069,-3.384055 0.940015,-3.384055 0.936145,0 0.940016,0.01459 0.940016,3.541306 0,4.301939 -0.140001,4.73083 -1.544254,4.73083 -0.837119,0 -1.08779,-0.173295 -1.08779,-0.752013 z m 5.787867,0.157251 c 0.125527,-0.32712 0.228232,-0.665525 0.228232,-0.752012 0,-0.08649 0.610312,-0.157251 1.35625,-0.157251 1.082242,0 1.310139,0.120162 1.128018,0.594762 -0.125528,0.327118 -0.228232,0.665524 -0.228232,0.752012 0,0.08649 -0.610312,0.157251 -1.35625,0.157251 -1.082242,0 -1.31014,-0.120162 -1.128018,-0.594762 z m -7.519778,-1.003265 c -0.191727,-0.465307 -0.261187,-1.692028 -0.154356,-2.726045 0.167963,-1.625695 0.315099,-1.897125 1.087621,-2.00639 0.877108,-0.124059 0.888688,-0.08639 0.635672,2.068033 -0.427827,3.642956 -0.861952,4.380196 -1.568937,2.664402 z m 5.953198,0.253234 c -0.214379,-0.40057 -0.448155,-1.657783 -0.519504,-2.793809 -0.119441,-1.901767 -0.06266,-2.075025 0.716289,-2.185653 0.667848,-0.09485 0.846886,0.06352 0.850153,0.752012 0.0023,0.479691 0.09895,1.464375 0.21483,2.188187 0.136122,0.850253 0.0191,1.572889 -0.330649,2.041796 -0.534689,0.716856 -0.546131,0.716825 -0.931119,-0.0025 z m 2.318066,-1.069867 c -0.112836,-0.294044 -0.01698,-0.886255 0.213033,-1.316021 0.339019,-0.633463 0.308909,-0.781394 -0.159049,-0.781394 -0.728307,0 -0.73059,-0.669158 -0.0082,-2.39812 0.440708,-1.054762 0.782916,-1.361941 1.517254,-1.361941 0.820941,0 0.895959,0.09761 0.558963,0.727293 -0.519839,0.971329 -0.492335,1.152737 0.174774,1.152737 0.664705,0 0.718226,0.513295 0.16191,1.55278 -0.292738,0.546986 -0.280216,0.898187 0.04604,1.291302 0.347756,0.41902 0.343288,0.666311 -0.01995,1.103984 -0.593397,0.714998 -2.214344,0.734165 -2.484794,0.02938 z"
         id="path4" /></g></g></svg>
