<?xml version="1.0" encoding="UTF-8" standalone="no"?>
<svg
   width="143"
   height="30"
   viewBox="0 0 143 30"
   fill="none"
   version="1.1"
   id="svg3"
   xml:space="preserve"
   xmlns="http://www.w3.org/2000/svg"
   xmlns:svg="http://www.w3.org/2000/svg"><defs
     id="defs3" /><g
     id="g4"
     transform="translate(24.665498)"><g
       id="g5"><path
         d="m -13.600849,15 c 0,-8.28427 5.676468,-15 12.67874392,-15 H 94.59111 c 7.00205,0 12.67874,6.71573 12.67874,15 v 0 c 0,8.2843 -5.67669,15 -12.67874,15 H -0.92210508 C -7.924381,30 -13.600849,23.2843 -13.600849,15 Z"
         fill="#1B1B1B"
         id="path1"
         style="fill:#4666f1;fill-opacity:1;stroke-width:0.919375" /><text
         xml:space="preserve"
         style="font-weight:bold;font-size:16px;font-family:Roboto;-inkscape-font-specification:'Roboto, Bold';text-align:start;writing-mode:lr-tb;direction:ltr;text-anchor:start;fill:#ffffff;fill-opacity:1;stroke-width:0.07"
         x="19.560246"
         y="20.322001"
         id="text3"><tspan
           id="tspan3"
           x="19.560246"
           y="20.322001">Rhymes AI</tspan></text><path
         style="fill:#ffffff;fill-opacity:1;stroke-width:0.782171"
         d="m 1.1824449,22.449021 c -2.2658771,-0.783521 -3.6709515,-2.038262 -4.7159751,-4.2114 -0.5481775,-1.139939 -0.5929279,-1.383325 -0.5929279,-3.224766 0,-1.846422 0.0442,-2.085075 0.6057117,-3.270434 C -2.7337195,10.080994 -1.3678679,8.717156 0.28235677,7.9449232 2.8257583,6.7547217 6.0252753,7.0643151 8.1989979,8.7109574 9.3344574,9.5710931 10.479506,11.035556 10.825946,12.0707 l 0.253298,0.756842 -2.1701316,2.467924 c -1.1935722,1.357358 -2.3008113,2.467925 -2.4605315,2.467925 -0.1597201,0 -0.4887669,-0.313432 -0.7312157,-0.696516 L 5.2765498,16.370359 5.922078,15.989489 C 6.6815858,15.541367 7.0665486,14.862126 7.2281475,13.68501 7.399105,12.439732 7.100379,11.450102 6.3168398,10.666002 L 5.6373381,9.9860141 2.3203998,9.9263711 -0.99653766,9.8667281 v 0.9606879 c 0,0.898272 0.0308097,0.960688 0.47423035,0.960688 h 0.47423036 v 4.088775 4.088774 l 0.9010377,-0.05783 0.90103765,-0.05783 0.054807,-1.659806 0.054807,-1.659807 H 2.492319 c 0.5675745,0 0.714173,0.12853 1.5076778,1.321851 1.0035881,1.509257 1.5526276,1.940854 2.4689834,1.940854 0.958945,0 1.2750509,-0.239375 3.1011267,-2.34837 1.7952811,-2.073429 2.0273571,-2.10929 1.4806811,-0.228794 -0.72714,2.501274 -2.7226324,4.55413 -5.1395819,5.28733 -1.2595019,0.38208 -3.5426994,0.355889 -4.7287634,-0.05425 z m 0.6663996,-9.333087 v -1.327845 h 1.3403151 c 1.8369845,0 2.4448643,0.341136 2.4506227,1.375267 0.00532,0.96041 -0.5628378,1.280423 -2.2734007,1.280423 H 1.8488445 Z"
         id="path5" /></g></g></svg>
