<?xml version="1.0" encoding="UTF-8" standalone="no"?>
<svg
   width="143"
   height="30"
   viewBox="0 0 143 30"
   fill="none"
   version="1.1"
   id="svg3"
   xml:space="preserve"
   xmlns="http://www.w3.org/2000/svg"
   xmlns:svg="http://www.w3.org/2000/svg"><defs
     id="defs3" /><g
     id="g5"
     transform="translate(8.958115)"><g
       id="g6"
       transform="translate(5.293085)"><path
         d="M 0,15 C 0,6.71573 5.3771678,0 12.010238,0 h 90.477122 c 6.63286,0 12.01024,6.71573 12.01024,15 v 0 c 0,8.2843 -5.37738,15 -12.01024,15 H 12.010238 C 5.3771678,30 0,23.2843 0,15 Z"
         fill="#1b1b1b"
         id="path1"
         style="fill:#000000;fill-opacity:1;stroke-width:0.894808" /><text
         xml:space="preserve"
         style="font-style:normal;font-variant:normal;font-weight:bold;font-stretch:normal;font-size:18.6667px;font-family:Roboto;-inkscape-font-specification:'Roboto, Bold';font-variant-ligatures:normal;font-variant-caps:normal;font-variant-numeric:normal;font-variant-east-asian:normal;text-align:start;writing-mode:lr-tb;direction:ltr;text-anchor:start;fill:#ffffff;stroke-width:0.07"
         x="37.037197"
         y="21.241955"
         id="text3"><tspan
           id="tspan3"
           x="37.037197"
           y="21.241955">Runway</tspan></text><path
         style="fill:#ffffff;fill-opacity:1;stroke-width:0.751543"
         d="m 23.89368,22.819438 c -0.67201,-0.174842 -1.402766,-0.694974 -2.590187,-1.843621 -0.68026,-0.658046 -1.264405,-1.196448 -1.298101,-1.196448 -0.03369,0 -0.06127,0.09261 -0.06127,0.205793 0,0.391917 -0.576836,1.421246 -1.031146,1.840012 -0.246682,0.227385 -0.697943,0.530354 -1.002801,0.673267 -0.486762,0.228185 -0.673272,0.25942 -1.530979,0.256394 -0.780817,-0.0028 -1.088373,-0.04788 -1.533566,-0.225006 -0.777814,-0.309465 -1.466609,-0.959754 -1.857452,-1.753619 L 12.667771,20.125406 V 15.04451 9.963613 L 12.90259,9.3775983 c 0.315103,-0.7863744 1.226817,-1.6936012 2.025761,-2.0157915 l 0.571827,-0.2306004 h 5.029964 c 5.806429,0 5.648333,-0.021419 6.646267,0.9003118 0.763057,0.704787 1.091812,1.4456356 1.148572,2.5883028 0.03561,0.717022 0.0057,0.955272 -0.189257,1.508136 -0.392395,1.112655 -1.421864,2.034497 -2.502366,2.240752 -0.174583,0.03333 -0.317424,0.08666 -0.317424,0.118512 0,0.03185 0.569633,0.633189 1.265854,1.336297 0.942093,0.951415 1.329243,1.41684 1.513695,1.819735 0.339642,0.741877 0.410407,1.537591 0.207262,2.330548 -0.443869,1.732591 -1.689491,2.80821 -3.343226,2.88694 -0.42173,0.02008 -0.901358,0.0015 -1.06584,-0.04131 z m -6.74417,-2.441564 c 0.155078,-0.08745 0.363846,-0.312137 0.463928,-0.499311 0.170002,-0.317943 0.181966,-0.638161 0.181966,-4.870163 0,-4.511951 -9.01e-4,-4.531383 -0.218988,-4.919483 -0.244432,-0.4349059 -0.777578,-0.7601537 -1.246048,-0.7601537 -0.484647,0 -1.047338,0.3454875 -1.268387,0.7787767 -0.188679,0.369843 -0.196652,0.568177 -0.196652,4.891803 0,3.984799 0.01865,4.545623 0.161103,4.845832 0.347893,0.733129 1.33043,0.979656 2.123078,0.532699 z m 8.348503,0.01369 c 0.611277,-0.45268 0.871969,-1.256184 0.588885,-1.815061 -0.05943,-0.117334 -0.971007,-1.081369 -2.02572,-2.142301 l -1.917662,-1.928967 h -1.05086 -1.050859 v 1.006761 1.006761 l 1.952905,1.94404 c 1.074097,1.069221 2.05201,2.001577 2.173139,2.0719 0.295738,0.171696 1.008628,0.09499 1.330172,-0.143133 z m -0.08289,-8.310868 c 0.373009,-0.195261 0.78127,-0.868886 0.777685,-1.283169 -0.0036,-0.420916 -0.35656,-1.0614798 -0.700277,-1.2710389 -0.303551,-0.1850693 -0.487762,-0.1970135 -3.043875,-0.1973569 -2.551337,-3.414e-4 -2.716658,0.01028 -2.654731,0.170556 0.147112,0.3807632 0.247869,1.1702898 0.247869,1.9422988 v 0.816858 h 2.516505 c 2.246063,0 2.553079,-0.01915 2.856824,-0.178148 z"
         id="path5" /></g></g></svg>
