<?xml version="1.0" encoding="UTF-8" standalone="no"?>
<svg
   width="143"
   height="30"
   viewBox="0 0 143 30"
   fill="none"
   version="1.1"
   id="svg3"
   xml:space="preserve"
   xmlns="http://www.w3.org/2000/svg"
   xmlns:svg="http://www.w3.org/2000/svg"><defs
     id="defs3" /><g
     id="g3"
     transform="translate(33.898634)"><g
       id="g4"
       transform="translate(-4.233631)"><path
         d="m -21.843076,15 c 0,-8.28427 5.981045,-15 13.3590372,-15 H 92.154032 c 7.377749,0 13.359038,6.71573 13.359038,15 v 0 c 0,8.2843 -5.981289,15 -13.359038,15 H -8.4840388 C -15.862031,30 -21.843076,23.2843 -21.843076,15 Z"
         fill="#1B1B1B"
         id="path1"
         style="fill:#032d42;fill-opacity:1;stroke-width:0.943717" /><text
         xml:space="preserve"
         style="font-weight:bold;font-size:16px;font-family:Roboto;-inkscape-font-specification:'Roboto, Bold';text-align:start;writing-mode:lr-tb;direction:ltr;text-anchor:start;fill:#ffffff;fill-opacity:1;stroke-width:0.07"
         x="9.7776775"
         y="20.28425"
         id="text3"><tspan
           id="tspan3"
           x="9.7776775"
           y="20.28425">ServiceNow</tspan></text><path
         style="fill:#72bc4e;fill-opacity:1;stroke-width:1.12317"
         d="m -11.57905,20.081773 c -2.377934,-6.196798 1.117784,-12.075774 7.180417,-12.075774 6.062631,0 9.558349,5.878976 7.180415,12.075774 -0.978388,2.549637 -13.382444,2.549637 -14.360832,0 z m 3.260191,-4.120013 c -0.01022,-3.425051 0.231708,-3.650291 3.920226,-3.650291 3.663521,0 3.930767,0.241342 3.926466,3.54589 -0.0026,1.95024 0.37653,3.31033 0.842375,3.022422 1.941973,-1.200205 0.725858,-6.034313 -1.960925,-7.794762 -2.60111,-1.7043107 -3.014724,-1.7043107 -5.615832,0 -1.653937,1.083701 -2.807916,2.906225 -2.807916,4.434647 0,2.046768 0.800778,4.092384 1.602009,4.092384 0.05745,0 0.09957,-1.64263 0.09359,-3.65029 z m 5.968122,-0.09308 c 0.244856,-1.262532 -0.395399,-1.872469 -1.965541,-1.872469 -1.28078,0 -2.328688,0.6739 -2.328688,1.497556 0,3.439969 3.638188,3.757606 4.294229,0.374913 z"
         id="path4" /></g></g></svg>
