<?xml version="1.0" encoding="UTF-8" standalone="no"?>
<svg
   width="143"
   height="30"
   viewBox="0 0 143 30"
   fill="none"
   version="1.1"
   id="svg3"
   xml:space="preserve"
   xmlns="http://www.w3.org/2000/svg"
   xmlns:svg="http://www.w3.org/2000/svg"><defs
     id="defs3" /><g
     id="g18"
     transform="translate(-4.1999275)"><g
       id="g4"><path
         d="M 26.011555,15 C 26.011555,6.7157301 30.6786,1.2e-7 36.43569,1.2e-7 h 78.52848 C 120.72108,1.2e-7 125.3883,6.7157301 125.3883,15 v 0 c 0,8.2843 -4.66722,15 -10.42413,15 H 36.43569 C 30.6786,30 26.011555,23.2843 26.011555,15 Z"
         fill="#1b1b1b"
         id="path1"
         style="fill:#fca38c;fill-opacity:1;stroke:none;stroke-width:0.833632" /><text
         xml:space="preserve"
         style="font-style:normal;font-variant:normal;font-weight:bold;font-stretch:normal;font-size:18.6663px;font-family:Roboto;-inkscape-font-specification:'Roboto, Bold';font-variant-ligatures:normal;font-variant-caps:normal;font-variant-numeric:normal;font-variant-east-asian:normal;text-align:start;writing-mode:lr-tb;direction:ltr;text-anchor:start;fill:#ffffff;fill-opacity:1;stroke:none;stroke-width:0.05;stroke-dasharray:none;stroke-opacity:1"
         x="63.756454"
         y="21.503725"
         id="text3"><tspan
           id="tspan3"
           x="63.756454"
           y="21.503725"
           style="font-style:normal;font-variant:normal;font-weight:bold;font-stretch:normal;font-size:18.6663px;font-family:Roboto;-inkscape-font-specification:'Roboto, Bold';font-variant-ligatures:normal;font-variant-caps:normal;font-variant-numeric:normal;font-variant-east-asian:normal;fill:#ffffff;fill-opacity:1;stroke:none;stroke-width:0.05;stroke-dasharray:none;stroke-opacity:1">Shisa</tspan></text><path
         style="fill:#ffffff;fill-opacity:1;stroke:#ffffff;stroke-width:0.184;stroke-dasharray:none;stroke-opacity:1"
         d="m 48.800117,23.941438 c -0.146596,-0.03192 -0.294868,-0.13186 -0.329491,-0.222086 -0.08976,-0.233917 -1.852688,-0.223646 -2.16505,0.01262 -0.297551,0.225057 -1.739337,0.226692 -2.169188,0.0025 -0.27548,-0.143704 -0.358823,-0.143704 -0.634303,0 -0.39506,0.206082 -1.823642,0.217877 -2.220063,0.01833 -0.352694,-0.177536 -0.437367,-0.675109 -0.181372,-1.065807 0.211305,-0.322492 0.223365,-0.532754 0.06356,-1.108081 -0.122581,-0.441317 -0.474047,-0.647372 -0.680306,-0.398845 -0.06304,0.07597 -0.255765,0.576611 -0.42826,1.112542 -0.172497,0.535931 -0.386462,1.060942 -0.475478,1.166691 -0.211786,0.251592 -1.093999,0.363237 -1.801312,0.227957 C 36.98172,23.53476 36.8009,23.149425 37.241237,22.541522 l 0.226347,-0.312482 -0.34155,-1.845246 c -0.392725,-2.121723 -0.407523,-2.579893 -0.11908,-3.687055 l 0.209425,-0.803857 -0.278661,-0.441427 c -0.153264,-0.242786 -0.355667,-0.470978 -0.449786,-0.507095 -0.338699,-0.12997 -0.78563,-1.081261 -0.776992,-1.653823 0.0092,-0.607838 0.149139,-0.93768 0.611495,-1.44101 0.38155,-0.415362 0.470605,-0.89923 0.498809,-2.7102048 0.01614,-1.0362367 0.06808,-1.4217205 0.23751,-1.7627392 0.429685,-0.8648248 1.09613,-0.8551819 2.064521,0.029871 l 0.618122,0.5649283 0.873551,-0.066066 0.873549,-0.066066 0.265108,-0.6271356 C 42.058118,6.491762 42.545541,6.025467 42.994019,6.025467 c 0.356174,0 1.107124,0.4720712 1.287708,0.8094958 0.14354,0.2682091 0.408005,0.2999916 0.500061,0.060097 0.109003,-0.2840571 1.014295,-0.8695923 1.344471,-0.8695923 0.422808,0 0.876067,0.4480849 1.225638,1.2116486 0.275023,0.6007303 0.312106,0.6335979 0.714857,0.6335979 0.233633,0 0.588217,0.046869 0.787966,0.1041582 0.322062,0.092368 0.400315,0.064495 0.691205,-0.2461587 0.180415,-0.1926739 0.558754,-0.4990328 0.840751,-0.6807978 0.858504,-0.5533581 1.363352,-0.4204188 1.696269,0.4466662 0.225292,0.5867784 0.290345,2.0324791 0.116377,2.5863101 -0.09598,0.305554 -0.09409,0.306719 0.338918,0.209059 0.460484,-0.103855 0.98972,-0.04396 1.372191,0.155307 0.12686,0.0661 0.370848,0.110048 0.542195,0.09768 0.365173,-0.02637 1.043634,0.516613 1.324725,1.060182 0.100586,0.194512 0.194975,0.66686 0.209756,1.049664 0.03457,0.895307 0.02821,0.872768 0.225053,0.797231 0.237857,-0.09127 0.337604,0.401881 0.243028,1.201543 -0.04279,0.361794 -0.07639,0.808959 -0.07468,0.993699 0.0045,0.488294 -0.550159,1.303482 -1.00268,1.473547 -0.267333,0.100467 -0.357315,0.193932 -0.307654,0.319559 0.174359,0.441074 0.190811,1.585683 0.05193,3.612893 -0.18457,2.694079 -0.206518,2.728725 -1.67299,2.640832 -0.884763,-0.05302 -1.074725,-0.25081 -0.86148,-0.896947 0.101314,-0.306986 0.08771,-0.451532 -0.07162,-0.760862 -0.260144,-0.505053 -0.740802,-1.131509 -0.868167,-1.131509 -0.05591,0 -0.10164,0.396523 -0.10164,0.88116 0,0.950376 -0.301885,1.793273 -0.722978,2.018635 -0.243084,0.130094 -1.627132,0.225105 -2.023113,0.13888 z m 1.411581,-0.336707 c 0.09968,-0.09968 0.18123,-0.125624 0.18123,-0.05766 0,0.183345 0.296106,0.149634 0.464146,-0.05284 0.118512,-0.142798 0.117367,-0.236181 -0.006,-0.490145 -0.08383,-0.172554 -0.138161,-0.365633 -0.120747,-0.429064 0.01742,-0.06344 0.180576,-0.71215 0.36258,-1.441599 0.182004,-0.729449 0.435904,-1.663605 0.564222,-2.075903 0.255784,-0.821857 0.300186,-1.779125 0.113675,-2.450717 -0.136245,-0.490596 -0.222709,-0.531322 -0.428483,-0.201825 -0.07923,0.126861 -0.196242,0.230656 -0.260035,0.230656 -0.06379,0 0.02209,-0.208645 0.190846,-0.463656 0.168759,-0.255011 0.279716,-0.490774 0.246571,-0.523919 -0.08341,-0.08341 -0.896114,0.314822 -0.896114,0.439102 0,0.05543 -0.05651,0.06586 -0.125569,0.02317 -0.07107,-0.04392 0.13215,-0.224796 0.468191,-0.416717 C 52.776593,14.659657 53.4046,13.172017 52.480476,12.10655 52.264073,11.857047 52.132622,11.547031 52.082052,11.166897 51.885418,9.6888422 50.401579,8.3917263 48.559354,8.0874902 47.914706,7.9810285 47.709499,7.9834271 47.57018,8.0990547 47.422288,8.221794 47.394395,8.2069641 47.394395,8.0055937 c 0,-0.5198918 -0.694146,-1.6929757 -1.058098,-1.7881516 -0.366706,-0.095896 -0.720578,0.093199 -1.300488,0.6949265 -0.776602,0.8058218 -1.25959,1.8418518 -1.243611,2.667603 0.03961,2.0465724 0.0266,2.1994564 -0.22323,2.6228714 -0.29791,0.504922 -0.316289,1.305068 -0.04033,1.755864 0.105285,0.171991 0.564047,0.663931 1.019471,1.093201 0.455425,0.429268 0.724249,0.746376 0.597389,0.704684 -0.126861,-0.0417 -0.282554,-0.13414 -0.345984,-0.205437 -0.132948,-0.149435 -0.710867,-0.530106 -0.804785,-0.530106 -0.148763,0 0.328309,0.89742 0.66647,1.253697 0.325233,0.342658 0.33496,0.369999 0.08205,0.230655 -0.157803,-0.08694 -0.355362,-0.248902 -0.439019,-0.359904 -0.464121,-0.615835 -0.496979,0.224723 -0.04255,1.0886 0.224101,0.426023 0.299297,0.693043 0.238761,0.847838 -0.08395,0.214691 -0.08877,0.213607 -0.09647,-0.02176 -0.0044,-0.136244 -0.137224,-0.473578 -0.295036,-0.749631 -0.157812,-0.276054 -0.291771,-0.605711 -0.297686,-0.732572 -0.0085,-0.182228 -0.04401,-0.158013 -0.16918,0.115328 -0.287395,0.627648 -0.2058,1.998523 0.225353,3.786114 0.499224,2.069821 0.500849,2.081592 0.31776,2.3022 -0.212842,0.25646 -0.130526,0.720242 0.124243,0.700015 0.110973,-0.0088 0.201769,0.03012 0.201769,0.0865 0,0.196581 0.346087,0.100939 0.359362,-0.09931 0.01274,-0.192213 0.01589,-0.192213 0.06612,0 0.03996,0.152892 0.173421,0.201825 0.550485,0.201825 0.77389,0 0.95847,-0.227089 1.16792,-1.436898 0.09839,-0.568286 0.202411,-1.071316 0.231167,-1.117845 0.02875,-0.04653 -0.169508,-0.183556 -0.440587,-0.304509 -0.584432,-0.260767 -1.502548,-1.209616 -1.754947,-1.813694 -0.269135,-0.644128 -0.215937,-0.764298 0.07562,-0.170827 0.405835,0.826081 1.330879,1.678251 2.055294,1.893378 0.338044,0.100389 0.730011,0.182524 0.871039,0.182524 0.231275,0 0.250526,-0.04389 0.196366,-0.447684 -0.03303,-0.246226 -0.0037,-0.544637 0.06513,-0.663135 0.107361,-0.184786 0.125508,-0.157998 0.127494,0.188196 0.0034,0.610879 0.488565,3.380663 0.622678,3.555607 0.06469,0.08439 0.237549,0.130509 0.384125,0.102488 0.146577,-0.02802 0.266502,-0.0063 0.266502,0.04839 0,0.171661 0.666918,0.10791 0.856722,-0.08189 z m -0.164754,-7.012644 c 0,-0.02394 0.09082,-0.114769 0.201825,-0.201823 0.182916,-0.143453 0.186995,-0.139374 0.04354,0.04354 -0.150661,0.192107 -0.245366,0.2532 -0.245366,0.158281 z m -0.691967,-1.917032 c -0.126861,-0.126861 -0.230657,-0.291843 -0.230657,-0.366627 0,-0.07478 -0.181641,-0.302348 -0.403647,-0.505697 -0.284447,-0.260544 -0.403648,-0.469009 -0.403648,-0.705923 0,-0.184908 -0.06228,-0.398473 -0.138393,-0.47459 -0.07612,-0.07612 -0.104424,-0.138394 -0.06291,-0.138394 0.04152,0 0.205231,0.129745 0.363807,0.288321 0.355816,0.355815 0.899407,0.378322 1.423252,0.05893 0.46445,-0.283182 0.47044,-0.418891 0.02957,-0.669765 -0.189889,-0.108053 -0.345582,-0.241737 -0.345983,-0.297077 -3.84e-4,-0.05534 0.07249,-0.03984 0.161994,0.03443 0.111241,0.09232 0.186372,0.09679 0.237463,0.01412 0.135184,-0.218733 0.309514,-0.127827 0.230753,0.120329 -0.06102,0.192228 -0.0333,0.232923 0.136388,0.200245 0.117128,-0.02256 0.21296,-0.113824 0.21296,-0.202815 0,-0.08899 0.06486,-0.183426 0.14416,-0.209855 0.238069,-0.07935 0.162336,0.299309 -0.0865,0.43248 -0.126859,0.06789 -0.230655,0.223586 -0.230655,0.345984 0,0.308758 0.393703,0.505609 0.691967,0.345983 0.388862,-0.208112 0.307267,-0.812357 -0.166314,-1.231633 -0.294938,-0.26112 -0.380288,-0.415248 -0.332063,-0.599657 0.150653,-0.576102 0.552244,-0.371285 0.659678,0.336445 0.03814,0.251292 0.100151,0.658147 0.13779,0.904123 0.05811,0.379735 0.02813,0.475459 -0.198653,0.634303 -0.146898,0.102891 -0.355011,0.187075 -0.462472,0.187075 -0.272084,0 -0.319478,0.224059 -0.139104,0.657619 0.175091,0.420857 0.06058,0.880076 -0.249091,0.998906 -0.356965,0.136981 -0.748257,0.07417 -0.979689,-0.157262 z m 1.142274,-0.259487 c 0.170463,-0.456532 -0.271036,-1.239775 -0.698837,-1.239775 -0.248019,0 -0.271233,0.117961 -0.06863,0.34869 0.07929,0.09029 0.03627,0.07471 -0.09558,-0.0346 -0.504065,-0.417917 -1.118585,-0.14033 -0.697564,0.315098 0.134934,0.14596 0.338577,0.401438 0.452542,0.567728 0.27907,0.407201 0.96215,0.433621 1.108058,0.04285 z m -3.310439,-2.646776 c -0.178404,-0.178403 -0.178404,-0.698089 0,-0.876493 0.181033,-0.181034 0.631065,-0.177589 0.744342,0.0057 0.118184,0.191228 0.0522,0.806314 -0.102078,0.951525 -0.08373,0.07881 -0.09676,0.06968 -0.04114,-0.02883 0.135839,-0.240605 -0.034,-0.39018 -0.288437,-0.254013 -0.124787,0.06679 -0.196422,0.17072 -0.159187,0.230968 0.09412,0.152282 0.01224,0.136892 -0.153501,-0.02885 z m 2.953836,-0.401701 c 0.08326,-0.03331 0.182724,-0.02922 0.221046,0.0091 0.03832,0.03832 -0.0298,0.06558 -0.151369,0.06057 -0.13435,-0.0055 -0.161678,-0.03286 -0.06968,-0.06968 z M 45.065017,9.5141308 c 0.05534,-0.1110036 0.167222,-0.5132091 0.248623,-0.8937906 0.147262,-0.6884981 0.525254,-1.6238817 0.699812,-1.7317639 0.225796,-0.1395501 0.473324,0.1332635 0.639473,0.7047934 0.177878,0.6118778 0.153285,0.853978 -0.08675,0.853978 -0.07733,0 -0.06961,-0.063901 0.02093,-0.1729917 0.120471,-0.1451582 0.101311,-0.1729916 -0.119081,-0.1729916 -0.255347,0 -0.256846,-0.00645 -0.05391,-0.2306563 0.269481,-0.2977721 0.0079,-0.3198514 -0.406818,-0.034337 -0.26962,0.1856284 -0.276403,0.1854764 -0.124555,-0.00281 0.164976,-0.2045389 0.08346,-0.436952 -0.08541,-0.243508 -0.129048,0.1478294 -0.392601,1.0972728 -0.32371,1.1661622 0.03067,0.030677 0.160607,-3.218e-4 0.288731,-0.068894 0.399809,-0.2139712 0.440066,-0.1353692 0.05189,0.1013155 -0.20307,0.1238185 -0.450916,0.3831126 -0.550769,0.5762085 -0.09985,0.1930969 -0.207995,0.3510846 -0.240313,0.3510846 -0.03231,0 -0.01349,-0.090823 0.04186,-0.2018248 z m 1.406761,-2.1482766 c 0,-0.087379 -0.07096,-0.2177625 -0.15769,-0.2897425 -0.120278,-0.099821 -0.193763,-0.087405 -0.309736,0.052336 -0.126543,0.1524747 -0.124273,0.2007775 0.01353,0.2879764 0.24359,0.1541362 0.453896,0.130707 0.453896,-0.050562 z m -4.136099,16.0452918 0.01571,-0.259488 0.04998,0.259488 c 0.03943,0.204712 0.127407,0.259129 0.416775,0.257788 0.633985,-0.003 0.913449,-0.227205 1.075731,-0.86326 0.13636,-0.534449 0.118977,-0.694771 -0.237595,-2.19123 -0.501212,-2.103484 -0.556074,-2.616321 -0.373207,-3.48867 0.0831,-0.39644 0.131454,-0.7208 0.107446,-0.7208 -0.02401,0 -0.157933,0.119314 -0.297608,0.265141 -0.139677,0.145826 -0.188971,0.180538 -0.109545,0.07714 0.07942,-0.103402 0.119127,-0.213288 0.08822,-0.244191 -0.0309,-0.0309 0.124677,-0.231488 0.345732,-0.445744 0.221057,-0.214257 0.40192,-0.457223 0.40192,-0.539925 0,-0.192374 0.0026,-0.192696 -0.634303,0.08029 -0.796959,0.341616 -0.900097,0.279567 -0.172991,-0.104074 0.758638,-0.400278 0.825652,-0.621483 0.388435,-1.282163 -0.400391,-0.605032 -0.427012,-1.361697 -0.07188,-2.043035 0.248353,-0.476477 0.296525,-1.000244 0.230857,-2.5101168 L 43.52925,8.966326 42.921107,8.6399808 C 42.32237,8.3186844 42.314147,8.3070886 42.389542,7.8903496 c 0.08809,-0.486964 0.35364,-1.0575904 0.49215,-1.0575904 0.178997,0 0.489277,0.4369732 0.694881,0.9786132 l 0.206085,0.5429145 0.295614,-0.5005628 C 44.410947,7.2904031 44.389694,7.2034894 43.77454,6.6117143 43.332234,6.1862172 42.828777,6.092742 42.490673,6.3733433 42.283788,6.5450435 41.86393,7.3178654 41.752889,7.7313668 c -0.06386,0.2377665 -0.151846,0.2686219 -0.876397,0.3073021 -1.992051,0.1063455 -3.766352,1.4341385 -3.937527,2.9466361 -0.05859,0.517651 -0.14065,0.697923 -0.448559,0.985349 -0.478759,0.446911 -0.684134,1.148008 -0.51753,1.766724 0.162313,0.602782 0.461335,0.956181 1.338957,1.58244 0.801035,0.571606 0.943944,0.734717 0.395016,0.450855 -0.424089,-0.219304 -0.43398,-0.125375 -0.0468,0.444413 0.262665,0.386547 0.270931,0.425172 0.06771,0.316413 -0.127309,-0.06813 -0.257846,-0.189346 -0.290082,-0.269361 -0.03224,-0.08002 -0.0627,0.09006 -0.06771,0.377941 -0.0052,0.301965 0.08295,0.70398 0.208466,0.950175 0.119664,0.234714 0.171561,0.398317 0.115328,0.363562 -0.198012,-0.122377 -0.09853,0.267001 0.242665,0.949788 0.490254,0.981084 1.458622,1.694447 2.635191,1.941253 l 0.385222,0.0808 -0.08324,-0.777261 c -0.06072,-0.567014 -0.04794,-0.755446 0.04726,-0.69661 0.07178,0.04436 0.132994,0.220306 0.136046,0.390997 0.0031,0.170689 0.125939,0.82932 0.273083,1.463624 0.265543,1.144679 0.26586,1.15513 0.04261,1.401481 -0.24014,0.264995 -0.242519,0.740639 -0.0041,0.819159 0.07928,0.02611 0.147448,-0.04767 0.15147,-0.163958 0.006,-0.173539 0.026,-0.164927 0.111611,0.04806 0.06967,0.173323 0.201276,0.259488 0.396337,0.259488 0.221314,0 0.29584,-0.06284 0.307743,-0.259488 z M 38.283496,15.049692 C 37.779872,14.798103 37.687384,14.28827 38.037669,13.694581 L 38.268685,13.30304 37.84361,13.095256 c -0.494926,-0.241929 -0.605806,-0.654686 -0.331338,-1.233438 0.09345,-0.197054 0.215635,-0.513973 0.271521,-0.704264 0.119464,-0.406778 0.425786,-0.460499 0.479214,-0.08404 0.026,0.183219 -0.08664,0.371565 -0.374816,0.626693 -0.453981,0.401924 -0.544643,0.865146 -0.230761,1.17903 0.240285,0.240285 0.347676,0.228963 0.644597,-0.06796 l 0.249187,-0.249187 -0.272511,-0.220665 c -0.14988,-0.121366 -0.283369,-0.294668 -0.296645,-0.385117 -0.03699,-0.252054 0.151137,-0.195319 0.219526,0.0662 0.03317,0.126861 0.14652,0.230657 0.251879,0.230657 0.142081,0 0.171718,-0.06252 0.11474,-0.242042 -0.0653,-0.205747 -0.04068,-0.23057 0.164188,-0.165547 0.345806,0.109754 0.520484,-0.02878 0.335169,-0.265815 -0.136011,-0.173969 -0.130031,-0.17603 0.06512,-0.02244 0.204795,0.16118 0.195449,0.185535 -0.199153,0.518976 -0.435246,0.367784 -0.430323,0.468006 0.03877,0.789023 0.422747,0.289303 0.960986,0.245523 1.40709,-0.114452 0.211014,-0.170275 0.318791,-0.237742 0.239504,-0.149926 -0.07929,0.08782 -0.144161,0.33127 -0.144161,0.541009 0,0.263031 -0.08945,0.459123 -0.288319,0.632036 -0.158576,0.137879 -0.28832,0.348538 -0.28832,0.46813 0,0.342661 -0.208795,0.646361 -0.574331,0.835387 -0.428809,0.221745 -0.547018,0.218584 -1.04026,-0.02782 z m 1.216185,-0.31173 c 0.155692,-0.155693 0.283078,-0.377685 0.283078,-0.493315 0,-0.11563 0.08474,-0.331227 0.188322,-0.479105 0.157841,-0.225347 0.162507,-0.285218 0.02883,-0.369878 -0.233343,-0.147785 -0.723101,-0.126448 -0.909327,0.03961 -0.137531,0.122641 -0.138866,0.114034 -0.009,-0.05766 0.13509,-0.178526 0.121136,-0.2014 -0.120889,-0.198155 -0.483811,0.0065 -1.023241,0.622615 -1.023241,1.168732 0,0.660028 1.033938,0.918 1.56217,0.389769 z m 1.512246,-2.917273 c -0.100779,-0.164312 -0.124766,-0.779069 -0.036,-0.922692 0.120857,-0.19555 0.592109,-0.182321 0.761156,0.02137 0.183919,0.221609 0.10776,0.898082 -0.109077,0.968863 -0.152579,0.04981 -0.153028,0.03044 -0.0038,-0.164112 0.09306,-0.121318 0.123778,-0.182105 0.06827,-0.135082 -0.0555,0.04702 -0.168289,0.02958 -0.250634,-0.03876 -0.187921,-0.15596 -0.427066,-0.02011 -0.344297,0.195586 0.06517,0.169835 0.005,0.222477 -0.08562,0.07483 z m -1.642148,11.511707 c 0.101559,-0.08429 0.264474,-0.444871 0.362033,-0.801297 0.09756,-0.356427 0.247085,-0.838927 0.332279,-1.072223 l 0.1549,-0.424175 -0.618023,-0.250837 c -0.380096,-0.154269 -0.800241,-0.448521 -1.091342,-0.764328 -0.491946,-0.533699 -1.029074,-1.542627 -1.034035,-1.942307 -0.0016,-0.126861 -0.07241,-0.430402 -0.157405,-0.674538 -0.115675,-0.332249 -0.173246,-0.395136 -0.228918,-0.250056 -0.11401,0.297104 -0.0831,1.66957 0.05068,2.250205 0.06569,0.285073 0.216472,1.087144 0.335092,1.782379 0.214031,1.25445 0.213928,1.265285 -0.0135,1.424578 -0.327285,0.229239 -0.248575,0.738896 0.129985,0.841671 0.456827,0.124025 1.5756,0.04911 1.77825,-0.119072 z m 14.498692,-0.03658 0.01571,-0.259487 0.05064,0.264504 c 0.04027,0.210346 0.101993,0.249137 0.301445,0.189447 0.472201,-0.141313 0.521458,-0.30518 0.659854,-2.195174 0.193576,-2.643571 0.135471,-3.514978 -0.290424,-4.355533 -0.45324,-0.894518 -1.583804,-1.803207 -2.243497,-1.803207 -0.253849,0 -0.646602,0.614852 -0.521774,0.816829 0.130254,0.210754 0.225116,1.067289 0.209693,1.893377 -0.0098,0.52576 -0.123358,1.14287 -0.32558,1.769544 -0.170778,0.529238 -0.285588,0.987169 -0.255132,1.017624 0.125705,0.125706 0.767795,-0.333417 1.102174,-0.788103 0.197213,-0.268168 0.358569,-0.447781 0.358569,-0.399141 0,0.172174 -0.686668,1.083571 -0.869145,1.153594 -0.165313,0.06343 -0.160989,0.105156 0.04028,0.388692 0.124009,0.174696 0.38771,0.593269 0.586006,0.930164 0.321556,0.546311 0.341705,0.631366 0.18637,0.786701 -0.223691,0.223693 -0.221104,0.436475 0.0076,0.626296 0.150652,0.125031 0.199723,0.122511 0.286553,-0.01471 0.08604,-0.135979 0.105088,-0.129499 0.106539,0.03624 0.0011,0.137923 0.09306,0.201824 0.290086,0.201824 0.217459,0 0.29218,-0.06378 0.304025,-0.259488 z m -6.833698,-0.288319 c 0.01173,0.272473 0.06239,0.317152 0.359629,0.317152 0.247526,0 0.349791,-0.05743 0.359362,-0.201824 0.01227,-0.185245 0.01782,-0.184704 0.06739,0.0066 0.03107,0.119907 0.135586,0.191829 0.246111,0.169367 0.221314,-0.04498 0.215272,-0.611972 -0.01653,-1.551181 -0.125212,-0.507324 -0.169925,-0.559666 -0.505881,-0.592183 -0.342041,-0.03311 -0.377432,-0.0027 -0.492396,0.424337 -0.100936,0.374852 -0.25333,1.261041 -0.260395,1.514245 -0.0072,0.256942 0.06889,0.225843 0.141033,-0.05766 l 0.08804,-0.345984 z m 0.338006,-0.568926 c 0.08326,-0.03332 0.182721,-0.02921 0.221044,0.0091 0.03832,0.03832 -0.02979,0.06558 -0.151367,0.06057 -0.134351,-0.0055 -0.161679,-0.03286 -0.06967,-0.06968 z m 3.986021,0.06437 c 0.109256,-0.546282 0.08488,-1.462009 -0.03338,-1.254191 -0.148439,0.26084 -0.366787,1.388263 -0.292229,1.5089 0.125624,0.203268 0.254117,0.102754 0.325609,-0.254709 z m 4.208889,-5.624945 c 0.128307,-0.08128 0.119359,-0.12171 -0.04761,-0.215155 -0.192995,-0.108005 -0.191426,-0.119571 0.02559,-0.188448 0.12716,-0.04036 0.356178,-0.209708 0.508929,-0.376331 l 0.277729,-0.30295 -0.357493,0.06793 -0.357492,0.06793 0.311918,-0.33391 c 0.222457,-0.238139 0.33226,-0.505663 0.382841,-0.93274 0.08692,-0.733903 -0.03967,-1.054652 -0.280543,-0.710846 -0.148143,0.211448 -0.161386,0.190691 -0.171471,-0.268739 -0.02582,-1.176261 -1.489162,-2.15789 -2.647128,-1.775727 -0.318087,0.104978 -0.395206,0.180676 -0.333027,0.326885 0.273081,0.642133 0.310533,1.161061 0.124782,1.728964 -0.104439,0.319302 -0.190684,0.674593 -0.191654,0.789535 -0.0013,0.161237 -0.02442,0.173235 -0.100912,0.05252 -0.06911,-0.109077 -0.123041,-0.117811 -0.178033,-0.02883 -0.04338,0.0702 -0.02392,0.134128 0.04325,0.142056 0.22356,0.02639 0.293399,0.05047 0.531548,0.183208 0.218669,0.121891 0.236422,0.101084 0.236422,-0.277087 0,-0.251717 0.07535,-0.463977 0.196058,-0.552235 0.218135,-0.159505 0.263035,-0.406253 0.07392,-0.406253 -0.06717,0 -0.09006,-0.0519 -0.05086,-0.115328 0.0392,-0.06343 0.210932,-0.109307 0.381622,-0.10195 0.210419,0.0091 0.242635,0.03089 0.100054,0.06775 -0.123648,0.03197 -0.184536,0.121494 -0.14778,0.217278 0.0862,0.22465 -0.03843,0.508889 -0.223135,0.508889 -0.250764,0 -0.320259,0.44608 -0.117666,0.755278 0.244249,0.37277 0.929379,0.38908 1.404118,0.03342 l 0.332706,-0.249249 -0.260719,0.276108 c -0.143394,0.151859 -0.454779,0.3324 -0.691967,0.4012 l -0.431249,0.125094 0.374402,0.232889 c 0.205921,0.128089 0.344492,0.262799 0.307937,0.299354 -0.03656,0.03655 0.0215,0.200712 0.129005,0.36479 0.19723,0.301012 0.549947,0.382197 0.845915,0.194707 z m 0.126744,-4.868774 c -0.07536,-0.279875 -0.303535,-0.662869 -0.529573,-0.888909 -0.421781,-0.421779 -0.610439,-0.433304 -0.391335,-0.02391 0.07268,0.13581 0.106934,0.308922 0.07611,0.384694 -0.03362,0.08265 -0.05968,0.06508 -0.06514,-0.04396 -0.02243,-0.447642 -1.056015,-1.030557 -1.821817,-1.027458 -0.65964,0.0027 -0.756611,0.109021 -0.663792,0.727989 0.09864,0.657759 0.263144,0.81606 0.6824,0.656659 0.76959,-0.292598 1.901417,-0.0085 2.483784,0.62347 0.342231,0.371373 0.407889,0.254409 0.229362,-0.408586 z M 52.114741,8.9885632 C 52.125482,8.1012388 51.930886,7.3706293 51.601359,7.0610542 51.362534,6.8366904 51.288988,6.8236376 50.930414,6.941977 c -0.383153,0.1264531 -1.46011,0.9717416 -1.46011,1.1460222 0,0.045298 0.194616,0.1573967 0.432481,0.2491109 0.237863,0.091714 0.467618,0.1830498 0.510566,0.2029681 0.04295,0.019919 0.18302,-0.2010008 0.311271,-0.4909308 0.269975,-0.6103265 0.551139,-0.7772575 0.780598,-0.4634532 0.08598,0.1175752 0.152803,0.2687261 0.14851,0.3358903 -0.0043,0.067162 -0.06412,0.00535 -0.132952,-0.1373705 -0.150354,-0.3117554 -0.300154,-0.3288278 -0.505997,-0.057661 -0.197402,0.2600461 -0.201906,0.4901437 -0.0096,0.4901437 0.08302,0 0.251688,0.075262 0.374815,0.1672553 0.219166,0.1637444 0.218855,0.165997 -0.01485,0.10731 -0.13997,-0.035152 -0.301809,0.016081 -0.39125,0.1238516 -0.200101,0.2411059 -0.05301,0.3794289 0.221303,0.2081169 0.175122,-0.1093656 0.231835,-0.097824 0.304798,0.062033 0.04931,0.1080181 0.09523,0.274243 0.102059,0.3693886 0.0068,0.095147 0.08547,0.3206262 0.174759,0.5010696 0.14371,0.2904223 0.171954,0.3036603 0.246074,0.1153277 0.04606,-0.117012 0.08738,-0.5141277 0.09184,-0.8824793 z M 37.360872,9.1749387 c 0,-0.1519281 0.06965,-0.2662774 0.162196,-0.2662774 0.106449,0 0.141059,-0.080823 0.100701,-0.2351522 -0.04776,-0.1826372 0.01715,-0.2648383 0.290655,-0.3680745 0.342128,-0.1291387 0.347383,-0.142138 0.184657,-0.4568152 -0.193095,-0.3734056 -0.332092,-0.4074552 -0.498314,-0.1220693 -0.130917,0.2247697 -0.162546,0.1466704 -0.05456,-0.1347273 0.173446,-0.4519951 0.739695,-0.038208 0.917575,0.6705223 0.04146,0.1651827 0.09394,0.300332 0.116626,0.300332 0.04404,0 0.880268,-0.3737581 0.963816,-0.4307868 0.105204,-0.071814 -0.762836,-0.8688978 -1.180787,-1.0842718 -0.874884,-0.4508334 -1.254057,0.051377 -1.318015,1.745715 -0.03791,1.0044538 -0.02652,1.0769875 0.137048,0.8717488 0.09812,-0.1231261 0.178406,-0.3436914 0.178406,-0.4901436 z m 0.461313,-0.1056241 c 0,-0.024927 -0.07784,-0.045321 -0.172993,-0.045321 -0.09515,0 -0.172991,0.050264 -0.172991,0.1117079 0,0.06144 0.07784,0.081834 0.172991,0.045321 0.09515,-0.036513 0.172993,-0.086777 0.172993,-0.1117079 z m 13.724023,0.070009 c 0,-0.063425 -0.08091,-0.1153277 -0.1798,-0.1153277 -0.09889,0 -0.147723,0.051896 -0.108521,0.1153277 0.0392,0.063434 0.120112,0.1153287 0.179798,0.1153287 0.05969,0 0.108523,-0.051896 0.108523,-0.1153287 z M 38.137002,8.7138375 c 0.02251,-0.06751 -0.04655,-0.1563083 -0.153459,-0.1973312 -0.245824,-0.094331 -0.30186,-0.038293 -0.207528,0.2075284 0.07845,0.2044549 0.291442,0.1984384 0.360987,-0.010197 z m 5.566907,0.04276 c 0,-0.221539 -0.382015,-1.2318745 -0.46578,-1.2318745 -0.153251,0 -0.138651,0.1528772 0.0333,0.3486902 0.07929,0.090291 0.03628,0.074718 -0.09558,-0.0346 -0.131856,-0.1093202 -0.334516,-0.198764 -0.450355,-0.198764 -0.203312,0 -0.203377,0.00798 -0.0019,0.2306563 0.202606,0.2238757 0.201436,0.2306555 -0.03979,0.2306555 -0.385839,0 -0.295263,0.1617372 0.241613,0.4314365 0.444717,0.2234018 0.778464,0.3193504 0.778464,0.2237992 z m 7.207995,-0.3092516 c 0.0392,-0.063426 0.01632,-0.1153277 -0.05086,-0.1153277 -0.06717,0 -0.122135,0.051895 -0.122135,0.1153277 0,0.063434 0.02289,0.1153278 0.05086,0.1153278 0.02797,0 0.08293,-0.051895 0.122135,-0.1153278 z M 43.119853,7.416418 C 43.257657,7.329219 43.259926,7.2809164 43.133383,7.1284417 43.017412,6.988704 42.943924,6.976288 42.823648,7.0761047 c -0.351683,0.2918701 -0.09439,0.5874686 0.296205,0.3403088 z"
         id="path2" /></g></g></svg>
