<?xml version="1.0" encoding="UTF-8" standalone="no"?>
<svg
   width="143"
   height="30"
   viewBox="0 0 143 30"
   fill="none"
   version="1.1"
   id="svg3"
   xml:space="preserve"
   xmlns="http://www.w3.org/2000/svg"
   xmlns:svg="http://www.w3.org/2000/svg"><defs
     id="defs3"><style
       id="style1">
      .cls-1 {
        fill: #0d3c48;
        stroke-width: 0px;
      }
    </style><clipPath
       clipPathUnits="userSpaceOnUse"
       id="clipPath43"><rect
         style="fill:#0e3c48;fill-opacity:1;stroke:none;stroke-width:0.07;stroke-opacity:1"
         id="rect44"
         width="63.529125"
         height="67.810432"
         x="-6.8795362"
         y="-6.8714299" /></clipPath></defs><g
     id="g44"
     transform="translate(-9.8055795)"><path
       d="m 11.270899,15 c 0,-8.28427 6.578096,-15 14.692594,-15 H 136.64769 c 8.11423,0 14.69257,6.71573 14.69257,15 v 0 c 0,8.2843 -6.57834,15 -14.69257,15 H 25.963491 C 17.848995,30 11.270899,23.2843 11.270899,15 Z"
       fill="#1B1B1B"
       id="path1"
       style="mix-blend-mode:normal;fill:#0e3c48;fill-opacity:1;stroke-width:0.989702" /><text
       xml:space="preserve"
       style="font-style:normal;font-variant:normal;font-weight:bold;font-stretch:normal;font-size:16px;font-family:Roboto;-inkscape-font-specification:'Roboto, Bold';font-variant-ligatures:normal;font-variant-caps:normal;font-variant-numeric:normal;font-variant-east-asian:normal;text-align:start;writing-mode:lr-tb;direction:ltr;text-anchor:start;mix-blend-mode:normal;fill:#ffffff;fill-opacity:1;stroke:#ffffff;stroke-width:0.07"
       x="43.013092"
       y="20.521687"
       id="text3"><tspan
         id="tspan3"
         x="43.013092"
         y="20.521687"
         style="fill:#ffffff;fill-opacity:1">Speechmatics</tspan></text><g
       id="g43"
       transform="matrix(0.35116614,0,0,0.35116614,21.555751,6.379042)"
       clip-path="url(#clipPath43)"
       style="fill:#ffffff;fill-opacity:1"><path
         class="cls-1"
         d="m 78.51,21.48 c -5.85,-1.51 -7.3,-2.24 -7.3,-4.47 v -0.1 c 0,-1.65 1.5,-2.96 4.35,-2.96 2.85,0 5.76,1.24 8.73,3.31 l 2.6,-6.58 C 83.72,8.53 79.96,7.34 75.66,7.34 c -6.91,0 -11.83,4.08 -11.83,10.25 v 0.1 c 0,6.75 4.39,8.65 11.2,10.4 5.65,1.45 6.81,2.43 6.81,4.32 v 0.1 c 0,1.99 -1.84,3.21 -4.88,3.21 -3.84,0 -7.02,-1.59 -10.04,-4.09 l -2.65,6.69 c 3.73,2.68 8.16,4 12.55,4 7.29,0 12.41,-3.79 12.41,-10.54 v -0.1 c 0,-5.93 -3.87,-8.4 -10.72,-10.2 z M 110.71,7.83 H 96.9 v 34.01 h 7.44 v -10.2 h 5.65 c 7.58,0 13.66,-4.08 13.66,-11.96 v -0.09 c 0,-6.95 -4.87,-11.76 -12.94,-11.76 z m 5.41,12 c 0,2.92 -2.17,5.15 -5.89,5.15 h -5.89 v -10.4 h 5.74 c 3.72,0 6.04,1.8 6.04,5.15 z m 39.99,15.35 v 6.66 H 130.37 V 7.83 h 25.49 v 6.65 h -18.1 v 6.9 h 14.6 v 6.66 h -14.6 v 7.14 z m 33.56,0 v 6.66 H 163.93 V 7.83 h 25.49 v 6.65 h -18.1 v 6.9 h 14.55 v 6.66 h -14.55 v 7.14 z M 255.48,7.83 V 21.29 H 241.77 V 7.83 h -7.44 v 34.01 h 7.44 V 28.19 h 13.71 v 13.65 h 7.44 V 7.83 Z m 42.54,0 -8.88,14.38 -8.89,-14.38 h -8.01 v 34.01 h 7.29 V 19.78 l 9.41,14.38 h 0.2 l 9.51,-14.52 v 22.2 h 7.39 V 7.83 Z M 333.8,7.58 h -6.85 l -14.49,34.26 h 7.58 l 3.09,-7.63 h 14.3 l 3.09,7.63 h 7.77 z m -8.01,20.02 4.49,-11.03 4.49,11.03 z m 50.08,-19.77 -2.73,6.9 h -7.46 v 27.11 h -7.44 V 14.73 h -10.29 v -6.9 z m 7.33,0 v 34.01 h 7.44 V 7.83 Z m 78.38,23.85 v 0.1 c 0,6.75 -5.12,10.54 -12.41,10.54 -4.41,0 -8.85,-1.33 -12.59,-4.03 l 2.65,-6.69 c 3.04,2.51 6.22,4.12 10.08,4.12 3.04,0 4.88,-1.22 4.88,-3.21 v -0.1 c 0,-1.89 -1.16,-2.87 -6.81,-4.32 -2.28,-0.58 -4.29,-1.19 -5.96,-2 -3.3,-1.57 -5.24,-3.92 -5.24,-8.4 v -0.1 c 0,-6.17 4.92,-10.25 11.83,-10.25 0.28,0 0.56,0.01 0.83,0.01 3.92,0.15 7.36,1.29 10.3,3.26 l -2.6,6.58 c -2.94,-2.02 -5.83,-3.24 -8.63,-3.24 -0.67,0 -1.26,0.07 -1.77,0.2 -1.7,0.43 -2.58,1.49 -2.58,2.76 v 0.1 c 0,0.79 0.18,1.4 0.69,1.92 0.91,0.93 2.85,1.58 6.61,2.55 6.85,1.8 10.72,4.27 10.72,10.2 z m -234.33,4.68 c -3.23,3.73 -8.01,6.1 -13.33,6.1 -9.72,0 -17.63,-7.91 -17.63,-17.63 0,-9.72 7.91,-17.64 17.63,-17.64 5.02,0 9.56,2.11 12.77,5.49 l -4.56,5.38 c -1.95,-2.36 -4.91,-3.87 -8.21,-3.87 -5.86,0 -10.63,4.77 -10.63,10.64 0,5.87 4.77,10.63 10.63,10.63 3.4,0 6.43,-1.6 8.38,-4.08 z m 202.3,-0.02 c -3.23,3.73 -8,6.1 -13.32,6.1 -9.72,0 -17.63,-7.91 -17.63,-17.63 0,-9.72 7.91,-17.63 17.63,-17.63 5.02,0 9.56,2.11 12.77,5.49 l -4.56,5.39 c -1.95,-2.37 -4.91,-3.88 -8.21,-3.88 -5.86,0 -10.63,4.77 -10.63,10.63 0,5.86 4.77,10.63 10.63,10.63 3.4,0 6.43,-1.6 8.37,-4.09 z"
         id="path1-4"
         style="fill:#ffffff;fill-opacity:1" /><path
         class="cls-1"
         d="M 34.17,11.57 C 32.12,9.72 29.83,8.34 27.4,7.4 L 29.69,1.45 C 21.49,-1.7 11.85,0.32 5.62,7.22 c -2.59,2.87 -4.27,6.24 -5.07,9.75 -1.71,7.47 0.58,15.62 6.67,21.11 2.05,1.85 4.36,3.24 6.8,4.18 l -2.29,5.96 c 8.19,3.13 17.81,1.12 24.03,-5.79 2.59,-2.87 4.27,-6.23 5.07,-9.75 1.71,-7.47 -0.58,-15.62 -6.67,-21.11 z M 29.56,36.81 C 25.72,41.07 19.79,42.31 14.73,40.4 13.21,39.82 11.77,38.96 10.49,37.8 4.95,32.81 4.51,24.27 9.5,18.73 c 3.86,-4.28 9.84,-5.52 14.91,-3.55 1.49,0.58 2.9,1.43 4.16,2.56 5.54,4.99 5.98,13.53 0.99,19.07 z"
         id="path2"
         style="fill:#ffffff;fill-opacity:1" /></g></g></svg>
