<?xml version="1.0" encoding="UTF-8" standalone="no"?>
<svg
   width="168"
   height="30"
   viewBox="0 0 168 30"
   fill="none"
   version="1.1"
   id="svg5"
   xml:space="preserve"
   sodipodi:docname="StableDiffusion.svg"
   inkscape:version="1.3.2 (091e20e, 2023-11-25, custom)"
   xmlns:inkscape="http://www.inkscape.org/namespaces/inkscape"
   xmlns:sodipodi="http://sodipodi.sourceforge.net/DTD/sodipodi-0.dtd"
   xmlns="http://www.w3.org/2000/svg"
   xmlns:svg="http://www.w3.org/2000/svg"><sodipodi:namedview
     id="namedview1"
     pagecolor="#ffffff"
     bordercolor="#000000"
     borderopacity="0.25"
     inkscape:showpageshadow="2"
     inkscape:pageopacity="0.0"
     inkscape:pagecheckerboard="0"
     inkscape:deskcolor="#d1d1d1"
     inkscape:zoom="5.9367507"
     inkscape:cx="50.448472"
     inkscape:cy="-37.141529"
     inkscape:window-width="3840"
     inkscape:window-height="2126"
     inkscape:window-x="-11"
     inkscape:window-y="-11"
     inkscape:window-maximized="1"
     inkscape:current-layer="svg5" /><defs
     id="defs5" /><g
     id="g1"
     transform="translate(15.483871)"><path
       d="m 9.8858575,15 c 0,-8.28427 4.6874405,-15 10.4696925,-15 h 96.32116 c 5.78206,0 10.46969,6.71573 10.46969,15 v 0 c 0,8.2843 -4.68763,15 -10.46969,15 H 20.35555 C 14.573298,30 9.8858575,23.2843 9.8858575,15 Z"
       fill="#BFC2FF"
       id="path1"
       style="fill:#9e47ff;fill-opacity:1;stroke-width:0.835451" /><text
       xml:space="preserve"
       style="font-style:normal;font-variant:normal;font-weight:900;font-stretch:normal;font-size:14.6667px;font-family:Roboto;-inkscape-font-specification:'Roboto, Heavy';font-variant-ligatures:normal;font-variant-caps:normal;font-variant-numeric:normal;font-variant-east-asian:normal;fill:#fefeff;fill-opacity:1;stroke-width:1.00157;stroke-linejoin:round"
       x="43.404667"
       y="20.503416"
       id="text5"><tspan
         id="tspan5"
         x="43.404667"
         y="20.503416"
         style="font-style:normal;font-variant:normal;font-weight:900;font-stretch:normal;font-size:14.6667px;font-family:Roboto;-inkscape-font-specification:'Roboto, Heavy';font-variant-ligatures:normal;font-variant-caps:normal;font-variant-numeric:normal;font-variant-east-asian:normal;fill:#fefeff;fill-opacity:1">Stability.ai</tspan></text><path
       style="fill:#ffffff;fill-opacity:1;stroke-width:0.135066"
       d="m 24.475816,20.745487 c -0.38892,-0.104744 -1.01191,-0.344883 -1.384421,-0.533648 l -0.677292,-0.343211 v -1.280846 c 0,-0.704466 0.02303,-1.280847 0.05117,-1.280847 0.02814,0 0.405517,0.213378 0.838609,0.474172 0.958109,0.576943 1.470076,0.738264 2.656136,0.83695 1.023282,0.08514 2.027757,-0.19829 2.263444,-0.638674 0.474992,-0.887533 -0.09299,-1.402456 -2.352973,-2.133191 -2.694217,-0.871135 -3.446802,-1.586994 -3.453418,-3.284892 -0.0059,-1.522045 1.046971,-2.7878435 2.736236,-3.2895002 1.33716,-0.3970944 3.431087,-0.2148058 4.723165,0.4111798 l 0.506496,0.2453867 v 1.2374527 1.237454 l -0.641561,-0.31736 c -1.020063,-0.504591 -2.49479,-0.762853 -3.346448,-0.586051 -0.863068,0.179173 -1.179036,0.488483 -1.120213,1.096603 0.05876,0.607475 0.577128,0.932705 2.207466,1.384987 2.753676,0.763916 3.576083,1.543981 3.576083,3.391974 0,1.788577 -0.906588,2.900879 -2.768842,3.397116 -0.871439,0.232214 -2.908038,0.218834 -3.813635,-0.02505 z m 10.015631,0.07736 c -0.154631,-0.06255 -0.443333,-0.306484 -0.641561,-0.542064 -0.284022,-0.33754 -0.360413,-0.569692 -0.360413,-1.095276 0,-1.258034 1.176393,-2.045676 2.333347,-1.562269 0.59619,0.249104 1.042279,0.92303 1.042279,1.574617 0,1.185079 -1.285563,2.06517 -2.373652,1.624992 z"
       id="path7" /></g></svg>
