<?xml version="1.0" encoding="UTF-8" standalone="no"?>
<svg
   width="168"
   height="30"
   viewBox="0 0 168 30"
   fill="none"
   version="1.1"
   id="svg5"
   xml:space="preserve"
   xmlns="http://www.w3.org/2000/svg"
   xmlns:svg="http://www.w3.org/2000/svg"><defs
     id="defs5" /><g
     id="g2"
     transform="translate(9.620587)"><path
       d="m 15.524396,15 c 0,-8.28427 4.705408,-15 10.509824,-15 h 96.69038 c 5.80424,0 10.50983,6.71573 10.50983,15 v 0 c 0,8.2843 -4.70559,15 -10.50983,15 H 26.03422 C 20.229804,30 15.524396,23.2843 15.524396,15 Z"
       fill="#BFC2FF"
       id="path1"
       style="fill:#00b2ff;fill-opacity:1;stroke-width:0.837051" /><text
       xml:space="preserve"
       style="font-style:normal;font-variant:normal;font-weight:900;font-stretch:normal;font-size:14.6667px;font-family:Roboto;-inkscape-font-specification:'Roboto, Heavy';font-variant-ligatures:normal;font-variant-caps:normal;font-variant-numeric:normal;font-variant-east-asian:normal;fill:#fefeff;fill-opacity:1;stroke-width:1.00157;stroke-linejoin:round"
       x="51.466839"
       y="20.503593"
       id="text5"><tspan
         id="tspan5"
         x="51.466839"
         y="20.503593"
         style="font-style:normal;font-variant:normal;font-weight:900;font-stretch:normal;font-size:14.6667px;font-family:Roboto;-inkscape-font-specification:'Roboto, Heavy';font-variant-ligatures:normal;font-variant-caps:normal;font-variant-numeric:normal;font-variant-east-asian:normal;fill:#fefeff;fill-opacity:1">Steelskull</tspan></text><path
       style="fill:#ffffff;fill-opacity:1;stroke-width:0.474093"
       d="m 33.61539,24.598405 -0.553308,-0.861103 0.641775,-0.661975 0.641775,-0.661975 0.347135,0.247183 c 0.280086,0.199438 0.335989,0.304977 0.289425,0.546403 -0.04552,0.236008 -0.03747,0.252586 0.03809,0.07847 0.09384,-0.216216 0.09846,-0.215794 0.224955,0.02057 0.139646,0.26093 0.171929,1.242009 0.05939,1.80472 -0.06645,0.332241 -0.09509,0.348812 -0.602846,0.348812 h -0.533084 z m 3.229418,-0.17138 c -0.494415,-1.092289 -0.630856,-1.981254 -0.304088,-1.981254 0.421793,0 0.831694,1.027607 1.035181,2.595163 0.09938,0.765553 -0.233038,0.486419 -0.731093,-0.613909 z m -4.676821,-2.116989 c -0.900333,-1.446705 -1.819018,-3.190931 -1.809796,-3.436102 0.01388,-0.368895 0.610733,-1.395777 0.830453,-1.428779 0.201767,-0.0303 0.197591,-0.01303 -0.04343,0.179617 l -0.266666,0.213148 0.316769,0.582008 c 0.419366,0.770513 1.773688,1.868136 3.17449,2.572794 0.276259,0.138969 0.518916,0.267309 0.539237,0.285199 0.04783,0.04211 -1.751135,2.218152 -1.868326,2.259934 -0.04889,0.01743 -0.441625,-0.535087 -0.872736,-1.227819 z m 4.73761,-0.03169 c -0.09849,-0.184173 -0.373445,-0.556789 -0.611005,-0.828036 l -0.431926,-0.493177 -0.354385,0.262008 c -0.452414,0.334484 -0.568258,0.229308 -0.193188,-0.175399 0.347698,-0.375172 0.442355,-0.705883 0.347207,-1.213064 -0.0403,-0.214837 -0.02295,-0.411251 0.03977,-0.45001 0.126476,-0.07817 0.625624,0.863302 1.127397,2.126443 0.34826,0.876693 0.397096,1.371405 0.07613,0.771235 z m -2.556714,-1.806358 c 0.08057,-0.03224 0.176848,-0.02828 0.213938,0.0088 0.03709,0.03709 -0.02883,0.06347 -0.146501,0.05862 -0.130031,-0.0054 -0.15648,-0.03181 -0.06744,-0.06744 z m -2.215686,-1.147034 c -0.212549,-0.181678 -0.342631,-0.332364 -0.289071,-0.334859 0.05356,-0.0025 0.0339,-0.08103 -0.04369,-0.174522 -0.119787,-0.144334 -0.109217,-0.158024 0.07005,-0.09072 0.192406,0.07224 0.196757,0.06009 0.04908,-0.13697 -0.124725,-0.166432 -0.126271,-0.184359 -0.0067,-0.07784 0.192706,0.17169 0.246676,0.475515 0.08447,0.475515 -0.06619,0 -0.08332,0.03703 -0.03806,0.08229 0.04526,0.04526 0.160754,0.08293 0.256653,0.08372 0.0959,8.06e-4 0.216307,0.114438 0.267574,0.252568 0.118062,0.31809 0.113201,0.316991 -0.350288,-0.07918 z m 3.464434,-0.341969 c -0.583214,-0.303607 -1.161745,-0.552803 -1.285623,-0.55377 -0.259235,-0.002 -1.044129,-0.50316 -1.261367,-0.805356 -0.08094,-0.112593 -0.193955,-0.175795 -0.251145,-0.140449 -0.06009,0.03714 -0.103983,-0.236929 -0.103983,-0.649236 0,-0.772509 -0.196067,-1.969515 -0.350593,-2.140401 -0.129065,-0.14273 -0.121221,-0.284631 0.01573,-0.284631 0.06139,0 0.11162,0.07534 0.11162,0.16743 0,0.09209 0.03767,0.161482 0.08371,0.154212 0.207055,-0.03269 0.29431,0.02466 0.163649,0.107566 -0.07882,0.05001 -0.111226,0.174526 -0.07202,0.276699 0.106381,0.277223 0.26883,0.111354 0.287859,-0.29392 0.01585,-0.337534 0.01916,-0.34011 0.06322,-0.04922 0.0505,0.333363 0.223402,0.407326 0.326167,0.139525 0.101325,-0.264049 0.263604,-0.195334 0.263604,0.11162 0,0.377178 0.19681,0.355633 0.254912,-0.0279 0.03939,-0.260006 0.04906,-0.246032 0.06322,0.09136 0.02986,0.711152 0.336733,1.555033 0.56548,1.555033 0.112887,0 0.267778,0.07534 0.344203,0.16743 0.156981,0.18915 0.499616,0.232089 0.38608,0.04838 -0.04046,-0.06547 -0.09964,-0.09298 -0.131495,-0.06113 -0.0909,0.0909 -0.366204,-0.230777 -0.366204,-0.427891 0,-0.133923 0.0754,-0.162668 0.306954,-0.117026 0.280275,0.05525 0.285126,0.05089 0.05581,-0.05009 -0.14178,-0.06243 -0.251145,-0.20937 -0.251145,-0.337427 0,-0.22671 0.118335,-0.294535 0.262446,-0.150424 0.126676,0.126676 0.741868,0.116498 0.745683,-0.01234 0.0019,-0.06594 0.0773,-0.02239 0.16743,0.09678 0.09013,0.119168 0.16388,0.15684 0.16388,0.08372 0,-0.158595 0.300111,-0.179807 0.353463,-0.02498 0.02046,0.05938 0.0933,-0.01179 0.161853,-0.158156 0.112801,-0.240836 0.102193,-0.260814 -0.11162,-0.210223 -0.570991,0.135104 -1.31861,0.109832 -1.378639,-0.0466 -0.04995,-0.130182 -0.07741,-0.131829 -0.15508,-0.0093 -0.06918,0.10914 -0.09483,0.08754 -0.09609,-0.08093 -9.48e-4,-0.126396 0.06108,-0.312437 0.137816,-0.413425 0.113354,-0.149174 0.173721,-0.157888 0.321837,-0.04646 0.100272,0.07544 0.20746,0.236363 0.238197,0.357615 0.04138,0.163249 0.05924,0.138899 0.06883,-0.09384 0.02869,-0.696311 -0.402496,-1.104729 -1.067961,-1.011575 -0.373408,0.05227 -0.608291,-8.06e-4 -1.172009,-0.264919 -0.521696,-0.24441 -0.857388,-0.32723 -1.291046,-0.318521 -0.611638,0.01228 -0.767146,-0.139699 -0.390637,-0.381782 0.167953,-0.107989 0.169248,-0.117577 0.0092,-0.06841 -0.102354,0.03146 -0.212964,-0.01282 -0.245802,-0.0984 -0.0472,-0.123013 -0.0022,-0.133742 0.214749,-0.05124 0.360303,0.136987 1.368566,-0.116972 1.572688,-0.396125 0.08323,-0.113827 0.151331,-0.403077 0.151331,-0.642778 0,-0.268577 0.09315,-0.56664 0.242746,-0.776725 0.269227,-0.378095 0.359786,-1.2758868 0.124036,-1.2296688 -0.08259,0.01619 -0.11064,-0.04919 -0.07183,-0.16743 0.03503,-0.106698 -0.06984,-0.03208 -0.23303,0.165808 -0.273836,0.3320628 -0.335811,0.3552058 -0.803826,0.3001628 -0.278913,-0.0328 -0.631188,-0.106814 -0.782834,-0.164469 -0.403832,-0.1535368 -0.535694,-0.1336668 -0.377544,0.05689 0.07382,0.08895 0.301558,0.216948 0.506086,0.284449 0.204529,0.0675 0.399851,0.195642 0.434048,0.284759 0.0342,0.08912 0.139097,0.162031 0.233111,0.162031 0.09401,0 0.170932,0.09086 0.170932,0.201906 0,0.260768 -0.274345,0.635244 -0.465386,0.635244 -0.08169,0 -0.164439,0.138358 -0.183891,0.307464 -0.03222,0.280094 -0.05105,0.29178 -0.211555,0.131277 -0.127152,-0.127151 -0.198429,-0.1402 -0.256101,-0.04688 -0.05127,0.08295 -0.111117,0.03589 -0.166958,-0.131278 -0.08608,-0.257707 -0.08757,-0.257196 -0.13452,0.04638 -0.07299,0.471913 -0.219987,0.366539 -0.384584,-0.275686 -0.138845,-0.541745 -0.153618,-0.559373 -0.210469,-0.251145 -0.04227,0.229184 -0.008,0.364158 0.111106,0.437322 0.142985,0.08785 0.124841,0.119142 -0.1068,0.184208 -0.265086,0.07446 -0.266482,0.07894 -0.02791,0.08951 0.297036,0.01316 0.335661,0.197981 0.05581,0.267048 -0.107434,0.02652 -0.08033,0.0366 0.06023,0.0224 0.330189,-0.03335 0.258749,0.191234 -0.09641,0.303097 -0.200835,0.06325 -0.169867,0.0719 0.119895,0.03348 l 0.390669,-0.0518 -0.279049,0.171925 c -0.272908,0.168142 -0.273381,0.170737 -0.02153,0.117903 0.165474,-0.03471 0.241961,-0.0073 0.213991,0.07672 -0.02394,0.07191 -0.139825,0.148175 -0.257519,0.169482 -0.451906,0.08181 -0.443082,0.268329 0.0092,0.195516 0.414669,-0.06675 0.431042,-0.05976 0.229811,0.09808 -0.119168,0.09347 -0.332641,0.169952 -0.474385,0.169952 -0.141743,0 -0.257715,0.05567 -0.257715,0.12372 0,0.119713 0.276065,0.0869 0.743065,-0.08833 0.17356,-0.06512 0.184052,-0.05051 0.06715,0.09351 -0.07621,0.09388 -0.10672,0.20253 -0.06781,0.241441 0.168136,0.168136 -0.237654,0.431554 -0.579375,0.3761 -0.192289,-0.0312 -0.419664,-0.01345 -0.505278,0.03947 -0.117336,0.07252 -0.06001,0.140217 0.232819,0.274966 l 0.388481,0.178762 -0.39067,-0.06085 -0.39067,-0.06085 0.27905,0.219894 c 0.218198,0.171943 0.23789,0.220436 0.0903,0.222377 -0.103811,0.0014 -0.218434,-0.04555 -0.254719,-0.104263 -0.03628,-0.05871 -0.143083,-0.07715 -0.23733,-0.04099 -0.121434,0.0466 -0.136652,0.100462 -0.05224,0.184879 0.194086,0.194086 0.135542,0.338367 -0.06973,0.171856 -0.103871,-0.08425 -0.154389,-0.09567 -0.112261,-0.02536 0.04228,0.07055 -0.0093,0.160797 -0.115154,0.201409 -0.222149,0.08525 -0.472075,-0.195775 -0.4855,-0.545907 -0.0048,-0.126396 -0.0345,-0.165957 -0.0659,-0.08791 -0.0314,0.07804 -0.0049,0.291516 0.05882,0.474384 0.117141,0.336033 -0.01418,0.48273 -0.139589,0.155929 -0.15858,-0.413252 -0.06763,-0.772055 0.239402,-0.944444 0.285992,-0.160575 0.320349,-0.156798 0.507577,0.05581 0.200551,0.227736 0.200634,0.227715 0.06117,-0.01621 -0.112433,-0.196645 -0.111253,-0.297325 0.0061,-0.516511 0.122741,-0.229345 0.118628,-0.313995 -0.0261,-0.537083 -0.181538,-0.279826 -0.275996,-0.805048 -0.358776,-1.994937 -0.03469,-0.498599 -0.01804,-0.655705 0.05324,-0.502289 0.05704,0.122782 0.107247,0.411598 0.111562,0.641814 0.0043,0.230217 0.06357,0.418575 0.131677,0.418575 0.12056,0 0.107614,-0.185509 -0.07645,-1.095461 -0.05086,-0.251428 -0.01137,-0.510659 0.123275,-0.809244 0.215774,-0.4784998 0.448146,-0.6135188 0.275819,-0.160263 -0.146856,0.386259 -0.05179,0.350092 0.151637,-0.05769 0.09239,-0.1852068 0.113426,-0.3030178 0.04674,-0.2618028 -0.0707,0.0437 -0.0893,0.02324 -0.04462,-0.04906 0.04215,-0.06819 0.145285,-0.09765 0.229196,-0.06545 0.08391,0.0322 0.186231,0.0041 0.227378,-0.06251 0.04115,-0.06658 0.115802,-0.09572 0.165899,-0.06476 0.0501,0.03096 0.250525,7.11e-4 0.445395,-0.06722 0.309404,-0.107859 0.387469,-0.09236 0.615942,0.1222782 0.26457,0.24855 1.06455,0.5022616 1.06455,0.3376196 0,-0.04909 0.213473,-0.2149356 0.474384,-0.3685416 0.501218,-0.2950802 1.269247,-0.9860152 1.512215,-1.3604192 0.112718,-0.173695 0.132075,-0.179888 0.08722,-0.02791 -0.07918,0.268269 0.01229,0.245441 0.16579,-0.04137 0.08904,-0.166367 0.0902,-0.214164 0.0039,-0.160843 -0.163989,0.101351 -0.157109,-0.08155 0.0093,-0.247982 0.07265,-0.07265 0.09344,-0.170593 0.0462,-0.217659 -0.08178,-0.08149 -0.202944,0.04575 -0.658833,0.691792 -0.241374,0.342055 -1.270726,0.954109 -1.584421,0.942099 -0.181015,-0.0069 -0.170322,-0.02464 0.05653,-0.09365 0.443753,-0.134984 1.030972,-0.463899 0.958176,-0.536696 -0.03653,-0.03653 0.01681,-0.158403 0.118546,-0.270819 0.101736,-0.112416 0.129924,-0.204393 0.06264,-0.204393 -0.06728,0 -0.153596,0.05059 -0.191807,0.112414 -0.09123,0.147611 -0.588378,0.394943 -0.985537,0.490304 -0.207456,0.04981 -0.291616,0.036 -0.244557,-0.04015 0.03946,-0.06385 0.156687,-0.116308 0.260497,-0.116571 0.103811,-2.63e-4 0.414778,-0.150492 0.691037,-0.333842 0.27626,-0.183349 0.519137,-0.283279 0.539729,-0.222066 0.02059,0.06121 0.09593,0.07777 0.167429,0.03679 0.0715,-0.04097 0.0082,0.05917 -0.14061,0.222545 -0.148831,0.163376 -0.219402,0.297048 -0.156825,0.297048 0.173647,0 0.513911,-0.418165 0.438954,-0.539449 -0.03638,-0.05887 0.0086,-0.250394 0.1,-0.425608 0.09138,-0.175215 0.162494,-0.393915 0.158026,-0.486002 -0.0045,-0.09209 -0.06113,-0.01675 -0.12592,0.16743 -0.159933,0.454646 -0.3236,0.646018 -0.446978,0.52264 -0.05989,-0.0599 0.03266,-0.376102 0.228307,-0.779993 0.180972,-0.373594 0.301678,-0.706622 0.268236,-0.740064 -0.03344,-0.03344 -0.176475,0.227526 -0.317853,0.579927 -0.170345,0.424605 -0.431631,0.800745 -0.77462,1.115114 -0.737845,0.676282 -0.879698,0.588101 -0.185203,-0.115129 0.320205,-0.324233 0.578792,-0.663279 0.574637,-0.753435 -0.0046,-0.09838 -0.05554,-0.06449 -0.127582,0.08477 -0.06601,0.136779 -0.213302,0.278294 -0.327305,0.314477 -0.114003,0.03618 -0.207278,0.112001 -0.207278,0.168485 0,0.13488 -0.895158,0.698607 -0.977919,0.615846 -0.03513,-0.03513 -0.04294,-0.08011 -0.01736,-0.09997 0.02558,-0.01985 0.36044,-0.273935 0.744133,-0.564624 0.383694,-0.290688 0.697624,-0.572852 0.697624,-0.627032 0,-0.187748 -0.198598,-0.220058 -0.335879,-0.05464 -0.20581,0.247986 -0.360129,0.200647 -0.217104,-0.0666 0.06853,-0.12804 0.09999,-0.257398 0.06993,-0.287462 -0.03006,-0.03006 -0.08733,0.04828 -0.127265,0.174089 -0.03993,0.125814 -0.220319,0.333935 -0.400861,0.462493 -0.356124,0.253582 -0.395902,0.22388 -0.202975,-0.151564 0.103269,-0.200966 0.09935,-0.21929 -0.02232,-0.104282 -0.221806,0.209661 -0.375828,0.167762 -0.200342,-0.0545 0.144173,-0.182601 0.136763,-0.182508 -0.125857,0.0016 -0.665597,0.466556 -0.879751,0.363964 -0.359883,-0.172404 0.376527,-0.388477 0.694742,-1.144134 0.694742,-1.649785 0,-0.31168 6.64e-4,-0.311945 0.344817,-0.140254 0.313207,0.156248 0.339091,0.209184 0.282363,0.57745 l -0.06245,0.405432 0.137253,-0.364185 c 0.135086,-0.358433 0.141644,-0.36126 0.415262,-0.179004 0.152905,0.101849 0.335677,0.255777 0.406161,0.342061 0.08722,0.106772 0.410109,0.163947 1.010906,0.179004 0.77827,0.0195 0.987649,0.074 1.76898,0.460387 1.044529,0.516547 1.999633,1.36946 2.321583,2.073186 0.126387,0.276259 0.220771,0.536082 0.209742,0.577386 -0.01103,0.0413 0.0834,0.367791 0.209845,0.7255292 0.126444,0.3577376 0.317692,0.8986446 0.424995,1.2020156 0.16114,0.455575 0.206233,0.509002 0.25907,0.306955 0.03518,-0.134546 0.118903,-0.244629 0.186041,-0.244629 0.21197,0 0.132312,0.314555 -0.129075,0.509695 -0.171662,0.128155 -0.188993,0.166465 -0.05476,0.121051 0.161996,-0.05481 0.188012,-0.01324 0.14859,0.23741 -0.02628,0.167119 -0.107339,0.672173 -0.18012,1.122343 -0.268781,1.662477 0.127918,2.6773 0.806509,2.063184 0.184876,-0.167311 0.225993,-0.16948 0.375655,-0.01982 0.172298,0.172297 0.106611,0.591805 -0.07508,0.479512 -0.05496,-0.03396 -0.100694,0.004 -0.101634,0.08436 -0.0012,0.106172 -0.03129,0.100344 -0.10991,-0.02132 -0.08975,-0.138879 -0.108785,-0.129362 -0.11162,0.05581 -0.0027,0.172732 -0.02573,0.188006 -0.102025,0.06751 -0.07912,-0.124945 -0.108511,-0.113914 -0.148719,0.05581 -0.04435,0.187205 -0.06409,0.179439 -0.171659,-0.06751 -0.118501,-0.272058 -0.121724,-0.272758 -0.128622,-0.02791 -0.0039,0.13813 -0.04474,0.254877 -0.09079,0.259439 -0.04604,0.0046 -0.198471,0.02963 -0.338728,0.0557 -0.232019,0.04313 -0.243368,0.02477 -0.125861,-0.203629 0.106582,-0.207167 0.103356,-0.226653 -0.01846,-0.11151 -0.08118,0.07674 -0.225462,0.137997 -0.320617,0.13613 -0.14504,-0.0028 -0.14218,-0.02137 0.01769,-0.114571 0.206948,-0.120651 0.147007,-0.479169 -0.06287,-0.376038 -0.07031,0.03455 0.04608,-0.09131 0.258624,-0.279691 0.21255,-0.188377 0.33335,-0.342504 0.268445,-0.342504 -0.0649,0 -0.208922,0.100457 -0.320038,0.223239 -0.285702,0.315697 -0.431383,0.277522 -0.212976,-0.05581 0.125069,-0.190879 0.140352,-0.27905 0.04837,-0.27905 -0.07396,0 -0.230389,-0.113016 -0.347623,-0.251145 -0.205368,-0.241974 -0.218989,-0.243616 -0.37299,-0.04496 -0.08791,0.113401 -0.14252,0.264088 -0.121353,0.334859 0.13039,0.435967 0.150861,0.84945 0.04086,0.825304 -0.06742,-0.0148 -0.145242,0.04843 -0.172937,0.140521 -0.03871,0.128711 -0.02675,0.133942 0.05171,0.02262 0.133588,-0.189532 0.344398,0.04608 0.387278,0.432841 0.02592,0.233787 -0.01129,0.265751 -0.277014,0.237937 -0.168825,-0.01767 -0.306954,0.02296 -0.306954,0.0903 0,0.06734 0.04283,0.09596 0.09518,0.06361 0.05235,-0.03235 0.189109,0.0099 0.303915,0.09381 0.174576,0.127652 0.187834,0.195576 0.081,0.414999 -0.201969,0.414834 -0.211162,1.280673 -0.01979,1.864423 0.100986,0.308048 0.09107,0.40586 -0.05609,0.553015 -0.150467,0.150466 -0.237145,0.157669 -0.547384,0.04548 -0.26009,-0.09405 -0.482008,-0.100768 -0.753796,-0.02282 -0.639982,0.183544 -0.899821,0.125204 -2.00515,-0.450203 z m 1.192448,-1.134555 c -0.03563,-0.08904 -0.06208,-0.06259 -0.06744,0.06744 -0.0048,0.117665 0.02153,0.183591 0.05862,0.146501 0.03709,-0.03709 0.04106,-0.133363 0.0088,-0.213939 z m 1.830823,-0.475468 c 0.05615,0.0347 0.102086,0.0099 0.102086,-0.05512 0,-0.06501 -0.07534,-0.118207 -0.16743,-0.118207 -0.09209,0 -0.16743,-0.05319 -0.16743,-0.118208 0,-0.06501 -0.05023,-0.08716 -0.11162,-0.04922 -0.06139,0.03794 -0.112388,-0.02188 -0.113329,-0.132937 -0.0014,-0.166047 -0.01993,-0.173125 -0.104245,-0.03984 -0.07159,0.113166 -0.04183,0.204608 0.09861,0.302975 0.134422,0.09415 0.187346,0.244035 0.159542,0.451823 l -0.04161,0.310935 0.121667,-0.307651 c 0.06692,-0.169207 0.167605,-0.279258 0.223753,-0.244557 z m -0.783848,-0.453789 c -0.08235,-0.27609 -0.101107,-0.290245 -0.109051,-0.0823 -0.01495,0.391474 -0.230815,0.294926 -0.249558,-0.11162 l -0.01673,-0.362765 -0.04767,0.33486 c -0.04928,0.346167 -0.253736,0.669321 -0.253736,0.401052 0,-0.09042 -0.07087,-0.11869 -0.186411,-0.07435 -0.102763,0.03943 -0.227214,0.0072 -0.277341,-0.07177 -0.07079,-0.111565 -0.09131,-0.112403 -0.09264,-0.0038 -9.48e-4,0.07674 -0.05527,0.139524 -0.120743,0.139524 -0.187287,0 -0.07061,-0.612462 0.119034,-0.624813 0.485995,-0.03165 0.566674,-0.05235 0.517037,-0.132664 -0.02983,-0.04827 -0.196039,-0.07746 -0.369352,-0.06488 -0.173313,0.01258 -0.562074,0.02696 -0.863913,0.03195 -0.301839,0.005 -0.51866,0.03921 -0.481826,0.07604 0.03683,0.03683 0.246122,0.06697 0.465083,0.06697 0.40162,0 0.472352,0.10081 0.330359,0.470837 -0.09091,0.2369 -0.26627,0.224728 -0.270502,-0.01877 -0.003,-0.175462 -0.01602,-0.173582 -0.127508,0.01848 -0.122292,0.210674 -0.126489,0.210674 -0.285684,0 -0.158652,-0.209954 -0.160872,-0.209863 -0.122955,0.005 0.03188,0.180663 0.140008,0.222882 0.619818,0.242011 0.319662,0.01274 0.629815,0.05322 0.68923,0.08994 0.05942,0.03672 0.141084,0.01328 0.181487,-0.0521 0.04537,-0.0734 0.123023,-0.07992 0.203048,-0.01706 0.07127,0.05599 0.244818,0.09178 0.385655,0.07952 0.191905,-0.0167 0.239339,0.02208 0.189304,0.154759 -0.05962,0.158101 -0.04848,0.158979 0.104127,0.0082 0.128964,-0.12742 0.14649,-0.250657 0.07144,-0.502289 z m -4.267751,-0.72581 c -0.0248,-0.07438 -0.109539,0.0086 -0.188322,0.184372 -0.13409,0.299196 -0.13121,0.307836 0.04508,0.135243 0.103578,-0.101405 0.168036,-0.245231 0.143242,-0.319615 z m 4.707205,0.201019 c 0,-0.04824 -0.163243,-0.08693 -0.362764,-0.08599 -0.212979,9.95e-4 -0.306893,0.03722 -0.227448,0.0877 0.176567,0.112207 0.590212,0.111009 0.590212,-0.0017 z M 37.16031,15.866786 c 0,-0.119159 -0.05023,-0.247696 -0.11162,-0.285638 -0.06331,-0.03913 -0.11162,0.05465 -0.11162,0.216652 0,0.157101 0.05023,0.285638 0.11162,0.285638 0.06139,0 0.11162,-0.09749 0.11162,-0.216652 z m -3.798496,-0.341448 c 0,-0.148827 -0.01202,-0.148827 -0.108201,0 -0.05951,0.09209 -0.108202,0.242774 -0.108202,0.33486 0,0.148826 0.01202,0.148826 0.108202,0 0.05951,-0.09209 0.108201,-0.242773 0.108201,-0.33486 z m 4.356595,0.124638 c 0,-0.22137 -0.401399,-0.399502 -0.508766,-0.225779 -0.03438,0.05563 0.01738,0.101141 0.115012,0.101141 0.09764,0 0.206433,0.07534 0.24177,0.16743 0.08765,0.228412 0.151984,0.210298 0.151984,-0.04279 z m 0.432179,-0.135838 c -0.260959,-0.165307 -0.33018,-0.110269 -0.125224,0.09957 0.107434,0.109992 0.214014,0.154412 0.236844,0.09871 0.02283,-0.0557 -0.0274,-0.144926 -0.11162,-0.198277 z m -8.678427,-0.175763 c -0.131582,-0.226278 -0.163357,-0.153852 -0.05565,0.126838 0.03828,0.09975 0.09311,0.157859 0.121851,0.129121 0.02874,-0.02874 -10e-4,-0.14392 -0.06621,-0.255959 z m 9.134173,-2.345803 c 0.0027,-0.502852 -0.03289,-0.937714 -0.07924,-0.966359 -0.248653,-0.153677 -1.114239,1.068823 -1.216587,1.718232 -0.06066,0.384905 0.111762,0.664694 0.409626,0.664694 0.251174,0 0.377053,-0.314878 0.207535,-0.519135 -0.0712,-0.08579 -0.09718,-0.188251 -0.05774,-0.227695 0.03945,-0.03944 0.07172,-0.01015 0.07172,0.06509 0,0.07525 0.04472,0.109171 0.09938,0.07539 0.05466,-0.03378 0.136613,0.126498 0.182119,0.356177 l 0.08274,0.417598 0.147706,-0.33486 c 0.0814,-0.184539 0.149966,-0.745284 0.152741,-1.249137 z m -1.048179,1.048989 c 0.04192,-0.110082 0.104331,-0.172032 0.138697,-0.137665 0.03437,0.03437 7.1e-5,0.124433 -0.07621,0.200149 -0.110238,0.109417 -0.123059,0.0966 -0.06249,-0.06248 z m -6.369511,0.144338 c 0.04078,-0.06597 -0.08475,-0.11162 -0.306938,-0.11162 -0.206758,0 -0.466507,-0.06624 -0.577221,-0.147192 -0.181527,-0.132736 -0.18821,-0.206735 -0.06804,-0.753434 0.07329,-0.333434 0.113337,-0.882502 0.08899,-1.220152 l -0.04427,-0.613909 -0.02127,0.725529 c -0.02454,0.837043 -0.207276,1.598096 -0.36092,1.503139 -0.250819,-0.155015 -0.07467,0.125556 0.25718,0.409639 0.36234,0.310184 0.902125,0.418926 1.032484,0.208 z m 5.263428,-0.162616 c -0.03635,-0.09473 -0.118327,-0.172243 -0.182165,-0.172243 -0.07346,0 -0.06606,0.08008 0.02018,0.218163 0.15401,0.24661 0.262447,0.215871 0.161988,-0.04592 z m 3.543114,-0.157197 c 0.01279,-0.184743 -0.01708,-0.31097 -0.06637,-0.280504 -0.04929,0.03047 -0.08963,0.211487 -0.08963,0.402268 0,0.431916 0.124389,0.334824 0.156,-0.121764 z m -0.714969,-0.05072 c 0.0017,-0.175764 -0.499453,-0.01849 -0.534962,0.16789 -0.03112,0.163355 0.0016,0.170679 0.249134,0.05581 0.156726,-0.07272 0.285349,-0.173387 0.285828,-0.2237 z m -3.459347,0.140701 c 0,-0.06501 0.05877,-0.08189 0.130589,-0.0375 0.08781,0.05427 0.107238,0.01986 0.05931,-0.105032 -0.05204,-0.135606 -0.01019,-0.185741 0.155049,-0.185741 0.124478,0 0.195281,-0.05023 0.157339,-0.111619 -0.03794,-0.06139 -0.20415,-0.111303 -0.369352,-0.110915 -0.21644,5.22e-4 -0.353496,0.09407 -0.490511,0.33486 -0.188914,0.331995 -0.188373,0.334154 0.08371,0.334154 0.150622,0 0.273858,-0.05319 0.273858,-0.118207 z m 3.867354,-1.132401 c 0.01431,-0.227403 0.07924,-0.512917 0.144298,-0.634476 0.273924,-0.511832 0.02253,-1.154528 -0.534793,-1.367197 -0.262536,-0.100181 -0.330109,-0.0717 -0.602646,0.253974 -0.326284,0.389905 -0.363337,0.350253 -0.327332,-0.35029 0.01405,-0.273291 0.01184,-0.274067 -0.106994,-0.03759 -0.131017,0.26072 -0.503029,0.414755 -0.604634,0.250354 -0.03438,-0.05563 -0.112738,-0.101141 -0.174129,-0.101141 -0.06139,0 -0.08058,0.05023 -0.04264,0.11162 0.03794,0.06139 -0.0046,0.11162 -0.09458,0.11162 -0.106817,0 -0.143959,0.07498 -0.107053,0.216114 0.05415,0.207077 0.07275,0.208374 0.444731,0.03099 0.381055,-0.181712 0.392266,-0.180036 0.607797,0.09084 0.309937,0.389526 0.432472,0.72914 0.434445,1.204098 0.0011,0.259992 0.03564,0.357812 0.09394,0.265892 0.05073,-0.07998 0.162975,-0.130209 0.249436,-0.11162 0.09943,0.02138 0.170179,-0.079 0.19252,-0.273158 0.03601,-0.312954 0.243731,-0.438058 0.243731,-0.146791 0,0.334496 -0.225521,0.732863 -0.415812,0.734505 -0.169165,0.0015 -0.173644,0.01785 -0.03067,0.112259 0.344416,0.22741 0.602699,0.07991 0.630376,-0.359998 z m -3.354884,-0.07681 c 0.468444,-0.125867 0.920941,-0.49887 0.740486,-0.610397 -0.05808,-0.0359 -0.06354,-0.33716 -0.01285,-0.708706 0.09663,-0.708187 0.07118,-1.113451 -0.06626,-1.055309 -0.04868,0.02059 -0.127332,-0.02539 -0.174793,-0.102187 -0.10243,-0.165735 -0.95575,-0.155675 -1.412193,0.01665 -0.912088,0.344345 -1.240006,0.578944 -1.296692,0.927677 -0.07126,0.438378 0.120304,1.126495 0.378696,1.360337 0.22998,0.208129 1.249219,0.496303 1.331134,0.376358 0.0307,-0.04495 0.261307,-0.136936 0.512469,-0.204422 z m -1.465114,-0.118225 c -0.383618,-0.155495 -0.530996,-0.405687 -0.391982,-0.665437 0.127957,-0.239089 0.453872,-0.456173 0.684868,-0.456173 0.09116,0 0.07699,0.0655 -0.04282,0.197885 -0.226956,0.250783 -0.08193,0.523311 0.226409,0.42545 0.138536,-0.04397 0.277964,-0.0021 0.372487,0.111753 0.129289,0.155785 0.120439,0.204427 -0.06139,0.33738 -0.236533,0.172958 -0.44935,0.186237 -0.787572,0.04914 z m 1.863228,-1.34485 c 0,-0.153477 0.02533,-0.216263 0.0563,-0.139524 0.03096,0.07674 0.03096,0.202311 0,0.279049 -0.03096,0.07674 -0.0563,0.01395 -0.0563,-0.139525 z m 3.330973,1.06039 c 0.08009,-0.09651 0.09094,-0.16743 0.02561,-0.16743 -0.06234,0 -0.142257,0.07534 -0.177594,0.16743 -0.03534,0.09209 -0.04686,0.16743 -0.02561,0.16743 0.02125,0 0.101169,-0.07534 0.177594,-0.16743 z m -2.491009,-0.746458 c -0.03563,-0.08904 -0.06208,-0.06259 -0.06744,0.06744 -0.0048,0.117666 0.02153,0.183591 0.05862,0.146501 0.03709,-0.03709 0.04106,-0.133363 0.0088,-0.213938 z m -6.853103,-0.513926 c 0.03767,0.101189 0.0783,0.0845 0.136263,-0.05597 0.133203,-0.322785 -0.04234,-0.367521 -0.310849,-0.07922 -0.136424,0.146481 -0.165028,0.20438 -0.06356,0.128665 0.14715,-0.109808 0.19534,-0.108489 0.23815,0.0065 z m 0.191279,-1.0914898 c 0,-0.03069 -0.100457,-0.002 -0.223239,0.06366 -0.122782,0.06571 -0.22324,0.144589 -0.22324,0.175285 0,0.0307 0.100458,0.002 0.22324,-0.06367 0.122782,-0.06571 0.223239,-0.144589 0.223239,-0.175283 z M 35.034176,7.38709 c 0.08303,-0.155147 0.06909,-0.299576 -0.05119,-0.530195 -0.09092,-0.174329 -0.165624,-0.239106 -0.166002,-0.14395 -3.78e-4,0.09516 0.05419,0.227893 0.121273,0.294971 0.0882,0.0882 0.08711,0.187073 -0.0039,0.357184 -0.06924,0.129372 -0.100773,0.235223 -0.07008,0.235223 0.0307,0 0.107164,-0.09596 0.169929,-0.213233 z M 33.921623,6.046946 c 0.0023,-0.504663 -0.06386,-0.408222 -0.142707,0.208137 -0.04108,0.321196 -0.02741,0.439423 0.03874,0.33486 0.05624,-0.0889 0.103023,-0.333245 0.103964,-0.542997 z m -0.910256,-0.455781 -0.0089,-0.39067 -0.07725,0.44648 c -0.04249,0.245564 -0.111048,0.572052 -0.152352,0.725529 -0.06017,0.223596 -0.04305,0.212506 0.08619,-0.05581 0.08871,-0.184172 0.157267,-0.510661 0.152352,-0.725529 z m -0.153014,13.721822 c -0.04046,-0.06548 -0.04963,-0.142985 -0.02038,-0.172243 0.02926,-0.02926 0.08294,0.02431 0.119294,0.119046 0.07548,0.196686 0.01115,0.231283 -0.09892,0.0532 z m -0.342075,-0.643191 c 0.03145,-0.05089 -0.103717,-0.289241 -0.300367,-0.529679 l -0.357547,-0.43716 0.46196,0.385497 c 0.413284,0.344879 0.532913,0.67386 0.245039,0.67386 -0.05844,0 -0.08053,-0.04163 -0.04908,-0.09252 z m -1.214754,-0.311895 c -0.105515,-0.161036 -0.136677,-0.258696 -0.06925,-0.217023 0.128853,0.07964 0.388736,0.509816 0.307993,0.509816 -0.0258,0 -0.13323,-0.131757 -0.238745,-0.292793 z m 0.760332,0.04165 c -0.251746,-0.279643 -0.410031,-0.530195 -0.334948,-0.530195 0.02703,0 0.18324,0.175801 0.347128,0.390669 0.336148,0.440713 0.329325,0.518873 -0.01218,0.139526 z m 0.140669,-0.725529 c -0.04604,-0.04604 -0.13813,-0.08371 -0.204636,-0.08371 -0.06651,0 -0.141851,-0.06279 -0.16743,-0.139525 -0.02558,-0.07674 -0.0017,-0.139525 0.05308,-0.139525 0.159018,0 0.539086,0.310096 0.467638,0.381544 -0.03571,0.03571 -0.102607,0.02726 -0.148651,-0.01878 z m -0.190969,-0.5581 c -0.138841,-0.177035 -0.134893,-0.180983 0.04214,-0.04214 0.107434,0.08426 0.195335,0.172157 0.195335,0.195335 0,0.09187 -0.09166,0.03274 -0.237478,-0.153192 z m -0.543862,-0.01473 c 0,-0.06139 0.05023,-0.142663 0.11162,-0.180604 0.06139,-0.03794 0.11162,-0.01875 0.11162,0.04263 0,0.06139 -0.05023,0.142663 -0.11162,0.180605 -0.06139,0.03794 -0.11162,0.01875 -0.11162,-0.04264 z m 0.448718,-0.401147 c -0.08804,-0.106082 -0.09651,-0.170127 -0.02249,-0.170127 0.134898,0 0.292175,0.211765 0.214767,0.289173 -0.0281,0.0281 -0.114618,-0.02548 -0.192274,-0.119046 z m 0.109382,-0.393367 c 0,-0.06139 0.05023,-0.11162 0.11162,-0.11162 0.06139,0 0.11162,0.05023 0.11162,0.11162 0,0.06139 -0.05023,0.11162 -0.11162,0.11162 -0.06139,0 -0.11162,-0.05023 -0.11162,-0.11162 z m -0.02093,-0.411109 c 0.08058,-0.03224 0.176847,-0.02828 0.213938,0.0088 0.03709,0.03709 -0.02884,0.06347 -0.146502,0.05862 -0.13003,-0.0054 -0.15648,-0.03181 -0.06744,-0.06744 z m -3.216049,-0.134975 c 0,-0.07525 -0.05023,-0.105768 -0.11162,-0.06783 -0.06139,0.03794 -0.11162,0.01283 -0.11162,-0.05581 0,-0.06864 -0.05289,-0.0921 -0.117544,-0.05215 -0.06465,0.03996 -0.207878,-0.03151 -0.318286,-0.158813 -0.110409,-0.127302 -0.228536,-0.203665 -0.262504,-0.169696 -0.09553,0.09553 -0.221215,-0.602216 -0.133921,-0.743461 0.04248,-0.06874 0.01294,-0.245151 -0.06566,-0.392018 -0.118517,-0.221451 -0.172053,-0.24345 -0.313642,-0.128882 -0.115838,0.09373 -0.145641,0.0963 -0.0927,0.008 0.04292,-0.07159 0.02637,-0.266055 -0.03678,-0.432151 -0.08423,-0.221546 -0.07752,-0.350412 0.02518,-0.483751 0.09268,-0.120324 0.05576,-0.109887 -0.10922,0.03088 -0.411623,0.351195 -0.28091,-0.0025 0.179975,-0.486984 0.236059,-0.248149 0.386413,-0.45118 0.334122,-0.45118 -0.05229,0 -0.200965,0.121784 -0.330386,0.270631 -0.129902,0.1494 -0.306734,0.243225 -0.394751,0.209449 -0.134745,-0.05171 -0.131652,-0.09189 0.01996,-0.259421 0.165663,-0.183056 0.163895,-0.196961 -0.02309,-0.181544 -0.151459,0.01249 -0.201381,-0.06066 -0.19809,-0.29026 0.0024,-0.168825 -0.03147,-0.306954 -0.0753,-0.306954 -0.130732,0 0.01171,-0.821689 0.158627,-0.915048 0.08734,-0.0555 0.04821,-0.08672 -0.110088,-0.08782 -0.135079,-9.48e-4 -0.290967,0.07936 -0.346418,0.178446 -0.08778,0.156856 -0.108671,0.150132 -0.161528,-0.05199 -0.03339,-0.127682 -0.02819,-0.225892 0.01156,-0.218245 0.207027,0.03983 0.462937,-0.188032 0.462937,-0.412206 0,-0.1403408 0.07534,-0.2840778 0.16743,-0.3194148 0.09209,-0.03534 0.168199,-0.003 0.169139,0.07177 0.0012,0.09556 0.0261,0.09932 0.08372,0.01262 0.117675,-0.177067 1.097794,-0.2649112 1.262649,-0.113166 0.100438,0.09245 0.117131,0.0917 0.06419,-0.0029 -0.03935,-0.07031 0.0061,-0.1576312 0.101042,-0.1940562 0.104757,-0.0402 0.14398,-0.01994 0.0998,0.05154 -0.04003,0.06477 0.008,0.1772132 0.106708,0.2498672 0.143473,0.105589 -0.01142,0.1335668 -0.771903,0.1394198 -0.535785,0.0041 -1.005288,0.06121 -1.074764,0.130691 -0.09008,0.09008 -0.0059,0.09697 0.312121,0.02552 0.408006,-0.09167 1.545381,-0.107904 1.27631,-0.01821 -0.06794,0.02265 -0.09561,0.08636 -0.06148,0.141583 0.03419,0.05532 -0.07827,0.07333 -0.250449,0.0401 -0.171877,-0.03317 -0.509203,0.0089 -0.749614,0.09338 l -0.43711,0.153693 0.816933,-0.008 c 0.559784,-0.0055 0.832067,0.03595 0.865012,0.131612 0.03205,0.09306 -0.01695,0.114647 -0.146989,0.06475 -0.133032,-0.05105 -0.1694,-0.03332 -0.114359,0.05573 0.04573,0.07398 0.01738,0.132199 -0.0654,0.134303 -0.085,0.0022 -0.0408,0.09156 0.105655,0.21373 0.173584,0.144799 0.208246,0.227663 0.11162,0.266839 -0.106559,0.0432 -0.100795,0.08415 0.02405,0.17087 0.183087,0.127169 0.17443,0.139939 -0.220007,0.324525 -0.278072,0.13013 -0.277931,0.130349 0.04025,0.06255 0.282216,-0.06014 0.310999,-0.04188 0.247819,0.157178 -0.04962,0.15635 -0.01169,0.248166 0.124051,0.300254 0.167035,0.0641 0.171587,0.09018 0.03123,0.178939 -0.133506,0.08443 -0.12246,0.104547 0.05894,0.107325 0.172732,0.0027 0.188007,0.02573 0.06751,0.102024 -0.12468,0.07895 -0.113554,0.107461 0.05581,0.143019 0.17931,0.03765 0.160523,0.0727 -0.123324,0.230075 -0.184173,0.102115 -0.284631,0.186905 -0.22324,0.188423 0.06139,0.0015 0.185279,-0.04383 0.275306,-0.100766 0.103766,-0.06563 0.216133,-0.06 0.306955,0.01537 0.214036,0.177634 0.173161,0.401896 -0.08838,0.484906 -0.127408,0.04044 -0.209718,0.09546 -0.18291,0.122265 0.0268,0.02681 0.178611,-6.16e-4 0.337342,-0.06098 0.245264,-0.09325 0.299473,-0.07547 0.361011,0.118419 0.05207,0.164053 -8.54e-4,0.280231 -0.188354,0.413557 -0.314966,0.223953 -0.876777,0.365267 -0.876777,0.220538 0,-0.05726 -0.05243,-0.07171 -0.116509,-0.0321 -0.06408,0.0396 -0.19092,0.01025 -0.281866,-0.06523 -0.145147,-0.12046 -0.141645,-0.165972 0.02865,-0.372373 l 0.194007,-0.235141 -0.235336,0.22324 c -0.129436,0.122782 -0.265237,0.348812 -0.301782,0.502289 -0.03654,0.153478 -0.03761,0.216264 -0.0024,0.139525 0.03524,-0.07674 0.113088,-0.139525 0.172987,-0.139525 0.0599,0 0.07709,0.05147 0.03821,0.114386 -0.03888,0.06291 -0.02929,0.107193 0.02132,0.0984 0.05061,-0.0088 0.224865,-0.01004 0.387242,-0.0028 0.26245,0.01175 0.300738,0.06589 0.344827,0.487603 0.02728,0.260912 0.03256,0.495313 0.01172,0.520893 -0.02083,0.02558 -0.03787,-0.01506 -0.03787,-0.0903 z M 27.616806,13.51618 c 0.111116,-0.122782 0.176915,-0.22324 0.146219,-0.22324 -0.0307,0 -0.146723,0.100458 -0.257839,0.22324 -0.111116,0.122781 -0.176915,0.223239 -0.146219,0.223239 0.0307,0 0.146723,-0.100458 0.257839,-0.223239 z m 0.232568,-0.822468 c 0.01484,-0.101109 -0.05075,-0.135787 -0.188624,-0.09973 -0.116256,0.0304 -0.211374,0.09807 -0.211374,0.150374 0,0.0523 0.0879,0.06216 0.195335,0.02189 0.176073,-0.06599 0.179356,-0.05188 0.03329,0.143028 -0.124725,0.166432 -0.126271,0.184359 -0.0067,0.07784 0.08543,-0.07612 0.165573,-0.208148 0.178086,-0.293402 z M 27.393566,12.06512 c 0.03794,-0.06139 0.01579,-0.111619 -0.04922,-0.111619 -0.06501,0 -0.118207,0.05023 -0.118207,0.111619 0,0.06139 0.02215,0.11162 0.04922,0.11162 0.02707,0 0.08027,-0.05023 0.118207,-0.11162 z m -0.343082,-0.236542 c -0.02982,-0.04824 0.08541,-0.163434 0.256055,-0.255978 0.170647,-0.09254 0.250281,-0.170272 0.176966,-0.17273 -0.07332,-0.0025 -0.269554,0.112732 -0.436087,0.255978 -0.219578,0.188872 -0.253312,0.260446 -0.122754,0.260446 0.09902,0 0.155637,-0.03947 0.12582,-0.08772 z m 4.193969,3.266936 c 0,-0.18205 0.245621,-0.797989 0.317874,-0.797125 0.04004,4.75e-4 0.136711,0.138458 0.214829,0.306619 0.122621,0.263959 0.115891,0.324863 -0.04924,0.445608 -0.219278,0.160341 -0.483464,0.184875 -0.483464,0.0449 z m 9.325229,-0.0086 c -0.03521,-0.05697 0.03018,-0.133481 0.145311,-0.170022 0.268188,-0.08512 1.021731,-0.896004 1.021731,-1.099481 0,-0.180356 0.418416,-0.589722 0.50958,-0.498558 0.03395,0.03395 -0.02034,0.344035 -0.120641,0.689073 -0.122092,0.419979 -0.225737,0.601338 -0.313561,0.548671 -0.07215,-0.04327 -0.05584,0.01572 0.03624,0.131084 0.152128,0.190584 0.149341,0.202973 -0.03049,0.135558 -0.168442,-0.06315 -0.180324,-0.04132 -0.07979,0.146531 0.136929,0.255856 -0.02173,0.29772 -0.220527,0.05819 -0.07419,-0.0894 -0.09769,-0.227527 -0.05221,-0.306955 0.04548,-0.07943 -0.06596,-0.0063 -0.247644,0.16254 -0.343241,0.318957 -0.538662,0.380289 -0.648003,0.203371 z M 27.339464,14.499441 c -9.48e-4,-0.103811 0.04852,-0.219791 0.109911,-0.257732 0.141266,-0.08731 0.141266,0.06046 0,0.279049 -0.09325,0.14429 -0.108438,0.141344 -0.109911,-0.02132 z m 4.633175,-0.38264 c -0.210593,-0.210593 -0.168673,-0.301045 0.09299,-0.200637 0.100873,0.03871 0.183406,0.140349 0.183406,0.225867 0,0.20105 -0.05515,0.196016 -0.276392,-0.02523 z m -5.184171,-0.219254 c 0.0054,-0.130031 0.03181,-0.15648 0.06744,-0.06744 0.03224,0.08058 0.02828,0.176848 -0.0088,0.213939 -0.03709,0.03709 -0.06347,-0.02884 -0.05862,-0.146502 z M 26.46242,13.29294 c 0,-0.153478 0.02534,-0.216264 0.0563,-0.139525 0.03096,0.07674 0.03096,0.202311 0,0.279049 -0.03096,0.07674 -0.0563,0.01395 -0.0563,-0.139524 z m 5.936748,-0.953583 c -0.03635,-0.09474 -0.04116,-0.197185 -0.01067,-0.227668 0.03048,-0.03048 0.08221,0.04703 0.114959,0.172244 0.06956,0.265982 -0.0077,0.307054 -0.104287,0.05542 z m -6.251746,-0.337549 c -0.03692,-0.09621 -0.02278,-0.219274 0.03141,-0.273469 0.05697,-0.05697 0.09854,0.01683 0.09854,0.174933 0,0.316879 -0.03576,0.343991 -0.129944,0.09854 z m -0.03578,-0.571915 c 9.48e-4,-0.04967 0.0504,-0.165645 0.10991,-0.257732 0.09325,-0.144289 0.108438,-0.141343 0.109911,0.02132 9.48e-4,0.103811 -0.04852,0.21979 -0.109911,0.257732 -0.06139,0.03794 -0.110851,0.02835 -0.10991,-0.02132 z m 6.927537,-0.211224 c 0.0054,-0.13003 0.03181,-0.15648 0.06744,-0.06744 0.03224,0.08057 0.02828,0.176847 -0.0088,0.213938 -0.03709,0.03709 -0.06347,-0.02884 -0.05862,-0.146502 z m 7.134862,-0.2011 c 0,-0.02363 0.125572,-0.125251 0.27905,-0.225813 0.316839,-0.207601 0.363022,-0.165992 0.103647,0.09338 -0.160114,0.160113 -0.382697,0.237137 -0.382697,0.13243 z M 25.904322,10.390822 c 0,-0.153478 0.02534,-0.216264 0.0563,-0.139525 0.03096,0.07674 0.03096,0.202311 0,0.27905 -0.03096,0.07674 -0.0563,0.01395 -0.0563,-0.139525 z m 14.614706,0.0082 c -0.08652,-0.05457 -0.237206,-0.07089 -0.33486,-0.03628 -0.09765,0.03461 -0.03894,-0.0494 0.130466,-0.186695 0.169411,-0.137295 0.277505,-0.2989988 0.240211,-0.3593418 -0.03729,-0.06034 0.0073,-0.1944522 0.09903,-0.2980172 0.09176,-0.103566 0.184584,-0.284597 0.206269,-0.402292 0.02168,-0.117695 0.09585,-0.232773 0.164804,-0.25573 0.189005,-0.06292 0.003,0.8037532 -0.220438,1.0272082 -0.229978,0.2299788 -0.242339,0.3554238 -0.01656,0.1680418 0.203017,-0.1684888 0.221097,-0.0028 0.02791,0.255633 -0.09369,0.125355 -0.191202,0.15409 -0.296833,0.08747 z M 26.175923,10.025319 c 0.01455,-0.1980148 0.03655,-0.3851408 0.0489,-0.415837 0.01234,-0.0307 0.01288,-0.147423 0.0012,-0.259394 -0.01337,-0.127991 0.07289,-0.228207 0.232313,-0.269897 0.207166,-0.05418 0.21967,-0.07821 0.06831,-0.131302 -0.132127,-0.04635 -0.155631,-0.112946 -0.08194,-0.23218 0.09124,-0.147631 0.165844,-0.145289 0.637726,0.02002 0.293919,0.102966 0.735314,0.222598 0.980878,0.26585 0.449978,0.07925 1.11749,0.363768 1.038584,0.442675 -0.0234,0.0234 -0.241544,-0.02833 -0.484758,-0.114951 -0.663171,-0.236204 -1.994167,-0.219096 -2.18117,0.02803 -0.125745,0.166177 -0.124453,0.174508 0.0087,0.05581 0.26035,-0.232161 0.384797,-0.156276 0.157023,0.09575 -0.11695,0.1294002 -0.198223,0.3226272 -0.180609,0.4293922 0.01761,0.1067658 -0.03628,0.2508048 -0.119758,0.3200888 -0.123274,0.102308 -0.146816,0.05834 -0.125333,-0.234057 z M 30.072444,9.609482 C 30.18356,9.4867 30.299588,9.386243 30.330283,9.386243 c 0.0307,0 -0.0351,0.100457 -0.146219,0.223239 -0.111116,0.1227822 -0.227144,0.2232402 -0.257839,0.2232402 -0.0307,0 0.0351,-0.100458 0.146219,-0.2232402 z m -3.40461,-0.02236 c 4.74e-4,-0.190998 0.390542,-0.276306 0.821056,-0.179576 0.645464,0.145027 0.625149,0.176197 -0.143065,0.219509 -0.373007,0.02103 -0.678103,0.0031 -0.677991,-0.03993 z m 1.283832,-0.200881 c -0.140713,-0.06047 -0.161344,-0.09593 -0.05581,-0.09593 0.09209,0 0.267888,0.04317 0.39067,0.09593 0.140712,0.06047 0.161344,0.09593 0.05581,0.09593 -0.09209,0 -0.267888,-0.04317 -0.39067,-0.09593 z m 11.632796,-0.07782 c -0.02857,-0.04928 -0.04054,-0.215179 -0.02662,-0.368657 0.0153,-0.168598 -0.109195,-0.455773 -0.31453,-0.725529 -0.400573,-0.526247 -1.309484,-1.392066 -1.469097,-1.399445 -0.06139,-0.0028 0.06418,-0.101408 0.27905,-0.219044 0.214868,-0.117635 0.324919,-0.215987 0.244557,-0.218561 -0.08269,-0.0027 -0.111078,-0.06136 -0.0654,-0.135267 0.05678,-0.09187 0.01736,-0.104969 -0.132937,-0.04419 -0.417767,0.168955 -0.869359,0.281797 -0.921016,0.230139 -0.127848,-0.127848 0.876347,-0.430607 1.432899,-0.432011 1.176604,-0.003 2.578849,0.986739 2.401153,1.694737 -0.04211,0.1678 -0.02398,0.237269 0.05001,0.191542 0.06385,-0.03946 0.116094,-0.01856 0.116094,0.04646 0,0.06501 -0.07534,0.118208 -0.16743,0.118208 -0.105022,0 -0.172372,0.114412 -0.18069,0.306955 -0.0099,0.229441 -0.05,0.166021 -0.158771,-0.251145 l -0.145513,-0.5581 0.01466,0.692909 c 0.0081,0.381101 -0.02094,0.728517 -0.06447,0.772038 -0.04352,0.04352 -0.07913,-0.02355 -0.07913,-0.149047 0,-0.125497 -0.08357,-0.297113 -0.185704,-0.381368 -0.167872,-0.138482 -0.173231,-0.12978 -0.05581,0.09061 0.21232,0.398517 0.146631,0.565729 -0.07962,0.202673 -0.114773,-0.184173 -0.37468,-0.485547 -0.577571,-0.669719 -0.302061,-0.274194 -0.280214,-0.227483 0.12059,0.257835 0.386209,0.467644 0.465261,0.631094 0.37468,0.774696 -0.135427,0.214696 -0.336135,0.299646 -0.409389,0.173275 z m 0.240271,-0.430947 c -0.155342,-0.155342 -0.169531,-0.147016 -0.144043,0.08451 0.01555,0.141255 0.03246,0.279431 0.03758,0.307057 0.0051,0.02763 0.06994,-0.01041 0.144043,-0.08451 0.105241,-0.105242 0.09701,-0.172467 -0.03758,-0.307057 z M 39.504327,7.668973 c 0,-0.02363 -0.13813,-0.127074 -0.306955,-0.229865 l -0.306955,-0.186892 0.263511,0.229865 c 0.257141,0.224309 0.350399,0.27405 0.350399,0.186892 z m 0.669719,-0.33403 c 0,-0.02318 -0.0879,-0.111079 -0.195335,-0.195335 -0.177035,-0.138841 -0.180983,-0.134892 -0.04214,0.04214 0.145817,0.18593 0.237478,0.245059 0.237478,0.153192 z m 0.22324,-0.22324 c 0,-0.02318 -0.0879,-0.111079 -0.195335,-0.195334 -0.177035,-0.138841 -0.180984,-0.134893 -0.04214,0.04214 0.145817,0.18593 0.237477,0.245059 0.237477,0.153192 z m -0.72553,-0.181097 c -0.03794,-0.06139 -0.128806,-0.11085 -0.201922,-0.109911 -0.07988,0.001 -0.06611,0.0449 0.03449,0.109911 0.214436,0.138579 0.253077,0.138579 0.16743,0 z m -6.697194,2.009158 c 0.306853,-0.131859 0.483087,-0.131859 0.27905,0 -0.09209,0.05951 -0.242774,0.105441 -0.33486,0.102066 -0.110398,-0.004 -0.09139,-0.03881 0.05581,-0.102066 z m -4.541535,-0.07625 c 0.08058,-0.03224 0.176848,-0.02828 0.213938,0.0088 0.03709,0.03709 -0.02883,0.06347 -0.146501,0.05862 -0.130031,-0.0054 -0.15648,-0.03181 -0.06744,-0.06744 z m -2.30133,-0.31442 c 0.0023,-0.184173 0.02729,-0.246003 0.05559,-0.137401 0.0283,0.108603 0.02644,0.25929 -0.0041,0.33486 -0.03057,0.07557 -0.05373,-0.01328 -0.05146,-0.197459 z m 1.261869,0.140458 c -0.122782,-0.07249 -0.290628,-0.142539 -0.372992,-0.15566 -0.215515,-0.03433 -0.30717,-0.151914 -0.119995,-0.153937 0.1302,-0.0014 0.128557,-0.02082 -0.0093,-0.109911 -0.148105,-0.09571 -0.147751,-0.108399 0.0031,-0.109911 0.09377,-9.48e-4 0.275534,0.07186 0.403911,0.16178 0.128378,0.08992 0.257969,0.138935 0.287981,0.108923 0.03001,-0.03001 0.118103,0.02199 0.195759,0.11556 0.07766,0.09357 0.222944,0.1686 0.322861,0.166733 0.157964,-0.0029 0.155875,-0.01841 -0.01601,-0.11848 -0.108725,-0.0633 -0.169914,-0.160016 -0.135974,-0.214932 0.03394,-0.05492 -0.01267,-0.277859 -0.103577,-0.495429 -0.09091,-0.217571 -0.145989,-0.395583 -0.122404,-0.395583 0.02359,0 0.219686,0.263701 0.435782,0.586004 0.345059,0.514649 0.369725,0.595243 0.202568,0.661874 -0.296931,0.118362 -0.726779,0.09756 -0.971672,-0.04703 z M 41.067005,8.499871 c 0,-0.269513 0.06207,-0.296703 0.150613,-0.06597 0.03458,0.09012 0.01484,0.193543 -0.04387,0.229828 -0.05871,0.03628 -0.106746,-0.03745 -0.106746,-0.163856 z M 28.709603,8.385626 c -0.39659,-0.241814 -0.883849,-1.063661 -0.698531,-1.178193 0.06245,-0.0386 0.1004,-0.02878 0.08432,0.02183 -0.04376,0.137745 0.685005,1.152401 0.827703,1.152401 0.07433,0 0.0576,-0.07783 -0.042,-0.195336 -0.202818,-0.2393 -0.651309,-1.016374 -0.647901,-1.122579 0.0014,-0.04254 0.0941,0.0418 0.206077,0.187415 0.166722,0.2168 0.215535,0.233635 0.26952,0.09295 0.03703,-0.09649 -0.0044,-0.198774 -0.09446,-0.233342 -0.08821,-0.03385 -0.160382,-0.113775 -0.160382,-0.177613 0,-0.152025 0.422422,0.108609 0.498856,0.307794 0.03118,0.08125 0.007,0.117035 -0.05366,0.07953 -0.278089,-0.171869 -0.06952,0.144976 0.277922,0.422201 0.213542,0.170385 0.44551,0.42153 0.515486,0.558099 0.07339,0.143242 -0.123833,0.01216 -0.466111,-0.30979 -0.597414,-0.561933 -0.571972,-0.442281 0.05883,0.27667 0.192207,0.219067 0.231229,0.296657 0.08954,0.178035 -0.226172,-0.189348 -0.302728,-0.167488 -0.264363,0.07549 0.01831,0.115961 0.0034,0.110914 -0.400853,-0.135563 z m 2.879012,0.190183 c 0.02558,-0.016 0.17208,-0.129017 0.325558,-0.251145 l 0.279049,-0.22205 -0.212634,0.251145 c -0.116949,0.13813 -0.26345,0.251145 -0.325558,0.251145 -0.06211,0 -0.092,-0.01309 -0.06642,-0.0291 z M 27.345794,8.223918 c -0.132388,-0.159517 -0.124925,-0.172593 0.05989,-0.104932 0.204524,0.07488 0.20479,0.07007 0.0085,-0.153793 -0.141026,-0.160849 -0.164213,-0.254814 -0.07629,-0.309154 0.124168,-0.07674 0.275079,0.0027 0.28285,0.148922 0.0022,0.04093 0.07318,0.199986 0.157799,0.353463 0.138067,0.250432 0.135913,0.264263 -0.02101,0.134866 -0.12715,-0.10485 -0.186536,-0.109123 -0.217689,-0.01566 -0.02812,0.08438 -0.09478,0.06593 -0.194072,-0.05371 z M 26.222112,8.119483 c -10e-4,-0.177456 0.569202,-1.386694 0.797504,-1.691167 0.384677,-0.513022 0.914408,-1.041262 1.17535,-1.17204 0.173139,-0.08677 0.4027,-0.230508 0.510134,-0.31941 0.107435,-0.0889 0.195335,-0.122589 0.195335,-0.07486 0,0.04773 0.06279,0.03747 0.139525,-0.0228 0.210053,-0.164972 0.892431,-0.275591 0.802508,-0.130093 -0.0405,0.06554 0.08924,0.03493 0.288313,-0.06802 0.237783,-0.122963 0.386606,-0.147293 0.433806,-0.07092 0.03951,0.06394 0.135469,0.07693 0.213227,0.02888 0.07776,-0.04806 0.327577,-0.05585 0.555154,-0.01731 0.446821,0.07566 0.47125,0.16358 0.302826,1.089858 -0.07406,0.407318 -0.554567,1.03577 -0.791933,1.03577 -0.197892,0 -0.2002,0.01868 0.06573,-0.531742 0.122781,-0.254129 0.219274,-0.55238 0.214427,-0.66278 -0.0068,-0.154657 -0.02252,-0.162299 -0.06853,-0.03329 -0.130077,0.364693 -0.523994,1.116101 -0.584256,1.11449 -0.03516,-9.49e-4 -0.136044,-0.04734 -0.224182,-0.103113 -0.139257,-0.08812 -0.139257,-0.128111 0,-0.305246 0.144676,-0.184029 0.142321,-0.189828 -0.02423,-0.05966 -0.150764,0.117832 -0.195054,0.117832 -0.242333,0 -0.04427,-0.110334 -0.05992,-0.111428 -0.06667,-0.0046 -0.0055,0.0865 -0.175817,0.139524 -0.448274,0.139524 h -0.439462 l 0.04686,-0.418574 0.04685,-0.418575 -0.0977,0.373106 c -0.130066,0.496717 -0.279142,0.636639 -0.465612,0.437022 -0.125109,-0.13393 -0.184296,-0.114665 -0.4002,0.130258 -0.169892,0.192728 -0.254538,0.233279 -0.256904,0.123072 -0.0023,-0.107768 -0.0661,-0.07503 -0.185249,0.09508 -0.142383,0.203281 -0.20242,0.226779 -0.27734,0.108551 -0.07579,-0.119597 -0.09597,-0.113214 -0.09733,0.03077 -9.48e-4,0.09992 -0.0765,0.243738 -0.16791,0.319603 -0.09141,0.07586 -0.138675,0.182472 -0.105033,0.236907 0.03364,0.05443 -0.01714,0.09897 -0.112849,0.09897 -0.09571,0 -0.175823,0.03767 -0.178031,0.08372 -0.0058,0.120862 -0.552869,0.771861 -0.553531,0.658684 z m 4.349204,-2.026027 c 0,-0.06139 -0.04869,-0.03628 -0.108202,0.05581 -0.05951,0.09209 -0.108201,0.217658 -0.108201,0.27905 0,0.06139 0.04869,0.03628 0.108201,-0.05581 0.05951,-0.09209 0.108202,-0.217658 0.108202,-0.279049 z M 29.548598,5.867262 c -0.03437,-0.03437 -0.09678,0.02758 -0.138697,0.137665 -0.06057,0.15908 -0.04775,0.171901 0.06249,0.06248 0.07628,-0.07571 0.110578,-0.165782 0.07621,-0.200149 z M 30.663701,5.1873 30.625821,4.754017 30.571981,5.279022 c -0.02961,0.288753 -0.01256,0.48373 0.03788,0.433284 0.05045,-0.05045 0.07467,-0.2867 0.05384,-0.525006 z m 0.545382,-0.175162 c -0.03563,-0.08904 -0.06208,-0.06259 -0.06744,0.06744 -0.0048,0.117666 0.02153,0.183591 0.05863,0.146501 0.03709,-0.03709 0.04106,-0.133363 0.0088,-0.213938 z M 30.410259,4.719762 c -0.03437,-0.03437 -0.124434,-7.1e-5 -0.200149,0.07621 -0.109417,0.110237 -0.0966,0.123058 0.06248,0.06248 0.110082,-0.04191 0.172031,-0.104331 0.137665,-0.138697 z m -3.853841,3.330125 c 0,-0.151307 0.19836,-0.245264 0.270696,-0.128221 0.03458,0.05596 -0.01217,0.130546 -0.103907,0.165748 -0.09173,0.0352 -0.166789,0.01831 -0.166789,-0.03753 z m 4.464796,-0.177102 c 0,-0.162001 0.04831,-0.255777 0.11162,-0.216652 0.06139,0.03794 0.11162,0.166479 0.11162,0.285637 0,0.119159 -0.05023,0.216653 -0.11162,0.216653 -0.06139,0 -0.11162,-0.128537 -0.11162,-0.285638 z m -1.168544,0.068 c -0.04109,-0.06648 -0.114746,-0.09612 -0.16369,-0.06587 -0.102527,0.06337 -0.364016,-0.212649 -0.560005,-0.591112 -0.238124,-0.459831 -0.03731,-0.384757 0.226527,0.08469 0.365969,0.651154 0.39656,0.475292 0.04026,-0.23146 -0.273387,-0.54229 -0.279137,-0.577527 -0.06263,-0.383849 0.131114,0.117289 0.267382,0.184262 0.302817,0.148826 0.121138,-0.121138 0.469475,0.340194 0.53976,0.714849 0.068,0.362465 0.06155,0.358469 -0.206831,-0.12816 -0.312814,-0.567196 -0.371344,-0.529302 -0.11821,0.07653 0.16035,0.383772 0.161682,0.633924 0.002,0.375551 z m 0.507637,-0.136001 c -0.0048,-0.163804 -0.03867,-0.389834 -0.07515,-0.502289 -0.05517,-0.170048 -0.04607,-0.176282 0.0541,-0.03704 0.102223,0.142106 0.122381,0.133665 0.133275,-0.05581 0.0107,-0.186108 0.0277,-0.176825 0.102203,0.05581 0.127129,0.396961 0.135454,0.880166 0.01181,0.684995 -0.08139,-0.12846 -0.105823,-0.12846 -0.156909,0 -0.03328,0.08369 -0.06447,0.01813 -0.06932,-0.145671 z m 0.459428,-0.03704 c 0.0023,-0.184173 0.02729,-0.246003 0.05559,-0.137401 0.0283,0.108603 0.02644,0.25929 -0.0041,0.33486 -0.03057,0.07557 -0.05373,-0.01328 -0.05146,-0.197459 z m 1.317679,0.12743 c 0,-0.140919 0.563457,-0.45837 0.72713,-0.409663 0.03684,0.01097 0.239912,-0.111963 0.451267,-0.273171 0.211354,-0.161209 0.384281,-0.243741 0.384281,-0.183407 0,0.134595 -0.455646,0.462133 -1.088294,0.782314 -0.36646,0.185464 -0.474384,0.204558 -0.474384,0.08393 z M 31.866252,7.501458 c -0.0336,-0.05437 0.06433,-0.122833 0.217629,-0.152138 0.225529,-0.04311 0.254627,-0.02425 0.152461,0.09886 -0.145507,0.175325 -0.282476,0.195045 -0.37009,0.05328 z M 31.021214,6.973235 c 0,-0.03794 0.149962,-0.239776 0.333247,-0.448526 0.337517,-0.38441 0.364931,-0.458004 0.525612,-1.411 l 0.08991,-0.533258 0.263063,0.185171 c 0.229202,0.161334 0.253623,0.244212 0.189716,0.643861 -0.09212,0.576073 -0.660069,1.475785 -0.986918,1.563411 -0.318594,0.08541 -0.414631,0.08549 -0.41463,3.41e-4 z"
       id="path2" /></g></svg>
