<?xml version="1.0" encoding="UTF-8" standalone="no"?>
<svg
   width="106.18362"
   height="30"
   viewBox="0 0 106.18362 30"
   fill="none"
   version="1.1"
   id="svg5"
   xml:space="preserve"
   xmlns:xlink="http://www.w3.org/1999/xlink"
   xmlns="http://www.w3.org/2000/svg"
   xmlns:svg="http://www.w3.org/2000/svg"><defs
     id="defs5"><linearGradient
       id="linearGradient1"><stop
         style="stop-color:#00abff;stop-opacity:1;"
         offset="0"
         id="stop1" /><stop
         style="stop-color:#005cff;stop-opacity:1;"
         offset="1"
         id="stop2" /></linearGradient><linearGradient
       xlink:href="#linearGradient1"
       id="linearGradient2"
       x1="-9.9999994e-08"
       y1="15"
       x2="106.18362"
       y2="15"
       gradientUnits="userSpaceOnUse"
       gradientTransform="scale(0.89442599,1)" /></defs><g
     id="g3"><g
       id="g2"
       transform="translate(5.6051134)"><path
         d="M -9.9999999e-8,15 C -9.9999999e-8,6.71573 3.7965212,0 8.4797678,0 H 86.493616 c 4.683096,0 8.479774,6.71573 8.479774,15 v 0 c 0,8.2843 -3.796678,15 -8.479774,15 H 8.4797678 C 3.7965212,30 -9.9999999e-8,23.2843 -9.9999999e-8,15 Z"
         fill="#BFC2FF"
         id="path1"
         style="fill:url(#linearGradient2);fill-opacity:1;stroke-width:0.751876" /><text
         xml:space="preserve"
         style="font-style:normal;font-variant:normal;font-weight:900;font-stretch:normal;font-size:14.6667px;font-family:Roboto;-inkscape-font-specification:'Roboto, Heavy';font-variant-ligatures:normal;font-variant-caps:normal;font-variant-numeric:normal;font-variant-east-asian:normal;fill:#fefeff;fill-opacity:1;stroke-width:1.00157;stroke-linejoin:round"
         x="33.677971"
         y="20.503416"
         id="text5"><tspan
           id="tspan5"
           x="33.677971"
           y="20.503416"
           style="font-style:normal;font-variant:normal;font-weight:900;font-stretch:normal;font-size:14.6667px;font-family:Roboto;-inkscape-font-specification:'Roboto, Heavy';font-variant-ligatures:normal;font-variant-caps:normal;font-variant-numeric:normal;font-variant-east-asian:normal;fill:#fefeff;fill-opacity:1">StepFun</tspan></text><path
         style="fill:#ffffff;fill-opacity:1;stroke-width:0.601024"
         d="m 13.770021,25.009153 c 3.033083,-0.0022 7.99631,-0.0022 11.029393,0 3.033083,0.0022 0.55147,0.0041 -5.514696,0.0041 -6.066167,0 -8.54778,-0.0018 -5.514697,-0.0041 z m 5.643225,-4.63106 v -4.434251 h 4.627044 4.627043 v 0.385587 0.385586 h -2.618778 -2.618778 v 4.048664 4.048664 H 21.421512 19.413246 Z M 8.407952,20.096935 v -1.903836 h 2.377787 2.377786 V 12.97161 7.7501195 h 6.431837 6.431838 l 0.01066,1.2893064 c 0.0059,0.7091185 0.01067,1.5947631 0.01068,1.9680991 l 1.1e-5,0.678795 h -4.43425 -4.43425 v 5.157225 5.157225 H 12.794008 8.407957 Z m 2.201059,-9.149658 V 6.5130274 h 0.401654 0.401652 v 4.4342496 4.43425 H 11.010665 10.609011 Z M 27.028588,7.3243671 V 6.529094 H 26.233315 25.438043 V 6.1194072 5.7097214 h 0.795272 0.795273 V 5.3482336 4.9867466 h 0.433786 0.433786 v 0.361487 0.3614878 h 0.401653 0.401653 V 6.1194072 6.529094 H 28.297813 27.89616 v 0.7952731 0.7952731 h -0.433786 -0.433786 z"
         id="path2" /></g></g></svg>
