<?xml version="1.0" encoding="UTF-8" standalone="no"?>
<svg
   width="168"
   height="30"
   viewBox="0 0 168 30"
   fill="none"
   version="1.1"
   id="svg5"
   xml:space="preserve"
   xmlns="http://www.w3.org/2000/svg"
   xmlns:svg="http://www.w3.org/2000/svg"><defs
     id="defs5" /><path
     d="m 15.524396,15 c 0,-8.28427 5.474565,-15 12.227786,-15 H 140.24781 c 6.75301,0 12.22779,6.71573 12.22779,15 v 0 c 0,8.2843 -5.47478,15 -12.22779,15 H 27.752182 C 20.998961,30 15.524396,23.2843 15.524396,15 Z"
     fill="#BFC2FF"
     id="path1"
     style="fill:#717b00;fill-opacity:1;stroke-width:0.902876" /><text
     xml:space="preserve"
     style="font-style:normal;font-variant:normal;font-weight:900;font-stretch:normal;font-size:14.6667px;font-family:Roboto;-inkscape-font-specification:'Roboto, Heavy';font-variant-ligatures:normal;font-variant-caps:normal;font-variant-numeric:normal;font-variant-east-asian:normal;fill:#fefeff;fill-opacity:1;stroke-width:1.00157;stroke-linejoin:round"
     x="53.466839"
     y="20.503593"
     id="text5"><tspan
       id="tspan5"
       x="53.466839"
       y="20.503593"
       style="font-style:normal;font-variant:normal;font-weight:900;font-stretch:normal;font-size:14.6667px;font-family:Roboto;-inkscape-font-specification:'Roboto, Heavy';font-variant-ligatures:normal;font-variant-caps:normal;font-variant-numeric:normal;font-variant-east-asian:normal;fill:#fefeff;fill-opacity:1">TheDrummer</tspan></text><path
     style="fill:#ffffff;fill-opacity:1;stroke-width:0.469993"
     d="m 27.418655,23.850787 c 0,-0.12202 0.04701,-0.1711 0.132463,-0.138307 0.09301,0.03569 0.118103,-0.0041 0.08424,-0.133564 -0.02652,-0.101417 0.0031,-0.246234 0.06583,-0.321816 0.08953,-0.107879 0.07143,-0.292803 -0.08424,-0.860204 -0.109061,-0.39753 -0.195223,-0.883487 -0.191471,-1.079904 0.005,-0.261781 0.118532,0.02537 0.425268,1.075625 0.230145,0.78801 0.420496,1.484904 0.423002,1.548655 0.0029,0.07559 -0.14497,0.112908 -0.425269,0.107281 -0.361806,-0.0073 -0.429823,-0.03856 -0.429823,-0.197766 z m 11.903033,0.04622 c -0.107482,-0.36384 -0.650067,-2.760248 -0.874798,-3.863678 -0.130869,-0.64257 -0.279703,-1.210067 -0.330741,-1.261105 -0.116463,-0.116465 -0.496491,-0.09989 -3.103947,0.135381 -1.155748,0.104283 -3.111444,0.275884 -4.345992,0.381336 -1.234549,0.105452 -2.470291,0.217883 -2.746094,0.249847 -0.491921,0.05701 -0.501461,0.05337 -0.501461,-0.19168 0,-0.231885 0.03041,-0.249796 0.424186,-0.249796 0.233302,0 0.452577,-0.04593 0.487276,-0.102081 0.04097,-0.06629 0.272859,-0.07962 0.661411,-0.038 l 0.598322,0.06407 0.350779,-0.577444 c 0.270808,-0.445797 0.523847,-0.698716 1.109916,-1.109385 l 0.759137,-0.531941 -0.332945,-0.627595 c -0.189204,-0.356642 -0.332946,-0.765815 -0.332946,-0.94775 0,-0.406694 0.161786,-0.839523 0.285276,-0.763202 0.05629,0.03479 0.06913,-0.0079 0.03171,-0.105437 -0.03958,-0.103144 -0.02547,-0.140773 0.03807,-0.101506 0.05722,0.03537 0.09529,-0.0086 0.08787,-0.101422 -0.0072,-0.0901 0.03705,-0.164858 0.09834,-0.166125 0.06129,-0.0013 0.140712,-0.03158 0.176493,-0.06736 0.144221,-0.144222 0.331585,0.06001 0.483566,0.527094 0.08825,0.271219 0.230151,0.575633 0.315337,0.676474 0.142737,0.168974 0.142744,0.178942 8.5e-5,0.127137 -0.232219,-0.08433 0.204561,0.769364 0.55131,1.077547 0.393309,0.349565 1.145113,0.856601 1.270118,0.856601 0.05892,0 0.213084,0.06941 0.342572,0.154259 0.129486,0.08485 0.236154,0.11708 0.237039,0.07164 0.0021,-0.11157 0.417798,0.543583 0.439755,0.693189 0.0102,0.0695 -0.04775,0.09766 -0.140358,0.06821 -0.13137,-0.04177 -0.134548,-0.03373 -0.01902,0.04807 0.07629,0.05402 0.174886,0.07587 0.219096,0.04854 0.04421,-0.02733 0.13747,-0.0023 0.207244,0.05561 0.0984,0.08167 0.152334,0.04379 0.240415,-0.168855 0.09953,-0.240293 0.341541,-0.461499 0.990981,-0.905799 0.143294,-0.09803 0.06406,-0.11235 -0.465698,-0.08416 -0.702473,0.03739 -1.091961,-0.02653 -1.091961,-0.1792 0,-0.05463 0.04467,-0.07173 0.09927,-0.03798 0.290017,0.179241 1.659482,0.0079 1.98532,-0.248427 0.128458,-0.101045 0.281513,-0.183718 0.340124,-0.183718 0.05861,0 0.750125,-0.408332 1.536698,-0.907406 0.786573,-0.499072 1.48099,-0.907404 1.543147,-0.907404 0.06527,0 0.09231,-0.07919 0.064,-0.187444 -0.02696,-0.103094 0.02005,-0.390136 0.104457,-0.637871 0.194076,-0.569582 0.193178,-0.577451 -0.04167,-0.36492 -0.171039,0.154789 -0.187475,0.156617 -0.133056,0.0148 0.03415,-0.08899 0.100472,-0.167171 0.147385,-0.173738 0.04691,-0.0065 0.129847,-0.01732 0.184297,-0.02388 0.513996,-0.06199 0.278304,-1.892039 -0.318854,-2.475779 l -0.293817,-0.287221 -0.10135,0.391694 c -0.136783,0.528635 -0.827314,1.260926 -1.18902,1.260926 -0.220838,0 -0.28276,0.057 -0.369727,0.340365 -0.07433,0.242181 -0.07519,0.428167 -0.003,0.644735 0.113182,0.339495 0.266432,0.553025 0.266432,0.371231 0,-0.06305 0.04964,-0.11462 0.11032,-0.11462 0.06596,0 0.04666,0.07034 -0.04797,0.174905 -0.08706,0.0962 -0.128126,0.205065 -0.09126,0.241928 0.03686,0.03686 -0.232272,0.355743 -0.598079,0.708621 -0.365806,0.35288 -0.822835,0.834298 -1.015619,1.06982 -0.192784,0.235523 -0.378461,0.400279 -0.412615,0.366125 -0.03415,-0.03415 0.02504,-0.25909 0.131545,-0.49986 0.214572,-0.485075 0.199985,-0.528878 -0.08217,-0.246728 -0.270063,0.270062 -0.460181,0.238736 -0.204277,-0.03366 0.116097,-0.12358 0.382725,-0.276115 0.592504,-0.338967 0.20978,-0.06285 0.356454,-0.154668 0.325941,-0.204037 -0.03051,-0.04937 0.0043,-0.06681 0.07746,-0.03875 0.07312,0.02806 0.188064,-0.01542 0.255447,-0.09661 0.107774,-0.129859 0.06077,-0.148968 -0.390641,-0.15881 -0.282236,-0.0062 -0.77105,-0.0046 -1.086254,0.0034 -0.659098,0.0168 -1.193954,-0.23582 -1.193954,-0.563924 0,-0.244569 0.123595,-0.242125 0.650324,0.01286 0.589361,0.285304 0.875629,0.1774 1.04055,-0.392221 0.110584,-0.381947 0.103286,-0.464035 -0.07377,-0.829788 -0.158712,-0.327855 -0.175484,-0.445172 -0.08722,-0.61009 0.131594,-0.245886 0.642754,-0.474558 1.060797,-0.474558 0.294969,0 0.299226,-0.0058 0.137146,-0.184837 -0.092,-0.10166 -0.359017,-0.274965 -0.593368,-0.385124 -0.353372,-0.166104 -0.415466,-0.233767 -0.363831,-0.396459 0.05577,-0.175719 0.04092,-0.184752 -0.142398,-0.08664 -0.144824,0.07751 -0.187203,0.164538 -0.144949,0.297669 0.07798,0.245671 -0.338396,0.959245 -0.660214,1.131476 -0.133895,0.07166 -0.223936,0.161856 -0.200091,0.200438 0.05737,0.09282 -0.144263,0.66519 -0.234331,0.66519 -0.166441,0 -0.187959,-0.143774 -0.05247,-0.350562 0.179377,-0.273763 0.147353,-0.275956 -0.287035,-0.01966 -0.353714,0.208698 -0.610165,0.164214 -0.311659,-0.05406 0.214108,-0.156559 0.212338,-0.24433 -0.0049,-0.24433 -0.09456,0 -0.229813,-0.05373 -0.300561,-0.119396 -0.102905,-0.09552 -0.11515,-0.09552 -0.06123,0 0.03707,0.06566 0.04545,0.119396 0.01861,0.119396 -0.0841,0 -0.626086,-0.832805 -0.575142,-0.883749 0.04945,-0.04946 -0.571433,0.05358 -1.056507,0.17532 -0.191651,0.0481 -0.250074,0.03602 -0.201997,-0.04177 0.14969,-0.2422 -0.143403,-0.08989 -0.3408,0.177102 -0.225524,0.305039 -0.438335,0.397123 -0.285141,0.123382 0.06632,-0.11852 0.04802,-0.196928 -0.06689,-0.286549 -0.144336,-0.112567 -0.144875,-0.133847 -0.0061,-0.242776 0.128679,-0.101036 0.134632,-0.170806 0.03871,-0.453703 l -0.113355,-0.334307 -0.04531,0.305383 c -0.02659,0.179209 -0.0079,0.282242 0.04532,0.249375 0.04984,-0.03081 0.06893,0.0037 0.04241,0.07668 -0.02652,0.07298 -0.09562,0.12226 -0.153574,0.10951 -0.314598,-0.06922 -0.658193,1.518938 -0.480927,2.222924 0.07128,0.283086 0.07776,0.472233 0.01822,0.531778 -0.05954,0.05954 -0.135803,-0.08843 -0.214393,-0.416031 -0.170603,-0.711157 -0.008,-1.723534 0.377385,-2.349896 0.341133,-0.554412 0.358721,-0.898418 0.09465,-1.8513306 -0.327278,-1.1810248 -0.199139,-2.1965628 0.307775,-2.4391965 0.299614,-0.1434089 0.478529,-0.05822 1.218962,0.5803856 0.368634,0.3179386 0.475083,0.3623073 0.764131,0.3184933 0.781083,-0.1183977 2.562971,-0.2798041 2.932855,-0.2656633 0.363157,0.013883 0.429383,-0.021593 0.716373,-0.3838043 0.64558,-0.8147796 1.015235,-1.145778 1.243446,-1.1134131 0.361714,0.0513 0.645887,0.7620965 0.743711,1.8602407 0.111046,1.2465536 0.09458,1.1961936 0.554264,1.6948956 0.398021,0.431801 0.489044,0.6610156 0.307139,0.7734386 -0.0519,0.03208 0.07273,0.217287 0.276958,0.411582 0.442183,0.42068 0.703141,1.187475 0.667317,1.960838 -0.01927,0.415971 0.01472,0.546525 0.187171,0.718978 0.183644,0.183644 0.207256,0.296671 0.183793,0.879753 -0.01659,0.412147 0.01358,0.695213 0.07858,0.737209 0.06059,0.03915 0.101251,0.32526 0.09552,0.672068 -0.0094,0.568388 0.0075,0.617194 0.286494,0.82999 0.163062,0.12435 0.637467,0.398029 1.054231,0.608177 0.898749,0.453181 1.119998,0.724027 1.838896,2.251119 0.270734,0.575096 0.555828,1.115889 0.633542,1.201763 0.07771,0.08587 0.131385,0.275919 0.119268,0.422324 l -0.02203,0.266192 -0.299971,-0.347016 -0.299971,-0.347015 -0.141353,0.212888 c -0.137834,0.207589 -0.147771,0.208683 -0.399191,0.04395 -0.141811,-0.09292 -0.337475,-0.299897 -0.434811,-0.459951 -0.190775,-0.313705 -0.189193,-0.315294 -0.335017,0.336538 -0.03371,0.150668 -0.08466,0.250565 -0.113231,0.221995 -0.02857,-0.02857 0.0165,-0.287406 0.100165,-0.575191 0.194744,-0.669896 0.19016,-1.012005 -0.006,-0.446084 -0.152487,0.439975 -0.31489,0.705057 -0.387481,0.632466 -0.02243,-0.02242 0.006,-0.12017 0.06316,-0.217221 0.05716,-0.09705 0.158537,-0.340773 0.225286,-0.541607 0.06675,-0.200834 0.151083,-0.351272 0.187405,-0.334307 0.03632,0.01697 0.135802,-0.06876 0.221065,-0.190483 0.08583,-0.122544 0.214548,-0.198486 0.288389,-0.170151 0.07335,0.02814 0.133364,0.0052 0.133364,-0.05115 0,-0.192435 -0.525123,-1.037685 -0.644736,-1.037782 -0.06566,-5.4e-5 -0.108649,-0.05294 -0.09552,-0.11752 0.01313,-0.06458 -0.301101,-0.290241 -0.698297,-0.501461 -0.397197,-0.21122 -0.870002,-0.484476 -1.050679,-0.607235 -0.262771,-0.178534 -0.283384,-0.183312 -0.103012,-0.02388 0.124023,0.109625 0.18087,0.199318 0.126329,0.199318 -0.05455,0 -0.183262,-0.10691 -0.286045,-0.237578 l -0.18688,-0.237579 -0.112641,0.261458 c -0.06674,0.1549 -0.404909,0.453768 -0.829774,0.73333 -0.394423,0.259531 -0.821527,0.595942 -0.949123,0.747581 -0.26112,0.310323 -0.315377,0.231571 -0.07596,-0.11025 0.15174,-0.21664 0.149895,-0.220823 -0.06702,-0.151976 -0.262025,0.08316 -1.366037,0.978078 -1.405811,1.139554 -0.01503,0.06103 0.105647,0.688772 0.268175,1.394994 0.162529,0.706222 0.359745,1.563426 0.43826,1.904896 0.07852,0.341471 0.167487,0.759696 0.197717,0.929388 0.03023,0.169692 0.08171,0.291998 0.114409,0.271791 0.0327,-0.0202 0.05945,0.0881 0.05945,0.240687 0,0.221488 -0.04204,0.277428 -0.208474,0.277428 -0.11606,0 -0.230366,-0.07409 -0.257855,-0.167153 z m 6.228372,-3.476268 c 0.163378,-0.185814 0.191041,-0.271786 0.104637,-0.325187 -0.08004,-0.04946 -0.093,-0.03302 -0.0407,0.05161 0.05921,0.0958 0.01552,0.108833 -0.191093,0.05698 -0.337947,-0.08482 -0.484248,0.106828 -0.265811,0.348199 0.08458,0.09346 0.157622,0.158911 0.162322,0.145456 0.0047,-0.01345 0.108488,-0.138131 0.23064,-0.277058 z m -0.599439,-0.820698 c 0.114394,-0.156442 0.134024,-0.155168 0.344837,0.02238 0.144625,0.121807 0.125092,0.07983 -0.05533,-0.118916 -0.214174,-0.235925 -0.308348,-0.282723 -0.405946,-0.201724 -0.128276,0.106461 -0.179115,0.46414 -0.06597,0.46414 0.0336,0 0.115692,-0.07465 0.182406,-0.165886 z m -16.984737,-0.27389 c -0.03174,-0.03174 -0.114122,-0.03513 -0.183074,-0.0076 -0.0762,0.0305 -0.05357,0.05313 0.0577,0.0577 0.100691,0.0041 0.157104,-0.01843 0.125365,-0.05017 z m 1.146195,-0.09552 c -0.03174,-0.03174 -0.114122,-0.03513 -0.183072,-0.0076 -0.0762,0.0305 -0.05357,0.05313 0.05771,0.0577 0.10069,0.0041 0.157104,-0.01843 0.125365,-0.05017 z m 1.004912,-0.101068 c -0.06566,-0.0265 -0.173123,-0.0265 -0.238791,0 -0.06566,0.0265 -0.01193,0.04818 0.119395,0.04818 0.131336,0 0.185063,-0.02168 0.119396,-0.04818 z m 1.146196,-0.09552 c -0.06566,-0.0265 -0.173124,-0.0265 -0.238791,0 -0.06566,0.0265 -0.01194,0.04817 0.119395,0.04817 0.131335,0 0.185063,-0.02168 0.119396,-0.04817 z m 1.096447,-0.08997 c -0.03174,-0.03174 -0.114122,-0.03513 -0.183072,-0.0076 -0.0762,0.0305 -0.05357,0.05313 0.0577,0.0577 0.10069,0.0041 0.157105,-0.01843 0.125365,-0.05017 z m 1.100428,-0.101068 c -0.06566,-0.0265 -0.173123,-0.0265 -0.23879,0 -0.06567,0.0265 -0.01194,0.04818 0.119394,0.04818 0.131336,0 0.185064,-0.02168 0.119396,-0.04818 z m 5.992182,-0.691095 c 0.02707,-0.02089 -0.05823,-0.0061 -0.189566,0.03281 -0.131334,0.03894 -0.359573,0.09352 -0.507197,0.121302 -0.185409,0.03489 -0.251864,0.09362 -0.214911,0.189915 0.02942,0.07667 0.0535,0.209085 0.0535,0.29425 0,0.107722 0.123097,0.03994 0.404477,-0.222723 0.222463,-0.207664 0.426629,-0.394663 0.453703,-0.415554 z m -7.874016,0.585738 c 0.05507,-0.03859 0.09466,-0.156139 0.08798,-0.261207 -0.03561,-0.559749 -0.0506,-0.569621 -0.23796,-0.156723 -0.103915,0.229006 -0.188935,0.433172 -0.188935,0.453702 0,0.06308 0.232956,0.03849 0.33892,-0.03577 z M 31.08131,18.595903 c -0.04057,-0.06564 -0.06135,-0.237564 -0.0462,-0.382064 0.03292,-0.313838 -0.211419,-0.365957 -0.365543,-0.07798 -0.160951,0.30074 -0.122954,0.472273 0.09216,0.416019 0.106805,-0.02793 0.191032,-0.0029 0.191032,0.0567 0,0.05866 0.04552,0.106657 0.101154,0.106657 0.05657,0 0.06865,-0.0526 0.0274,-0.119338 z m 1.447468,0.02383 c 0.163354,-0.0702 0.166813,-0.08306 0.02388,-0.0888 -0.112829,-0.0045 -0.167153,-0.08432 -0.167153,-0.245504 0,-0.131335 -0.04298,-0.23879 -0.09552,-0.23879 -0.05254,0 -0.09891,-0.07522 -0.103057,-0.167154 -0.005,-0.111026 -0.03814,-0.08381 -0.09865,0.08105 -0.05891,0.160473 -0.05708,0.337718 0.0052,0.501461 0.103139,0.271279 0.140015,0.284641 0.435324,0.157742 z m 3.078412,0.0378 c -0.03174,-0.03174 -0.114123,-0.03513 -0.183074,-0.0076 -0.0762,0.0305 -0.05357,0.05313 0.0577,0.0577 0.10069,0.0041 0.157105,-0.01843 0.125366,-0.05017 z m -5.162281,-0.246752 c -0.0305,-0.0762 -0.05313,-0.05357 -0.0577,0.0577 -0.0041,0.10069 0.01843,0.157105 0.05017,0.125366 0.03174,-0.03174 0.03513,-0.114123 0.0076,-0.183074 z m 3.235878,0.12283 c -0.02927,-0.04736 -0.182247,-0.13109 -0.339945,-0.186064 -0.254702,-0.08879 -0.286724,-0.07917 -0.286724,0.08611 0,0.149554 0.0667,0.186064 0.339944,0.186064 0.186969,0 0.315995,-0.03875 0.286725,-0.08611 z m 3.072598,0.0284 c -0.03174,-0.03174 -0.114122,-0.03513 -0.183073,-0.0076 -0.0762,0.0305 -0.05357,0.05313 0.0577,0.05771 0.100691,0.0041 0.157105,-0.01843 0.125365,-0.05017 z m 1.195944,-0.101068 c -0.06566,-0.0265 -0.173123,-0.0265 -0.238791,0 -0.06566,0.0265 -0.01193,0.04817 0.119395,0.04817 0.131336,0 0.185064,-0.02168 0.119396,-0.04817 z m -6.140644,-0.427292 c -0.11263,-0.392719 -0.222792,-0.49959 -0.134111,-0.130107 0.07302,0.304252 0.126882,0.429628 0.184559,0.429628 0.0195,0 -0.0032,-0.134785 -0.05045,-0.299521 z m 2.773694,0.108489 c 0,-0.05254 -0.07522,-0.09486 -0.167154,-0.09406 -0.142849,0.0013 -0.146321,0.01493 -0.02388,0.09406 0.180259,0.116492 0.191033,0.116492 0.191034,0 z m -0.839052,-0.38677 c -0.277609,-0.159203 -0.481507,-0.327058 -0.453107,-0.373011 0.0284,-0.04595 -0.09386,-0.173471 -0.271683,-0.283373 -0.35708,-0.220688 -1.025362,-0.911467 -1.203134,-1.243637 -0.06269,-0.117148 -0.13829,-0.188697 -0.167989,-0.158998 -0.07698,0.07698 0.403855,0.778049 0.737547,1.075369 0.154977,0.138086 0.260976,0.284721 0.235553,0.325857 -0.05727,0.09266 0.402316,0.425431 0.991931,0.718215 0.640082,0.317844 0.723406,0.279378 0.130882,-0.06042 z m 3.073429,0.179143 c -0.02728,-0.04415 0.01734,-0.105964 0.09917,-0.137365 0.08183,-0.0314 0.124999,-0.09557 0.09593,-0.142599 -0.02906,-0.04703 0.0167,-0.08551 0.101702,-0.08551 0.085,0 0.133499,0.03406 0.107771,0.07569 -0.02573,0.04162 0.03714,0.08201 0.139702,0.08974 0.102564,0.0077 0.166689,-0.01798 0.142499,-0.05711 -0.02419,-0.03914 0.102594,-0.150097 0.28174,-0.246573 0.179146,-0.09648 0.298413,-0.219595 0.265038,-0.273597 -0.03686,-0.05963 0.0013,-0.07441 0.09711,-0.03763 0.08679,0.0333 0.147569,0.01689 0.135065,-0.03648 -0.02122,-0.09061 1.40593,-0.938771 1.588861,-0.944265 0.04583,-0.0014 0.02641,0.07271 -0.04315,0.164651 -0.109191,0.144299 -0.107524,0.150176 0.01218,0.04298 0.07627,-0.06829 0.138668,-0.175693 0.138668,-0.238664 0,-0.06297 0.08597,-0.11455 0.191032,-0.114619 0.105068,-7e-5 0.180803,-0.05231 0.1683,-0.116085 -0.0125,-0.06377 0.03688,-0.09308 0.109734,-0.06512 0.07286,0.02796 0.164947,-0.0017 0.204645,-0.06596 0.04616,-0.07468 0.03242,-0.09221 -0.03809,-0.04863 -0.06065,0.03749 -0.110275,0.02619 -0.110275,-0.0251 0,-0.112522 1.119303,-0.873186 1.284879,-0.873186 0.06785,0 0.122261,-0.14226 0.129658,-0.339009 0.007,-0.186454 0.04389,-0.39062 0.08195,-0.453702 0.03806,-0.06308 -0.09115,0.025 -0.287141,0.195734 -0.195991,0.170735 -0.419326,0.310427 -0.496298,0.310427 -0.07697,0 -0.129206,0.03785 -0.116073,0.0841 0.0248,0.08731 -0.338678,0.351869 -2.024259,1.473416 -0.548602,0.365027 -1.06439,0.735458 -1.146196,0.823181 -0.107138,0.114886 -0.122022,0.118163 -0.05322,0.01172 0.08308,-0.128531 0.07389,-0.130818 -0.07058,-0.01756 -0.09136,0.07162 -0.144365,0.16539 -0.117797,0.208377 0.06332,0.102459 -0.342597,0.385566 -0.454058,0.31668 -0.09476,-0.05856 -0.427233,0.210944 -0.555201,0.450054 -0.05659,0.10573 -0.04056,0.152303 0.05241,0.152303 0.07365,0 0.111588,-0.03612 0.0843,-0.08027 z m -3.873959,-0.186228 c -0.185619,-0.117662 -0.270745,-0.101752 -0.270745,0.0506 0,0.08912 0.06701,0.116809 0.199108,0.08226 0.15138,-0.03959 0.168551,-0.07143 0.07164,-0.132869 z m 5.341953,0.137194 c -0.09132,-0.02391 -0.263251,-0.02477 -0.382065,-0.0019 -0.118814,0.02285 -0.0441,0.0424 0.16604,0.04347 0.210136,0.0011 0.307347,-0.01763 0.216025,-0.04154 z m -6.85441,-0.210703 c 0,-0.04691 -0.07055,-0.11237 -0.156784,-0.14546 -0.131094,-0.0503 -0.137003,-0.03634 -0.03606,0.0853 0.137555,0.165744 0.192847,0.182994 0.192847,0.06016 z m 8.214404,-0.339184 c 0.236402,-0.08062 0.322367,-0.123977 0.191032,-0.09634 -0.131334,0.02764 -0.471127,0.07686 -0.755093,0.109397 -0.398371,0.04564 -0.499543,0.03203 -0.442924,-0.05958 0.04036,-0.0653 0.147574,-0.09933 0.238253,-0.07561 0.134823,0.03526 1.273931,-0.302071 2.153718,-0.637786 l 0.191032,-0.07289 -0.191032,0.158723 c -0.105067,0.0873 -0.354,0.225134 -0.553182,0.306303 -0.199182,0.08117 -0.344164,0.165564 -0.322184,0.187545 0.07757,0.07757 1.778842,-0.781904 1.780793,-0.899646 0.0027,-0.158797 -0.05429,-0.152368 -0.647607,0.07314 -0.308746,0.117348 -0.814183,0.206159 -1.295319,0.227603 -0.563742,0.02513 -0.903241,0.09344 -1.189105,0.239279 -0.220052,0.112262 -0.400095,0.225455 -0.400095,0.251539 0,0.02608 0.220137,-0.06413 0.489193,-0.200466 0.382229,-0.193691 0.512759,-0.222306 0.596977,-0.130871 0.05989,0.06503 0.06347,0.09247 0.0081,0.06176 -0.109418,-0.06062 -0.64217,0.181281 -1.237486,0.561896 l -0.382064,0.244272 0.668613,-0.05083 c 0.367738,-0.02796 0.862035,-0.116796 1.098438,-0.19742 z m -2.184692,-0.124737 c 0.11881,-0.151494 0.115431,-0.154873 -0.03606,-0.03606 -0.159107,0.12478 -0.209704,0.203217 -0.131091,0.203217 0.01983,0 0.09505,-0.07522 0.167153,-0.167154 z m 3.05566,-0.883526 c 0.118203,0 0.389669,-0.08375 0.603257,-0.186115 0.213589,-0.102364 0.51729,-0.202668 0.674892,-0.222898 0.320728,-0.04117 0.385323,-0.196505 0.290937,-0.699627 l -0.06105,-0.325434 -0.367531,0.42465 c -0.202143,0.233557 -0.392023,0.400159 -0.421955,0.370226 -0.08286,-0.08286 -0.641542,0.221961 -1.016418,0.554573 -0.191165,0.169613 -0.244976,0.251232 -0.125675,0.190621 0.114748,-0.0583 0.305344,-0.105996 0.423546,-0.105996 z M 32.53852,16.025706 c -0.173479,-0.247678 -0.205788,-0.166486 -0.04976,0.125052 0.05679,0.106114 0.125649,0.170541 0.153018,0.143172 0.02737,-0.02737 -0.0191,-0.14807 -0.103255,-0.268224 z m 9.559381,0.09268 c -0.0305,-0.0762 -0.05313,-0.05357 -0.0577,0.05771 -0.0041,0.10069 0.01843,0.157104 0.05017,0.125365 0.03174,-0.03174 0.03513,-0.114122 0.0076,-0.183072 z m -9.864243,-0.519537 c 0.03279,-0.08546 0.0075,-0.218185 -0.0562,-0.294946 -0.09912,-0.119433 -0.126943,-0.109525 -0.192867,0.06869 -0.07917,0.214021 -0.03095,0.381641 0.109784,0.381641 0.04381,0 0.106492,-0.06992 0.139285,-0.155381 z m -0.286011,-0.670018 c 0.0503,-0.131093 0.03634,-0.137003 -0.0853,-0.03606 -0.165744,0.137556 -0.182994,0.192847 -0.06016,0.192847 0.04691,0 0.112371,-0.07056 0.145461,-0.156784 z m -0.03973,-0.432232 c 0,-0.113824 -0.0299,-0.177053 -0.06645,-0.140511 -0.103236,0.103236 -0.117731,0.347462 -0.02062,0.347462 0.04788,0 0.08706,-0.09313 0.08706,-0.206951 z m 6.087176,-0.328338 c -0.03174,-0.03174 -0.114122,-0.03513 -0.183074,-0.0076 -0.0762,0.0305 -0.05357,0.05313 0.0577,0.05771 0.10069,0.0041 0.157104,-0.01843 0.125365,-0.05017 z m -0.165165,-0.658665 c 0,-0.0788 -0.04163,-0.143274 -0.09252,-0.143274 -0.05089,0 -0.06778,0.06447 -0.03754,0.143274 0.03024,0.0788 0.07187,0.143275 0.09252,0.143275 0.02065,0 0.03754,-0.06447 0.03754,-0.143275 z m 0.859647,-0.04775 c 0,-0.05254 -0.04552,-0.09551 -0.101153,-0.09551 -0.05563,0 -0.07458,0.04298 -0.04212,0.09551 0.03247,0.05254 0.07798,0.09552 0.101154,0.09552 0.02316,0 0.04212,-0.04298 0.04212,-0.09552 z m -0.477581,-0.76413 c 0,-0.05254 -0.09671,-0.09249 -0.214912,-0.0888 -0.205063,0.0064 -0.206158,0.01047 -0.02388,0.0888 0.105068,0.04515 0.201778,0.08511 0.214912,0.0888 0.01313,0.0037 0.02388,-0.03627 0.02388,-0.0888 z m 0.191033,-0.286548 c 0,-0.05254 -0.04552,-0.09552 -0.101154,-0.09552 -0.05563,0 -0.07458,0.04298 -0.04212,0.09552 0.03247,0.05254 0.07798,0.09552 0.101155,0.09552 0.02316,0 0.04212,-0.04298 0.04212,-0.09552 z m 1.241715,-0.497913 c 0,-0.04136 -0.109992,-0.07519 -0.244428,-0.07519 -0.134435,0 -0.219554,0.04024 -0.189152,0.08944 0.06565,0.106229 0.43358,0.09414 0.43358,-0.01425 z M 36.33478,11.656378 c 0.112254,-0.112255 0.149037,-0.200379 0.08363,-0.200379 -0.06421,0 -0.116743,0.03554 -0.116743,0.07897 0,0.08093 -0.507273,0.04598 -0.76413,-0.05266 -0.307797,-0.118192 -0.489377,-0.122677 -0.419969,-0.01037 0.04683,0.07577 0.01708,0.09202 -0.09191,0.05019 -0.133476,-0.05122 -0.144584,-0.03088 -0.06468,0.118428 0.06663,0.124503 0.160577,0.163504 0.303695,0.126078 0.11397,-0.0298 0.183079,-0.01518 0.153573,0.0325 -0.114871,0.185615 0.717858,0.0559 0.916526,-0.142761 z m 3.382496,-0.336587 c 0.09945,-0.09945 -0.07386,-0.351806 -0.191251,-0.278476 -0.174091,0.10875 -0.368368,0.148616 -0.693168,0.142239 -0.268734,-0.0052 -0.275282,0.0028 -0.105324,0.13035 0.09967,0.07478 0.217876,0.113325 0.26267,0.08564 0.04479,-0.02768 0.08145,-0.0078 0.08145,0.04415 0,0.0898 0.534504,-0.01278 0.645628,-0.123904 z M 35.919609,11.16945 c 0.25181,-0.251811 0.240962,-0.302721 -0.049,-0.229945 -0.132016,0.03313 -0.298376,0.01182 -0.369686,-0.04736 -0.20709,-0.17187 -0.870785,-0.180669 -0.870785,-0.01154 0,0.07754 0.107455,0.170468 0.238791,0.206515 0.203675,0.0559 0.761248,0.231497 0.835767,0.263206 0.01314,0.0056 0.109844,-0.0758 0.214912,-0.180871 z m -0.596977,-0.06841 c -0.144469,-0.02188 -0.26267,-0.07992 -0.26267,-0.128963 0,-0.1272 0.200076,-0.104534 0.477582,0.0541 0.244827,0.139956 0.235725,0.143127 -0.214912,0.07486 z m 1.259968,0.171691 c 0.02317,-0.0043 -0.03887,-0.067 -0.13787,-0.139383 -0.148161,-0.108339 -0.202081,-0.109546 -0.304804,-0.0068 -0.06864,0.06864 -0.124801,0.140035 -0.124801,0.158656 0,0.02747 0.398196,0.01873 0.567475,-0.01245 z m 3.634445,-0.296825 c -0.231653,-0.146456 -0.299726,-0.106556 -0.184746,0.108286 0.08113,0.151593 0.13482,0.174193 0.217474,0.09154 0.08266,-0.08265 0.07458,-0.131986 -0.03273,-0.199825 z m -6.329148,0.135841 c -0.03174,-0.03174 -0.114122,-0.03513 -0.183073,-0.0076 -0.0762,0.0305 -0.05357,0.05313 0.05771,0.0577 0.100691,0.0041 0.157105,-0.01842 0.125365,-0.05017 z m 4.554924,-0.358446 c -0.06141,-0.160029 -0.23082,-0.219136 -0.23082,-0.08053 0,0.09292 0.213092,0.315431 0.25855,0.269973 0.01788,-0.01788 0.0054,-0.103121 -0.02773,-0.189441 z m -4.776128,-0.109346 c 0.286407,-0.218454 1.151187,-0.491214 2.103867,-0.6635806 0.336041,-0.0608 0.362888,-0.05193 0.250975,0.08291 -0.107276,0.12926 -0.09728,0.151 0.06945,0.151 0.107123,0 0.211162,-0.04918 0.231199,-0.109289 0.02725,-0.08174 0.119517,-0.08206 0.366146,-0.0013 0.181343,0.05941 0.451359,0.08564 0.600034,0.05828 0.193389,-0.03559 0.25035,-0.01744 0.200154,0.06377 -0.03997,0.06466 -0.02955,0.08843 0.02419,0.05522 0.05189,-0.03208 0.07572,-0.185268 0.05294,-0.3404354 -0.02278,-0.155169 0.0085,-0.361228 0.06949,-0.457908 0.09794,-0.155234 0.106326,-0.1458 0.07176,0.08071 -0.05932,0.388725 0.0698,0.5376644 0.291881,0.336684 0.225917,-0.204452 0.587236,-0.210878 0.731914,-0.01302 0.09244,0.1264104 0.151117,0.1315704 0.368717,0.03243 0.142332,-0.06485 0.258787,-0.153995 0.258787,-0.198096 0,-0.04411 0.222404,-0.08018 0.494231,-0.08018 h 0.494232 l -0.207682,-0.221055 c -0.114225,-0.121587 -0.207682,-0.272025 -0.207682,-0.334307 0,-0.06228 -0.03224,-0.113358 -0.07164,-0.113503 -0.0394,-1.46e-4 -0.07585,-0.313149 -0.081,-0.6955631 C 39.767436,7.4432344 39.578846,6.5900111 39.389807,6.51747 39.203163,6.445848 38.845856,6.8007848 38.635905,7.2663728 38.496,7.5766262 38.484565,7.6865137 38.576815,7.8342275 c 0.09086,0.1454918 0.08868,0.1831576 -0.0106,0.1831576 -0.351231,0 -0.44344,-0.400271 -0.204625,-0.8882695 0.131016,-0.2677196 0.09839,-0.2489091 -0.26267,0.151458 -0.411454,0.4562433 -0.413186,0.4570117 -0.880893,0.390915 -0.313486,-0.044302 -0.44845,-0.033579 -0.407678,0.032394 0.03955,0.064007 -0.08093,0.084887 -0.343262,0.059508 -0.222314,-0.021507 -0.679386,-0.00541 -1.015714,0.035811 -0.547205,0.067038 -0.615184,0.099129 -0.646484,0.3052085 -0.01923,0.1266623 -0.28134,0.5246895 -0.582449,0.8845035 -0.301108,0.359814 -0.646834,0.793462 -0.76828,0.963659 -0.121444,0.1701954 -0.326212,0.4198844 -0.455039,0.5548624 -0.128827,0.134977 -0.204974,0.27467 -0.169215,0.310428 0.137775,0.137776 0.53687,0.05482 0.836784,-0.173936 z m 1.500423,-0.7427806 c -0.243406,-0.243405 -0.07047,-0.346147 0.222296,-0.132069 0.149184,0.109087 0.153585,0.136105 0.0299,0.183569 -0.07977,0.03061 -0.193256,0.0075 -0.252191,-0.0515 z m 4.350272,-1.183306 c -0.109904,-0.109904 -0.06956,-0.222871 0.0796,-0.222871 0.0788,0 0.143274,0.06447 0.143274,0.143274 0,0.149156 -0.112967,0.189501 -0.222872,0.0796 z m -2.980852,-0.324747 c -0.03463,-0.05603 -0.04247,-0.1223563 -0.01744,-0.1473942 0.02504,-0.025036 0.07098,0.020803 0.102083,0.1018722 0.06458,0.168309 0.0095,0.197914 -0.08465,0.04552 z m 2.27244,0.03861 c -0.174504,-0.07041 -0.146737,-0.2919061 0.08923,-0.7117457 0.198513,-0.3532055 0.44414,-0.5255295 0.331802,-0.2327807 -0.03436,0.089544 -0.0072,0.120794 0.07692,0.088512 0.106844,-0.040997 0.111687,0.02374 0.02716,0.3630507 -0.124522,0.4998557 -0.239808,0.6080847 -0.525106,0.4929637 z m 0.259765,-0.2949266 c -0.0025,-0.2253197 -0.01681,-0.2387942 -0.100686,-0.09476 -0.05378,0.09235 -0.07142,0.2105521 -0.03922,0.2626696 0.09876,0.159795 0.14294,0.10677 0.139902,-0.1679094 z m -1.238808,-0.214912 c -0.123472,-0.079796 -0.120951,-0.092793 0.01824,-0.094054 0.08884,-8.036e-4 0.188082,0.041521 0.220549,0.094054 0.07471,0.120885 -0.05174,0.120885 -0.238791,0 z m -1.54617,-0.065252 c 0.06895,-0.027595 0.151334,-0.024203 0.183073,0.00756 0.03174,0.031742 -0.02468,0.054314 -0.125365,0.050167 -0.111271,-0.00455 -0.133905,-0.027217 -0.0577,-0.057705 z m 2.835641,2.8352222 c 0.03247,-0.05254 0.01351,-0.09552 -0.04212,-0.09552 -0.05564,0 -0.101154,0.04298 -0.101154,0.09552 0,0.05254 0.01896,0.09552 0.04212,0.09552 0.02316,0 0.06869,-0.04298 0.101153,-0.09552 z m 1.193954,-0.367262 c 0,-0.159963 -0.371648,-0.4126326 -0.542112,-0.3685626 -0.141678,0.03663 -0.134637,0.04712 0.03765,0.05613 0.152066,0.008 0.19552,0.05381 0.153862,0.162362 -0.04094,0.106687 -0.07837,0.118404 -0.126985,0.03974 -0.04861,-0.07865 -0.08604,-0.06693 -0.126984,0.03974 -0.0461,0.120115 0.01021,0.151283 0.273257,0.151283 0.18222,0 0.331309,-0.03632 0.331309,-0.08071 z m -7.641306,-0.241899 c 0,-0.01983 -0.07522,-0.09505 -0.167153,-0.1671536 -0.151494,-0.11881 -0.154873,-0.115431 -0.03606,0.03606 0.12478,0.1591066 0.203217,0.2097036 0.203217,0.1310906 z m 0.667152,-0.2322446 c -0.0013,-0.139193 -0.01426,-0.141714 -0.09405,-0.01824 -0.120885,0.1870566 -0.120885,0.3135016 0,0.2387916 0.05254,-0.03246 0.09486,-0.1317146 0.09405,-0.2205496 z m 7.117429,0.1727906 c 0.03247,-0.05254 -0.01052,-0.09552 -0.09552,-0.09552 -0.085,0 -0.127984,0.04298 -0.09552,0.09552 0.03247,0.05254 0.07545,0.09552 0.09552,0.09552 0.02006,0 0.06305,-0.04298 0.09552,-0.09552 z M 32.965765,9.7104324 c -0.0039,-0.03809 -0.0071,-0.141938 -0.0071,-0.23078 0,-0.140914 -0.01721,-0.138001 -0.134804,0.02282 -0.07415,0.101396 -0.113186,0.219337 -0.08676,0.262089 0.05613,0.09081 0.239243,0.04747 0.228732,-0.05413 z m -0.522271,-0.114243 c -0.03458,-0.235547 -0.153507,-0.287026 -0.153507,-0.06644 0,0.113824 0.03918,0.206952 0.08706,0.206952 0.04788,0 0.07779,-0.06322 0.06645,-0.140509 z m 0.262098,-0.695258 c -0.19313,-0.432201 -0.221127,-0.897911 -0.05735,-0.9540534 0.07344,-0.025173 0.09853,0.0136 0.06512,0.1006424 -0.02988,0.077873 -0.0084,0.1699698 0.04769,0.2046511 0.05612,0.034678 0.102028,0.017541 0.102028,-0.038095 0,-0.1975482 0.273145,-0.096902 0.514068,0.1894199 0.237591,0.282361 0.251329,0.286099 0.486073,0.132289 0.132865,-0.08705 0.241572,-0.126586 0.241572,-0.08784 0,0.03874 0.07337,0.01145 0.163056,-0.06065 0.08968,-0.0721 0.0467,0.0234 -0.09552,0.212231 -0.359879,0.477833 -0.323074,0.500345 0.123492,0.07554 0.388564,-0.369633 0.477736,-0.5609634 0.262669,-0.5635975 -0.0803,-9.445e-4 -0.07248,-0.03321 0.02388,-0.098418 0.107216,-0.072558 0.0794,-0.082157 -0.110498,-0.038172 -0.299301,0.06933 -0.568737,-0.057439 -1.064569,-0.5008497 -0.451351,-0.403634 -0.821038,-0.5580541 -0.965724,-0.4033859 -0.07516,0.080346 -0.07107,0.1230272 0.01479,0.1545292 0.09093,0.033364 0.09326,0.090939 0.01,0.2465909 -0.177169,0.3310422 -0.153146,1.231555 0.04077,1.528248 0.249588,0.381875 0.38353,0.315023 0.198491,-0.09907 z m 0.682832,-1.1063408 c -0.484156,-0.484365 -0.446976,-0.5082249 0.123969,-0.079556 0.301526,0.226386 0.585541,0.6061678 0.428611,0.5731316 -0.04125,-0.00868 -0.289909,-0.2307922 -0.55258,-0.4935756 z m 6.017529,-1.496479 c -0.03246,-0.052536 -0.142461,-0.095516 -0.244428,-0.095516 -0.101968,0 -0.185396,0.04298 -0.185396,0.095516 0,0.052536 0.109993,0.095517 0.244429,0.095517 0.138629,0 0.218876,-0.04134 0.185395,-0.095517 z M 42.3192,23.648998 c 0,-0.228334 -0.02258,-0.81934 -0.05018,-1.31335 -0.03565,-0.63811 -0.02271,-0.835968 0.04468,-0.683288 0.05218,0.118202 0.120632,0.214912 0.152132,0.214912 0.07604,0 -0.056,-0.416277 -0.151736,-0.478417 -0.04118,-0.02673 -0.09298,-0.198655 -0.115114,-0.382065 l -0.04024,-0.333472 -0.01528,0.358187 c -0.01217,0.285071 -0.05297,0.358186 -0.199883,0.358186 -0.215806,0 -0.218404,-0.0075 -0.488717,-1.412495 -0.14739,-0.766081 -0.188623,-1.228773 -0.142443,-1.598392 0.107576,-0.861011 0.210415,-0.67678 0.282839,0.506695 0.03767,0.615562 0.125793,1.39859 0.19583,1.74006 l 0.127339,0.620857 0.0094,-0.824103 c 0.0061,-0.535913 -0.04074,-0.944017 -0.133916,-1.167007 -0.153941,-0.368434 -0.198327,-1.495236 -0.0589,-1.495236 0.104153,0 0.198653,0.334627 0.202306,0.716372 0.0029,0.30727 0.275207,1.161751 0.282223,0.885728 0.005,-0.195037 0.42963,-0.499406 0.57309,-0.410742 0.144381,0.08923 0.122329,0.396161 -0.04014,0.558626 -0.122792,0.122792 -0.117628,0.145664 0.04234,0.187494 0.205361,0.0537 0.477812,-0.202003 0.411206,-0.385933 -0.02389,-0.066 -0.08277,-0.09569 -0.13081,-0.066 -0.146301,0.09042 -0.09732,-0.116658 0.0581,-0.245648 0.123511,-0.102504 0.135226,-0.09346 0.07763,0.05995 -0.06196,0.165024 -0.0526,0.16826 0.108011,0.03739 0.09671,-0.0788 0.194304,-0.128947 0.216875,-0.111435 0.02257,0.01751 0.06969,-1.26e-4 0.104715,-0.03919 0.03502,-0.03907 0.01,-0.04011 -0.05571,-0.0023 -0.16131,0.09283 -0.150173,0.0021 0.03433,-0.279412 0.08454,-0.129036 0.196608,-0.208105 0.249024,-0.17571 0.05757,0.03558 0.07181,-0.01512 0.03596,-0.12807 -0.0396,-0.124766 0.0093,-0.24791 0.146939,-0.370147 l 0.206282,-0.18318 -0.12678,0.238791 c -0.06973,0.131335 -0.137878,0.338807 -0.15144,0.46105 -0.02477,0.22325 -0.434715,0.833393 -0.690964,1.028401 -0.09599,0.07305 -0.116652,0.187956 -0.06871,0.382065 0.228704,0.926058 0.276634,1.508141 0.167637,2.035853 -0.150838,0.730282 -0.141987,1.1073 0.02933,1.249483 0.239381,0.19867 0.59083,0.02715 1.283775,-0.626543 0.478403,-0.451302 0.755206,-0.639077 1.000836,-0.678937 0.201207,-0.03265 0.314466,-0.09566 0.278004,-0.154658 -0.03848,-0.06226 9.45e-4,-0.07559 0.105225,-0.03557 0.09172,0.03519 0.184731,0.06399 0.206701,0.06399 0.103147,0 0.02754,0.848732 -0.07945,0.891905 -0.09552,0.03854 -0.09552,0.04969 0,0.05571 0.08261,0.0052 0.119396,0.200538 0.119396,0.634035 0,0.477949 -0.02831,0.608517 -0.119396,0.550681 -0.118758,-0.07541 -0.170691,-0.09176 -0.363822,-0.114556 -0.05564,-0.0065 -0.07048,-0.06156 -0.033,-0.122214 0.04505,-0.07288 0.02586,-0.08413 -0.05659,-0.03317 -0.09771,0.06039 -0.08751,0.104324 0.04708,0.202731 0.0945,0.0691 0.215107,0.09888 0.268018,0.06618 0.05291,-0.0327 0.06868,-0.01491 0.03503,0.03952 -0.08291,0.13416 -0.963326,0.07713 -1.519761,-0.09844 -0.423101,-0.133501 -0.4682,-0.130958 -0.68368,0.03854 -0.270636,0.212881 -1.156929,0.257401 -1.235747,0.06208 -0.03854,-0.09552 -0.04969,-0.09552 -0.05571,0 -0.0041,0.06566 -0.07202,0.119395 -0.150816,0.119395 -0.105379,0 -0.143274,-0.109805 -0.143274,-0.415149 z m 2.961006,0.282094 c 0,-0.02065 -0.0667,-0.06314 -0.148235,-0.09442 -0.085,-0.03262 -0.123343,-0.01661 -0.08988,0.03754 0.05609,0.09076 0.238115,0.134242 0.238115,0.05688 z m -2.483423,-0.24901 c 0,-0.05254 -0.04552,-0.09552 -0.101154,-0.09552 -0.05564,0 -0.07458,0.04298 -0.04212,0.09552 0.03246,0.05254 0.07798,0.09552 0.101153,0.09552 0.02316,0 0.04212,-0.04298 0.04212,-0.09552 z m 0.582649,-0.276997 c -0.22825,-0.22825 -0.296101,-0.248578 -0.296101,-0.08871 0,0.186985 0.31129,0.47469 0.408463,0.377515 0.05395,-0.05395 0.0103,-0.16614 -0.112362,-0.288805 z m 1.375435,0.276997 c -0.105069,-0.04515 -0.255507,-0.08209 -0.334308,-0.08209 -0.09031,0 -0.07265,0.03035 0.04775,0.08209 0.105069,0.04514 0.255507,0.08209 0.334308,0.08209 0.09031,0 0.07265,-0.03035 -0.04776,-0.08209 z m 0.453702,-0.158775 c -0.06566,-0.0265 -0.173123,-0.0265 -0.23879,0 -0.06566,0.0265 -0.01194,0.04817 0.119395,0.04817 0.131335,0 0.185063,-0.02168 0.119395,-0.04817 z m -0.145264,-0.376514 c -0.03174,-0.03174 -0.114123,-0.03513 -0.183073,-0.0076 -0.0762,0.03049 -0.05357,0.05313 0.0577,0.0577 0.100689,0.0041 0.157104,-0.01843 0.125365,-0.05017 z m 0.861637,-0.419285 c 0.06566,-3.24e-4 0.119395,-0.04357 0.119395,-0.0961 0,-0.05254 -0.04512,-0.09552 -0.100259,-0.09552 -0.164971,0 -0.663872,0.284709 -0.663872,0.378853 0,0.04807 0.118202,0.02574 0.26267,-0.04963 0.144468,-0.07537 0.316398,-0.137287 0.382066,-0.137609 z m -3.062911,-0.400564 c -0.0305,-0.0762 -0.05313,-0.05357 -0.0577,0.0577 -0.0041,0.100691 0.01842,0.157105 0.05017,0.125365 0.03174,-0.03174 0.03513,-0.114121 0.0076,-0.183072 z m -0.160765,-0.01963 c 0,-0.02065 -0.06447,-0.06228 -0.143275,-0.09252 -0.0788,-0.03024 -0.143274,-0.01335 -0.143274,0.03754 0,0.05089 0.06447,0.09252 0.143274,0.09252 0.0788,0 0.143275,-0.01689 0.143275,-0.03754 z m 3.464284,-0.02511 c -0.06467,-0.02617 -0.193614,-0.02776 -0.286548,-0.0035 -0.09293,0.02422 -0.04003,0.04562 0.117577,0.04757 0.157602,0.0019 0.233639,-0.01787 0.168971,-0.04404 z M 42.899528,21.9195 c 0.04856,0.03001 0.08829,-0.09899 0.08829,-0.286675 0,-0.187682 0.05052,-0.422138 0.112269,-0.521013 0.08766,-0.140369 0.08219,-0.258799 -0.02496,-0.540322 -0.191495,-0.503136 -0.331085,-0.50333 -0.457664,-6.58e-4 -0.08613,0.34207 -0.08089,0.510518 0.02554,0.819425 0.07368,0.213861 0.123101,0.462402 0.109821,0.552313 -0.01327,0.08991 -0.0056,0.10922 0.01713,0.04291 0.0227,-0.06631 0.08101,-0.09601 0.129565,-0.066 z m 0.249052,-0.547716 c -0.0305,-0.0762 -0.05313,-0.05357 -0.05771,0.0577 -0.0041,0.10069 0.01843,0.157105 0.05017,0.125365 0.03174,-0.03174 0.03513,-0.114122 0.0076,-0.183072 z m -0.641272,-0.985012 c 0,-0.158188 -0.01592,-0.166399 -0.09259,-0.04775 -0.05092,0.0788 -0.09259,0.229239 -0.09259,0.334307 0,0.158188 0.01592,0.166399 0.09259,0.04775 0.05092,-0.0788 0.09259,-0.229238 0.09259,-0.334307 z m -0.122266,-0.692493 c -0.02402,-0.09193 -0.04368,-0.01672 -0.04368,0.167153 0,0.18387 0.01965,0.259089 0.04368,0.167154 0.02402,-0.09193 0.02402,-0.242373 0,-0.334307 z m 0.257152,0.209951 c 0.03262,-0.085 0.0166,-0.123343 -0.03754,-0.08988 -0.05194,0.03209 -0.09442,0.0988 -0.09442,0.148235 0,0.137394 0.06846,0.107119 0.131962,-0.05836 z m -0.03645,-0.520379 c 0,-0.05254 -0.01896,-0.09552 -0.04212,-0.09552 -0.02316,0 -0.06869,0.04298 -0.101153,0.09552 -0.03246,0.05254 -0.01351,0.09552 0.04212,0.09552 0.05564,0 0.101154,-0.04298 0.101154,-0.09552 z m 1.223265,-0.814417 c -0.02941,-0.02941 -0.08282,0.0236 -0.118687,0.117804 -0.05183,0.13613 -0.04087,0.147101 0.05347,0.05347 0.06528,-0.0648 0.09463,-0.141865 0.06522,-0.171273 z m -2.974398,4.475875 c -0.03502,-0.03502 -0.06401,-0.303662 -0.0644,-0.596976 -0.0012,-0.887184 -0.173333,-2.10055 -0.329639,-2.323708 -0.164125,-0.234322 -0.200146,-0.983338 -0.0517,-1.075082 0.05776,-0.0357 0.09552,0.09611 0.09552,0.333414 0,0.215845 0.05939,0.508513 0.131979,0.650372 0.07259,0.14186 0.160417,0.429856 0.195172,0.639992 0.05812,0.351376 0.14838,2.435666 0.105481,2.435666 -0.0103,0 -0.04738,-0.02866 -0.08241,-0.06368 z m 0.730721,-1.291749 c -0.112605,-0.121326 -0.27561,-0.456996 -0.362233,-0.745932 -0.08662,-0.288936 -0.249941,-0.761742 -0.36293,-1.050679 -0.236835,-0.605637 -0.374118,-1.550267 -0.217735,-1.498209 0.0554,0.01844 0.116459,0.115939 0.13567,0.216653 0.01921,0.100715 0.06307,0.204609 0.09746,0.230876 0.117115,0.08944 0.297435,0.58139 0.297435,0.811452 0,0.273155 0.457701,1.765378 0.592416,1.931431 0.184339,0.227218 0.02152,0.321619 -0.180083,0.104408 z m 4.506757,-0.26835 c -0.03246,-0.05254 0.008,-0.09552 0.08988,-0.09552 0.0819,0 0.148912,0.04298 0.148912,0.09552 0,0.05254 -0.04045,0.09552 -0.08988,0.09552 -0.04944,0 -0.116444,-0.04298 -0.148912,-0.09552 z m -1.921411,-2.125239 c 0.03242,-0.118201 0.08073,-0.386841 0.107349,-0.596977 0.04449,-0.351177 0.03209,-0.337181 -0.153276,0.173124 -0.110921,0.305353 -0.222294,0.534568 -0.247497,0.509367 -0.07037,-0.07037 0.366202,-1.20783 0.463583,-1.20783 0.172656,0 0.18341,0.276792 0.03111,0.800693 -0.08579,0.295094 -0.179429,0.536535 -0.208095,0.536535 -0.02867,0 -0.0256,-0.09671 0.0069,-0.214912 z m -0.848555,-1.634325 c -0.382957,-0.528422 -0.399656,-0.58589 -0.116298,-0.400227 0.218622,0.143246 0.528046,0.679252 0.439583,0.761476 -0.0202,0.01878 -0.165683,-0.143783 -0.323285,-0.361249 z m -0.944145,-0.508143 c -0.136482,-0.286207 -0.140548,-0.329057 -0.02188,-0.230568 0.08017,0.06653 0.182851,0.09805 0.22818,0.07003 0.04533,-0.02801 0.06383,0.07574 0.0411,0.230569 -0.02273,0.154828 -0.04997,0.281505 -0.06055,0.281505 -0.01058,0 -0.09466,-0.158194 -0.186864,-0.351541 z m 0.324752,0.28554 c 7.99e-4,-0.0425 0.04313,-0.141748 0.09405,-0.220549 0.0798,-0.123472 0.09279,-0.120952 0.09405,0.01825 7.99e-4,0.08883 -0.04152,0.188081 -0.09405,0.220549 -0.05254,0.03246 -0.09486,0.02426 -0.09405,-0.01825 z m -7.857682,-0.709349 c -0.197002,-0.101407 -0.358186,-0.226334 -0.358186,-0.277612 0,-0.05128 -0.0488,-0.09323 -0.108442,-0.09323 -0.11937,0 -0.560172,-0.442772 -0.560172,-0.562676 0,-0.08551 -0.724623,-0.774552 -0.81455,-0.774552 -0.12277,0 -0.329078,-0.276862 -0.24502,-0.328813 0.04845,-0.02994 0.106269,-4.47e-4 0.128487,0.06554 0.02222,0.066 0.160455,0.119991 0.307194,0.119991 0.160016,0 0.309585,0.07214 0.373705,0.18023 0.0588,0.09913 0.246397,0.335529 0.416881,0.52534 0.170484,0.18981 0.310177,0.37445 0.310428,0.41031 2.52e-4,0.03586 0.08642,0.09248 0.191489,0.125832 0.105069,0.03335 0.191033,0.1437 0.191033,0.245228 0,0.116905 0.06577,0.184596 0.179337,0.184596 0.170307,0 0.463082,0.250163 0.383493,0.327678 -0.02061,0.02008 -0.198674,-0.04646 -0.395677,-0.147865 z m 1.83869,-1.994624 c -0.100543,-0.06498 0.0419,-0.09259 0.477581,-0.09259 0.435684,0 0.578125,0.02761 0.477582,0.09259 -0.0788,0.05092 -0.293712,0.09259 -0.477582,0.09259 -0.183869,0 -0.39878,-0.04167 -0.477581,-0.09259 z m -0.856881,-0.282818 c -0.233005,-0.147358 -0.07056,-0.176434 0.236025,-0.04225 0.217246,0.09508 0.240347,0.126106 0.09552,0.128262 -0.105068,0.0015 -0.254261,-0.03714 -0.331541,-0.08601 z m 4.581663,-0.242145 c 0.123189,-0.131128 0.245037,-0.217357 0.270774,-0.191618 0.06341,0.06341 -0.275385,0.430032 -0.39739,0.430032 -0.05355,0 0.0034,-0.107286 0.126616,-0.238414 z m -7.772028,-0.135463 c -0.07118,-0.135839 -0.199485,-0.375926 -0.285129,-0.533528 -0.278956,-0.513338 -0.157664,-1.671536 0.175051,-1.671536 0.172364,0 0.188187,0.110277 0.03745,0.261013 -0.0595,0.0595 -0.113232,0.394728 -0.119396,0.744944 -0.0092,0.520319 0.01991,0.653404 0.158987,0.727793 0.09361,0.05007 0.158081,0.161765 0.143274,0.248209 -0.0186,0.10856 0.106019,0.208848 0.402903,0.324251 l 0.429824,0.167081 -0.406777,-0.01062 c -0.334868,-0.0087 -0.429653,-0.05428 -0.536189,-0.257602 z m 2.041403,-0.7621 c 0,-0.04691 0.06228,-0.109198 0.13841,-0.13841 0.09251,-0.03549 0.120796,-0.0072 0.0853,0.0853 -0.05798,0.151082 -0.223709,0.19043 -0.22371,0.05311 z m -0.573098,-0.907405 c 0,-0.09274 0.269103,-0.127597 0.390727,-0.0506 0.09797,0.06202 0.06311,0.08562 -0.128057,0.08668 -0.144468,7.99e-4 -0.26267,-0.01543 -0.26267,-0.03608 z m 2.387908,-0.280118 c 0,-0.154735 0.42189,-0.565842 0.50026,-0.487474 0.03094,0.03094 0.168791,-0.01746 0.306322,-0.10758 0.463533,-0.303719 0.333776,-0.08776 -0.191443,0.318624 -0.57201,0.442588 -0.615139,0.461969 -0.615139,0.27643 z M 34.060307,11.97292 c -0.125683,-0.191815 -0.213755,-0.234213 -0.39305,-0.189212 -0.127091,0.0319 -0.231074,0.01673 -0.231074,-0.03371 0,-0.112427 0.07222,-0.155148 0.3905,-0.230985 0.304832,-0.07264 0.533447,0.08967 0.617548,0.43844 0.08396,0.348177 -0.159496,0.357982 -0.383924,0.01546 z"
     id="path2" /></svg>
