<?xml version="1.0" encoding="UTF-8" standalone="no"?>
<svg
   width="143"
   height="30"
   viewBox="0 0 143 30"
   fill="none"
   version="1.1"
   id="svg3"
   xml:space="preserve"
   xmlns="http://www.w3.org/2000/svg"
   xmlns:svg="http://www.w3.org/2000/svg"><defs
     id="defs3" /><g
     id="g4"
     transform="translate(24.665498)"><g
       id="g5"><g
         id="g7"><path
           d="m 4.4910822,15 c 0,-8.28427 4.4151506,-15 9.8615138,-15 h 74.290073 c 5.446187,0 9.861511,6.71573 9.861511,15 v 0 c 0,8.2843 -4.415324,15 -9.861511,15 H 14.352596 C 8.9062328,30 4.4910822,23.2843 4.4910822,15 Z"
           fill="#1B1B1B"
           id="path1"
           style="fill:#693277;fill-opacity:1;stroke-width:0.810823" /><text
           xml:space="preserve"
           style="font-weight:bold;font-size:15.9999px;font-family:Roboto;-inkscape-font-specification:'Roboto, Bold';text-align:start;writing-mode:lr-tb;direction:ltr;text-anchor:start;fill:#ffffff;fill-opacity:1;stroke-width:0.0699996"
           x="36.133854"
           y="20.687464"
           id="text3"><tspan
             id="tspan3"
             x="36.133854"
             y="20.687464"
             style="stroke-width:0.0699996">THUDM</tspan></text><path
           style="fill:#ffffff;fill-opacity:1;stroke-width:0.568591"
           d="m 22.052278,23.664474 c -0.159501,-0.101461 -0.267016,-0.576214 -0.166135,-0.733596 0.05631,-0.08785 0.09888,-0.02092 0.132931,0.209034 0.06996,0.47248 0.297328,0.522607 0.297328,0.06556 0,-0.194908 0.0445,-0.354378 0.09889,-0.354378 0.139529,0 0.123422,0.628189 -0.01978,0.77139 -0.137188,0.13719 -0.184494,0.142978 -0.34324,0.042 z m -1.21932,-0.06747 c 0,-0.114473 0.340198,-0.745914 0.401873,-0.745914 0.0377,0 0.113733,0.178013 0.16896,0.395584 0.05522,0.217573 0.06435,0.395585 0.02027,0.395585 -0.04408,0 -0.100286,-0.05563 -0.124908,-0.12362 -0.03576,-0.09876 -0.08714,-0.09859 -0.255482,8.53e-4 -0.115893,0.06845 -0.210714,0.103339 -0.210714,0.07753 z m 1.845569,-0.320413 c -0.07813,-0.481472 -0.0012,-0.534851 0.287329,-0.199545 l 0.237042,0.275406 -0.0631,-0.315507 c -0.04166,-0.208313 -0.02796,-0.293793 0.04031,-0.251598 0.05687,0.03515 0.121639,0.220083 0.143923,0.410963 0.04754,0.407263 -0.120875,0.464774 -0.364706,0.124537 l -0.159467,-0.222517 0.06568,0.271965 c 0.03768,0.156012 0.02447,0.271964 -0.031,0.271964 -0.05317,0 -0.123379,-0.16455 -0.156016,-0.365668 z m -2.467626,0.136884 c -0.07035,-0.18334 0.03342,-0.661281 0.143587,-0.661281 0.05202,0 0.06266,0.155578 0.02453,0.358841 -0.08913,0.47509 0.156482,0.417298 0.292732,-0.06888 0.06781,-0.241959 0.107121,-0.287473 0.136922,-0.158519 0.08148,0.352597 -0.0643,0.659727 -0.313153,0.659727 -0.129126,0 -0.257205,-0.05845 -0.284618,-0.129888 z m 3.363236,0.0623 c -0.118625,-0.200732 -0.178832,-0.723577 -0.08332,-0.723577 0.05625,0 0.131883,0.157837 0.168073,0.350749 0.06297,0.335677 0.01583,0.54304 -0.08475,0.372828 z m -3.779588,-0.229096 c 0.07884,-0.248414 -0.125106,-0.26482 -0.307365,-0.02472 -0.120749,0.159068 -0.131633,0.159588 -0.134523,0.0065 -0.0017,-0.09164 0.04594,-0.291911 0.105936,-0.445032 0.107974,-0.27558 0.109948,-0.276147 0.194606,-0.05588 0.09644,0.250916 0.28969,0.300395 0.28969,0.07417 0,-0.08159 0.04927,-0.148343 0.109477,-0.148343 0.06021,0 0.08227,0.07089 0.04903,0.157531 -0.03325,0.08664 -0.08734,0.264656 -0.120198,0.395585 -0.03285,0.130929 -0.102426,0.238053 -0.154587,0.238053 -0.05216,0 -0.06659,-0.089 -0.03206,-0.197793 z m 4.122948,-0.09467 c -0.268149,-0.36269 -0.285558,-0.641992 -0.01876,-0.300906 0.191908,0.24534 0.193411,0.245548 0.195593,0.02726 0.0014,-0.14462 0.106983,-0.274162 0.308078,-0.378152 0.352787,-0.182434 0.513016,-0.111961 0.230831,0.101525 -0.183773,0.139033 -0.181959,0.144289 0.05084,0.147322 0.2336,0.0031 0.235202,0.0078 0.04945,0.148345 -0.186707,0.141217 -0.185709,0.145285 0.03638,0.148344 0.126471,0.0017 0.201084,0.04726 0.167232,0.102041 -0.133711,0.216349 -0.417771,0.09468 -0.519527,-0.222517 l -0.103105,-0.321422 -0.01161,0.296687 c -0.01959,0.50057 -0.142128,0.580518 -0.385411,0.251459 z m -5.253208,-0.188863 c -0.213211,-0.398386 0.205247,-0.819747 0.547945,-0.551745 0.175573,0.137304 0.171038,0.142483 -0.07591,0.08669 -0.208221,-0.04705 -0.276141,-0.0168 -0.327796,0.145943 -0.07086,0.223276 -4.7e-5,0.40485 0.157904,0.40485 0.05484,0 0.07156,-0.08873 0.03714,-0.197171 -0.04867,-0.153344 -0.02709,-0.183551 0.09709,-0.135899 0.224001,0.08595 0.142284,0.376254 -0.116328,0.413243 -0.135064,0.01932 -0.253882,-0.04227 -0.320048,-0.165904 z m 6.391507,-0.181323 c -0.09245,-0.174075 -0.168093,-0.358023 -0.168093,-0.408773 0,-0.137731 0.385181,-0.212183 0.46122,-0.08915 0.03909,0.06325 0.0981,0.01931 0.145257,-0.108181 0.04368,-0.118086 0.130809,-0.214701 0.193614,-0.214701 0.08236,0 0.07987,0.04136 -0.009,0.148345 -0.102456,0.123451 -0.08993,0.148344 0.07468,0.148344 0.250552,0 0.433376,0.213606 0.328318,0.383595 -0.04409,0.07135 -0.240241,0.134259 -0.43588,0.139804 -0.235588,0.0067 -0.366918,0.06194 -0.388903,0.163651 -0.02231,0.103223 -0.0883,0.04981 -0.201288,-0.162935 z m 0.919765,-0.227426 c 0,-0.09865 -0.404219,-0.204131 -0.516446,-0.13477 -0.151617,0.0937 0.120271,0.314199 0.322289,0.26137 0.106786,-0.02793 0.194157,-0.08489 0.194157,-0.1266 z m -0.692274,-0.0989 c 0,-0.05439 -0.0445,-0.0989 -0.0989,-0.0989 -0.0544,0 -0.0989,0.0445 -0.0989,0.0989 0,0.0544 0.0445,0.0989 0.0989,0.0989 0.05439,0 0.0989,-0.0445 0.0989,-0.0989 z m -7.127219,0.07417 c -0.0063,-0.303163 -0.01279,-0.308778 -0.114009,-0.0989 -0.05903,0.122384 -0.145017,0.222516 -0.191098,0.222516 -0.119532,0 -0.106653,-0.05694 0.100141,-0.442776 0.200309,-0.373735 0.308786,-0.360267 0.313701,0.03894 0.003,0.245146 0.009,0.247772 0.147322,0.06491 0.0793,-0.104814 0.163128,-0.171569 0.18629,-0.148343 0.07307,0.07327 -0.22341,0.685054 -0.331983,0.685054 -0.05702,0 -0.106683,-0.144637 -0.110364,-0.321413 z M 17.63875,22.109364 c 0.09078,-0.190376 0.20503,-0.346137 0.253881,-0.346137 0.04885,0 0.07256,0.03338 0.05268,0.07417 -0.233116,0.478455 -0.321274,0.618101 -0.390203,0.618101 -0.04478,0 -0.0071,-0.155761 0.08364,-0.346136 z m 8.487695,0.05436 c -0.175846,-0.340048 -0.189924,-0.436297 -0.05129,-0.350614 0.155652,0.0962 0.411633,0.642391 0.301064,0.642391 -0.05439,0 -0.166794,-0.1313 -0.24978,-0.291777 z m -9.158756,-0.06438 c -0.12391,-0.149302 -0.116336,-0.159823 0.07201,-0.100045 0.186157,0.05908 0.207741,0.03192 0.186744,-0.235007 -0.03489,-0.443414 -0.140379,-0.482126 -0.407154,-0.149404 -0.164523,0.205192 -0.238037,0.247049 -0.238376,0.135729 -2.7e-4,-0.08853 0.06727,-0.217194 0.150086,-0.285927 0.09034,-0.07497 0.126172,-0.201862 0.08957,-0.31719 -0.05872,-0.185024 -0.0514,-0.185927 0.195559,-0.02411 0.141112,0.09246 0.256568,0.202304 0.256568,0.244098 0,0.0418 0.089,0.09926 0.197793,0.127711 0.108785,0.02845 0.197792,0.099 0.197792,0.156776 0,0.05778 -0.06455,0.08028 -0.14343,0.05001 -0.106648,-0.04093 -0.138349,0.01594 -0.12362,0.221745 0.02353,0.328833 -0.223377,0.428849 -0.433542,0.175615 z m 3.618029,-0.02595 c -0.988446,-0.227953 -1.682752,-0.507239 -2.404732,-0.967306 -1.378851,-0.878645 -2.385307,-2.121353 -2.951909,-3.644831 -0.121378,-0.326361 -0.223007,-0.540193 -0.22584,-0.475182 -0.003,0.06851 -0.19097,0.130873 -0.447161,0.148344 l -0.442009,0.03014 0.326378,0.808039 c 0.333921,0.826713 0.951552,1.856638 1.457492,2.43043 0.333339,0.378043 0.338447,0.404464 0.120366,0.622545 -0.156116,0.156116 -0.184188,0.14573 -0.448701,-0.166004 -0.784784,-0.924887 -1.427901,-2.038791 -1.819289,-3.151081 l -0.226195,-0.642816 -0.746461,-0.02888 c -0.410553,-0.01589 -0.74626,-0.06039 -0.746015,-0.0989 2.44e-4,-0.03851 0.245013,-0.344167 0.543929,-0.679245 0.298917,-0.335078 0.543485,-0.640645 0.543485,-0.679038 0,-0.03839 -0.266513,-0.370417 -0.592252,-0.737832 l -0.592252,-0.668031 0.369735,-0.06112 c 0.203355,-0.03362 0.515768,-0.06161 0.694252,-0.0622 0.178485,-6.25e-4 0.340004,-0.05672 0.358932,-0.124708 0.01893,-0.068 0.112536,-0.479646 0.208015,-0.91479 0.425449,-1.938945 1.675942,-3.8257202 3.361073,-5.0712715 1.272284,-0.9403979 2.393891,-1.3571835 4.456542,-1.6560334 0.505017,-0.073172 2.177563,0.096592 2.960672,0.3005064 1.782607,0.4641723 3.792123,1.9010593 4.866465,3.4797255 0.648226,0.952516 1.413443,2.901094 1.413443,3.599238 0,0.411077 0.09801,0.583898 0.331994,0.585388 0.116564,7.39e-4 0.311256,0.02797 0.432647,0.06051 0.212116,0.05685 0.203944,0.07896 -0.209795,0.567303 -0.269042,0.317558 -0.448872,0.637964 -0.479473,0.854279 -0.04355,0.307849 0.006,0.406302 0.448334,0.890066 l 0.497297,0.543929 -0.564379,0.02979 c -0.473217,0.02498 -0.578835,0.06492 -0.653877,0.247241 -0.70508,1.713086 -1.184046,2.563444 -1.904991,3.382127 -0.347352,0.394442 -0.348969,0.395034 -0.559472,0.204998 l -0.211116,-0.190586 0.287099,-0.303895 c 0.639561,-0.676976 1.569117,-2.295704 1.750468,-3.048263 0.06411,-0.266026 0.05584,-0.271964 -0.378323,-0.271964 h -0.44386 l -0.473214,0.964237 c -0.409847,0.835121 -0.600148,1.090108 -1.421164,1.904226 -0.772571,0.766081 -1.103473,1.016237 -1.788569,1.352127 -1.513562,0.742072 -3.234809,0.976133 -4.697569,0.638794 z M 22.613091,20.082 c 0,-0.0544 0.08652,-0.0989 0.192277,-0.0989 0.204179,0 0.783268,-0.441503 0.695107,-0.529955 -0.02867,-0.02877 -0.251189,-0.0061 -0.494481,0.05029 -0.66441,0.154087 -2.044485,0.05131 -2.597855,-0.193476 -0.515373,-0.227973 -0.524759,-0.223289 -0.325339,0.162348 0.141148,0.27295 0.355177,0.4146 0.898502,0.594653 0.394373,0.130692 1.631789,0.142096 1.631789,0.01504 z m -3.059282,-0.79465 c 0.10521,-0.05631 0.191291,-0.136746 0.191291,-0.178754 0,-0.08442 -0.852907,-0.707832 -0.968401,-0.707832 -0.03991,0 -0.116485,-0.09725 -0.170178,-0.216118 -0.118968,-0.263373 -0.344863,-0.353937 -0.344863,-0.13826 0,0.08613 0.06676,0.156586 0.148344,0.156586 0.241313,0 0.16894,0.197377 -0.07417,0.202282 -0.19006,0.0038 -0.144038,0.07596 0.315524,0.494481 0.579354,0.527616 0.613477,0.542273 0.902456,0.387615 z m 5.587732,-0.156602 c 0.352186,-0.268625 0.445101,-0.596787 0.196033,-0.692363 -0.07893,-0.03029 -0.290318,0.05486 -0.469757,0.189221 -0.179438,0.134359 -0.477368,0.320792 -0.662065,0.414295 -0.256924,0.130068 -0.30339,0.190538 -0.197793,0.257401 0.271222,0.171738 0.788224,0.09486 1.133582,-0.168554 z m 1.440051,-1.669497 c 0.405868,-0.770736 0.413451,-0.840618 0.09122,-0.840618 -0.247099,0 -0.328923,0.07775 -0.590929,0.561491 -0.310448,0.573181 -0.35476,0.773801 -0.238075,1.077877 0.05749,0.149818 0.09605,0.134858 0.297755,-0.115531 0.127442,-0.158199 0.325454,-0.465648 0.440027,-0.683219 z m -8.692567,0.105446 c 0.02561,-0.133986 -2.25e-4,-0.290405 -0.05742,-0.347598 -0.07272,-0.07272 -0.046,-0.104577 0.08886,-0.105946 0.371324,-0.0037 2.628437,-0.290864 2.71698,-0.345587 0.04917,-0.03039 0.0056,-0.139005 -0.09671,-0.241367 -0.18792,-0.187919 -0.894531,-1.521074 -0.894531,-1.687699 0,-0.0495 0.133509,-0.242074 0.296688,-0.427925 0.163179,-0.18585 0.296688,-0.361177 0.296688,-0.389615 0,-0.0741 -0.812195,0.03871 -0.988962,0.137358 -0.126149,0.07041 -0.123323,0.08324 0.01889,0.0858 0.289764,0.0052 0.283114,0.158577 -0.03444,0.794057 l -0.308732,0.617825 0.21159,0.435514 c 0.257588,0.530195 0.270924,0.752842 0.04245,0.708843 -0.220656,-0.0425 -0.310984,-0.483015 -0.346423,-1.689455 l -0.02837,-0.965802 -0.593377,0.06301 c -0.531335,0.05643 -1.014433,0.236805 -0.634211,0.236805 0.115128,0 0.174416,0.260025 0.272988,1.197269 0.06925,0.658498 0.100522,1.222667 0.06948,1.253707 -0.03104,0.03104 -0.113803,-0.02201 -0.183914,-0.117895 -0.08205,-0.112214 -0.224528,-0.1625 -0.399852,-0.141125 l -0.272376,0.03322 0.310103,0.618915 c 0.31945,0.637569 0.433987,0.69938 0.514596,0.277704 z m 4.195452,-0.977865 c 0.05863,-0.05863 -0.08815,-1.609996 -0.228565,-2.415882 -0.053,-0.304199 -0.07881,-0.321413 -0.481942,-0.321413 -0.234266,0 -0.496333,0.02701 -0.582371,0.06003 -0.184736,0.07089 -0.212126,0.247799 -0.03282,0.211937 0.07646,-0.01529 0.133472,0.107328 0.149444,0.321412 0.0142,0.190375 0.07201,0.717226 0.128467,1.17078 0.08077,0.648868 0.07543,0.857432 -0.02502,0.978468 -0.113621,0.136904 -0.06521,0.148646 0.44007,0.106743 0.312254,-0.0259 0.59698,-0.07633 0.632728,-0.112073 z m 0.81294,-0.03001 c 0.322619,-0.06453 0.376665,-0.21968 0.246172,-0.706719 -0.04757,-0.177572 -0.08871,-0.200921 -0.196441,-0.111511 -0.07494,0.0622 -0.136265,0.171166 -0.136265,0.242146 0,0.07098 -0.111259,0.216573 -0.247241,0.323537 -0.396112,0.311582 -0.305228,0.380348 0.333775,0.252547 z m 1.639474,-0.30905 c -0.151894,-0.349182 -0.34851,-1.867787 -0.300901,-2.32406 0.05767,-0.552743 -0.06251,-0.604954 -0.515366,-0.223898 -0.592156,0.498268 -0.62059,1.804966 -0.04928,2.264405 0.575437,0.462752 1.004657,0.603366 0.86554,0.283553 z m 0.941999,-0.122448 c 0.139243,-0.07452 0.190214,-0.238012 0.215858,-0.692371 l 0.03357,-0.594812 -0.395585,0.01004 c -0.21757,0.0055 -0.506843,0.04225 -0.642824,0.08163 -0.22967,0.0665 -0.233185,0.07629 -0.04945,0.137775 0.156403,0.05234 0.203511,0.16825 0.225121,0.553931 0.01503,0.26826 -0.01907,0.516423 -0.07578,0.551474 -0.05671,0.03505 -0.07856,0.103456 -0.04855,0.152011 0.05335,0.08633 0.356654,0.0042 0.737643,-0.199674 z m -2.802324,-0.866506 c -0.03371,-0.203973 -0.06179,-0.448741 -0.06239,-0.543928 -0.0017,-0.271596 -0.169398,-0.203128 -0.339981,0.138814 -0.201071,0.403056 -0.196739,0.445456 0.05215,0.510543 0.114392,0.02992 0.178429,0.101758 0.142508,0.159879 -0.0364,0.0589 0.0087,0.105553 0.101885,0.105553 0.138085,0 0.15647,-0.06443 0.105821,-0.370861 z m 0.212785,-1.56156 c -0.06318,-0.06318 -0.869638,0.08018 -0.869638,0.15459 0,0.04134 0.110696,0.102937 0.245989,0.136893 0.135295,0.03396 0.324433,0.18219 0.42031,0.329408 l 0.174319,0.267669 0.03091,-0.427877 c 0.017,-0.235332 0.01615,-0.442639 -0.0019,-0.460683 z m 2.689536,0.473703 c -6.25e-4,-0.09519 -0.02844,-0.33853 -0.06188,-0.540759 -0.0524,-0.316998 -0.08545,-0.354493 -0.23965,-0.271965 -0.09838,0.05265 -0.34018,0.09573 -0.537341,0.09573 -0.420755,0 -0.386538,0.145342 0.05501,0.23365 0.222823,0.04457 0.337829,0.143001 0.419325,0.358911 0.121563,0.322055 0.3663,0.405599 0.364532,0.124437 z M 30.1292,14.015697 c 0,-0.504622 -0.416759,-1.842415 -0.83677,-2.686017 -1.614559,-3.2428913 -5.111651,-4.9940864 -8.706712,-4.3599514 -2.152147,0.3796184 -3.876182,1.4916127 -5.303039,3.4204374 -0.521083,0.704399 -0.99741,1.829424 -1.227489,2.899179 -0.190615,0.886267 -0.197031,0.858877 0.201172,0.858877 0.303282,0 0.346137,-0.03062 0.346137,-0.247241 0,-0.144468 0.05682,-0.24724 0.136688,-0.24724 0.08443,0 0.235355,-0.311971 0.394728,-0.815895 0.754423,-2.385407 2.607876,-4.1426996 5.155114,-4.8876577 0.833871,-0.2438711 2.641619,-0.2367035 3.510815,0.013916 2.59631,0.7486171 4.449328,2.5761897 5.187849,5.1166107 0.141455,0.486592 0.198388,0.564976 0.429765,0.591683 0.208015,0.02401 0.273596,0.09063 0.298003,0.302751 0.041,0.356351 0.413739,0.392877 0.413739,0.04055 z M 17.843375,13.035639 c 0.160948,-0.339956 0.432162,-0.791108 0.602698,-1.002561 0.217819,-0.270079 0.310066,-0.489518 0.310066,-0.737588 v -0.353129 l -0.450865,0.4409 c -0.482937,0.472262 -0.942905,1.20028 -1.176304,1.861803 l -0.144189,0.408677 h 0.28298 c 0.249978,0 0.317109,-0.07208 0.575614,-0.618102 z m 9.07703,0.237624 c -0.279722,-0.792816 -0.601026,-1.274327 -1.329916,-1.993031 l -0.752235,-0.741722 -0.03162,0.329958 c -0.02718,0.283603 0.04327,0.408646 0.50154,0.890066 0.293243,0.308059 0.680737,0.860505 0.861098,1.227657 0.289175,0.588661 0.360867,0.66755 0.606653,0.66755 h 0.278726 z m -7.521441,-2.091928 c 0.03362,-0.05439 0.01399,-0.0989 -0.04361,-0.0989 -0.05761,0 -0.104732,0.0445 -0.104732,0.0989 0,0.05439 0.01962,0.0989 0.04362,0.0989 0.02398,0 0.07111,-0.0445 0.104732,-0.0989 z m 0.731832,-0.484592 c 0.221036,-0.221036 0.511841,-0.25191 2.249135,-0.238787 1.18273,0.009 1.318493,0.02858 1.508166,0.218253 0.22227,0.222271 0.406228,0.271875 0.406228,0.10954 0,-0.0544 -0.089,-0.0989 -0.197792,-0.0989 -0.108786,0 -0.197793,-0.0445 -0.197793,-0.0989 0,-0.0544 0.06676,-0.0989 0.148345,-0.0989 0.08159,0 0.148345,-0.04188 0.148345,-0.09306 0,-0.168774 -0.226854,-0.23765 -0.71011,-0.2156 -0.309522,0.01412 -0.476645,-0.01868 -0.476645,-0.09357 0,-0.06922 0.08478,-0.09315 0.212038,-0.05987 0.164332,0.04298 0.18547,0.02888 0.09395,-0.06264 -0.07843,-0.07843 -0.517639,-0.118087 -1.307869,-0.118087 -1.019073,0 -1.207942,0.02484 -1.316357,0.173103 -0.06962,0.09521 -0.232917,0.166949 -0.362889,0.159427 -0.129972,-0.0075 -0.369822,0.04604 -0.533001,0.119011 l -0.296689,0.132685 0.321413,0.03556 c 0.43179,0.04778 0.411497,0.203803 -0.0249,0.191432 -0.19047,-0.0054 -0.399636,0.04351 -0.464812,0.108685 -0.09207,0.09207 -0.03689,0.118501 0.247415,0.118501 0.227635,0 0.436925,-0.07101 0.553819,-0.187902 z m 0.603266,-0.603267 c 0,-0.0544 0.06676,-0.0989 0.148345,-0.0989 0.08159,0 0.148344,0.0445 0.148344,0.0989 0,0.05439 -0.06676,0.0989 -0.148344,0.0989 -0.08159,0 -0.148345,-0.0445 -0.148345,-0.0989 z m 0.395585,0 c 0,-0.0544 0.089,-0.0989 0.197792,-0.0989 0.108786,0 0.197793,0.0445 0.197793,0.0989 0,0.05439 -0.089,0.0989 -0.197793,0.0989 -0.108785,0 -0.197792,-0.0445 -0.197792,-0.0989 z m 0.494481,0.0062 c 0,-0.05098 0.178013,-0.09024 0.395585,-0.08724 0.217572,0.003 0.395584,0.04471 0.395584,0.0927 0,0.04798 -0.178012,0.08724 -0.395584,0.08724 -0.217572,0 -0.395585,-0.04171 -0.395585,-0.0927 z m 0.890066,-0.0062 c 0,-0.0544 0.089,-0.0989 0.197792,-0.0989 0.108786,0 0.197792,0.0445 0.197792,0.0989 0,0.05439 -0.089,0.0989 -0.197792,0.0989 -0.108785,0 -0.197792,-0.0445 -0.197792,-0.0989 z m 4.10072,11.925572 c -0.0922,-0.140702 -0.240383,-0.257421 -0.329315,-0.259377 -0.1147,-0.0025 -0.07547,-0.07402 0.134994,-0.246014 0.17483,-0.142871 0.367774,-0.219913 0.469758,-0.187571 0.129836,0.04117 0.17474,-0.0024 0.179761,-0.174296 0.0067,-0.229096 0.0068,-0.229089 0.109065,0.01806 0.05631,0.135981 0.139681,0.320323 0.18528,0.409646 0.125519,0.245883 0.0033,0.290352 -0.210384,0.07659 -0.370535,-0.370535 -0.706267,-0.169669 -0.427505,0.255774 0.09121,0.139217 0.141127,0.277845 0.110909,0.308064 -0.03022,0.03022 -0.130372,-0.06018 -0.222563,-0.20088 z"
           id="path7" /></g></g></g></svg>
