<?xml version="1.0" encoding="UTF-8" standalone="no"?>
<svg
   width="168"
   height="30"
   viewBox="0 0 168 30"
   fill="none"
   version="1.1"
   id="svg5"
   xml:space="preserve"
   xmlns="http://www.w3.org/2000/svg"
   xmlns:svg="http://www.w3.org/2000/svg"><defs
     id="defs5" /><g
     id="g8"><g
       id="g10"
       transform="translate(19.473946)"><g
         id="g2"
         transform="translate(-18.275991)"><path
           d="m 23.39903,15 c 0,-8.28427 4.74922,-15 10.607682,-15 h 97.590658 c 5.85828,0 10.60769,6.71573 10.60769,15 v 0 c 0,8.2843 -4.74941,15 -10.60769,15 H 34.006712 C 28.14825,30 23.39903,23.2843 23.39903,15 Z"
           fill="#BFC2FF"
           id="path1"
           style="fill:#233746;fill-opacity:1;stroke-width:0.84094" /><text
           xml:space="preserve"
           style="font-style:normal;font-variant:normal;font-weight:900;font-stretch:normal;font-size:14.6667px;font-family:Roboto;-inkscape-font-specification:'Roboto, Heavy';font-variant-ligatures:normal;font-variant-caps:normal;font-variant-numeric:normal;font-variant-east-asian:normal;fill:#fefeff;fill-opacity:1;stroke-width:1.00157;stroke-linejoin:round"
           x="58.74081"
           y="20.503416"
           id="text5"><tspan
             id="tspan5"
             x="58.74081"
             y="20.503416"
             style="font-style:normal;font-variant:normal;font-weight:900;font-stretch:normal;font-size:14.6667px;font-family:Roboto;-inkscape-font-specification:'Roboto, Heavy';font-variant-ligatures:normal;font-variant-caps:normal;font-variant-numeric:normal;font-variant-east-asian:normal;fill:#fefeff;fill-opacity:1">TI Institute</tspan></text><path
           style="fill:#ffffff;fill-opacity:1;stroke:#ffffff;stroke-width:0.508634;stroke-dasharray:none;stroke-opacity:1"
           d="m 41.288183,24.753458 v -0.565159 h 0.360872 c 0.636271,0 1.769393,-0.192227 2.529554,-0.429121 2.134511,-0.665198 4.18588,-2.381345 5.326129,-4.455773 1.444739,-2.62838 1.399955,-6.17841 -0.110904,-8.791388 C 47.84181,7.8278484 45.078396,6.0609485 42.092132,5.8433824 L 41.288183,5.784808 V 5.2334083 4.6820078 l 0.895829,0.057771 c 4.281146,0.2761047 8.049508,3.4138554 9.180389,7.6441102 0.223068,0.834422 0.245233,1.069102 0.247115,2.616418 0.0019,1.56027 -0.01822,1.775008 -0.245048,2.616416 -0.963187,3.572832 -3.860568,6.461583 -7.381547,7.359568 -0.497794,0.126958 -1.308203,0.255915 -1.800909,0.286574 l -0.895829,0.05574 z m 1.313571,0.217129 c 3.004371,-0.23356 6.113223,-2.373727 7.67624,-5.284402 1.44943,-2.699154 1.541515,-6.134012 0.238673,-8.902683 -1.47702,-3.1388158 -4.692758,-5.4813972 -7.896226,-5.7521924 -0.353737,-0.029901 -0.759324,-0.072595 -0.901303,-0.094873 -0.247935,-0.038905 -0.257019,-0.026925 -0.2297,0.3028429 l 0.02845,0.3433472 0.860017,0.066114 c 3.700971,0.2845204 7.091337,3.1281327 8.093846,6.7885773 0.395626,1.444542 0.397716,3.492771 0.0052,5.051321 -0.625902,2.48496 -2.587116,4.840277 -5.008183,6.014573 -1.036719,0.502846 -1.987194,0.763824 -3.090816,0.848665 l -0.860018,0.06612 -0.02871,0.347739 c -0.02646,0.320569 -0.0121,0.344331 0.18376,0.304139 0.116856,-0.02398 0.534825,-0.06866 0.928818,-0.09929 z m -5.999444,-8.90979 v -2.798471 l -0.712068,-0.02684 -0.71207,-0.02684 -0.02599,-1.035002 -0.02599,-1.034999 2.782388,0.02434 2.782388,0.02434 0.02636,0.957226 c 0.01938,0.703928 -0.0049,0.977074 -0.09188,1.032239 -0.06503,0.04126 -0.417993,0.07566 -0.784364,0.07642 l -0.666129,0.0016 v 2.802335 2.802338 h -1.286318 -1.286318 z m 2.388877,-0.233564 v -2.848276 h 0.735039 0.735039 v -0.826922 -0.826916 h -2.572637 -2.572636 v 0.823202 0.823202 l 0.758009,0.02669 0.758009,0.02669 0.0243,2.825305 0.0243,2.825306 h 1.055291 1.055291 z m 2.296996,-0.826921 V 11.14136 h 1.286319 1.286317 v 3.858952 3.858956 h -1.286317 -1.286319 z m 2.388876,0 v -3.675193 h -1.102557 -1.102559 v 3.675193 3.675193 h 1.102559 1.102557 z m 1.561959,0 V 11.14136 h 1.286317 1.286318 v 3.858952 3.858956 h -1.286318 -1.286317 z m 2.296996,0 v -3.675193 h -1.056619 -1.056618 v 3.675193 3.675193 h 1.056618 1.056619 z m 5.053392,-4.221049 c 0,-0.09809 0.04134,-0.203894 0.09188,-0.235125 0.05211,-0.03221 0.09188,0.04499 0.09188,0.178339 0,0.129319 -0.04134,0.23512 -0.09188,0.23512 -0.05054,0 -0.09188,-0.08025 -0.09188,-0.178334 z"
           id="path2" /></g></g></g></svg>
