<?xml version="1.0" encoding="UTF-8" standalone="no"?>
<svg
   width="143"
   height="30"
   viewBox="0 0 143 30"
   fill="none"
   version="1.1"
   id="svg3"
   xml:space="preserve"
   xmlns="http://www.w3.org/2000/svg"
   xmlns:svg="http://www.w3.org/2000/svg"><defs
     id="defs3" /><g
     id="g10"><g
       id="g9"><g
         id="g8"
         transform="translate(38.30977)"><path
           d="M 0,15 C 0,6.71573 3.1174353,0 6.9629854,0 H 59.417476 c 3.845425,0 6.962985,6.71573 6.962985,15 v 0 c 0,8.2843 -3.11756,15 -6.962985,15 H 6.9629854 C 3.1174353,30 0,23.2843 0,15 Z"
           fill="#1b1b1b"
           id="path1"
           style="stroke-width:0.681322" /><text
           xml:space="preserve"
           style="font-weight:bold;font-size:17.3333px;font-family:Roboto;-inkscape-font-specification:'Roboto, Bold';text-align:start;writing-mode:lr-tb;direction:ltr;text-anchor:start;fill:#ffffff;stroke:#ffffff;stroke-width:0.07"
           x="30.909588"
           y="20.825243"
           id="text3"><tspan
             id="tspan3"
             x="30.909588"
             y="20.825243">xAI</tspan></text><g
           id="g7"
           transform="matrix(0.81271796,0,0,0.81271796,0.708211,2.3679114)"><path
             style="fill:#ffffff;stroke:#ffffff;stroke-width:0.00303701"
             d="m 17.637516,22.656246 c -0.500481,-0.720705 -2.273721,-3.259644 -3.940534,-5.642086 -1.666813,-2.382444 -3.017735,-4.344572 -3.002047,-4.360286 0.01569,-0.01571 0.747098,-0.03492 1.625357,-0.04267 l 1.596835,-0.0141 3.836098,5.480729 c 2.109853,3.014402 3.899401,5.573467 3.976773,5.686813 l 0.140675,0.206083 -1.661595,-0.0021 -1.661596,-0.0021 z"
             id="path4" /><path
             style="fill:#ffffff;stroke:#ffffff;stroke-width:0.00303701"
             d="m 18.108415,16.88797 c -0.450023,-0.608182 -1.231291,-1.782378 -1.231291,-1.850552 0,-0.05035 1.740376,-2.5648 4.477308,-6.4686983 l 1.018964,-1.4534284 h 1.608557 c 0.884707,0 1.620727,0.01218 1.635599,0.027065 0.02791,0.02793 -1.177469,1.7719503 -4.749079,6.8712957 -1.136501,1.622634 -2.123657,3.032477 -2.193679,3.132986 -0.07002,0.100509 -0.152064,0.183485 -0.182316,0.18439 -0.03025,9.06e-4 -0.20308,-0.198471 -0.384063,-0.443058 z"
             id="path5" /><path
             style="fill:#ffffff;stroke:#ffffff;stroke-width:0.00303701"
             d="m 23.833129,23.93034 c -0.242712,-0.01358 -0.452396,-0.03589 -0.465964,-0.04957 -0.03375,-0.03403 -0.08991,-1.974601 -0.203973,-7.048851 l -0.09659,-4.297026 1.079137,-1.538381 c 0.593525,-0.846109 1.192307,-1.6931462 1.330627,-1.882305 l 0.25149,-0.3439251 -4.39e-4,2.2745991 c -2.41e-4,1.251029 -0.02849,3.358162 -0.06278,4.682517 -0.03429,1.324355 -0.07352,3.442673 -0.08718,4.707372 -0.01366,1.2647 -0.03625,2.577667 -0.0502,2.917704 l -0.02536,0.618249 -0.613739,-0.0078 c -0.337557,-0.0043 -0.812322,-0.01896 -1.055034,-0.03254 z"
             id="path6" /><path
             style="fill:#ffffff;stroke:#ffffff;stroke-width:0.00303701"
             d="m 11.291186,23.938282 c -0.346215,-0.0075 -0.618249,-0.03122 -0.618249,-0.054 0,-0.02237 0.247991,-0.397662 0.551092,-0.833988 0.845773,-1.217526 2.707575,-3.869516 2.743426,-3.907795 0.01755,-0.01874 0.335179,0.401018 0.705836,0.932797 0.737197,1.057654 0.888468,1.288991 0.909801,1.39135 0.0078,0.03733 -0.365492,0.616022 -0.829495,1.285975 l -0.843643,1.218097 -1.000259,-0.0096 c -0.550143,-0.0053 -1.278472,-0.01555 -1.618509,-0.02288 z"
             id="path7" /></g></g></g></g></svg>
