<?xml version="1.0" encoding="UTF-8" standalone="no"?>
<svg
   width="143"
   height="30"
   viewBox="0 0 143 30"
   fill="none"
   version="1.1"
   id="svg3"
   xml:space="preserve"
   xmlns="http://www.w3.org/2000/svg"
   xmlns:svg="http://www.w3.org/2000/svg"><defs
     id="defs3" /><g
     id="g3"
     transform="translate(33.898634)"><g
       id="g4"
       transform="translate(13.989387)"><path
         d="m -26.076707,15 c 0,-8.28427 4.667073,-15 10.424201,-15 h 78.52897 c 5.756937,0 10.424202,6.71573 10.424202,15 v 0 c 0,8.2843 -4.667265,15 -10.424202,15 h -78.52897 c -5.757128,0 -10.424201,-6.7157 -10.424201,-15 z"
         fill="#1B1B1B"
         id="path1"
         style="fill:#ff6900;fill-opacity:1;stroke-width:0.833634" /><text
         xml:space="preserve"
         style="font-weight:bold;font-size:16px;font-family:Roboto;-inkscape-font-specification:'Roboto, Bold';text-align:start;writing-mode:lr-tb;direction:ltr;text-anchor:start;fill:#ffffff;fill-opacity:1;stroke-width:0.07"
         x="11.544046"
         y="20.28425"
         id="text3"><tspan
           id="tspan3"
           x="11.544046"
           y="20.28425">Xiaomi</tspan></text><path
         style="fill:#ffffff;fill-opacity:1;stroke-width:0.54926"
         d="m -11.444185,23.011267 c -0.911409,-0.468887 -2.002786,-1.40567 -2.425284,-2.081741 -0.422497,-0.67607 -0.880857,-2.982367 -1.018576,-5.125104 -0.184597,-2.872099 -0.0164,-4.388989 0.640027,-5.772321 0.489736,-1.0320372 1.446624,-2.2240169 2.12642,-2.6488428 0.679802,-0.4248259 2.9891491,-0.8850905 5.1318829,-1.0228087 2.8721015,-0.1845977 4.3889924,-0.016403 5.7723197,0.6400273 1.03204267,0.489734 2.2240189,1.4466237 2.6488439,2.126421 0.4248305,0.6797977 0.8850937,2.9891432 1.0228096,5.1318812 0.1846007,2.872099 0.016423,4.388988 -0.640025,5.77232 -0.4897365,1.032038 -1.44662393,2.225972 -2.12642083,2.653187 -0.679797,0.427215 -3.08974577,0.867373 -5.35544267,0.97813 -2.9713575,0.145251 -4.5812876,-0.03622 -5.7765546,-0.651149 z m 1.382477,-7.173016 c 0,-1.707321 0.2591071,-2.588338 0.8251141,-2.805534 0.453815,-0.174145 1.442482,-0.16168 2.1970393,0.0277 1.2077176,0.303117 1.3719242,0.638914 1.3719242,2.805534 0,1.821565 0.2141183,2.461205 0.8238898,2.461205 0.6080252,0 0.8238898,-0.635812 0.8238898,-2.426747 0,-1.33471 -0.1500303,-2.817711 -0.3333952,-3.295559 -0.2559057,-0.666876 -1.1495459,-0.868812 -3.8448189,-0.868812 -3.5114231,0 -3.5114231,0 -3.5114231,3.295559 0,2.563213 0.183084,3.295559 0.823889,3.295559 0.611135,0 0.823891,-0.642719 0.823891,-2.488907 z m 3.2955584,0.566499 c 0,-1.342635 -0.2484738,-1.922409 -0.8238903,-1.922409 -0.575415,0 -0.823889,0.579774 -0.823889,1.922409 0,1.342635 0.248474,1.92241 0.823889,1.92241 0.5754165,0 0.8238903,-0.579775 0.8238903,-1.92241 z m 6.04185767,-1.37315 c 0,-2.929386 -0.122062,-3.295559 -1.09851957,-3.295559 -0.9764631,0 -1.0985197,0.366173 -1.0985197,3.295559 0,2.929386 0.1220566,3.29556 1.0985197,3.29556 0.97645757,0 1.09851957,-0.366174 1.09851957,-3.29556 z"
         id="path4" /></g></g></svg>
