<?xml version="1.0" encoding="UTF-8" standalone="no"?>
<svg
   width="74"
   height="30"
   viewBox="0 0 74 30"
   fill="none"
   version="1.1"
   id="svg6"
   xmlns="http://www.w3.org/2000/svg"
   xmlns:svg="http://www.w3.org/2000/svg">
  <defs
     id="defs6" />
  <path
     d="M0 15C0 6.71573 6.71573 0 15 0H59C67.2843 0 74 6.71573 74 15V15C74 23.2843 67.2843 30 59 30H15C6.71573 30 0 23.2843 0 15V15Z"
     fill="#BCF0B5"
     id="path1" />
  <path
     d="M17.4975 9.7876C18.3009 9.2561 19.2944 9.12176 20.239 9.13026C21.1384 9.14141 22.0825 9.2991 22.828 9.83592C23.3696 10.2166 23.7216 10.8044 23.9563 11.4124C24.336 12.4106 24.4475 13.4885 24.4602 14.5494C24.4618 15.6177 24.4135 16.7094 24.0598 17.7272C23.823 18.4196 23.3722 19.0345 22.7775 19.4614C23.2055 20.1549 23.642 20.843 24.0699 21.5365C23.5321 21.7844 22.9958 22.034 22.4574 22.2809C21.9991 21.5248 21.543 20.7671 21.0832 20.012C20.4614 20.114 19.8253 20.106 19.2004 20.037C18.4517 19.9472 17.6887 19.7189 17.111 19.215C16.6671 18.8306 16.3883 18.2927 16.1977 17.7458C15.8855 16.8209 15.8016 15.8365 15.7873 14.8658C15.7798 13.8166 15.8467 12.751 16.1632 11.7442C16.408 10.9871 16.8131 10.2315 17.4975 9.7876Z"
     fill="#BCF0B5"
     id="path4" />
  <path
     d="M26.6175 9.75333C27.1804 9.7528 27.7432 9.7528 28.306 9.75333C28.3076 10.4978 28.3055 11.2416 28.3071 11.9861C29.0265 11.9871 29.746 11.9861 30.4655 11.9866C30.4533 12.4698 30.44 12.953 30.4262 13.4362C29.7073 13.4378 28.9888 13.4356 28.2699 13.4372C28.2715 14.6574 28.2662 15.8776 28.2726 17.0978C28.2864 17.4317 28.2789 17.7843 28.426 18.0928C28.5333 18.3307 28.8221 18.3917 29.0573 18.3997C29.5007 18.3981 29.9435 18.3721 30.3869 18.3641C30.414 18.808 30.44 19.2524 30.4655 19.6963C29.5835 19.8445 28.6581 20.0218 27.7819 19.7447C27.4129 19.6353 27.0688 19.3905 26.9191 19.0257C26.651 18.405 26.6292 17.7142 26.6175 17.0478C26.6165 15.8441 26.6175 14.6409 26.617 13.4372C26.2246 13.4362 25.8322 13.4378 25.4398 13.4362C25.4388 12.9535 25.4388 12.4703 25.4398 11.9871C25.8322 11.9855 26.2241 11.9877 26.6165 11.9861C26.6181 11.2416 26.6159 10.4978 26.6175 9.75333Z"
     fill="#BCF0B5"
     id="path5" />
  <text
     xml:space="preserve"
     style="font-weight:900;font-size:18.6667px;font-family:Roboto;-inkscape-font-specification:'Roboto, Heavy';fill:#002204;fill-opacity:1;stroke-width:1.00157;stroke-linejoin:round"
     x="18.087206"
     y="21.544283"
     id="text6"><tspan
       id="tspan6"
       x="18.087206"
       y="21.544283">Free</tspan></text>
</svg>
